<svg height='100px' width='100px'  fill="#000000" xmlns="http://www.w3.org/2000/svg" viewBox="0 0 67.19 88" x="0px" y="0px"><title>Asset 26</title><g data-name="Layer 2"><g data-name="Layer 1"><path d="M33.59,88a33.58,33.58,0,0,1-1-67.14l.86,0,.1-.85A22.72,22.72,0,0,1,56.06,0H58V1.92A22.8,22.8,0,0,1,46.49,21.64l-1.76,1,1.86.79A33.59,33.59,0,0,1,33.59,88ZM32.3,24.7a29.75,29.75,0,1,0,6,.35l-1.16-.19v8.56l1.37-.53a8.91,8.91,0,0,0,2.31-1.33l2.72,2.72a12.82,12.82,0,0,1-16.62,0l2.72-2.72A9,9,0,0,0,32,32.89l1.37.54V24.65ZM52.68,4.13A19,19,0,0,0,37.47,19.34l-.26,1.42,1.42-.26A19,19,0,0,0,53.85,5.29l.26-1.42Z"></path></g></g></svg>