<svg height='100px' width='100px'  fill="#000000" xmlns="http://www.w3.org/2000/svg" xmlns:xlink="http://www.w3.org/1999/xlink" version="1.1" x="0px" y="0px" viewBox="0 0 66 66" enable-background="new 0 0 66 66" xml:space="preserve"><g><path d="M45.9,36.5c-4.7,4.7-5.8,11.4-2.7,15.3c-3.2,2.5-6.1,4.1-7.6,4.8c-1-4.3-1.3-10.4,1.4-17.3c0.5-1.3,0.9-2.5,1.2-3.8   c7-0.3,12.6-7.9,12.6-17.3C50.9,8.8,45,1,37.8,1S24.8,8.8,24.8,18.3c0,8.9,5,16.2,11.5,17.2c-0.3,1.1-0.6,2.1-1,3.2   c-1.3,3.2-1.9,6.3-2.2,9c-1-0.1-2.8-0.3-5-1.2c1.1-2,1.5-4.5,1.1-7.1c-0.5-3.6-2.4-7.1-5.3-10C18.5,24,9.7,21.6,4.6,26.7   c-4.6,4.6-3.4,13.2,2.7,19.2c5.4,5.4,14.1,7.7,19.2,2.7c0.1-0.1,0.2-0.3,0.3-0.4c2.7,1.1,4.9,1.4,6.1,1.5   c-0.2,8.7,3.4,14.5,3.6,14.9c0.3,0.5,0.9,0.6,1.3,0.3c0.5-0.3,0.6-0.9,0.3-1.3c0,0-1.1-1.9-2.1-4.9c1.5-0.7,4.8-2.4,8.6-5.4   c4.4,3.2,11,1,14.9-3c4.6-4.6,6.3-11.7,2.2-15.9C57.6,30.1,50.4,32.1,45.9,36.5z M26.7,18.3c0-8.5,5-15.4,11.1-15.4   c6.1,0,11.1,6.9,11.1,15.4c0,8.1-4.5,14.7-10.2,15.3c0.5-2.5,0.8-5,0.8-7.4c3.8-2.9,4.9-6.9,5-7c0.1-0.5-0.2-1-0.7-1.2   c-0.5-0.1-1.1,0.2-1.2,0.7c0,0-0.8,2.7-3.1,5c-0.1-2.6-0.4-4.9-0.7-7c2.8-3.3,3.5-6.4,3.5-6.5c0.1-0.5-0.2-1-0.8-1.1   c-0.5-0.1-1,0.2-1.1,0.8c0,0-0.4,2-2.1,4.4c-0.6-2.8-1.3-4.6-1.3-4.8c-0.2-0.5-0.7-0.8-1.2-0.6C35.3,9,35,9.6,35.2,10.1   c0,0.1,1.4,3.8,2,9.3c-1.3-0.8-2.8-2.7-3.7-4.2c-0.3-0.5-0.9-0.6-1.3-0.3c-0.5,0.3-0.6,0.9-0.3,1.3c0.5,0.8,3,4.6,5.6,5.4   c0.2,2.2,0.2,4.5,0,7c-2.1-1.5-3-4.7-3-4.8c-0.1-0.5-0.7-0.8-1.2-0.7c-0.5,0.1-0.8,0.7-0.7,1.2c0.1,0.2,1.3,4.7,4.7,6.4   c-0.1,1-0.3,2-0.5,3C31.1,32.9,26.7,26.3,26.7,18.3z M8.7,44.5C3.4,39.2,2.2,31.8,6,28c4.2-4.2,11.8-1.9,16.5,2.7   c2.6,2.6,4.3,5.8,4.8,8.9c0.3,2.3,0,4.4-1,6.1c-0.7-0.3-1.4-0.7-2.1-1.2c1.2-4.7-0.8-7.1-0.9-7.2c-0.3-0.4-0.9-0.4-1.4-0.1   c-0.4,0.3-0.5,0.9-0.1,1.4c0.1,0.1,1.3,1.6,0.6,4.8c-2.2-1.6-4.5-3.9-6.7-7c-0.3-0.4-0.9-0.5-1.4-0.2c-0.4,0.3-0.5,0.9-0.2,1.4   c0.9,1.2,1.8,2.3,2.7,3.3c-2.3,0.2-4.5-1.2-4.6-1.3c-0.5-0.3-1-0.2-1.3,0.3c-0.3,0.5-0.2,1.1,0.3,1.3c0.1,0.1,2.5,1.6,5.3,1.6   c0.6,0,1.3-0.1,2-0.3c2.3,2.2,4.6,3.8,6.6,4.9C20.7,51.4,13.2,49,8.7,44.5z M58.3,48.8c-3.2,3.2-8.3,5.2-12,3   c1.4-1.2,2.9-2.6,4.3-4.2c0.4,0.1,0.9,0.1,1.5,0.1c1.1,0,2.6-0.2,3.9-1c0.5-0.3,0.6-0.9,0.3-1.3c-0.3-0.5-0.9-0.6-1.3-0.3   c-0.9,0.6-1.9,0.7-2.8,0.7c0.5-0.6,1-1.3,1.5-2c0.3-0.4,0.2-1-0.2-1.4c-0.4-0.3-1-0.2-1.4,0.2c-1.3,1.9-2.8,3.6-4.3,5.1   c-0.4-1.9,0.5-4.1,0.5-4.1c0.2-0.5,0-1.1-0.5-1.3c-0.5-0.2-1.1,0-1.3,0.5c-0.1,0.2-1.6,3.5-0.3,6.4c-0.5,0.4-0.9,0.9-1.4,1.2   c-2.5-3.1-1.5-8.7,2.5-12.7c3.6-3.6,9.8-5.6,13.1-2.2C63.8,39.1,61.9,45.2,58.3,48.8z"></path></g></svg>