<svg height='100px' width='100px'  fill="#000000" xmlns="http://www.w3.org/2000/svg" xmlns:xlink="http://www.w3.org/1999/xlink" version="1.1" x="0px" y="0px" viewBox="0 0 100 100" enable-background="new 0 0 100 100" xml:space="preserve"><g><path d="M49.131,93.528c0.059,0.104,1.14,1.046,1.256,0.977c0.116-0.07,0.051-15.62,0.186-19.854   c0.094-2.929-0.65-7.299,2.093-9.298s5.068-3.208,8.322-3.115c3.255,0.093,12.646-0.279,15.343-0.837s4.51-0.465,3.766-1.209   c-0.743-0.744-3.301-3.162-6.647-2.976c-3.348,0.187-5.348,0.512-5.348,0.512s5.068-2.418,7.393-2.976   c2.324-0.559,5.301-1.767,5.951-2.464c0.65-0.698-0.558-1.395-1.534-1.581c-0.977-0.187-3.812,0.371-3.812,0.371   s3.998-1.999,5.486-4.323c1.487-2.324,1.999-4.23,2.046-4.696c0.046-0.465-0.918-0.748-1.93-0.697   c-1.24,0.062-2.767,0.139-4.161,0.79c-1.396,0.651-4.417,3.208-4.417,3.208s1.255-1.999,1.255-2.79c0-0.791,0.047-2.231-0.929-1.72   c-0.978,0.511-1.768,0.837-3.395,2.696c-1.627,1.86-5.486,7.114-5.486,7.114s2.139-3.626,2.324-5.114   c0.187-1.488-1.022-3.441-1.022-3.441c-0.278-0.512-0.54-0.655-1.519,0.14c-0.744,0.604-0.992,0.651-2.898,3.348   c-1.906,2.696-2.882,5.579-4.045,8.183c-1.162,2.604-2.93,7.206-4.882,9.438c-1.953,2.232-2.371,3.859-2.324,1.768   c0.046-2.093,0.79-6.974,1.72-9.95c0.93-2.975,1.209-4.51,3.068-7.113c1.86-2.604,8.834-9.531,10.229-12.368   c1.395-2.836,2.743-6.602,2.837-7.532c0.093-0.93,0.79-1.767-1.163-1.116c-1.953,0.651-3.316,1.535-3.952,2.124   c-0.893,0.827-1.812,1.596-1.812,1.596s-0.14-1.674-0.744-0.93s-2.186,2.138-2.883,3.44c-0.696,1.302-4.975,8.555-4.975,8.555   s0.931-4.836,2.093-7.486c1.162-2.65,4.137-7.021,5.021-10.136c0.883-3.115,0.789-3.301,0.789-3.952   c0-0.651,0.419-1.674-1.487-0.791s-3.998,2.79-4.742,4.742c-0.743,1.953-1.628,3.301-1.628,3.301s2.559-8.415,2.884-10.275   s0.046-2.325-0.047-2.836c-0.094-0.511-0.326-0.883-1.069-0.372c-0.744,0.511-1.813,1.906-1.813,1.906s0.79-2.417,0.651-4.044   c-0.14-1.627-1.722-4.975-1.952-5.626c-0.233-0.651-0.326-0.836-0.978,0.139c-0.65,0.977-3.348,3.999-3.44,5.766   c-0.092,1.767,0,3.999,0,3.999s-0.512-1.163-1.348-1.72c-0.838-0.558-1.953-1.209-2.046-0.233   c-0.093,0.977,0.511,5.301,1.208,7.114c0.698,1.813,1.023,5.068,1.023,5.068s-1.209-2.929-2.789-4.463   c-1.582-1.535-2.836-2.092-3.627-2.186c-0.791-0.093-0.791-0.046-0.698,1.441c0.093,1.488,1.721,4.742,2.046,5.812   c0.326,1.07,3.069,6.928,3.441,8.694c0.371,1.767,2.139,8.044,2.139,8.044s-2.418-5.626-2.65-6.556   c-0.232-0.93-3.026-8.413-3.254-8.788c-0.193-0.317-0.837-0.744-0.837,0.325c0,1.07-0.232,0.791-0.232,0.791   s-1.302-2.417-2.836-3.394c-1.534-0.977-2.557-1.349-3.022-1.674c-0.465-0.326-0.651-0.279-0.651,1.116s-0.186,2.371,0.511,4.231   c0.698,1.859,1.535,3.021,1.535,3.021s-1.023-0.558-1.674-0.697c-0.651-0.14-2.186-0.093-1.441,0.744   c0.744,0.837,5.161,6.742,6.742,9.159c1.58,2.418,7.067,8.509,7.67,10.369c0.605,1.859,1.814,5.579,2.14,7.672   c0.325,2.092,0.651,4.742,0.651,5.393s0.046,1.302-1.023-0.325c-1.068-1.627-4.51-4.882-4.836-7.532   c-0.324-2.65-1.859-6.555-3.301-8.973c-1.441-2.418-4.463-5.579-5.346-6.137s-1.163-0.65-1.441,0.558s-0.791,4.323,0.651,6.695   c1.441,2.371,2.185,3.44,2.185,3.44s-3.999-4.556-4.835-5.393s-2.231-2.604-3.022-3.255c-0.791-0.65-1.441-0.976-1.859-1.162   c-0.418-0.186-0.93-0.418-0.837,0.931c0.093,1.347,0.139,2.138,0.604,2.789c0.465,0.651,1.349,1.953,1.349,1.953   s-2.604-2.045-4.231-2.789c-1.627-0.744-1.953-1.07-4.092-1.116c-2.139-0.047-2.976,0.372-3.812,0.418s-0.65,0.279,0,1.162   c0.651,0.883,1.674,2.836,3.162,4.231c1.487,1.395,4.51,2.324,4.51,2.324s-2.976,0.14-3.673,0.791   c-0.698,0.651-1.349,1.069-0.187,1.348c1.163,0.279,5.672,1.303,7.253,1.441c1.581,0.14,3.812,0.187,4.789,0.651   s1.72,1.348,1.72,1.348s-4.324-1.348-6.37-1.115s-2.185-0.047-3.719,0.884c-1.534,0.93-2.371,1.999-2.557,2.324   s-0.511,0.559,1.302,0.977c1.813,0.419,6.695,1.44,9.02,1.302c2.324-0.14,9.81-0.372,11.577,0.325   c1.766,0.698,6.416,3.068,7.067,4.277s0.604,6.882,0.558,8.462C49.363,77.721,49.074,93.423,49.131,93.528z"></path></g></svg>