<svg height='100px' width='100px'  fill="#000000" xmlns="http://www.w3.org/2000/svg" xmlns:xlink="http://www.w3.org/1999/xlink" version="1.1" x="0px" y="0px" viewBox="0 0 100 100" style="enable-background:new 0 0 100 100;" xml:space="preserve"><desc xmlns:shape="http://adobe.com/products/shape"></desc><g><desc xmlns:shape="http://adobe.com/products/shape"></desc><path d="M68,74.8c-2.1,6-4.1,12.1-6.6,17.9c-1,2.3-2.2,4.8-4.4,6c-1.2,0.7-2.7,0.8-4.1,1c-3.6,0.4-7.3,0.7-10.5-0.9   c-3.3-1.8-5.2-5.4-6.6-8.8C24.3,62.7,26.9,30.1,42.5,5c1.7-2.8,4.5-5.8,7.6-4.8c1.5,0.4,2.6,1.7,3.6,3c5.8,7.4,11.5,15.2,14.5,24.1   c3,8.9,3.2,18.5,3.2,27.9c0,3.5-0.1,7-0.7,10.5C70,68.8,69,71.8,68,74.8 M51.2,75.2c-6-16.6-10.9-33.6-14.7-50.8   c-8,19.5-5.4,41.7,0.9,61.9c1.4,4.4,3.4,9.3,7.6,11.1c4.2,1.8,9.2-0.2,12.4-3.5c0.5-0.6,1-1.2,1.2-1.9c0.5-1.8-0.8-3.5-1.9-5   C54.2,83.3,52.6,79.2,51.2,75.2 M58.3,85.4c0.4,0.9,1.2,2,2.2,1.8c7.4-16,10-34.2,7.2-51.5c-0.7-4.6-1.9-9.3-4.4-13.2   c-3.9,12.2-8.4,24.2-13.6,36c-0.8,1.7-0.3,3.8,0.3,5.6C52.2,71.4,55,78.5,58.3,85.4 M40,14.7c-0.8,1.8-1.4,3.6-1.5,5.5   c-0.1,1.9,0.2,3.8,0.6,5.7c2.2,10.5,5.1,20.8,8.7,30.9c3.5-8.9,7-17.8,10.4-26.6c0.4-1.1,0.8-2.5-0.1-3.3   c-6.3-4.9-11.3-11.6-14-19.2C42.5,9.9,41.1,12.3,40,14.7 M55,9.1c-0.8,1.3-0.9,3-2,4c-0.7,0.6-1.6,0.9-2,1.8   c-0.5,1.1,0.4,2.3,1.1,3.1c1.5,1.7,3,3.5,4.6,5.2c0.5,0.6,1,1.1,1.6,1.4c0.7,0.3,1.6,0.1,1.9-0.5c0.6-1,1.2-2.1,1.2-3.3   c-0.1-0.8-0.4-1.5-0.7-2.3c-1.5-3.2-3-6.4-4.4-9.5c0-0.1-0.1-0.2-0.2-0.3C55.8,8.4,55.2,8.8,55,9.1 M45.4,6.3   c0.1,0.5,0.3,1,0.6,1.5c0.7,1.3,1.4,2.5,2.1,3.8c0.1,0.3,0.4,0.7,0.7,0.9c0.6,0.4,1.5,0.3,2.1-0.2c0.6-0.5,0.9-1.2,1.2-1.9   c0.3-0.7,0.6-1.4,0.9-2c0.2-0.4,0.4-0.9,0.4-1.4c0-0.6-0.4-1.1-0.7-1.6c-0.5-0.7-1.1-1.4-1.6-2c-0.5-0.6-1-1.1-1.7-1.2   c-1-0.1-1.7,0.7-2.4,1.4C46.1,4.3,45.3,5.2,45.4,6.3"></path></g></svg>