<svg height="100" viewBox="0 0 100 100" width="100" xmlns="http://www.w3.org/2000/svg"><path d="m34.5590401 66.493782c-.1780701 0-.3573265-.0390472-.5265236-.1206818-.5277061-.2543869-.7968864-.8507233-.64011-1.4151077.7637558-2.7485733-.0337219-4.6878395-2.5095673-6.104126-.5336227-.3052673-.7542896-.9619446-.5123253-1.5275116.2419643-.5667534.8649178-.856636 1.4582939-.6862564 2.7544861.8175926 4.6872444.02248 6.0739555-2.4983253.2898827-.5265236.9234848-.7607994 1.4860954-.5507813.563797.2106094.8874016.802803.7602081 1.3914452-.6152649 2.8420448.1816216 4.8061562 2.5077896 6.1798515.5081863.3005295.7258949.9228935.5158768 1.4754486-.2106094.5513687-.7886047.8672867-1.3665962.7572479-2.6142807-.5170593-4.6014633.3111801-6.2668152 2.6006737-.2342757.3218308-.6028403.4981232-.9802817.4981232zm.3857231-7.2139663c.5880508.8578224.9518852 1.8138466 1.0879517 2.8562431.8696518-.588047 1.8102951-.9785042 2.8195648-1.1713676-.6063919-.8436203-1.0057182-1.7925453-1.1944389-2.8361282-.8134499.599884-1.7209664.9844207-2.7130776 1.1512527z"/><path d="m61.4673653 43.8378792c-.0343132 0-.0674438-.0011826-.101757-.0041428-.612896-.0508766-1.0897255-.5531425-1.1098404-1.1678162-.0946579-2.8757668-1.4565201-4.4577026-4.2843666-4.9783134-.5915985-.1088524-1.0139999-.635376-.9915199-1.2364426.02248-.6016579.4827461-1.0950508 1.0802612-1.1595345 2.8917389-.3117752 4.5044403-1.6872444 5.0759239-4.3275528.1254196-.5774021.6708755-.9678574 1.2376289-.9542503.590416.0260296 1.0755272.47328 1.1488876 1.0589638.3324776 2.6379433 1.7440338 4.2672081 4.4417267 5.1273956.5584717.1780701.908699.7294426.8329773 1.3109856-.0757294.5809479-.5561066 1.0240593-1.1406097 1.0530472-2.849144.1413918-4.438179 1.5097618-5.0025635 4.3056641-.1147728.5691185-.6152649.9719963-1.1867485.9719963zm-1.6363678-7.1737404c.8246918.5833206 1.476635 1.3240013 1.9475479 2.2131767.6282806-.8288307 1.4210243-1.4754486 2.3675804-1.9333496-.8317871-.64011-1.4991112-1.4097824-2.0007896-2.3060532-.608162.8406601-1.3831597 1.5186348-2.3143387 2.0262261z"/><path d="m66.6509628 75.2293472c-.5135117 0-.9808731-.3277435-1.1477051-.8270569-.9039612-2.7036133-2.659832-3.8572311-5.4947777-3.6560898-.6318283.0473328-1.1630859-.3762512-1.2802238-.9796829-.1159515-.6034317.239006-1.1985855.8258743-1.384346 2.7438393-.8649216 3.899826-2.6030426 3.6383362-5.4675674-.0544243-.5986977.338398-1.1477013.9240799-1.2885017.5892334-.1384354 1.1843872.1703796 1.4080048.7288513 1.0802612 2.7000618 2.8361359 3.8737907 5.5361938 3.7199745.5490036-.0260239 1.1181259.3585129 1.2518234.933548.1348877.5750351-.1656494 1.1630859-.7099152 1.3926239-2.4504089 1.0317535-3.6395264 2.8302155-3.740097 5.6592484-.0201111.5856781-.4567108 1.0731583-1.0364838 1.155983-.0591582.009468-.117134.0130156-.1751098.0130156zm-3.0372734-6.4011078c.966671.3821716 1.803196.9702225 2.4989128 1.7582321.3928223-.9737701.9536591-1.8244934 1.6825104-2.5486145-.9737701-.3596878-1.835144-.9228897-2.5758209-1.6813278-.3395767.951294-.8767548 1.7783509-1.6056023 2.4717102z"/><path d="m76.9045715 56.5300598c-2.2622833-3.3531876-5.6959229-5.6243362-9.6667404-6.3957825-.3237534-.0627098-.6480255-.0981331-.9722977-.1397667 5.8173523-3.6085358 8.6494827-10.8560791 6.4008102-17.6318932-1.2742996-3.8394814-3.9684448-6.9524784-7.5843048-8.7657318-3.61586-1.8126621-7.722744-2.1090546-11.5616341-.8353405-4.9400063 1.6405067-8.4723015 5.5957222-9.7967453 10.261446-1.0078621-3.9434547-2.5477982-8.3714314-4.8506737-11.7682495-5.3119734-7.8375139-17.5385664-11.3167123-18.0562171-11.4610624-.3661995-.1005716-.7613888-.0260305-1.0648785.2070599-.302309.2330904-.4774227.595149-.4720974.9767313.0059166.4407415.1987782 10.8966751 4.7712517 19.0010014 1.2604771 2.2340298 3.2532806 4.259222 5.496479 6.031805-.0231457-.0017014-.046587-.0053253-.0697346-.0069542-8.849741-.6294594-19.1104469 6.1638794-19.5429058 6.4537621-.3218307.2147522-.5217915.5708961-.5371733.9578018-.0159731.3869057.1544075.7578392.4578981.9986191.2657766.2107582 6.2407131 4.8973389 13.6672859 6.8172989-.6178513 1.6496773-.972147 3.4271393-.972147 5.2897911 0 8.3510246 6.793932 15.1449547 15.1449547 15.1449547 4.6366615 0 8.7881393-2.099144 11.5684395-5.3915482.2112732 2.5508347 1.0614014 5.0197983 2.532341 7.1994781 2.2628708 3.3531876 5.6965141 5.6237488 9.6673317 6.395195.9725914.1893082 1.9487305.2827835 2.9177704.2827835 2.9887619-.0011826 5.9088974-.8874054 8.4409485-2.5959396 3.3531876-2.2622833 5.6237411-5.6959229 6.3951874-9.6667404s-.0508727-8.0055313-2.3131484-11.3587189zm-22.6204109-31.4683742c1.3168983-.4377842 2.6716614-.6548996 4.0205116-.6548996 1.9534607 0 3.8939095.4555302 5.6911888 1.3565369 3.0372734 1.5227776 5.2995491 4.1376495 6.3703499 7.3624592 2.2102127 6.6578636-1.4080124 13.8724251-8.0646935 16.0826416-5.5256882 1.8372841-11.4300003-.3552589-14.5427017-4.9609337-.3615417-.5363617-.6848526-1.0991936-.957653-1.6760025-.2173386-.4601173-.4173737-.9322891-.5816917-1.4271622-2.2108078-6.6572724 1.406826-13.8724232 8.0646896-16.0826397zm2.0918961 27.0846195c-.1648369.1024208-.3352165.1919746-.4969444.3011246-1.1766167.7940025-2.2111053 1.7392311-3.1032372 2.7942009-.1328125-1.5771294-.5023422-3.086525-1.0829964-4.4900208 1.4673157.7113991 3.0485115 1.1833496 4.683178 1.3946953zm-30.2141838-23.3581314c-3.2153454-5.6988811-4.1163521-12.8951006-4.3654156-16.1311512 3.421814 1.199172 11.3409672 4.454155 15.0710049 9.9572144 3.5146942 5.1843376 5.1615601 13.2928791 5.8146133 17.4899082-2.0322189-1.0000992-4.4164429-2.0306664-6.9117355-2.8163834-3.7607994-2.2003098-7.704403-5.1244393-9.6084671-8.499588zm-1.5949536 20.2072716c-5.0611362-1.2186928-9.5667591-3.9536591-11.7728348-5.4515915 3.090517-1.8014221 10.3453045-5.5634041 16.5121403-5.1232529 1.7726555.1257896 3.6146011.5263748 5.415947 1.0739746 1.2318611.7168732 2.4338417 1.3524704 3.5432396 1.9038429-.1899757-.0070267-.378624-.0227776-.5697098-.0227776-.6160774 0-1.2202492.0479202-1.8173218.1198006-.2001801.0238113-.3960762.0593796-.5941124.0909576-.3946724.0635948-.7837944.140728-1.16782.234272-.2276917.0549469-.4543457.1096687-.6783409.1748924-.3670158.1078186-.7245636.2352333-1.0795212.3695297-.3613205.1357689-.7138405.285965-1.0624409.4486542-.3109589.1458282-.6216965.2917328-.9207497.4576759-.2661457.1472321-.5214214.3099251-.7779541.4731331-.2302799.146492-.4561234.2977943-.6777515.4561958-.2412987.1726723-.4806747.3454933-.7117691.532589-.3037128.2449951-.5923386.5067024-.8762321.7739601-.1848011.1749649-.3683453.3493385-.5446415.534214-.343647.3575478-.6686554.731884-.9762135 1.1216736-.0919952.1176529-.1796989.2381172-.2684383.3588028-.3324795.4478416-.6418133.9121742-.9241543 1.3959541-.0156764.0270654-.0357913.0503618-.051321.0774996zm13.1287823 20.24691c-7.0145988 0-12.7217617-5.7065697-12.7217617-12.7217598 0-2.0268936.4887352-3.937542 1.3356113-5.6399422.5038948-1.0148888 1.1336517-1.932312 1.85289-2.7552299.1013107-.1149902.2037315-.2288017.3091106-.3400192.269474-.286705.5540333-.5557365.847023-.8144875.1646862-.1447182.3308525-.2867775.5029335-.4229202.2978706-.2365646.6049118-.4601135.9221573-.6682854.1914558-.1255646.3891239-.24189.587532-.3572502.2570496-.1491585.5200157-.2875175.7872715-.4182625.1867981-.0916252.3704872-.1886444.5623169-.2712479.4359322-.1869469.88274-.3507462 1.3401184-.4880714.1564064-.0473251.3180618-.0815659.4769058-.1229019.3670883-.0948067.7389069-.1756325 1.116642-.2376022.1604729-.0266228.3207207-.0534668.4831161-.0739517.5259323-.0656662 1.0574837-.1115875 1.5981331-.1115875.3992577 0 .7928925.023735 1.1828308.0598984.1246796.0115356.2479553.0298767.3719673.0451088.2646675.0324631.5271149.071804.7864571.1203156.1432419.026844.285965.0554619.427948.0873375.2360497.0526505.4683266.1146202.6992722.1802139.1473083.0420799.2956505.0805321.4413338.1280098.2148972.0695839.4238091.1518898.6336021.2324219.3876457.1498985.7693748.3158417 1.1423798.5044136.0651512.0327606.13274.0613785.1973.0951729.2492104.1314087.4927292.2759819.7343979.4245491.0635948.0389709.128376.076313.1912346.1163216.2419624.154705.4791222.3193893.7125816.4913254 3.1464958 2.3181839 5.2004547 6.037571 5.2004547 10.2366714.0000001 7.01519-5.7071609 12.7217596-12.7217597 12.7217596zm39.1437912-1.8150253c-.6483917 3.3354416-2.5557098 6.218895-5.3729095 8.1191101-2.8160172 1.9002228-6.2035141 2.5912094-9.5413208 1.9440002-3.3354416-.6483917-6.2188988-2.5557098-8.1203003-5.3729095-1.900219-2.8160172-2.5906143-6.2046967-1.9428139-9.5413208.6478043-3.3354378 2.5557137-6.218895 5.3729095-8.1197052 2.1262093-1.4352226 4.5789833-2.1806374 7.0885506-2.1806374.8152237 0 1.6351776.0786819 2.452774.2372322 3.335434.6478004 6.218895 2.5557098 8.1191101 5.3729095 1.9014054 2.8160135 2.5912095 6.2046968 1.9440003 9.5413209z"/></svg>