<svg height='100px' width='100px'  fill="#000000" xmlns="http://www.w3.org/2000/svg" xmlns:xlink="http://www.w3.org/1999/xlink" version="1.1" x="0px" y="0px" viewBox="0 0 100 100" enable-background="new 0 0 100 100" xml:space="preserve"><path fill="#000000" d="M71.5,28.1l-6-3l1.1-2.1c0.2-0.4,0-1-0.4-1.2L56.5,17c-0.2-0.1-0.5-0.1-0.7,0c-0.2,0.1-0.4,0.2-0.5,0.5  L50.5,27l-4.8-9.7c-0.1-0.2-0.3-0.4-0.5-0.5c-0.2-0.1-0.5-0.1-0.7,0l-9.7,4.8c-0.4,0.2-0.6,0.8-0.4,1.2l1,2l-6.2,3.1  c-0.4,0.2-0.6,0.8-0.4,1.2l12.4,25.1c1.8,3.7,2.8,7.9,2.8,12.1l0,0c0,0,0,0,0,0v22.7c0,1.7,1.4,3.2,3.2,3.2h0l-1.8,1.6  c-0.2,0.2-0.3,0.6-0.1,0.8c0.1,0.1,0.3,0.2,0.4,0.2c0.1,0,0.3,0,0.4-0.2l2.8-2.4h0.7v2c0,0.3,0.3,0.6,0.6,0.6c0.3,0,0.6-0.3,0.6-0.6  v-2h0.7l2.8,2.4c0.1,0.1,0.3,0.2,0.4,0.2c0.2,0,0.3-0.1,0.4-0.2c0.2-0.2,0.2-0.6-0.1-0.8l-1.8-1.6h0c1.7,0,3.2-1.4,3.2-3.2V66.4  c0-4.2,1-8.3,2.8-12.1l12.4-25.1C72.2,28.8,72,28.3,71.5,28.1z M56.5,19l1.2,0.6L56.1,23c-0.1,0.3,0,0.7,0.3,0.8  c0.1,0,0.2,0.1,0.3,0.1c0.2,0,0.4-0.1,0.5-0.3l1.6-3.4l5.8,2.9l-0.7,1.3l-2.1-1c-0.2-0.1-0.5-0.1-0.7,0c-0.2,0.1-0.4,0.2-0.5,0.5  l-5.9,11.9l-3.2-6.5L56.5,19z M36.5,23l5.7-2.8l2.6,5.3c0.1,0.2,0.3,0.3,0.5,0.3c0.1,0,0.2,0,0.3-0.1c0.3-0.1,0.4-0.5,0.3-0.8  l-2.6-5.3l1.3-0.6l9.2,18.7l-3.4,6.8L40.1,23.7c-0.1-0.2-0.3-0.4-0.5-0.5c-0.2-0.1-0.5-0.1-0.7,0l-1.8,0.9L36.5,23z M42.9,53.6  l-12-24.3l1.1-0.5l3.8,7.9c0.1,0.2,0.3,0.3,0.5,0.3c0.1,0,0.2,0,0.3-0.1c0.3-0.1,0.4-0.5,0.3-0.8L33,28.2l5.9-2.9l10.5,21.1  l-1.2,2.3c-1.6,3.2-2.7,6.6-3.4,10C44.4,57,43.7,55.2,42.9,53.6z M57.9,53.6c-2,4-3,8.4-3,12.9v22.7c0,0.7-0.6,1.4-1.4,1.4h-6.3  c-0.7,0-1.4-0.6-1.4-1.4V66.4c0-5.8,1.4-11.7,3.9-16.9l12-24.3l5.8,2.9l-3.9,8c-0.1,0.3,0,0.7,0.3,0.8c0.1,0,0.2,0.1,0.3,0.1  c0.2,0,0.4-0.1,0.5-0.3l3.9-8l1.2,0.6L57.9,53.6z"></path></svg>