<svg height='100px' width='100px'  fill="#000000" xmlns="http://www.w3.org/2000/svg" data-name="Layer 1" viewBox="0 0 100 100" x="0px" y="0px"><title>Noun_Project_food</title><path d="M42.76558,84.85928c-7.21547,4.89893-11.47859-.29354-14.24481-7.02653-2.14552-5.2222-3.72013-10.58557-5.90837-15.80744-2.15826-5.15035-3.69192-10.75175-2.66306-16.31108,0.5063-2.73575.63838-5.14243,3.10765-6.83278,4.06436-2.78227,11.53325-2.41031,14.4526,1.8336a1.52031,1.52031,0,0,0,2.74162-.35832c1.08389-4.35615,5.7106-5.5407,9.7004-5.69432,4.74767-.18279,8.12127.7866,9.95947,5.55754a1.52158,1.52158,0,0,0,2.74162.35832c2.69494-4.75495,9.654-7.404,14.18495-3.51751,3.98459,3.41787,4.32906,10.69289,2.82339,15.33022-1.969,6.06444-3.98721,12.13411-6.31911,18.07C71.69647,74.64952,65.8113,93.30348,58.9053,83.90767a1.52075,1.52075,0,0,0-2.35587-.30358c-3.16774,3.537-7.81284,3.20322-11.818,1.36944-1.74294-.798-3.26924,1.78683-1.51416,2.59041,5.27731,2.41626,11.31136,2.78637,15.45344-1.83853l-2.35587-.30358c4.28558,5.83066,11.47556,4.36565,14.42427-1.68712A211.02644,211.02644,0,0,0,82.88841,52.546c1.80154-5.96394.26678-15.1458-5.32276-18.70127-6.04643-3.84609-14.16072-.67832-17.50335,5.2194l2.74162,0.35832c-1.08721-2.82178-1.61216-4.89883-4.50042-6.36826-2.6372-1.3417-5.467-1.41888-8.35189-1.39176-5.46128.05134-11.18776,2.24818-12.59323,7.8968L40.1,39.20089c-4.2382-6.16115-16.01439-7.26988-20.98461-.96254-3.71762,4.71775-2.75123,13.60189-1.33485,18.84323,1.31563,4.86851,3.87832,9.14237,5.36174,13.92335,1.31248,4.23,2.48386,8.5003,4.72649,12.3663,3.92725,6.77007,9.81832,8.55453,16.411,4.07847,1.58829-1.07836.08893-3.67883-1.51416-2.59041h0Z"></path><path d="M44.77522,85.61783a61.90327,61.90327,0,0,0-2.56233-6.29753c-0.7765-1.763-3.36216-.238-2.59041,1.51416a54.73525,54.73525,0,0,1,2.2599,5.58089c0.57824,1.83494,3.47543,1.05125,2.89284-.79752h0Z"></path><path d="M41.083,44.83617c-0.14512-.958-0.54536-1.84976-0.67477-2.82059a13.33717,13.33717,0,0,0-.22206-1.43656,4.30064,4.30064,0,0,1-.28126-0.945,1.5009,1.5009,0,0,0-3,0,24.66173,24.66173,0,0,0,.52786,2.73071c0.12533,1.13271.58925,2.15894,0.7574,3.269a1.51182,1.51182,0,0,0,1.84518,1.04766A1.53617,1.53617,0,0,0,41.083,44.83617h0Z"></path><path d="M28.23863,35.92183c0.92322-1.6354,3.35708-2.95768,5.06238-3.46664a9.22277,9.22277,0,0,1,9.41509,1.93689c1.412,1.31415,3.53825-.80259,2.12132-2.12132a11.72183,11.72183,0,0,0-11.63418-2.90988c-2.79984.69282-6.08974,2.45119-7.555,5.0468a1.50112,1.50112,0,0,0,2.59041,1.51416h0Z"></path><path d="M54.83742,33.22541c1.90845-2.094,4.25-2.57558,6.977-2.22733,2.94381,0.37594,4.02171,1.77638,5.735,3.894,1.21462,1.50125,3.32559-.63286,2.12132-2.12132-2.19557-2.71369-4.10819-4.53435-7.85633-4.77267-3.68241-.23415-6.54027.29927-9.09832,3.106-1.2982,1.4244.81743,3.552,2.12132,2.12132h0Z"></path><path d="M47.94342,32.49808a19.241,19.241,0,0,0-.66241-5.87476A31.03149,31.03149,0,0,0,45.32,22.97l-0.56912-.81618q-1.9399-3.15281.78738-4.193c1.42334-1.39327,4.10461-1.86346,5.82028-2.78854a17.2099,17.2099,0,0,1,2.0406-1.31c1.66812-.56471.47125-1.94154,1.66071,1.49138,0.23239,0.67072.97353,2.104,0.83571,2.70982q-0.00093.73289,0.37584-.06543a7.61394,7.61394,0,0,0-2.01857.05417c-1.591.19858-4.02544,0.78711-5.244,1.97957a2.541,2.541,0,0,0-.93874,2.60648c0.07008,1.40173.72191,2.8716,0.70661,4.36781-0.02006,1.9615-.34758,3.85133-0.33333,5.82531a1.5009,1.5009,0,0,0,3,0c-0.01413-1.95707.28213-3.87766,0.33333-5.82531,0.04136-1.57322-.76855-4.04918.07056-5.00274,1.785-2.0285,5.81195.40436,7.08-2.18983,0.716-1.46471-.55163-3.93245-0.97465-5.25738C57.39348,12.80462,56.88613,10.104,54.67552,9.914c-1.77365-.15241-3.39413,1.878-4.83112,2.66785-2.376,1.30605-5.19153,1.94356-7.27567,3.779-1.85715,1.63552-1.94971,3.85351-1.03465,6.08165,0.52385,1.27555,1.47987,2.28072,2.103,3.50128a14.56673,14.56673,0,0,1,1.30638,6.55427,1.5009,1.5009,0,0,0,3,0h0Z"></path><path d="M58.572,85.50516a8.871,8.871,0,0,0,.62577-3.57024c0.10459-1.3159.33243-2.62228,0.41236-3.93684,0.11725-1.92828-2.88317-1.92137-3,0-0.06943,1.14191-.31181,2.28541-0.41667,3.43254-0.03694.40411-.07042,0.81159-0.09008,1.22157-0.01453.303-.02775,0.58113-0.06722,0.88439-0.01592.12233-.19924,0.70759-0.05457,0.45442A1.50112,1.50112,0,0,0,58.572,85.50516h0Z"></path></svg>