<svg height='100px' width='100px'  fill="#000000" xmlns="http://www.w3.org/2000/svg" xmlns:xlink="http://www.w3.org/1999/xlink" version="1.1" x="0px" y="0px" viewBox="0 0 99.21 99.21" enable-background="new 0 0 99.21 99.21" xml:space="preserve"><g><path fill="#000000" d="M52.869,25.938c0.32-3.652,2.021-7.07,4.797-9.519c1.036-0.913,1.135-2.493,0.222-3.528   c-0.914-1.036-2.495-1.135-3.528-0.222c-1.7,1.5-3.086,3.277-4.153,5.223c-3.295-5.984-9.65-10.057-16.951-10.057   c-1.288,0-2.365,0.979-2.488,2.261c-0.028,0.29-0.631,7.181,4.097,12.842c1.567,1.878,3.528,3.37,5.837,4.505   c-10.967,4.396-18.884,16.67-18.884,31.096c0,18.105,12.466,32.836,27.789,32.836c15.324,0,27.791-14.73,27.791-32.836   C77.395,41.739,66.659,27.854,52.869,25.938z M38.739,19.78c-1.897-2.249-2.611-4.845-2.87-6.705   c5.779,1.067,10.356,5.61,11.475,11.373C43.592,23.675,40.706,22.111,38.739,19.78z M49.604,86.375   c-12.565,0-22.789-12.487-22.789-27.836c0-14.321,8.901-26.146,20.3-27.666c7.577,4.994,12.565,15.729,12.565,27.389   c0,1.381,1.119,2.5,2.5,2.5s2.5-1.119,2.5-2.5c0-10.448-3.452-20.045-9.205-26.616c9.73,3.171,16.92,14.024,16.92,26.894   C72.395,73.887,62.171,86.375,49.604,86.375z"></path><path fill="#000000" d="M61.815,64.5c-1.353-0.283-2.674,0.597-2.949,1.949c-0.608,2.982-1.549,5.818-2.795,8.429   c-0.595,1.246-0.067,2.738,1.179,3.333c0.348,0.166,0.714,0.245,1.075,0.245c0.934,0,1.829-0.525,2.258-1.424   c1.422-2.978,2.492-6.202,3.182-9.583C64.041,66.095,63.167,64.775,61.815,64.5z"></path></g></svg>