<?xml version="1.0" encoding="UTF-8"?>
<svg width="1200pt" height="1200pt" version="1.1" viewBox="0 0 1200 1200" xmlns="http://www.w3.org/2000/svg">
 <path d="m1175.2 723.96c-15.945 100.9-62.605 193.72-137.98 267.44-81.625 79.84-196.84 137.21-342.93 157.91-20.977 5.7383-42.945 8.5469-65.098 8.5469-287.82 0-535.13-136.76-597.11-396.91-22.309-93.672-16.895-195.72 17.973-296.58 53.18-153.87 175.1-304.67 371.78-417.32 34.992-20.027 72.242 26.035 41.598 56.426-4.7188 4.9883-20.891 22.309-41.398 46.887 89.008-33.676 214.64-54.781 355.89-0.18359-34.809-41.711-64.816-60.25-47.777-90.016 9.668-16.91 31.223-22.777 48.133-13.109 174.54 99.965 290.2 229.89 351.19 365.27 46.941 104.18 61.527 211.68 45.723 311.64zm-69.535-10.758c26.859-169.93-51.066-340.43-178.03-466.38 48.898 92.891 72.07 197.11-15.746 258.49-69.039 48.262-148.99 67.734-227.4 93.672 53.746 36.652 99.539 89.391 129.54 173.2 15.945 44.531 25.398 84.828 29.453 121.04 45.215-53.719 100.69-135.78 110.82-223.94 5.2852-46.148 75.375-38.098 70.086 8.0078-17.93 155.77-150.93 290.75-186.49 324.33-3.8984 15.535-9.1289 29.879-15.547 43.043 150.56-57.488 258.55-174.81 283.31-331.47zm-1004.9 31.465c38.652 162.24 165.83 272.37 330.92 317.62-172.19-152.82-235.57-392.13-235.8-393-12.133-44.945 56.027-63.297 68.145-18.48 0.26953 0.96484 88.344 333.36 335.16 435.89 9.8633 0.33984 19.844 0.51172 29.977 0.51172 90.172 0 146-57.133 146-153.45 0-38.27-8.3906-84.004-27.668-137.84-77.84-217.42-302.23-180.82-459.29-290.6-87.848-61.414-64.629-165.67-15.703-258.58-136.48 135.29-214.47 318.5-171.74 497.92zm504.95-499.88c64.887 17.391 166.65 71.277 201.47 237.7 22.977-9.8203 44.719-21.105 64.375-34.84 49.875-34.867 32.953-102.3-3.0898-168.42-66.758-47.523-131.18-73.164-190.83-84.516-14.188 6.6328-43.57 22.395-71.93 50.074zm134.38 262.38c-32.188-173.23-146.25-196.7-180.45-199.82-27.059 54.07-37.203 129.79 2.1406 232.82 12.996 4.5781 25.879 9.3984 38.578 14.613 34.469-14.316 69.363-25.301 104.12-36.254 11.918-3.7578 23.824-7.4961 35.617-11.367zm-261.3 6.0508c-44.375-163.35 18.906-265.73 82.742-324.03-128.85 12.062-217.93 80.379-229.93 90.016-36.059 66.117-53.008 133.57-3.1055 168.45 43.059 30.105 96.066 48.344 150.29 65.566z"/>
</svg>
