<svg height='100px' width='100px'  fill="#000000" xmlns="http://www.w3.org/2000/svg" xmlns:xlink="http://www.w3.org/1999/xlink" version="1.1" x="0px" y="0px" viewBox="0 0 100 100" enable-background="new 0 0 100 100" xml:space="preserve"><g><g><path d="M76.079,24.248c-4.524,4.179-8.669,7.436-12.488,10.038c1.458-2.593,3.295-5.41,5.634-8.509    c0.354-0.469,0.261-1.136-0.208-1.489c-0.47-0.354-1.136-0.259-1.489,0.208c-3.421,4.532-5.811,8.529-7.521,12.104    c-0.214,0.131-0.418,0.243-0.63,0.37l2.42-10.059c0.138-0.571-0.214-1.146-0.784-1.282c-0.575-0.141-1.146,0.214-1.282,0.784    L56.84,38.428c-5.259,2.895-9.847,4.662-13.938,6.227c-4.751,1.817-8.854,3.386-12.427,6.214    c-8.099,6.408-5.757,15.897-4.479,19.473l-3.426-1.223c-0.556-0.199-1.161,0.091-1.358,0.644s0.091,1.161,0.644,1.358l4.949,1.766    l-2.823,2.091c-0.472,0.35-0.571,1.016-0.222,1.487c0.209,0.281,0.53,0.431,0.855,0.431c0.22,0,0.441-0.068,0.632-0.209    l2.932-2.17l2.118,4.605c0.18,0.39,0.564,0.619,0.967,0.619c0.148,0,0.3-0.031,0.443-0.098c0.533-0.245,0.767-0.877,0.521-1.41    l-1.838-3.995c2.078,0.942,4.587,1.637,7.299,1.637c4.203,0,8.871-1.655,13.088-6.588c4.862-5.687,5.669-10.558,6.604-16.197    c0.72-4.346,1.499-9.052,4.249-14.985c4.743-2.944,10.002-6.854,15.893-12.293c0.431-0.398,0.458-1.071,0.06-1.503    C77.184,23.877,76.512,23.851,76.079,24.248z M55.283,52.741c-0.919,5.546-1.645,9.927-6.121,15.164    c-7.078,8.277-14.859,5.947-18.652,4.002c0.777-0.146,6.231-1.316,10.463-6.01c0.394-0.437,0.358-1.108-0.077-1.501    c-0.435-0.393-1.107-0.358-1.501,0.077c-3.952,4.382-9.265,5.343-9.332,5.354c-0.578,0.098-0.968,0.646-0.87,1.224    c0.009,0.051,0.035,0.092,0.05,0.14c-0.283-0.177-0.52-0.333-0.693-0.455c0.227-0.142,0.406-0.356,0.476-0.636    c0.009-0.037,0.952-3.74,4.171-7.68c0.371-0.455,0.304-1.125-0.15-1.496c-0.456-0.372-1.126-0.304-1.496,0.15    c-2.228,2.727-3.455,5.343-4.068,6.94c-1.036-3.812-1.754-10.679,4.313-15.479c3.317-2.626,7.279-4.142,11.867-5.896    c3.907-1.494,8.255-3.164,13.196-5.793c0.124,0.107,0.266,0.195,0.437,0.236c0.084,0.021,0.168,0.03,0.25,0.03    c0.24,0,0.47-0.083,0.653-0.227C56.5,45.469,55.85,49.319,55.283,52.741z"></path><path d="M36.959,56.057c-0.348,0.228-0.474,0.335-0.634,0.472c-0.077,0.065-0.165,0.14-0.317,0.256    c-0.469,0.354-0.562,1.021-0.207,1.488c0.209,0.277,0.526,0.423,0.849,0.423c0.223,0,0.448-0.07,0.64-0.216    c0.199-0.149,0.312-0.246,0.413-0.331c0.106-0.091,0.19-0.162,0.423-0.314c0.491-0.322,0.628-0.98,0.306-1.472    C38.108,55.87,37.449,55.733,36.959,56.057z"></path></g></g></svg>