<svg height="100" width="100" xmlns="http://www.w3.org/2000/svg" viewBox="0 0 32 32"><g color="#000" font-weight="400" font-family="sans-serif"><path style="line-height:normal;text-indent:0;text-align:start;text-decoration-line:none;text-decoration-style:solid;text-decoration-color:#000;text-transform:none;block-progression:tb;white-space:normal;isolation:auto;mix-blend-mode:normal;solid-color:#000;solid-opacity:1" d="M2.51 7a.5.5 0 00-.494.485c-.147 4.79.741 8.32 4.714 11.27h.004c.268.205.599.36.887.488.29.13.53.221.53.221a.5.5 0 10.355-.935s-.215-.083-.477-.2c-.261-.117-.575-.283-.687-.369a.5.5 0 00-.008-.01c-3.586-2.658-4.369-5.567-4.305-9.908 2.417.208 4.255.309 5.701.828 1.57.563 2.837 1.604 4.342 4a.5.5 0 10.848-.531c-1.574-2.504-3.065-3.769-4.852-4.41-1.786-.642-3.793-.684-6.507-.932a.5.5 0 00-.051 0z" overflow="visible" fill-rule="evenodd"/><path style="line-height:normal;text-indent:0;text-align:start;text-decoration-line:none;text-decoration-style:solid;text-decoration-color:#000;text-transform:none;block-progression:tb;white-space:normal;isolation:auto;mix-blend-mode:normal;solid-color:#000;solid-opacity:1" d="M20.5 17c-2.755 0-5 2.244-5 5 0 2.755 2.245 5 5 5s5-2.245 5-5c0-2.756-2.245-5-5-5zm0 1c2.215 0 4 1.784 4 4 0 2.214-1.785 4-4 4s-4-1.786-4-4c0-2.216 1.785-4 4-4z" overflow="visible"/><path style="line-height:normal;text-indent:0;text-align:start;text-decoration-line:none;text-decoration-style:solid;text-decoration-color:#000;text-transform:none;block-progression:tb;white-space:normal;isolation:auto;mix-blend-mode:normal;solid-color:#000;solid-opacity:1" d="M13.51 16.013a5.715 5.715 0 00-4.074 1.336A5.42 5.42 0 008.87 25.1c2.03 2.286 5.57 2.545 7.926.582a.5.5 0 00-.64-.77c-1.944 1.62-4.867 1.405-6.538-.476-1.67-1.882-1.466-4.692.463-6.327 1.93-1.635 4.856-1.444 6.543.424a.5.5 0 10.742-.67 5.675 5.675 0 00-3.857-1.851z" overflow="visible"/><path style="line-height:normal;text-indent:0;text-align:start;text-decoration-line:none;text-decoration-style:solid;text-decoration-color:#000;text-transform:none;block-progression:tb;white-space:normal;isolation:auto;mix-blend-mode:normal;solid-color:#000;solid-opacity:1" d="M17.744 10.556a4.92 4.92 0 00-3.02.496 5.062 5.062 0 00-2.673 5.217.5.5 0 00.99-.143 4.057 4.057 0 012.143-4.186 3.96 3.96 0 014.601.702 4.078 4.078 0 01.828 4.638.5.5 0 10.907.426 5.085 5.085 0 00-1.036-5.78 4.977 4.977 0 00-2.74-1.37z" overflow="visible"/><path style="line-height:normal;text-indent:0;text-align:start;text-decoration-line:none;text-decoration-style:solid;text-decoration-color:#000;text-transform:none;block-progression:tb;white-space:normal;isolation:auto;mix-blend-mode:normal;solid-color:#000;solid-opacity:1" d="M12.967 18.501a.5.5 0 00-.37.203s-.096.126-.222.278c-.126.15-.296.33-.357.38-.273.221-1.22.68-1.22.68a.5.5 0 10.415.91s.905-.384 1.433-.812c.192-.155.354-.347.497-.518.142-.17.252-.314.252-.314a.5.5 0 00-.428-.807zM15.99 13.5a.5.5 0 00-.252.925s.216.138.496.275c.28.138.606.3 1.016.3.41 0 .735-.162 1.016-.3.28-.137.496-.275.496-.275a.5.5 0 10-.535-.844s-.175.112-.4.223c-.227.11-.524.195-.577.195-.053 0-.35-.084-.576-.195-.226-.111-.4-.223-.4-.223a.5.5 0 00-.284-.082z" overflow="visible" fill-rule="evenodd"/><path style="line-height:normal;text-indent:0;text-align:start;text-decoration-line:none;text-decoration-style:solid;text-decoration-color:#000;text-transform:none;block-progression:tb;white-space:normal;isolation:auto;mix-blend-mode:normal;solid-color:#000;solid-opacity:1" d="M29.459 5.001a.5.5 0 00-.018 0c-2.691.247-4.846.417-6.761 1.176-1.915.759-3.543 2.122-5.1 4.605a.5.5 0 10.848.532c1.48-2.361 2.9-3.526 4.62-4.207 1.587-.629 3.523-.83 5.919-1.051.028 2.477-.141 4.932-1.055 6.857-.982 2.069-2.73 3.591-6.139 4.09a.5.5 0 10.145.988c3.658-.535 5.794-2.323 6.898-4.65 1.105-2.328 1.235-5.14 1.17-7.856A.5.5 0 0029.46 5z" overflow="visible" fill-rule="evenodd"/><path style="line-height:normal;text-indent:0;text-align:start;text-decoration-line:none;text-decoration-style:solid;text-decoration-color:#000;text-transform:none;block-progression:tb;white-space:normal;isolation:auto;mix-blend-mode:normal;solid-color:#000;solid-opacity:1" d="M29.484 5.001a.5.5 0 00-.343.152l-7.989 7.989a.5.5 0 10.707.707l7.989-7.989a.5.5 0 00-.364-.859zM3 7.5a.5.5 0 00-.348.858l8.489 8.49a.5.5 0 10.707-.706l-8.489-8.49A.5.5 0 003 7.499zM18.99 20a.5.5 0 00-.252.925s.216.138.496.275c.28.138.606.3 1.016.3.41 0 .735-.162 1.016-.3.28-.137.496-.275.496-.275a.5.5 0 10-.535-.844s-.175.112-.4.223c-.227.11-.524.195-.577.195-.053 0-.35-.084-.576-.195-.226-.111-.4-.223-.4-.223A.5.5 0 0018.99 20z" overflow="visible" fill-rule="evenodd"/></g></svg>