<svg height='100px' width='100px'  fill="#000000" xmlns="http://www.w3.org/2000/svg" xmlns:xlink="http://www.w3.org/1999/xlink" version="1.1" x="0px" y="0px" viewBox="0 0 100 100" style="enable-background:new 0 0 100 100;" xml:space="preserve"><g><g><g><g><g><path d="M49.7,88.85c-0.03,0-0.07,0-0.1,0l-0.5-0.03c-18.38-1.33-19-18.54-19.01-20.06h0v-9.57c0-7.83-12.3-16.12-17.05-18.65       c-0.89-0.48-1.29-1.54-0.92-2.48c0.36-0.94,1.37-1.47,2.35-1.23c22.33,5.5,31.8,16.33,35.82,24.34       c4.41-8.84,14.09-19.12,35.26-24.34c0.97-0.24,1.98,0.28,2.35,1.23c0.36,0.94-0.04,2-0.92,2.48       c-4.74,2.54-17.05,10.83-17.05,18.65v9.57c0,0.16,0.11,19.43-20.15,20.09C49.74,88.85,49.72,88.85,49.7,88.85z M34.08,68.78       c0,0.67,0.13,14.95,15.26,16.05l0.38,0.02c16.2-0.57,16.21-15.42,16.2-16.06v-9.6c0-5.35,3.77-10.31,7.96-14.19       c-24.9,11.3-23.23,31.24-23.21,31.47c0.11,1.1-0.69,2.08-1.79,2.19c-1.11,0.11-2.08-0.69-2.19-1.79       c-0.01-0.11-0.38-4.5,1.47-10.45c-1.97-5.76-7.37-14.99-22.15-21.52c4.24,3.89,8.07,8.89,8.07,14.28v9.57       C34.08,68.76,34.08,68.77,34.08,68.78z"></path></g></g></g><g><g><g><path d="M34.11,48.89c-0.99,0-1.86-0.74-1.98-1.75c-0.33-2.62-0.02-6.28-0.01-6.43c1.14-21.32,8.7-36.83,17.97-36.83       c11.39,0,18.19,21.81,18.19,42.89c0,1.1-0.9,2-2,2s-2-0.9-2-2c0-22.92-7.48-38.89-14.19-38.89c-5.87,0-12.88,12.66-13.98,33.11       c-0.01,0.1-0.29,3.46-0.01,5.66c0.14,1.1-0.64,2.1-1.74,2.23C34.28,48.88,34.19,48.89,34.11,48.89z"></path></g></g></g><g><g><g><path d="M59.96,52.52H48.05c-0.55,0-1-0.45-1-1s0.45-1,1-1h11.91c0.55,0,1,0.45,1,1S60.52,52.52,59.96,52.52z"></path></g></g></g><g><g><g><path d="M65.62,36.45H34.78c-0.55,0-1-0.45-1-1s0.45-1,1-1h30.84c0.55,0,1,0.45,1,1S66.18,36.45,65.62,36.45z"></path></g></g></g><g><g><g><path d="M64.28,28.41H36.05c-0.55,0-1-0.45-1-1s0.45-1,1-1h28.23c0.55,0,1,0.45,1,1S64.83,28.41,64.28,28.41z"></path></g></g></g><g><g><g><path d="M61.95,20.38H39.03c-0.55,0-1-0.45-1-1s0.45-1,1-1h22.93c0.55,0,1,0.45,1,1S62.51,20.38,61.95,20.38z"></path></g></g></g><g><g><g><path d="M53.29,96.13h-7.92c-1.1,0-2-0.9-2-2v-7.9c0-1.1,0.9-2,2-2s2,0.9,2,2v5.9h3.92v-5.66c0-1.1,0.9-2,2-2s2,0.9,2,2v7.66       C55.29,95.24,54.39,96.13,53.29,96.13z"></path></g></g></g><g><g><g><path d="M66.12,44.49H35.28c-0.55,0-1-0.45-1-1s0.45-1,1-1h30.85c0.55,0,1,0.45,1,1S66.67,44.49,66.12,44.49z"></path></g></g></g></g><g><g><g><path d="M48.05,52.52h-7.29c-0.55,0-1-0.45-1-1s0.45-1,1-1h7.29c0.55,0,1,0.45,1,1S48.6,52.52,48.05,52.52z"></path></g></g></g><g><g><g><path d="M50.16,65.68c-0.55,0-1-0.45-1-1L49.09,5.87c0-0.55,0.45-1,1-1h0c0.55,0,1,0.45,1,1l0.07,58.82      C51.16,65.24,50.72,65.68,50.16,65.68L50.16,65.68z"></path></g></g></g><g><g><g><path d="M41.87,53.97c-0.53,0-0.97-0.42-1-0.95c-0.06-1.29-1.41-31.72,2.57-44.85c0.16-0.53,0.72-0.83,1.25-0.67      c0.53,0.16,0.83,0.72,0.67,1.25c-3.89,12.8-2.5,43.87-2.49,44.18c0.03,0.55-0.4,1.02-0.95,1.04      C41.9,53.97,41.89,53.97,41.87,53.97z"></path></g></g></g><g><g><g><path d="M58.98,53.5c-0.55,0-1-0.45-1-1c0-0.36-0.11-35.71-3.52-43.98c-0.21-0.51,0.03-1.1,0.54-1.31      c0.51-0.21,1.09,0.03,1.31,0.54c3.57,8.63,3.67,43.27,3.68,44.74C59.98,53.06,59.54,53.5,58.98,53.5      C58.98,53.5,58.98,53.5,58.98,53.5z"></path></g></g></g></g></svg>