<svg height='100px' width='100px'  fill="#000000" xmlns="http://www.w3.org/2000/svg" xmlns:xlink="http://www.w3.org/1999/xlink" xml:space="preserve" version="1.1" style="shape-rendering:geometricPrecision;text-rendering:geometricPrecision;image-rendering:optimizeQuality;" viewBox="0 0 0.546 0.939" x="0px" y="0px" fill-rule="evenodd" clip-rule="evenodd"><g><path class="fil0" d="M0.268 0.157c-0.045,0.04 -0.023,0.068 -0.025,0.132 -0.002,0.048 -0.007,0.085 -0.007,0.136 0.03,-0.076 0.104,-0.199 0.032,-0.268z"></path><path class="fil0" d="M0.166 0.915c-0.039,-0.028 -0.065,-0.046 -0.101,-0.013 0.024,0.047 0.066,0.047 0.101,0.013z"></path><path class="fil0" d="M0.174 0.329c-0.07,0.059 0.001,0.35 0.021,0.438 -0.006,-0.114 0.019,-0.342 -0.021,-0.438z"></path><path class="fil0" d="M0.392 0.823c0.006,-0.016 0.005,-0.031 -0.043,-0.001 -0.017,0.01 -0.016,0.022 -0.021,0.033 0.032,0.006 0.047,0.006 0.064,-0.032z"></path><path class="fil0" d="M0.34 0.362c-0.041,0.124 -0.142,0.259 -0.106,0.405 0.019,-0.056 0.029,-0.12 0.053,-0.183 0.059,-0.156 0.174,-0.357 0.139,-0.583 -0.076,0.069 -0.053,0.12 -0.062,0.222 -0.004,0.045 -0.01,0.097 -0.024,0.139z"></path><path class="fil0" d="M-0 0.531c0.014,0.095 0.131,0.307 0.213,0.357 -0.029,-0.072 -0.065,-0.127 -0.092,-0.203 -0.023,-0.064 -0.05,-0.147 -0.121,-0.154z"></path><path class="fil0" d="M0.503 0.313c-0.073,0.034 -0.155,0.186 -0.172,0.247 0.049,-0.045 0.061,-0.076 0.122,-0.122 0.025,-0.019 0.059,-0.04 0.078,-0.064 0.023,-0.03 0.024,-0.085 -0.028,-0.06z"></path><path class="fil0" d="M0.414 0.57c-0.061,0.027 -0.144,0.169 -0.136,0.237 0.024,-0.066 0.141,-0.174 0.136,-0.237z"></path></g></svg>