<svg height='100px' width='100px'  fill="#000000" xmlns="http://www.w3.org/2000/svg" xmlns:xlink="http://www.w3.org/1999/xlink" version="1.1" x="0px" y="0px" viewBox="0 0 50 50" enable-background="new 0 0 50 50" xml:space="preserve"><g><path d="M20.46719,44.917c0.0303,0.0088,3.0474,0.8838,3.5308,3.2808c0.0864,0.4277,0.44,0.75,0.874,0.7964   c0.0357,0.0039,0.0713,0.0058,0.107,0.0058c0.3935,0,0.7548-0.2324,0.9155-0.5986l0.102-0.2329   c0.0206-0.0469,0.0372-0.0952,0.0503-0.144c0.5987-2.2496,3.45711-3.0782,3.5352-3.1016   c13.5503-4.5308,14.0742-11.5386,13.1807-15.3125c-1.1123-4.6978-5.6206-8.1079-10.7207-8.1079h-6.1207v-2.7567   c0.229-0.1045,0.4437-0.241,0.628-0.4181l5.1631-2.836c0.104-0.0571,0.1967-0.1323,0.2744-0.2216   c0.5683-0.6568,0.6972-1.5552,0.3364-2.3448c-0.2236-0.4892-0.6016-0.8637-1.063-1.0781l0.7276-0.8418   c0.5673-0.6567,0.6953-1.5547,0.3339-2.3442c-0.36079-0.7891-1.1245-1.2793-1.9921-1.2793h-2.4854V3.8448   c0-1.5684-1.2764-2.8448-2.8447-2.8448c-1.5752,0-2.857,1.2764-2.857,2.8448v3.5371h-2.4731c-0.8677,0-1.6314,0.4902-1.9922,1.2793   c-0.36129,0.7895-0.2334,1.6875,0.334,2.3442l0.9018,1.044c-0.3764,0.249-0.6835,0.604-0.8823,1.0395   c-0.4062,0.8911-0.2607,1.9033,0.3799,2.6421c0.0859,0.0986,0.1904,0.1797,0.3071,0.2383l4.7359,2.3735   c0.1405,0.1325,0.3006,0.2373,0.4677,0.3287v2.81h-5.9633c-5.0996,0-9.6084,3.4097-10.7212,8.1079   C6.34369,33.3638,6.86809,40.3716,20.46719,44.917z M19.84129,14.295c-0.0703-0.1612-0.021-0.3106,0.0092-0.376   c0.0376-0.0825,0.1543-0.2744,0.4249-0.2744h0.4736c0.3911,0,0.7466-0.2281,0.9092-0.584   c0.1631-0.3555,0.1035-0.7739-0.1524-1.0698l-1.98089-2.293c-0.02011-0.023-0.08011-0.0928-0.02931-0.2041   c0.0512-0.1118,0.1435-0.1118,0.1738-0.1118h3.4731c0.5523,0,1-0.4478,1-1V3.8448c0-0.4658,0.3843-0.8448,0.857-0.8448   c0.4658,0,0.8447,0.379,0.8447,0.8448v4.5371c0,0.5522,0.4478,1,1,1h3.4854c0.0302,0,0.1225,0,0.1738,0.1118   c0.0508,0.1113-0.0093,0.1811-0.0293,0.2041l-1.981,2.293c-0.2558,0.2959-0.3154,0.7143-0.1523,1.0698   c0.1626,0.3559,0.518,0.584,0.9092,0.584h1.08c0.0303,0,0.1231,0,0.1744,0.1118c0.019,0.0415,0.0224,0.0771,0.01851,0.1069   l-4.60161,2.5275v-2.3966c0-0.5523-0.4477-1-1-1c-0.5522,0-1,0.4477-1,1v2.3459L19.84129,14.295z M17.95799,23.4815   c4.2136,0.0063,7.4821,0.0111,14.084,0.021c3.7163,0,7.0387,2.1828,8.3667,5.3384h-4.8829c-0.5522,0-1,0.4477-1,1   c0,0.5522,0.4478,1,1,1h5.425c0.0978,0.695,0.1059,1.3767,0.0177,2.042h-1.8177c-0.5522,0-1,0.4477-1,1c0,0.5522,0.4478,1,1,1   h1.2608c-1.438,3.2906-5.3294,6.0928-11.4111,8.1274c-0.1285,0.0352-2.54059,0.7197-3.9917,2.6636   c-1.4454-1.9575-3.8648-2.6446-3.9571-2.6685c-6.10479-2.0414-10.0026-4.8396-11.4516-8.1225h1.2446c0.55221,0,1-0.4478,1-1   c0-0.5523-0.44779-1-1-1h-1.8115c-0.0905-0.6653-0.084-1.3469,0.0119-2.042h6.31081c0.55229,0,1-0.4478,1-1c0-0.5523-0.44771-1-1-1   H9.58269C10.90529,25.6742,14.23349,23.4815,17.95799,23.4815z"></path></g></svg>