<svg height='100px' width='100px'  fill="#000000" xmlns="http://www.w3.org/2000/svg" xmlns:xlink="http://www.w3.org/1999/xlink" xml:space="preserve" version="1.1" style="shape-rendering:geometricPrecision;text-rendering:geometricPrecision;image-rendering:optimizeQuality;" viewBox="0 0 333 333" x="0px" y="0px" fill-rule="evenodd" clip-rule="evenodd"><defs><style type="text/css">
   
    .str0 {stroke:black;stroke-width:13.3307;stroke-linecap:round;stroke-linejoin:round}
    .str1 {stroke:black;stroke-width:6.94488;stroke-linecap:round;stroke-linejoin:round}
    .fil0 {fill:none}
   
  </style></defs><g><path class="fil0 str0" d="M228 46c0,0 -36,103 -28,161 0,0 -2,8 5,27 2,7 19,40 16,56 0,0 -5,20 -29,17 0,0 -4,18 -25,12 0,0 -16,4 -22,-2 0,0 -7,-6 -7,-12 0,0 -24,5 -28,-16 0,0 -3,-8 5,-28l18 -45c0,0 4,-100 -25,-172m30 261c0,0 11,-60 21,-79 0,0 -6,-143 -13,-184m46 265c0,0 -8,-60 -18,-80 0,0 12,-143 20,-184"></path><line class="fil0 str0" x1="218" y1="220" x2="116" y2="220"></line><line class="fil0 str0" x1="206" y1="237" x2="124" y2="236"></line><line class="fil0 str1" x1="174" y1="296" x2="156" y2="296"></line><line class="fil0 str1" x1="130" y1="288" x2="123" y2="286"></line><line class="fil0 str1" x1="209" y1="288" x2="201" y2="289"></line></g></svg>