<svg height="100" width="100" xmlns="http://www.w3.org/2000/svg" data-name="Layer 1" viewBox="0 0 64 64"><path d="M19.256 39a2.55 2.55 0 00-1.978 4.158l10.481 12.9a2.529 2.529 0 001.241.82V61a1 1 0 001 1h4a1 1 0 001-1v-4.122a2.536 2.536 0 001.241-.82l10.481-12.9a2.552 2.552 0 00-3.963-3.216l-5.63 6.93 1.8-4.5-1.858-.744L35 46.807v-4.929a2.536 2.536 0 001.241-.82l10.481-12.9a2.552 2.552 0 00-3.963-3.216l-5.63 6.93 1.8-4.5-1.858-.744L35 31.807v-4.929a2.536 2.536 0 001.241-.82l10.481-12.9a2.552 2.552 0 00-3.963-3.216l-.866 1.066.679-1.208A2.55 2.55 0 0040.35 6h-.444a2.552 2.552 0 00-2.222 1.3L35 12.071V5a3 3 0 00-6 0v7.072L26.316 7.3A2.552 2.552 0 0024.094 6h-.444a2.55 2.55 0 00-2.222 3.8l.678 1.207-.865-1.065a2.552 2.552 0 10-3.963 3.216l10.481 12.9a2.529 2.529 0 001.241.82v4.929l-2.071-5.179-1.858.744 1.8 4.5-5.63-6.93a2.552 2.552 0 10-3.963 3.216l10.481 12.9a2.529 2.529 0 001.241.82v4.929l-2.071-5.179-1.858.744 1.8 4.5-5.63-6.93A2.54 2.54 0 0019.256 39zm-.426 2.9a.549.549 0 01.432-.9.547.547 0 01.427.2L30.17 54.1a.549.549 0 01-.426.9h-.006a.547.547 0 01-.427-.2zM32 25.615a2.514 2.514 0 001 1.042v10.3l-.722.889A2.534 2.534 0 0032 38.3a2.534 2.534 0 00-.278-.461L31 36.953v-10.3a2.514 2.514 0 001-1.038zm0 15a2.514 2.514 0 001 1.042v10.3l-.722.889A2.534 2.534 0 0032 53.3a2.534 2.534 0 00-.278-.461L31 51.953v-10.3a2.514 2.514 0 001-1.038zM31 60v-3.343a2.514 2.514 0 001-1.042 2.514 2.514 0 001 1.042V60zm13.311-18.8a.548.548 0 01.433-.2.55.55 0 01.426.9L34.689 54.8a.545.545 0 01-.427.2h-.006a.55.55 0 01-.426-.9zm0-15a.548.548 0 01.433-.2.55.55 0 01.426.9L34.689 39.8a.545.545 0 01-.427.2h-.006a.55.55 0 01-.426-.9zm0-15a.548.548 0 01.433-.2.55.55 0 01.426.9L34.689 24.8a.545.545 0 01-.427.2h-.006a.55.55 0 01-.426-.9zM31 5a1 1 0 012 0v10.627l-1 1.778-1-1.778zm-7.829 3.82A.55.55 0 0123.65 8h.444a.55.55 0 01.479.28l6.555 11.655a1.042 1.042 0 001.744 0L39.427 8.28a.55.55 0 01.479-.28h.444a.55.55 0 01.479.82l-6.394 11.367-2.157 2.655A2.534 2.534 0 0032 23.3a2.534 2.534 0 00-.278-.461l-2.157-2.654zM18.83 11.9a.549.549 0 01.432-.9.547.547 0 01.427.2L30.17 24.1a.549.549 0 01-.426.9h-.006a.547.547 0 01-.427-.2zm0 15a.549.549 0 01.432-.9.547.547 0 01.427.2L30.17 39.1a.549.549 0 01-.426.9h-.006a.547.547 0 01-.427-.2z"/></svg>