<svg height='100px' width='100px'  fill="#000000" xmlns="http://www.w3.org/2000/svg" data-name="Layer 2" viewBox="0 0 100 100" x="0px" y="0px"><title>SUMMER_VEGES_AND _FRUITS_ICONS</title><path d="M32.4541,76.375c-9.34765-4.76465-20.14062-6.98145-22.67969-1.999-.82226,1.61132-.95019,4.43554,3.10743,8.7417a44.2434,44.2434,0,0,0,11.832,8.439A33.52917,33.52917,0,0,0,39.8125,94.90479a35.1978,35.1978,0,0,0,6.54785-.56153,1.50027,1.50027,0,0,0,1.06348-2.0874C47.22656,91.81787,42.458,81.4751,32.4541,76.375ZM26.07715,88.88379a41.1957,41.1957,0,0,1-11.01172-7.82324C12.51172,78.3501,12.05859,76.5,12.44629,75.73877c.374-.73291,1.64941-1.15869,3.59961-1.15869,3.38379,0,8.7959,1.28271,15.04492,4.46777,6.669,3.39942,10.87207,9.584,12.63867,12.63965C40.2207,92.05127,32.74414,92.28271,26.07715,88.88379Z"></path><path d="M40.041,24.81055a26.04,26.04,0,0,0-7.89551-3.30274c-3.69434-.7539-5.2334.35694-5.87793,1.42041-.64356,1.063-.91309,2.94385,1.46191,5.86768a26.02033,26.02033,0,0,0,6.582,5.4707,20.75039,20.75039,0,0,0,10.541,2.7041,17.867,17.867,0,0,0,2.14453-.1123,1.49941,1.49941,0,0,0,1.21387-2.00391C48.1123,34.58691,45.74121,28.26416,40.041,24.81055Zm-4.17481,6.89062c-5.6084-3.39892-7.27051-6.65185-7.03418-7.21582.10938-.13183.46875-.229,1.05078-.229,1.51758,0,4.55078.66406,8.60352,3.11963a17.64265,17.64265,0,0,1,5.99121,6.58935A17.56841,17.56841,0,0,1,35.86621,31.70117Z"></path><path d="M67.5459,37.5376C57.542,42.6377,52.77344,52.98,52.57617,53.418a1.50027,1.50027,0,0,0,1.06348,2.0874,35.19833,35.19833,0,0,0,6.54785.56152,33.52915,33.52915,0,0,0,15.09863-3.34814,44.24266,44.24266,0,0,0,11.832-8.43848c4.05762-4.30615,3.92969-7.13037,3.10743-8.74121C87.68652,30.55518,76.89453,32.77344,67.5459,37.5376Zm17.38867,4.68554A41.195,41.195,0,0,1,73.92285,50.0459c-6.668,3.3999-14.14453,3.16846-17.65234,2.80371,1.7666-3.05518,5.96972-9.23975,12.63867-12.63916,9.84863-5.02051,17.62109-5.31592,18.64453-3.30859C87.94141,37.6626,87.48828,39.5127,84.93457,42.22314Z"></path><path d="M81.32617,57.47949A44.256,44.256,0,0,0,67.5459,62.09814C57.542,67.19775,52.77344,77.54053,52.57617,77.97852c-.00909.02-.0119.04168-.02008.062a1.48835,1.48835,0,0,0-.06268.19385c-.00958.03833-.019.076-.02551.1148a1.4944,1.4944,0,0,0-.01807.20478c-.001.03613-.00433.07171-.00275.10778a1.4883,1.4883,0,0,0,.03119.2298c.00562.02777.0072.05573.01434.08319a1.40734,1.40734,0,0,0,.335.61835c.029.03247.0614.0592.09283.0888a1.48687,1.48687,0,0,0,.19525.15735c.03888.02588.07776.04914.11872.07117a1.48218,1.48218,0,0,0,.22454.0965c.04255.01458.08338.03082.127.0415.01843.00452.035.01367.05365.01752a35.18614,35.18614,0,0,0,6.54785.56152A33.53834,33.53834,0,0,0,75.28613,77.2793a44.25349,44.25349,0,0,0,11.832-8.43848c4.05762-4.30615,3.92969-7.13037,3.10743-8.74121C89.4043,58.48828,87.2002,56.72754,81.32617,57.47949ZM68.90918,64.771A41.2072,41.2072,0,0,1,81.709,60.45508a11.62289,11.62289,0,0,1,4.33582.092L57.83887,74.92633A31.13748,31.13748,0,0,1,68.90918,64.771Zm16.02539,2.01269a41.20616,41.20616,0,0,1-11.01172,7.82276,31.18147,31.18147,0,0,1-14.71179,2.98822L87.408,63.22A11.63655,11.63655,0,0,1,84.93457,66.78369Z"></path><path d="M50.13867,5.10547H50.125c-1.24316.00537-2.98828.75683-4.24316,4.30908a26.0259,26.0259,0,0,0-1.23145,8.46973c.0293,6.665,4.23047,11.95117,4.40918,12.17285a1.50094,1.50094,0,0,0,1.168.55859h.00684a1.50028,1.50028,0,0,0,1.16894-.56836c.17676-.22314,4.33289-5.54528,4.30371-12.21075a26.03513,26.03513,0,0,0-1.30371-8.45868C53.12305,5.84961,51.37988,5.10547,50.13867,5.10547ZM52.707,17.8501A17.627,17.627,0,0,1,50.21582,26.394a17.64835,17.64835,0,0,1-2.56543-8.523c-.02734-6.55566,1.87988-9.67236,2.48438-9.76562.61035.08838,2.54492,3.188,2.57226,9.74414Z"></path><path d="M50.05859,32.771a1.50007,1.50007,0,0,0-1.5,1.5V93.39453a1.5,1.5,0,0,0,3,0V34.271A1.50007,1.50007,0,0,0,50.05859,32.771Z"></path><path d="M47.5321,61.4776c-.00647-.03882-.01593-.07648-.02551-.11481a1.4887,1.4887,0,0,0-.06268-.19384c-.00818-.02033-.011-.042-.02008-.062-.19727-.438-4.96582-10.78076-14.96973-15.88037a44.256,44.256,0,0,0-13.78027-4.61865c-5.873-.75439-8.0791,1.00879-8.89942,2.61963-.82226,1.61133-.95019,4.43555,3.10743,8.7417a44.25326,44.25326,0,0,0,11.832,8.43847A33.529,33.529,0,0,0,39.8125,63.75586a35.19833,35.19833,0,0,0,6.54785-.56152c.01868-.00385.03522-.013.05365-.01752.04364-.01068.08447-.02692.127-.04151a1.48113,1.48113,0,0,0,.22454-.09649c.041-.022.07984-.04529.11872-.07117a1.48687,1.48687,0,0,0,.19525-.15735c.03143-.0296.06384-.05633.09283-.0888a1.40734,1.40734,0,0,0,.335-.61835c.00714-.02747.00872-.05542.01434-.08319a1.48847,1.48847,0,0,0,.03119-.2298c.00158-.03607-.00171-.07165-.00275-.10779A1.49439,1.49439,0,0,0,47.5321,61.4776Zm-31.42468-18.046a17.22527,17.22527,0,0,1,2.1836.15186,41.20741,41.20741,0,0,1,12.7998,4.31591A31.18189,31.18189,0,0,1,42.15015,58.04913L13.94891,43.67236A8.51431,8.51431,0,0,1,16.10742,43.43164Zm9.96973,14.30322a41.20592,41.20592,0,0,1-11.01172-7.82275A11.63732,11.63732,0,0,1,12.592,46.34845l28.1958,14.37408A31.18157,31.18157,0,0,1,26.07715,57.73486Z"></path><path d="M52.24463,36.51776a1.49412,1.49412,0,0,0,.1864.13654c.04163.02478.08466.04406.12824.06457a1.47883,1.47883,0,0,0,.20013.07935c.04755.01459.09473.02563.14343.03546.03388.00684.06561.02026.1001.02472a17.867,17.867,0,0,0,2.14453.1123,20.75319,20.75319,0,0,0,10.541-2.7041,26.02033,26.02033,0,0,0,6.582-5.4707c2.37292-2.92127,2.10595-4.80121,1.46356-5.86426l-.00165-.00342-.00793-.01056c-.6485-1.06018-2.19141-2.15771-5.87-1.40985A26.04,26.04,0,0,0,59.959,24.81055c-5.70019,3.45361-8.07128,9.77636-8.16992,10.04394-.00787.02143-.00915.044-.016.06561a1.4986,1.4986,0,0,0-.04736.19385c-.007.04-.01373.07929-.01746.11957a1.50366,1.50366,0,0,0-.00305.20044c.00159.03784.00092.07532.00537.11292a1.4856,1.4856,0,0,0,.046.21838c.00818.03.01233.06067.0224.09021a1.414,1.414,0,0,0,.36579.58008C52.176,36.46637,52.21124,36.49,52.24463,36.51776Zm11.88916-4.81659a15.48026,15.48026,0,0,1-5.09973,1.8869L69.82489,27.0495A22.68343,22.68343,0,0,1,64.13379,31.70117ZM61.51367,27.376a22.56392,22.56392,0,0,1,6.73639-2.8797L57.46777,31.02966A15.51168,15.51168,0,0,1,61.51367,27.376Z"></path></svg>