<svg height="100" width="100" xmlns="http://www.w3.org/2000/svg"><path d="M49.131 93.528c.059.104 1.14 1.046 1.256.977.116-.07.051-15.62.186-19.854.094-2.929-.65-7.299 2.093-9.298s5.068-3.208 8.322-3.115c3.255.093 12.646-.279 15.343-.837s4.51-.465 3.766-1.209c-.743-.744-3.301-3.162-6.647-2.976-3.348.187-5.348.512-5.348.512s5.068-2.418 7.393-2.976c2.324-.559 5.301-1.767 5.951-2.464.65-.698-.558-1.395-1.534-1.581-.977-.187-3.812.371-3.812.371s3.998-1.999 5.486-4.323c1.487-2.324 1.999-4.23 2.046-4.696.046-.465-.918-.748-1.93-.697-1.24.062-2.767.139-4.161.79-1.396.651-4.417 3.208-4.417 3.208s1.255-1.999 1.255-2.79c0-.791.047-2.231-.929-1.72-.978.511-1.768.837-3.395 2.696-1.627 1.86-5.486 7.114-5.486 7.114s2.139-3.626 2.324-5.114c.187-1.488-1.022-3.441-1.022-3.441-.278-.512-.54-.655-1.519.14-.744.604-.992.651-2.898 3.348-1.906 2.696-2.882 5.579-4.045 8.183-1.162 2.604-2.93 7.206-4.882 9.438-1.953 2.232-2.371 3.859-2.324 1.768.046-2.093.79-6.974 1.72-9.95.93-2.975 1.209-4.51 3.068-7.113 1.86-2.604 8.834-9.531 10.229-12.368 1.395-2.836 2.743-6.602 2.837-7.532.093-.93.79-1.767-1.163-1.116-1.953.651-3.316 1.535-3.952 2.124-.893.827-1.812 1.596-1.812 1.596s-.14-1.674-.744-.93-2.186 2.138-2.883 3.44c-.696 1.302-4.975 8.555-4.975 8.555s.931-4.836 2.093-7.486c1.162-2.65 4.137-7.021 5.021-10.136.883-3.115.789-3.301.789-3.952 0-.651.419-1.674-1.487-.791s-3.998 2.79-4.742 4.742c-.743 1.953-1.628 3.301-1.628 3.301s2.559-8.415 2.884-10.275.046-2.325-.047-2.836c-.094-.511-.326-.883-1.069-.372-.744.511-1.813 1.906-1.813 1.906s.79-2.417.651-4.044c-.14-1.627-1.722-4.975-1.952-5.626-.233-.651-.326-.836-.978.139-.65.977-3.348 3.999-3.44 5.766-.092 1.767 0 3.999 0 3.999s-.512-1.163-1.348-1.72c-.838-.558-1.953-1.209-2.046-.233-.093.977.511 5.301 1.208 7.114.698 1.813 1.023 5.068 1.023 5.068s-1.209-2.929-2.789-4.463c-1.582-1.535-2.836-2.092-3.627-2.186-.791-.093-.791-.046-.698 1.441.093 1.488 1.721 4.742 2.046 5.812.326 1.07 3.069 6.928 3.441 8.694.371 1.767 2.139 8.044 2.139 8.044s-2.418-5.626-2.65-6.556c-.232-.93-3.026-8.413-3.254-8.788-.193-.317-.837-.744-.837.325 0 1.07-.232.791-.232.791s-1.302-2.417-2.836-3.394c-1.534-.977-2.557-1.349-3.022-1.674-.465-.326-.651-.279-.651 1.116s-.186 2.371.511 4.231c.698 1.859 1.535 3.021 1.535 3.021s-1.023-.558-1.674-.697c-.651-.14-2.186-.093-1.441.744.744.837 5.161 6.742 6.742 9.159 1.58 2.418 7.067 8.509 7.67 10.369.605 1.859 1.814 5.579 2.14 7.672.325 2.092.651 4.742.651 5.393s.046 1.302-1.023-.325c-1.068-1.627-4.51-4.882-4.836-7.532-.324-2.65-1.859-6.555-3.301-8.973-1.441-2.418-4.463-5.579-5.346-6.137s-1.163-.65-1.441.558-.791 4.323.651 6.695c1.441 2.371 2.185 3.44 2.185 3.44s-3.999-4.556-4.835-5.393-2.231-2.604-3.022-3.255a7.92 7.92 0 00-1.859-1.162c-.418-.186-.93-.418-.837.931.093 1.347.139 2.138.604 2.789.465.651 1.349 1.953 1.349 1.953s-2.604-2.045-4.231-2.789c-1.627-.744-1.953-1.07-4.092-1.116-2.139-.047-2.976.372-3.812.418s-.65.279 0 1.162c.651.883 1.674 2.836 3.162 4.231 1.487 1.395 4.51 2.324 4.51 2.324s-2.976.14-3.673.791c-.698.651-1.349 1.069-.187 1.348 1.163.279 5.672 1.303 7.253 1.441 1.581.14 3.812.187 4.789.651s1.72 1.348 1.72 1.348-4.324-1.348-6.37-1.115-2.185-.047-3.719.884c-1.534.93-2.371 1.999-2.557 2.324s-.511.559 1.302.977c1.813.419 6.695 1.44 9.02 1.302 2.324-.14 9.81-.372 11.577.325 1.766.698 6.416 3.068 7.067 4.277s.604 6.882.558 8.462c-.054 1.581-.343 17.283-.286 17.388z"/></svg>