<svg height="100" width="100" xmlns="http://www.w3.org/2000/svg"><path d="M87.975 72.017a9.162 9.162 0 00-8.39-5.476c-.207 0-.421.002-.641.011a9.097 9.097 0 001.076-2.75 9.175 9.175 0 00-.333-5.05l-.063-.183a1 1 0 00-.713-.645 9.19 9.19 0 00-7.597 1.551 12.256 12.256 0 00-1.758-6.993 1.002 1.002 0 00-.268-.29l-.135-.098a.997.997 0 00-.551-.19c-4.816-.169-9.341 2.523-11.46 6.878-1.017 2.089-2.211 7.738-.993 12.824h-4.596V49.793c7.455 2.071 15.504.121 18.163-1.17a16.869 16.869 0 009.479-15.793.995.995 0 00-.19-.552l-.138-.189a1.005 1.005 0 00-.289-.266 16.92 16.92 0 00-10.569-2.35 12.556 12.556 0 002.704-11.107.997.997 0 00-.641-.711l-.251-.088a12.533 12.533 0 00-6.919-.465 12.45 12.45 0 00-4.434 1.902 19.45 19.45 0 00.063-1.689c0-4.964-2.934-9.469-7.474-11.477a1.003 1.003 0 00-.404-.085h-.146a1 1 0 00-.404.085 12.557 12.557 0 00-7.474 11.477c0 .534.013 1.103.062 1.689a12.437 12.437 0 00-4.433-1.901 12.527 12.527 0 00-6.909.461l-.261.092c-.32.113-.562.381-.641.711a12.555 12.555 0 002.704 11.107 16.898 16.898 0 00-10.571 2.35c-.115.07-.216.164-.295.274l-.135.189a1 1 0 00-.185.543 16.863 16.863 0 009.479 15.793c2.028.985 6.468 2.09 11.366 2.09 2.214 0 4.517-.247 6.738-.812v21.705h-5.703c1.218-5.085.023-10.734-.993-12.824a12.284 12.284 0 00-11.46-6.878.997.997 0 00-.551.19l-.135.098a1.017 1.017 0 00-.268.29 12.25 12.25 0 00-1.758 6.994 9.187 9.187 0 00-7.597-1.552 1 1 0 00-.713.645l-.058.169a9.182 9.182 0 00-.339 5.065 9.102 9.102 0 001.076 2.749c-.22-.008-.434-.011-.641-.011a9.18 9.18 0 00-8.397 5.476.998.998 0 00-.085.403v.101c0 .139.029.276.085.403a9.181 9.181 0 008.397 5.471c.207 0 .422-.002.642-.011a9.121 9.121 0 00-1.077 2.752 9.18 9.18 0 00.333 5.05l.063.183a1 1 0 00.713.645 9.181 9.181 0 007.597-1.549 12.24 12.24 0 001.759 6.992.986.986 0 00.278.297l.135.095a1 1 0 00.538.181 12.244 12.244 0 0011.461-6.878c.9-1.85 2.255-7.329.994-12.545h5.702v19.642a1 1 0 102 0V73.606h4.595c-1.261 5.217.094 10.696.994 12.545a12.241 12.241 0 0011.461 6.879 1 1 0 00.538-.181l.135-.095a.997.997 0 00.278-.297 12.231 12.231 0 001.759-6.992 9.182 9.182 0 007.597 1.55 1 1 0 00.713-.645l.059-.169a9.192 9.192 0 00.338-5.064 9.125 9.125 0 00-1.077-2.751c.221.008.435.011.642.011a9.177 9.177 0 008.397-5.471.998.998 0 00.085-.403v-.103a.998.998 0 00-.085-.403zm-46.395.916c1.58 4.721.44 10.368-.521 12.344a10.24 10.24 0 01-9.125 5.76 10.249 10.249 0 01-1.264-5.092c.022-1.374.304-2.689.838-3.912l.027-.058a1 1 0 10-1.813-.847c-.012.024-.022.049-.033.073a7.174 7.174 0 01-7.606 3.972 7.198 7.198 0 01-.148-3.619 7.096 7.096 0 012.214-3.815.932.932 0 00.077-.077l.105-.118a1 1 0 00-1.135-1.589c-.725.306-1.556.437-2.781.437a7.18 7.18 0 01-6.4-3.924 7.18 7.18 0 016.4-3.93c1.226 0 2.057.131 2.779.439a1 1 0 001.142-1.58l-.105-.12a.843.843 0 00-.084-.085 7.084 7.084 0 01-2.213-3.811 7.201 7.201 0 01.149-3.619 7.182 7.182 0 016.853 2.746c.111.144.218.295.318.448.291.448.85.635 1.338.416l.027-.012c.486-.219.745-.768.575-1.274a10.197 10.197 0 01-.524-3.093 10.271 10.271 0 011.266-5.099 10.25 10.25 0 019.123 5.761c.95 1.952 2.12 7.845.521 12.625l-.014.043c-.061.21-.051.421.014.61zm9.515-25.36a.995.995 0 00-.636 0c-6.849 2.3-15.324.616-18.137-.749a14.865 14.865 0 01-8.363-13.49 14.794 14.794 0 017.604-1.957c1.979.031 3.888.44 5.679 1.217l.089.042c.04.019.107.043.15.056a1 1 0 00.707-1.868l-.114-.05a10.55 10.55 0 01-5.789-11.42 10.541 10.541 0 015.557-.299 10.427 10.427 0 015.604 3.251.929.929 0 00.083.083l.169.149a1 1 0 001.581-1.143c-.569-1.33-.647-2.748-.647-4.082 0-4.051 2.324-7.738 5.951-9.494a10.556 10.556 0 015.95 9.494c0 1.267-.077 2.742-.647 4.083a.998.998 0 001.581 1.141l.169-.149a.813.813 0 00.083-.083 10.43 10.43 0 015.604-3.251 10.578 10.578 0 015.557.299 10.55 10.55 0 01-5.75 11.404l-.152.067a1 1 0 00.742 1.856 1.54 1.54 0 00.112-.045l.062-.029a14.767 14.767 0 015.705-1.23c2.675-.035 5.31.641 7.608 1.958a14.872 14.872 0 01-8.364 13.488c-2.559 1.243-10.578 3.158-17.748.751zm28.49 28.822c-1.226 0-2.057-.131-2.781-.437a1 1 0 00-1.131 1.592l.106.118c.022.025.047.05.073.073a7.101 7.101 0 012.213 3.814 7.208 7.208 0 01-.149 3.62 7.176 7.176 0 01-6.849-2.739 7.245 7.245 0 01-.716-1.142c-.023-.055-.048-.11-.073-.165a.993.993 0 00-1.276-.513 1.009 1.009 0 00-.51 1.418c.534 1.223.815 2.538.838 3.909.023 1.8-.412 3.553-1.264 5.096a10.239 10.239 0 01-9.125-5.761c-.962-1.976-2.102-7.623-.521-12.344a1 1 0 00.001-.649c-1.6-4.781-.43-10.673.521-12.625a10.25 10.25 0 019.123-5.761 10.264 10.264 0 011.266 5.095 10.1 10.1 0 01-.876 3.997 1 1 0 101.824.818l.014-.029a7.169 7.169 0 017.625-4.013 7.193 7.193 0 01.148 3.618 7.085 7.085 0 01-2.212 3.812.784.784 0 00-.081.082l-.106.12a1.001 1.001 0 001.14 1.584c.723-.308 1.554-.439 2.779-.439a7.18 7.18 0 016.4 3.93 7.185 7.185 0 01-6.401 3.921z"/></svg>