<svg height="100" width="100" xmlns="http://www.w3.org/2000/svg"><path d="M75.466 66.36c-1.13-.589-2.341-.978-3.57-1.295.624-.346 5.187-2.226 2.914-3.149-1.656-.673-4.382.178-5.887.944-.237.305-.903.543-1.207.828-.699.656-.51.682-1.577.538-1.488-.188-2.975-.573-4.399-1.035-2.306-.747-4.478-1.729-6.862-2.267 1.219-1.01 2.408-2.023 3.511-3.163.684-.706.945-.376 1.9-.36 1.978.032 3.928-.374 5.912-.257.813.049 2.018.568 2.726-.068.853-.767-.713-1.791-1.288-2.094-1.794-1.172-4.456-1.237-6.495-1.043.743-1.402 2.338-4.217 1.475-5.803-.435-.8-3.125 3.755-3.585 4.421-.428-1.27-.793-2.669-1.509-3.821-1.542-2.479-1.565 1.903-1.537 2.813.031.991.117 1.979.282 2.956.095.473.468.697.052 1.063-.41.361-.828.714-1.256 1.056-1.608 1.282-3.42 2.167-4.476 4.006-3.136.356-6.967 1.745-9.171 4.12-1.228 1.323.777 1.106 1.569.893 1.646-.442 3.18-1.163 4.859-1.508a21.65 21.65 0 011.582-.264c.96-.122.797.899 1.329 1.657.899 1.28 1.894 2.482 2.773 3.78.524.772 3.246 4.749 2.411 5.354-1.554 1.123-2.296 2.71-2.896 4.447-.543 1.42-.525 3.108-.309 4.576.112.65.951 3.741 1.892 2.005.677-1.253.503-2.883.938-4.221.401-1.235 1.05-2.67 1.954-3.64.381.965.823 1.902 1.373 2.783.094.15.832.966.828 1.119.973 1.137 2.959 3.165 4.566 3.196.832.017-2.169-3.637-2.381-3.922-.887-1.192-1.341-2.474-1.755-3.898 2.124.75 4.548.958 6.771.538.465-.087 2.092-.298 2.108-.982.024-1.042-2.957-1.104-3.601-1.251a26.287 26.287 0 01-4.328-1.415c-.621-.263-1.226-.426-1.903-.417-.193-.625-.364-1.25-.64-1.843-1.232-2.652-2.651-5.152-4.448-7.472 2.268.517 4.353 1.478 6.573 2.128 1.542.451 3.145.813 4.745.98.743.106 1.479-.162 1.854.519.299.543.735.949 1.177 1.372.794.775 1.667 1.527 2.153 2.55.276.581.249 1.273.648 1.82.857 1.172 1.535-1.306 1.584-1.812.144-1.504-.537-3.025-1.461-4.174 1.878.205 3.506.616 5.215 1.426 3.455 1.64.188-1.969-1.133-2.714-1.174-.612 1.082.612 0 0zM26.677 27.602c4.147-.801 7.409 2.173 10.533 4.603 1.087.845 2.133 1.812 3.545 2.014.607 1.405 1.249 2.792 1.733 4.244-.834-.278-1.658-.602-2.351-1.167-.563-.46-1.741-2.179-2.559-.979-1.099 1.609.832 4.337 2.362 4.851 1.227.412 2.069.606 3.363.335.217 1.861-.013 3.688.027 5.544.009.407.052 2.063.856 1.793.779-.262 1.148-1.702 1.372-2.378 1.518-4.572.542-8.553-1.314-12.812-.314-.723.381-.945.73-1.632.625-.996.816-2.306.956-3.447.232-1.887-.155-3.854-1.012-5.544-1.215-2.395-1.971-.725-1.807 1.108.178 1.979.127 3.828-.721 5.664-.854-1.771-1.68-3.555-2.28-5.429-.465-1.451-.794-3.118-1.555-4.434-1.106-1.914-1.148 2.336-1.133 2.769.198 2.168.472 4.262 1.162 6.336-1.107-.777-2.202-1.531-3.376-2.209a8.297 8.297 0 00-1.286-.625c.045-.709.106-1.406-.029-2.112-.144-.633-.142-2.155.005-2.803 1.116-2.078-.611-3.378-2.303-1.675-1.396 1.404-1.406 3.888-.669 5.62-1.162-.19-2.444-.188-3.55.271-.888.367-2.976 2.686-.699 2.094.262-.05-.567.148 0 0zM11.184 45.682c2.08.659 3.855.65 5.999.688 2.484.044 4.602.933 6.752 2.11a8.48 8.48 0 001.85.771c.575.157 1.183.23 1.778.194.952-.058.721-.117 1.24.735 1.017 1.685 1.599 3.69 1.848 5.619.204 1.576.334 3.143.341 4.735.003.483.205 4.387 1.314 2.759 1.024-1.501 1.083-3.598 1.271-5.332.225-2.064.12-4.29-.459-6.284 2.003 0 3.354-.98 4.495-2.518.627-.844.965-3.072.026-3.848-1.35-1.117-2.184 1.069-2.806 1.889-.71.938-1.595 1.558-2.531 2.257-.153-.308-1.885-3.311-1.555-3.311.036-1.21.54-2.452.595-3.696.094-2.134-.234-4.536-1.352-6.389-.503-.833-1.665-2.18-2.676-2.321-1.258-.177.332 2.655.486 3.021.786 1.857.725 4.104.342 6.055-1.869-2.334-3.137-4.292-4.254-7.085-.369-.922-2.432-5.242-3.672-4.528-.671.413.772 3.059.93 3.596.476 1.328.599 2.747.961 4.104.727 2.728 2.581 4.533 4.039 6.843-1.744-.692-3.317-1.61-5.152-2.107 1.365-3.876-1.729-7.234-5.589-6.805-.827.092-1.769.876-1.111 1.757.4.536 1.129.714 1.681 1.041 1.555.92 2.242 1.831 2.642 3.665-.47-.021-2.61.427-2.91.201-.33-1.53-1.094-2.507-2.267-3.5-1.021-.678-2.098-1.066-2.883-2.104-.506-.669-1.775-1.773-2.381-.517-.334.695-.037 1.685.209 2.354-.375.535 1.477 2.143 1.873 2.44.889.502 1.632.852 2.466 1.456-1.688-.226-3.462-.422-4.993.538-.487.306-1.831 1.396-.444 1.416 1.297.02 2.619-.43 3.897.101.289.091-.254-.106 0 0zM46.313 19.559c1.507 2.648 4.42 4.292 7.486 3.688 1.086 1.745 1.739 4.113 1.686 6.173.014.648-.521 5.836.896 5.433 1.505-.43 2.028-3.911 2.099-5.15.132-2.334.154-3.985-.783-6.227a11.747 11.747 0 00-.541-1.09c-.499-.914-.207-.69.429-1.46.269-.324 1.376-3.321 1.053-3.383a6.18 6.18 0 00-.679-3.092c-.273-.521-1.6-2.56-2.175-1.214-.367.857.021 1.848.046 2.729.027 1.028-.357 2.177-1.027 2.946-.949-1.554-1.301-3.576-2.383-5.026-.937-1.256-1.215.805-1.216 1.447-.004 1.597.177 3.188.755 4.686-1.949-.188-3.233-1.53-4.558-2.792-.35-.333-1.414-1.46-1.986-1.074-.852.572.61 2.8.898 3.406.222.388-.164-.346 0 0zM70.975 48.635c.125-.041.088-.029 0 0z"/><path d="M83.639 48.504c-2.567.187-5.071-.743-7.664-.366-1.146.166-3.103.463-3.909 1.444-.564-.38-.788-1.036-1.455-.828l.364-.119a55.06 55.06 0 00-.962-2.549c2.528.569 5.09 1.396 7.679.636 1.919-.563 3.558-1.768 4.474-3.566 1.327-2.608-2.394-.214-3.22.185-2.537 1.222-5.505.005-8.063-.577-2.914-.663-6.026-1.769-9.041-1.553-1.461.104-2.97.477-4.273 1.157-.907.475-3.348 2.282-.728 2.043 2.605-.239 4.65-.48 7.235.09 1.021.226 2.021.52 3.028.804 1.062.299.717 2.814.876 3.877-.222 1.741 2.468 3.313 3.578 4.184.96.752 3.503 2.902 4.789 2.957 1.229.5 4.185 1.033 4.893-.629.407-.956-3.109-1.696-3.844-2.291a43.96 43.96 0 00-3.134-2.344c2.476.372 5.529.978 8.003.438.896-.195 1.903-.492 2.611-1.106 1.184-1.029-.135-1.952-1.237-1.887-.272.02.234-.014 0 0zM93.294 24.749c-.163-1.504-3.532-.759-4.339-.62.444-.763 2.579-3.337.112-2.848-1.05.208-2.157.771-2.841 1.614-.719.778-.811 2.149-1.662 2.553-1.66.788-3.181 2.152-4.192 3.676-.506.836-.791 1.802-1.294 2.619-.393.637.094.84-.838.899-.35.022-.701.034-1.052.051.638-1.021 1.316-2.527 1.109-3.788-.164-.998-.441-1.743-1.214-2.411-.749-.647-2.123-.617-2.186.614-.062 1.2.089 2.144-.286 3.383-.133.441-.575 2.565-.828 2.596-.986.115-1.962.241-2.935.443 1.342-2.025 2.2-4.203 1.196-6.59-.313-.742-1.025-2.597-2.179-1.815-.819.554-.582 2.097-.57 2.93-.299 2.476-1.848 4.207-2.563 6.497-1.204.387-2.423.768-3.593 1.254-.854.354-3.875 1.873-1.286 2.079 3.674.294 7.437-.993 11.081-1.295 1.65-.138 3.315-.264 4.951-.53 2.446-.397 5.234-1.043 7.28-2.508.929-.664 1.529-1.907-.128-1.849-1.217.044-2.376.511-3.586.611 1.126-1.274 2.355-2.478 3.839-3.329.63-.362 1.05-.805 1.758-.455.707.35 1.467.563 2.181.895.844.392 2.385 1.714 3.263.961 1.212-1.04-1.12-3.153-1.854-3.764.717-.301 2.763-.848 2.656-1.873-.09-.839.097.931 0 0z"/><path d="M47.418 54.738c3.153-5.253 6.437-10.396 9.928-15.428 1.397-2.014 2.786-4.033 3.832-6.258 1.677-3.132 2.496-6.775 3.567-10.146l.425-1.343c.358-1.137.257-.899 1.32-1.067.569-.091 1.121-.351 1.646-.574 2.395-1.018 4.845-2.401 7.474-2.526.543.077 1.7.941 2.146.496.973-.974-1.544-2.508-2.156-2.682-3.014-.858-6.16.636-8.948 1.664.603-1.906 1.031-3.856 2.381-5.399.388-.442 3.692-2.094 3.614-2.377-.261-.957-4.019.782-4.433 1.115-1.69 1.359-2.459 3.212-3.228 5.17-.497-1.615-.947-3.225-2.052-4.566-.616-.751-1.717-1.328-2.672-.789-.925.521.476 1.469.693 2.041.618 1.617.623 3.275 1.077 4.921.183.66.43 1.265.847 1.818.475.63.646.417.331 1.278-.239.653-.476 1.308-.713 1.963-1.845 5.092-3.48 9.864-6.688 14.283a402.62 402.62 0 00-8.31 11.891c-2.215 3.483-4.465 6.953-6.546 10.52-2.598 4.453-5.887 8.118-9.501 11.773-3.108 3.144-6.746 5.786-9.737 9.043a173.425 173.425 0 00-3.986 4.459c-.617.718-3.238 4.384-4.502 3.992-2.511-.775 2.615-4.973 3.321-5.569 4.338-3.664 8.58-7.378 12.69-11.295 2.897-2.761 5.415-5.965 7.73-9.218 1.604-2.255 3.098-4.578 4.765-6.792.24-.318 2.89-3.336 2.559-3.737-.604-.756-7.257 7.35-7.771 8.015a86.341 86.341 0 01-10.602 11.431c-4.041 3.639-8.543 6.739-12.582 10.367-1.608 1.445-3.395 2.729-3.771 5.005-.347 2.104 1.004 5.043 3.459 4.968 4.281-.13 7.306-5.252 9.914-8.054 3.243-3.482 7.03-6.366 10.432-9.681 2.709-2.641 5.454-5.416 7.731-8.442 2.386-3.17 4.242-6.883 6.316-10.27z"/></svg>