<svg height="100" width="100" xmlns="http://www.w3.org/2000/svg" data-name="Layer 1" viewBox="0 0 5 5"><path d="M3.693 4.323l-.05-.041c-.036-.03-.071-.063-.109-.092a.186.186 0 00-.055-.028c-.028-.01-.058-.013-.086-.023a.107.107 0 00-.084 0 .18.18 0 01-.088.005.224.224 0 01-.063-.026.017.017 0 01-.006-.016.017.017 0 01.014-.008l.117.005a.053.053 0 00.013-.003l-.009-.01a3.293 3.293 0 00-.074-.055.05.05 0 00-.019-.007.494.494 0 01-.081-.017.608.608 0 01-.092-.051c-.007-.004-.008-.017-.011-.025a.097.097 0 01.027 0l.066.024a.082.082 0 00.02.002c-.004-.006-.007-.014-.012-.018a1.597 1.597 0 00-.08-.055c-.03-.019-.06-.034-.089-.054a.213.213 0 01-.037-.039V3.78a.017.017 0 01.014-.003.446.446 0 01.078.028.34.34 0 01.107.074.426.426 0 00.05.038c.016.014.029.03.043.046l.005.005c.033.025.065.052.1.076.036.026.073.05.111.073a.245.245 0 00.046.018l.01-.002-.003-.007c-.045-.047-.089-.095-.136-.139a.915.915 0 01-.087-.109.852.852 0 00-.061-.063c-.04-.041-.082-.081-.12-.124a.846.846 0 00-.216-.18.702.702 0 00-.111-.045c-.053-.018-.106-.037-.16-.052-.041-.012-.085-.017-.127-.028-.056-.015-.112-.032-.167-.048l-.055-.015c-.016-.003-.022.005-.024.027l-.006.122a.174.174 0 01-.04.104l-.01.013c-.013.02-.013.025.007.038a.068.068 0 01.033.043l.009.024a.372.372 0 00.033.102c.011.017.004.025-.016.027a.112.112 0 00-.013 0c-.016.004-.02 0-.018-.017a.222.222 0 00-.01-.1.186.186 0 00-.037-.053H2.13l-.002.009a.495.495 0 01-.02.126.024.024 0 01-.006.014c-.005.005-.013.01-.019.01-.004-.001-.01-.01-.01-.017a.106.106 0 01.002-.027l.009-.063c.001-.012-.005-.01-.012-.005l-.042.035-.012.003.003-.012.033-.041a.063.063 0 00.006-.016.047.047 0 00-.016-.005.739.739 0 00-.059.008c-.004 0-.008.006-.012.008-.008.003-.019.008-.024.005-.007-.003-.01-.014-.013-.022l.005-.008a.985.985 0 01.062-.02.703.703 0 00.071-.017.105.105 0 00.037-.03.181.181 0 00.058-.128v-.081l-.004-.014-.009.014-.007.023a.148.148 0 01-.117.102c-.03.008-.06.015-.09.025a.042.042 0 00-.021.018.317.317 0 01-.076.073c-.013.012-.024.026-.036.04l-.005.006c-.009.003-.025-.011-.03-.025-.003-.012 0-.021.013-.024.007-.002.015.001.022 0 .008 0 .018 0 .023-.006a.487.487 0 00.046-.055c.01-.013.006-.019-.01-.018l-.052.001c-.012.001-.024.002-.026.021a.163.163 0 01-.02.051h-.013c-.016-.009-.03-.047-.019-.06a.087.087 0 01.042-.022c.027-.007.056-.012.084-.018.012-.002.011-.008.005-.017a.119.119 0 00-.064-.048.023.023 0 00-.016.005c-.008.006-.015.015-.023.02-.01.007-.016.007-.021-.005a.042.042 0 00-.018-.016.044.044 0 01-.028-.047c.001-.006.007-.015.011-.016.02-.003.04-.003.06-.004h.005l.034-.015-.001-.007c-.014-.004-.031-.014-.042-.009a.028.028 0 01-.035-.004.066.066 0 01-.012-.035c-.001-.012.004-.025.003-.037-.001-.015.006-.019.019-.017a.087.087 0 00.02.003l.01-.008c-.002-.017.01-.02.02-.025a.198.198 0 00.033-.017c.008-.005.008-.011-.003-.015a.04.04 0 00-.055.013.062.062 0 01-.018.01.249.249 0 01-.014-.033c0-.003.007-.01.012-.012a.218.218 0 01.09-.016c.01 0 .01-.005.003-.01-.01-.01-.018-.03-.037-.007-.005.006-.03.002-.039-.005a.037.037 0 01-.006-.036c.011-.015.006-.029.005-.043 0-.023.001-.025.024-.018a.029.029 0 01.015.008c.016.026.04.014.062.016l.008-.003-.005-.008a.153.153 0 00-.037-.012.057.057 0 01-.05-.06c0-.005.005-.013.008-.013a.061.061 0 01.023.004l.004.007c.002.04.036.035.06.044.008.004.013 0 .007-.008a.133.133 0 00-.028-.029.044.044 0 01-.02-.044c0-.009-.002-.02.01-.017a.07.07 0 01.026.014v.011a.032.032 0 00.018.038.061.061 0 01.02.018.43.43 0 00.097.086c.035.028.068.06.102.092l.012.009a.044.044 0 00.003-.017c-.01-.044-.018-.09-.032-.133a.236.236 0 00-.037-.06.027.027 0 00-.015-.007l-.085-.017c-.014-.003-.03 0-.044-.004a.035.035 0 01-.021-.015.025.025 0 01.003-.023c.002-.003.014-.001.02.001a.226.226 0 00.097.029.108.108 0 00.02-.004.07.07 0 00-.01-.017l-.055-.046a.022.022 0 00-.032-.001c-.004.003-.012.003-.018.004a.143.143 0 01-.004-.03c0-.005.01-.01.014-.011a.105.105 0 01.073.03.94.94 0 00.035.029l.01.002v-.01a1.294 1.294 0 00-.021-.059l-.012-.002c-.009.013-.015.005-.017-.003a.18.18 0 01-.004-.044c0-.003.009-.01.014-.01a.069.069 0 01.025.003.054.054 0 01.013.008l-.01.01c-.012.008-.01.019 0 .022.053.02.053.069.061.11a.156.156 0 00.029.07.409.409 0 01.052.115.137.137 0 00.01.018.059.059 0 00.01-.019c.004-.048.008-.097.01-.146a.037.037 0 00-.01-.021 3.769 3.769 0 00-.069-.081c-.005-.006-.013-.01-.018-.016a.077.077 0 01-.015-.029c0-.006.006-.02.009-.02a.042.042 0 01.027.01c.019.023.034.048.05.072l.01.013.011.006.002-.012a.662.662 0 00-.018-.05.313.313 0 00-.019-.04c-.01-.018-.002-.036.002-.054l.01-.006a.15.15 0 01.031.012c.01.005.012.01-.002.016a.018.018 0 00-.007.03.153.153 0 01.03.101l.001.01.007.032a.186.186 0 00.025-.024.058.058 0 00.01-.054.107.107 0 01-.001-.042c.002-.015.013-.015.023-.006a.05.05 0 01.014.024.122.122 0 01-.03.107.065.065 0 00-.01.014c-.005.01-.002.018.01.016a.125.125 0 00.085-.036.016.016 0 01.023-.005c.006.002.015 0 .022-.001a.076.076 0 00-.007-.02 2.986 2.986 0 00-.066-.089 1.738 1.738 0 00-.098-.106.107.107 0 00-.024-.016c-.006-.003-.014-.004-.019-.008a.201.201 0 00-.12-.032.199.199 0 00-.049.012l-.085.018c-.006 0-.012-.004-.018-.006l.015-.009.111-.043.026-.011-.023-.018a.588.588 0 00-.059-.039.043.043 0 00-.034-.003.182.182 0 01-.1.01c-.028-.001-.055-.005-.083-.007l-.009-.005.008-.01a.1.1 0 01.063-.012.488.488 0 00.07.004.05.05 0 00.017-.005.067.067 0 00-.016-.007l-.167-.026a.112.112 0 01-.026-.011.148.148 0 01.028-.007h.055l.011-.003-.008-.01-.011-.007a.083.083 0 01-.008-.017c.005 0 .012-.003.016-.002a.257.257 0 01.055.03.132.132 0 00.071.032.152.152 0 01.064.021.094.094 0 00.039.012c-.012-.009-.024-.017-.035-.027q-.048-.044-.094-.09l-.005-.016a.06.06 0 01.017 0 .045.045 0 01.015.01l.128.111a.055.055 0 01.017.02.124.124 0 00.053.063l.032.022a.045.045 0 00.014.003l-.004-.014-.062-.073L2 2.437a.384.384 0 00-.158-.12.546.546 0 01-.061-.039.394.394 0 00-.06-.027c-.023-.008-.047-.014-.071-.02a.046.046 0 01-.015-.006.09.09 0 01-.013-.014c.006-.004.013-.01.019-.01a.354.354 0 01.058.008.4.4 0 01.158.075c.001.002.004.002.008 0l-.038-.034c-.024-.02-.046-.041-.07-.06a.236.236 0 00-.095-.036.298.298 0 01-.108-.05c-.004-.003-.006-.01-.008-.016a.048.048 0 01.018-.002l.122.042.006.003.024.002a.096.096 0 00-.013-.019c-.034-.03-.067-.063-.104-.09-.033-.025-.07-.043-.106-.065a.348.348 0 01-.03-.024.223.223 0 01.033.011c.02.01.038.022.057.033l.01.003-.003-.01c-.009-.01-.02-.016-.029-.025a.248.248 0 01-.02-.024l.027.008a.12.12 0 01.064.053.322.322 0 00.084.094c.014.008.024.024.039.034-.01-.015-.02-.03-.028-.046a.878.878 0 01-.042-.082.345.345 0 00-.067-.09l-.006-.006-.006-.014h.016a.173.173 0 01.061.052c.023.043.047.086.072.127.023.038.05.074.074.112a.368.368 0 00.034.053c.042.044.086.086.13.129l.043.044a.579.579 0 01-.024-.071.317.317 0 00-.06-.108.674.674 0 01-.07-.173v-.012l.014.005a.054.054 0 01.009.015l.065.142a.038.038 0 00.016.017.271.271 0 00-.004-.03l-.04-.167v-.013l.011.007a.263.263 0 01.03.053c.013.043.025.087.035.13.006.028.009.056.013.083l.005.01.005-.006a.258.258 0 00-.024-.188.093.093 0 01-.013-.024c-.002-.005.001-.012.002-.018l.015.007a.203.203 0 01.049.16.717.717 0 00.002.17.049.049 0 00.007.016.054.054 0 00.01-.013.444.444 0 00.03-.09.241.241 0 00-.005-.149.143.143 0 01-.01-.043c-.001-.004.005-.01.008-.015.004.004.01.006.013.01a.219.219 0 01.02.18c-.009.032-.022.065-.031.098a.128.128 0 00-.005.047.143.143 0 00.043.098.33.33 0 01.027.034.071.071 0 00.016.01.055.055 0 00.005-.017c-.003-.066-.005-.132-.01-.198a.387.387 0 00-.02-.067.064.064 0 010-.019c.005.004.012.007.014.012.008.02.016.04.022.06a.32.32 0 00.013.043l.006-.022.008-.011c.003.004.008.008.007.012a1.08 1.08 0 01-.005.061l-.005.016a.284.284 0 00.001.168.218.218 0 00.073.094c.004.004.01.007.013.012a.496.496 0 00.1.115.843.843 0 01-.037-.077 1.218 1.218 0 01-.044-.137 5.264 5.264 0 01-.058-.273c-.013-.069-.02-.138-.029-.208-.005-.039-.012-.077-.015-.116-.004-.042-.005-.085-.007-.127a.031.031 0 00-.025-.034c-.063-.02-.125-.04-.186-.065a1.293 1.293 0 01-.227-.112c-.045-.03-.093-.056-.14-.085-.028-.018-.055-.04-.082-.06-.03-.021-.06-.043-.087-.067-.025-.023-.048-.05-.071-.075a.138.138 0 00-.011-.014.226.226 0 01-.069-.094c-.007-.018-.012-.016-.025-.003a.83.83 0 01-.145.142.04.04 0 00-.011.014l-.04.07-.006-.004.01-.03-.003-.012-.01.002c-.022.01-.045.02-.067.032a.03.03 0 00-.016.036.194.194 0 01-.016.126.046.046 0 000 .028c.003.012.008.028-.005.032-.01.004-.025-.004-.037-.007l-.004-.006c-.025-.031-.025-.03.012-.047a.022.022 0 00.012-.01.17.17 0 00.018-.092c-.003-.017-.008-.019-.02-.007-.017.013-.032.028-.047.042l-.004.005.01.003c.011-.002.011.002.006.01a.053.053 0 01-.085.013.019.019 0 01-.004-.03.05.05 0 01.044-.024c.02 0 .04-.025.061-.038l-.008-.01c-.024 0-.05.004-.074.005a.083.083 0 01-.024-.002C.807 1.513.79 1.508.792 1.49c0-.017.017-.02.03-.024a.074.074 0 01.029-.003.037.037 0 01.018.01c.005.004.008.014.012.015a.17.17 0 00.04-.005v-.015a.143.143 0 00-.09-.057L.81 1.405v-.007l.02.01.003-.01-.033-.008-.081-.017C.707 1.37.7 1.366.708 1.354l.002-.01c-.018-.021.002-.021.014-.024a.094.094 0 01.062.003c.011.005.018.01.018.022 0 .015.007.021.021.024a.172.172 0 01.113.077c.003.004.009.007.013.01l.004-.014a.079.079 0 00-.088-.088c-.007 0-.016.007-.02.004a.022.022 0 010-.04.047.047 0 01.069.022.097.097 0 00.017.026l.017.002c.02-.015.042-.005.063-.008a.247.247 0 00.048-.01c.01-.004.01-.01 0-.013l-.05-.017-.054-.016C.944 1.3.937 1.292.943 1.279c.005-.012.001-.012-.01-.012l-.056-.002a.353.353 0 00-.147.002.191.191 0 01-.042.008c-.01.001-.018.005-.015.017.004.012-.004.016-.013.02a.078.078 0 01-.092-.027c-.01-.013-.009-.02.008-.02a.037.037 0 00.031-.013c.006-.008.014-.01.02.003l.008.007c.027-.004.053-.009.08-.015.01-.002.013-.009.003-.017a.085.085 0 00-.053-.023A.076.076 0 01.6 1.18a.094.094 0 01-.01-.024c.01-.002.02-.008.027-.006a.089.089 0 01.04.022.107.107 0 00.073.03v-.003c-.005-.01-.017-.02-.006-.032a.044.044 0 01.048.005c.015.02.027.04.04.06.005.007.011.014.016.014l.124-.002a.095.095 0 00.027-.009L.957 1.22a.682.682 0 01-.063-.035.741.741 0 01-.077-.062.024.024 0 00-.037-.003.419.419 0 01-.05.027l-.013.007a.04.04 0 01-.063-.002c-.008-.01-.02-.024-.017-.033.003-.017.021-.007.033-.008.013 0 .026-.004.035.01H.71l.061-.037-.009-.01c-.032 0-.06-.021-.095-.012-.021.006-.038-.01-.05-.029l.005-.016a.033.033 0 01.038 0 .494.494 0 00.071.039c.023.009.03 0 .024-.025a.08.08 0 00-.009-.023C.742 1.003.733 1 .731.995.727.982.708 1.017.71.988.71.978.702.968.7.958A.027.027 0 01.728.924l.045.002A.059.059 0 00.791.92L.783.906.777.893A.05.05 0 01.791.889a.158.158 0 01.084.018.155.155 0 00.057.013l.01-.003L.939.908.884.864a.346.346 0 01-.036-.03A.038.038 0 01.85.781.019.019 0 01.864.777c.02.004.038.007.046.03.003.01.016.016.023.024a.059.059 0 01.014.024A.063.063 0 00.991.9L1 .89A.172.172 0 00.998.85.021.021 0 00.982.836C.956.838.944.818.931.803.92.79.93.786.94.786.955.786.967.791.979.78L1 .788c.01.002.017.003.013.017-.002.01.003.021.004.032.001.023 0 .047.002.071a.036.036 0 00.007.02c.037.043.076.083.113.125l.123.145.012.008a.046.046 0 00.004-.014.52.52 0 00-.004-.086c-.008-.035-.024-.07-.031-.105-.007-.039-.03-.048-.064-.05a.135.135 0 01-.04-.01c-.013-.005-.02-.003-.023.01-.003.015-.015.02-.026.012a.183.183 0 01-.032-.037l.003-.01.067-.009-.02-.028c-.006-.01-.005-.016.008-.016.016 0 .029-.002.036.02.004.013.023.021.036.032l.005-.006a.086.086 0 00-.012-.022C1.16.859 1.135.83 1.11.805 1.093.788 1.093.79 1.08.81a.12.12 0 01-.03.027L1.038.835l.005-.01.007-.006c.004-.008.012-.016.012-.025 0-.004-.013-.01-.021-.012C1.013.772.985.766.958.756A.11.11 0 01.924.732L.921.712C.931.714.943.71.948.715a.207.207 0 00.114.05.04.04 0 00.013-.003l-.01-.01a.111.111 0 01-.07-.05C.985.688.99.681 1.006.679a.797.797 0 01.074-.005c.005 0 .013.008.016.015.007.012.01.026.017.039a.016.016 0 00.013.006l.007-.01a.103.103 0 00-.006-.085L1.125.637 1.123.603l.036.015c.003.001.005.008.004.012L1.15.735a.052.052 0 01-.003.02c-.013.022-.005.038.01.055.023.025.044.051.065.078.004.004.004.012.008.016a.07.07 0 00.026.02c.007.003.017-.006.026-.01a.103.103 0 00-.014-.02.108.108 0 00-.03-.022C1.212.862 1.21.838 1.198.821l.006-.012a.042.042 0 01.05.016.312.312 0 00.032.031l.025.03.01.015c.003.004.008.007.008.012.003.027.006.053.007.08a.082.082 0 01-.007.025.11.11 0 01-.01-.024C1.319.98 1.32.963 1.318.947c-.002-.017-.01-.02-.025-.01l-.012.01c-.012.007-.014.014-.008.029.01.028.016.059.024.088a.294.294 0 00.013.038l.012.006.004-.01.003-.023.004-.011a.045.045 0 01.006.013l.001.038.002.012.009-.01c.009-.024.02-.049.026-.074a.265.265 0 00-.005-.139.035.035 0 01-.002-.022.022.022 0 000-.013 3.997 3.997 0 00-.04-.115c0-.003-.01-.005-.015-.003a.153.153 0 01-.097.01c-.005-.002-.01-.007-.015-.01l.019-.004c.018-.002.036-.002.053-.005a.017.017 0 00.011-.011c0-.004-.005-.01-.01-.012A.247.247 0 011.2.669L1.196.666 1.19.643a.068.068 0 01.02.006c.02.014.038.03.058.043a.028.028 0 00.026 0 .031.031 0 00.002-.025A.041.041 0 001.26.63C1.247.63 1.235.611 1.226.598A.138.138 0 011.215.56l.04-.006a.078.078 0 01.054.019.032.032 0 01.015.038c0 .005-.004.01-.003.014.002.01.006.019.01.028.005-.005.013-.009.017-.015a.182.182 0 00.018-.043C1.37.575 1.38.57 1.399.578l.011.004c.013 0 .014.007.01.016a1.42 1.42 0 01-.04.06l-.017.021-.003.013a.016.016 0 00.014.005.051.051 0 00.022-.01L1.452.63l.015-.006.002.014a.33.33 0 01-.045.064.095.095 0 01-.048.014c-.019.003-.02.006-.014.023l.03.089.008.01a.018.018 0 00.013-.009.085.085 0 00.01-.065C1.415.74 1.418.736 1.445.73a.08.08 0 01.06.014c.013.007.008.047-.007.06-.013.013-.027.023-.045.007C1.443.8 1.437.806 1.43.817a.14.14 0 00-.016.12.262.262 0 01.003.065.356.356 0 01-.032.159.077.077 0 00-.004.016.06.06 0 00.019 0 .347.347 0 00.188-.156.226.226 0 00.018-.048.023.023 0 00-.017-.028C1.576.94 1.562.939 1.549.934a.803.803 0 01-.066-.032.037.037 0 01-.013-.017l.002-.012a.018.018 0 01.014.001l.062.041.012.004-.002-.012a2.022 2.022 0 00-.032-.064C1.52.833 1.519.824 1.533.82h.002l.017-.014a.281.281 0 01.03.032c.004.005.005.011.008.016L1.6.86l.002-.01A.48.48 0 011.6.798a.03.03 0 01.013-.023.035.035 0 01.042.005c.022.023.044.045.022.08l.003.015.015-.005c.007-.008.012-.018.02-.025a.025.025 0 01.02-.006.019.019 0 01.008.016.134.134 0 01-.019.04.373.373 0 01-.034.035l-.004.008h.01A2.02 2.02 0 001.752.9c.005-.004.01-.01.016-.012a.025.025 0 01.02.006c.008.01-.002.038-.013.045a.171.171 0 01-.084.026.04.04 0 00-.038.028.351.351 0 01-.14.154c-.044.026-.092.043-.137.066a.168.168 0 00-.042.04l.004.018a.503.503 0 00.077.081.63.63 0 01.062.063c.035.033.071.065.108.097l.05.039c.01.01.015.004.017-.007a.053.053 0 01.004-.015l.012-.006a.057.057 0 00.065-.017c.01-.012.01-.024-.005-.03-.037-.013-.07-.04-.113-.03h-.007l-.034-.01c.005-.014.01-.029.017-.043h.01c.006.02.016.019.03.01h.015l.049.012h.01l-.005-.01-.023-.022a.026.026 0 01-.006-.015c0-.025-.013-.035-.037-.03a.098.098 0 01-.033.004c-.02-.003-.024-.015-.013-.03l.013-.016c.008-.008.013-.009.022 0 .02.02.04.035.07.021.007-.003.016.002.024.003a.142.142 0 00.02.004.077.077 0 00.017-.004l-.012-.01c-.015-.014-.032-.025-.047-.039-.01-.01-.02-.016-.034-.007-.01.007-.012 0-.018-.007-.021-.032 0-.056.013-.081.006-.011.016-.012.027-.003a.244.244 0 00.03.022.02.02 0 01.002.035c-.016.015-.017.018.001.03l.057.032c.01.005.017 0 .016-.01a.168.168 0 00-.038-.107.058.058 0 01-.015-.024c-.001-.006.002-.018.006-.02a.033.033 0 01.027 0 .08.08 0 01.034.071.288.288 0 00.01.078c.004.011.014.006.017-.001a.152.152 0 00.02-.084.032.032 0 01.038-.032.04.04 0 01.026.017.024.024 0 01-.017.03c-.02.008-.024.023-.032.039a.476.476 0 01-.025.042c-.012.02-.008.03.015.033a.554.554 0 00.236-.011.048.048 0 00.012-.008l-.009-.01c-.039-.035-.079-.07-.117-.106-.018-.018-.031-.042-.049-.062a.17.17 0 00-.038-.03c-.021-.013-.044-.025-.066-.037-.022-.011-.044-.022-.064-.035a.065.065 0 01-.022-.028c-.002-.005.005-.017.01-.02s.016.003.023.007l.097.06.008.003v-.01a3.394 3.394 0 00-.05-.084.036.036 0 00-.014-.01c-.016-.01-.014-.024-.01-.038a.024.024 0 01.027-.02.027.027 0 01.022.039c-.014.035.012.053.028.075.012.019.026.036.04.053l.006.01.007-.012a.195.195 0 00-.003-.113.29.29 0 00-.023-.058c-.008-.017 0-.032.018-.031.03 0 .042 0 .035.035a.066.066 0 00.002.02l.014.1c.002.007.01.013.015.02a.075.075 0 00.014-.014.034.034 0 00-.003-.043.12.12 0 01-.024-.08c0-.019.008-.025.027-.02a.168.168 0 01.045.022.53.53 0 00.094.037l.008-.003-.004-.008-.043-.04a.24.24 0 01-.022-.023.097.097 0 00-.046-.035C2.03.815 2.023.807 2.024.803a.02.02 0 01.012-.014.134.134 0 01.04-.007c.004 0 .013.014.012.016-.014.018.002.028.011.038.017.018.036.034.054.05l.008.004V.882a.363.363 0 00-.009-.046.038.038 0 00-.016-.019c-.016-.01-.02-.02-.013-.035A.024.024 0 012.16.774a.04.04 0 01.02.037.272.272 0 00.016.067l.011-.004c.01-.025.02-.05.028-.076l.01-.03c.003-.014.01-.028-.01-.037l-.003-.01a.039.039 0 01.052-.019.022.022 0 01-.006.039c-.015.006-.017.017-.02.03l-.031.108-.004.011a.179.179 0 00.001.02.055.055 0 00.02-.006.306.306 0 00.077-.107C2.325.79 2.32.78 2.32.774c0-.008 0-.02.003-.022a.115.115 0 01.042-.01c.008 0 .021.008.021.014a.026.026 0 01-.022.029c-.017 0-.022.01-.029.023-.01.019-.024.036-.036.055a.079.079 0 00-.006.02L2.31.88l.015-.004c.016-.002.025.008.018.022-.024.041.007.066.026.094.007.01.018.008.02-.005a.627.627 0 00.003-.072c0-.005-.008-.01-.012-.016-.004-.005-.01-.013-.01-.017.003-.006.012-.011.018-.015.005-.003.012-.002.017-.005.01-.005.013-.012.002-.02-.014-.012-.012-.023.005-.029.032-.012.044-.002.048.032 0 .01.012.02.02.028a.098.098 0 00.027.012l-.003-.03A.41.41 0 002.492.8a.146.146 0 00-.018-.027c-.004-.006-.01-.015-.01-.02a.028.028 0 01.02-.013.105.105 0 01.035-.003c.021.002.025.008.014.026a.098.098 0 00-.009.083.502.502 0 00.02.054l.005.003.006-.006A.264.264 0 002.56.859c0-.023.012-.045.003-.07-.005-.012.01-.02.04-.026.014-.004.02.005.023.015.004.012-.016.031-.032.027C2.58.802 2.58.808 2.58.82l.001.065c0 .013.004.02.018.013.027-.016.055-.031.081-.048.007-.004.008-.017.012-.025s.007-.02.014-.023a.082.082 0 01.04-.005.016.016 0 01.012.024c-.003.007-.01.017-.015.018-.028.002-.038.025-.054.041a.303.303 0 01-.1.06.077.077 0 00-.04.048l-.012.036c-.004.01 0 .015.01.013A.042.042 0 002.58 1c.003-.015.01-.022.025-.022.007 0 .014-.006.021-.007a.022.022 0 01.017.006.019.019 0 010 .017c-.01.013-.02.031-.042.017-.002-.002-.014.004-.015.008a.1.1 0 01-.058.06.075.075 0 00-.024.022 1 1 0 01-.06.088.554.554 0 01-.07.06l-.082.067-.006.01.01.005a.397.397 0 00.236-.038.443.443 0 00.144-.11.037.037 0 00.008-.026.526.526 0 010-.16.03.03 0 00-.013-.034c-.014-.008-.008-.02 0-.028A.073.073 0 012.736.92c.012.001.018.028.006.038a.19.19 0 00-.043.128.027.027 0 00.001.015.13.13 0 00.014.019c.005-.005.012-.01.014-.016l.03-.095c.004-.015.045-.033.058-.024L2.818 1c-.008.007-.019.017-.026.016-.018-.003-.02.007-.022.018l-.015.085a.019.019 0 00.008.016.087.087 0 00.039.005c.038-.008.072-.021.083-.065.006-.022.017-.024.036-.013a.047.047 0 00.025.004c.01-.001.016.003.015.013 0 .029-.014.05-.045.037-.016-.006-.025 0-.038.01a.518.518 0 01-.07.038l-.014.008.01.01a.132.132 0 00.11.013l.009-.009c.007-.018.014-.01.021 0 .008.01.017.021.023.033.003.004.004.014.002.016-.01.006-.021.015-.031.014-.01 0-.028.002-.03-.018l-.01-.003a.153.153 0 01-.15-.045l-.014.002-.07.079c-.017.02-.016.03.005.044l.008.004.014.028c-.01.003-.02.01-.028.009-.02-.004-.023.004-.023.02l-.002.04a.065.065 0 00.004.017.052.052 0 00.016-.006.162.162 0 00.067-.134c0-.023.003-.027.026-.022.014.003.033.005.038.014.008.014-.01.024-.02.033l-.005.01a.182.182 0 01-.076.114.075.075 0 00-.012.015.087.087 0 00.02.003.284.284 0 00.117-.029.051.051 0 00.014-.015l.008-.015c.005.004.013.007.015.012a.034.034 0 010 .02l-.01.008-.126.039-.011.005.007.01a.091.091 0 00.083.027l.055-.009.007.005a.155.155 0 010 .043.03.03 0 01-.018.02c-.015.003-.016-.011-.015-.022 0-.01 0-.018-.012-.015a.203.203 0 01-.16-.046.047.047 0 00-.05-.005.33.33 0 01-.319-.03c-.014-.009-.026-.02-.04-.03a.093.093 0 00-.017-.007.073.073 0 00-.002.02.828.828 0 00.013.067.557.557 0 01.013.157c-.001.032 0 .063-.002.095-.001.032-.007.064-.008.097a1.395 1.395 0 000 .142c.004.046.013.091.02.137l.024.165.023.12c.01.052.021.103.034.155.009.038.023.075.032.113a.464.464 0 00.058.13.22.22 0 01.029.09.046.046 0 00.01.023c.027.03.052.06.08.087.03.03.06.057.091.084l.062.055a.353.353 0 00.035.025l.012.002v-.01l-.01-.023-.046-.1-.03-.066-.051-.138c-.012-.032-.024-.063-.034-.096a.51.51 0 01-.022-.187c.002-.031.007-.062.008-.093a.193.193 0 00-.008-.042.452.452 0 00-.016-.077.267.267 0 00-.102-.123.361.361 0 01-.05-.048l-.001-.01.014.003.04.035a.055.055 0 00.018.006.101.101 0 00-.007-.017l-.057-.084a.07.07 0 01-.01-.02c-.001-.005 0-.014.002-.015a.019.019 0 01.016.001.117.117 0 01.019.026c.012.02.022.042.035.062.018.027.037.053.057.078l.056.07.006.006.003-.008a.374.374 0 00.004-.067c-.005-.052-.014-.103-.021-.155a.128.128 0 00-.06-.083c-.039-.031-.074-.066-.11-.1-.005-.006-.007-.022-.004-.025a.02.02 0 01.03.002c.013.015.025.03.04.044a.286.286 0 00.03.025c-.004-.012-.008-.023-.014-.034-.011-.021-.025-.041-.036-.063a.1.1 0 01-.006-.026.086.086 0 01.032.011.269.269 0 01.03.042l.068.099c.01.014.017.03.028.048a.319.319 0 00-.019-.128.894.894 0 01-.024-.073c-.002-.006.003-.013.005-.02.007.004.017.005.019.01a.82.82 0 01.033.095.405.405 0 01.006.069h.006l.01-.093.007-.045.004-.007.006.006a.127.127 0 01.014.088.76.76 0 01-.033.15.27.27 0 00-.01.12l.004.006.006-.006a.203.203 0 00.033-.105c.003-.014.002-.028.004-.042a.05.05 0 01.009-.015.067.067 0 01.01.012.136.136 0 01.002.105l-.004.023a.085.085 0 00.022-.012c.015-.015.027-.032.041-.048l.009-.006.004.011a.098.098 0 01-.046.064l-.008.005c-.05.018-.064.064-.084.104a.144.144 0 00-.009.047l-.008.092a.04.04 0 00.003.012l.007-.003c.02-.023.039-.045.056-.069a.416.416 0 00.027-.05l.005-.01.016-.01a.052.052 0 01.002.018l-.017.054a.077.077 0 00-.001.016.061.061 0 00.012-.011c.015-.024.03-.048.043-.072l.022-.047a.29.29 0 00.014-.118v-.034a.062.062 0 00-.002-.025l-.045-.085a.153.153 0 01-.015-.09c0-.006.007-.01.01-.016.004.004.009.008.01.013l.012.054c.002.012.004.024.008.036.001.005.007.008.01.012a.064.064 0 00.008-.015c.002-.008 0-.017.003-.024a.851.851 0 01.024-.066l.015-.007a.05.05 0 01.002.014.161.161 0 01-.006.026.373.373 0 00-.002.161.2.2 0 00.011.038l.006.007.005-.006.017-.068c.005-.025.01-.05.017-.073 0-.005.007-.008.01-.012.003.004.007.008.007.013a.37.37 0 01-.06.218.41.41 0 00-.032.057l-.031.06-.003.014.01-.007.045-.042a.118.118 0 00.041-.068c.001-.006.008-.01.013-.016a.096.096 0 01.008.019.05.05 0 01-.002.016l-.002.018a.058.058 0 00.02-.004c.02-.012.04-.026.06-.04l.01-.01a.123.123 0 01.019-.006.055.055 0 01-.006.018.544.544 0 01-.105.095.083.083 0 01-.063.026c-.004 0-.011.015-.015.024l.002.014a.054.054 0 00.019-.004c.043-.027.085-.056.127-.084a.096.096 0 01.02-.008c-.003.007-.003.016-.007.02a.378.378 0 01-.044.041.603.603 0 01-.1.078.57.57 0 00-.114.068.192.192 0 00-.077.11.307.307 0 01-.013.056.164.164 0 00.006.108.911.911 0 00.067.185c.018.034.031.07.049.104a.264.264 0 00.033.046c.02.024.04.05.061.072a.792.792 0 01.11.158.534.534 0 01.03.082l.046.123a.066.066 0 00.017.02c.03.029.061.056.089.087.059.066.114.134.172.201.03.035.064.067.095.1a.146.146 0 01.014.02.327.327 0 00.021.033l.149.174a.21.21 0 00.032.028l.012-.002-.004-.007a.345.345 0 01-.09-.144.512.512 0 00-.075-.126l-.128-.183-.045-.063a1.11 1.11 0 01-.036-.057v-.011l.012-.001a.095.095 0 01.02.017l.073.084a.11.11 0 00.02.014.193.193 0 00-.007-.022.813.813 0 00-.04-.086.451.451 0 00-.05-.064c-.035-.04-.071-.078-.105-.12a.419.419 0 01-.04-.069c-.002-.005 0-.012 0-.018.006.002.013.003.017.007.019.02.037.042.055.063l.064.076.01.008v-.012l-.059-.125-.049-.102c-.007-.017-.013-.035-.021-.051l-.035-.068-.014-.031.023.02.06.059a.289.289 0 01.022.028c.006.007.009.017.016.022a.217.217 0 01.06.08.436.436 0 01.028.084c.008.024.018.047.027.071l.026.072.035.11.003.009.018.021v-.023c0-.022 0-.043.003-.064a.366.366 0 00-.04-.17 6.996 6.996 0 01-.065-.183c-.003-.007.002-.016.004-.024l.026.01.002.004c.024.04.05.077.072.117a.245.245 0 01.024.061l.033.15.003.015.007.008.007-.008c.006-.021.01-.044.017-.065a.327.327 0 00-.01-.166.124.124 0 01-.005-.03c0-.007.006-.013.009-.02a.08.08 0 01.018.012c.004.004.004.01.007.016a.277.277 0 01.035.122c0 .019.003.037.005.056l.002.009.008-.003a.477.477 0 00.092-.13.113.113 0 00.007-.047c-.001-.03-.008-.058-.008-.087a.073.073 0 01.016-.04c.007-.01.018-.003.02.007a.472.472 0 01.019.097.473.473 0 01-.016.09.1.1 0 000 .015l.015-.004a4.18 4.18 0 00.079-.08.228.228 0 01.017-.021.048.048 0 01.018-.005c0 .006.004.014 0 .018a.505.505 0 01-.065.088.153.153 0 01-.091.053.022.022 0 00-.012.009.547.547 0 00-.102.188.027.027 0 01-.013.016c-.031.013-.032.043-.035.068a.555.555 0 00-.002.1.12.12 0 00.014.047c.029.054.06.108.088.163a.044.044 0 01.006.017.144.144 0 00.051.097.685.685 0 01.046.053l.008.005v-.01c-.014-.047-.032-.093-.042-.14-.01-.045-.008-.09-.015-.135a2.43 2.43 0 00-.03-.153c-.008-.034-.019-.067-.027-.1-.001-.008.003-.016.005-.023.006.004.015.007.018.014a.388.388 0 01.068.177l.005.009.006-.009a.384.384 0 00.038-.195.18.18 0 01.001-.032.019.019 0 01.008-.012l.01.006a.174.174 0 01.033.107.361.361 0 01-.024.13.46.46 0 00-.042.205l-.001.008c-.02.014-.01.03-.005.046l.014.05a.203.203 0 00.046.078.054.054 0 01.015.027.057.057 0 00.028.043c.027.018.053.038.08.057l.01.004-.002-.012a.421.421 0 01-.04-.175.275.275 0 00-.023-.078.449.449 0 01-.036-.169c0-.012.007-.034.012-.034.02 0 .019.02.022.033.005.019.007.039.013.058a.246.246 0 00.019.04l.008.006.005-.009.013-.096a.273.273 0 01.006-.038.16.16 0 00-.016-.094l-.018-.06c-.002-.006.002-.014.004-.02.007.004.02.006.021.012l.033.129.01.036a.225.225 0 00.01-.035l.004-.068c0-.007 0-.015.013-.013l.01-.011a.297.297 0 00-.008-.058.329.329 0 01-.01-.125l.005-.01.022-.021a.14.14 0 01.005.025.253.253 0 00.023.092c.007.016.012.016.024.002l.105-.114.016-.006c0 .005.003.011 0 .016a.314.314 0 01-.07.105.214.214 0 00-.073.136.347.347 0 01-.018.075l-.045.144a.808.808 0 00-.018.09.593.593 0 00-.01.086.217.217 0 00.093.2.329.329 0 00.084.028l.007-.01a.294.294 0 00-.066-.148.118.118 0 01-.024-.076v-.027a.056.056 0 01.006-.015c.004.004.01.007.012.011.012.022.022.045.034.066a.085.085 0 00.017.017.105.105 0 00.008-.022.346.346 0 00-.027-.157c-.007-.021-.015-.042.005-.063.01-.012.014-.01.021.001a.281.281 0 01.042.132.159.159 0 00.006.024.094.094 0 00.018-.021.386.386 0 00.02-.134A.078.078 0 014.191 4c.004-.008.013-.013.02-.02.004.007.012.014.011.021a1.586 1.586 0 01-.008.11.347.347 0 01-.048.134.137.137 0 00-.016.098c.005.021.007.042.011.063a.223.223 0 00.063.108l.01.01c.01.038.046.055.07.082.03.032.064.06.096.09a.64.64 0 01.049.053c.01.014.032.018.034.04l.003.01-.002.022a.058.058 0 01-.02-.005 2.454 2.454 0 01-.07-.052l-.124-.092-.029-.025c-.03-.024-.058-.048-.089-.069a.558.558 0 00-.056-.027l-.131-.071c-.019-.01-.036-.023-.054-.034a.303.303 0 00-.13-.052.282.282 0 01-.123-.038.049.049 0 00-.066.003.03.03 0 01-.035.006c-.008-.003-.018.002-.027.001a.056.056 0 01-.017-.01c.004-.005.008-.012.013-.014.012-.005.026-.007.04-.01l.01-.008-.01-.008-.15-.043c-.02-.006-.042-.011-.062-.018-.005-.002-.008-.01-.012-.015l.016-.004c.014-.001.028 0 .043-.002a.342.342 0 01.196.059l.01.006.075.027.008.004zm-.825-1.006l.003-.005-.071-.05c-.04-.026-.08-.052-.118-.08a2.329 2.329 0 01-.12-.094c-.03-.024-.057-.053-.085-.078-.016-.015-.035-.01-.04.01a.267.267 0 01-.04.102v.01l.01-.001c.015-.013.035-.025.04-.042.009-.026.034-.027.049-.042l.01.001v.01c-.006.016-.015.032-.034.032-.016 0-.02.009-.026.02a.114.114 0 01-.094.068.053.053 0 00-.028.017c-.02.02-.041.039-.06.06a.372.372 0 00-.029.04l.037.016.008.003.1.033.004.002c.034.009.067.02.102.026.044.008.09.01.134.02.063.015.126.036.189.054.024.008.049.013.073.023a.575.575 0 01.052.027l.016.005a.062.062 0 000-.018 1.053 1.053 0 00-.026-.07.26.26 0 00-.056-.1zM2.1 1.486l.049-.069.003-.012a.046.046 0 00-.014.003l-.05.03a.46.46 0 01-.243.07.02.02 0 00-.023.017c-.005.017-.014.032-.021.049a.022.022 0 00-.003.015.024.024 0 01-.019.034c-.014.001-.027-.014-.023-.025a.492.492 0 00.013-.043.157.157 0 00.003-.024.13.13 0 00-.03.008c-.006.003-.009.011-.013.017a.09.09 0 01-.018.023c-.013.008-.011.014 0 .021l.016.011c.031.017.063.032.094.05.03.015.057.035.087.047.068.029.137.054.206.08l.062.023c.013.005.018 0 .019-.014a1.453 1.453 0 00.006-.262c-.004-.033-.01-.065-.015-.098l-.005-.012-.01.01a.323.323 0 01-.035.038 2.553 2.553 0 01-.101.076c-.012.009-.019.016-.009.032a.117.117 0 01.009.03c.009.03-.006.062.006.092a.02.02 0 01-.01.018.042.042 0 01-.025-.003c-.002 0-.001-.012 0-.018.002-.008.008-.015.01-.023a.099.099 0 00-.007-.08c-.004-.009-.008-.01-.014 0l-.05.074a.045.045 0 01-.014.016.041.041 0 01-.022.003c-.004 0-.008-.007-.011-.01l.014-.015c.013-.016.027-.032.038-.049.003-.004.002-.012.002-.019l-.017.004c-.023.004-.045.01-.068.013l-.011-.006.009-.011a.14.14 0 01.017-.004l.06-.02.008-.008-.01-.006-.074-.016a.113.113 0 01-.02-.009c.005-.004.01-.011.018-.012a.203.203 0 01.101.015.064.064 0 00.056-.002l.079-.05zM1.01.968C.987.939.977.94.963.97a.041.041 0 01-.03.024.041.041 0 00-.02.01.017.017 0 01-.028 0C.874.988.87.997.865 1.005l-.023.036-.01.017c.007.003.015.01.021.01a.189.189 0 00.053-.01.187.187 0 00.04-.026l.032-.024.011.04v.003c.003.016-.006.017-.018.017a.114.114 0 00-.03.003.74.74 0 00-.055.016.141.141 0 00-.02.01c.005.006.008.015.014.019.04.026.08.052.122.076a.109.109 0 00.056.015c.046-.003.091-.01.137-.017l.005-.009-.036-.04-.046-.053-.04-.05L1.01.969zm1.602.491a.182.182 0 00.006-.027c.003-.037.004-.075.008-.113.002-.018-.005-.015-.015-.01-.03.014-.058.03-.087.044a.164.164 0 01-.046.018c-.04.006-.082.01-.123.013a.586.586 0 01-.068-.005.045.045 0 00-.012.003l.006.011a.519.519 0 00.066.052.255.255 0 00.201.033l.064-.019zm-.32-.538C2.287.918 2.276.907 2.269.91a.219.219 0 00-.05.028c-.002.002-.003.01-.002.014l.008.06a.733.733 0 01.007.234c0 .006.001.017.004.018a.029.029 0 00.023-.002.18.18 0 00.046-.05c.024-.051.042-.104.06-.157a.026.026 0 00-.001-.02.37.37 0 01-.063-.1zM2.05 3.443a.244.244 0 00.065-.11.064.064 0 00.001-.021l-.021.004a.41.41 0 01-.19.04.031.031 0 00-.017.005c-.025.012-.05.026-.075.04-.012.006-.006.013.002.018l.061.038a.116.116 0 01.03.026.026.026 0 00.03.013.26.26 0 00.114-.053zm-.245-.17c-.02.008-.01.015 0 .02.031.015.055.046.094.045a.207.207 0 00.055 0c.04-.012.08-.03.12-.047.005-.002.009-.009.013-.013a.069.069 0 00-.016-.011c-.049-.017-.1-.03-.147-.05-.039-.016-.064.01-.095.02-.016.005-.017.018-.02.03zm.334-1.9l.008-.016a.134.134 0 00-.014.001l-.03.005a.573.573 0 01-.198.011.116.116 0 00-.055.004c-.013.005-.021.01-.022.022a.62.62 0 00.002.066l.01.003a.225.225 0 00.157-.016c.05-.022.095-.053.142-.08zm-.151-.218h-.001c.028.028.055.057.085.084a.64.64 0 00.074.055c.005.003.016-.002.025-.003a.119.119 0 00-.006-.02l-.065-.12c-.017-.032-.025-.073-.072-.075l-.006-.003c-.017-.021-.033-.015-.053-.002-.012.007-.006.018-.01.024-.011.02.003.028.011.039zm.172.065l.023.024c.012.013.017.006.018-.007l.005-.058A.55.55 0 002.184.96C2.182.956 2.176.953 2.172.95c-.003.003-.008.006-.009.01a.505.505 0 01-.015.056.334.334 0 01-.036.067.037.037 0 00-.01.034.259.259 0 00.058.103zm.07 2.033a.359.359 0 00.039-.034.052.052 0 00.013-.031c0-.041-.005-.082-.007-.122a.029.029 0 00-.024-.031c-.012-.003-.016-.008-.01-.021l-.004-.016c-.004.004-.012.007-.012.011q-.015.078-.027.156c-.005.03-.009.06-.011.09a.059.059 0 00.006.02.11.11 0 00.02-.007.135.135 0 00.017-.015zm-.178-.062l.003-.003c-.028-.024-.057-.047-.083-.073a.1.1 0 00-.089-.033c-.022.003-.045 0-.068.002-.007 0-.015.008-.022.012a.133.133 0 00.018.012.257.257 0 01.077.049.102.102 0 00.039.023l.124.041a.234.234 0 00.026.005l-.014-.023zM2.41 1.17c.018-.023.04-.047.058-.073.015-.023.012-.028-.013-.036l-.023-.008c-.036-.012-.045-.02-.051.025l-.003.008-.04.118v.01l.009-.002zm-.028 1.842l-.001-.002.018-.007-.004.02-.007.012a.039.039 0 00-.01.05.087.087 0 01.004.022l.016-.024.002-.006c.008-.035 0-.075.03-.103l-.002-.016c-.005.003-.013.004-.015.009-.014.029-.015.03-.046.021A.063.063 0 002.314 3l-.001.012c.014.018.014.022-.003.038a.025.025 0 00-.009.016.995.995 0 00.01.072l.008.01.01-.008.022-.082c.004-.014-.003-.036.022-.039zm-.28-1.962a.18.18 0 00.042-.084.018.018 0 00-.01-.014.325.325 0 01-.105-.035H2.01a.068.068 0 00.005.017.423.423 0 01.057.106c.005.018.018.02.03.01zm-.96.34l-.001-.004.028-.03.046-.049.003-.01-.01.003a.4.4 0 01-.096.053.043.043 0 00-.02.02.123.123 0 01-.08.067c-.007.003-.017-.002-.025-.003a.126.126 0 01.016-.018c.01-.008.023-.014.034-.021l.004-.012-.01-.002a.517.517 0 00-.04.005c-.013.003-.022.01-.02.024.003.017.01.033.013.05.003.013.01.013.02.008.015-.008.03-.015.044-.024.018-.013.043-.02.047-.048l.009-.002zm-.126-.099l.01.004.093.027.013-.001q.025-.02.048-.041l.004-.012-.011-.004a.37.37 0 01-.058-.009.187.187 0 00-.133.009.35.35 0 01.035.004.156.156 0 01.024.01zM2.461.98c.024-.017.031-.038.024-.056-.007-.015-.026-.025-.04-.038L2.44.886c-.01.01-.026.02-.03.032a.347.347 0 00-.007.074l.01.01.05-.023zM.854.954L.831.944.809.938.8.935a.067.067 0 00-.002.012l.002.04a.207.207 0 00.004.036.022.022 0 00.012.014.02.02 0 00.017-.008C.84 1.017.845 1.002.854.99.865.977.863.968.854.954zm1.65.088L2.537.95C2.54.947 2.531.938 2.526.935c-.004-.001-.012.003-.016.007A.043.043 0 002.5.961a.066.066 0 01-.031.044.214.214 0 00-.027.022l.033.011a.206.206 0 00.027.004zm-.735.377c.02.018.03.017.037-.005a.265.265 0 00.01-.048c0-.004-.005-.01-.008-.015a.249.249 0 00-.041.036c-.005.007 0 .021.002.032zm-.554-.18l.01-.022a.067.067 0 00-.023-.007c-.028.002-.056.006-.085.01l-.01.005c.003.003.006.008.01.009l.08.01a.065.065 0 00.018-.004zm1.38 1.398l.006-.015.02-.075a.067.067 0 00.002-.017l-.006-.008-.009.005a.197.197 0 00-.019.103zM.918.973C.925.963.932.958.937.952a.199.199 0 00.012-.02H.927a.057.057 0 00-.018 0C.903.934.894.939.893.944a.163.163 0 00.004.034z"/></svg>