<svg height="100" width="100" xmlns="http://www.w3.org/2000/svg" viewBox="0 0 60 64"><path d="M30.583 17.473h0c-.519 6.481-6.274 12.149-12.855 12.659h0C7.733 30.908.269 23.558 1.057 13.716l.939-11.735 11.916-.925C23.907.28 31.371 7.63 30.583 17.473zM45.767 26.499h0c-5.206-.404-9.759-4.888-10.169-10.014h0c-.623-7.786 5.281-13.6 13.187-12.986l9.426.732.743 9.282c.624 7.785-5.28 13.599-13.187 12.986zM19.646 35.374h0c3.681.941 6.368 4.725 6.001 8.453h0c-.557 5.661-5.541 9.092-11.131 7.664l-6.665-1.703.664-6.749c.557-5.663 5.541-9.094 11.131-7.665zM38.399 43.272h0c-1.202-3.553.559-7.832 3.934-9.558h0c5.126-2.621 10.761-.372 12.588 5.024l2.177 6.433-6.111 3.125c-5.126 2.621-10.762.372-12.588-5.024zM51 11s-14.368 5.199-20.383 29.707M51 43s-12.528-9.644-19.655.993M14 44c4.994-5.552 16-9.558 17.729 1.994M10 11s23 8.252 23 52M25.484 26.895S20.818 18.963 22 10" fill="none" stroke="#000" stroke-width="2" stroke-linecap="round" stroke-miterlimit="10"/></svg>