<svg height="100" width="100" xmlns="http://www.w3.org/2000/svg" data-name="Layer 1"><path d="M70.11 41.49l-.25-.15.67-1.08c3.43-5.51 4.32-7.33 3.95-8.13a.77.77 0 00-.6-.44 6.89 6.89 0 00-2.11.25c-.93.2-2.33.49-2.73.16 0 0-.13-.1-.13-.4v-.85c.08-3 .28-10-4.37-11s-7.45 5.37-8.64 8.1c-.13.31-.25.57-.35.78s-.24.29-.28.3c-.51.13-1.65-.74-2.41-1.31a6.87 6.87 0 00-1.8-1.13.77.77 0 00-.73.15.9.9 0 00-.21.27c0-1.13-.17-1.7-.48-2a.77.77 0 00-.73-.15A6.88 6.88 0 0047.13 26c-.76.57-1.9 1.43-2.41 1.3 0 0-.16 0-.28-.3s-.21-.47-.34-.78c-1.19-2.74-4-9.16-8.62-8.13s-4.48 8-4.4 11v.85c0 .23-.1.37-.13.39-.41.33-1.81 0-2.73-.16a6.93 6.93 0 00-2.11-.26.77.77 0 00-.6.44c-.37.8.51 2.63 3.93 8.14l.67 1.08-.25.15c-1.06.76-1.67 2.67-.62 5.23.34.84.76 1.76 1.17 2.65A23.41 23.41 0 0132 51.72a1.32 1.32 0 00-1.68.31c-1.1 1.42.5 6 3.49 10 3.62 4.83 12 11.11 13.43 12.12l1.27 5.74a.59.59 0 00.57.46h.13a.59.59 0 00.45-.7l-1.27-5.74c.19-.35.6-1.1 1.14-2.14.94 1.89 1.71 3.32 2 3.82l-1.28 5.74a.59.59 0 00.45.7h.13a.59.59 0 00.57-.46l1.28-5.73c1.38-1 9.83-7.27 13.46-12.09 3-4 4.61-8.54 3.52-10a1.32 1.32 0 00-1.66-.32 23.45 23.45 0 011.63-4.09c.41-.89.83-1.81 1.18-2.65.96-2.53.36-4.44-.7-5.2zm-20.58-7.4c.17-1.41.3-2.59.4-3.61.09 1.29.26 3 .52 5.23a2.44 2.44 0 00-.78-.32h-.29c.04-.39.1-.86.15-1.31zm-4.71 23.6c2.94-1 4-4.4 4-4.55a.59.59 0 00-1.13-.34s-.88 2.83-3.15 3.72l-1.73-7.85c2.94-1 4-4.4 4-4.55a.59.59 0 00-1.13-.34s-.88 2.83-3.15 3.72l-1.73-7.85c2.94-1 4-4.4 4-4.55a.59.59 0 00-1.13-.34s-.88 2.83-3.15 3.72L38 26.62a.59.59 0 00-1.15.25l2.62 11.88c-2.43.15-4.4-2-4.42-2a.59.59 0 00-.88.78 7.53 7.53 0 005 2.46h.52l1.73 7.85c-2.43.15-4.4-2-4.42-2a.59.59 0 00-.88.78 7.53 7.53 0 005 2.46h.52l1.73 7.85c-2.43.15-4.4-2-4.42-2a.59.59 0 00-.88.78 7.53 7.53 0 005 2.46h.52l3.18 14.41c-2.72-2.07-9.16-7.15-12.1-11.06-3.4-4.53-3.95-8.21-3.5-8.55a.73.73 0 01.26.07 1.18 1.18 0 001.39-.12c.71-.73 0-2.32-1.45-5.54-.4-.88-.82-1.79-1.15-2.6-.86-2.11-.27-3.23-.07-3.53s.43-.39.4-.42a.65.65 0 00.81 0c.43-.37.43-.37-1-2.73-1-1.56-3.39-5.47-3.78-6.79.36 0 .84.14 1.32.24 1.41.3 2.87.61 3.72-.07a1.6 1.6 0 00.65-1.48v-.88c-.07-2.92-.23-9 3.48-9.82s6.1 4.7 7.25 7.41c.14.32.26.59.36.81a1.6 1.6 0 001.06 1c1.06.26 2.25-.63 3.4-1.5.39-.29.78-.59 1.09-.77.2 1.36-.35 5.93-.57 7.75-.33 2.76-.33 2.76.21 2.91a.56.56 0 00.68-.31.79.79 0 01.59.15 2.56 2.56 0 01.88 1 4.46 4.46 0 01.36 1v.15c0 .13.05.26.08.39s.06.43.07.68 0 .45 0 .68v2.17a21.6 21.6 0 00.28 4.62 1.34 1.34 0 00.74 1 1.18 1.18 0 001.31-.48.56.56 0 01.24-.18c.17 0 .39.41.58 1.08a18.16 18.16 0 01-.05 8.14c-.09.41-.2.84-.32 1.29l-.14.47c-.1.32-.2.65-.31 1s-.19.57-.3.86-.21.58-.32.87l-.35.91-.17.43C52 63.88 51.48 65 51 66l-.07.15c-.48 1.05-1 2.06-1.42 3l-.23.47c-.5 1-.94 1.85-1.29 2.51zm5.38 12.73a74.45 74.45 0 004.86-11.62v-.12c.14-.51.27-1 .37-1.47a22 22 0 00.38-7.51 5.2 5.2 0 001.29.67l-5.2 23.41c-.44-.84-1.04-2.01-1.7-3.36zm19.43-24.15c-.33.82-.75 1.72-1.16 2.6-1.47 3.22-2.16 4.8-1.47 5.53a1.18 1.18 0 001.39.12.57.57 0 01.29-.06c.45.34-.11 4-3.52 8.55-2.95 3.91-9.4 9-12.13 11l3.22-14.4h.53a7.54 7.54 0 005-2.45.59.59 0 00-.88-.78s-2 2.2-4.43 2l1.75-7.85h.53a7.54 7.54 0 005-2.45.59.59 0 10-.88-.78s-2 2.2-4.43 2l1.75-7.85h.53a7.53 7.53 0 005-2.45.59.59 0 00-.88-.78s-2 2.2-4.43 2l2.65-11.87a.59.59 0 00-1.15-.26l-2.5 12.11c-2.27-.89-3.13-3.7-3.14-3.73a.59.59 0 00-1.13.33c0 .15 1.07 3.53 4 4.56l-1.75 7.85c-2.27-.89-3.13-3.7-3.14-3.73a.59.59 0 00-1.13.33 7.42 7.42 0 00.32.83 1.74 1.74 0 00-.67.47 12 12 0 01-.23-2.54v-1.85c0-1 0-2-.05-2.9a7.74 7.74 0 00-.09-.84c0-.12 0-.23-.06-.34s-.05-.24-.08-.36a5.69 5.69 0 00-.38-1.07c0-.4-.11-1-.18-1.62-.22-1.82-.76-6.39-.55-7.76.31.19.71.48 1.09.77 1.15.87 2.34 1.77 3.4 1.51a1.6 1.6 0 001.07-.95c.1-.22.22-.49.36-.81 1.17-2.68 3.6-8.25 7.31-7.43s3.53 6.91 3.45 9.83v.88A1.6 1.6 0 0068.3 33c.84.69 2.31.38 3.72.08.47-.1 1-.2 1.32-.24-.39 1.32-2.83 5.23-3.8 6.78-1.47 2.35-1.47 2.35-1 2.72a.65.65 0 00.77 0 .88.88 0 01.45.38c.15.28.74 1.44-.13 3.55z"/></svg>