<svg height="100" width="100" xmlns="http://www.w3.org/2000/svg"><path d="M81.054 21.822c2.583.145 5.321-.457 7.074-1.98-2.082-.149-4.189-.402-5.922.122 1.908-1.565 3.804-3.733 2.548-5.644-1.31 1.351-3.389 2.622-4.266 4.221.062-1.917.103-3.836.107-5.755 0-.076-.022-.135-.04-.199 2.793-.069 6.764-.776 7.161-3.382-2.609-.596-5.453.339-7.564 2.043 1.045-2.592.761-7.171-1.615-8.586-1.768 2.523-.446 6.408.792 9.233-2.424-1.893-5.507-.77-8.581.087 2.334 1.482 5.629 1.509 8.429.62-.016.06-.038.114-.038.184a186.129 186.129 0 01-.164 7.321c-1.101-1.956-2.237-2.557-5.544-3.563-.476 1.438 1.163 2.679 2.988 3.629-1.868-.521-3.897-.535-5.644.177.878 2.242 4.996 2.073 7.591 1.621-2.185 1.273-4.846 3.636-3.425 5.385 1.454-.541 2.924-1.821 3.822-3.238a178.573 178.573 0 01-1.483 14.327c-.952-1.713-3.627-2.704-5.423-3.9-.388 1.499 1.272 2.924 3.069 4.004-1.648-.342-3.375.097-5.113.438 1.929 1.106 4.397 1.335 6.49.947-1.717.784-3.177 2.465-3.375 3.89 1.663.487 3.03-.819 3.865-2.234a163.975 163.975 0 01-2.394 11.877c-.668-1.51-1.76-2.327-4.295-3.764-.78 1.299.551 2.87 2.124 4.195-1.708-.917-3.688-1.376-5.549-1.063.136.873.768 1.523 1.643 2.005-.81.237-1.586.569-2.293.986 1.301.578 3.814 1.38 5.982 1.369-1.874.902-3.485 2.265-2.723 3.796 1.188-.162 2.48-.755 3.556-1.562a150.64 150.64 0 01-3.283 10.201c-.973-1.817-3.316-3.377-4.843-4.943-.861 1.658.877 3.793 2.756 5.484-1.782-.797-3.853-.734-5.911-.786 1.617 1.451 3.835 2.291 5.978 2.565-2.291.602-4.729 2.06-5.263 3.467 1.696.919 3.985-.129 5.637-1.46a139.631 139.631 0 01-4.582 10.312c-.261-1.594-1.104-2.67-3.145-4.693-1.092 1.049-.222 2.911.946 4.603-1.408-1.332-3.195-2.293-5.071-2.479-.229 2.033 2.423 3.618 4.765 4.548-2.394.238-5.136 1.124-4.74 3.108 1.692.22 3.821-.341 5.315-1.343a131.132 131.132 0 01-7.239 11.961h1.741a132.641 132.641 0 007.144-11.973c.558 2.338 1.955 5.36 4.202 5.491.006-1.474-.867-3.507-2.127-5.124 1.985.963 4.217 1.435 6.132.986-1.413-.879-2.809-1.826-4.216-2.35 2.259-.68 4.394-1.833 4.216-3.696-1.988.647-5.3.943-7.024 2.388A142.26 142.26 0 0070 72.614c.409 2.126 1.837 4.812 5.533 6.127 1.122-1.628-2.046-4.697-4.397-6.312 2.537.703 6.522 1.278 7.052-.891a8.438 8.438 0 00-5.652-.657c2.031-.959 4.124-2.358 3.406-3.985-2.26.519-3.688 1.149-4.676 2.271a153.344 153.344 0 003.791-12.349c1.078 2.172 3.365 5.125 5.724 4.63-.433-1.61-2.135-3.62-4.058-4.843 2.404.615 5.051.585 7.002-.47-2.094-.629-4.19-1.377-6.062-1.152 2.038-1.107 3.969-2.712 3.222-4.691-1.517.996-3.719 1.76-4.956 3.042a165.3 165.3 0 002.454-12.448c1.092 1.53 3.304 3.012 5.107 3.42.645-1.632-2.435-3.381-4.637-4.203 2.259.077 5.355-.253 5.387-2.102a7.198 7.198 0 00-4.627.375c1.349-1.007 2.578-2.309 1.669-3.562-.986.474-1.69.857-2.203 1.263a180.825 180.825 0 001.252-13.793c1.392 1.921 4.576 4.818 6.955 3.734-.923-1.763-3.718-3.687-6.232-4.196zM55.516 34.105c-1.508-1.132-3.476-1.634-5.414-1.605 2.006-.455 3.908-1.238 3.813-2.75-3.454.133-4.707.427-6.268 2.037a187.726 187.726 0 011.664-6.971c1.762 1.026 3.938 1.529 5.754.95-1.574-1.646-3.672-2.852-5.661-2.125-.024-.03-.233.365-.261.339 1.838-1.148 2.921-4.167 2.161-6.22-1.936.558-2.982 3.73-2.727 5.749-1.17-1.591-3.001-2.776-4.949-2.839-.198 1.871 2.357 3.09 4.298 3.671a193.001 193.001 0 00-1.347 5.547c-.442-1.77-2.129-3.527-3.053-5.166-1.699 1.53-.418 4.107 1.029 6.105-1.542-.946-3.644-1.237-5.695-1.622 1.307 1.918 2.498 3.445 6.341 3.712-2.562-.148-5.756 1.003-7.093 2.471 2.024 1.652 5.841-.34 7.674-1.844a180.678 180.678 0 00-2.294 13.67c-.394-.526-.967-1.078-1.809-1.793-1.198.981-.339 2.552.709 3.869a7.198 7.198 0 00-4.379-1.539c-.44 1.795 2.47 2.901 4.674 3.401-2.34.235-5.761 1.145-5.551 2.887 1.848.062 4.33-.373 5.774-1.575a155.556 155.556 0 00-.756 12.228c-.871-1.553-2.806-2.852-4.02-4.199-1.225 1.724.234 3.766 1.923 5.354-1.752-.692-3.971-.502-6.156-.425 1.617 1.512 4.161 2.214 6.637 2.232-2.165.697-4.313 2.209-5.139 3.654 2.154 1.078 5.117-1.197 6.711-3.024a153.82 153.82 0 00.53 12.906c-.671-1.335-1.893-2.31-3.946-3.385-1.108 1.392.56 3.276 2.281 4.721a8.447 8.447 0 00-5.235-.864c.116-1.927-3.785-3.941-6.543-4.841 2.843-.045 7.145-.669 7.03-3.075a9.11 9.11 0 00-6.054 1.046c1.811-1.614 3.552-3.701 2.312-5.168-2.181 1.227-3.468 2.315-4.149 3.778.248-4.639.298-9.291.155-13.944 1.78 1.92 5.051 4.281 7.34 3.048-.938-1.533-3.305-3.096-5.664-3.778 2.672-.1 5.396-.938 7.092-2.623-2.361-.012-4.761-.146-6.629.658 1.772-1.769 3.28-4.021 1.901-5.842-1.266 1.495-3.312 2.959-4.202 4.664-.242-4.547-.668-9.09-1.257-13.619 1.6 1.243 4.345 2.088 6.33 1.96.169-1.887-3.554-2.759-6.085-2.937 2.363-.609 5.469-1.896 4.937-3.82a7.765 7.765 0 00-4.676 1.8c1.09-1.455 1.964-3.177.641-4.196-.886.8-1.487 1.413-1.895 1.994a189.351 189.351 0 00-2.869-14.474c2.027 1.565 6.163 3.387 8.293 1.539-1.49-1.541-4.97-2.679-7.729-2.439 2.719-.639 5.37-2.097 6.718-4.21-2.82-.157-5.18 1.258-6.814 2.331 1.528-1.79 2.553-4.615 1.879-6.785-.943 1.799-2.953 3.516-3.373 5.439a207.059 207.059 0 00-1.632-5.942c1.991.11 4.794-2.088 4.52-4.099-2.1.13-4.037 1.468-5.249 3.222.713-1.587-.627-6.068-2.734-6.606-.752 2.238.385 5.442 1.92 7.288-.03.028.158-.098.133-.065-2.17-.721-3.744-.176-5.807 1.112 1.98.566 3.872.868 5.739-.297a201.998 201.998 0 012.022 7.474c-1.738-1.69-3.098-1.967-6.831-1.999-.054 1.635 2.022 2.418 4.201 2.845-2.092.031-4.199.636-5.79 1.906 1.593 2.054 5.808.622 8.356-.64-1.873 1.985-3.909 5.245-1.903 6.623 1.341-1.004 2.473-2.779 2.969-4.522a190.942 190.942 0 012.839 15.292c-1.509-1.484-4.583-1.693-6.807-2.384.055 1.67 2.21 2.64 4.401 3.21-1.812.148-3.465 1.13-5.161 2.013 2.334.557 4.96.04 7.01-1.001-1.539 1.336-2.538 3.522-2.308 5.059 1.872-.004 2.887-1.774 3.321-3.494.541 4.335.929 8.682 1.148 13.03-1.152-1.359-2.533-1.873-5.597-2.587-.411 1.584 1.446 2.803 3.479 3.695-2.05-.428-4.239-.299-6.07.593.406.862 1.259 1.343 2.312 1.575a10.89 10.89 0 00-2.072 1.722c1.523.2 4.371.263 6.613-.409-1.666 1.507-2.917 3.41-1.66 4.763 1.18-.53 2.339-1.54 3.206-2.704a162.75 162.75 0 01-.286 11.566c-1.562-1.585-4.464-2.485-6.523-3.64-.387 1.978 2.066 3.657 4.529 4.838-2.089-.284-4.214.413-6.362.989 2.119 1.009 4.671 1.201 6.974.83-2.189 1.323-4.27 3.578-4.392 5.198 2.036.434 4.088-1.35 5.392-3.231a148.562 148.562 0 01-3.351 20.579h1.607a150.767 150.767 0 003.491-22.605c1.045 2.022 3.269 4.284 7.29 4.616 1.482 2.747 4.038 2.437 6.567 2.401-2.684.965-5.432 1.674-5.854 4.988 3.875-.045 5.877-1.558 6.908-4.521A141.525 141.525 0 0045.46 99.97h1.481a139.224 139.224 0 01-2.284-13.293c1.259 1.707 3.208 3.302 5.081 2.844-.157-1.496-2.146-3.525-4.209-4.69 2.142.28 4.5.031 6.433-.962-2.005-.474-3.991-1.061-5.918-.74 2.249-1.159 4.473-2.782 4.062-4.604-1.875 1.127-4.539 2.04-5.94 3.551a149.792 149.792 0 01-.584-10.702c.834 1.056 1.935 1.957 3.042 2.416 1.126-1.288-.085-3.015-1.669-4.364 2.093.562 4.729.425 6.134.197a10.157 10.157 0 00-1.967-1.537c.969-.244 1.746-.712 2.098-1.521-1.721-.775-3.752-.835-5.638-.382 1.859-.883 3.546-2.062 3.121-3.518-2.817.746-4.082 1.261-5.111 2.55.083-4.032.322-8.067.703-12.096.449 1.581 1.438 3.19 3.171 3.143.17-1.428-.816-3.425-2.278-4.619 1.926.907 4.373 1.313 6.519.733-1.595-.771-3.153-1.634-4.834-1.723 2.012-.587 3.981-1.544 3.986-3.092-2.041.701-4.84.631-6.195 2.046.541-4.768 1.24-9.172 2.167-13.895.506 1.602 2.199 3.096 3.471 3.991.829-2.618-.754-4.17-2.543-5.956 2.398 1.094 6.339 2.304 7.757.358z"/></svg>