<svg height="100" width="100" xmlns="http://www.w3.org/2000/svg" viewBox="0 0 60 60"><path d="M28 59C14.467 59 2.431 51.546.09 46.415A1.006 1.006 0 010 46v-7a1.003 1.003 0 011.121-.993l1.19.146c4.39.541 9.854 1.215 15.319 1.215 6.745 0 11.91-1.016 15.792-3.104C43.002 31.109 43.991 13.132 44 12.951A1.002 1.002 0 0145 12h8c.275 0 .539.113.729.314C59.35 18.273 60 28.115 60 35c0 15.756-16.098 24-32 24zM2 45.771C4.018 49.695 14.7 57 28 57c14.908 0 30-7.557 30-22 0-3.706 0-14.856-5.439-21h-6.629c-.34 3.981-2.229 19.005-11.561 24.025-4.181 2.248-9.656 3.342-16.74 3.342-5.588 0-11.119-.682-15.563-1.229L2 40.13v5.641z"/><path d="M46.234 14.029a.999.999 0 01-.959-.72L43.04 5.665a1.019 1.019 0 01-.04-.28V2a1 1 0 011-1h9a1 1 0 011 1v11a1 1 0 01-2 0V3h-7v2.242l2.195 7.506a1 1 0 01-.961 1.281zM20.742 47.729c-6.07 0-11.714-.822-15.017-1.767a1 1 0 11.549-1.923c6.364 1.818 22.859 3.222 32.148-1.775C47.99 37.117 48.991 19.133 49 18.951a.993.993 0 011.048-.949.999.999 0 01.95 1.047c-.038.785-1.063 19.293-11.628 24.977-5.126 2.756-12.122 3.703-18.628 3.703z"/></svg>