<svg height="100" width="100" xmlns="http://www.w3.org/2000/svg"><path d="M70.161 25.753c0-.001 0-.001 0 0 0-.001 0-.001 0 0a.856.856 0 00-.061-.121v-.001a.997.997 0 00-.534-.439l-.044-.015c-2.733-.831-5.567-1.621-7.779-1.774-3.334-.227-7.116-.123-9.891 2.4a9.092 9.092 0 00-2.848 5.269 7.399 7.399 0 00-.028 2.273 18.068 18.068 0 00-1.724 2.029c-3.243-9.543-9.973-12.993-10.374-13.19a1.002 1.002 0 00-1.337.454 1.003 1.003 0 00.452 1.34c.509.253 12.229 6.339 10.862 25.609-2.646-1.141-5.916-1.614-8.83-1.248-2.378.299-4.433 1.252-5.787 2.686-1.204 1.276-1.954 3.021-2.292 5.332-.815 5.59 1.006 13.644 6.933 18.117 2.324 1.755 5.306 2.893 8.622 3.292a21.32 21.32 0 002.552.153c2.538 0 5.005-.46 7.245-1.361a16.494 16.494 0 001.664-.781l.001-.001c7-3.79 9.344-11.634 9.225-17.198a17.882 17.882 0 00-.184-2.221c-.338-2.312-1.088-4.056-2.293-5.332-1.354-1.434-3.408-2.387-5.787-2.686-2.996-.379-6.385.129-9.071 1.347.321-4.582-.059-8.472-.858-11.753.025-.038.055-.07.075-.112.015-.03.497-.993 1.688-2.334 1.578 2.418 5.157 3.046 7.364 2.854 4.621-.412 7.738-4.415 9.802-7.064 1.277-1.639 2.313-3.15 3.167-4.619a.985.985 0 00.118-.284 1 1 0 00-.048-.621zM49.655 51.517c2.332-1.064 5.41-1.52 8.02-1.194 1.892.237 3.562.993 4.582 2.074.926.98 1.488 2.33 1.769 4.248.094.644.148 1.307.162 1.974.108 5.002-1.969 12.037-8.178 15.398-.469.253-.96.483-1.459.685-2.672 1.075-5.717 1.452-8.812 1.077-2.965-.356-5.612-1.36-7.655-2.901-5.277-3.984-6.892-11.207-6.159-16.232.28-1.918.843-3.268 1.768-4.248 1.021-1.081 2.691-1.837 4.582-2.074a14.129 14.129 0 011.727-.104c2.167 0 4.46.461 6.294 1.298a4.11 4.11 0 003.359-.001zm1.325-20.131a7.075 7.075 0 012.219-4.104c1.723-1.566 4.004-1.964 6.374-1.964.674 0 1.356.032 2.033.079.782.054 1.694.21 2.622.412-6.255 1.215-10.492 3.54-13.274 5.756.007-.058.016-.118.026-.179zm14.366-1.338c-2.448 3.144-4.934 5.991-8.401 6.301-1.88.17-4.883-.448-5.719-2.336 2.819-2.543 7.813-5.607 16.08-6.668a44.888 44.888 0 01-1.96 2.703z"/></svg>