<svg height="100" width="100" xmlns="http://www.w3.org/2000/svg"><path d="M32.249 87.203c-3.004 0-5.245-1.094-5.91-1.459-5.243-.489-8.02-5.018-8.137-5.213a24.028 24.028 0 01-2.717-6.782c-.317-1.402-.474-3.025-.466-4.823.033-6.057 2.604-10.947 6.876-13.083 1.439-.721 3.022-1.073 4.455-.989 1.12.073 2.279.416 3.447 1.02.701.361 1.287.829 1.854 1.281.24.191.479.384.728.564.204.148.422.283.647.399 1.006.523 2.207.777 3.672.777.459 0 .919-.024 1.375-.063 1.436-.126 2.9.113 4.389.686.762.295 1.501.601 2.177 1.097 2.302 1.69 3.947 4.761 4.294 8.013.207 1.929-.191 3.994-1.219 6.313a23.299 23.299 0 01-2.998 4.95 26.388 26.388 0 01-3.176 3.346c-.419.372-.907.8-1.419 1.189-2.425 1.843-5.073 2.777-7.872 2.777zM25.906 56.64c-1.021 0-2.159.289-3.205.813-3.653 1.827-5.852 6.119-5.881 11.482-.008 1.661.134 3.148.421 4.418a22.17 22.17 0 002.504 6.253c.023.038 2.503 4.043 6.932 4.36.146.01.286.056.41.133.019.012 2.166 1.305 5.162 1.305 2.396 0 4.679-.812 6.782-2.411.462-.351.901-.736 1.313-1.101a24.567 24.567 0 002.958-3.116 21.44 21.44 0 002.767-4.564c.896-2.022 1.247-3.786 1.075-5.393-.296-2.765-1.663-5.353-3.57-6.753-.498-.366-1.092-.61-1.76-.869-1.23-.473-2.42-.674-3.586-.571-.508.044-1.02.07-1.529.07-1.762 0-3.233-.32-4.5-.979a6.7 6.7 0 01-.88-.544c-.271-.197-.53-.404-.79-.611-.521-.416-1.013-.809-1.556-1.089-.935-.482-1.881-.767-2.737-.822a5.147 5.147 0 00-.33-.011zM68.331 86.295c-2.224 0-4.426-.61-6.545-1.813a23.285 23.285 0 01-1.565-.988 26.445 26.445 0 01-3.592-2.894 23.24 23.24 0 01-3.631-4.504c-1.327-2.162-1.998-4.156-2.051-6.097-.089-3.27 1.134-6.532 3.19-8.514.606-.585 1.296-.985 2.009-1.377 1.416-.772 2.849-1.198 4.259-1.266 2.155-.101 3.713-.538 4.905-1.377.221-.156.415-.315.592-.484.222-.213.435-.437.647-.658.5-.523 1.018-1.064 1.663-1.516 1.063-.742 2.198-1.25 3.28-1.467 1.381-.277 3.021-.137 4.547.385 4.521 1.548 7.719 6.053 8.558 12.051.25 1.781.311 3.411.182 4.845a23.881 23.881 0 01-1.789 7.08l-.035-.015c-.501 1.222-2.746 5.21-7.332 6.266-.718.531-3.45 2.343-7.292 2.343zm4.639-31.296c-.394 0-.771.036-1.122.107-.842.168-1.742.575-2.604 1.178-.499.348-.934.802-1.394 1.282-.23.241-.461.482-.702.714a6.901 6.901 0 01-.801.657c-1.951 1.372-4.277 1.629-5.857 1.704-1.136.054-2.307.405-3.479 1.046-.601.329-1.178.662-1.625 1.094-1.704 1.643-2.716 4.389-2.641 7.169.045 1.616.629 3.317 1.785 5.203a21.474 21.474 0 003.35 4.153A24.526 24.526 0 0061.228 82c.453.307.941.629 1.446.916 1.845 1.047 3.748 1.578 5.656 1.578 3.768 0 6.307-2.053 6.332-2.074a.892.892 0 01.388-.186c4.33-.9 6.25-5.163 6.286-5.245l.001-.002a22.044 22.044 0 001.648-6.527c.117-1.298.06-2.789-.172-4.435-.742-5.313-3.492-9.274-7.356-10.598a7.855 7.855 0 00-2.487-.428z"/><path d="M32.613 59.818a.9.9 0 01-.077-1.796c.024-.024.049-.053.076-.081.269-.281.445-1.144.552-1.658.041-.2.08-.387.119-.547.569-2.338.957-4.78 1.333-7.143.265-1.667.464-3.385.655-5.046.396-3.414.804-6.944 1.807-10.319 1.201-4.035 2.853-7.511 5.049-10.624 1.638-2.32 3.719-4.33 6.021-5.814a.865.865 0 01.229-.105c.127-.038 1.243-.348 2.149.261.383.256.86.77.959 1.756.053.521-.229 1.033-.665 1.756-.099.164-.191.309-.234.407a13.865 13.865 0 00-.676 1.914c-.337 1.251-.501 2.63-.487 4.101.015 1.689.288 3.255.835 4.785 1.341 3.749 2.776 6.933 4.52 10.019 1.532 2.713 3.329 5.386 5.493 8.172.498.621 4.967 6.226 5.842 8.353a.9.9 0 01-1.664.686c-.658-1.6-4.259-6.262-5.591-7.924-2.227-2.866-4.071-5.611-5.647-8.401-1.795-3.177-3.271-6.449-4.647-10.298a16.152 16.152 0 01-.94-5.375c-.014-1.634.171-3.176.55-4.583a15.71 15.71 0 01.763-2.163 5.96 5.96 0 01.345-.621c.121-.201.337-.559.403-.734-.021-.129-.064-.289-.157-.352-.127-.086-.375-.076-.532-.054-2.058 1.352-3.92 3.165-5.395 5.254-2.082 2.951-3.65 6.255-4.795 10.1-.958 3.225-1.356 6.676-1.743 10.013-.194 1.681-.395 3.418-.665 5.115-.382 2.405-.775 4.884-1.363 7.296-.035.143-.068.306-.104.481-.173.839-.388 1.882-1.002 2.526-.251.258-.616.643-1.316.643zm0-1.799v.899l.003-.9-.003.001z"/><path d="M36.024 60.679a.9.9 0 01-.897-.99c.069-.686 1.697-16.808 2.229-20.17.065-.634 1.853-16.653 11.327-19.547a.899.899 0 11.525 1.721c-8.347 2.55-10.053 17.906-10.068 18.061-.529 3.359-2.205 19.948-2.222 20.115a.9.9 0 01-.894.81z"/><path d="M62.498 60.42a.9.9 0 01-.876-.699c-.545-2.377-7.027-12.689-9.479-16.463-8.473-13.609-6.348-21.35-6.253-21.673a.896.896 0 011.116-.61.898.898 0 01.612 1.111c-.022.08-1.937 7.388 6.043 20.206.911 1.401 8.999 13.907 9.714 17.026a.899.899 0 01-.877 1.102zM31.485 32.475a.9.9 0 01-.899-.963c.041-.6.047-1.325.048-1.563-.385-2.103-.446-3.987-.184-5.604.839-5.186 5.141-9.093 10.02-8.901 1.021.034 2.086.173 3.081.402.152.036.331.101.519.172.13.049.348.132.428.14.047-.006.139-.01.238-.01 1.138 0 3.297.461 3.539.514a.899.899 0 01.066 1.742l-.928.276a.929.929 0 01-.438.02l-1.626-.336c-4.054 3.368-10.456 9.245-10.522 9.306-1.894 1.702-2.46 4.084-2.466 4.107a.902.902 0 01-.876.698zm8.682-15.237c-3.844 0-7.257 3.179-7.938 7.395-.162.993-.181 2.117-.057 3.356a9.437 9.437 0 011.445-1.652c.056-.052 5.677-5.212 9.751-8.661a1.684 1.684 0 00-.226-.077 14.56 14.56 0 00-2.731-.356l-.244-.005z"/></svg>