<svg height="100" width="100" xmlns="http://www.w3.org/2000/svg" viewBox="0 0 48 48"><path d="M15.405 13.118a5.674 5.674 0 00-.818.77 17.394 17.394 0 00-4.219 9.588.5.5 0 00.994.111 16.39 16.39 0 013.978-9.039c.204-.232.431-.446.676-.636a.499.499 0 00.091-.7.497.497 0 00-.702-.094z"/><path d="M29.09 9.223c-1.41 0-2.81.358-4.049 1.036-.16.087-.33.152-.508.195a10.54 10.54 0 013.823-7.568.5.5 0 00-.636-.772 11.542 11.542 0 00-4.188 8.35 2.113 2.113 0 01-.574-.204 8.447 8.447 0 00-10.405 1.847 20.153 20.153 0 00-.558 25.91 9.956 9.956 0 007.805 3.746c.313 0 .628-.017 1.039-.049.37.018.657.332.64.703a5.416 5.416 0 01-.777 2.549.685.685 0 00.229.938.956.956 0 00.352.096.905.905 0 00.262-.053 6.407 6.407 0 014.91 0 .898.898 0 00.26.053.681.681 0 00.582-1.033c-.467-.77-.734-1.651-.774-2.645.032-.346.315-.605.725-.605h.007a9.957 9.957 0 008.75-3.7 20.148 20.148 0 00-.559-25.91 8.44 8.44 0 00-6.356-2.884zm6.133 28.166a8.975 8.975 0 01-7.875 3.332 1.66 1.66 0 00-1.826 1.74c.035.789.22 1.565.537 2.287a7.382 7.382 0 00-4.119 0 6.445 6.445 0 00.538-2.287c.042-.92-.673-1.703-1.667-1.748-.054 0-.108.002-.161.008a8.957 8.957 0 01-7.874-3.332 19.151 19.151 0 01.53-24.625 7.45 7.45 0 019.173-1.629c.438.239.931.355 1.428.37.031.006.059.019.092.019H24c.034 0 .063-.013.096-.019a3.168 3.168 0 001.424-.37 7.45 7.45 0 019.174 1.629 19.152 19.152 0 01.529 24.625z"/></svg>