<svg height="100" width="100" xmlns="http://www.w3.org/2000/svg" version="1.2" baseProfile="tiny"><path d="M34.559 66.494a1.211 1.211 0 01-1.167-1.536c.764-2.749-.033-4.688-2.51-6.104a1.211 1.211 0 01.947-2.214c2.754.818 4.687.023 6.074-2.498a1.213 1.213 0 012.246.84c-.615 2.842.182 4.807 2.508 6.18a1.213 1.213 0 01-.85 2.233c-2.615-.517-4.602.311-6.268 2.6a1.212 1.212 0 01-.98.499zm.386-7.214a6.471 6.471 0 011.088 2.856 7.503 7.503 0 012.82-1.171 6.911 6.911 0 01-1.195-2.836c-.814.6-1.721.984-2.713 1.15zM61.467 43.838a1.211 1.211 0 01-1.212-1.172c-.094-2.876-1.456-4.458-4.284-4.978a1.211 1.211 0 01.09-2.396c2.89-.312 4.504-1.688 5.075-4.328.125-.577.67-.968 1.238-.954a1.21 1.21 0 011.149 1.059c.332 2.638 1.744 4.267 4.441 5.127a1.21 1.21 0 01-.307 2.364c-2.85.142-4.439 1.51-5.003 4.306-.115.569-.615.972-1.187.972zm-1.636-7.174a6.283 6.283 0 011.948 2.213 6.466 6.466 0 012.367-1.933 7.525 7.525 0 01-2-2.306 6.893 6.893 0 01-2.315 2.026zM66.651 75.23c-.514 0-.98-.328-1.148-.828-.904-2.703-2.66-3.857-5.495-3.656a1.2 1.2 0 01-1.28-.98 1.213 1.213 0 01.826-1.384c2.744-.865 3.9-2.603 3.638-5.467a1.212 1.212 0 012.333-.56c1.08 2.7 2.836 3.874 5.536 3.72.549-.026 1.118.358 1.252.933a1.212 1.212 0 01-.71 1.393c-2.45 1.032-3.64 2.83-3.74 5.66a1.21 1.21 0 01-1.212 1.168zm-3.037-6.402a6.47 6.47 0 012.499 1.758 7.516 7.516 0 011.682-2.548 6.923 6.923 0 01-2.576-1.681 6.289 6.289 0 01-1.605 2.471z"/><path d="M76.905 56.53a15.046 15.046 0 00-9.667-6.396c-.324-.062-.648-.098-.972-.14 5.817-3.608 8.649-10.856 6.4-17.631a15.044 15.044 0 00-7.584-8.766 15.055 15.055 0 00-11.562-.835c-4.94 1.64-8.472 5.595-9.796 10.261-1.008-3.943-2.548-8.371-4.851-11.768-5.312-7.838-17.539-11.317-18.056-11.461a1.212 1.212 0 00-1.537 1.184c.006.44.199 10.896 4.771 19 1.26 2.235 3.253 4.26 5.497 6.032-.024-.001-.047-.005-.07-.007-8.85-.63-19.11 6.164-19.543 6.454a1.21 1.21 0 00-.08 1.957c.266.21 6.241 4.897 13.668 6.817a15.04 15.04 0 00-.972 5.29c0 8.35 6.794 15.145 15.145 15.145 4.636 0 8.788-2.1 11.568-5.392a15.05 15.05 0 002.532 7.2 15.048 15.048 0 009.668 6.395 15.05 15.05 0 0011.359-2.313c3.353-2.263 5.623-5.696 6.395-9.667s-.051-8.006-2.313-11.359zm-22.62-31.468a12.732 12.732 0 014.02-.655c1.953 0 3.894.455 5.69 1.356a12.636 12.636 0 016.371 7.363c2.21 6.658-1.408 13.872-8.064 16.082-5.526 1.838-11.43-.355-14.543-4.96-.362-.537-.685-1.1-.958-1.677-.217-.46-.417-.932-.582-1.427-2.21-6.657 1.407-13.872 8.065-16.082zm2.091 27.084c-.165.103-.335.192-.497.301a15.197 15.197 0 00-3.103 2.795 15.025 15.025 0 00-1.083-4.49 15.2 15.2 0 004.683 1.394zM26.162 28.788c-3.215-5.699-4.116-12.895-4.366-16.131 3.422 1.2 11.341 4.454 15.071 9.957 3.515 5.185 5.162 13.293 5.815 17.49-2.032-1-4.416-2.03-6.912-2.816-3.76-2.2-7.704-5.125-9.608-8.5zm-1.595 20.207c-5.061-1.218-9.567-3.953-11.773-5.451 3.09-1.802 10.345-5.564 16.512-5.123 1.773.125 3.615.526 5.416 1.074a61.35 61.35 0 003.543 1.903c-.19-.007-.378-.022-.57-.022-.615 0-1.22.048-1.817.12-.2.023-.396.059-.594.09-.394.064-.784.141-1.168.235-.227.055-.454.11-.678.175-.367.107-.724.235-1.08.37a14.91 14.91 0 00-1.062.448c-.31.146-.622.291-.92.457-.267.148-.522.31-.779.474-.23.146-.456.297-.677.456-.242.172-.481.345-.712.532a15.29 15.29 0 00-.876.774c-.185.175-.369.35-.545.535a15.24 15.24 0 00-.976 1.121c-.092.118-.18.238-.269.359-.332.448-.641.912-.924 1.396-.015.027-.036.05-.051.077zm13.129 20.247c-7.015 0-12.722-5.706-12.722-12.721 0-2.027.489-3.938 1.336-5.64a12.91 12.91 0 012.162-3.096c.269-.286.554-.555.847-.814a12.714 12.714 0 011.425-1.091c.191-.126.389-.242.587-.358.257-.149.52-.287.787-.418.187-.091.371-.188.563-.271.436-.187.883-.35 1.34-.488.156-.047.318-.082.477-.123a12.66 12.66 0 011.116-.238c.16-.026.321-.053.484-.074a12.87 12.87 0 011.598-.111c.399 0 .793.024 1.183.06.124.011.247.03.371.045a12.66 12.66 0 011.215.207c.236.053.468.115.7.18.146.043.295.081.44.129.215.07.424.152.634.232.388.15.77.316 1.142.505.066.032.133.06.198.095.249.131.493.276.734.424.064.04.129.077.191.117.242.154.48.319.713.49 3.147 2.32 5.2 6.038 5.2 10.238 0 7.015-5.707 12.721-12.721 12.721zm39.143-1.815a12.637 12.637 0 01-5.372 8.12 12.642 12.642 0 01-9.542 1.943 12.642 12.642 0 01-8.12-5.372 12.64 12.64 0 01-1.943-9.542 12.637 12.637 0 015.373-8.12 12.628 12.628 0 019.541-1.943 12.635 12.635 0 018.12 5.373 12.638 12.638 0 011.943 9.541z"/></svg>