<svg height="100" width="100" xmlns="http://www.w3.org/2000/svg" viewBox="0 0 52 52"><path d="M32.942 30.646c-4.176 1.783-4.3 8.096-3.553 11.874.794 4.02 4.103 8.132 8.53 7.237 4.89-.99 5.635-7.085 4.88-11.066-.962-5.076-3.578-8.81-9.123-8.135-1.576.193-1.596 2.695 0 2.5 3.412-.416 5.32 1.277 6.313 4.602.922 3.086 1.364 8.15-2.41 9.46-6.15 2.135-8.262-12.227-3.375-14.313 1.475-.63.203-2.784-1.262-2.16zM16.456 27.395c-5.84.923-7.25 6.94-7.5 12.241-.21 4.475 3.5 8.373 8.202 7.446 1.964-.388 3.044-2.038 4.275-3.492 1.971-2.327 2.134-4.12 2.118-7.131-.011-2.23.354-4.31-1.103-6.105-1.869-2.302-3.106-2.984-5.908-3.106-1.608-.07-1.605 2.43 0 2.5 6.844.298 5.658 12.775.39 14.703-3.92 1.434-5.7-2.851-5.349-5.818.425-3.591 1.442-8.18 5.54-8.828 1.584-.25.912-2.66-.665-2.41zM13.73 4.62h22.25c1.608 0 1.611-2.5 0-2.5H13.73c-1.609 0-1.611 2.5 0 2.5z"/><path d="M26 4.418c6.392 7.323 6.354 17.506 6.312 26.825-.007 1.609 2.493 1.61 2.5 0 .025-5.47-.19-10.94-1.186-16.33-.989-5.35-2.37-8.265-5.858-12.262-1.06-1.215-2.822.56-1.768 1.767z"/><path d="M24.633 4.065c.3 9.068 1.82 17.191-6.836 23.262-1.308.917-.06 3.085 1.261 2.158 4.02-2.818 6.411-5.74 7.737-10.532 1.431-5.174.51-9.696.338-14.888-.053-1.605-2.553-1.612-2.5 0z"/><path d="M24.402 2.795c-1.982 1.359-4.2 1.986-6.03 3.625-1.956 1.75-1.713 4.49-2.319 6.887-.192.757.375 1.616 1.205 1.582 2.836-.117 4.62-.57 6.746-2.455 1.786-1.585 3.67-3.216 3.97-5.692.193-1.594-2.309-1.58-2.5 0-.184 1.516-2.158 2.974-3.238 3.924-1.572 1.382-2.868 1.636-4.978 1.723l1.206 1.582c.257-1.016.474-2.035.626-3.072.25-1.707.574-2.366 1.922-3.363 1.441-1.065 3.166-1.564 4.652-2.583 1.319-.904.07-3.071-1.262-2.158z"/></svg>