<svg height="100" width="100" xmlns="http://www.w3.org/2000/svg" viewBox="0 0 66 52"><path d="M29.167 42.806A21.97 21.97 0 0122 44C9.85 44 0 34.15 0 22S9.85 0 22 0a22.001 22.001 0 0119.819 12.438A20.08 20.08 0 0146 12c11.046 0 20 8.954 20 20s-8.954 20-20 20c-7.065 0-13.275-3.663-16.833-9.194zM22 2C10.954 2 2 10.954 2 22s8.954 20 20 20c2.116 0 4.185-.328 6.153-.964A19.92 19.92 0 0126 32c0-8.771 5.694-16.406 13.848-19.036A20 20 0 0022 2zm24 48c9.941 0 18-8.059 18-18s-8.059-18-18-18-18 8.059-18 18 8.059 18 18 18zM16 13a1 1 0 110 2h-1v1a1 1 0 11-2 0v-1h-1a1 1 0 110-2h1v-1a1 1 0 112 0v1h1zm24 12h1a1 1 0 110 2h-1v1a1 1 0 11-2 0v-1h-1a1 1 0 110-2h1v-1a1 1 0 112 0v1z"/></svg>