<svg height="100" width="100" xmlns="http://www.w3.org/2000/svg" data-name="Слой 1" viewBox="0 0 83.73 82.69"><path d="M13.232 48.222c-.4-.999-.846-1-1.565-.729a20.18 20.18 0 01-3.413.939c-2.787.522-6.339-1.824-7.408-4.539a13.081 13.081 0 01-.782-6.03 7.786 7.786 0 012.92-5.372 9.057 9.057 0 015.677-2.486c-.782-.624-1.44-1.17-2.12-1.686-2.327-1.768-3.042-4.766-2.286-7.99A9.173 9.173 0 018.79 14.56a15.517 15.517 0 012.018-.895c0-.272.01-.55-.001-.826-.105-2.45 1.28-3.928 3.209-5.142a6.858 6.858 0 016.023-.615 5.759 5.759 0 013.753 3.648c.96 2.436 1.016 4.827-.618 7.048a1.52 1.52 0 00-.159 1.952 15.073 15.073 0 01.864 1.72 7.32 7.32 0 001.135-.16 8.825 8.825 0 013.539-.187 4.452 4.452 0 013.39 2.113 8.12 8.12 0 01.63 8.158c-.612 1.404-.577 1.543.681 2.418a4.684 4.684 0 00.985.57c.238.09.638.147.787.016 1.013-.893 2.302-1.583 2.354-3.212.061-1.9.261-3.798.267-5.697.005-1.314-.188-1.402-1.468-1.673a7.76 7.76 0 01-5.735-4.467 8.871 8.871 0 01-.94-6.346 25.25 25.25 0 011.007-2.508l-.373-.567c-2.035-3.089-1.716-5.516.942-8.122 1.975-1.938 6.237-2.43 8.344-.827a27.762 27.762 0 012.519 2.475 5.127 5.127 0 014.752.132 4.741 4.741 0 012.797 3.719 6.357 6.357 0 01-1.428 5.472c-.337.393-.619.7-.392 1.237.926 2.186.75 4.506.59 6.76a27.95 27.95 0 001.139 10.567 23.485 23.485 0 001.024 2.362c4.127.208 6.643 1.834 7.725 6.27.61 2.508-1.69 6.224-5.27 7.616a14.205 14.205 0 01-.026 2.534c-.3 1.629-.715 3.24-1.154 4.838a5.764 5.764 0 00-.289 3.402c.282-.502.483-.803.629-1.129a14.516 14.516 0 014.208-5.51 6.805 6.805 0 002.381-4.068 23.282 23.282 0 00-.494-12.824 20.727 20.727 0 01-.487-2.36c-1.257-.363-2.518-.771-3.801-1.091-2.861-.713-4.213-2.805-4.866-5.43a14.826 14.826 0 01-.331-3.688c.028-2.93 1.672-4.854 4.13-6.183.733-.397 1.526-.684 2.423-1.08a5.198 5.198 0 00-.785-.508 5.207 5.207 0 01-3.04-3.723c-.095-.318-.156-.647-.24-.97a5.651 5.651 0 014.316-7.023 7.11 7.11 0 016.707 1.96 5.73 5.73 0 01.258 7.469 33.248 33.248 0 01-2.474 2.51c.382.183.83.394 1.275.61a8.457 8.457 0 014.903 6.566 4.35 4.35 0 01-.103 1.695 11.393 11.393 0 01-3.027 5.57 11.985 11.985 0 01-4.45 3.178 15.117 15.117 0 00.445 2.294 23.34 23.34 0 011.035 8.024 21.16 21.16 0 01-1.158 6.837 9.034 9.034 0 001.034-.552 68.503 68.503 0 008.376-7.317 17.748 17.748 0 003.643-5.235c.126-.298.2-.617.327-1.014-.46-.31-.899-.581-1.313-.885-2.442-1.792-4.185-4.045-4.403-7.174a8.717 8.717 0 012.162-6.752 7.148 7.148 0 014.642-1.956c.707-.086 1.425-.108 2.126-.228 1.846-.314 3.233.685 4.486 1.734a11.335 11.335 0 013.453 4.993 5.481 5.481 0 01-.298 4.423 10.793 10.793 0 01-4.937 4.948 9.054 9.054 0 01-4.953 1.247c-.792 1.339-1.494 2.63-2.294 3.855a28.988 28.988 0 01-5.912 6.155c-2.294 1.925-4.711 3.704-7.077 5.543a20.556 20.556 0 00-5.232 5.98 3.75 3.75 0 00-.35 3.499 33.185 33.185 0 011.852 8.923c.212 2.32.641 4.62.832 6.94a41.514 41.514 0 01-.069 4.282 1.076 1.076 0 01-.878 1.13 10.633 10.633 0 01-1.977.674c-1.22.083-1.649-.44-1.468-1.668a55.76 55.76 0 01.786-4.205 16.176 16.176 0 00.476-5.528c-.451-3.733-.997-7.455-1.474-11.186a2.526 2.526 0 00-1.098-1.744 9.302 9.302 0 00-4.788-1.654 21.96 21.96 0 00-10.12 1.12 10.778 10.778 0 01-3.803.49 29.066 29.066 0 01-7.63-.98 2.78 2.78 0 00-2.888.626 10.247 10.247 0 01-3.075 1.763 5.036 5.036 0 01-5.014-.599 7.175 7.175 0 01-1.928-1.635 6.033 6.033 0 01-.099-6.36c.711-1.315 1.543-2.542 3.249-2.901zm36.126-25.498c.053 4.85 2.198 7.67 6.765 8.576a4.96 4.96 0 005.045-1.458c.32-.347.704-.636 1.049-.962a10.504 10.504 0 002.951-4.803c.721-2.532-.328-5.22-2.79-7.12a6.538 6.538 0 00-5.137-1.662 10.464 10.464 0 00-4.727 1.843c-1.946 1.463-3.402 3.201-3.156 5.586zm-8.786 25.278c.381 0 .764.024 1.143-.004a8.266 8.266 0 006.027-3.153c2.535-3.247 2.74-5.64.371-8.968-1.41-1.983-3.153-3.272-5.728-3.027a5.681 5.681 0 01-1.14.041c-3.897-.424-5.838 1.897-7.565 4.744a4.427 4.427 0 00-.417 2.21 10.022 10.022 0 00.364 2.52c1.024 3.871 3.236 5.794 6.945 5.637zM30.03 14.812a8.453 8.453 0 004.45 7.493 6.431 6.431 0 006.648.144c2.447-1.24 3.511-3.51 4.185-6.012a6.527 6.527 0 00-.66-4.973 11.226 11.226 0 00-2.566-2.383c-.049-.043-.181.024-.265.002a2.176 2.176 0 01-.678-.223 6.183 6.183 0 00-4.19-.983 7.576 7.576 0 00-5.558 3.066 5.257 5.257 0 00-1.366 3.869zm44.992 4.441c-.539 0-1.016-.026-1.49.005a6.292 6.292 0 00-5.7 4.24c-.813 2.884-.692 5.705 1.313 8.097 2.72 3.244 4.263 3.863 7.999 2.389a10.73 10.73 0 005.432-5.42 3.824 3.824 0 00.137-3.056 10.997 10.997 0 00-3.022-4.432c-1.31-1.235-2.8-2.142-4.669-1.823zm-62.88-4.877a11.3 11.3 0 00-2.464.614 8.25 8.25 0 00-4.96 6.675 5.794 5.794 0 00.915 4.505 18.143 18.143 0 003.1 2.693 3.941 3.941 0 003.426.517 19.857 19.857 0 003.198-1.15 6.38 6.38 0 003.84-7.405c-.045-.232-.027-.476-.068-.71a6.988 6.988 0 00-6.986-5.739zm13.234 27.4l-.12-.02c-.04-.665-.037-1.335-.127-1.993a5.942 5.942 0 00-1.47-3.174c-2.134-2.44-4.853-2.263-7.6-1.679-2.705.575-4.694 3.648-4.688 6.768.006 2.838 1.545 6.262 5.258 7.073.371.082.736.194 1.108.272a6.224 6.224 0 007.177-4.17 27.686 27.686 0 00.462-3.077zm-13.506 4.716c-2.537-5.019-1.36-9.038 3.11-12.215a4.003 4.003 0 00-.469-.77c-2.428-2.417-6.029-3.872-9.65-1.413-2.687 1.824-4.49 4.082-4.128 7.55.084.802.139 1.61.267 2.406a6.554 6.554 0 003.61 4.843 6.758 6.758 0 007.26-.401zm37.488 10.783a8.616 8.616 0 00-.301-.973c-1.147-2.344-3.11-4.05-4.735-6.02a.967.967 0 00-.355-.234 10.482 10.482 0 00-4.304-1.34 5.75 5.75 0 01-5.36-2.946c-.509-.904-.887-1.882-1.343-2.817-.182-.373-.328-.887-.641-1.053-2.162-1.15-4.363-2.224-6.733-3.413a16.022 16.022 0 01-.353 7.54c.55.227.984.41 1.421.585a14.442 14.442 0 015.732 3.857c1.34 1.533 2.86 2.913 4.342 4.318a4.042 4.042 0 003.019 1.036c3.184-.077 6.357-.015 9.61 1.46zM27.202 21.787a4.998 4.998 0 00-4.238 1.656 5.98 5.98 0 01-.865.74 3.631 3.631 0 00-1.447 2.522 6.431 6.431 0 006.722 7.334 5.395 5.395 0 004.403-2.525 6.61 6.61 0 00.91-4.781c-.506-2.453-1.983-5.337-5.485-4.946zm9.763 34.402c-1.589-1.637-3.152-3.213-4.673-4.827a16.527 16.527 0 00-6.074-4.135c-1.124-.44-1.243-.41-2.065.447a5.293 5.293 0 01-.88.715c-.733.49-1.482.956-2.204 1.419.83 1.979 1.17 1.576.604 6.352 5.105 1.262 10.207 2.226 15.292.03zM57.202 3.392c-3.301-.211-6.613 3.159-4.995 6.676a26.042 26.042 0 002.605 3.842c.07.099.263.101.384.174 1.34.808 2.657.418 3.976-.068a6.728 6.728 0 003.794-4.98 5.672 5.672 0 00-5.764-5.644zM9.96 54.54a7.187 7.187 0 00.527 2.008 5.742 5.742 0 005.77 2.58 6.347 6.347 0 004.94-7.285c-.149-.965-.8-1.803-1.549-1.79a10.817 10.817 0 01-4.944-1.196 1.667 1.667 0 00-1.743.135A6.332 6.332 0 009.96 54.54zm1.886-40.823c4.562-.435 6.618 2.434 8 6.245a2.533 2.533 0 00.785-.309c1.764-1.585 3.309-3.325 3.237-5.896-.06-2.162-.846-4.202-2.736-5.206-3.61-1.92-6.413-1.347-8.945 2.096a3.024 3.024 0 00-.341 3.07zM49.72 34.02a8.636 8.636 0 01-.588-1.156 26.166 26.166 0 01-1.552-7.651c-.04-1.71.061-3.424.045-5.135-.016-1.75.263-3.531-.418-5.225a5.581 5.581 0 00-.539-.86l-.298.076-.16 1.044a16.165 16.165 0 01-.265 1.68 10.497 10.497 0 01-3.698 5.622 1.441 1.441 0 00-.662 1.57 29.468 29.468 0 002.329 7.018 3.282 3.282 0 001.67 1.658 10.128 10.128 0 011.948 1.383c.363.28.692.603 1.027.899zm-.764 1.748c.186.356.308.609.447.851a6.112 6.112 0 01.042 6.61c-.55.919-1.093 1.842-1.63 2.747a4.306 4.306 0 003.913 1.053 7.64 7.64 0 005.028-3.639 4.2 4.2 0 00.474-3.8c-.128-.396-.475-.726-.582-1.125-.57-2.135-2.103-3.138-4.103-3.695a3.37 3.37 0 00-3.59.998zm-16.683 4.975a17.989 17.989 0 01.465-2.89 18.325 18.325 0 011.305-2.597l-2.69-2.034a6.823 6.823 0 01-6.542 1.282 6.088 6.088 0 01-4.282-4.013c-.188-.587-.324-1.19-.476-1.79a5.14 5.14 0 012.108-5.633c.428-.341.818-.73 1.248-1.118l-1.364-2.344a6.494 6.494 0 01-1.033.655 1.754 1.754 0 00-1.15 2.012 8.267 8.267 0 01-.463 2.622 8.418 8.418 0 01-2.917 3.856c1.15 1.243 2.214 2.453 3.348 3.592a23.026 23.026 0 001.99 1.616 5.15 5.15 0 01.763.624 12.664 12.664 0 004.426 3.682c1.728.775 3.428 1.61 5.264 2.478zm9.127-32.95a5.308 5.308 0 00-3.77-6.688 7.001 7.001 0 00-6.56 1.845c-1.667 1.503-2.168 5.177.166 6.857C34.11 6.88 37.604 6.698 41.4 7.794zm2.67 40.623a20.362 20.362 0 002.225 3.066 22.256 22.256 0 013.987 4.806c.032.055.169.05.23.065.47-1.485.963-2.962 1.405-4.453a8.12 8.12 0 00.074-3.874c-1.055-.165-2-.245-2.908-.473-.81-.204-1.623-.882-2.357-.782-.815.111-1.542.866-2.305 1.344a4.375 4.375 0 00-.351.301zm2.03-35.226c2.207-.93 2.784-2.779 2.872-4.752a4.02 4.02 0 00-2.397-4.046c-1.373-.628-2.83-1.042-4.123-.228l-.221 4.02c.85.692 1.712 1.356 2.524 2.078a3.015 3.015 0 01.716 1.032c.245.56.392 1.162.629 1.896zm-5.556 10.318l-2.146.535-.267 7.863h5.154l-2.741-8.398zm11.349 38.033l-.317.11c.253 2.17.539 4.336.75 6.51.219 2.267.628 4.528.174 6.822a189.103 189.103 0 00-1.067 6.042c-.152.924.29 1.268 1.14.894a16.058 16.058 0 001.511-.863 25.23 25.23 0 00.135-6.24c-.44-2.87-.745-5.76-1.214-8.623-.257-1.57-.734-3.103-1.112-4.652zM11.303 30.547a10.328 10.328 0 014.003 3.117 1.155 1.155 0 00.838.383c1.244-.08 2.483-.238 3.82-.378l-3.976-4.665-4.685 1.543z"/><path d="M59.2 17.295c1.37-.447 2.048.634 2.85 1.336.84.734.833.878.595 1.943a3.7 3.7 0 01-3.445-3.279zM46.766 37.364c-.096.16-.213.595-.486.742a1.088 1.088 0 01-1.017-.054c-.775-.958-1.89-1.007-2.931-1.303-.313-.089-.758-.394-.784-.639a1.292 1.292 0 01.52-.927 3.189 3.189 0 014.649 1.682c.02.092.019.189.049.5zM37.687 9.6a13.71 13.71 0 011.887.374.915.915 0 01.529.673c-.011.248-.31.53-.55.706a1.595 1.595 0 01-.684.132c-.792.109-1.586.202-2.376.322-.498.076-.963.09-1.197-.463-.259-.613.196-.883.622-1.076.626-.285 1.289-.491 1.769-.669zM74.72 22.372a5.254 5.254 0 011.233-.84 3.127 3.127 0 013.603 2.016 1.528 1.528 0 01-.295 1.13c-.332.394-.737.138-1.12-.132-.613-.43-1.284-.779-1.92-1.176-.435-.27-.854-.566-1.5-.998zM9.367 18.89c-.056-.027-.451-.098-.582-.322a1.188 1.188 0 01.003-.93c.375-.886 2.664-1.582 3.55-1.128a1.122 1.122 0 01.646 1.296c-.1.574-.578.5-1 .566-.79.125-1.571.308-2.617.519zM15.17 44.412c-.156.205-.314.6-.585.706a.984.984 0 01-.828-.339 4.687 4.687 0 01-.984-4.003 1.19 1.19 0 01.715-.72c.181-.06.662.24.726.46.352 1.227.619 2.478.956 3.896zM2.317 38.613a6.42 6.42 0 01-.07-1.302 4.77 4.77 0 011.949-3.014 1.74 1.74 0 011.286-.206.652.652 0 01.44 1 2.81 2.81 0 01-.386.75c-.949.988-1.927 1.95-2.895 2.92zM21.929 27.115a5.542 5.542 0 011.78-3.21.507.507 0 01.904.21 2.783 2.783 0 01-.663 2.639c-.502.639-1.2.595-2.021.361zM54.953 5.833a2.26 2.26 0 012.452-1.037.908.908 0 01.667.551 1.001 1.001 0 01-.477.753c-.87.495-1.692.169-2.642-.267zM10.938 53.804c-.08-1.07.663-1.658 1.366-2.209a.606.606 0 01.97.66 13.533 13.533 0 01-1.049 2.606c-.21.417-.983.258-1.162-.217a3.868 3.868 0 01-.125-.84zM13.902 11.883c.001-.656-.064-1.257.527-1.589.69-.387 1.335-.944 2.22-.783.457.083.682.361.496.811a3.054 3.054 0 01-3.243 1.56zM52.784 36.737a5.423 5.423 0 011.246.218c.249.11.406.425.605.648-.199.171-.373.432-.601.493a11.312 11.312 0 01-1.543.238c-.466.058-.966-.04-.936-.573.018-.333.387-.685.673-.946.14-.127.45-.067.556-.078zM37.672 3.73c-.889-.166-1.549-.259-2.192-.419a.905.905 0 01-.72-1.077c.104-.528.631-.53 1.056-.43.643.15 1.271.364 1.903.56.45.14.839.427.637.917-.104.253-.546.366-.684.45zM47.197 8.446a2.653 2.653 0 01-1.78-2.561c1.294-.157 1.918.686 1.78 2.561z"/></svg>