<svg height="100" width="100" xmlns="http://www.w3.org/2000/svg" viewBox="0 0 50 50"><path d="M19.539 45.346c1.635 0 3.265-.185 4.854-.539a20.43 20.43 0 004.965.614c11.467 0 21.103-8.616 19.46-17.958-.845-4.832-4.612-8.801-10.074-10.615-3.888-1.292-8.301-6.94-8.91-11.402a1 1 0 00-1.726-.543l-2.56 2.78c-.196.214-.29.501-.258.79l.035.308c.248 1.809-.144 3.566-.909 5.183a11.228 11.228 0 01-1.629-5.824v-.285a1 1 0 00-.505-.869l-3.96-2.253a1 1 0 00-1.495.87c0 4.503-3.604 10.695-7.274 12.497-5.174 2.523-8.369 6.964-8.545 11.876-.359 9.186 9.18 15.37 18.531 15.37zM27.331 8.7l.965-1.048c1.393 4.452 5.393 9.624 9.817 11.095 4.753 1.578 8.019 4.965 8.736 9.061 1.458 8.293-7.494 15.613-17.49 15.613-7.185 0-13.478-4.117-14.518-9.988-.76-4.303 1.349-8.744 5.641-11.88 4.076-2.99 7.45-7.835 6.849-12.853zM10.432 19.896c3.875-1.903 7.56-7.697 8.271-12.644l2.087 1.186a13.255 13.255 0 002.497 7.466c-1 1.43-2.39 2.864-3.986 4.035-4.921 3.596-7.325 8.77-6.43 13.843.732 4.13 3.678 7.563 7.541 9.545-8.587.369-17.726-5.094-17.405-13.275.15-4.166 2.924-7.96 7.425-10.156z"/><path d="M6.235 31.252a1 1 0 101.95-.442c-.847-3.739 1.096-4.897 1.205-4.959a1 1 0 00-.924-1.773c-.141.072-3.442 1.832-2.23 7.174zm12.088-.578c0 5.851 5.557 10.611 12.387 10.611 6.831 0 12.389-4.76 12.389-10.611 0-5.85-5.558-10.61-12.389-10.61-6.83 0-12.387 4.76-12.387 10.61zm12.387-8.61c5.728 0 10.389 3.862 10.389 8.61 0 4.748-4.66 8.611-10.389 8.611s-10.387-3.863-10.387-8.611c0-4.748 4.66-8.61 10.387-8.61z"/><path d="M32.453 26.51a1 1 0 001.253-.655l.35-1.123a1 1 0 00-1.909-.597l-.35 1.123a1 1 0 00.656 1.253zm-4.828.562a1 1 0 001.253-.655l.351-1.123a1 1 0 00-1.909-.598l-.35 1.123a1 1 0 00.655 1.253zm-3.584 3.5a1 1 0 001.253-.655l.351-1.123a1 1 0 00-1.91-.598l-.35 1.123a1 1 0 00.656 1.253zm1.087 1.463a.999.999 0 00-1.252.656l-.28.898a.999.999 0 101.909.595l.28-.897a1 1 0 00-.657-1.252zm5.144 6.009a1 1 0 001.252-.656l.281-.898a.999.999 0 10-1.91-.596l-.28.898a1 1 0 00.657 1.252zm-3.454-.449a1 1 0 001.253-.655l.281-.897a1 1 0 00-1.91-.598l-.28.898a1 1 0 00.656 1.252zm.698-5.258a1 1 0 001.253-.657l.219-.702a1 1 0 00-1.91-.595l-.218.7a1 1 0 00.656 1.254zm5.268-1.604l-.22.7a1 1 0 101.91.596l.219-.7a1 1 0 00-.656-1.252.995.995 0 00-1.253.656zm-2.122-.371a1 1 0 001.253-.657l.219-.701a1 1 0 00-1.91-.596l-.218.701a1 1 0 00.656 1.253zm3.197 4.382l-.22.701a1 1 0 001.91.598l.219-.701a1 1 0 00-1.91-.598zm3.036-4.941a1 1 0 001.248-.666l.214-.703a1 1 0 10-1.913-.582l-.214.703a1 1 0 00.665 1.248zm.255 1.63l-.219.702a1 1 0 001.91.595l.218-.7a1 1 0 00-1.91-.597z"/></svg>