<svg height="100" width="100" xmlns="http://www.w3.org/2000/svg" viewBox="0 0 60 55"><g fill-rule="evenodd"><path d="M22.001 23.992c-11.964 0-20 4.137-20 8 0 3.863 8.036 8 20 8s20-4.137 20-8c0-3.863-8.036-8-20-8m0 18c-12.337 0-22-4.393-22-10s9.663-10 22-10 22 4.393 22 10-9.663 10-22 10"/><path d="M6.162 31.988c1.124 1.159 6.276 4.004 15.84 4.004 9.544 0 14.707-2.839 15.838-3.996-1.124-1.159-6.277-4.004-15.839-4.004-9.545 0-14.708 2.839-15.839 3.996m15.84 6.004c-11.238 0-17.686-3.815-17.99-5.859l-.022-.149.022-.148c.307-2.039 6.757-5.844 17.99-5.844 11.236 0 17.683 3.814 17.988 5.859l.022.149-.022.148c-.307 2.039-6.758 5.844-17.989 5.844"/><path d="M22.433 55c-.27 0-.435-.007-.48-.01-.281.014-9.181.368-15.622-5.773C2.13 45.212 0 39.417 0 31.992a1 1 0 112 0c0 6.848 1.916 12.152 5.696 15.764 5.807 5.55 14.167 5.24 14.258 5.237.175.007 8.542.314 14.35-5.237C40.084 44.144 42 38.84 42 31.992a1 1 0 112 0c0 7.425-2.13 13.22-6.33 17.225C31.998 54.626 24.417 55 22.433 55"/><path d="M21.001 36.992h2v-10h-2z"/><path d="M5.001 32.992h34v-2h-34z"/><path d="M15.002 36.992a.998.998 0 01-.497-1.868l14-8a.996.996 0 011.364.372.998.998 0 01-.372 1.364l-14 8a.988.988 0 01-.495.132"/><path d="M29 36.992a.988.988 0 01-.495-.132l-14-8a.998.998 0 01-.372-1.364.996.996 0 011.364-.372l14 8A.998.998 0 0129 36.992m9.001-26c-2.206 0-4-1.794-4-4a1 1 0 112 0c0 1.103.897 2 2 2s2-.897 2-2a1 1 0 112 0c0 2.206-1.794 4-4 4m9 6a.999.999 0 01-.707-1.707l1-1a.999.999 0 111.414 1.414l-1 1a.997.997 0 01-.707.293m-21-3a.999.999 0 01-.707-1.707l1-1a.999.999 0 111.414 1.414l-1 1a.997.997 0 01-.707.293m9 6a.999.999 0 01-.707-1.707l1-1a.999.999 0 111.414 1.414l-1 1a.997.997 0 01-.707.293m-23 26a.999.999 0 01-.707-1.707l1-1a.999.999 0 111.414 1.414l-1 1a.997.997 0 01-.707.293m21 0a.997.997 0 01-.707-.293l-1-1a.999.999 0 111.414-1.414l1 1a.999.999 0 01-.707 1.707m-11 4a.999.999 0 01-.707-1.707l1-1a.999.999 0 111.414 1.414l-1 1a.997.997 0 01-.707.293m30-23a.999.999 0 01-.707-1.707l1-1a.999.999 0 111.414 1.414l-1 1a.997.997 0 01-.707.293"/><path d="M22.001 21.992c12.337 0 22 4.393 22 10 0 3.5-.484 6.67-1.442 9.452 8.916-2.087 15.442-10.158 15.442-19.452 0-11.028-8.972-20-20-20s-20 8.972-20 20l.002.169a48.613 48.613 0 013.998-.17zm17.323 22.01l.732-1.65c1.291-2.911 1.945-6.397 1.945-10.36 0-3.863-8.036-8-20-8-1.569 0-3.195.086-4.834.256l-1.04.107-.082-1.376a14.002 14.002 0 01-.044-.987c0-12.131 9.869-22 22-22s22 9.869 22 22c0 10.875-8.121 20.228-18.891 21.757l-1.786.253z"/></g></svg>