<svg height="100" width="100" xmlns="http://www.w3.org/2000/svg"><circle cx="59.8" cy="43.19" r="1.97"/><circle cx="65.7" cy="40.15" r="1.97"/><circle cx="65.7" cy="48.52" r="1.97"/><path d="M84.912 56.385H72.534c3.975-7.667 4.35-15.281 1.048-22.747-.853-1.93-.936-4.154-.229-6.103.927-2.552.675-4.799-.69-6.164-1.366-1.366-3.521-1.623-6.069-.724a8.346 8.346 0 01-6.319-.314c-11.35-5.254-22.309-2.028-34.489 10.152-11.655 11.657-15.031 23.301-10.031 34.609.853 1.93.937 4.154.229 6.103-.927 2.552-.675 4.798.69 6.164 1.366 1.366 3.521 1.623 6.069.724a8.351 8.351 0 016.319.313c3.487 1.614 6.935 2.428 10.394 2.427 3.379 0 6.768-.78 10.21-2.346a23.985 23.985 0 0012.686 3.615c13.308 0 24.135-10.827 24.135-24.135a1.576 1.576 0 00-1.575-1.574zM62.351 78.946c-11.042 0-20.12-8.573-20.928-19.413h3.123c.487 5.55 3.513 10.38 7.914 13.314.031.024.058.052.092.074.04.026.086.037.127.059a17.763 17.763 0 0019.342.002c.043-.023.089-.033.13-.06.035-.023.062-.052.094-.076 4.4-2.934 7.424-7.763 7.911-13.312h3.122c-.807 10.839-9.885 19.412-20.927 19.412zM18.9 75.134c-.451-.451-.434-1.548.043-2.862.997-2.745.888-5.747-.309-8.451-4.483-10.138-1.415-20.314 9.38-31.109 11.272-11.272 20.814-14.209 30.94-9.521 2.761 1.278 5.847 1.429 8.689.425 1.282-.453 2.353-.46 2.794-.018.451.451.434 1.548-.043 2.862-.997 2.745-.888 5.747.309 8.452 3.128 7.074 2.568 14.166-1.716 21.474H39.791c-.869 0-1.575.705-1.575 1.575 0 7.34 3.298 13.921 8.485 18.351-5.513 2.051-10.831 1.771-16.318-.769a11.59 11.59 0 00-4.871-1.082c-1.287 0-2.576.218-3.818.657-1.282.451-2.353.457-2.794.016zm36.744-4.06l6.707-10.242 6.708 10.242a14.64 14.64 0 01-6.707 1.622c-2.416 0-4.695-.588-6.708-1.622zm-2.626-1.737c-2.91-2.391-4.9-5.862-5.321-9.804h11.741l-6.42 9.804zm18.667 0l-6.421-9.803h11.741c-.421 3.941-2.411 7.412-5.32 9.803z"/><path d="M60.777 68.884a1.661 1.661 0 103.149 0l-1.574-4.661-1.575 4.661zM51.161 64.687a1.662 1.662 0 002.345-.161l3.232-3.709-4.819.989a1.661 1.661 0 00-.758 2.881zM68.548 60.818l3.232 3.709a1.662 1.662 0 101.587-2.72l-4.819-.989z"/></svg>