<svg height="100" width="100" xmlns="http://www.w3.org/2000/svg"><path d="M73.947 55.274a10.34 10.34 0 00-1.199-4.863 10.367 10.367 0 001.016-4.498c0-4.598-2.901-8.425-6.715-9.222-.832-1.75-2.14-3.155-3.719-4.009 1.123-1.214 2.497-1.975 3.467-2.504 1.042-.569 2.026-1.106 1.971-2.272-.02-.408-.207-1.159-1.247-1.604-3.051-1.301-6.852-.837-10.335 1.136.369-1.428 1.062-2.628 1.563-3.497.596-1.029 1.109-1.919.563-2.864-.147-.256-.596-.852-1.562-.852-.115 0-.248.009-.4.031-2.833.41-5.419 2.167-7.349 4.929-1.932-2.762-4.518-4.518-7.347-4.929a2.802 2.802 0 00-.4-.031c-.966 0-1.414.596-1.562.852-.545.944-.032 1.834.562 2.863.501.869 1.195 2.07 1.563 3.498-3.484-1.974-7.281-2.437-10.336-1.136-1.039.444-1.227 1.195-1.247 1.604-.056 1.166.884 1.679 1.971 2.272.97.529 2.345 1.29 3.468 2.504-1.58.854-2.89 2.26-3.722 4.01-3.812.8-6.713 4.626-6.713 9.221 0 1.63.373 3.159 1.015 4.495a10.35 10.35 0 00-1.2 4.866c0 3.741 1.928 6.963 4.7 8.464-.002.08-.015.157-.015.237 0 5.171 3.67 9.377 8.182 9.377a7.23 7.23 0 003.145-.722c.877 4.094 4.096 7.144 7.937 7.144 3.84 0 7.057-3.05 7.933-7.144a7.226 7.226 0 003.144.722c4.516 0 8.189-4.206 8.189-9.377 0-.081-.013-.159-.015-.239 2.769-1.503 4.694-4.723 4.694-8.462zm-3.183-9.361c0 .616-.075 1.209-.209 1.771-1.068-.889-2.328-1.486-3.696-1.697a10.313 10.313 0 001.145-5.692c1.637 1.071 2.76 3.18 2.76 5.618zM40.568 57.501c-2.86 0-5.188-2.861-5.188-6.379 0-3.519 2.327-6.381 5.188-6.381.438 0 .86.082 1.267.209.134 3.135 1.612 5.866 3.792 7.453-1.514 1.103-2.688 2.757-3.312 4.717a4.294 4.294 0 01-1.747.381zm14.618-13.012c0 3.518-2.325 6.379-5.184 6.379-2.86 0-5.188-2.861-5.188-6.379 0-3.52 2.327-6.383 5.188-6.383 2.858 0 5.184 2.864 5.184 6.383zM44.814 60.321c0-3.52 2.327-6.383 5.188-6.383 2.858 0 5.184 2.863 5.184 6.383 0 3.516-2.325 6.375-5.184 6.375-2.86 0-5.188-2.859-5.188-6.375zm12.871-3.202c-.624-1.96-1.797-3.613-3.311-4.716 2.18-1.587 3.657-4.317 3.791-7.452.408-.128.831-.21 1.271-.21 2.858 0 5.184 2.862 5.184 6.381 0 3.518-2.325 6.379-5.184 6.379a4.31 4.31 0 01-1.751-.382zm6.867-13.307c-1.402-1.292-3.181-2.07-5.116-2.07a6.97 6.97 0 00-1.569.179c-.416-1.67-1.225-3.146-2.305-4.297.932-1.706 2.503-2.839 4.296-2.839 2.858 0 5.184 2.862 5.184 6.381a7.555 7.555 0 01-.49 2.646zm-24.74-12.014c-1.022-1.473-2.305-2.503-3.447-3.245 2.333.04 5.05 1.206 7.296 3.135.453.39 1.093.427 1.632.164.538-.262.867-.864.839-1.462-.024-.535-.049-1.079-.081-1.624-.106-1.791-.666-3.34-1.254-4.568 2.062 1.305 3.321 3.509 3.853 4.611a1.5 1.5 0 001.351.849h.001a1.503 1.503 0 001.351-.85c.532-1.105 1.795-3.32 3.858-4.624-.592 1.231-1.155 2.786-1.263 4.588l-.082 1.705a1.502 1.502 0 002.476 1.211c2.244-1.929 4.96-3.094 7.294-3.135-1.142.742-2.424 1.772-3.444 3.244l-.005.006c-.11-.005-.219-.019-.33-.019-2.781 0-5.228 1.609-6.707 4.046a7.252 7.252 0 00-3.148-.724 7.245 7.245 0 00-3.151.725c-1.478-2.438-3.923-4.047-6.702-4.047-.112 0-.221.014-.333.02l-.004-.006zm.336 2.986c1.791 0 3.361 1.134 4.292 2.839-1.081 1.151-1.89 2.627-2.306 4.296a7.066 7.066 0 00-1.566-.178c-1.937 0-3.716.778-5.12 2.071a7.512 7.512 0 01-.49-2.647c.001-3.519 2.329-6.381 5.19-6.381zm-8.151 5.514a10.299 10.299 0 001.146 5.689c-1.368.211-2.627.809-3.695 1.696a7.628 7.628 0 01-.209-1.771c-.001-2.435 1.121-4.541 2.758-5.614zm-.672 20.232c-1.368-1.148-2.272-3.069-2.272-5.256 0-2.788 1.463-5.158 3.492-6.023-.107.605-.164 1.23-.164 1.871 0 2.034.574 3.913 1.539 5.452-1.149 1.023-2.05 2.384-2.595 3.956zm2.413 3.446c0-2.128.858-4 2.162-5.158 1.326 1.059 2.933 1.684 4.668 1.684.426 0 .841-.045 1.249-.119.013 2.266.73 4.342 1.915 5.957-.766 2.349-2.631 4.014-4.812 4.014-2.857-.001-5.182-2.862-5.182-6.378zm16.264 12.798c-2.844 0-5.159-2.829-5.185-6.318a9.498 9.498 0 001.244-1.922 7.344 7.344 0 003.941 1.162c1.429 0 2.771-.424 3.941-1.164a9.51 9.51 0 001.24 1.92c-.024 3.491-2.337 6.322-5.181 6.322zm11.076-6.421c-2.179 0-4.043-1.667-4.807-4.017 1.182-1.615 1.898-3.69 1.911-5.954a7.02 7.02 0 001.253.119c1.734 0 3.341-.626 4.666-1.685 1.307 1.159 2.166 3.031 2.166 5.159.001 3.517-2.328 6.378-5.189 6.378zm7.602-9.827c-.546-1.57-1.447-2.933-2.597-3.954.963-1.538 1.536-3.417 1.536-5.45 0-.641-.057-1.266-.164-1.871 2.029.865 3.492 3.235 3.492 6.023 0 2.185-.903 4.104-2.267 5.252z"/></svg>