<svg height="100" width="100" xmlns="http://www.w3.org/2000/svg" version="1.2" baseProfile="tiny"><path d="M68.875 29.875c-4.584 0-8.489 2.925-9.975 7.001-.606-1.962-1.26-6.402-1.3-12.321.14-1.807.236-3.641.29-5.496 9.95-.647 13.414-7.143 13.561-7.43l.474-.926-.946-.437c-.18-.085-4.495-2.036-8.837-.375-1.907.728-3.5 2.038-4.77 3.884-3.314-9.476-13.277-7.777-13.383-7.758l-1.125.208.383 1.092c.11.329 2.769 7.845 12.588 10.198-.353 7.401-3.225 14.14-6.48 15.662.087-.548.145-1.105.145-1.677 0-5.858-4.767-10.625-10.625-10.625S28.25 25.642 28.25 31.5s4.767 10.625 10.625 10.625c4.464 0 8.288-2.772 9.858-6.682 2.547-.305 4.67-2.186 6.23-5.15-1.034 7.645-2.848 14.687-5.27 20.779-1.658 1.97-3.812 3.25-6.365 3.578-.88-4.978-5.227-8.775-10.453-8.775-5.858 0-10.625 4.767-10.625 10.625s4.767 10.625 10.625 10.625c5.81 0 10.54-4.69 10.618-10.482a11.308 11.308 0 004.453-1.564C42.501 66.52 34.762 73.735 26.27 73.885a10.583 10.583 0 00-7.394-3.01c-5.858 0-10.625 4.767-10.625 10.625s4.767 10.625 10.625 10.625S29.5 87.358 29.5 81.5c0-2.099-.62-4.052-1.674-5.701a18.567 18.567 0 005.202-1.338 6.975 6.975 0 00-2.153 5.039c0 3.86 3.14 7 7 7s7-3.14 7-7a6.975 6.975 0 00-2.169-5.053c1.734-1.856 2.449-6.5 2.455-10.397.317-.445.625-.908.932-1.374.198 3.803.696 5.714 1.134 6.674a10.555 10.555 0 00-1.977 6.15c0 5.858 4.767 10.625 10.625 10.625S66.5 81.358 66.5 75.5s-4.767-10.625-10.625-10.625a10.58 10.58 0 00-7.343 2.964c-.266-1.217-.506-3.936-.524-8.32.3-.537.597-1.08.886-1.639.2 3.682 3.25 6.62 6.981 6.62 3.86 0 7-3.14 7-7s-3.14-7-7-7a6.958 6.958 0 00-4.308 1.495c.05-.128.104-.252.155-.381 2.309-3.119 3.65-7.439 3.705-12.31.369-1.653.696-3.347.987-5.07.406 2.413 1.008 4.482 1.89 5.203-.035.35-.054.704-.054 1.063 0 5.858 4.767 10.625 10.625 10.625S79.5 46.358 79.5 40.5s-4.767-10.625-10.625-10.625zm-30 10.25c-4.756 0-8.625-3.87-8.625-8.625s3.87-8.625 8.625-8.625S47.5 26.745 47.5 31.5s-3.87 8.625-8.625 8.625zm-6 25c-4.756 0-8.625-3.87-8.625-8.625s3.87-8.625 8.625-8.625S41.5 51.745 41.5 56.5s-3.87 8.625-8.625 8.625zM48 68.319l.065.002a9.16 9.16 0 00-.065.072v-.074zm7.875-1.444c4.756 0 8.625 3.87 8.625 8.625s-3.87 8.625-8.625 8.625-8.625-3.87-8.625-8.625 3.87-8.625 8.625-8.625zm0-14.375c2.757 0 5 2.243 5 5s-2.243 5-5 5-5-2.243-5-5 2.243-5 5-5zm6.964-40.734c1.03-.396 2.074-.537 3.039-.537 1.253 0 2.371.237 3.147.462-1.275 1.666-4.567 4.907-11.1 5.377l.002-.219c1.175-2.565 2.823-4.28 4.912-5.083zm-17.192-3.9c2.601-.075 8.29.591 10.157 7.6-6.262-1.646-9.093-5.606-10.157-7.6zM18.875 90.124c-4.756 0-8.625-3.87-8.625-8.625s3.87-8.625 8.625-8.625S27.5 76.745 27.5 81.5s-3.87 8.625-8.625 8.625zm24-10.625c0 2.757-2.243 5-5 5s-5-2.243-5-5 2.243-5 5-5 5 2.243 5 5zm-1.821-6.229a6.949 6.949 0 00-4.563-.632c2.335-1.501 4.538-3.486 6.58-5.9-.285 4.157-1.196 6.437-2.017 6.532zm27.821-24.146c-4.756 0-8.625-3.87-8.625-8.625s3.87-8.625 8.625-8.625S77.5 35.745 77.5 40.5s-3.87 8.625-8.625 8.625z"/><circle cx="33.25" cy="34.5" r="1.86"/><circle cx="73.25" cy="44.5" r="1.86"/><circle cx="59.25" cy="80.5" r="1.86"/><circle cx="29.25" cy="61.5" r="1.86"/><circle cx="15.25" cy="86.5" r="1.86"/><circle cx="37.25" cy="81.5" r="1.86"/><circle cx="58.25" cy="58.5" r="1.86"/></svg>