<svg height='100px' width='100px'  fill="#000000" xmlns="http://www.w3.org/2000/svg" data-name="Layer 1" viewBox="0 0 64 64" x="0px" y="0px"><title>apricot, nectarine, peach, plum copy, fruit, fresh, food, healthy, diet, sweet, organic</title><path d="M35.4,18.48a18.17,18.17,0,0,0-1.91-.33,18.66,18.66,0,0,0,0-3.24A17.68,17.68,0,0,0,39.2,16a8.69,8.69,0,0,0,4.16-.94c4.67-2.52,6-8.15,6.1-8.38A1.51,1.51,0,0,0,48.67,5c-.29-.15-7.28-3.59-12-1A11.91,11.91,0,0,0,32,8.75a11.84,11.84,0,0,0-4.17-5,1.5,1.5,0,1,0-1.66,2.5c5.13,3.42,4.35,11.48,4.34,11.62a1.2,1.2,0,0,0,0,.19C22.15,18.4,15.1,24.28,12,31a25,25,0,0,0-.9,18.21c1.38,3.82,3.69,6.57,6.69,8a13.55,13.55,0,0,0,8.94.8,13.48,13.48,0,0,0,8.4,3,13.41,13.41,0,0,0,9.43-4.36,25.08,25.08,0,0,0,6.88-16.92C51.37,30.92,45.87,20.79,35.4,18.48ZM38.06,6.59c2.3-1.23,5.95-.27,8.09.56a10.17,10.17,0,0,1-4.21,5.26c-2.29,1.23-5.95.27-8.09-.56A10.17,10.17,0,0,1,38.06,6.59Zm4.32,47.93A10.64,10.64,0,0,1,35.08,58a10.7,10.7,0,0,1-6.91-2.67,1.44,1.44,0,0,0-.33-.28c-3.65-3.27-6.06-8.92-6.06-15.33a23.38,23.38,0,0,1,2.85-11.28A1.5,1.5,0,0,0,22,27a26.55,26.55,0,0,0-3.24,12.76A24.64,24.64,0,0,0,24,55.33a10.12,10.12,0,0,1-5-.9c-2.84-1.33-4.36-4.14-5.13-6.27a21.79,21.79,0,0,1,.8-15.91C17.83,25.54,26,19.45,34.76,21.4S48.37,32.3,48.39,39.73A21.9,21.9,0,0,1,42.38,54.52Z"></path></svg>