<svg height='100px' width='100px'  fill="#000000" xmlns="http://www.w3.org/2000/svg" xmlns:xlink="http://www.w3.org/1999/xlink" version="1.1" x="0px" y="0px" viewBox="0 0 60 60" style="enable-background:new 0 0 60 60;" xml:space="preserve"><g><path d="M28,59C14.467,59,2.431,51.546,0.09,46.415C0.031,46.285,0,46.143,0,46v-7c0-0.286,0.123-0.559,0.337-0.749   s0.498-0.276,0.784-0.244l1.19,0.146c4.39,0.541,9.854,1.215,15.319,1.215c6.745,0,11.91-1.016,15.792-3.104   C43.002,31.109,43.991,13.132,44,12.951C44.027,12.418,44.467,12,45,12h8c0.275,0,0.539,0.113,0.729,0.314   C59.35,18.273,60,28.115,60,35C60,50.756,43.902,59,28,59z M2,45.771C4.018,49.695,14.7,57,28,57c14.908,0,30-7.557,30-22   c0-3.706,0-14.856-5.439-21h-6.629c-0.34,3.981-2.229,19.005-11.561,24.025c-4.181,2.248-9.656,3.342-16.74,3.342   c-5.588,0-11.119-0.682-15.563-1.229L2,40.13V45.771z"></path><path d="M46.234,14.029c-0.433,0-0.832-0.283-0.959-0.72L43.04,5.665C43.014,5.574,43,5.48,43,5.385V2c0-0.552,0.448-1,1-1h9   c0.552,0,1,0.448,1,1v11c0,0.552-0.448,1-1,1s-1-0.448-1-1V3h-7v2.242l2.195,7.506c0.156,0.53-0.148,1.085-0.678,1.241   C46.423,14.016,46.328,14.029,46.234,14.029z"></path><path d="M20.742,47.729c-6.07,0-11.714-0.822-15.017-1.767c-0.531-0.151-0.838-0.705-0.687-1.235   c0.151-0.531,0.705-0.838,1.236-0.688c6.364,1.818,22.859,3.222,32.148-1.775C47.99,37.117,48.991,19.133,49,18.951   c0.027-0.551,0.496-0.986,1.048-0.949c0.552,0.027,0.978,0.496,0.95,1.047c-0.038,0.785-1.063,19.293-11.628,24.977   C34.244,46.782,27.248,47.729,20.742,47.729z"></path></g></svg>