<svg height='100px' width='100px'  fill="#000000" xmlns="http://www.w3.org/2000/svg" xmlns:xlink="http://www.w3.org/1999/xlink" version="1.1" x="0px" y="0px" viewBox="0 0 100 100" enable-background="new 0 0 100 100" xml:space="preserve"><g><path d="M32.249,87.203c-3.004,0-5.245-1.094-5.91-1.459c-5.243-0.489-8.02-5.018-8.137-5.213   c-1.208-2.014-2.198-4.485-2.717-6.782c-0.317-1.402-0.474-3.025-0.466-4.823c0.033-6.057,2.604-10.947,6.876-13.083   c1.439-0.721,3.022-1.073,4.455-0.989c1.12,0.073,2.279,0.416,3.447,1.02c0.701,0.361,1.287,0.829,1.854,1.281   c0.24,0.191,0.479,0.384,0.728,0.564c0.204,0.148,0.422,0.283,0.647,0.399c1.006,0.523,2.207,0.777,3.672,0.777   c0.459,0,0.919-0.024,1.375-0.063c1.436-0.126,2.9,0.113,4.389,0.686c0.762,0.295,1.501,0.601,2.177,1.097   c2.302,1.69,3.947,4.761,4.294,8.013c0.207,1.929-0.191,3.994-1.219,6.313c-0.773,1.741-1.782,3.406-2.998,4.95   c-0.913,1.157-1.981,2.283-3.176,3.346c-0.419,0.372-0.907,0.8-1.419,1.189C37.696,86.269,35.048,87.203,32.249,87.203z    M25.906,56.64c-1.021,0-2.159,0.289-3.205,0.813c-3.653,1.827-5.852,6.119-5.881,11.482c-0.008,1.661,0.134,3.148,0.421,4.418   c0.478,2.117,1.391,4.396,2.504,6.253c0.023,0.038,2.503,4.043,6.932,4.36c0.146,0.01,0.286,0.056,0.41,0.133   c0.019,0.012,2.166,1.305,5.162,1.305c2.396,0,4.679-0.812,6.782-2.411c0.462-0.351,0.901-0.736,1.313-1.101   c1.115-0.993,2.111-2.041,2.958-3.116c1.124-1.425,2.055-2.961,2.767-4.564c0.896-2.022,1.247-3.786,1.075-5.393   c-0.296-2.765-1.663-5.353-3.57-6.753c-0.498-0.366-1.092-0.61-1.76-0.869c-1.23-0.473-2.42-0.674-3.586-0.571   c-0.508,0.044-1.02,0.07-1.529,0.07c-1.762,0-3.233-0.32-4.5-0.979c-0.305-0.157-0.602-0.341-0.88-0.544   c-0.271-0.197-0.53-0.404-0.79-0.611c-0.521-0.416-1.013-0.809-1.556-1.089c-0.935-0.482-1.881-0.767-2.737-0.822   C26.127,56.644,26.017,56.64,25.906,56.64z"></path></g><g><path d="M68.331,86.295c-2.224,0-4.426-0.61-6.545-1.813c-0.559-0.316-1.082-0.662-1.565-0.988   c-1.326-0.896-2.534-1.869-3.592-2.894c-1.41-1.365-2.632-2.881-3.631-4.504c-1.327-2.162-1.998-4.156-2.051-6.097   c-0.089-3.27,1.134-6.532,3.19-8.514c0.606-0.585,1.296-0.985,2.009-1.377c1.416-0.772,2.849-1.198,4.259-1.266   c2.155-0.101,3.713-0.538,4.905-1.377c0.221-0.156,0.415-0.315,0.592-0.484c0.222-0.213,0.435-0.437,0.647-0.658   c0.5-0.523,1.018-1.064,1.663-1.516c1.063-0.742,2.198-1.25,3.28-1.467c1.381-0.277,3.021-0.137,4.547,0.385   c4.521,1.548,7.719,6.053,8.558,12.051c0.25,1.781,0.311,3.411,0.182,4.845c-0.207,2.345-0.858,4.926-1.789,7.08l-0.035-0.015   c-0.501,1.222-2.746,5.21-7.332,6.266C74.905,84.483,72.173,86.295,68.331,86.295z M72.97,54.999c-0.394,0-0.771,0.036-1.122,0.107   c-0.842,0.168-1.742,0.575-2.604,1.178c-0.499,0.348-0.934,0.802-1.394,1.282c-0.23,0.241-0.461,0.482-0.702,0.714   c-0.242,0.232-0.504,0.447-0.801,0.657c-1.951,1.372-4.277,1.629-5.857,1.704c-1.136,0.054-2.307,0.405-3.479,1.046   c-0.601,0.329-1.178,0.662-1.625,1.094c-1.704,1.643-2.716,4.389-2.641,7.169c0.045,1.616,0.629,3.317,1.785,5.203   c0.92,1.494,2.048,2.892,3.35,4.153c0.982,0.951,2.108,1.858,3.348,2.694c0.453,0.307,0.941,0.629,1.446,0.916   c1.845,1.047,3.748,1.578,5.656,1.578c3.768,0,6.307-2.053,6.332-2.074c0.112-0.093,0.245-0.156,0.388-0.186   c4.33-0.9,6.25-5.163,6.286-5.245c0-0.001,0.001-0.002,0.001-0.002c0.856-1.985,1.458-4.364,1.648-6.527   c0.117-1.298,0.06-2.789-0.172-4.435c-0.742-5.313-3.492-9.274-7.356-10.598C74.635,55.148,73.774,54.999,72.97,54.999z"></path></g><g><path d="M32.613,59.818c-0.497,0-0.9-0.403-0.9-0.9c0-0.472,0.362-0.857,0.823-0.896c0.024-0.024,0.049-0.053,0.076-0.081   c0.269-0.281,0.445-1.144,0.552-1.658c0.041-0.2,0.08-0.387,0.119-0.547c0.569-2.338,0.957-4.78,1.333-7.143   c0.265-1.667,0.464-3.385,0.655-5.046c0.396-3.414,0.804-6.944,1.807-10.319c1.201-4.035,2.853-7.511,5.049-10.624   c1.638-2.32,3.719-4.33,6.021-5.814c0.07-0.046,0.148-0.081,0.229-0.105c0.127-0.038,1.243-0.348,2.149,0.261   c0.383,0.256,0.86,0.77,0.959,1.756c0.053,0.521-0.229,1.033-0.665,1.756c-0.099,0.164-0.191,0.309-0.234,0.407   c-0.291,0.676-0.513,1.303-0.676,1.914c-0.337,1.251-0.501,2.63-0.487,4.101c0.015,1.689,0.288,3.255,0.835,4.785   c1.341,3.749,2.776,6.933,4.52,10.019c1.532,2.713,3.329,5.386,5.493,8.172c0.498,0.621,4.967,6.226,5.842,8.353   c0.189,0.46-0.03,0.986-0.489,1.175c-0.46,0.188-0.985-0.029-1.175-0.489c-0.658-1.6-4.259-6.262-5.591-7.924   c-2.227-2.866-4.071-5.611-5.647-8.401c-1.795-3.177-3.271-6.449-4.647-10.298c-0.615-1.722-0.923-3.48-0.94-5.375   c-0.014-1.634,0.171-3.176,0.55-4.583c0.186-0.694,0.435-1.402,0.763-2.163c0.066-0.152,0.195-0.375,0.345-0.621   c0.121-0.201,0.337-0.559,0.403-0.734c-0.021-0.129-0.064-0.289-0.157-0.352c-0.127-0.086-0.375-0.076-0.532-0.054   c-2.058,1.352-3.92,3.165-5.395,5.254c-2.082,2.951-3.65,6.255-4.795,10.1c-0.958,3.225-1.356,6.676-1.743,10.013   c-0.194,1.681-0.395,3.418-0.665,5.115c-0.382,2.405-0.775,4.884-1.363,7.296c-0.035,0.143-0.068,0.306-0.104,0.481   c-0.173,0.839-0.388,1.882-1.002,2.526C33.678,59.433,33.313,59.818,32.613,59.818z M32.613,58.019v0.899l0.003-0.9   C32.615,58.018,32.614,58.018,32.613,58.019z"></path></g><g><path d="M36.024,60.679c-0.03,0-0.061-0.002-0.091-0.005c-0.495-0.05-0.855-0.491-0.806-0.985   c0.069-0.686,1.697-16.808,2.229-20.17c0.065-0.634,1.853-16.653,11.327-19.547c0.475-0.146,0.979,0.123,1.123,0.598   c0.146,0.476-0.122,0.979-0.598,1.123c-8.347,2.55-10.053,17.906-10.068,18.061c-0.529,3.359-2.205,19.948-2.222,20.115   C36.872,60.332,36.48,60.679,36.024,60.679z"></path></g><g><path d="M62.498,60.42c-0.41,0-0.78-0.282-0.876-0.699c-0.545-2.377-7.027-12.689-9.479-16.463   c-8.473-13.609-6.348-21.35-6.253-21.673c0.139-0.476,0.638-0.754,1.116-0.61c0.476,0.139,0.749,0.636,0.612,1.111   c-0.022,0.08-1.937,7.388,6.043,20.206c0.911,1.401,8.999,13.907,9.714,17.026c0.111,0.484-0.191,0.968-0.676,1.078   C62.633,60.412,62.564,60.42,62.498,60.42z"></path></g><g><path d="M31.485,32.475c-0.044,0-0.089-0.004-0.134-0.01c-0.465-0.069-0.798-0.484-0.765-0.953c0.041-0.6,0.047-1.325,0.048-1.563   c-0.385-2.103-0.446-3.987-0.184-5.604c0.839-5.186,5.141-9.093,10.02-8.901c1.021,0.034,2.086,0.173,3.081,0.402   c0.152,0.036,0.331,0.101,0.519,0.172c0.13,0.049,0.348,0.132,0.428,0.14c0.047-0.006,0.139-0.01,0.238-0.01   c1.138,0,3.297,0.461,3.539,0.514c0.401,0.088,0.693,0.436,0.709,0.846s-0.249,0.779-0.643,0.896l-0.928,0.276   c-0.143,0.043-0.294,0.047-0.438,0.02l-1.626-0.336c-4.054,3.368-10.456,9.245-10.522,9.306c-1.894,1.702-2.46,4.084-2.466,4.107   C32.266,32.189,31.897,32.475,31.485,32.475z M40.167,17.238c-3.844,0-7.257,3.179-7.938,7.395   c-0.162,0.993-0.181,2.117-0.057,3.356c0.39-0.563,0.866-1.132,1.445-1.652c0.056-0.052,5.677-5.212,9.751-8.661   c-0.082-0.032-0.159-0.062-0.226-0.077c-0.879-0.202-1.825-0.326-2.731-0.356L40.167,17.238z"></path></g></svg>