<svg height='100px' width='100px'  fill="#000000" xmlns:x="http://ns.adobe.com/Extensibility/1.0/" xmlns:i="http://ns.adobe.com/AdobeIllustrator/10.0/" xmlns:graph="http://ns.adobe.com/Graphs/1.0/" xmlns="http://www.w3.org/2000/svg" xmlns:xlink="http://www.w3.org/1999/xlink" xmlns:a="http://ns.adobe.com/AdobeSVGViewerExtensions/3.0/" version="1.1" x="0px" y="0px" viewBox="0 0 100 100" enable-background="new 0 0 100 100" xml:space="preserve"><path d="M50.3,32.6c0.1,0,0.2,0,0.3,0c0.2,0,0.4,0,0.7-0.1c1.6-0.3,2.7-1.5,2.7-3.1c0.1-4.2,2.3-9.2,5.6-12.4c1-0.9,1.2-2.2,0.8-3.4  c-0.5-1.3-1.8-2.2-3.2-2.2c-0.8,0-1.6,0.3-2.2,0.9c-1.6,1.6-3.1,3.5-4.3,5.6c-1.4-2.5-3.3-5-5.4-7.1c-5.4-5.3-12.1-8.5-18-8.5  c-0.1,0-0.2,0-0.3,0c-1.8,0-3.2,1.5-3.3,3.3c-0.1,6,3.1,12.9,8.6,18.4C37.6,29.4,44.3,32.6,50.3,32.6z M46.4,25.3  c-3.4-1-6.7-3-9.5-5.9c-2.8-2.8-4.8-6-5.9-9.5c0-0.1-0.1-0.2-0.1-0.3c3.5,1,6.7,3,9.7,5.9c2.8,2.8,4.8,5.9,5.8,9.3  c0.1,0.2,0.1,0.4,0.2,0.6C46.6,25.4,46.5,25.4,46.4,25.3z"></path><path d="M60,33.2c-3.3-0.8-6.8-0.7-10.2,0.4C48,33,46,32.7,44,32.7c-3.2,0-6.4,0.8-9.4,2.3c-11.2,5.7-14.9,19.5-15,29.8  c0,0.1,0.4,0.2,0.4,0.2l0,0c0,0.1-0.4,0.1-0.4,0.2c0.1,10.5,4,23.9,15.2,29.8c2.8,1.5,5.9,2.3,9.1,2.3c2,0,3.9,0,5.7-0.6  c2,0.6,3.9,1.3,6,1.3l0,0c1.7,0,3.4-0.5,5-1c5.5-1.5,10.6-5.8,14.3-11.8c3.4-5.6,5.2-12.6,5.3-20.1C80.1,52.1,73.8,36.5,60,33.2z   M64.4,83c0.5-1,0.5-2.1,0-3.1c-0.6-1-1.7-1.8-2.8-1.9c-0.1,0-0.2,0-0.3,0c-1.1,0-2,0.6-2.6,1.7c-1.8,3.6-5,8.2-10,10.2  c-1.5,0.6-3.1,0.9-4.7,0.9c-2.2,0-4.4-0.6-6.6-1.8C29,84.3,25.9,73.5,25.8,65c0.1-8.4,3.1-19.2,11.6-24c2-1.2,4.2-1.7,6.4-1.7  c1.6,0,3.2,0.3,4.9,0.9c4.9,1.8,8.2,6.5,10,10.2c0.5,1.1,1.5,1.7,2.6,1.7c0.1,0,0.2,0,0.3,0c1.1-0.1,2.2-0.8,2.8-1.9  c0.5-1,0.5-2,0-3.1c-1.4-2.8-3.1-5.2-5.1-7.3c3.3,1,6.4,3.4,8.8,6.7c4.5,6.3,5.5,13.6,5.6,18.6c0,7-2,13.5-5.6,18.6  c-1.5,2.1-3.5,4-5.7,5.3c-1,0.6-2,1.1-3.1,1.4C61.2,88.2,63,85.8,64.4,83z"></path></svg>