<svg height='100px' width='100px'  fill="#000000" xmlns="http://www.w3.org/2000/svg" xmlns:xlink="http://www.w3.org/1999/xlink" version="1.1" x="0px" y="0px" viewBox="0 0 52 52" enable-background="new 0 0 52 52" xml:space="preserve"><g><g><path d="M32.9423065,30.645895c-4.1767445,1.7833118-4.2997608,8.096117-3.5534229,11.874258    c0.793932,4.0190697,4.1034489,8.1320496,8.5301075,7.2367973c4.8908501-0.9891281,5.6348839-7.0848618,4.8803329-11.0658112    c-0.962204-5.0765305-3.5779648-8.8110332-9.1229248-8.1346569c-1.5767174,0.1923275-1.596035,2.694685,0,2.4999981    c3.4119339-0.4161873,5.3196678,1.2766762,6.3127937,4.601593c0.9216499,3.0856018,1.3633995,8.1495934-2.4099236,9.4594383    c-6.1507759,2.1351395-8.2618046-12.226532-3.375164-14.3129387    C35.6792068,32.1747627,34.4069557,30.0205479,32.9423065,30.645895L32.9423065,30.645895z"></path></g><g><path d="M16.4562378,27.3945618C10.6167364,28.3184242,9.2069044,34.335289,8.956665,39.636097    c-0.2112608,4.4751282,3.4992409,8.37286,8.2009144,7.4454346c1.9647598-0.387558,3.0444775-2.0377464,4.275774-3.4916382    c1.9706459-2.3268929,2.1334953-4.119503,2.1179047-7.1309891c-0.011549-2.2307358,0.3539295-4.3093529-1.1037216-6.1051617    c-1.8683681-2.3018036-3.1050758-2.9832821-5.9074268-3.1052742c-1.6085997-0.0700245-1.6052246,2.4301224,0,2.5    c6.8435936,0.2979145,5.6578693,12.7747517,0.3904514,14.7024975c-3.9196672,1.4345016-5.6999769-2.8512764-5.3494577-5.8174744    c0.424468-3.5919647,1.4415512-8.179863,5.5397329-8.8282318C18.7054405,29.5545616,18.0327282,27.1451473,16.4562378,27.3945618    L16.4562378,27.3945618z"></path></g><g><path d="M13.7298164,4.6191077c7.416666,0,14.8333321,0,22.25,0c1.6086311,0,1.6112938-2.5,0-2.5    c-7.4166679,0-14.833334,0-22.25,0C12.1211853,2.1191077,12.1185207,4.6191077,13.7298164,4.6191077L13.7298164,4.6191077z"></path></g><g><path d="M26.0000916,4.4183326c6.3914452,7.3227401,6.3538399,17.5060349,6.312397,26.8246155    c-0.0071526,1.6089077,2.492836,1.6109524,2.5,0c0.024334-5.4708805-0.1901283-10.9397583-1.1864319-16.3307076    c-0.9887276-5.3499632-2.3693123-8.2644272-5.8581982-12.2616758C26.7079334,1.4361989,24.9458218,3.2104454,26.0000916,4.4183326    L26.0000916,4.4183326z"></path></g><g><path d="M24.63344,4.0650206c0.3001595,9.0683451,1.8198223,17.1911201-6.8368263,23.2616081    c-1.3075161,0.9168968-0.0596008,3.08531,1.2617989,2.1586761c4.0192661-2.8185158,6.4109478-5.7403431,7.7365551-10.5324898    c1.4311256-5.1735983,0.510313-9.696166,0.3384724-14.8877935C27.0803299,2.4604421,24.5800896,2.4531889,24.63344,4.0650206    L24.63344,4.0650206z"></path></g><g><path d="M24.4022579,2.7947211c-1.9822388,1.3590946-4.2001667,1.9859152-6.030838,3.6252227    c-1.9552326,1.7508469-1.7123222,4.4897537-2.3183727,6.8866777c-0.1915932,0.7577467,0.3746624,1.6164761,1.205349,1.5822992    c2.8355618-0.116663,4.6191711-0.5697508,6.7454586-2.4554033c1.786211-1.5840626,3.6699944-3.2152481,3.9699078-5.6915793    c0.1930084-1.5936489-2.3086815-1.579699-2.5,0c-0.1836052,1.5159926-2.1580276,2.9745231-3.2376747,3.9238124    c-1.5721474,1.3823242-2.8678532,1.6363659-4.9776917,1.7231703c0.401783,0.5274334,0.803566,1.0548668,1.205349,1.5823002    c0.2569313-1.0161676,0.4744377-2.0348196,0.6260815-3.0720081c0.2495918-1.7071085,0.573967-2.3660221,1.9223022-3.3629942    c1.4412861-1.0657015,3.1661243-1.5641007,4.651926-2.5828209C26.9828377,4.0491929,25.7338467,1.8817353,24.4022579,2.7947211    L24.4022579,2.7947211z"></path></g></g></svg>