<svg height='100px' width='100px'  fill="#000000" xmlns="http://www.w3.org/2000/svg" data-name="Слой 1" viewBox="0 0 83.72948 82.69144" x="0px" y="0px"><title>Безымянный-15</title><path d="M21.36706,56.87591c-.39931-.99843-.84623-1.00039-1.56452-.72857a20.17984,20.17984,0,0,1-3.413.93863c-2.78689.52236-6.339-1.82331-7.40778-4.53821a13.08127,13.08127,0,0,1-.78211-6.03085,7.78605,7.78605,0,0,1,2.91962-5.37159,9.05731,9.05731,0,0,1,5.67738-2.48643c-.78206-.6233-1.43995-1.16914-2.12-1.68578C12.34917,35.205,11.63438,32.20725,12.39,28.98249a9.1727,9.1727,0,0,1,4.53643-5.76674,15.51712,15.51712,0,0,1,2.01808-.8958c0-.27182.01023-.54919-.0016-.82562-.10483-2.44945,1.28-3.928,3.20893-5.14224a6.85842,6.85842,0,0,1,6.02338-.615,5.759,5.759,0,0,1,3.75337,3.64771c.959,2.43631,1.01563,4.8277-.61794,7.048a1.51908,1.51908,0,0,0-.15936,1.95236,15.07325,15.07325,0,0,1,.86413,1.72032,7.32036,7.32036,0,0,0,1.13475-.15939,8.82483,8.82483,0,0,1,3.53905-.18818,4.45243,4.45243,0,0,1,3.38917,2.11358,8.12012,8.12012,0,0,1,.63131,8.15764c-.612,1.404-.5776,1.54269.68093,2.41826a4.68442,4.68442,0,0,0,.98477.57056c.23819.08994.63791.14661.78663.01546,1.01291-.89328,2.30227-1.58291,2.35454-3.21208.061-1.90005.261-3.79768.26707-5.69677.00419-1.3146-.18841-1.402-1.46826-1.673a7.76058,7.76058,0,0,1-5.735-4.46709,8.87116,8.87116,0,0,1-.94-6.34594,25.24964,25.24964,0,0,1,1.00734-2.50808c-.07267-.1105-.2228-.3392-.37337-.56766-2.03536-3.08831-1.71642-5.51522.94165-8.122,1.97565-1.93755,6.23773-2.42916,8.34385-.827a27.76158,27.76158,0,0,1,2.51938,2.475,5.12674,5.12674,0,0,1,4.75222.1328,4.74124,4.74124,0,0,1,2.7969,3.71867A6.35673,6.35673,0,0,1,56.2,21.41189c-.33633.39366-.61876.70014-.39154,1.23691.92546,2.18644.75042,4.50625.5907,6.75967a27.94934,27.94934,0,0,0,1.13789,10.56805,23.48473,23.48473,0,0,0,1.02452,2.3614c4.12685.20839,6.64269,1.8342,7.72425,6.27082.61124,2.50741-1.69044,6.22341-5.26882,7.61524a14.20508,14.20508,0,0,1-.02626,2.53426c-.30078,1.62862-.71571,3.23945-1.15488,4.838a5.76386,5.76386,0,0,0-.2884,3.40238c.28166-.502.48269-.80319.62839-1.12915a14.5161,14.5161,0,0,1,4.20845-5.5102,6.80451,6.80451,0,0,0,2.38142-4.06752,23.28163,23.28163,0,0,0-.49422-12.82422,20.72672,20.72672,0,0,1-.48733-2.35939c-1.25685-.364-2.51784-.77219-3.80088-1.092-2.8612-.71322-4.21281-2.80505-4.86568-5.42949a14.82649,14.82649,0,0,1-.33146-3.68793c.02806-2.92962,1.67239-4.85483,4.12936-6.1839.73345-.39677,1.52632-.68374,2.42367-1.079a5.19753,5.19753,0,0,0-.78444-.50816,5.20684,5.20684,0,0,1-3.04037-3.723c-.0949-.31888-.15623-.64762-.2394-.97017a5.65109,5.65109,0,0,1,4.31533-7.02322,7.11072,7.11072,0,0,1,6.70739,1.9593,5.73008,5.73008,0,0,1,.25738,7.46928,33.248,33.248,0,0,1-2.47416,2.51046c.38263.18314.83034.39372,1.27485.61081a8.45718,8.45718,0,0,1,4.903,6.56549,4.34922,4.34922,0,0,1-.10253,1.69468,11.39285,11.39285,0,0,1-3.02649,5.56962,11.98532,11.98532,0,0,1-4.45016,3.178,15.11674,15.11674,0,0,0,.4444,2.294,23.34031,23.34031,0,0,1,1.03528,8.024,21.16058,21.16058,0,0,1-1.158,6.83705,9.03427,9.03427,0,0,0,1.03372-.55146,68.50315,68.50315,0,0,0,8.37668-7.317,17.74844,17.74844,0,0,0,3.64243-5.23539c.1266-.29736.201-.617.32737-1.01361-.46056-.30928-.89875-.58136-1.31335-.88559-2.442-1.79181-4.18484-4.04495-4.40256-7.17327a8.71733,8.71733,0,0,1,2.16214-6.75254,7.14788,7.14788,0,0,1,4.64164-1.95539c.70736-.0864,1.42445-.1087,2.12556-.228,1.84626-.314,3.23342.6842,4.48681,1.73307a11.33511,11.33511,0,0,1,3.4529,4.9937,5.48127,5.48127,0,0,1-.29872,4.423,10.79347,10.79347,0,0,1-4.93677,4.94783,9.054,9.054,0,0,1-4.95263,1.2473c-.79233,1.33864-1.49386,2.62881-2.29448,3.85429a28.98756,28.98756,0,0,1-5.91145,6.15586c-2.29471,1.92453-4.71153,3.70363-7.07762,5.54291a20.55581,20.55581,0,0,0-5.23124,5.97987,3.74984,3.74984,0,0,0-.35062,3.49878,33.18465,33.18465,0,0,1,1.85178,8.92342c.21272,2.31911.64146,4.61912.832,6.9393a41.51431,41.51431,0,0,1-.06838,4.28257,1.0757,1.0757,0,0,1-.87806,1.12887,10.6329,10.6329,0,0,1-1.977.67494c-1.22092.0827-1.649-.44057-1.46863-1.66807.20714-1.4102.472-2.81518.78678-4.20546a16.1763,16.1763,0,0,0,.476-5.52713c-.4515-3.73349-.99751-7.45545-1.4741-11.18606a2.52607,2.52607,0,0,0-1.098-1.74432,9.30151,9.30151,0,0,0-4.78844-1.65449,21.95991,21.95991,0,0,0-10.12017,1.11977,10.77763,10.77763,0,0,1-3.80251.49034,29.06624,29.06624,0,0,1-7.63051-.979,2.78085,2.78085,0,0,0-2.88744.62572,10.24693,10.24693,0,0,1-3.07473,1.7627,5.0359,5.0359,0,0,1-5.0143-.59881A7.17514,7.17514,0,0,1,18.21689,66.137a6.033,6.033,0,0,1-.09858-6.35982C18.82967,58.46237,19.66083,57.23553,21.36706,56.87591ZM57.49347,31.37866c.05257,4.84923,2.1978,7.67052,6.76488,8.57606a4.96035,4.96035,0,0,0,5.045-1.45844c.32083-.34725.70368-.63648,1.04858-.9624a10.50409,10.50409,0,0,0,2.95182-4.803c.72067-2.53156-.32845-5.21985-2.79033-7.12024a6.53837,6.53837,0,0,0-5.13749-1.66178,10.46382,10.46382,0,0,0-4.7267,1.84328C58.70289,27.25526,57.24775,28.99356,57.49347,31.37866Zm-8.786,25.27786c.381,0,.7637.02416,1.14256-.00393a8.26591,8.26591,0,0,0,6.02719-3.15369c2.53512-3.24709,2.73954-5.63916.37152-8.968-1.41007-1.98221-3.15368-3.27181-5.72828-3.02656a5.681,5.681,0,0,1-1.13979.04141c-3.89724-.42406-5.83827,1.897-7.5655,4.74362a4.42746,4.42746,0,0,0-.41727,2.20994A10.02157,10.02157,0,0,0,41.762,51.019C42.78617,54.8906,44.99779,56.81333,48.70748,56.65652ZM38.16443,23.466A8.45266,8.45266,0,0,0,42.614,30.95964a6.43136,6.43136,0,0,0,6.64786.14368c2.44759-1.24051,3.5118-3.5098,4.185-6.01248a6.527,6.527,0,0,0-.66043-4.97256,11.22633,11.22633,0,0,0-2.56488-2.38254c-.04908-.04324-.18155.02341-.26526.00131a2.17552,2.17552,0,0,1-.67815-.22287,6.18324,6.18324,0,0,0-4.18952-.98288A7.57574,7.57574,0,0,0,39.53,19.59749,5.25688,5.25688,0,0,0,38.16443,23.466Zm44.99221,4.44148c-.539,0-1.01638-.02645-1.49011.00434a6.2919,6.2919,0,0,0-5.70108,4.2404c-.81266,2.8845-.69133,5.70468,1.31413,8.09713,2.71962,3.24438,4.26269,3.86325,7.99853,2.38875a10.73085,10.73085,0,0,0,5.43174-5.41966,3.82444,3.82444,0,0,0,.1375-3.05613,10.99742,10.99742,0,0,0-3.02162-4.43186C86.5149,28.49566,85.02567,27.58848,83.15664,27.90747ZM20.27716,23.03066a11.3,11.3,0,0,0-2.46477.614A8.25068,8.25068,0,0,0,12.85227,30.319a5.79415,5.79415,0,0,0,.91539,4.50485,18.14254,18.14254,0,0,0,3.10042,2.693,3.94145,3.94145,0,0,0,3.42479.51792,19.85684,19.85684,0,0,0,3.19829-1.15,6.38052,6.38052,0,0,0,3.83942-7.40539c-.04392-.23235-.02625-.47614-.06755-.70923A6.98773,6.98773,0,0,0,20.27716,23.03066ZM33.51031,50.43042l-.11971-.02063c-.03948-.66464-.037-1.335-.12754-1.99265a5.94166,5.94166,0,0,0-1.46921-3.17391c-2.13458-2.43983-4.85385-2.26263-7.601-1.679-2.70481.57472-4.69368,3.6477-4.68743,6.76827.00569,2.83746,1.54511,6.26164,5.25769,7.07314.3714.08116.73607.19362,1.108.27182a6.224,6.224,0,0,0,7.1774-4.17071A27.6862,27.6862,0,0,0,33.51031,50.43042ZM20.0047,55.14616c-2.537-5.01846-1.36039-9.03836,3.11008-12.21446a4.00342,4.00342,0,0,0-.46906-.76991c-2.42886-2.41753-6.02918-3.8727-9.651-1.41378-2.68654,1.82393-4.49018,4.08259-4.12732,7.54987.084.80262.13872,1.61024.26652,2.406a6.55385,6.55385,0,0,0,3.611,4.8433A6.758,6.758,0,0,0,20.0047,55.14616ZM57.49214,65.92972a8.61585,8.61585,0,0,0-.3012-.97314c-1.14688-2.34441-3.10968-4.0501-4.73454-6.02053a.96686.96686,0,0,0-.35542-.23376,10.48178,10.48178,0,0,0-4.30342-1.34066,5.75,5.75,0,0,1-5.36-2.94512c-.50934-.9042-.887-1.8819-1.34357-2.81686-.18217-.373-.32775-.887-.64069-1.05334-2.16167-1.14926-4.36315-2.22363-6.73336-3.41318a16.02191,16.02191,0,0,1-.353,7.54025c.55045.22692.9843.4107,1.42182.58535A14.4422,14.4422,0,0,1,40.52,59.11482c1.3402,1.53363,2.86042,2.91377,4.34218,4.31833a4.0415,4.0415,0,0,0,3.01863,1.0363C51.06513,64.39269,54.23861,64.45447,57.49214,65.92972ZM35.33689,30.44159a4.99817,4.99817,0,0,0-4.23732,1.65578,5.97973,5.97973,0,0,1-.86554.74043,3.63106,3.63106,0,0,0-1.44664,2.52157,6.431,6.431,0,0,0,6.72227,7.33394,5.39512,5.39512,0,0,0,4.403-2.52552,6.61007,6.61007,0,0,0,.909-4.78066C40.31577,32.93462,38.83959,30.05045,35.33689,30.44159Zm9.76317,34.402c-1.58863-1.6378-3.15161-3.213-4.673-4.82726A16.52749,16.52749,0,0,0,34.35328,55.881c-1.12365-.43936-1.24319-.40991-2.06474.447a5.29342,5.29342,0,0,1-.88048.71487c-.73237.49051-1.48146.956-2.20406,1.419.83069,1.97934,1.16955,1.57662.60377,6.3527C34.91323,66.07644,40.01521,67.04029,45.10006,64.84361Zm20.23677-52.7975c-3.30075-.21077-6.61249,3.15907-4.99426,6.67653a26.04222,26.04222,0,0,0,2.60432,3.84125c.06954.09893.26376.1015.38467.17437,1.34063.80795,2.65719.418,3.97528-.06772A6.72809,6.72809,0,0,0,71.1013,17.69,5.67152,5.67152,0,0,0,65.33683,12.04611ZM18.0949,63.195a7.187,7.187,0,0,0,.52783,2.008,5.74183,5.74183,0,0,0,5.7697,2.58122,6.3468,6.3468,0,0,0,4.94006-7.28551c-.14908-.96558-.80044-1.80363-1.549-1.79075A10.81658,10.81658,0,0,1,22.839,57.51257a1.66724,1.66724,0,0,0-1.74324.13435A6.33194,6.33194,0,0,0,18.0949,63.195ZM19.98109,22.372c4.56207-.43435,6.61854,2.434,8.00025,6.24553a2.533,2.533,0,0,0,.78478-.309c1.76452-1.58479,3.30909-3.32526,3.23752-5.89617-.06019-2.16229-.84646-4.20178-2.73612-5.20632-3.61115-1.91964-6.41293-1.34638-8.945,2.0958A3.02351,3.02351,0,0,0,19.98109,22.372ZM57.85642,42.67545a8.63621,8.63621,0,0,1-.58814-1.15571,26.16614,26.16614,0,0,1-1.55173-7.65161c-.03935-1.71034.06117-3.42348.045-5.13487-.01652-1.74993.26291-3.53114-.41865-5.22486a5.58134,5.58134,0,0,0-.53847-.85953l-.298.07574q-.08031.52164-.16052,1.04334a16.16539,16.16539,0,0,1-.26466,1.67954,10.49733,10.49733,0,0,1-3.69831,5.62243,1.44139,1.44139,0,0,0-.66157,1.57087,29.46785,29.46785,0,0,0,2.32842,7.01769,3.282,3.282,0,0,0,1.67037,1.65759,10.1281,10.1281,0,0,1,1.9484,1.38339c.36312.279.69165.603,1.02682.89884Zm-.76466,1.74742c.18679.35673.3081.6093.44752.85144a6.112,6.112,0,0,1,.04195,6.6102c-.54978.91878-1.09287,1.84154-1.62938,2.74629A4.30567,4.30567,0,0,0,59.86424,55.684a7.63943,7.63943,0,0,0,5.02787-3.63853,4.20025,4.20025,0,0,0,.47421-3.79946c-.12847-.39666-.47554-.72721-.58184-1.12558-.56984-2.13531-2.10347-3.13766-4.10309-3.69474A3.36907,3.36907,0,0,0,57.09176,44.42287ZM40.40964,49.39824a17.98862,17.98862,0,0,1,.46436-2.88939,18.32519,18.32519,0,0,1,1.30575-2.598c-.93148-.70408-1.79537-1.357-2.69093-2.034a6.82272,6.82272,0,0,1-6.542,1.28252,6.08807,6.08807,0,0,1-4.28183-4.013c-.18784-.5871-.32406-1.191-.4759-1.78927a5.13952,5.13952,0,0,1,2.10821-5.63362c.42748-.34148.81747-.72988,1.24816-1.11782-.502-.8628-.92635-1.59218-1.36407-2.34454a6.49431,6.49431,0,0,1-1.03279.655A1.75378,1.75378,0,0,0,27.999,30.92872a8.26731,8.26731,0,0,1-.46358,2.62175,8.41827,8.41827,0,0,1-2.9169,3.85537c1.15043,1.2432,2.21346,2.4533,3.34761,3.5926a23.02626,23.02626,0,0,0,1.98982,1.61537,5.15,5.15,0,0,1,.76367.62447,12.66422,12.66422,0,0,0,4.42536,3.6823C36.873,47.69524,38.57366,48.53107,40.40964,49.39824Zm9.12678-32.94983a5.30828,5.30828,0,0,0-3.771-6.68765,7.001,7.001,0,0,0-6.55962,1.84415c-1.66639,1.50287-2.16745,5.17731.16621,6.85691C42.24613,15.53426,45.73894,15.35235,49.53642,16.44841Zm2.66939,40.62312a20.36246,20.36246,0,0,0,2.22545,3.066,22.25646,22.25646,0,0,1,3.9869,4.80593c.03218.05516.16907.04931.22977.06489.47114-1.48522.96284-2.962,1.40564-4.45324a8.12038,8.12038,0,0,0,.07324-3.87387c-1.055-.16447-2-.24509-2.90794-.47323-.81055-.20366-1.62268-.88178-2.35647-.78161-.81476.11121-1.5422.86588-2.30563,1.34362A4.37488,4.37488,0,0,0,52.20581,57.07153ZM54.23592,21.845c2.20758-.92908,2.78435-2.7785,2.872-4.75207a4.01958,4.01958,0,0,0-2.39638-4.046c-1.37356-.62715-2.83016-1.042-4.12313-.2273-.08246,1.49767-.15185,2.7582-.22128,4.01912.84934.69259,1.71259,1.35639,2.52384,2.07861a3.01526,3.01526,0,0,1,.71675,1.03143C53.85188,20.50919,53.99935,21.11176,54.23592,21.845ZM48.6803,32.16286l-2.14609.53514c-.09383,2.76793-.18227,5.37706-.26654,7.86352h5.15391C50.50565,37.75532,49.61587,35.02922,48.6803,32.16286Zm11.34892,38.033-.31732.10956c.25293,2.16994.53923,4.33666.74959,6.51071.21938,2.267.62889,4.52864.175,6.82249-.39694,2.00583-.73536,4.0238-1.06706,6.04176-.15187.92389.28931,1.26757,1.13941.89409a16.05806,16.05806,0,0,0,1.51142-.86294,25.22947,25.22947,0,0,0,.13545-6.2405c-.441-2.86881-.745-5.7592-1.21455-8.62286C60.88382,73.27883,60.407,71.74547,60.02922,70.19587ZM19.43814,39.20136a10.32835,10.32835,0,0,1,4.00351,3.1168,1.15535,1.15535,0,0,0,.83735.3836c1.24433-.08031,2.48366-.23853,3.82071-.37878-1.39086-1.63175-2.69321-3.15966-3.97637-4.665C22.54512,38.17783,21.03853,38.67414,19.43814,39.20136Z" transform="translate(-8.13526 -8.65428)"></path><path d="M67.33568,25.94942c1.36888-.4467,2.0475.63341,2.84983,1.3355.8391.73421.83306.87839.59473,1.94331A3.69943,3.69943,0,0,1,67.33568,25.94942Z" transform="translate(-8.13526 -8.65428)"></path><path d="M54.90081,46.01852c-.09571.15966-.21294.59509-.48552.74183a1.08787,1.08787,0,0,1-1.01726-.05358c-.77457-.95832-1.89031-1.00743-2.931-1.30318-.31314-.089-.75794-.39448-.78393-.63888a1.29172,1.29172,0,0,1,.51974-.92728,3.18854,3.18854,0,0,1,4.649,1.682C54.87254,45.61132,54.87129,45.70817,54.90081,46.01852Z" transform="translate(-8.13526 -8.65428)"></path><path d="M45.82223,18.25365a13.71074,13.71074,0,0,1,1.88689.37429.91457.91457,0,0,1,.52869.67344c-.0107.24793-.30961.5302-.55006.70553a1.59517,1.59517,0,0,1-.68327.13253c-.79182.10865-1.5859.20221-2.376.32218-.498.07559-.96331.08967-1.19686-.46344-.25887-.61314.19584-.88309.6214-1.07638C44.67961,18.6372,45.34194,18.43133,45.82223,18.25365Z" transform="translate(-8.13526 -8.65428)"></path><path d="M82.85547,31.02643a5.254,5.254,0,0,1,1.23246-.84011,3.12742,3.12742,0,0,1,3.6029,2.01578,1.52829,1.52829,0,0,1-.29478,1.13028c-.33205.39377-.73709.1375-1.12011-.13186-.61276-.43089-1.2832-.7789-1.92032-1.17624C83.92154,31.75357,83.50267,31.4585,82.85547,31.02643Z" transform="translate(-8.13526 -8.65428)"></path><path d="M17.50248,27.54518c-.05655-.02807-.45122-.09885-.58187-.32329a1.18844,1.18844,0,0,1,.00268-.92872c.37495-.88695,2.66373-1.58255,3.54958-1.129a1.12234,1.12234,0,0,1,.64591,1.29574c-.1.57479-.5772.4996-.99927.56644C19.32932,27.15149,18.54818,27.33389,17.50248,27.54518Z" transform="translate(-8.13526 -8.65428)"></path><path d="M23.30574,53.06673c-.15635.20469-.31444.59954-.58537.70537a.98392.98392,0,0,1-.8278-.33851,4.68679,4.68679,0,0,1-.98429-4.00347,1.18913,1.18913,0,0,1,.71513-.71967c.18084-.06009.66214.24033.72543.46033C22.70163,50.39692,22.96791,51.648,23.30574,53.06673Z" transform="translate(-8.13526 -8.65428)"></path><path d="M10.45215,47.26762a6.4207,6.4207,0,0,1-.07027-1.30206,4.77091,4.77091,0,0,1,1.94931-3.01417,1.74005,1.74005,0,0,1,1.28649-.20614.65153.65153,0,0,1,.43986.99976,2.80918,2.80918,0,0,1-.38633.74975c-.94884.98877-1.92677,1.9496-2.89452,2.92022Z" transform="translate(-8.13526 -8.65428)"></path><path d="M30.06407,35.76941a5.542,5.542,0,0,1,1.77974-3.20926.50654.50654,0,0,1,.90426.20829,2.78285,2.78285,0,0,1-.66318,2.63966C31.5837,36.04678,30.88588,36.00327,30.06407,35.76941Z" transform="translate(-8.13526 -8.65428)"></path><path d="M63.08794,14.48738A2.25925,2.25925,0,0,1,65.5405,13.45a.90808.90808,0,0,1,.66652.5516,1.00111,1.00111,0,0,1-.47716.75246C64.861,15.24959,64.03852,14.92328,63.08794,14.48738Z" transform="translate(-8.13526 -8.65428)"></path><path d="M19.07327,62.45849c-.08056-1.07087.663-1.65786,1.36629-2.20915a.60584.60584,0,0,1,.97053.66,13.53268,13.53268,0,0,1-1.04978,2.6055c-.21022.41757-.98287.25817-1.16224-.217A3.86763,3.86763,0,0,1,19.07327,62.45849Z" transform="translate(-8.13526 -8.65428)"></path><path d="M22.037,20.53681c.00146-.65552-.06359-1.25676.52733-1.58835.6894-.38686,1.335-.94455,2.21965-.78343.45711.08327.6818.36154.49614.81131A3.0544,3.0544,0,0,1,22.037,20.53681Z" transform="translate(-8.13526 -8.65428)"></path><path d="M60.91917,45.391a5.4227,5.4227,0,0,1,1.24646.21819c.24843.10994.40611.425.60424.64858-.19853.1705-.37274.43182-.60061.49288a11.31223,11.31223,0,0,1-1.54274.238c-.46591.05756-.96612-.03953-.93658-.57365.0184-.33228.38722-.68432.67341-.9458C60.50249,45.3421,60.8128,45.40228,60.91917,45.391Z" transform="translate(-8.13526 -8.65428)"></path><path d="M45.80749,12.3845c-.88892-.166-1.549-.25915-2.19249-.41887a.90513.90513,0,0,1-.71993-1.07735c.10451-.52817.6314-.53007,1.05624-.43082.643.15019,1.27141.36434,1.90292.56134.45012.14039.83878.42669.63688.91645C46.387,12.18778,45.94478,12.30094,45.80749,12.3845Z" transform="translate(-8.13526 -8.65428)"></path><path d="M55.3326,17.10062a2.65333,2.65333,0,0,1-1.77968-2.56132C54.84624,14.38252,55.47023,15.22492,55.3326,17.10062Z" transform="translate(-8.13526 -8.65428)"></path></svg>