<svg height='100px' width='100px'  fill="#000000" xmlns="http://www.w3.org/2000/svg" xmlns:xlink="http://www.w3.org/1999/xlink" viewBox="0 0 24 24" version="1.1" x="0px" y="0px"><title>fruit_028-plum-food-eat-nature</title><desc>Created with Sketch.</desc><g stroke="none" stroke-width="1" fill="none" fill-rule="evenodd"><g transform="translate(-381.000000, -141.000000)" fill="#000000"><g transform="translate(383.000000, 141.000000)"><path d="M7.5,23 C3.93391716,23 1,19.4373863 1,15 C1,10.5626137 3.93391716,7 7.5,7 C9.51575305,7 11.3893555,8.14204205 12.6194723,10.0740913 C12.7677805,10.3070276 13.0768402,10.3756321 13.3097764,10.2273239 C13.5427126,10.0790157 13.6113172,9.76995601 13.463009,9.53701979 C12.0576854,7.32978675 9.87607422,6 7.5,6 C3.33409634,6 0,10.0485456 0,15 C0,19.9514544 3.33409634,24 7.5,24 C10.2331634,24 12.6934488,22.2389903 14.0149206,19.4650387 C14.1336832,19.2157396 14.0278625,18.9173666 13.7785634,18.798604 C13.5292643,18.6798414 13.2308913,18.7856621 13.1121286,19.0349613 C11.9477914,21.4790656 9.82291234,23 7.5,23 Z"></path><path d="M11.5,7 C15.0660828,7 18,10.5626137 18,15 C18,19.4373863 15.0660828,23 11.5,23 C10.8735796,23 10.2594051,22.8907963 9.66993787,22.6777693 C9.41023415,22.5839152 9.12361892,22.7183629 9.02976482,22.9780666 C8.93591073,23.2377703 9.07035842,23.5243855 9.33006213,23.6182396 C10.0277091,23.8703617 10.7568105,24 11.5,24 C15.6659037,24 19,19.9514544 19,15 C19,10.0485456 15.6659037,6 11.5,6 C10.7568105,6 10.0277091,6.12963834 9.33006213,6.38176036 C9.07035842,6.47561445 8.93591073,6.76222969 9.02976482,7.02193341 C9.12361892,7.28163712 9.41023415,7.41608481 9.66993787,7.32223072 C10.2594051,7.1092037 10.8735796,7 11.5,7 Z"></path><path d="M10.1116897,5.71605806 C10.2000777,4.98403385 10.3589617,4.25299615 10.6040777,3.57631702 C11.0602897,2.31687638 11.757085,1.40385476 12.7285612,0.953654623 C12.9791078,0.837546709 13.0880918,0.540314555 12.9719839,0.289768025 C12.855876,0.0392214954 12.5586438,-0.0697625364 12.3080973,0.0463453772 C11.0598899,0.624787841 10.2028506,1.74777968 9.66386148,3.23573892 C9.39030312,3.99093724 9.21575351,4.79405394 9.11890062,5.59618414 C9.08506141,5.87643859 9.06327618,6.13705111 9.05112899,6.37178979 C9.04372151,6.51493593 9.04119884,6.61939923 9.04119884,6.67889071 C9.04119884,6.95503308 9.26505646,7.17889071 9.54119884,7.17889071 C9.81734121,7.17889071 10.0411988,6.95503308 10.0411988,6.67889071 C10.0411988,6.49319723 10.0587072,6.15485671 10.1116897,5.71605806 Z"></path><path d="M2.14855824,1.44899264 C1.9521368,1.64308856 1.95025159,1.95966544 2.14434752,2.15608688 C2.33844344,2.35250832 2.65502032,2.35439353 2.85144176,2.16029761 C4.55645735,0.47546844 8.94210026,1.25860673 9.30472803,3.87333111 C9.34266226,4.14685553 9.59514937,4.33783911 9.86867379,4.29990489 C10.1421982,4.26197066 10.3331818,4.00948354 10.2952476,3.73595913 C9.80602994,0.208459737 4.38379603,-0.759781196 2.14855824,1.44899264 Z"></path><path d="M2.93858382,1.55990805 C2.80598459,1.3176849 2.50213102,1.22881715 2.25990786,1.36141637 C2.01768471,1.4940156 1.92881696,1.79786917 2.06141618,2.04009233 C3.9801186,5.54504607 7.85246099,6.0287107 10.1155019,4.18788015 C10.3297221,4.01362653 10.3621214,3.69870629 10.1878678,3.48448611 C10.0136141,3.27026592 9.69869389,3.23786661 9.48447371,3.41212023 C7.68214535,4.87819232 4.54027377,4.48576522 2.93858382,1.55990805 Z"></path></g></g></g></svg>