<svg height='100px' width='100px'  fill="#000000" xmlns="http://www.w3.org/2000/svg" xmlns:xlink="http://www.w3.org/1999/xlink" version="1.1" x="0px" y="0px" viewBox="0 0 100 100" enable-background="new 0 0 100 100" xml:space="preserve"><path d="M76.266,42.649c-1.628-5.578-4.494-10.792-8.302-15.184c-0.285-0.359-0.585-0.706-0.908-1.035  c-0.011-0.011-0.02-0.024-0.031-0.035l-0.001,0.001c-0.013-0.013-0.024-0.026-0.036-0.039c-7.353-7.352-22.447-4.222-33.65,6.98  c-11.201,11.202-14.333,26.298-6.98,33.65c0.013,0.013,0.027,0.023,0.04,0.036l-0.001,0.002c0.049,0.046,0.102,0.087,0.152,0.133  c0.307,0.295,0.624,0.578,0.957,0.84c4.384,3.791,9.584,6.645,15.145,8.269c3.112,0.907,6.177,1.354,9.131,1.354  c7.028,0,13.421-2.529,18.282-7.391l0.168-0.168C77.135,63.158,79.335,53.167,76.266,42.649z M28.466,64.853  c-6.165-6.188-3.031-19.368,6.993-29.394c6.546-6.545,14.437-10.153,20.849-10.153c3.406,0,6.395,1.02,8.543,3.158  c0.052,0.056,0.099,0.115,0.15,0.171c2.79,2.91,3.686,7.431,2.502,12.778c-1.257,5.68-4.673,11.53-9.616,16.474  s-10.794,8.359-16.474,9.616c-5.35,1.183-9.868,0.288-12.777-2.501C28.58,64.95,28.521,64.903,28.466,64.853z M68.109,67.941  l-0.168,0.168c-6.104,6.105-15.018,8.029-24.452,5.278c-2.098-0.613-4.143-1.413-6.104-2.384c1.493-0.029,3.054-0.214,4.675-0.572  c6.23-1.38,12.604-5.082,17.946-10.425c5.343-5.342,9.045-11.716,10.425-17.946c0.357-1.614,0.549-3.173,0.58-4.66  c0.967,1.956,1.765,3.996,2.375,6.088C76.138,52.923,74.215,61.836,68.109,67.941z"></path><path d="M43.14,56.558c2.902,0,6.277-1.506,9.095-4.323c4.555-4.555,5.68-10.566,2.561-13.686c-1.578-1.578-3.936-2.114-6.637-1.52  c-2.46,0.545-4.963,1.994-7.049,4.08s-3.535,4.589-4.08,7.049c-0.598,2.702-0.059,5.06,1.52,6.637  C39.739,55.986,41.349,56.558,43.14,56.558z M39.96,48.807c0.423-1.909,1.584-3.889,3.271-5.576s3.667-2.849,5.576-3.271  c0.377-0.084,0.88-0.164,1.419-0.164c0.84,0,1.768,0.195,2.448,0.875c1.865,1.865,0.692,6.189-2.561,9.443  c-3.254,3.253-7.578,4.427-9.443,2.561C39.554,51.558,39.746,49.772,39.96,48.807z"></path><ellipse transform="matrix(0.7071 -0.7071 0.7071 0.7071 -19.3323 46.6724)" cx="46.672" cy="46.672" rx="4.248" ry="2.708"></ellipse></svg>