<svg height='100px' width='100px'  fill="#000000" xmlns="http://www.w3.org/2000/svg" xmlns:xlink="http://www.w3.org/1999/xlink" version="1.1" x="0px" y="0px" viewBox="0 0 100 100" enable-background="new 0 0 100 100" xml:space="preserve"><g><g><g><circle cx="59.799" cy="43.192" r="1.967"></circle><circle cx="65.7" cy="40.147" r="1.967"></circle><circle cx="65.7" cy="48.517" r="1.967"></circle><path d="M84.912,56.385h-6.25h-6.128c3.975-7.667,4.35-15.281,1.048-22.747c-0.853-1.93-0.936-4.154-0.229-6.103     c0.927-2.552,0.675-4.799-0.69-6.164c-1.366-1.366-3.521-1.623-6.069-0.724c-2.064,0.729-4.307,0.617-6.319-0.314     c-11.35-5.254-22.309-2.028-34.489,10.152C14.131,42.142,10.755,53.786,15.755,65.094c0.853,1.93,0.937,4.154,0.229,6.103     c-0.927,2.552-0.675,4.798,0.69,6.164c1.366,1.366,3.521,1.623,6.069,0.724c2.063-0.729,4.307-0.617,6.319,0.313     c3.487,1.614,6.935,2.428,10.394,2.427c3.379,0,6.768-0.78,10.21-2.346c3.689,2.289,8.035,3.615,12.686,3.615     c13.308,0,24.135-10.827,24.135-24.135C86.486,57.09,85.781,56.385,84.912,56.385z M62.351,78.946     c-11.042,0-20.12-8.573-20.928-19.413h3.123c0.487,5.55,3.513,10.38,7.914,13.314c0.031,0.024,0.058,0.052,0.092,0.074     c0.04,0.026,0.086,0.037,0.127,0.059c2.792,1.804,6.108,2.864,9.672,2.864c3.563,0,6.878-1.059,9.67-2.862     c0.043-0.023,0.089-0.033,0.13-0.06c0.035-0.023,0.062-0.052,0.094-0.076c4.4-2.934,7.424-7.763,7.911-13.312h3.122     C82.471,70.373,73.393,78.946,62.351,78.946z M18.9,75.134c-0.451-0.451-0.434-1.548,0.043-2.862     c0.997-2.745,0.888-5.747-0.309-8.451c-4.483-10.138-1.415-20.314,9.38-31.109c11.272-11.272,20.814-14.209,30.94-9.521     c2.761,1.278,5.847,1.429,8.689,0.425c1.282-0.453,2.353-0.46,2.794-0.018c0.451,0.451,0.434,1.548-0.043,2.862     c-0.997,2.745-0.888,5.747,0.309,8.452c3.128,7.074,2.568,14.166-1.716,21.474H46.04h-6.249c-0.869,0-1.575,0.705-1.575,1.575     c0,7.34,3.298,13.921,8.485,18.351c-5.513,2.051-10.831,1.771-16.318-0.769c-1.555-0.719-3.212-1.082-4.871-1.082     c-1.287,0-2.576,0.218-3.818,0.657C20.412,75.569,19.341,75.575,18.9,75.134z M55.644,71.074l6.707-10.242l6.708,10.242     c-2.014,1.034-4.292,1.622-6.707,1.622C59.936,72.696,57.657,72.108,55.644,71.074z M53.018,69.337     c-2.91-2.391-4.9-5.862-5.321-9.804h11.741L53.018,69.337z M71.685,69.337l-6.421-9.803h11.741     C76.584,63.475,74.594,66.946,71.685,69.337z"></path><path d="M60.777,68.884c-0.112,0.333-0.121,0.705,0,1.063c0.294,0.87,1.237,1.337,2.106,1.043     c0.87-0.294,1.336-1.237,1.043-2.106l-1.574-4.661L60.777,68.884z"></path><path d="M51.161,64.687c0.692,0.603,1.742,0.531,2.345-0.161l3.232-3.709l-4.819,0.989c-0.345,0.071-0.67,0.251-0.919,0.536     C50.397,63.035,50.47,64.085,51.161,64.687z"></path><path d="M68.548,60.818l3.232,3.709c0.231,0.265,0.548,0.46,0.919,0.536c0.899,0.185,1.777-0.395,1.962-1.294     c0.185-0.899-0.395-1.777-1.294-1.962L68.548,60.818z"></path></g></g></g></svg>