<svg height='100px' width='100px'  fill="#000000" xmlns="http://www.w3.org/2000/svg" data-name="Layer 1" viewBox="0 0 100 100" x="0px" y="0px"><title>Food Icons</title><path d="M53.73,23.08a30.63,30.63,0,0,0-7.41.91l-.09,0a21.69,21.69,0,0,0-5.35-4.52c-10-6-22.38-2.68-22.9-2.53a3,3,0,0,0-1.9,4.2c.24.51,4.76,9.68,12.19,15.64a30.18,30.18,0,0,0-5,16.78,30.5,30.5,0,1,0,30.5-30.5Zm-30.24-1c3.75-.39,9.53-.32,14.33,2.57C41.41,26.82,44,30.29,45.44,35a11,11,0,0,1-7.57.37C31.41,33.44,26.19,26.43,23.49,22.09Zm30.24,56a24.53,24.53,0,0,1-24.5-24.5A24.24,24.24,0,0,1,33.33,40a19.88,19.88,0,0,0,2.79,1.09,17.36,17.36,0,0,0,5,.76,17.76,17.76,0,0,0,8.16-2.06v0l.36.49-.2.58a3,3,0,0,0,3.77,3.84l.58-.19.49.37a3,3,0,0,0,4.81-2.4v-.61l.5-.35a3,3,0,0,0-.8-5.32l-.58-.19-.18-.58a3,3,0,0,0-5.31-.89l-.36.5h-.76a30.72,30.72,0,0,0-2-5.64,24.5,24.5,0,1,1,4.06,48.66Z"></path><circle cx="45.73" cy="68.58" r="3.5"></circle><circle cx="48.73" cy="58.58" r="3.5"></circle><circle cx="57.73" cy="69.58" r="3.5"></circle><circle cx="37.73" cy="58.58" r="3.5"></circle></svg>