<svg height='100px' width='100px'  fill="#000000" xmlns="http://www.w3.org/2000/svg" data-name="Layer 1" viewBox="0 0 100 100" x="0px" y="0px"><title>Icons_MinimalFood_Vineta</title><path d="M55.3965,27.3183c-1.0293,0-2.084.0635-3.1465.1592V1.8535h-4.5V13.64c-.2129-.2441-.4287-.4863-.6611-.7217C40.6191,6.374,30.8105,7.792,30.3955,7.8584A2.2491,2.2491,0,0,0,28.5117,9.75c-.0625.417-1.4541,10.3056,4.9961,16.831a15.9338,15.9338,0,0,0,2.1895,1.84A35.4432,35.4432,0,0,0,8.75,62.5859c0,19.4463,16.084,35.2676,35.8545,35.2676A37.0039,37.0039,0,0,0,50,97.4511a36.9978,36.9978,0,0,0,5.3965.4024c19.7695,0,35.8535-15.8213,35.8535-35.2676S75.166,27.3183,55.3965,27.3183Zm-22.544-15.124c2.6309-.0488,7.6045.416,11.0352,3.8877,3.3916,3.4316,3.876,8.3809,3.8623,11.0254V27.47c-.4346-.0381-.8662-.06-1.3008-.0811l.0029-.05c-2.3066-.1162-6.6406-.7793-9.7431-3.9209C33.2578,19.9267,32.8164,14.8535,32.8525,12.1943Zm22.544,81.1592a32.71,32.71,0,0,1-5.0479-.4,2.2393,2.2393,0,0,0-.6972,0,32.7253,32.7253,0,0,1-5.0469.4c-17.2891,0-31.3545-13.8027-31.3545-30.7676S27.3154,31.8183,44.6045,31.8183a32.1053,32.1053,0,0,1,5.0713.4073h.0019a22.7411,22.7411,0,0,1,18.2764,22.415h4.5A27.4217,27.4217,0,0,0,61.0254,32.3252,30.9788,30.9788,0,0,1,86.75,62.5859C86.75,79.5508,72.6846,93.3535,55.3965,93.3535ZM29.2529,48.7178A30.1892,30.1892,0,0,0,24.043,65.71a2.2507,2.2507,0,0,1-2.2491,2.251H21.793a2.25,2.25,0,0,1-2.25-2.249,34.6711,34.6711,0,0,1,5.9834-19.5156,2.25,2.25,0,1,1,3.7265,2.5215Z"></path></svg>