<svg height='100px' width='100px'  fill="#000000" xmlns:dc="http://purl.org/dc/elements/1.1/" xmlns:cc="http://creativecommons.org/ns#" xmlns:rdf="http://www.w3.org/1999/02/22-rdf-syntax-ns#" xmlns:svg="http://www.w3.org/2000/svg" xmlns="http://www.w3.org/2000/svg" xmlns:sodipodi="http://sodipodi.sourceforge.net/DTD/sodipodi-0.dtd" xmlns:inkscape="http://www.inkscape.org/namespaces/inkscape" viewBox="0 0 560.13291 649.70998" version="1.1" x="0px" y="0px"><g transform="translate(-142.17361,-180.86743)"><path style="" d="m 333.20841,180.86743 0,104.003 c -110.9048,37.236 -191.0348,141.774 -191.0348,265.337 0,154.906 125.2833,280.37 280.1272,280.37 16.4465,0 32.6015,-1.513 48.3645,-4.243 131.5099,-22.9 231.6412,-137.853 231.6412,-276.127 0,-114.565 -68.7216,-212.868 -167.2759,-256.125 -7.7582,-3.415 -15.8722,-6.482 -23.8786,-9.212 l 0,-104.003 -44.4855,52.849 -44.3657,-52.849 -44.6069,52.849 -44.4855,-52.849 z m 89.6996,128.365 c 16.384,0 32.3657,1.685 47.7573,4.85 109.0434,22.031 191.2761,118.81 191.2761,234.307 0,115.746 -82.2327,212.335 -191.2761,234.429 -15.3292,3.104 -31.3733,4.728 -47.7573,4.728 -132.1917,0 -239.1567,-107.15 -239.1567,-239.157 0,-131.943 106.965,-239.157 239.1567,-239.157 z m -54.4263,47.395 c -4.018,0.315 -8.0723,1.158 -12.1215,2.546 l -0.484,0.486 c 5.895,3.413 10.3033,9.639 10.3033,17.212 0,11.171 -9.1288,20.122 -20.4853,20.122 -11.1101,0 -20.1227,-9.013 -20.1227,-20.122 0,-1.49 0.4147,-2.759 0.8484,-4 -62.1863,33.822 -104.6074,99.8 -104.6074,175.64 0,87.631 56.3503,162.029 134.5477,189.338 32.3344,11.171 65.9406,-13.806 65.9406,-48.002 l 0,-103.397 c -2.7307,1.428 -5.9229,2.547 -9.2122,2.547 -11.1709,0 -20.3638,-9.013 -20.3638,-20.123 0,-11.296 9.2554,-20.363 20.3638,-20.363 3.3517,0 6.4815,1.117 9.2122,2.544 l 0,-143.759 c 0,-29.976 -25.69,-52.866 -53.8191,-50.669 z m -2.1825,77.579 c 11.1101,0 20.1227,9.012 20.1227,20.12 0,11.11 -9.0751,20.365 -20.1227,20.365 -11.4189,0 -20.3638,-9.192 -20.3638,-20.365 0,-11.171 9.0074,-20.12 20.3638,-20.12 z m -77.8191,36.605 c 11.1708,0 20.3638,8.954 20.3638,20.001 0,11.419 -9.193,20.486 -20.3638,20.486 -11.1709,0 -20.1211,-9.127 -20.1211,-20.486 -0.069,-11.047 8.9502,-20.001 20.1211,-20.001 z m 37.2129,69.82 c 11.1707,0 20.1209,9.012 20.1209,20.122 0,11.294 -8.9502,20.364 -20.1209,20.364 -11.3582,0 -20.364,-9.07 -20.364,-20.364 0,-11.17 9.0682,-20.122 20.364,-20.122 z m -37.2129,59.759 c 11.1083,0 20.3638,9.07 20.3638,20.364 0,11.173 -9.2555,20.123 -20.3638,20.123 -11.1709,0 -20.1211,-9.013 -20.1211,-20.123 0,-11.357 9.0127,-20.364 20.1211,-20.364 z m 77.8191,50.304 c 11.1101,0 20.1227,9.068 20.1227,20.365 0,11.107 -9.0751,20.12 -20.1227,20.12 -11.4189,0 -20.3638,-9.01 -20.3638,-20.12 0,-11.357 9.0074,-20.365 20.3638,-20.365 z" fill="#000000"></path></g></svg>