<svg height='100px' width='100px'  fill="#000000" xmlns="http://www.w3.org/2000/svg" xmlns:xlink="http://www.w3.org/1999/xlink" version="1.1" x="0px" y="0px" viewBox="0 0 100 100" enable-background="new 0 0 100 100" xml:space="preserve"><path d="M94.7,33.8c0-5.6-4-10.3-9.3-11.3c-0.1-6.3-5.2-11.4-11.5-11.4c-1.6,0-3.2,0.4-4.6,1C67.6,8,63.5,5,58.7,5  c-4,0-7.5,2-9.6,5.1c-2.1-2.9-5.5-4.8-9.4-4.8c-4.7,0-8.8,2.9-10.5,7c-1.4-0.6-3-1-4.7-1c-6.3,0-11.5,5.1-11.5,11.5  c0,0.6,0.1,1.2,0.2,1.8C8.6,26,5.3,30.3,5.3,35.4c0,3,1.1,5.6,3,7.7c-1.8,2-3,4.7-3,7.7c0,4.3,2.4,8.1,5.9,10  c-0.5,1.3-0.8,2.7-0.8,4.1c0,5.9,4.5,10.8,10.3,11.4c0.2,5.9,5,10.7,10.9,11c1.6,4.5,5.8,7.7,10.8,7.7c3.6,0,6.8-1.7,9-4.3  c2.1,2.6,5.3,4.3,9,4.3c5.2,0,9.5-3.4,11-8.1c4.8-1.4,8.3-5.8,8.3-11c0-0.1,0-0.3,0-0.4c4.5-1.5,7.8-5.8,7.8-10.9  c0-1.4-0.3-2.8-0.7-4c3.4-2,5.7-5.7,5.7-9.9c0-2.8-1-5.3-2.6-7.3C92.7,41.4,94.7,37.8,94.7,33.8z M84.7,64.6c0,5-4,9-9,9  c-2.9,0-5.6-1.4-7.2-3.6c0.4-1.1,0.6-2.3,0.6-3.6c0-0.9-0.1-1.8-0.3-2.7c1.8-1,3.3-2.5,4.3-4.3c2,1.8,4.7,2.9,7.6,2.9  c1.2,0,2.4-0.2,3.5-0.6C84.5,62.6,84.7,63.6,84.7,64.6z M52.1,87.3c0.2,0,0.3,0,0.5,0c3,0,5.7-1.1,7.7-3c2,1.9,4.7,3,7.7,3  c0.1,0,0.2,0,0.4,0c-1.4,3.1-4.5,5.2-8.1,5.2C56.6,92.5,53.5,90.4,52.1,87.3z M34.1,87.1c3.6-0.6,6.6-3,8.2-6.1  c1.4,2.8,3.9,4.9,6.9,5.8c0.2,0.5,0.4,1.1,0.6,1.6c-1.6,2.5-4.4,4.1-7.5,4.1C38.7,92.5,35.5,90.3,34.1,87.1z M13.5,61.7  c1,0.3,2.1,0.5,3.3,0.5c0.8,0,1.5-0.1,2.3-0.2c1.8,1.7,4.2,2.9,6.8,3.2c0,0.4-0.1,0.8-0.1,1.2c0,2.1,0.6,4,1.5,5.7  c-1.5,1.1-3.4,1.8-5.4,1.8c-5,0-9-4-9-9C12.9,63.8,13.1,62.7,13.5,61.7z M15.5,22.7c0-5,4-9,9-9c5,0,9,4,9,9c0,2.1-0.8,4.1-2,5.7  c-0.3,0-0.7-0.1-1-0.1c-1.5,0-2.8,0.3-4.1,0.8c-2.1-3.1-5.6-5.2-9.6-5.2c-0.4,0-0.7,0-1.1,0.1C15.6,23.5,15.5,23.1,15.5,22.7z   M47.8,12.8c-0.4,1.2-0.6,2.4-0.6,3.7c0,1.4,0.3,2.8,0.7,4c-1.4,3.1-4.5,5.3-8.2,5.3c-1.4,0-2.8-0.3-4-0.9c0.1-0.7,0.2-1.4,0.2-2.1  c0-3.7-1.8-7.1-4.6-9.2c1.3-3.4,4.6-5.8,8.4-5.8C43.3,7.8,46.3,9.8,47.8,12.8z M58.7,7.5c3.9,0,7.2,2.5,8.4,6  c-2.8,2.1-4.7,5.4-4.7,9.2c0,0.6,0.1,1.2,0.2,1.8c-1.2,0.6-2.5,0.9-3.9,0.9c-5,0-9-4-9-9C49.7,11.5,53.7,7.5,58.7,7.5z M82.9,22.4  c-5.3,0.2-9.7,3.9-10.8,8.9c-1-0.6-2-1-3.2-1.2c-2.4-1.6-3.9-4.3-3.9-7.4c0-5,4-9,9-9C78.8,13.7,82.7,17.6,82.9,22.4z M75.4,41.3  c0,5-4,9-9,9c-3.2,0-6-1.7-7.6-4.2c0.3-1,0.5-2.1,0.5-3.2c0-1.8-0.4-3.5-1.1-5c1.3-3.3,4.6-5.6,8.3-5.6  C71.4,32.3,75.4,36.4,75.4,41.3z M72,53.7c0,5-4,9-9,9c-3.4,0-6.4-2-7.9-4.8c0.5-1.3,0.8-2.7,0.8-4.2c0-0.9-0.1-1.7-0.3-2.5  c0.8-0.7,1.5-1.6,2-2.5c2.1,2.5,5.3,4.1,8.8,4.1c1.9,0,3.7-0.5,5.3-1.3C71.9,52.2,72,53,72,53.7z M57.7,75.3c-5,0-9-4-9-9  c0-0.7,0.1-1.4,0.2-2c1.9-0.8,3.6-2.2,4.8-3.9c2.1,2.9,5.5,4.8,9.3,4.8c1.2,0,2.3-0.2,3.4-0.5c0.1,0.5,0.2,1.1,0.2,1.6  C66.7,71.3,62.6,75.3,57.7,75.3z M52.6,84.8c-4.9,0-9-4-9-8.9c1.6-1.1,3-2.6,3.9-4.4c1.9,3.7,5.8,6.3,10.2,6.3  c1.3,0,2.6-0.2,3.8-0.6C60.8,81.5,57.1,84.8,52.6,84.8z M37.2,75.3c-5,0-9-4-9-9c0-0.4,0-0.8,0.1-1.2c2.9-0.3,5.5-1.8,7.4-4  c2.1,2.5,5.2,4,8.7,4c0.6,0,1.1-0.1,1.7-0.1c0.1,0.4,0.1,0.8,0.1,1.3C46.2,71.3,42.2,75.3,37.2,75.3z M18,53.7c0-2.8,1.3-5.3,3.4-7  c2.1,2.7,5.4,4.5,9.1,4.5c1,0,2-0.1,2.9-0.4c-0.2,0.9-0.4,1.9-0.4,2.9c0,1.9,0.5,3.7,1.3,5.3c-1.6,2.2-4.3,3.7-7.3,3.7  C22,62.7,18,58.7,18,53.7z M21.5,39.8c0-5,4-9,9-9c3.6,0,6.7,2.2,8.2,5.2c-1.4,1.9-2.3,4.3-2.3,6.8c0,1.1,0.2,2.2,0.5,3.2  c-1.6,1.6-3.9,2.6-6.3,2.6C25.5,48.8,21.5,44.7,21.5,39.8z M47.8,51.9c-5,0-9-4-9-9c0-5,4-9,9-9c5,0,9,4,9,9  C56.8,47.8,52.8,51.9,47.8,51.9z M44.4,62.7c-5,0-9-4-9-9c0-1.5,0.4-3,1.1-4.2c0.5-0.3,0.9-0.6,1.3-1c2,3.5,5.7,5.8,10,5.8  c2,0,3.9-0.5,5.6-1.4c0,0.3,0,0.6,0,0.8C53.4,58.7,49.4,62.7,44.4,62.7z M56.6,35.5c-2.1-2.5-5.3-4.1-8.8-4.1c-2.8,0-5.4,1-7.4,2.7  c-1.4-2.4-3.6-4.3-6.3-5.2c0.3-0.5,0.7-1.1,0.9-1.7c1.4,0.6,3,1,4.7,1c4,0,7.5-2,9.6-5.1c2.1,2.9,5.5,4.8,9.4,4.8  c1.6,0,3.2-0.4,4.6-1c0.4,1.1,1,2.1,1.7,3C61.4,30.4,58.4,32.5,56.6,35.5z M16.8,26.4c3,0,5.7,1.5,7.3,3.8C21,32.3,19,35.8,19,39.8  c0,1.4,0.3,2.8,0.8,4.1c-0.9,0.3-1.9,0.5-3,0.5c-5,0-9-4-9-9S11.8,26.4,16.8,26.4z M10.1,44.7c1.9,1.3,4.2,2.1,6.7,2.1  c0.4,0,0.7,0,1.1-0.1c-1.5,1.9-2.4,4.3-2.4,6.9c0,2.2,0.6,4.2,1.7,5.9c-0.1,0-0.3,0-0.4,0c-5,0-9-4-9-9C7.8,48.4,8.7,46.3,10.1,44.7  z M28.7,74.1c2.1,2.3,5.1,3.8,8.5,3.8c1.3,0,2.6-0.2,3.8-0.6c-0.6,4.3-4.4,7.6-8.9,7.6c-4.8,0-8.7-3.8-9-8.5  C25.2,76.1,27.1,75.3,28.7,74.1z M68,84.8c-2.3,0-4.5-0.9-6.1-2.4c1.3-1.9,2.1-4.1,2.1-6.6c1.3-0.9,2.5-2.1,3.3-3.5  c2.1,2.2,5.1,3.7,8.4,3.7c0.4,0,0.8,0,1.2-0.1C76.9,80.9,72.9,84.8,68,84.8z M80.7,59.7c-2.6,0-4.9-1.1-6.6-2.9c0.3-1,0.4-2,0.4-3.1  c0-1.3-0.2-2.6-0.6-3.7c1.8-1.6,3.2-3.7,3.7-6.2c1.7,0.9,3.6,1.5,5.6,1.5c1.4,0,2.7-0.3,4-0.7c1.5,1.6,2.4,3.8,2.4,6.1  C89.7,55.7,85.6,59.7,80.7,59.7z M83.2,42.8c-2,0-3.8-0.7-5.3-1.8c-0.1-3.2-1.4-6-3.6-8c0.4-4.6,4.3-8.1,8.9-8.1c5,0,9,4,9,9  S88.2,42.8,83.2,42.8z"></path></svg>