<svg height='100px' width='100px'  fill="#000000" xmlns="http://www.w3.org/2000/svg" xmlns:xlink="http://www.w3.org/1999/xlink" version="1.1" x="0px" y="0px" viewBox="0 0 100 100" enable-background="new 0 0 100 100" xml:space="preserve"><path fill="#000000" d="M58.548,50.287c-1.93,0-3.786,0.646-5.299,1.822c-0.703-0.186-1.438-0.295-2.197-0.295  c-1.312,0-2.554,0.303-3.669,0.83c-1.598-1.508-3.713-2.357-5.931-2.357c-4.766,0-8.644,3.877-8.644,8.643s3.878,8.645,8.644,8.645  c1.28,0,2.531-0.295,3.679-0.836c1.548,1.461,3.629,2.363,5.921,2.363c1.989,0,3.819-0.682,5.281-1.816  c0.721,0.189,1.462,0.289,2.215,0.289c4.766,0,8.644-3.879,8.644-8.645S63.313,50.287,58.548,50.287z M35.101,58.93  c0-3.502,2.849-6.35,6.352-6.35c1.439,0,2.818,0.492,3.931,1.369c-1.818,1.586-2.975,3.912-2.975,6.51  c0,1.615,0.454,3.125,1.229,4.42c-0.697,0.256-1.434,0.402-2.186,0.402C37.949,65.281,35.101,62.434,35.101,58.93z M51.052,66.811  c-3.503,0-6.352-2.85-6.352-6.352s2.849-6.352,6.352-6.352c3.502,0,6.351,2.85,6.351,6.352S54.554,66.811,51.052,66.811z   M58.548,65.281c-0.107,0-0.213-0.008-0.319-0.014c0.926-1.375,1.467-3.029,1.467-4.809c0-3.027-1.568-5.691-3.931-7.236  c0.859-0.42,1.809-0.643,2.783-0.643c3.503,0,6.352,2.848,6.352,6.35C64.899,62.434,62.051,65.281,58.548,65.281z"></path><path fill="#000000" d="M53.284,64.049c-0.298,0-0.596-0.121-0.81-0.336s-0.336-0.512-0.336-0.811c0-0.297,0.122-0.596,0.336-0.811  c0.436-0.426,1.192-0.426,1.62,0c0.214,0.215,0.336,0.506,0.336,0.811c0,0.299-0.122,0.596-0.336,0.811  C53.88,63.928,53.59,64.049,53.284,64.049z"></path><path fill="#000000" d="M61.246,62.521c-0.298,0-0.596-0.123-0.811-0.338c-0.213-0.213-0.335-0.512-0.335-0.809  c0-0.299,0.122-0.596,0.335-0.811c0.429-0.428,1.192-0.428,1.62,0c0.214,0.215,0.337,0.512,0.337,0.811  c0,0.297-0.123,0.596-0.337,0.809C61.842,62.398,61.544,62.521,61.246,62.521z"></path><path fill="#000000" d="M46.982,62.482c-0.481,0-0.931-0.305-1.089-0.789c-0.363-1.109-0.095-3.148,0.986-4.639  c0.904-1.25,2.195-1.908,3.732-1.908c0.633,0,1.146,0.514,1.146,1.146c0,0.631-0.513,1.145-1.146,1.145  c-0.794,0-1.408,0.314-1.876,0.961c-0.687,0.947-0.777,2.238-0.664,2.58c0.196,0.604-0.131,1.25-0.732,1.447  C47.222,62.465,47.101,62.482,46.982,62.482z"></path><path fill="#000000" d="M37.185,59.592c-0.633,0-1.146-0.514-1.146-1.146c0-1.83,2.41-4.857,5.157-4.857  c0.633,0,1.146,0.514,1.146,1.146s-0.514,1.146-1.146,1.146c-1.375,0-2.864,1.924-2.864,2.564  C38.331,59.078,37.817,59.592,37.185,59.592z"></path><path fill="#000000" d="M50.296,49.184c-1.373,0-1.373-1.764-1.373-3.997c0-2.455,0.452-6.004,2.604-8.968  c2.561-3.53,6.803-5.32,12.608-5.32c0.542,0,1.011,0.381,1.122,0.912c0.062,0.303,1.496,7.464-2.648,12.563  C60.013,47.565,55.871,49.184,50.296,49.184z M63.147,33.21c-4.252,0.172-7.415,1.479-9.407,3.891  c-2.704,3.271-2.627,7.821-2.442,9.771c4.34-0.174,7.543-1.499,9.531-3.944C63.499,39.644,63.358,35.135,63.147,33.21z"></path><path fill="#000000" d="M45.342,49.184c-1.263,0-3.09-0.24-4.625-1.385c-1.812-1.351-2.729-3.548-2.729-6.529  c0-0.549,0.389-1.021,0.926-1.125c0.068-0.014,0.69-0.13,1.587-0.13c4.667,0,7.454,2.953,7.454,7.897  c0,0.543-0.381,1.012-0.912,1.122C46.969,49.05,46.298,49.184,45.342,49.184z M40.327,42.309c0.301,3.042,1.982,4.583,5.015,4.583  c0.095,0,0.185-0.002,0.271-0.005c-0.302-3.04-2.019-4.58-5.113-4.58C40.44,42.307,40.384,42.308,40.327,42.309z"></path><path fill="#000000" d="M50.781,48.057c-0.195,0-0.391-0.074-0.54-0.224c-0.299-0.298-0.299-0.782,0-1.08l6.566-6.566  c0.299-0.299,0.782-0.299,1.081,0c0.298,0.299,0.298,0.782,0,1.08l-6.567,6.566C51.172,47.982,50.977,48.057,50.781,48.057z"></path></svg>