<svg height="100" width="100" xmlns="http://www.w3.org/2000/svg" data-name="Layer 1"><path d="M94.88 57.7a8.59 8.59 0 00-.66-6.64c0-1 0-4.23-1.42-6.18-.27-1.78-1.23-4.39-3.31-4.81a5.14 5.14 0 00-3.3-3.71c-.31-1.06-1.35-2.71-4.84-3.15-2.32-.29-3.91-.53-5.05-.71-1-.15-1.63-.25-2.16-.29-.29 0-.53-.06-.73-.1a3.37 3.37 0 00-2 .18 6.85 6.85 0 01-1 .22c-1.24.22-2.79.5-3.58 1.55a5.26 5.26 0 00-.52.85 3.48 3.48 0 00-1.6-.47 2.39 2.39 0 00-2 1.08c-.3.41-.49.7-.64.92a1.44 1.44 0 01-.76.69c-.93.52-1.61.86-1.61.86l-2.25.87c-.57-.5-1.62-1.4-2.82-2.43a5.48 5.48 0 01-1.51-2.12 3.36 3.36 0 00-1.19-1.6c-.65-.4-1.76-.46-4-.5a18.59 18.59 0 01-2-.09 19.6 19.6 0 00-6-2.43 14.31 14.31 0 00-3-.33 11.09 11.09 0 00-3.93.74h-.74c-1.55 0-4.3.31-6.09 2.28h-.05a5.52 5.52 0 00-5.24 3.84c-2.42.39-6 2-5.9 6l-1.3 2.21c-.74.59-3.38 2.87-3.76 5.23-.29 1.8-.57 3.47-.67 4v.2c-.34 1.29-1 4.41.26 5.69a3.62 3.62 0 01.87 1.3c-.06.91-.13 3.71 1.09 5l.38.42c.3.34.65.74 1.05 1.12a6.76 6.76 0 004.52 2.1c.9.56 4.17 2.57 5 3.12.25.16.58.4.95.66a11.46 11.46 0 003.63 2.2L31.92 77l.93.34a1 1 0 00.34.06h4.9a11.55 11.55 0 005-1.59h.05a1.17 1.17 0 01.56-.1h.71a3.83 3.83 0 003.34-1.53 6.36 6.36 0 001.58.2 6.65 6.65 0 005.49-3.12 1 1 0 00.83-.48 6.29 6.29 0 01.77-.05 2.67 2.67 0 011.22.23 5.76 5.76 0 002.59.84 2.29 2.29 0 00.53-.06c2.24 1.35 7.66 4.57 8.73 4.84a4.7 4.7 0 001.13.11c.54 0 1.16 0 1.75-.09h1.37a4 4 0 001.76.38 5.21 5.21 0 003.25-1.18 9.1 9.1 0 001.16.08 4.51 4.51 0 002.6-.66h1.12c1.85 0 4.37-.18 5.93-1a11.94 11.94 0 001.17-.75h.06a5.38 5.38 0 002.1-2.47l.11-.12c.81-.87 3.15-3.42 2-6.07a7.26 7.26 0 00-.12-7.11zm-21.8-23.61c.25 0 .53.09.89.12s1.09.13 2 .28l.69.1a2.54 2.54 0 00-1.17.6 3.17 3.17 0 00-.9 2.52 2 2 0 01-.29.16 1.71 1.71 0 00-.5 0L72.46 34h.12a3.09 3.09 0 01.5.09zm8.11 39.29l.1.23a2 2 0 01-.47.15zM78.73 73l-2.26-.79.72-3.8a1.06 1.06 0 000-.12v-.37a3.48 3.48 0 001.59 2.63 6.93 6.93 0 001.59.88zm-12.56-.45l-1-3.1a1 1 0 00.79.1 1 1 0 00.62-.55l1.21-2.74 2.7 1.88-.32 4.67L69 74.14c-.73-.37-1.71-.92-2.83-1.57zm-14.12-4.76l1.29-3.07 2.92 1.48a6.74 6.74 0 01-.26 2.2 1 1 0 00-.34.37 9.57 9.57 0 00-1.19.2zm-7.11 2.85l-1.78 3.11a3 3 0 00-.49.11l-2.9-1.57 1.1-3.42 4.79-1.36.27 2.17-.79.71a1 1 0 00-.19.25zM28 73.66l-.8-2.06c.8-2.11 1.66-4.31 2.15-5.48l4 2.24-.4 4.95-1.11 1.58c-1.23-.44-2.84-.98-3.84-1.23zm-16.12-14a6 6 0 00-1.06-1.42 5.94 5.94 0 01.09-3.07c.9.33 2.34.92 3.77 1.52l.51 2.5c-1.62.15-2.65.3-3.29.43zm4.33-15.67L20 46.83l-1.17 4.07c-1.55-2.62-3-5.09-3.21-5.62a1 1 0 00-.07-.17zm18.21-5.39l2.33 3.55-4.19 2.12-2.32-3.74zm10.42-4.78a35.16 35.16 0 00.71 4.49l-3.49 4.1-3.37-1L36 37.33l4.15-5.54a18 18 0 014.72 1.99zm8.5 4.18l.38.33-1.31 2.43-3.07 2.39c-.55-1.48-1-2.63-1-2.66-.17-.41-.31-.85-.45-1.29l4.9-1.74a7.06 7.06 0 00.55.54zm3.06 2.6a10.29 10.29 0 001.42 2.62l-1.13.91-2.3-2.86.89-1.65zm4.79 7.21c.09.33.21.73.35 1.16l-5.07-.06.91-2.78 2-1.59a7 7 0 011.81 3.28zm6.73-4.22l1.33 3.26-.52 3.28-4.49.81c-.1-.36-.22-.73-.33-1.11l2.24-5.6a1 1 0 00.5-.27zm3.14-.94l.08.25a4 4 0 01.26 1.1 3.73 3.73 0 01-.45 1.72L69.85 43zM71 55.51l-.64 1.86-.07.11-.15-.1-5.21-2.78a8.64 8.64 0 00-.2-1.71l4.53-.82 1.65 1.71a10.39 10.39 0 00.09 1.73zm3.37 17.06l-1 1.93-1.25-1.57.28-4.14 2.6.31zm.79-5.92v.45l-3.29-.41-3.33-2.32 2.28-3.87 1.45 1.2a14 14 0 002.88 4.95zM67 63.09l-3.36-4.51c.31-.64.6-1.32.84-2l4.64 2.47.15.13zm-10.35-7.81l-.57-4.38 6.08.08a18.5 18.5 0 01.75 3.25l-2.57 1.11zm-4.41 6.89l-2.74-.63-.34-4.37 5.16.08zm-6.41 3.21l-5.1 1.45-.73-4.14 3-2 4.17 2.09zm-9 9.56L35 73.25l.36-4.4 3.41.19zm-7.37-13.15c-.21-1.17-.52-2.74-.94-4.85l3.06 1.89zm9.1-18.35l2.17.62a1.07 1.07 0 000 .11l-1.18 5.76-4.88 1.55-2.28-2.08.72-3.2zm7.9-2.23c.28.69.57 1.45.86 2.22l-3-.58 1.93-2.26c.06.21.14.41.22.62zM53 42.77l2.38 3-1 3.08-3.26-.38c-.23-.87-.64-2.1-1.08-3.35zM38.94 61l-4.77-3 1.08-4.68 4.69-1.49 2.16 3.62-.22 3.55zm3.87-16.43l5.32 1c.41 1.15.75 2.18 1 2.89l-7.44 1 1-4.7zm1.25 11.6l3.08.75.29 3.71-3.54-1.73zM47.42 55l-3.9-1L42 51.49l6.87-.94c-.37 1.21-.96 2.95-1.45 4.45zM31 50.87L33.29 53l-.92 4-4.69-2.9.17-2.25zm2.29 9L38 62.83l.74 4.17-4.06-.22-4.54-2.54zm16.17-4.71c.62-1.83 1.23-3.67 1.58-4.74l3 .35.58 4.46zm13.17-9.74l.89-1.15H64l-1 2.53a10.69 10.69 0 00-.48-1.24.9.9 0 00.11-.12zm-34.25-4.19l2.77 4.49-.73 3.28-3.11.92-4.84-3.72L25 42.29zm-2.5 10.09l-.18 2.28-5.29-1 1.3-4.48zm-6.71 3.1l6 1.12-3.69 4.12-4.22-.54-.49-2.44zm-2.68 11.93l.09 1.12a4.45 4.45 0 01-1.21-.47zm1.7-2.61l-.52-2.54 3.47.44.81 2.1zM23 60.93L26.51 57c.47 2.43 1 5.22 1.26 6.69H24.1zm4.31 4.8c-.3.72-.69 1.72-1.23 3.13l-.51-1.28-.71-1.84zm6.75 9.43l.29.27h-.45zm5.07-.94l1.27.69a11.47 11.47 0 01-1.63.43zm8.63-5.91v-.39l.39.19zm.1-2.54l1.2-2.28 2.37.55-1.17 2.79-.1.06zm9.9-1.05l-3.66-1.86 2.35-5.59 4.06.06a1 1 0 00.4-.08l1.36-.59A25.84 25.84 0 0160.6 60a4.79 4.79 0 00-.6 1.66c-.2 1-.42 2-1.14 2.48a8.62 8.62 0 01-1.08.59zM62 62.06a5.17 5.17 0 01.25-1c.09-.14.21-.33.34-.55l3.47 4.67-.86 2-1.7-1.07-2.15-1.85a9.34 9.34 0 00.65-2.2zm.83 6.75l.73 2.25-1.59-1zM73.3 60l-1.45-1.19.22-.37a4.87 4.87 0 001 1.06 1 1 0 00.21.12 2.55 2.55 0 01.02.38zm-2.79-25.48l1.55 4.31A3.81 3.81 0 0071 40.48v.12l-1.73.52-1-5.06a1 1 0 00-.11-.27 3.09 3.09 0 01.32-.52 4.3 4.3 0 012.03-.75zm-6.19 2.18c.19-.26.31-.26.36-.26a2.37 2.37 0 01.88.36c.17.09.33.18.46.23a1.81 1.81 0 00.35.11l.91 4.55-2 .59h-1l-.67-4.63.08-.11c.19-.2.31-.46.63-.84zm-3.81 3.12s.54-.27 1.34-.71l.49 3.42-1 1.24a5.34 5.34 0 00-1.57-1.36 4.52 4.52 0 01-1.25-1.82zm-9.64-5.4a2.38 2.38 0 01.43.74c.08.17.17.36.27.56l-4.19 1.49c-.24-1.15-.38-2.24-.47-3h1a16.12 16.12 0 012.97.21zM38 31.41l-2.87 3.83-1.26-3.32a9.16 9.16 0 013.13-.55c.33 0 .64.01 1 .04zm-6.2.68l1.78 4.69-4.08 1.88-1.82-5a6 6 0 014.08-1.57zm-10.11 6a1 1 0 00.88-.72c.7-2.38 2.21-2.93 3.22-3l1.84 5L24 40.49a1 1 0 00-.54.42L20.88 45l-3.93-3c.05-3.47 4.5-3.88 4.7-3.89zm-7.55 8.58c.51 1 1.58 2.82 3.65 6.32l-2 1.9c-2.23-.94-3.58-1.48-4.41-1.76.14-.82.33-2 .52-3.16a7.21 7.21 0 012.19-3.28zm-1.86 14.91c.73-.13 2-.31 3.34-.46l.63 3.09-2.5 1.35-.48-.56-.41-.46a5.52 5.52 0 01-.58-2.96zM23.47 71c-.81-.51-3.73-2.32-4.84-3l-.18-2.3h4.28l1 2.57 1.63 4.06-.84-.6c-.41-.25-.77-.51-1.05-.73zm22.15 2.44l.86-1.5.12.42a1 1 0 00-.08.09 2.33 2.33 0 01-.9 1.03zm3.76-1.11a4.29 4.29 0 01-.73-.07l-.53-1.87 2.16-1.28L53 70.46a4.55 4.55 0 01-3.62 1.91zm8.53-3.46a7.19 7.19 0 00.35-2.22 9.51 9.51 0 001.74-.81l.1-.08 1.53 1.32-1.78 2.62a6.51 6.51 0 01-1.21-.52 3.58 3.58 0 00-.73-.27zm17.5 6l.41-.82 1.19.41a2.91 2.91 0 01-1.6.49zm7.87-1.76l-.18-.42a4.26 4.26 0 00.75.42h-.57zM93 65.34c.86 1.35-.26 2.88-1.47 4.19a1.88 1.88 0 00-.59 1 4.69 4.69 0 01-1.05 1.07l-1.35.19h-2.19a4.09 4.09 0 01-2.24-.79 2.55 2.55 0 00-1.25-1.69 1.84 1.84 0 00-1.55.05c-.24.11-.3.14-1.41-.6-.66-.44-.71-.92-.76-1.8v-.3c0-.65-.17-2.36-1.75-2.68h-.22c-.38-.07-.51-.09-1.08-.91a3.65 3.65 0 01-.75-2.92 2.51 2.51 0 00-.7-2.15 1.42 1.42 0 00-.53-.29c-1.87-1.71-1-5.53-1-5.57a1 1 0 00-.15-.79 4.1 4.1 0 01-.62-3.7c.15-.47.32-.87.47-1.23a5.49 5.49 0 00.6-2.6 5.82 5.82 0 00-.41-1.56 1.88 1.88 0 01-.12-1.26 2.25 2.25 0 011.23-1.19 3.15 3.15 0 002.2-.92 1 1 0 00.34-.87 1.83 1.83 0 01.22-1.41c.14-.12.47-.24 1.25-.09 1 .2 1.73-.66 2.2-1.48l.78.1c3.18.4 3.21 1.91 3.21 1.94a1 1 0 00.9 1.07c2.06.2 2.45 2.84 2.46 2.95a1 1 0 001.1.87c1.4-.16 2 2.65 2.08 3.39a1 1 0 00.23.53c1.12 1.3 1.19 4.25 1.12 5.28a1 1 0 00.11.53c1.71 3.25.59 5.51.55 5.6a1 1 0 00.07 1.05 5.37 5.37 0 01.07 5.9 1 1 0 000 1.09z"/><path d="M90.93 60.42a1.72 1.72 0 00-.34-.35 1.72 1.72 0 00-1-2.77 1.71 1.71 0 00-1.5-2.73 1.72 1.72 0 00-.09-1.69l-.1-.11a1.72 1.72 0 00-.54-3.4 1.71 1.71 0 00-.3-.86 1.72 1.72 0 00-1.1-3.13 1.72 1.72 0 00-1.58-2.42 1.73 1.73 0 00-2.6-2 1.75 1.75 0 00-.46.48 1.71 1.71 0 00-2.37 1A1.73 1.73 0 0077 45.21a1.72 1.72 0 000 2.89 1.72 1.72 0 00.89 3.2 1.7 1.7 0 00.25.87 1.72 1.72 0 00.12 3.11 1.72 1.72 0 001.36 2.78 1.68 1.68 0 000 .31 1.73 1.73 0 101.73-1.73 1.67 1.67 0 000-.31 1.73 1.73 0 00-1-1.59 1.69 1.69 0 00.12-1.93 1.72 1.72 0 00-.8-3.25 1.72 1.72 0 00-.84-1.47 1.72 1.72 0 00.09-2.89 1.72 1.72 0 00.64-.84 1.72 1.72 0 002 0 1.74 1.74 0 00.46-.48 1.72 1.72 0 00.76.18 1.72 1.72 0 001.72 2.33 1.72 1.72 0 00.16 1.69 1.72 1.72 0 001.2 3.12 1.71 1.71 0 00.3.86l.1.11a1.72 1.72 0 00.44 3.41A1.71 1.71 0 0087.86 58a1.72 1.72 0 000 2 1.68 1.68 0 00.34.35 1.72 1.72 0 00-.2 1.79A1.71 1.71 0 0086.17 64a1.72 1.72 0 00-.6-.1 1.72 1.72 0 00-1.94-2 1.73 1.73 0 10-1.48 1.68 1.72 1.72 0 001.75 1.75 1.72 1.72 0 002.94 1.51 1.72 1.72 0 003-1.64 1.7 1.7 0 00.85-2.53 1.72 1.72 0 00.24-2.25z"/></svg>