<svg height="100" width="100" xmlns="http://www.w3.org/2000/svg" viewBox="0 0 64.033 63.934"><path d="M48.473 8.64l5.294-5.291a4.28 4.28 0 016.051 0c1.671 1.67 1.853 3.915.182 5.584M50.098 19.478l6.467-3.771c2.041-1.19 4.661-.501 5.852 1.538s.625 4.498-1.416 5.689M35.399 10.887l1.754-3.938c.961-2.157-.011-4.685-2.17-5.645s-5.022.472-5.983 2.63" fill="none" stroke="#000" stroke-width="2" stroke-linecap="round" stroke-miterlimit="10"/><path d="M35.423 10.898c.097.043-3.839 8.004-7.506 18.818-6.238 18.396-3.712 24.614-3.479 27.276.319 3.654 3.161 5.663 3.161 5.663.339.56-5.694 1.019-7.597-6.356-1.929-7.475-.8-14.214 3.875-27.989 2.342-6.904 4.176-11.394 5.878-15.259-.001-.002 1.738-3.901 5.668-2.153z" fill="none" stroke="#000" stroke-width="2" stroke-linecap="round" stroke-linejoin="round" stroke-miterlimit="10"/><path d="M53.97 35.153l4.277-.562a4.276 4.276 0 003.684-4.797c-.308-2.341-2.588-4.169-4.93-3.861" fill="none" stroke="#000" stroke-width="2" stroke-linecap="round" stroke-miterlimit="10"/><path d="M49.177 31.471c-4.188.569-8.977 1.35-16.092 2.959-.219.049-.42.098-.635.147l-7.152 4.099a74.9 74.9 0 00-.541 2.452c2.603-.858 5.651-1.709 9.237-2.52 11.143-2.522 19.993-3.324 19.978-3.429-.56-4.261-4.795-3.708-4.795-3.708zM48.473 8.64L28.199 28.901c-.094.272-.188.538-.282.814a117.971 117.971 0 00-1.013 3.131l8.029-4.627 12.028-12.02c-.001 0 4.537-4.535 1.512-7.559zM19.993 41.717l-4.725 2.708-6.252 3.645-2.142 2.141s-4.538 4.535 1.513 10.582c0 0-1.513-4.535 3.782-9.826l5.294-5.291 2.193-2.192c.099-.574.211-1.162.337-1.767z" fill="none" stroke="#000" stroke-width="2" stroke-linecap="round" stroke-linejoin="round" stroke-miterlimit="10"/><g fill="none" stroke="#000" stroke-width="2" stroke-linecap="round" stroke-linejoin="round" stroke-miterlimit="10"><path d="M21.438 35.996L3.873 46.119s-5.543 3.232-1.231 10.618c0 0-.309-4.77 6.158-8.541l6.467-3.771 4.725-2.708a78.948 78.948 0 011.446-5.721zM50.098 19.478L26.903 32.846a92.93 92.93 0 00-1.605 5.83L46.71 26.403c.001 0 5.544-3.232 3.388-6.925z"/></g></svg>