<svg height="100" width="100" xmlns="http://www.w3.org/2000/svg" viewBox="0 0 99.21 99.21"><path d="M88.571 34.119a2.503 2.503 0 00-1.566-1.566 38.457 38.457 0 00-3.176-.909 2.424 2.424 0 00-.13-.533C78.432 16.929 64.727 7.403 49.596 7.403a36.316 36.316 0 00-34.295 24.259 38.756 38.756 0 00-3.095.891 2.503 2.503 0 00-1.566 1.566c-4.663 13.775-1.188 28.655 9.068 38.833 5.437 5.395 12.604 8.996 20.716 10.521 1.383 6.862 1.955 8.271 4.187 8.336h9.992l.075-.001c2.16-.064 2.729-1.473 4.111-8.335 8.112-1.524 15.279-5.126 20.715-10.521 10.255-10.177 13.73-25.057 9.067-38.833zm-10.457-3.422a37.356 37.356 0 00-17.752 2.746c-1.309-9.386-7.652-17.177-16.207-20.555a31.489 31.489 0 015.44-.485c12.271 0 23.449 7.264 28.519 18.294zM34.85 16.089c11.075.104 20.099 8.836 20.708 19.785a38.064 38.064 0 00-5.953 4.41c-7.887-7.132-18.172-10.506-28.512-9.588A31.288 31.288 0 0134.85 16.089zM14.997 36.911c10.965-3.264 22.625-.642 31.121 6.95-8.048 9.429-10.934 22.044-7.759 34.058-5.887-1.563-11.014-4.43-15.13-8.516-8.596-8.53-11.694-20.88-8.232-32.492zm38.492 47.391a74.397 74.397 0 01-.6 2.506l-6.568.001a74.515 74.515 0 01-.6-2.507h7.768zm-1.334-5.064c4.517-2.629 8.846-5.973 12.793-9.906 4.257-4.241 7.858-8.943 10.415-13.597a2.5 2.5 0 10-4.383-2.409c-2.331 4.243-5.637 8.553-9.562 12.464-5.318 5.299-11.605 9.542-17.847 12.106-3.565-11.639-.502-24.103 8.143-32.747 8.583-8.584 20.938-11.684 32.498-8.239 3.463 11.613.365 23.962-8.231 32.492-6.033 5.988-14.235 9.359-23.826 9.836z"/></svg>