<svg height="100" width="100" xmlns="http://www.w3.org/2000/svg" viewBox="0 0 56 64"><path d="M32.558 18.744c.842-1.141.842-1.711.842-1.711s-2.16-1.069-3.24-1.069c0-3.207-2.16-4.276-2.16-4.276s-2.16 1.069-2.16 4.276c-1.08 0-3.24 1.069-3.24 1.069s0 .57.842 1.711c.482.654.174 1.557-.602 1.813-.48.158-.96.396-1.32.752 0 0 0 3.207 5.4 4.276h2.16c5.4-1.069 5.4-4.276 5.4-4.276-.36-.356-.84-.594-1.32-.752-.776-.256-1.084-1.159-.602-1.813z" fill="none" stroke="#000" stroke-width="2" stroke-linecap="round" stroke-linejoin="round" stroke-miterlimit="10"/><path d="M25.84 53.847c.884.898 1.813 1.621 2.7 2.298.887-.677 1.816-1.4 2.7-2.298 1.337-1.358 2.563-3.121 3.365-5.73-2.195-2.344-3.365-4.934-3.365-7.575l-1.08-14.957h-3.24l-1.08 14.957c0 2.64-1.17 5.23-3.365 7.575.802 2.609 2.028 4.372 3.365 5.73z" fill="none" stroke="#000" stroke-width="2" stroke-linejoin="round" stroke-miterlimit="10"/><path d="M22.84 9.868c-.48.158-.96.396-1.32.752 0 0 .001 2.823 4.462 4.055.469-2.2 2.018-2.986 2.018-2.986s1.549.786 2.018 2.986c4.462-1.231 4.462-4.055 4.462-4.055-.36-.356-.84-.594-1.32-.752-.776-.256-1.084-1.159-.602-1.813.842-1.14.842-1.711.842-1.711s-2.16-1.069-3.24-1.069C30.16 2.069 28 1 28 1s-2.16 1.069-2.16 4.276c-1.08 0-3.24 1.069-3.24 1.069s0 .57.842 1.711c.482.653.174 1.556-.602 1.812z" fill="none" stroke="#000" stroke-width="2" stroke-linecap="round" stroke-linejoin="round" stroke-miterlimit="10"/><path d="M40.72 15.212c-.776-.256-1.084-1.159-.602-1.813.842-1.141.842-1.711.842-1.711s-2.16-1.069-3.24-1.069c0-3.207-2.16-4.276-2.16-4.276s-1.843.947-2.107 3.649c.376.153.742.344 1.027.627 0 0-.012 2.284-3.266 3.639a1.19 1.19 0 01-.814.953c-.1.033-.194.085-.293.125.02.206.053.399.053.627 1.08 0 3.24 1.069 3.24 1.069s0 .57-.842 1.711a1.142 1.142 0 00-.213.858c.599.249 1.295.471 2.134.637h2.16c5.4-1.069 5.4-4.276 5.4-4.276-.359-.354-.839-.591-1.319-.75zM24.786 14.259c-3.254-1.355-3.266-3.639-3.266-3.639.285-.282.651-.474 1.027-.627-.264-2.702-2.107-3.649-2.107-3.649s-2.16 1.069-2.16 4.276c-1.08 0-3.24 1.069-3.24 1.069s0 .57.842 1.711c.483.654.174 1.557-.602 1.813-.48.158-.96.396-1.32.752 0 0 0 3.207 5.4 4.276h2.16a11.098 11.098 0 002.133-.637 1.13 1.13 0 00-.211-.859c-.842-1.141-.842-1.712-.842-1.712s2.16-1.069 3.24-1.069c0-.228.032-.42.053-.627-.099-.04-.193-.093-.293-.125a1.189 1.189 0 01-.814-.953zM2.94 28.54c-1.41-.217-1.818-.621-1.818-.621s.764-2.267 1.527-3.023c-2.291-2.267-1.527-4.535-1.527-4.535s2.291-.756 4.582 1.512c.764-.756 3.055-1.512 3.055-1.512s.407.403.627 1.799c.126.8.989 1.222 1.72.861.453-.224.962-.392 1.471-.392 0 0 2.291 2.267-.764 6.802l-.764.756-.764.756c-4.582 3.023-6.873.756-6.873.756 0-.504.17-1.008.396-1.456a1.17 1.17 0 00-.868-1.703zM53.06 28.54c1.41-.217 1.818-.621 1.818-.621s-.764-2.267-1.527-3.023c2.291-2.267 1.527-4.535 1.527-4.535s-2.291-.756-4.582 1.512c-.764-.756-3.055-1.512-3.055-1.512s-.407.403-.627 1.799c-.126.8-.989 1.222-1.72.861-.453-.224-.962-.392-1.471-.392 0 0-2.291 2.267.764 6.802l.764.756.764.756c4.582 3.023 6.873.756 6.873.756 0-.504-.17-1.008-.396-1.456a1.17 1.17 0 01.868-1.703z" fill="none" stroke="#000" stroke-width="2" stroke-linecap="round" stroke-linejoin="round" stroke-miterlimit="10"/><path d="M43.423 22.628c.509 0 1.018.168 1.471.392.731.362 1.595-.061 1.72-.861.22-1.396.627-1.799.627-1.799s1.385.461 2.361 1.021c1.07-1.121 1.078-2.211 1.078-2.211-.36-.356-.84-.594-1.32-.752-.776-.256-1.084-1.159-.602-1.813.842-1.141.842-1.711.842-1.711s-2.16-1.069-3.24-1.069c0-3.207-2.16-4.276-2.16-4.276s-2.16 1.069-2.16 4.276c-.563 0-1.415.29-2.105.568.101.365.375.683.785.818.48.158.96.396 1.32.752 0 0-.013 2.686-4.163 3.96.346.997 1.473 2.714 5.061 3.477.227-.51.485-.772.485-.772zM13.96 15.965c.36-.356.84-.594 1.32-.752.411-.135.685-.453.786-.818-.691-.278-1.543-.568-2.106-.568 0-3.207-2.16-4.276-2.16-4.276s-2.16 1.069-2.16 4.276c-1.08 0-3.24 1.069-3.24 1.069s0 .57.842 1.711c.483.654.174 1.557-.602 1.813-.48.158-.96.396-1.32.752 0 0 .008 1.09 1.078 2.211.976-.56 2.361-1.021 2.361-1.021s.408.403.627 1.799c.126.8.989 1.222 1.72.861.452-.224.962-.392 1.471-.392 0 0 .257.262.485.773 3.587-.763 4.714-2.48 5.061-3.477-4.15-1.276-4.163-3.961-4.163-3.961z" fill="none" stroke="#000" stroke-width="2" stroke-linecap="round" stroke-linejoin="round" stroke-miterlimit="10"/><path d="M34.653 60.179a16.71 16.71 0 01-.707-.321l-.068-.032a17.148 17.148 0 01-.828-.43l-.048-.027a18.14 18.14 0 01-.863-.512l-.057-.035a18.32 18.32 0 01-.842-.574 18.302 18.302 0 01-1.118-.862l-.016-.013c-.49-.412-1.021-.813-1.566-1.229-.887-.677-1.816-1.4-2.7-2.298-2.324-2.36-4.32-5.931-4.32-13.082v-.042c-.005-3.202-.265-6.399-.655-9.578L19.528 20.24h-.168c-.454-.09-.857-.199-1.238-.316h.001c-.218.627-.748 1.539-2.003 2.32V51.19c0 .95.062 1.906.292 2.828.698 2.801 2.424 5.15 4.748 6.746A12.856 12.856 0 0028 62.996c.181.006.36.003.54.004.18-.001.359.002.54-.004a12.856 12.856 0 006.84-2.232c-.296-.139-1.035-.487-1.225-.567l-.042-.018z" fill="none" stroke="#000" stroke-width="2" stroke-linejoin="round" stroke-miterlimit="10"/><path d="M37.877 19.924h0c-.088.027-.167.057-.26.083L36.225 31.16c-.396 3.173-.66 6.365-.665 9.562v.042c0 7.152-1.996 10.722-4.32 13.082-.884.898-1.813 1.621-2.7 2.298.545.416 1.076.817 1.566 1.229l.016.013c.377.316.75.598 1.118.862.285.204.567.399.842.574l.057.035c.295.186.584.357.863.512l.048.027c.287.159.564.301.828.43l.068.032c.248.119.485.226.707.321l.042.018c.19.08.929.428 1.225.567 2.324-1.596 4.05-3.945 4.748-6.746.23-.922.292-1.878.292-2.828V22.784c-2.04-.86-2.811-2.078-3.083-2.86z" fill="none" stroke="#000" stroke-width="2" stroke-linejoin="round" stroke-miterlimit="10"/><g fill="none" stroke="#000" stroke-width="2" stroke-linejoin="round" stroke-miterlimit="10"><path d="M16.12 22.244c-.739.46-1.728.874-3.058 1.157.45 1.011.781 3.017-1.248 6.03l-.576.57 4.882 4.349V22.244zM24.73 24.924c-3.197-1.358-3.21-3.615-3.21-3.615.36-.356.84-.594 1.32-.752a1.18 1.18 0 00.812-.953 11.13 11.13 0 01-2.132.637h-1.992l1.395 11.382 3.807-6.699z"/></g><g fill="none" stroke="#000" stroke-width="2" stroke-linejoin="round" stroke-miterlimit="10"><path d="M40.96 22.784V34.35l4.314-3.842-.324-.32-.764-.756c-2.029-3.013-1.699-5.019-1.248-6.03a10.88 10.88 0 01-1.978-.618zM32.115 24.512l4.05 7.126 1.452-11.63c.093-.026.172-.056.261-.084-.381.117-.784.226-1.238.316h-2.16a11.086 11.086 0 01-2.132-.637c.061.421.351.801.812.953.48.158.96.396 1.32.752 0 .001-.006 1.846-2.365 3.204z"/></g><path d="M27.969 59.785a9.6 9.6 0 01-4.964-1.657c-1.727-1.187-2.949-2.909-3.44-4.85-.139-.551-.205-1.217-.205-2.092v-2.181" fill="none" stroke="#000" stroke-width="2" stroke-linecap="round" stroke-linejoin="round" stroke-miterlimit="10"/></svg>