<svg height="100" width="100" xmlns="http://www.w3.org/2000/svg" viewBox="0 0 88.08 88.08"><path fill-rule="evenodd" clip-rule="evenodd" d="M81.122 39.496c-7.026 7.18-19.488 6.496-31.288 7.521.171 6.481 1.077 12.128.902 20.76-.038 1.868.103 4.48-.301 6.017-1.108 4.215-6.225 8.249-9.628 9.324-4.787 1.515-11.78.559-12.333-5.414-.437-4.706 3.999-10.402 5.415-14.441 1.838-5.253 3.099-9.651 4.211-15.344-12.333-.507-33.608.802-30.084-16.847C10.16 20.339 20.782 12.409 29.377 7.004 35.285 3.29 41.674.1 50.736 3.094c1.087.359 2.461 1.267 3.61 1.806 5.628 2.639 9.643 5.719 14.14 10.228 6.208 6.225 13.393 12.289 12.636 24.368zM37.198 5.199c.165 5.139 10.998 4.491 9.626-.601-3.136-1.079-6.284-.211-9.626.601zm11.733.603c-1.188 4.48-7.193 5.584-12.033 3.911-.896-.909-1.188-2.423-2.106-3.31-3.664 1.25-7.542 2.285-9.326 5.416 3.581 6.527-3.313 16.123-11.432 15.644-1.641-1.146-1.5-1.635-2.407-2.708-3.045 6.374-2.822 14.199 3.009 17.148 2.06 1.042 6.159 1.585 9.627 2.406 5.626 1.333 10.576 1.964 14.44.603-.07-1.475.53-2.278.301-3.912-1.971-.435-5.781.968-6.317-.902 1.768-.526 4.154-.175 6.919-.302.206-2.561.052-3.629 0-6.317-4.691-.279-3.479 5.345-7.221 6.016 1.471-1.739 2.813-3.605 3.611-6.016-6.767-1.085-9.301 3.679-13.538 6.016 2.633.276 6.519-.702 7.822.903-5.694-.669-12.891 1.752-15.043-2.106 5.047-6.758 20.267-6.618 33.694-6.618 6.642 0 13.19-.605 18.653.903 3.408.939 9.428 3.069 6.618 6.618-1.08-.11-1.103-.808-2.106-.301-6.288 2.474-14.345 3.445-21.059 2.106.043.846-.737.868-1.505.903-.235 1.239.462 1.544.302 2.707 8.354-1.609 23.847.179 28.58-4.512 1.888-1.872.325-7.683-.902-10.53-1.395-3.229-4.49-5.588-6.019-8.123-7.175 4.042-17.768-4.391-13.537-10.831-2.655-1.883-4.787-5.464-9.025-4.812zm10.831 5.114c-.448.354-.85.755-1.203 1.203 1.573 4.852 5.688 8.742 11.432 8.424-2.291-3.126-6.256-7.183-10.229-9.627zm-34.598 4.513a1.52 1.52 0 01-.902-.903c-5.286 1.231-8.979 4.059-10.529 9.026 4.75 5.361 10.78-2.747 11.431-8.123zm24.67 25.27c6.584-1.168 16.654.802 22.864-3.61-2.587-1.928-7.085-3.543-10.831-3.309.895 2.213 3.024 3.192 4.514 4.813-.235.066-.351.251-.302.602-3.782-.43-4.657-3.768-6.618-6.018-2.488.357-4.976-1.022-6.619.302-.363 3.473 1.992 4.224 2.708 6.619-2.619-.891-3.928-3.093-3.61-6.92-1.134-.63-2.434.073-3.309-.3.123 3.031.343 6.372 1.203 7.821zm-8.123-1.504c-1.188 11.26-3.438 18.252-7.221 27.376-1.23 2.968-3.908 6.637-3.309 9.929 1.481 8.148 15.029 3.58 17.148-1.204 1.179-2.664.057-4.753 0-6.618-.039-1.241.319-2.762.301-4.212-.156-11.074-.911-23.487-1.807-30.084-.017-.184-.045-.355-.301-.301-1.539 1.768-3.271 3.345-4.811 5.114zm-24.669-1.504c3.526 3.417 9.087-.646 9.928-3.309-3.667.746-7.702 1.123-9.928 3.309z"/><path fill-rule="evenodd" clip-rule="evenodd" d="M50.436 19.34c2.82 9.484-14.302 10.882-14.141 3.008.14-6.779 10.645-9.601 14.141-3.008zm-12.035 3.008c.646 4.29 9.596 4.667 10.229.301.597-4.128-4.344-5.757-7.222-5.114-2.228 1.182-3.27 3.064-3.007 4.813zM34.49 71.386c.227.737-.337 3.265-.902 4.211-1.384-.795.183-3.544.902-4.211zM35.694 74.695c1.125.779-1.351 2.479-2.407 3.009.099-1.707 1.591-2.019 2.407-3.009zM37.198 76.5c-.424 1.08-1.01 1.998-2.407 2.105.287-1.216 1.399-1.609 2.407-2.105z"/></svg>