<svg height="100" width="100" xmlns="http://www.w3.org/2000/svg" viewBox="0 0 50 50"><path fill-rule="evenodd" clip-rule="evenodd" d="M30.499 30.685a268.42 268.42 0 0015.013-17.431c.822 6.104-.036 11.825-2.312 16.817-2.786 6.111-8.045 11.461-14.079 14.397-3.52 1.726-11.081 3.62-14.989 2.406 5.554-5.121 11.021-10.485 16.367-16.189M26.753 0C19.701 17.246 11.416 33.005 1.466 48.744c2.592 2.19 7.314 1.073 10.179-.018 4.506 2.769 14.304.344 18.715-1.819 6.59-3.242 12.273-9.016 15.32-15.702 3.862-8.471 3.274-15.625 1.347-24.366-4.955 6.445-9.975 12.616-15.445 18.645C33.717 15.629 31.139 8.621 26.753 0zm-.487 41.891a2.379 2.379 0 10-4.758 0 2.379 2.379 0 004.758 0zm1.048-4.934a2.77 2.77 0 105.54 0 2.77 2.77 0 00-5.54 0zm6.091-4.878a2.77 2.77 0 105.325-1.535 2.77 2.77 0 00-5.325 1.535zm4.962-6.564a2.38 2.38 0 104.574-1.317 2.38 2.38 0 00-4.574 1.317zM26.987 6.576c3.25 7.66 3.532 15.942.24 23.599-5.298 5.581-10.727 10.845-16.242 15.88-1.605.644-3.652 1.301-5.382 1.242C13.755 34.25 20.991 20.753 26.987 6.576z"/></svg>