<svg height='100px' width='100px'  fill="#000000" xmlns="http://www.w3.org/2000/svg" viewBox="0 0 512 512" x="0px" y="0px"><defs><style>.cls-1{fill:none;stroke:#000000;stroke-linecap:round;stroke-linejoin:round;stroke-width:20px;}</style></defs><title>radicchio-vegetable-vegan-healthy-vegetarian-organic</title><path class="cls-1" d="M256,11.34c94.56,0,171.21,71.88,171.21,160.55S395.76,500.65,256,500.65,84.75,260.56,84.75,171.89,161.41,11.34,256,11.34Z"></path><path class="cls-1" d="M199.92,111.15S135.44,306.52,195.61,483h0A109.67,109.67,0,0,0,256,500.65S191.19,399.2,199.92,111.15Z"></path><path class="cls-1" d="M311.53,226.69c-8.48,200.22-55.56,274-55.56,274A109.67,109.67,0,0,0,316.33,483c35.11-103,27.78-212.4,15.58-285.68C325.18,209.24,317.53,218.47,311.53,226.69Z"></path><line class="cls-1" x1="201.18" y1="242.6" x2="234.56" y2="208.73"></line><path class="cls-1" d="M256,11.34a181.7,181.7,0,0,0-51.72,7.46l3.07,5.06c23,1.21,62.5,7.2,78.15,33.16,22.69,37.66,69.83,57.3,59.36,106.42a117.51,117.51,0,0,1-12.92,33.9h0c7.89,47.39,13.74,109.88,7.39,176,0,0,8.31,29.13,45.78,19,32.44-75.53,42.1-171.26,42.1-220.43C427.18,83.22,350.53,11.34,256,11.34Z"></path><line class="cls-1" x1="173.88" y1="242.6" x2="138.9" y2="208.73"></line><line class="cls-1" x1="122.47" y1="256" x2="170.15" y2="299.69"></line><line class="cls-1" x1="131.52" y1="320.75" x2="169.94" y2="356.94"></line><line class="cls-1" x1="205.61" y1="299.69" x2="246.6" y2="258.4"></line><line class="cls-1" x1="212.96" y1="355.75" x2="246.6" y2="326.36"></line><path class="cls-1" d="M285.47,57c-22.7-37.65-95.55-33.29-95.55-33.29C128.15,48,84.75,105.18,84.75,171.89c0,45.12,8.14,129.44,34.55,201.39,25.82,40,59.63,45.3,59.63,45.3-28.84-156.43,21-307.43,21-307.43-4.5,148.44,10.52,247.33,26.14,308.31,29.64,10.45,24.49-25.18,55.92-51.37s20.95-93.32,19.2-116.21,33.17-39.32,43.65-88.44S308.16,94.68,285.47,57Z"></path></svg>