<svg height="100" width="100" xmlns="http://www.w3.org/2000/svg" viewBox="0 0 76.16 86.94"><g data-name="Calque 2"><g data-name="Calque 1"><path d="M73.61 30.27a17.14 17.14 0 01-.4 4.35 29.61 29.61 0 01-6.26 12.88 142.26 142.26 0 00-8.44 12 35.61 35.61 0 01-10.9 11c-1.46.92-2.86 1.95-4.28 2.94a28 28 0 01-5.74 2.83 10.88 10.88 0 01-5.62.34 21.83 21.83 0 01-2.31-.37 4.91 4.91 0 01-3.9-5.69 1.77 1.77 0 01.89-1.3.7.7 0 01.86 0 .54.54 0 01.15.74c-.39.54 0 .87.25 1.26A2.76 2.76 0 0031 72.47a11.22 11.22 0 005-2.24c3.19-2.47 6.47-4.84 9.41-7.62.79-.75 1.5-1.57 2.22-2.38 2.14-2.41 4.17-4.92 6.17-7.44.65-.82 1.38-1.59 2.05-2.4A34.29 34.29 0 0061 42.25a1.84 1.84 0 01.17-.37 46.93 46.93 0 003.39-5.79c1.44-2.7 2.38-5.55 1.44-8.68-.38-1.27-.69-2.55-1.09-3.81a39.64 39.64 0 01-1.68-11 43.76 43.76 0 01.49-8.6 16.11 16.11 0 01.75-2.75 3.28 3.28 0 01.4-.82 1 1 0 011.6-.13A1.89 1.89 0 0167 1a50.66 50.66 0 002.42 4.7 19.57 19.57 0 012.35 7.94c.38 4.67 1.1 9.3 1.62 14 .09.87.14 1.75.22 2.63zm-9.07-19.21c.12 2.45.54 4.86.68 7.3a12.5 12.5 0 00.43 2.81c.1.34.28.66.71.56s.45-.39.43-.72c-.05-.61-.15-1.21-.2-1.82q-.4-5.07-.79-10.14v-.61c-.09-.54-.39-.87-.74-.8s-.49.47-.49.87c-.02.86-.03 1.7-.03 2.55zm4 22.36c0-.41 0-.71-.41-.78s-.59.23-.7.57a28.16 28.16 0 01-2.65 5.58c-.63 1.08-1.37 2.09-2.08 3.12a22.41 22.41 0 00-1.43 2.8c-.19.38-.21.74.21 1s.72 0 .92-.38a6.6 6.6 0 00.48-1A8.15 8.15 0 0164 42.16a34.27 34.27 0 004.2-7.76c.14-.34.23-.7.32-.98zM33.07 74.34a8.29 8.29 0 003.42-1.62 2.84 2.84 0 00.38-.47.75.75 0 000-1c-.26-.29-.66-.28-1.06.13a5.06 5.06 0 01-2 1.13c-.41.15-.83.29-1.23.47a.69.69 0 00-.46.89c.14.36.46.45.95.47zm5.16-3.27A4.82 4.82 0 0039.68 70a.63.63 0 00.13-.82.66.66 0 00-.87-.28 2.72 2.72 0 00-1.41 1.23.66.66 0 00.69.94zm11.52-8.94a.67.67 0 00-.68.71A1.49 1.49 0 0050.35 64a.69.69 0 00.75-.65c.01-.49-.83-1.22-1.36-1.21zm10.54-9.93c0-.46-.39-.65-.74-.84a1 1 0 00-1-.1.62.62 0 00-.29.6 1.44 1.44 0 001.73.93.63.63 0 00.3-.59zm-18.45 15a1.41 1.41 0 00-1.26.92.64.64 0 00.63.66c.46 0 1.15-.59 1.14-1a.54.54 0 00-.51-.54zM70.24 16a.61.61 0 00-.7-.55c-.56 0-1.09.46-1 .89a.67.67 0 00.81.58 1 1 0 00.89-.92zM68 31c.38 0 .55-.26.59-.64s-.17-.81-.53-.83-.6.24-.64.62A.72.72 0 0068 31z"/><path d="M0 83.53a5.26 5.26 0 01.33-2.21 29.56 29.56 0 00.92-3.12A17.61 17.61 0 013 74c1.3-2.42 2.56-4.86 3.62-7.4 1.54-3.66 4.1-6.61 6.73-9.5a67.93 67.93 0 016.27-5.65 81.21 81.21 0 007.61-7.05 41.54 41.54 0 014.09-3.67c2.16-1.86 4.34-3.73 6.35-5.73a44.12 44.12 0 014.54-3.77 122.45 122.45 0 0110-7.29 12.58 12.58 0 014.14-1.63 3.73 3.73 0 013.28.63 16.31 16.31 0 001.62.83 1.34 1.34 0 001.18 0c.35-.13.7-.27 1.05-.37a.59.59 0 01.78.3.66.66 0 01-.21.82 1.64 1.64 0 01-.71.38 6.63 6.63 0 00-3.68 2.72 19.17 19.17 0 01-5.14 4.57 40.46 40.46 0 00-6.93 5.48 109.13 109.13 0 00-9.78 10.21 16.48 16.48 0 01-2.4 2.48L31.06 54a13.67 13.67 0 01-2.38 1.56c-1.6.84-3.1 1.82-4.61 2.8a14 14 0 00-3 2.86 11.29 11.29 0 00-.75 1 102.59 102.59 0 01-9.1 11.58c-2.51 2.81-4.61 6-7.26 8.65a2.84 2.84 0 00-.78 1.29 14.28 14.28 0 00-.85 2.37 1 1 0 01-.91.83 1 1 0 01-1-.81 14.72 14.72 0 01-.42-2.6zM56.32 24.6a.59.59 0 00-.74-.51 2.42 2.42 0 00-.55.25 19.48 19.48 0 00-2.81 1.83c-1.74 1.36-3.53 2.64-5.34 3.91-1.64 1.15-3.3 2.26-4.84 3.55-6.47 5.43-12.56 11.3-19.19 16.55-3.79 3-7 6.61-10.42 10a6.71 6.71 0 00-1 1.19 37.81 37.81 0 00-3.82 7.05c-.54 1.5-1.17 3-1.76 4.45a3.39 3.39 0 00-.17.48A.57.57 0 006 74a.5.5 0 00.7-.22 11.38 11.38 0 00.76-1.43c.65-1.49 1.22-3 1.9-4.5a23.53 23.53 0 014.16-6.83c2.6-2.68 5.29-5.26 8-7.87 2.17-2.11 4.65-3.85 6.94-5.82q5.08-4.4 10.05-8.91a137.25 137.25 0 0117.1-12.92 3.72 3.72 0 00.55-.44.62.62 0 00.16-.46zM25.77 54.93a.84.84 0 00.9-.46.63.63 0 00-.41-.9 2.8 2.8 0 01-.77-.65.75.75 0 00-1-.12.84.84 0 00-.18 1.1 2.06 2.06 0 001.46 1.03zm-9.89 6.39a.68.68 0 00-.7.7 1.48 1.48 0 001.26 1.13.71.71 0 00.76-.65c.03-.5-.76-1.19-1.32-1.19zm-11 15.57a.93.93 0 00.89-.65c.17-.4.42-.8.11-1.25a.63.63 0 00-.42-.26c-.42-.08-.74.14-1 .72-.16.43-.44.89.06 1.3a1.06 1.06 0 00.4.13zm44.77-43.64a1.22 1.22 0 00-1.06-1.06.7.7 0 00-.71.7 1.13 1.13 0 001 1 .67.67 0 00.77-.64zm-11.23 9.92a.7.7 0 00.61-.79 1.13 1.13 0 00-1.03-.93.66.66 0 00-.63.67 1.3 1.3 0 001.05 1.05zM12.16 69.85a.7.7 0 00-.71-.71.89.89 0 00-.93.77.65.65 0 00.59.71 1 1 0 001.05-.77zM51.16 52.4a4.82 4.82 0 01-2.22 3.74 3 3 0 01-4.61-2.66A6.41 6.41 0 0146 49.63a2.85 2.85 0 014.43.23 3.93 3.93 0 01.73 2.54zm-4.7 0a.74.74 0 00-.53.24 1.05 1.05 0 00-.1 1.3 1.27 1.27 0 001.26.65.7.7 0 00.51-.85 5.58 5.58 0 00-.52-1.08.64.64 0 00-.63-.3zm1.37-1a.76.76 0 00-.72-.71.65.65 0 00-.66.63.76.76 0 00.73.7.61.61 0 00.65-.66zM72.62 53.19a2.93 2.93 0 01-3.08-3.76 3.5 3.5 0 012.57-3.06 3.26 3.26 0 014 3.6 3.78 3.78 0 01-3.49 3.22zm-1.83-3.89a1.85 1.85 0 00.32 1.23.64.64 0 00.72.24.54.54 0 00.42-.61 3.6 3.6 0 01.21-1.89.65.65 0 00-.31-.87c-.42-.21-.72 0-1 .33a2.88 2.88 0 00-.36 1.57zM61.26 38.3c-.27-.43-.44-.76-.66-1s-.51-.47-.88-.24a.63.63 0 00-.21.89 7.57 7.57 0 00.81 1.28c.22.27.37.51.08.77s-.57 0-.75-.23a3.39 3.39 0 01-1.07-3.31 3.15 3.15 0 012.57-2.31 4.73 4.73 0 011.85-.09c.46.06.56.29.36.7a35.53 35.53 0 01-2.1 3.54z"/></g></g></svg>