<svg height="100" width="100" xmlns="http://www.w3.org/2000/svg" data-name="Layer 1"><defs><style>.cls-1{fill:none;stroke:#000;stroke-miterlimit:10;stroke-width:2px}</style></defs><path class="cls-1" d="M29.34 89.52a3.19 3.19 0 002.53.91c1.82 0 10.82-2.73 10.82-12.13s1.21-12.53 3.23-16.58 11.52-21.33 11.52-21.33S70.89 14.72 73 8.35a21.06 21.06 0 00-2.73-1S58 33.42 55.52 38.27 47.33 51 46 53s-6.77 12.74-9.6 15.16-8.9 5.05-9.5 14.55c.02.03.32 4.89 2.44 6.81z"/><path class="cls-1" d="M63.8 28.01l12.04-11.37 1.31 1.72-18.39 19.5M72.6 10.88l2.13.91-7.27 12.76M52 43.83a94.51 94.51 0 013.23-18C57.75 17.65 63.51 6 63.51 6l-3.24-1.08s-15 40.71-15 49.36"/><path class="cls-1" d="M53.09 35.07L67.05 4.92l3.53 1.11-9.14 20.04"/><path d="M29.81 89.35a15.26 15.26 0 002.88-2.5 22.47 22.47 0 002.41-3.15 24.93 24.93 0 001.84-3.57 29.55 29.55 0 001.3-3.85 29.82 29.82 0 01-.83 4 25.68 25.68 0 01-1.41 3.9 23.72 23.72 0 01-2.12 3.62 16.7 16.7 0 01-2.95 3.2z"/><path d="M28.35 89.66a26.38 26.38 0 010-3.06 27.93 27.93 0 01.36-3 15 15 0 012.1-5.6 14.54 14.54 0 00-1.07 5.68 26.68 26.68 0 00.15 2.88 24.82 24.82 0 00.45 2.8z"/><path d="M29 90.28a16 16 0 01.49-3.76A26.55 26.55 0 0130.56 83a31.37 31.37 0 011.52-3.26c.56-1.05 1.19-2.07 1.84-3.05-.51 1.07-1 2.15-1.38 3.26a30.63 30.63 0 00-1 3.36 25.3 25.3 0 00-.57 3.42 14.68 14.68 0 000 3.3z"/></svg>