<svg height="100" width="100" xmlns="http://www.w3.org/2000/svg" viewBox="0 0 50 50"><path d="M20.467 44.917c.03.009 3.048.884 3.531 3.28a1 1 0 001.896.204l.102-.233c.021-.046.038-.095.05-.143.6-2.25 3.458-3.079 3.536-3.102 13.55-4.53 14.074-11.539 13.18-15.313-1.112-4.697-5.62-8.107-10.72-8.107h-6.12v-2.757c.228-.105.443-.241.627-.418l5.163-2.836c.104-.057.197-.133.275-.222a2.169 2.169 0 00.336-2.345 2.177 2.177 0 00-1.063-1.078l.728-.842a2.168 2.168 0 00.334-2.344 2.168 2.168 0 00-1.992-1.28h-2.486V3.846A2.848 2.848 0 0025 1a2.854 2.854 0 00-2.857 2.845v3.537H19.67c-.867 0-1.631.49-1.992 1.28a2.168 2.168 0 00.334 2.343l.902 1.044a2.467 2.467 0 00-.882 1.04 2.444 2.444 0 00.38 2.642c.085.099.19.18.307.238l4.736 2.374c.14.132.3.237.467.329v2.81h-5.963c-5.1 0-9.608 3.41-10.721 8.107-.893 3.775-.369 10.783 13.23 15.328zm-.626-30.622a.463.463 0 01.01-.376.454.454 0 01.424-.274h.474a1 1 0 00.757-1.654l-1.981-2.293a.176.176 0 01-.03-.204c.052-.112.144-.112.174-.112h3.473a1 1 0 001-1V3.845a.852.852 0 011.702 0v4.537a1 1 0 001 1h3.486c.03 0 .122 0 .173.112a.176.176 0 01-.029.204l-1.98 2.293a1 1 0 00.756 1.654h1.08c.03 0 .123 0 .174.111a.193.193 0 01.019.107l-4.602 2.528v-2.397a1 1 0 10-2 0v2.346l-4.08-2.045zm-1.883 9.187l14.084.02c3.716 0 7.039 2.183 8.367 5.339h-4.883a1 1 0 000 2h5.425c.098.695.106 1.377.017 2.042h-1.817a1 1 0 000 2h1.26c-1.437 3.29-5.329 6.093-11.41 8.127-.129.036-2.541.72-3.992 2.664-1.446-1.958-3.865-2.645-3.957-2.669-6.105-2.041-10.003-4.84-11.452-8.122h1.245a1 1 0 000-2H9.033a7.498 7.498 0 01.012-2.042h6.31a1 1 0 000-2H9.584c1.322-3.167 4.65-5.36 8.375-5.36z"/></svg>