<svg height="100" width="100" xmlns="http://www.w3.org/2000/svg" viewBox="0 0 66 66"><path d="M45.9 36.5c-4.7 4.7-5.8 11.4-2.7 15.3-3.2 2.5-6.1 4.1-7.6 4.8-1-4.3-1.3-10.4 1.4-17.3.5-1.3.9-2.5 1.2-3.8 7-.3 12.6-7.9 12.6-17.3C50.9 8.8 45 1 37.8 1s-13 7.8-13 17.3c0 8.9 5 16.2 11.5 17.2-.3 1.1-.6 2.1-1 3.2-1.3 3.2-1.9 6.3-2.2 9-1-.1-2.8-.3-5-1.2 1.1-2 1.5-4.5 1.1-7.1-.5-3.6-2.4-7.1-5.3-10-5.4-5.4-14.2-7.8-19.3-2.7C0 31.3 1.2 39.9 7.3 45.9c5.4 5.4 14.1 7.7 19.2 2.7.1-.1.2-.3.3-.4 2.7 1.1 4.9 1.4 6.1 1.5-.2 8.7 3.4 14.5 3.6 14.9.3.5.9.6 1.3.3.5-.3.6-.9.3-1.3 0 0-1.1-1.9-2.1-4.9 1.5-.7 4.8-2.4 8.6-5.4 4.4 3.2 11 1 14.9-3 4.6-4.6 6.3-11.7 2.2-15.9-4.1-4.3-11.3-2.3-15.8 2.1zM26.7 18.3c0-8.5 5-15.4 11.1-15.4s11.1 6.9 11.1 15.4c0 8.1-4.5 14.7-10.2 15.3.5-2.5.8-5 .8-7.4 3.8-2.9 4.9-6.9 5-7 .1-.5-.2-1-.7-1.2-.5-.1-1.1.2-1.2.7 0 0-.8 2.7-3.1 5-.1-2.6-.4-4.9-.7-7 2.8-3.3 3.5-6.4 3.5-6.5.1-.5-.2-1-.8-1.1-.5-.1-1 .2-1.1.8 0 0-.4 2-2.1 4.4-.6-2.8-1.3-4.6-1.3-4.8-.2-.5-.7-.8-1.2-.6-.5.1-.8.7-.6 1.2 0 .1 1.4 3.8 2 9.3-1.3-.8-2.8-2.7-3.7-4.2-.3-.5-.9-.6-1.3-.3-.5.3-.6.9-.3 1.3.5.8 3 4.6 5.6 5.4.2 2.2.2 4.5 0 7-2.1-1.5-3-4.7-3-4.8-.1-.5-.7-.8-1.2-.7-.5.1-.8.7-.7 1.2.1.2 1.3 4.7 4.7 6.4-.1 1-.3 2-.5 3-5.7-.8-10.1-7.4-10.1-15.4zm-18 26.2C3.4 39.2 2.2 31.8 6 28c4.2-4.2 11.8-1.9 16.5 2.7 2.6 2.6 4.3 5.8 4.8 8.9.3 2.3 0 4.4-1 6.1-.7-.3-1.4-.7-2.1-1.2 1.2-4.7-.8-7.1-.9-7.2-.3-.4-.9-.4-1.4-.1-.4.3-.5.9-.1 1.4.1.1 1.3 1.6.6 4.8-2.2-1.6-4.5-3.9-6.7-7-.3-.4-.9-.5-1.4-.2-.4.3-.5.9-.2 1.4.9 1.2 1.8 2.3 2.7 3.3-2.3.2-4.5-1.2-4.6-1.3-.5-.3-1-.2-1.3.3-.3.5-.2 1.1.3 1.3.1.1 2.5 1.6 5.3 1.6.6 0 1.3-.1 2-.3 2.3 2.2 4.6 3.8 6.6 4.9-4.4 4-11.9 1.6-16.4-2.9zm49.6 4.3c-3.2 3.2-8.3 5.2-12 3 1.4-1.2 2.9-2.6 4.3-4.2.4.1.9.1 1.5.1 1.1 0 2.6-.2 3.9-1 .5-.3.6-.9.3-1.3-.3-.5-.9-.6-1.3-.3-.9.6-1.9.7-2.8.7.5-.6 1-1.3 1.5-2 .3-.4.2-1-.2-1.4-.4-.3-1-.2-1.4.2-1.3 1.9-2.8 3.6-4.3 5.1-.4-1.9.5-4.1.5-4.1.2-.5 0-1.1-.5-1.3-.5-.2-1.1 0-1.3.5-.1.2-1.6 3.5-.3 6.4-.5.4-.9.9-1.4 1.2-2.5-3.1-1.5-8.7 2.5-12.7 3.6-3.6 9.8-5.6 13.1-2.2 3.4 3.6 1.5 9.7-2.1 13.3z"/></svg>