<svg height="100" width="100" xmlns="http://www.w3.org/2000/svg" viewBox="0 0 333 333" fill-rule="evenodd" clip-rule="evenodd" shape-rendering="geometricPrecision" text-rendering="geometricPrecision" image-rendering="optimizeQuality"><defs><style>.str0,.str1{stroke:#000;stroke-width:13.3307;stroke-linecap:round;stroke-linejoin:round}.str1{stroke-width:6.94488}.fil0{fill:none}</style></defs><path class="fil0 str0" d="M228 46s-36 103-28 161c0 0-2 8 5 27 2 7 19 40 16 56 0 0-5 20-29 17 0 0-4 18-25 12 0 0-16 4-22-2 0 0-7-6-7-12 0 0-24 5-28-16 0 0-3-8 5-28l18-45s4-100-25-172m30 261s11-60 21-79c0 0-6-143-13-184m46 265s-8-60-18-80c0 0 12-143 20-184M218 220H116M206 237l-82-1"/><path class="fil0 str1" d="M174 296h-18M130 288l-7-2M209 288l-8 1"/></svg>