<svg height="100" width="100" xmlns="http://www.w3.org/2000/svg" viewBox="0 0 100.01 100.01"><path d="M32.323 23.901c.496.191.912.492 1.352.785 1.122.746 2.065 1.589 2.977 2.576 1.56 1.688 3.52 2.978 5.399 4.275.953.657 1.834 1.405 2.806 2.036 1.052.683 2.134 1.309 3.17 2.019 2.193 1.502 4.378 3.016 6.504 4.611 2.133 1.6 4.201 3.297 6.336 4.918 1.947 1.478 3.72 3.183 5.698 4.614 2.141 1.549 4.404 2.951 6.579 4.454 1.04.719 2.066 1.465 3.13 2.147 1.071.686 2.23 1.232 3.338 1.854 1.097.616 2.164 1.298 3.092 2.153.089.082.296-.124.303-.256.215-.313.489-.588.679-.917.171-.297.2-.803-.187-.929a.337.337 0 00-.183-.008c-.808-1.33-2.344-2.312-3.556-3.223-1.669-1.254-3.491-2.32-5.075-3.683-1.417-1.219-2.616-2.673-3.97-3.959-1.524-1.449-3.149-2.815-4.762-4.164-6.096-5.1-12.14-10.507-16.4-17.291-.111-.177-.389.281-.284.45l.072.113c.275.993.829 1.702 1.478 2.523.907 1.148 1.676 2.377 2.451 3.616 1.438 2.298 3.26 4.279 5.08 6.279a69.502 69.502 0 006.162 5.986c1.092.938 2.171 1.898 3.288 2.806.618.503 1.278 1.089 1.966 1.589a2.698 2.698 0 00-.328-.047c-.075-.005-.369.21-.263.272 1.024.599 2.148.958 3.152 1.629 1.056.706 1.976 1.58 2.833 2.511l.595.647c-.52-.325-1.012-.75-1.487-1.065a54.47 54.47 0 00-3.073-1.901c-2.165-1.242-4.066-2.893-6.02-4.435-1.945-1.534-4.01-2.915-5.845-4.583-.883-.803-1.704-1.676-2.618-2.443-.877-.735-1.877-1.316-2.859-1.896-.984-.581-1.948-1.161-2.837-1.884-.872-.709-1.668-1.509-2.505-2.257-1.784-1.592-3.857-2.746-5.934-3.902-1.914-1.065-3.453-2.698-5.175-4.028a11.815 11.815 0 00-2.827-1.61c-.537-.218-1.072-.425-1.59-.668l-.016-.01a2.833 2.833 0 00-.338-.165 7.049 7.049 0 01-.938-.573.077.077 0 00-.068-.022c-.133.023-.301.345-.21.455.254.306.536.458.908.601zm50.678 35.781c-.002-.124-.005-.249-.002-.373.003-.095.036-.436.139-.591.046.006.1-.024.148-.071.034.01.072.035.115.08.237.258-.124.617-.4.955zM72.588 50.72c-.481-.335-1.073-.738-1.689-1.042-.351-.275-.651-.611-.985-.91-.501-.448-1.076-.825-1.608-1.235-1.132-.874-2.189-1.862-3.277-2.79a69.24 69.24 0 01-6.197-5.976c-1.889-2.068-3.767-4.139-5.265-6.512l-.218-.347c3.594 4.244 7.823 7.961 12.072 11.533a239.198 239.198 0 014.572 3.969c1.473 1.303 2.735 2.822 4.181 4.153 1.412 1.299 3.093 2.252 4.637 3.376.866.63 1.754 1.265 2.56 1.97.551.483 1.163.989 1.588 1.597a1.628 1.628 0 00-.228.457 2.395 2.395 0 00-.078.734c-.719-.66-1.533-1.2-2.381-1.693.506-.007 1.029-.077 1.532.007.053.009.3-.138.233-.197-.342-.296-.776-.257-1.204-.249h-.209c-2.14-1.021-4.02-3.056-5.393-4.544a16.051 16.051 0 00-2.643-2.301zm-30.24-20.318c2.057 1.212 4.111 2.305 5.925 3.884.844.735 1.639 1.523 2.498 2.241.866.724 1.842 1.273 2.817 1.832.989.567 1.957 1.162 2.852 1.87.927.734 1.741 1.621 2.613 2.418 1.829 1.671 3.904 3.072 5.849 4.604 1.959 1.543 3.86 3.18 6.021 4.437 1.048.61 2.073 1.216 3.073 1.902.723.496 1.531 1.259 2.411 1.425a.119.119 0 00.041-.004c.406.409.83.799 1.294 1.15.557.421 1.122 1.024 1.772 1.37l-.067-.003-.023.001c-.794-.43-1.599-.839-2.369-1.281-2.278-1.308-4.385-2.981-6.555-4.46-2.099-1.431-4.194-2.777-6.112-4.451-1.94-1.693-4.031-3.192-6.06-4.775-4.124-3.219-8.285-6.383-12.743-9.134-.988-.609-1.877-1.328-2.813-2.011-1.026-.749-2.102-1.424-3.111-2.197-.952-.729-1.9-1.508-2.721-2.382-.586-.623-1.16-1.2-1.802-1.729.716.351 1.38.77 2.032 1.259 1.755 1.319 3.276 2.913 5.178 4.034z"/><path d="M93.582 73.572c-.042-.069-.008-.199-.088-.299-.084-.104-.266-.166-.383-.216-.296-.126-.618-.174-.918-.286.407-.217.672-.624.859-1.051.15-.343.167-.68.243-1.038.035-.166.067-.341.022-.505-.085-.313-.685-.595-.947-.745.326-.192.61-.653.695-.928.187-.605.108-1.2.043-1.817-.01-.092-.02-.187-.068-.267-.202-.333-1.071-.242-1.403-.28-.576-.065-1.149-.148-1.726-.205-1.072-.104-2.48-.267-3.479.213-1.317-.901-2.643-1.807-4.076-2.471-.839-.388-1.699-.714-2.494-1.191-.874-.524-1.603-1.331-2.386-1.98a129.327 129.327 0 01-2.534-2.146c-.705-.616-1.504-1.383-2.382-1.835-.538-.607-1.327-.91-1.887-1.514-.731-.788-1.586-1.5-2.444-2.144-1.607-1.208-3.447-2.026-5.151-3.075-1.764-1.085-3.123-2.501-4.531-3.99-.613-.649-1.25-1.482-2.026-1.937-.383-.225-.911-.511-1.389-.501-.28-.343-.718-.519-1.123-.699-.754-.336-1.365-.78-1.959-1.354-1.215-1.175-2.298-2.22-3.839-2.984-1.676-.831-3.441-1.486-5.132-2.29a212.185 212.185 0 00-5.468-2.508c-1.711-.755-3.059-1.829-4.444-3.064-1.366-1.218-2.834-2.374-4.284-3.49-1.503-1.156-3.477-1.955-5.228-2.656-1.26-.504-2.513-1.104-3.791-1.606-.935-.863-1.821-1.728-3.017-2.245-.677-.293-1.399-.375-2.124-.466-.304-.038-2.397-.844-2.43-.41.4.226.726.674 1.075.974.43.371.876.722 1.301 1.098.818.725 1.661 1.416 2.477 2.142.85.756 1.819 1.235 2.794 1.8.994.576 1.733 1.471 2.501 2.304 1.625 1.764 3.566 3.221 5.495 4.628 1.934 1.41 3.801 2.909 5.76 4.284 2.013 1.413 4.193 2.524 6.295 3.791 2.154 1.298 4.247 2.699 6.439 3.932 2.073 1.166 4.223 2.132 6.185 3.491.924.64 1.914 1.153 2.821 1.823.537.397 1.13.579 1.765.753.046.012.264.404.327.468.144.145.315.272.482.389.391.272.824.478 1.238.71.767.43 1.5.922 2.226 1.418.228.156.453.313.679.471-.407-.166-.796-.399-1.216-.532-.8-.253-1.59-.613-2.304-1.053-1.329-.818-2.418-1.927-3.81-2.656-1.457-.762-2.958-1.444-4.42-2.2a125.921 125.921 0 00-5.113-2.508c-3.165-1.46-5.869-3.4-8.518-5.65-1.264-1.074-2.801-1.787-4.214-2.638-1.289-.776-2.684-1.651-4.179-1.963-.158-.104-.313-.172-.449-.16-.148.013-.315.495-.176.483.406-.035 1.109.793 1.391 1.035.719.618 1.588.998 2.387 1.496 1.994 1.244 3.43 3.075 5.128 4.666 1.648 1.544 3.347 3.018 4.961 4.598a15.038 15.038 0 003.027 2.276c.566.326 1.15.619 1.745.888.42.19.874.344 1.208.675.401.397.825.58 1.31.873.773.466 1.645.728 2.425 1.178.71.41 1.336.969 1.984 1.466.741.569 1.539 1.067 2.29 1.624 1.518 1.124 3.154 1.976 4.784 2.92.614.356 1.383.732 1.895 1.222-.443.021-1.07-.524-1.452-.721a29.801 29.801 0 00-1.706-.805c-1.109-.485-2.238-.92-3.356-1.381a44.194 44.194 0 01-6.609-3.398c-1.019-.637-1.985-1.353-3.034-1.943-1.112-.625-2.284-1.135-3.407-1.74-1.055-.569-2.153-1.044-3.249-1.524-1.2-.526-2.359-1.14-3.578-1.622-2.378-.942-4.798-1.753-7.165-2.732-2.407-.997-4.871-1.69-7.385-2.361-2.386-.637-4.786-1.23-7.218-1.669a49.752 49.752 0 00-3.688-.532c-1.152-.121-2.475-.35-3.63-.229-.203.021-.38.078-.509.249-.047.062-.083.139-.067.215.035.162.927.301 1.107.365.398.142.787.307 1.198.411.853.216 1.708.397 2.573.554.924.167 1.809.541 2.716.78.929.245 1.863.469 2.798.69 1.914.45 3.875.763 5.699 1.516.744.307 1.479.661 2.261.864 1.063.276 2.147.434 3.188.794 1.772.612 3.46 1.448 5.185 2.177 1.658.701 3.394 1.041 4.999 1.863 1.616.828 3.161 1.846 4.702 2.804.767.477 1.477 1.019 2.199 1.559.603.451 1.322.943 1.859 1.516-.404-.03-1.179.107-1.362.531-.113.261-1.709-.263-1.891-.327-.673-.236-1.313-.556-1.939-.895-2.008-1.086-4.106-2.052-6.077-3.197-.921-.535-2.05-.779-3.065-1.084-1.17-.352-2.308-.789-3.452-1.216-1.058-.395-2.134-.711-3.212-1.045-.831-.257-2.243-.893-3.062-.307-.114.082-.2.217-.185.356.031.268.852.487 1.073.596.469.23.931.474 1.393.717.924.486 1.851.973 2.827 1.349 2.003.772 3.981 1.6 5.995 2.352.965.36 1.956.647 2.92 1.007.983.367 1.878.941 2.854 1.329 2.072.824 4.185 1.568 6.294 2.291.952.326 1.874.762 2.84 1.043 1.086.316 2.122.645 3.176 1.064.157.062.316.122.474.182-.875-.116-1.753-.223-2.6-.453-2.09-.567-4.227-.764-6.28-1.47-4.162-1.432-8.508-2.227-12.841-2.991-1.037-.183-2.03-.356-3.02-.727-.94-.352-1.839-.81-2.753-1.22-1.779-.798-3.669-1.192-5.427-2.06-1.815-.896-3.543-1.742-5.492-2.318-.635-.188-5.08-2.17-5.257-1.179-.07.393.778.8 1.048.981.511.343 1.043.652 1.585.942 1.081.578 2.204 1.073 3.321 1.577 1.07.482 2.158.869 3.193 1.43 1.104.599 2.212 1.142 3.3 1.77 2.168 1.252 4.393 2.067 6.776 2.803 2.447.756 4.819 1.741 7.314 2.34 1.231.295 2.492.458 3.738.674 1.374.239 2.733.562 4.103.822 2.618.497 5.253.906 7.87 1.413 2.518.488 4.966 1.224 7.489 1.681 2.638.478 5.257 1.235 7.847 1.926.59.157 1.179.311 1.775.445 1.496.337 2.991.275 4.386 1.006.912.478 1.669 1.022 2.66 1.346.922.302 1.805.736 2.767.9.641.11 1.036.449 1.63.67.532.197 1.093.312 1.627.506 1.057.384 2.127.752 3.149 1.224 1.001.462 1.867 1.152 2.879 1.598 1.017.448 2.058.804 3.06 1.292.694.338 2.146 1.436 2.925.955.374-.231.494-.795.581-1.195.123-.536.226-1.179-.092-1.67zm-.676-2.168c-.075.426-.332.829-.744.98.048-.533.417-1.01.752-1.449.011.156.019.313-.008.469zm-.303-2.511c-.174.159-.418.206-.628.327-.066-.033-.134-.064-.201-.095.116-.803.283-1.854.962-2.361.083.383.138.769.146 1.162.007.323-.024.735-.279.967zm-2.859-2.471c.724.058 1.822.42 2.657.324-.518.603-.743 1.48-.881 2.265-.164-.071-.33-.14-.499-.209a17.377 17.377 0 01-2.829-1.479 57.522 57.522 0 01-1.556-1.036c1.035.044 2.076.052 3.108.135zm-31.637-15.52c.05-.089.077-.186.043-.237-.43-.638-1.387-.633-2.032-.969-.478-.249-.891-.634-1.337-.934-.465-.314-.962-.581-1.443-.87-1.006-.603-1.945-1.292-2.976-1.859-1.042-.574-2.115-1.092-3.166-1.65-2.208-1.173-4.292-2.579-6.42-3.887-2.184-1.342-4.47-2.497-6.587-3.947-1.973-1.351-3.84-2.85-5.762-4.271-1.946-1.439-3.76-2.913-5.517-4.58-.842-.799-1.515-1.708-2.485-2.374-.92-.632-1.942-1.026-2.81-1.746-1.43-1.185-2.891-2.336-4.314-3.526.289.114.583.214.893.283.919.203 1.781.261 2.659.651a5.275 5.275 0 011.779 1.285 15.785 15.785 0 00-.704-.21H17.9c-.093.006-.245.134-.246.22-.003.019-.002.037.012.049 1.571 1.355 3.388 2.408 4.977 3.739 1.62 1.356 2.876 3.112 4.587 4.364 1.689 1.236 3.782 1.663 5.647 2.544.315.149.619.313.918.485a2.552 2.552 0 00-.782-.048c-.042.004-.283.155-.19.194 1.498.629 2.798 1.271 4.033 2.361 1.265 1.117 2.195 2.555 3.488 3.65.712.603 1.567.962 2.384 1.397.903.481 1.778 1.012 2.657 1.535 1.767 1.051 3.385 2.248 5.07 3.42 1.657 1.153 3.5 2.081 5.285 3.017a59.658 59.658 0 005.603 2.604c.889.354 1.808.632 2.586 1.203.684.502 1.344 1.069 2.01 1.595.684.54 1.208 1.246 1.917 1.76.323.234.694.425 1.04.623.166.095 1.096.336 1.17.505.033.074.29-.087.275-.164-.078-.377-.124-.316-.51-.431-.391-.116-.757-.365-1.104-.574-.751-.453-1.343-.983-1.956-1.606-.608-.619-1.341-1.079-1.997-1.643-.802-.69-1.593-1.117-2.592-1.451-4.021-1.345-7.993-3.391-11.469-5.856-1.592-1.128-3.13-2.277-4.812-3.273-.881-.521-1.757-1.05-2.651-1.548-.904-.504-1.84-.9-2.655-1.549-1.209-.963-2.088-2.265-3.176-3.353.322.196.651.383.99.554 1.873.944 3.971 1.474 5.778 2.528 1.959 1.143 3.724 2.695 5.566 4.015 1.822 1.306 3.691 2.545 5.642 3.65.917.519 1.769 1.121 2.647 1.701.783.517 1.54 1.226 2.501 1.335.087.01.366-.21.245-.265-1.845-.826-3.386-2.241-5.149-3.225-1.959-1.092-3.819-2.354-5.644-3.654-1.782-1.269-3.488-2.667-5.322-3.861-.894-.582-1.886-.913-2.875-1.292a39.27 39.27 0 01-3.146-1.384c-1.876-.916-3.424-2.326-5.28-3.28-1.849-.951-3.896-1.378-5.665-2.506-1.767-1.126-3.057-2.936-4.601-4.33-.775-.7-1.66-1.238-2.509-1.837-.35-.247-.687-.504-1.024-.76 1.265.55 2.56 1.047 3.833 1.548 1.69.665 3.52 1.456 5.012 2.497.663.463 1.264 1.016 1.884 1.534.714.596 1.476 1.125 2.181 1.732 1.401 1.208 2.683 2.393 4.363 3.209 1.688.82 3.436 1.518 5.128 2.334 1.728.834 3.482 1.59 5.242 2.354a12.568 12.568 0 014.205 2.934c.554.578 1.127 1.103 1.834 1.488.355.193.82.316 1.2.533-.061.033-.109.08-.073.121.484.56 1.388.805 2.009 1.228.768.523 1.421 1.201 2.009 1.915.528.641.942 1.344 1.557 1.911.701.647 1.538 1.141 2.277 1.742.737.6 1.411 1.238 2.222 1.741.79.491 1.573.976 2.349 1.489.736.486 1.314 1.061 1.983 1.623.274.23.607.395.899.602.29.205.329.388.567.475.252.648.475 1.309.741 1.952l.053.123c-1.073-.624-2.111-1.337-3.201-1.885-1.819-.915-3.695-1.511-5.376-2.696-1.418-1.001-2.91-1.882-4.364-2.821zm-16.251-4.386c-1.699-1.641-3.465-3.198-5.189-4.813-.852-.799-1.606-1.668-2.421-2.5-.805-.822-1.748-1.498-2.722-2.106-.72-.449-1.461-.805-2.122-1.333.991.449 1.963.917 2.905 1.503 1.416.88 2.913 1.601 4.219 2.65 1.344 1.08 2.635 2.194 4.052 3.183 1.415.987 2.916 1.767 4.477 2.492 3.135 1.456 6.185 3.086 9.293 4.596 1.419.689 2.547 1.744 3.831 2.635.694.481 1.47.806 2.255 1.106.637.243 1.334.654 2 .776.106.019.213-.13.259-.267.317.213.639.419.975.604.828.456 1.722.794 2.592 1.158 1.673.7 3.204 1.641 4.761 2.562.167.099.334.195.5.288.168.175.369.298.605.314.287.139.58.268.889.377.683.24 1.442.442 2.026.891.015.011.102.017.086-.016-.383-.793-1.296-1.045-2.068-1.331a10.601 10.601 0 01-1.077-.474 2.262 2.262 0 01-.316-.318c-.213-.274-.346-.612-.472-.932-.207-.523-.333-1.079-.74-1.484-.112-.62-.709-.889-1.233-1.229-.694-.451-1.234-1.135-1.937-1.603-1.424-.948-2.875-1.787-4.201-2.86 1.619 1.003 3.346 1.798 4.897 2.921.794.575 1.53 1.247 2.232 1.928.654.635 1.318 1.095 2.068 1.609.026.018.062.011.1-.009.642.632 1.411 1.168 2.083 1.755.837.73 1.672 1.457 2.529 2.164.811.668 1.565 1.436 2.418 2.047.745.534 1.638.862 2.472 1.228 1.974.867 3.807 2.226 5.582 3.439.895.612 1.83 1.154 2.818 1.6.917.414 1.852.705 2.616 1.368a1.586 1.586 0 00-.006.154c-.363.492-.783 1.019-.96 1.606-.5-.464-1.157-.719-1.776-.992-.827-.365-1.601-.847-2.342-1.361-.855-.593-1.602-1.333-2.442-1.951-.949-.698-1.959-1.313-2.965-1.925-.907-.552-1.841-1.076-2.69-1.716-.813-.613-1.663-1.009-2.553-1.49-.849-.459-1.715-1.131-2.47-1.733-.395-.315-.762-.633-1.252-.621.004-.011.004-.022-.003-.031-.665-.755-1.54-1.051-2.466-1.374-1.08-.376-2.097-.906-3.135-1.383-2.23-1.024-4.642-1.587-6.958-2.384-2.331-.803-4.538-1.856-6.82-2.775-2.146-.865-4.368-1.526-6.517-2.385-2.152-.86-4.016-1.944-5.687-3.558zm19.529 9.567c.989.627 1.887 1.432 2.824 2.136a46.777 46.777 0 003.294 2.242c1.158.725 2.414 1.315 3.669 1.851l.207.084c-.041-.009-.083-.017-.124-.027-1.984-.457-4.009-1.097-5.811-2.06-.966-.517-1.858-1.157-2.789-1.732-.89-.549-1.628-1.18-2.446-1.826-.674-.533-1.142-1.268-1.908-1.685-.399-.217-.873-.474-1.267-.794 1.093.468 2.189.927 3.315 1.325.349.124.702.24 1.055.353-.042.055-.059.108-.019.133zm-5.046-.162c-1.429-1.036-2.841-2.096-4.277-3.121-.738-.527-1.584-.812-2.397-1.194-.405-.19-.989-.42-1.455-.707 1.77.674 3.58 1.242 5.347 1.924.9.347 1.786.725 2.671 1.105.352.597 1.003 1.024 1.578 1.374.771.469 1.292 1.072 1.95 1.679 1.535 1.416 3.35 2.527 5.155 3.568 2.782 1.606 5.964 2.207 9.077 2.817.09.018.183.035.273.016s.176-.087.187-.178c.014-.116-2.735-1.178-3.015-1.3-1.353-.586-2.684-1.249-3.934-2.033-1.03-.646-2.086-1.321-3.036-2.079-.517-.413-1.077-.765-1.586-1.191a10.636 10.636 0 00-.38-.307c1.539.469 3.086.916 4.562 1.544 1.071.456 2.099 1.009 3.181 1.439.659.262 1.325.509 1.974.796 1.911.845 3.313 2.472 5.202 3.405.312.154.617.323.919.496-.602-.255-1.236-.471-1.805-.704-1.054-.433-2.157-.739-3.219-1.153-2.206-.861-3.763-2.626-5.744-3.823-.054-.033-.221.026-.174.103.59.955 1.636 1.619 2.518 2.285.976.737 2.019 1.391 3.147 1.867 1.049.442 2.156.74 3.218 1.152.958.371 2.008 1.094 3.042 1.164.063.004.183-.071.228-.149.961.621 1.902 1.281 2.878 1.873.987.598 1.904 1.251 2.806 1.928a4.69 4.69 0 01-.419-.07c-.828-.185-1.634-.485-2.452-.711-1.811-.5-3.485-1.293-5.315-1.75-1.968-.491-3.634-1.479-5.494-2.236a156.19 156.19 0 00-5.632-2.178c-1.722-.625-3.172-1.817-4.727-2.755-1.617-.978-3.319-1.785-4.852-2.896zm-9.056-.227c-.424-.532-1.027-.941-1.496-1.353-.662-.581-1.409-1.09-2.136-1.589-1.578-1.084-3.27-2.041-4.93-2.992-.752-.431-1.553-.864-2.382-1.122-.959-.3-1.905-.518-2.843-.898-1.834-.743-3.607-1.623-5.471-2.293-.775-.279-1.577-.438-2.382-.604-.978-.202-1.878-.548-2.793-.935-1.748-.74-3.573-1.079-5.416-1.502-1.968-.452-3.885-1.051-5.837-1.549-.855-.218-1.743-.356-2.605-.552-.345-.078-.691-.209-1.04-.335 4.584.221 9.009 1.261 13.455 2.442 2.411.641 4.765 1.32 7.076 2.269 2.368.973 4.771 1.81 7.161 2.721 1.13.431 2.198 1.006 3.302 1.497 1.093.486 2.193.948 3.256 1.497 1.047.541 2.103 1.061 3.151 1.6 1.156.594 2.203 1.352 3.294 2.052a43.536 43.536 0 006.608 3.459c1.749.737 3.517 1.421 5.221 2.252-.557-.142-1.108-.298-1.646-.437-1.768-.458-3.586-.832-5.311-1.434a68.632 68.632 0 00-4.59-1.407c-.449-.122-1.049-.412-1.642-.57.029-.084.036-.168-.004-.217zm.54.932c.682.245 1.394.412 2.096.593 1.436.369 2.789.948 4.206 1.371 1.486.444 3.014.778 4.516 1.17 1.355.354 2.846.866 4.258.857.037 0 .076-.022.112-.054.761.487 1.538.945 2.37 1.289.799.331 1.641.559 2.454.853.967.35 1.899.813 2.856 1.192.861.342 1.694.771 2.535 1.177-.14.009-.273.015-.393.013-.584-.008-1.187-.358-1.76-.572-.625-.234-1.268-.405-1.907-.594-.63-.186-1.159-.492-1.715-.831-.573-.351-1.184-.564-1.812-.792-1.366-.498-2.666-1.099-4.085-1.447-1.447-.355-2.93-.543-4.378-.895-1.426-.346-2.843-.725-4.271-1.063a31.904 31.904 0 01-2.059-.556c-.647-.2-1.196-.592-1.835-.811-.609-.208-1.195-.341-1.761-.662-.211-.119-.412-.245-.615-.365a.087.087 0 00-.025-.032.77.77 0 00-.23-.113 5.85 5.85 0 00-.295-.152c.548-.101 1.319.274 1.738.424zm1.387 2.312c-1.074-.261-2.084-.763-3.13-1.118-2.114-.719-4.204-1.505-6.294-2.291-.894-.336-1.721-.83-2.591-1.22-1.018-.456-2.136-.727-3.183-1.115-2.017-.747-3.994-1.568-5.995-2.351-1.704-.667-3.245-1.64-4.911-2.388.904.075 1.802.355 2.655.622 1.078.337 2.146.674 3.205 1.072 1.05.395 2.096.797 3.17 1.122 1.025.31 2.127.569 3.067 1.088 1.916 1.058 3.902 1.978 5.811 3.054.959.54 1.943 1.042 3.021 1.29.378.087.774.166 1.163.144.357-.02.806-.155 1.131.042.148.086.295.176.443.268.548.342 1.1.542 1.718.718.651.185 1.194.544 1.815.797.65.265 1.37.41 2.05.579 2.778.688 5.547 1.331 8.351 1.898 1.537.31 2.946.9 4.396 1.473.63.249 1.264.445 1.863.768.572.308 1.076.662 1.693.886.616.224 1.263.364 1.884.576.596.203 1.177.493 1.787.651.547.142 1.274-.107 1.849.011.492.215.992.41 1.505.56.853.25 1.721.444 2.578.681 1.037.287 1.979.801 3.002 1.124.842.266 1.702.471 2.545.74.644.205 1.61.193 2.232.51.436.334.873.672 1.316 1.011.673.514 1.42.957 2.174 1.341.661.337 1.435.555 2.017 1.031-.808-.331-1.605-.674-2.439-.957-1.09-.37-2.195-.699-3.261-1.137-1.131-.465-2.233-.983-3.371-1.431-2.044-.806-4.307-.807-6.38-1.562-1.028-.374-2.012-.789-3.082-1.042-.56-.132-1.122-.205-1.673-.38-.402-.128-.73-.388-1.137-.505.004-.042-.004-.073-.031-.081-.877-.278-1.776-.48-2.634-.818-1.012-.399-1.964-.884-3.003-1.224-2.019-.66-4.078-1.08-6.148-1.538a42.681 42.681 0 01-6.292-1.908c-.955-.375-1.886-.748-2.886-.991zM87.355 73.73c-1.021-.421-1.893-1.109-2.879-1.597-1.087-.537-2.275-.906-3.414-1.317-.444-.16-.91-.262-1.359-.406-.525-.168-.897-.539-1.447-.645-1.111-.214-2.123-.646-3.195-.997-.981-.32-1.764-.925-2.669-1.398-.646-.338-1.512-.688-2.25-.551a.087.087 0 00-.027-.023c-.338-.154-.728-.074-1.095-.145a32.613 32.613 0 01-1.949-.46c-1.311-.339-2.62-.685-3.934-1.012-1.122-.28-2.24-.582-3.367-.842-1.373-.317-2.769-.48-4.131-.854-5.004-1.374-10.184-1.96-15.259-3.015-2.574-.535-5.133-.855-7.643-1.676-2.508-.82-5.042-1.625-7.527-2.508-1.161-.413-2.246-.952-3.315-1.562a101.27 101.27 0 00-3.322-1.795c-2.103-1.099-4.291-2.02-6.427-3.056-.961-.466-1.904-.96-2.76-1.594.631.154 1.271.316 1.878.507.905.285 1.751.753 2.67 1.033 1.935.59 3.664 1.478 5.471 2.371 1.749.864 3.649 1.253 5.425 2.05 1.745.784 3.364 1.489 5.263 1.796 2.131.344 4.23.861 6.35 1.263 2.233.423 4.383.94 6.46 1.673.886.313 1.786.631 2.713.803 1.202.222 2.387.377 3.572.698a22.16 22.16 0 002.671.574c.907.13 1.879.183 2.757.457.058.018.123-.033.175-.107 1.117.343 2.247.646 3.366.913 2.072.494 4.131.921 6.165 1.569.943.3 1.841.686 2.734 1.109.907.429 1.912.607 2.873.875.027.007.055-.001.083-.02.842.515 1.538.771 2.48.944 1.072.197 2.091.6 3.098 1.006 2.055.829 4.338.793 6.386 1.579 2.123.814 4.158 1.773 6.32 2.49 1.064.352 2.112.722 3.136 1.179.331.148.666.285 1.013.389.198.06.646.109.831.27a.308.308 0 00-.042.067c-.425.483-.552 1.278-.772 1.866a1.942 1.942 0 00-.089.327 117.83 117.83 0 00-5.018-2.228zm6.107 1.157c-.012.319-.052 1.035-.374 1.211-.115.062-.2.083-.262.075l-.073-.034c-.16-.134-.024-.625.048-.809.165-.419.267-.935.493-1.346.13.291.181.555.168.903z"/></svg>