<svg height="100" width="100" xmlns="http://www.w3.org/2000/svg" viewBox="0 0 58 64"><g fill="none" stroke="#000" stroke-width="2" stroke-linecap="round" stroke-miterlimit="10"><path d="M29 1v62M22 16h14M21 11l8 4.97M25 9l4 6.97M37 11l-8 4.97M33 9l-4 6.97M22 27h14M21 22l8 4.66M25 20l4 6.66M37 22l-8 4.66M33 20l-4 6.66M26 3l3 6.55M32 3l-3 6.55M56.24 20.96L29 48M2 22l27 26M17 27L7 37M14 23l-1.58 9.06M10 24l2.42 8.06M3 34l9.42-1.94M4 30l8.42 2.06M25 35L15 45M22 30l-1.96 9.62M18 32l2.04 7.62M10 42l10.04-2.38M12 38l8.04 1.62M6 21l1.85 6.53M1 26l6.85 1.53M41 26.48l10 10M44 22.48l1.58 9.07M48 23.48l-2.42 8.07M55 33.48l-9.42-1.93M54 29.48l-8.42 2.07M33 34.48l10 10M36 29.48l1.96 9.62M40 31.48l-2.04 7.62M48 41.48L37.96 39.1M46 37.48l-8.04 1.62M52 20.48l-1.85 6.53M57 25.48l-6.85 1.53"/></g></svg>