<svg height="100" width="100" xmlns="http://www.w3.org/2000/svg" viewBox="0 0 512 512"><defs><style>.cls-1{fill:none;stroke:#000;stroke-linecap:round;stroke-linejoin:round;stroke-width:20px}</style></defs><path class="cls-1" d="M231.93 227.51S205.8 341.77 30.44 501M329.2 228.77S369.36 108.5 494.42 120c0 0-23.6 106.68-165.22 108.77zM176.36 337.07S296.51 251 329.2 228.77M106.51 189.03l30.75 200.4"/><path class="cls-1" d="M137.26 389.43S237.89 208.75 82.31 54.16c0 0-116.26 182.84 54.95 335.27zM319.25 348.06l-156.71 18.08M162.54 366.14s109.52-119.75 289.8-44c0 0-149.61 138.41-289.8 44zM268.67 132.1l-36.74 95.41M311.06 140.54c-20.11 55.13-79.13 87-79.13 87s-26.41-57.54-6.29-112.69 82.27-104 82.27-104 23.27 74.56 3.15 129.69zM169.27 452.36l-96.74 8.52M72.53 460.88s88.84-90.47 196.19-25.31c0 0-68.01 85.55-196.19 25.31z"/></svg>