<svg height="100" width="100" xmlns="http://www.w3.org/2000/svg" data-name="Layer 2"><path d="M32.454 76.375c-9.348-4.765-20.14-6.981-22.68-1.999-.822 1.611-.95 4.436 3.108 8.742a44.243 44.243 0 0011.832 8.439 33.53 33.53 0 0015.099 3.348 35.198 35.198 0 006.547-.562 1.5 1.5 0 001.064-2.087c-.197-.438-4.966-10.78-14.97-15.881zm-6.377 12.509a41.196 41.196 0 01-11.012-7.823c-2.553-2.71-3.006-4.561-2.619-5.322.374-.733 1.65-1.159 3.6-1.159 3.384 0 8.796 1.283 15.045 4.468 6.669 3.4 10.872 9.584 12.638 12.64-3.508.363-10.985.595-17.652-2.804zM40.041 24.81a26.04 26.04 0 00-7.896-3.302c-3.694-.754-5.233.357-5.877 1.42-.644 1.063-.914 2.944 1.461 5.868a26.02 26.02 0 006.582 5.47 20.75 20.75 0 0010.541 2.705 17.867 17.867 0 002.145-.113 1.5 1.5 0 001.214-2.004c-.099-.267-2.47-6.59-8.17-10.043zm-4.175 6.891c-5.608-3.399-7.27-6.652-7.034-7.216.11-.131.469-.229 1.05-.229 1.518 0 4.552.664 8.604 3.12a17.643 17.643 0 015.992 6.59 17.568 17.568 0 01-8.612-2.265zM67.546 37.538c-10.004 5.1-14.773 15.442-14.97 15.88a1.5 1.5 0 001.064 2.087 35.198 35.198 0 006.547.562 33.53 33.53 0 0015.1-3.348 44.243 44.243 0 0011.831-8.439c4.058-4.306 3.93-7.13 3.108-8.74-2.54-4.985-13.331-2.767-22.68 1.998zm17.389 4.685a41.195 41.195 0 01-11.012 7.823c-6.668 3.4-14.145 3.168-17.652 2.804 1.766-3.056 5.97-9.24 12.638-12.64 9.849-5.02 17.621-5.315 18.645-3.308.387.76-.066 2.61-2.62 5.321zM81.326 57.48a44.256 44.256 0 00-13.78 4.618c-10.004 5.1-14.773 15.443-14.97 15.88-.009.02-.012.042-.02.063a1.488 1.488 0 00-.063.193c-.01.039-.019.076-.025.115a1.494 1.494 0 00-.018.205c-.001.036-.005.072-.003.108a1.488 1.488 0 00.031.23c.006.027.007.055.015.083a1.407 1.407 0 00.335.618c.029.033.061.06.092.089a1.487 1.487 0 00.196.157c.039.026.077.05.118.071a1.482 1.482 0 00.225.097c.042.014.083.03.127.041.018.005.035.014.054.018a35.186 35.186 0 006.547.561 33.538 33.538 0 0015.1-3.348 44.253 44.253 0 0011.831-8.438c4.058-4.306 3.93-7.13 3.108-8.741-.822-1.612-3.026-3.372-8.9-2.62zM68.91 64.77a41.207 41.207 0 0112.8-4.316 11.623 11.623 0 014.336.092l-28.206 14.38a31.137 31.137 0 0111.07-10.156zm16.026 2.013a41.206 41.206 0 01-11.012 7.822 31.181 31.181 0 01-14.712 2.989L87.408 63.22a11.637 11.637 0 01-2.473 3.564zM50.139 5.105h-.014c-1.243.006-2.988.757-4.243 4.31a26.026 26.026 0 00-1.232 8.47c.03 6.664 4.23 11.95 4.41 12.172a1.5 1.5 0 001.168.559h.006a1.5 1.5 0 001.17-.569c.176-.223 4.332-5.545 4.303-12.21a26.035 26.035 0 00-1.304-8.46c-1.28-3.527-3.023-4.272-4.264-4.272zm2.568 12.745a17.627 17.627 0 01-2.491 8.544 17.648 17.648 0 01-2.566-8.523c-.027-6.556 1.88-9.672 2.485-9.766.61.089 2.545 3.188 2.572 9.745zM50.059 32.771a1.5 1.5 0 00-1.5 1.5v59.124a1.5 1.5 0 003 0V34.27a1.5 1.5 0 00-1.5-1.5zM47.532 61.478c-.006-.04-.016-.077-.025-.115a1.489 1.489 0 00-.063-.194c-.008-.02-.011-.042-.02-.062-.197-.438-4.966-10.78-14.97-15.88a44.256 44.256 0 00-13.78-4.62c-5.873-.753-8.08 1.01-8.9 2.62-.822 1.612-.95 4.436 3.108 8.742a44.253 44.253 0 0011.832 8.439 33.529 33.529 0 0015.099 3.348 35.198 35.198 0 006.547-.562c.019-.004.036-.013.054-.017.044-.01.084-.027.127-.042a1.481 1.481 0 00.225-.096c.04-.022.08-.045.118-.071a1.487 1.487 0 00.196-.158c.03-.03.063-.056.092-.089a1.407 1.407 0 00.335-.618c.007-.027.01-.055.015-.083a1.488 1.488 0 00.03-.23c.002-.036 0-.071-.002-.108a1.494 1.494 0 00-.018-.204zM16.107 43.432a17.225 17.225 0 012.184.151 41.207 41.207 0 0112.8 4.316 31.182 31.182 0 0111.06 10.15L13.948 43.672a8.514 8.514 0 012.158-.24zm9.97 14.303a41.206 41.206 0 01-11.012-7.823 11.637 11.637 0 01-2.473-3.564l28.196 14.375a31.182 31.182 0 01-14.71-2.988zM52.245 36.518a1.494 1.494 0 00.186.136c.042.025.085.044.128.065a1.479 1.479 0 00.2.08c.048.014.095.025.144.035.034.007.065.02.1.024a17.867 17.867 0 002.144.113 20.753 20.753 0 0010.541-2.704 26.02 26.02 0 006.582-5.471c2.373-2.921 2.106-4.801 1.464-5.864l-.002-.004-.008-.01c-.648-1.06-2.191-2.158-5.87-1.41a26.04 26.04 0 00-7.895 3.303c-5.7 3.453-8.071 9.776-8.17 10.043-.008.022-.01.044-.016.066a1.499 1.499 0 00-.047.194c-.007.04-.014.08-.018.12a1.504 1.504 0 00-.003.2c.002.038.001.075.006.113a1.486 1.486 0 00.046.218c.008.03.012.06.022.09a1.414 1.414 0 00.366.58c.031.031.066.055.1.083zM64.134 31.7a15.48 15.48 0 01-5.1 1.887l10.79-6.539a22.683 22.683 0 01-5.69 4.652zm-2.62-4.325a22.564 22.564 0 016.736-2.88L57.468 31.03a15.512 15.512 0 014.046-3.654z"/></svg>