<svg height="100" width="100" xmlns="http://www.w3.org/2000/svg" viewBox="0 0 100.01 100.01"><path d="M64.393 52.125c1.517-1.539 2.871-3.204 3.947-5.081.658-1.148 2.49-4.188 1.551-5.471-.303-.413-1.149.001-1.263.411-1.714 6.161-6.242 10.479-12.128 12.742a50.9 50.9 0 001.141-2.985c3.056-1.184 5.54-3.642 7.368-6.316 2.118-3.099 5.606-9.147 3.938-13.005-.133-.307-1.173.086-1.2.372-.392 4.114-.741 7.587-2.965 11.217-1.57 2.562-3.941 4.782-6.609 6.162.396-1.252.772-2.55 1.138-3.886 6.807-2.399 9.049-15.956 6.976-21.826-.173-.49-1.414.229-1.415.642-.014 3.329.334 6.567-.16 9.89-.581 3.901-2.644 6.933-5.074 9.844.691-3.018 1.154-6.157 1.181-9.239a.73.73 0 00.247-.195c1.399-2.094 1.87-4.732 2.23-7.191.196-1.335 1.209-4.958-.295-5.759-.103-.055-.313-.075-.386.043-1.043 1.72-.837 4.001-1.086 5.967-.146 1.155-.54 2.34-.895 3.52a24.186 24.186 0 00-.226-1.503.539.539 0 00.081-.1c.933-1.635.61-3.581.326-5.362-.207-1.297-.484-2.578-.649-3.882-.116-.916.318-1.888.1-2.747-.026-.104-.252-.088-.321-.062-1.78.674-1.718 2.823-1.577 4.423.069.785.207 1.566.354 2.344a27.986 27.986 0 00-1.989-3.678c.266-.313.497-.691.497-1.092-.001-1.51-.016-3.02-.019-4.53-.001-1.041.255-2.416-.06-3.412-.118-.377-1.493.569-1.514.931-.127 2.117-.098 4.261-.075 6.395a36.975 36.975 0 00-1.097-1.432 39.59 39.59 0 00-.739-.88c.05-1.271-.425-2.546-.771-3.831-.419-1.556-.345-3.398-.851-4.876-.179-.521-1.507.566-1.538.95-.125 1.552.064 3.033.391 4.522-1.06-1.33-1.996-2.737-2.551-4.34-.167-.484-1.754 1.644-1.459 2.464.899 2.504 2.469 4.667 4.177 6.772-.487-.243-1.002-.519-1.53-.783-.474-1.094-1.738-2.107-2.465-2.899a6.788 6.788 0 01-1.25-1.989c-.213-.514.029-1.371-.379-1.732-.299-.264-1.105.196-1.216.501-.607 1.67-.29 3.669.953 4.987.154.163.315.31.481.446-.333.169-.71.466-.597.778.785 2.161 3.469 2.754 5.424 3.52 1.423.558 2.848 1.129 4.265 1.714 1.042 1.381 1.99 2.819 2.7 4.391.877 1.943 1.388 4.052 1.637 6.242-.267-.629-.544-1.254-.822-1.877-.825-1.851-1.701-3.686-2.81-5.386a11.462 11.462 0 00-2.828-2.961c-2.402-1.768-4.553-1.295-7.074-.249-.082.034-.513.273-.316.408 1.574 1.079 3.394 1.039 5.102 1.853 1.695.808 2.902 2.234 3.911 3.775.962 1.47 1.674 3.11 2.426 4.693.308.648.665 1.268 1.066 1.861.437.647.974.858 1.527 1.224-.008 1.322-.1 2.66-.264 4-.307-1.071-.738-2.123-1.086-3.084-.81-2.235-1.904-3.902-3.497-5.654-1.279-1.406-2.135-3.011-3.285-4.441-.407-.506-1.603.548-1.569 1.033.236 3.36 3.17 5.372 5.108 7.875.986 1.274 1.461 2.945 2.006 4.435.223.61.524 3.559 1.532 4.284-.171.748-.36 1.489-.564 2.224-.806-2.46-2.251-4.887-3.151-7.232-.881-2.296-1.392-5.454-3.127-7.275-.243-.255-1.15.01-1.137.398.101 2.949 1.405 5.905 2.423 8.634.844 2.262 1.914 6.51 4.363 7.571a57.168 57.168 0 01-1.426 3.929c-.288-1.602-1.16-3.08-2.198-4.465.223-3.008.139-6.552-1.454-7.57-.351-.224-1.481.43-1.404.862.244 1.367.47 2.676.641 3.978a42.079 42.079 0 01-.622-.767c-3.839-4.882-3.954-9.419-1.895-15.085.226-.623-.985-.221-1.174.085-2.421 3.921-2.925 8.57-1.391 12.926.672 1.908 2.134 3.627 3.488 5.234-.093.06-.161.134-.175.216-.836 4.994-.106 9.75-2.153 14.564-1.085 2.552-2.8 5.074-3.523 7.768-.741.816-1.488 1.626-2.236 2.434.117-.355.221-.669.261-.784.736-2.132 1.696-4.196 2.565-6.276 1.072-2.563 4.081-7.858 3.007-10.668-.194-.508-1.193.1-1.285.437-.98 3.614-2.058 7.033-3.476 10.512-.616 1.512-1.318 2.988-1.907 4.511-.244.631-1.638 3.723-.975 4.225-.024-.018-1.159 1.264-1.232 1.344-.257.282-.513.572-.769.859.743-2.102 1.005-4.664 1.678-6.612 1.063-3.077 2.492-5.833 4.125-8.631.126-.215-.773-.082-.901.052-1.706 1.789-2.669 4.254-3.599 6.501-.725 1.752-1.494 3.487-2.094 5.288-.285.853-1.683 4.525-.757 5.186-.331.39-1.073.993-1.201 1.472.804-2.892.565-6.289 1.262-9.218.858-3.608 3.027-6.643 3.976-10.132.093-.343-.58-.203-.709-.083-2.65 2.464-3.746 6.167-4.765 9.543-.616 2.04-2.971 9.713-.664 11.078-1.805 2.453-3.343 5.09-4.202 7.99-.354 1.197 1.409-.485 1.565-1.046.383-1.388.966-2.718 1.684-4.004 2.277 1.896 6.051 1.627 8.786.882 4.414-1.203 7.562-3.238 10.826-6.379.464-.446-.494-.479-.748-.329-2.292 1.36-4.934 2.473-7.415 3.435-3.641 1.413-7.147.994-10.833 1.36.89-1.421 1.932-2.79 3.069-4.115 4.404 6.255 16.632-3.237 20.058-6.788.331-.343-.168-.455-.432-.42-4.941.657-13.032 10.172-18.086 5.484.716-.773 1.449-1.535 2.187-2.286.014.008.016.019.033.026 6.344 2.535 13.357-2.855 17.58-6.919.325-.312-.216-.4-.449-.336-2.312.632-4.199 1.883-6.316 3.012-3.038 1.621-6.43 1.861-9.61 2.963a173.758 173.758 0 003.151-3.229c3.796 1.055 8.774-1.614 12.011-3.314a21.424 21.424 0 005.472-4.085c.189-.196 2.18-2.544 1.404-2.556-.28-.004-1.505.662-1.202.442-1.992 1.441-3.814 2.912-5.984 4.111-3.306 1.826-6.965 2.589-10.403 3.975.214-.243.432-.486.637-.729a69.828 69.828 0 001.605-1.982c2.658.933 6.348-1.263 8.608-2.486 2.582-1.397 6.201-3.934 6.697-7.094.072-.462-.821-.179-.968.013-1.94 2.523-4.756 4.376-7.588 5.729-1.795.858-3.779 1.346-5.549 2.245a62.579 62.579 0 002.649-3.884c.027.119.132.187.362.155 3.547-.498 7.156-2.939 9.94-5.071 2.028-1.554 5.886-5.061 5.397-7.954-.071-.423-1.095.042-1.194.283-2.454 5.95-8.639 7.983-13.678 11.242a54.987 54.987 0 002.495-4.741c3.18.697 6.741-2.505 8.735-4.528zm-13.604-1.262c.259.336.509.693.757 1.061-.008.611-.03 1.229-.082 1.866-.268 3.267-1.003 6.505-1.863 9.66-.227.834-.584 1.458-.436 2.2a72.492 72.492 0 01-1.606 2.028c2.659-5.193 4.31-11.241 3.23-16.815zm.617 11.63c.883-2.74 1.216-5.823 1.574-8.502.573.757 1.211 1.434 1.977 1.925-.318.72-.641 1.425-.97 2.096a41.763 41.763 0 01-2.581 4.481z"/></svg>