<svg height="100" width="100" xmlns="http://www.w3.org/2000/svg" viewBox="0 0 0.55 0.94" fill-rule="evenodd" clip-rule="evenodd" shape-rendering="geometricPrecision" text-rendering="geometricPrecision" image-rendering="optimizeQuality"><path class="fil0" d="M.268.157C.223.197.245.225.243.289.241.337.236.374.236.425.266.349.34.226.268.157zM.166.915C.127.887.101.869.065.902c.024.047.066.047.101.013zM.174.329c-.07.059.001.35.021.438C.189.653.214.425.174.329zM.392.823C.398.807.397.792.349.822.332.832.333.844.328.855.36.861.375.861.392.823zM.34.362C.299.486.198.621.234.767.253.711.263.647.287.584.346.428.461.227.426.001.35.07.373.121.364.223A.642.642 0 01.34.362zM0 .531c.014.095.131.307.213.357C.184.816.148.761.121.685.098.621.071.538 0 .531zM.503.313C.43.347.348.499.331.56.38.515.392.484.453.438.478.419.512.398.531.374.554.344.555.289.503.314zM.414.57C.353.597.27.739.278.807.302.741.419.633.414.57z"/></svg>