<svg height='100px' width='100px'  fill="#000000" xmlns="http://www.w3.org/2000/svg" xmlns:xlink="http://www.w3.org/1999/xlink" version="1.1" x="0px" y="0px" viewBox="0 0 100 100" style="enable-background:new 0 0 100 100;" xml:space="preserve"><desc xmlns:shape="http://adobe.com/products/shape"></desc><desc xmlns:shape="http://adobe.com/products/shape"></desc><desc xmlns:shape="http://adobe.com/products/shape"></desc><path d="M75.6,37.4c0.6-1.1,1.2-2.3,1-3.6c-0.2-1.9-2-3.2-3.6-4.1c-1.1-0.7-2.6-1.3-3.7-0.6c-0.5,0.3-0.8,0.9-1.1,1.4  c-1.3,2.4-2.6,4.8-3.9,7.2c-0.8-1.9,0.6-4,1.4-6c0.9-1.9,0.6-5-1.5-5.2c-1.6-0.2-2.8-1.9-2.9-3.5s0.3-3.3,0.4-4.9  c0.1-1.6-0.2-3.5-1.6-4.5c-1.3-1-3.7-0.3-3.8,1.4c-0.2,7.7-1.9,15.4-5,22.4c-0.7-2.8-0.3-5.8,0.9-8.4c0.4-0.7,0.8-1.6,0.7-2.3  c0-0.3-0.3-0.4-0.5-0.3c-0.4,0.3-1.2,0.2-1.4-0.3c1.9-1.6,3.2-3.9,3.6-6.4c-1.1,1.2-2.1,2.3-3.2,3.5c-1.3-0.9-0.1-2.9,1.1-3.8  s2.7-2.5,1.7-3.8c-0.7,1-1.5,2-2.2,3c-1.3-0.8-0.4-2.9,0.9-3.7c1.3-0.9,3-1.8,2.8-3.3c-1.3,0.6-2.5,1.5-3.3,2.6  c-0.8-0.7-0.4-2.2,0.4-2.9c0.8-0.8,1.9-1.1,2.8-1.8c0.9-0.7,1.4-2,0.7-2.9c1.5-1,2.6-2.5,3-4.3c-0.6-0.8-3.5,3.9-6.1,4.4  c0.3-0.8,1-2-1.4-3.4c1.1,1.8,0.1,4.1-1,5.9c-0.8-1.5-2.6-7.3-2.6-4.2c0,0.9,0.2,1.9,0.6,2.7c0.8,1.7,1.4,3.5,1.9,5.4  c0.2,0.6,0.3,1.2,0.1,1.8c-0.2,0.6-0.9,1-1.4,0.7c-0.4-2.8-1.3-5.5-2.8-7.9c-0.4,2.7,0.3,5.5,2,7.6c0.9,1.2,2.2,3,1.2,4.2  c-0.8-1.2-1.7-2.3-2.8-3.3c-0.5,1.1,0.6,2.3,1.5,3.1c0.9,0.9,1.8,2.3,0.9,3.2c-0.8-0.7-1.6-1.5-2.3-2.2c-0.9,2.1,3.6,3.5,2.9,5.7  c-0.8-0.3-1.5-0.6-2.3-0.9c1.7,1.6,2.6,4,2.2,6.3c-2.5-0.8-3.3-3.9-3.7-6.6c-0.6-4-1.2-8-1.8-12c-0.2-1.4-1.4-2.7-2.8-3  c-1.4-0.3-3,0.4-3.8,1.6c-0.9,1.4-0.7,3.2-0.5,4.8c1.2,9.2,3.4,18.2,6.3,26.9c-2.5-1.6-3.7-4.7-4.6-7.6c-1.8-5.4-3.6-10.7-5.4-16.1  c-0.6-1.6-2.9-1.3-4.4-0.7c-1.5,0.6-3.2,1.3-4.3,2.5c-1.2,1.2-1.9,3.3-1,4.8c2.3,4,4,8.3,5.1,12.8c0.8,3.4,2.4,7,1.9,10.7  c-0.2,1.6-0.8,3.1-1.3,4.6c-1.9,5.4-3.5,10.9-3.8,16.6c-0.3,5.7,0.8,11.6,4,16.4c4.5,6.8,12.9,10.6,21.1,10.7  c4,0.1,8.1-0.6,11.7-2.3c5.2-2.4,9.3-7,11.3-12.4c2-5.4,1.7-11.6-0.7-16.8c-1.1-2.4-2.7-4.7-3.1-7.3c-0.4-2.1,0-4.3,0.5-6.3  C71.5,47.4,73.3,42.3,75.6,37.4z M52.9,8.2c0.8-0.7,1.9-0.9,2.9-0.7c-0.9,1.2-2.1,2-3.4,2.5C51.9,9.5,52.3,8.7,52.9,8.2z M60.2,28.2  c0.2-1,1.9-1,2.5-0.2c0.6,0.9,0.5,2,0.3,3.1c-0.3,1.3-0.5,2.6-0.7,3.9c-0.3,1.9-0.7,3.8-1.1,5.8c-0.9,4.1-2.1,8.1-3.6,12  c-1.2,0.3-2.4-1.1-2-2.2c0.7-2,1.1-4.1,1.5-6.2C58.1,39,59.1,33.6,60.2,28.2z M51.2,45.3c0.2-1.9,1-3.8,1.6-5.6  c2.9-8,4.7-16.4,5.2-24.8c0.6-0.3,1.4,0.2,1.6,0.8c0.3,0.6,0.2,1.3,0.1,2c-1.3,11.3-3.3,22.5-6.1,33.5c-0.3-0.2-0.7-0.3-1-0.4  C51.4,49.4,51,47.3,51.2,45.3z M47.7,31.4c0.5-0.3,1.2,0,1.4,0.5c0.6,2.5,0.9,6.4,0.6,8.8c0,0-2.2-4.4-2.4-7.9  C47.2,32.1,47.2,31.7,47.7,31.4z M39.4,13.3c-0.2-0.9,0.2-2.3,1.1-2c0.4,0.1,0.6,0.6,0.7,1c3.1,9.9,2.7,20.7,6.6,30.3  c0.8,2,1.8,4,2.1,6.2c-1.4-0.1-2.7-1.1-3.5-2.3s-1.1-2.7-1.4-4.1c-0.5-2-0.9-4-1.4-6.1C42,28.7,40.7,21,39.4,13.3z M70.7,67.4  c-7.2-1.2-14.1-4.3-19.6-9.1c-0.6,1.1,0.5,2.4,1.5,3.2c5,3.9,10.9,6.5,17.1,7.7c1.4,0.3,2.5,1.7,2.8,3.1c0.3,1.4,0,3-0.3,4.4  c-0.3,1.4-0.5,2.8-0.8,4.2c-0.2,1-0.6,2.3-1.6,2.5c-0.6,0.1-1.2-0.2-1.7-0.5c-7.8-4.2-14.5-10.2-19.5-17.5c-1.1-1.5-2.3-3.3-4.2-3.2  c5.6,9.5,14,17.4,23.8,22.4c0.5,0.3,1.1,0.7,1,1.2c-0.1,0.2-0.2,0.4-0.3,0.6c-0.9,1.2-1.9,2.5-2.8,3.7c-0.7,0.9-1.4,1.8-2.4,2.1  c-1.2,0.4-2.5-0.1-3.6-0.7c-7.2-3.8-11.9-11-15.6-18.2c-2.5-5-4.7-10.2-6.5-15.6c-0.4-1.3-1.4-2.9-2.7-2.6c2.6,7.5,5.2,15.1,9.1,22  c4,6.9,9.4,13.1,16.5,16.7c-2.7,1.1-5.6,2.3-8.5,1.8c-2.1-0.4-3.9-1.6-5.5-3c-7-6-10.4-15-13.3-23.8c-0.4-1.2-1-2.6-2.2-2.8  c1.7,11.6,7.8,22.4,16.8,29.9c-8-1.2-15-7-18.2-14.4c-3.2-7.4-2.7-16.2,0.6-23.5c2-4.4,2.7-9.5,1.9-14.3c-0.8-4.9-3-9.6-5.1-14.1  c-0.8-1.7-1.6-3.5-1.3-5.3c0.3-1.8,2-3.6,3.8-3.1c1.7,0.5,2.3,2.5,2.8,4.1c1.1,4.2,2.6,8.3,4.4,12.2c1.1,2.3,2.3,4.6,4,6.6  c4.1,4.9,10.3,7.4,16,10.2C63,57.3,68.9,61.3,70.7,67.4z M66.2,58.6c-1.7-1.8-3.8-3.3-6.1-4.2c-0.6-0.2-0.6-1.1-0.5-1.7  c0.6-3.7,2.5-7,4.3-10.3c1.9-3.5,3.8-6.9,5.8-10.4c0.6-1.1,2.4-1.2,3.4-0.4c1,0.8,1.3,2.3,1.1,3.6c-0.2,1.3-0.8,2.5-1.4,3.6  C69.6,45.1,67.4,51.8,66.2,58.6z"></path></svg>