<svg height='100px' width='100px'  fill="#000000" xmlns="http://www.w3.org/2000/svg" xmlns:xlink="http://www.w3.org/1999/xlink" version="1.1" x="0px" y="0px" viewBox="0 0 100 100" enable-background="new 0 0 100 100" xml:space="preserve"><g><g><path d="M44.835,58.197c-0.445-0.138-1.005-0.386-1.141-0.786c-0.163-0.478,0.213-1.174,0.354-1.374    c0.333-0.46,0.245-1.101-0.199-1.454c-0.444-0.355-1.088-0.296-1.462,0.131c-0.658,0.754-1.786,0.386-1.847,0.366    c-0.548-0.199-1.154,0.091-1.353,0.64c-0.2,0.553,0.085,1.162,0.637,1.361c0.419,0.152,1.035,0.268,1.707,0.224    c0.013,0.253,0.058,0.514,0.145,0.775c0.231,0.694,0.858,1.63,2.53,2.148c0.104,0.032,0.211,0.048,0.314,0.048    c0.454,0,0.874-0.293,1.016-0.749C45.71,58.967,45.396,58.371,44.835,58.197z"></path><path d="M54.206,67.604c0.029,0.567,0.499,1.008,1.061,1.008c0.019,0,0.037-0.001,0.057-0.002c0.11-0.006,2.726-0.162,4.355-2.006    c0.369-0.418,0.658-0.884,0.864-1.395c0.225,0.147,0.476,0.273,0.754,0.368c1.122,0.382,2.351,0.134,3.649-0.736    c0.487-0.326,0.618-0.987,0.291-1.475c-0.326-0.486-0.986-0.619-1.475-0.291c-0.716,0.479-1.31,0.645-1.774,0.492    c-0.627-0.208-1.027-1.001-1.126-1.282c-0.171-0.507-0.689-0.813-1.217-0.703c-0.524,0.105-0.89,0.584-0.852,1.117    c0.075,1.05-0.154,1.863-0.7,2.487c-1.022,1.166-2.843,1.297-2.886,1.3C54.624,66.52,54.176,67.019,54.206,67.604z"></path><path d="M52.687,51.062c-4.328,0-5.382-1.259-5.428-1.756c0.009-0.563-0.428-1.04-0.997-1.075    c-0.596-0.06-1.091,0.408-1.126,0.995c-0.012,0.177-0.021,1.105,0.857,2.04c1.198,1.275,3.45,1.922,6.693,1.922    c0.587,0,1.063-0.477,1.063-1.063S53.273,51.062,52.687,51.062z"></path><path d="M54.517,52.319c0.2,0.2,0.47,0.311,0.75,0.311s0.55-0.11,0.75-0.311c0.2-0.199,0.311-0.47,0.311-0.75    c0-0.279-0.11-0.56-0.311-0.75c-0.39-0.399-1.109-0.399-1.5-0.01c-0.2,0.2-0.31,0.471-0.31,0.76    C54.207,51.85,54.316,52.12,54.517,52.319z"></path><path d="M28.854,35.345c-0.044,0.26-0.066,0.523-0.066,0.788c0,2.678,2.179,4.856,4.855,4.856c0.38,0,0.753-0.046,1.118-0.136    c0.801,2.314,2.988,3.932,5.544,3.932c1.475,0,2.858-0.55,3.929-1.523c0.672,0.872,1.277,1.716,1.805,2.495    c-7.111,1.85-9.85,8.228-10.713,11.014c-0.845-0.609-1.857-1.688-2.458-2.462c-0.354-0.456-1.004-0.549-1.472-0.205    c-0.464,0.343-0.571,0.992-0.24,1.465c1.709,2.44,1.945,6.942,1.973,8.58c-0.213-0.122-0.443-0.236-0.701-0.342    c-0.541-0.223-1.163,0.039-1.385,0.584c-0.222,0.544,0.04,1.164,0.584,1.385c1.134,0.461,1.445,1.098,2.128,2.493    c0.653,1.335,1.548,3.164,3.638,5.556c2.357,2.697,5.671,3.988,8.34,4.612c0.516,0.419,2.047,1.712,2.924,2.964    c0.859,1.229,1.921,1.897,3.004,1.897c0.052,0,0.103-0.002,0.153-0.005c0.741-0.043,1.803-0.425,2.649-1.998    c1.019-1.892,1.542-2.119,3.274-2.875l0.304-0.132c2.149-0.924,7.159-3.077,9.566-8.272c0.243-0.291,0.763-0.765,1.199-0.765    c0.005,0,0.01,0,0.016,0c0.382,0.011,0.748,0.44,0.987,0.799c0.327,0.488,0.986,0.619,1.475,0.293s0.619-0.986,0.293-1.475    c-0.945-1.413-1.998-1.728-2.715-1.742c-0.275-0.013-0.532,0.03-0.779,0.093c0.782-2.856,1.495-6.441-1.444-12.163    c-1.91-3.72-1.153-5.369-0.518-5.707c0.429-0.188,0.684-0.636,0.628-1.101c-0.057-0.465-0.411-0.838-0.872-0.919    c-2.294-0.4-3.776,0.251-4.636,0.902c-1.269-1.198-2.904-1.782-4.138-2.066c0.585-0.85,1.225-1.81,1.881-2.854    c0.867,1.223,1.939,2.281,3.624,2.281c0.564,0,1.152-0.12,1.797-0.368c2.315-0.887,3.908-3.014,4.174-5.417    c0.653-0.016,1.379-0.122,2.034-0.373c2.903-1.113,4.36-4.381,3.249-7.284c-0.174-0.455-0.404-0.882-0.69-1.276    c0.626-1.154,0.731-2.533,0.257-3.772c-0.318-0.83-0.858-1.533-1.562-2.045c0.182-0.849,0.115-1.732-0.203-2.563    c-0.669-1.745-2.373-2.918-4.241-2.918c-0.556,0-1.102,0.102-1.624,0.302c-0.133,0.051-0.265,0.11-0.396,0.178    c-1.214-0.87-2.853-1.097-4.269-0.557c-1.332,0.511-2.299,1.6-2.699,2.9c-0.312-0.522-0.718-0.978-1.209-1.335    c0.182-0.85,0.115-1.733-0.203-2.562c-0.434-1.133-1.282-2.029-2.39-2.523c-1.106-0.495-2.34-0.528-3.476-0.094    c-0.133,0.051-0.264,0.109-0.395,0.177c-1.225-0.886-2.821-1.111-4.271-0.555c-1.594,0.61-2.674,2.042-2.873,3.682    c-0.326,0.059-0.645,0.147-0.953,0.266c-1.795,0.687-3.458,3.143-3.591,5.143c-1.274-0.787-3.014-0.79-4.289,0.003    c-0.641-0.398-1.381-0.611-2.154-0.611c-2.262,0-4.102,1.84-4.102,4.102c0,0.103,0.004,0.206,0.014,0.311    c-1.104,0.753-1.78,2.002-1.78,3.379C26.762,33.285,27.583,34.633,28.854,35.345z M48.938,35.653    c0.311,2.031,0.686,4.025,1.057,5.813c-0.035-0.001-0.072,0.003-0.107,0.001c-1.759-0.083-2.867-1.266-2.898-1.3    c-0.076-0.086-0.17-0.143-0.263-0.197c0.145-0.414,0.247-0.861,0.26-1.345c0.037-1.328-0.532-2.583-1.692-3.735    c0.098-0.402,0.214-0.969,0.304-1.616L48.938,35.653z M52.616,38.268c0.066,0.279,0.139,0.559,0.244,0.834    c0.154,0.402,0.41,0.745,0.709,1.058c-0.5,0.364-0.996,0.658-1.484,0.872c-0.148-0.715-0.297-1.459-0.442-2.228L52.616,38.268z     M53.573,47.429c-0.199-0.763-0.59-2.311-1.035-4.298c0.967-0.361,1.931-0.936,2.887-1.723c0.595,0.272,1.214,0.493,1.803,0.676    C55.79,44.376,54.43,46.276,53.573,47.429z M46.151,42.247c0.729,0.551,1.956,1.253,3.588,1.342    c0.118,0.007,0.236,0.01,0.354,0.01c0.12,0,0.239-0.014,0.358-0.021c0.158,0.704,0.31,1.352,0.449,1.934    c-0.188-0.171-0.434-0.282-0.709-0.282c-0.65,0-1.273,0.034-1.872,0.098C47.717,44.399,46.986,43.346,46.151,42.247z     M60.321,50.401c0.203,0.291,0.548,0.44,0.898,0.443c0.354-0.007,0.688-0.2,0.88-0.499c0.024-0.037,0.427-0.642,1.453-0.898    c-0.582,1.689-0.181,3.903,1.194,6.579c2.759,5.373,1.93,8.334,1.128,11.197l-0.044,0.158c-0.112,0.402,0.029,0.808,0.32,1.069    c-0.172,0.187-0.283,0.334-0.317,0.381c-0.043,0.06-0.08,0.123-0.11,0.189c-2.046,4.529-6.585,6.48-8.522,7.313l-0.314,0.136    c-2.031,0.887-2.985,1.381-4.296,3.816c-0.294,0.546-0.623,0.867-0.901,0.884c-0.267,0.037-0.765-0.234-1.292-0.989    c-0.285-0.406-0.622-0.809-0.972-1.19c0.427,0.026,0.71,0.03,0.766,0.03c0.001,0,0.001,0,0.001,0c0.587,0,1.062-0.476,1.063-1.062    c0-0.588-0.476-1.063-1.062-1.064c-0.034,0-1.638-0.018-3.723-0.478c-0.001,0-0.001,0-0.001,0    c-2.391-0.526-5.416-1.635-7.477-3.992c-0.763-0.873-1.342-1.651-1.809-2.358c0.248-0.376,0.428-0.878,0.548-1.455    c0.898,1.279,2.2,2.592,4.089,3.683c0.168,0.098,0.351,0.144,0.531,0.144c0.367,0,0.725-0.19,0.921-0.531    c0.294-0.509,0.12-1.159-0.388-1.452c-4.233-2.446-4.901-6.15-5.001-7.025c-0.008-0.086-0.014-0.164-0.021-0.233    c-0.053-0.576-0.562-1.018-1.129-0.966c-0.576,0.038-1.017,0.529-0.991,1.106c0.001,0.024,0.005,0.113,0.021,0.255    c0.114,1.424,0.103,2.893-0.007,3.935c-0.031-0.063-0.064-0.13-0.095-0.192c-0.297-0.607-0.572-1.163-0.91-1.662    c0.288-0.185,0.492-0.487,0.502-0.854c0.005-0.181,0.065-3.002-0.567-5.942c0.382,0.214,0.77,0.372,1.147,0.441    c0.572,0.102,1.13-0.278,1.237-0.854c0.075-0.41,1.79-9.136,10.184-10.824c0.784,1.271,1.228,2.114,1.241,2.142    c0.189,0.365,0.561,0.575,0.945,0.575c0.164,0,0.331-0.039,0.487-0.119c0.521-0.271,0.726-0.911,0.456-1.433    c-0.045-0.087-0.328-0.623-0.801-1.43c0.201-0.008,0.4-0.019,0.607-0.019c0.457,0,0.839-0.292,0.989-0.696    c0.264,1.059,0.446,1.734,0.479,1.856c0.105,0.389,0.417,0.656,0.782,0.743c-0.011,0.323,0.107,0.646,0.379,0.862    c0.196,0.157,0.432,0.234,0.664,0.234c0.312,0,0.62-0.137,0.83-0.398c0.093-0.115,0.633-0.795,1.427-1.878    C56.787,48.224,59.151,48.729,60.321,50.401z M59.294,25.22c0.276-0.007,0.602-0.122,0.809-0.351    c0.206-0.228,0.303-0.534,0.267-0.84c-0.134-1.104,0.492-2.151,1.523-2.546c0.91-0.352,1.974-0.091,2.633,0.618    c0.376,0.404,0.996,0.451,1.432,0.116c0.218-0.17,0.409-0.283,0.603-0.357c1.214-0.466,2.657,0.188,3.118,1.393    c0.231,0.604,0.212,1.263-0.054,1.854c-0.116,0.258-0.125,0.552-0.024,0.816c0.102,0.265,0.304,0.478,0.562,0.592    c0.594,0.263,1.049,0.741,1.28,1.347c0.309,0.806,0.149,1.727-0.415,2.403c-0.352,0.421-0.325,1.039,0.06,1.429    c0.352,0.355,0.616,0.764,0.788,1.215c0.693,1.811-0.215,3.847-2.023,4.54c-0.66,0.254-1.382,0.3-2.07,0.135    c-0.332-0.079-0.682,0.006-0.941,0.229c-0.259,0.223-0.395,0.557-0.364,0.897c0.172,1.962-0.992,3.824-2.831,4.529    c-1.512,0.579-2.163,0.06-3.44-1.937c0.38-0.649,0.758-1.318,1.126-2.004l4.687-0.948c0.575-0.116,0.947-0.678,0.831-1.253    c-0.117-0.574-0.673-0.95-1.253-0.831l-3.041,0.615c0.928-1.954,1.726-3.971,2.245-5.936c0.064-0.029,0.13-0.054,0.189-0.098    l2.145-1.594c0.472-0.351,0.569-1.017,0.22-1.487c-0.352-0.473-1.018-0.57-1.487-0.22l-0.504,0.375    c0.021-0.206,0.043-0.412,0.055-0.615c0.034-0.586-0.412-1.089-0.999-1.124c-0.549-0.022-1.088,0.412-1.124,0.999    c-0.073,1.243-0.346,2.567-0.749,3.922l-1.806-3.223c-0.288-0.513-0.936-0.694-1.447-0.408c-0.512,0.287-0.694,0.936-0.408,1.447    L61.6,33.77c-0.897,2.211-2.052,4.422-3.233,6.439c-1.286-0.378-3.188-1.002-3.521-1.868c-0.817-2.137,0.104-4.521,2.142-5.548    c0.321-0.162,0.539-0.477,0.578-0.835s-0.106-0.712-0.387-0.939c-0.465-0.377-0.802-0.833-1.001-1.354    c-0.313-0.818-0.29-1.709,0.067-2.509c0.356-0.8,1.003-1.413,1.822-1.727c0.362-0.139,0.753-0.21,1.221-0.21    C59.29,25.22,59.292,25.22,59.294,25.22z M43.423,21.438c0.387-0.148,0.824-0.212,1.23-0.211c0.283-0.013,0.603-0.122,0.809-0.351    s0.304-0.535,0.267-0.84c-0.135-1.104,0.491-2.151,1.521-2.546c0.922-0.354,1.958-0.111,2.634,0.617    c0.375,0.405,0.997,0.453,1.432,0.117c0.218-0.17,0.409-0.283,0.603-0.357c0.603-0.231,1.258-0.213,1.847,0.051    c0.589,0.263,1.04,0.739,1.271,1.343s0.213,1.262-0.054,1.854c-0.116,0.258-0.124,0.551-0.023,0.815    c0.102,0.264,0.304,0.477,0.562,0.592c0.548,0.243,0.967,0.672,1.212,1.21c-1.07,0.562-1.93,1.438-2.43,2.559    c-0.588,1.318-0.627,2.787-0.11,4.136c0.168,0.438,0.391,0.846,0.667,1.222c-1.435,1.153-2.282,2.846-2.406,4.642    c-0.263-0.077-0.554-0.054-0.811,0.089l-0.394,0.217c-0.223-1.332-0.422-2.69-0.578-4.027l2.841-3.496    c0.37-0.455,0.301-1.125-0.155-1.495c-0.453-0.37-1.124-0.3-1.495,0.155l-1.464,1.802c-0.085-1.455-0.091-2.824,0.017-4.026    c0.053-0.585-0.379-1.102-0.964-1.153c-0.598-0.046-1.102,0.38-1.153,0.964c-0.175,1.953-0.077,4.279,0.171,6.691    c-0.088,0.222-0.092,0.456-0.026,0.681l-1.63-1.161c-0.327-0.232-0.737-0.239-1.076-0.075c0.009-1.33-0.199-2.763-0.904-3.933    c-0.743-1.233-1.895-2.004-3.422-2.288c-0.014-0.003-0.027-0.006-0.041-0.008c-0.115-0.021-0.152-0.038-0.173-0.261    C41.099,23.921,42.256,21.885,43.423,21.438z M30.129,29.947c0.512-0.205,0.781-0.767,0.622-1.293    c-0.066-0.221-0.097-0.4-0.097-0.566c0-1.089,0.886-1.976,1.976-1.976c0.529,0,1.026,0.208,1.4,0.584    c0.199,0.201,0.471,0.313,0.754,0.313s0.554-0.112,0.754-0.312c0.374-0.377,0.872-0.585,1.402-0.585    c0.705,0,1.363,0.393,1.716,1.023c0.267,0.478,0.853,0.676,1.357,0.453c0.35-0.154,0.714-0.238,1.086-0.251    c0.874,0.181,1.499,0.599,1.908,1.276c1.106,1.833,0.431,5.171,0.077,6.303c-0.128,0.406,0,0.852,0.324,1.128    c0.982,0.837,1.472,1.682,1.452,2.512c-0.013,0.556-0.245,1.057-0.516,1.464c-0.97-1.123-2.041-2.234-3.196-3.271l-1.044-4.59    c-0.13-0.573-0.703-0.937-1.271-0.801c-0.573,0.13-0.932,0.699-0.801,1.271l0.458,2.015c-0.142-0.098-0.277-0.204-0.421-0.298    c-0.489-0.322-1.149-0.186-1.472,0.306s-0.186,1.15,0.306,1.472c1.036,0.68,2.019,1.476,2.951,2.326h-0.786    c-0.587,0-1.063,0.477-1.063,1.063s0.477,1.063,1.063,1.063h2.912c0.309,0.338,0.609,0.677,0.9,1.019    c-0.695,0.67-1.6,1.063-2.577,1.063c-1.929,0-3.529-1.443-3.723-3.359c-0.036-0.358-0.252-0.675-0.573-0.839    c-0.152-0.078-0.318-0.117-0.484-0.117c-0.184,0-0.367,0.048-0.531,0.143c-0.433,0.25-0.887,0.376-1.351,0.376    c-1.505,0-2.729-1.225-2.729-2.729c0-0.346,0.068-0.688,0.201-1.016c0.116-0.286,0.103-0.607-0.037-0.882    c-0.139-0.274-0.391-0.476-0.689-0.55c-0.884-0.221-1.501-1.005-1.501-1.908C28.887,30.969,29.375,30.25,30.129,29.947z"></path></g></g></svg>