<svg height='100px' width='100px'  fill="#000000" xmlns="http://www.w3.org/2000/svg" xmlns:xlink="http://www.w3.org/1999/xlink" version="1.1" x="0px" y="0px" viewBox="0 0 60 64" style="enable-background:new 0 0 60 64;" xml:space="preserve"><g><path style="" d="M30.583,17.473   L30.583,17.473c-0.519,6.481-6.274,12.149-12.855,12.659l0,0C7.733,30.908,0.269,23.558,1.057,13.716L1.996,1.981l11.916-0.925   C23.907,0.28,31.371,7.63,30.583,17.473z" fill="none" stroke="#000000" stroke-width="2" stroke-linecap="round" stroke-miterlimit="10"></path><path style="" d="M45.767,26.499   L45.767,26.499c-5.206-0.404-9.759-4.888-10.169-10.014l0,0c-0.623-7.786,5.281-13.6,13.187-12.986l9.426,0.732l0.743,9.282   C59.578,21.298,53.674,27.112,45.767,26.499z" fill="none" stroke="#000000" stroke-width="2" stroke-linecap="round" stroke-miterlimit="10"></path><path style="" d="M19.646,35.374   L19.646,35.374c3.681,0.941,6.368,4.725,6.001,8.453l0,0c-0.557,5.661-5.541,9.092-11.131,7.664l-6.665-1.703l0.664-6.749   C9.072,37.376,14.056,33.945,19.646,35.374z" fill="none" stroke="#000000" stroke-width="2" stroke-linecap="round" stroke-miterlimit="10"></path><path style="" d="M38.399,43.272   L38.399,43.272c-1.202-3.553,0.559-7.832,3.934-9.558l0,0c5.126-2.621,10.761-0.372,12.588,5.024l2.177,6.433l-6.111,3.125   C45.861,50.917,40.225,48.668,38.399,43.272z" fill="none" stroke="#000000" stroke-width="2" stroke-linecap="round" stroke-miterlimit="10"></path><g><path style="" d="M51,11    c0,0-14.368,5.199-20.383,29.707" fill="none" stroke="#000000" stroke-width="2" stroke-linecap="round" stroke-miterlimit="10"></path></g><g><path style="" d="M51,43    c0,0-12.528-9.644-19.655,0.993" fill="none" stroke="#000000" stroke-width="2" stroke-linecap="round" stroke-miterlimit="10"></path></g><path style="" d="M14,44   c4.994-5.552,16-9.558,17.729,1.994" fill="none" stroke="#000000" stroke-width="2" stroke-linecap="round" stroke-miterlimit="10"></path><path style="" d="M10,11c0,0,23,8.252,23,52" fill="none" stroke="#000000" stroke-width="2" stroke-linecap="round" stroke-miterlimit="10"></path><path style="" d="M25.484,26.895   c0,0-4.666-7.932-3.484-16.895" fill="none" stroke="#000000" stroke-width="2" stroke-linecap="round" stroke-miterlimit="10"></path></g></svg>