<svg height='100px' width='100px'  fill="#000000" xmlns="http://www.w3.org/2000/svg" viewBox="0 0 48 48" x="0px" y="0px"><title>28-parsley</title><g data-name="28-parsley"><rect x="23" y="31" width="2" height="16"></rect><rect x="23" y="10" width="2" height="10"></rect><path d="M24,18c-2.266,0-6.659-2.083-8.895-6.553A1,1,0,0,1,16,10h.968A5.932,5.932,0,0,1,16,7a1,1,0,0,1,1-1c2.307,0,5,.786,5,3H20c0-.41-.84-.726-1.752-.885a7.524,7.524,0,0,0,1.46,2.179A1,1,0,0,1,19,12H17.771c2.006,2.776,4.953,4,6.229,4s4.223-1.224,6.229-4H29a1,1,0,0,1-.708-1.706,7.524,7.524,0,0,0,1.461-2.181C28.834,8.271,28,8.585,28,9H26c0-2.214,2.693-3,5-3a1,1,0,0,1,1,1,5.932,5.932,0,0,1-.968,3H32a1,1,0,0,1,.9,1.447C30.659,15.917,26.266,18,24,18Z"></path><path d="M28.97,8.242l-1.94-.484.545-2.181a2.638,2.638,0,0,0-.68.87A1,1,0,0,1,25.02,6.2,22.6,22.6,0,0,0,24,2.576,22.6,22.6,0,0,0,22.98,6.2a1,1,0,0,1-1.875.251,2.671,2.671,0,0,0-.681-.875l.546,2.186-1.94.484-1-4A1,1,0,0,1,19,3a4.589,4.589,0,0,1,2.468.853C22.494,0,23.525,0,24,0s1.506,0,2.532,3.853A4.589,4.589,0,0,1,29,3a1,1,0,0,1,.97,1.242Z"></path><path d="M38.862,32c-3.154,0-6.092-.59-7.18-1.678-1.858-1.857-2.262-9.111-.76-13.617a1,1,0,0,1,.919-.683,1.031,1.031,0,0,1,.958.628l.776,1.942A7.993,7.993,0,0,1,35.2,15.3a1,1,0,0,1,.707-.293c.328,0,1.176.14,1.658,1.492l1.577-2.1a1,1,0,0,1,.774-.4,1.036,1.036,0,0,1,.794.36,4.747,4.747,0,0,1,.941,2.6l3.913-1.859A1,1,0,0,1,46.9,16.438l-1.859,3.913a4.747,4.747,0,0,1,2.6.941,1,1,0,0,1-.04,1.568l-2.245,1.684a4.317,4.317,0,0,1,1.343.844,1,1,0,0,1,0,1.414,7.993,7.993,0,0,1-3.286,1.623l1.942.776a1,1,0,0,1-.055,1.877A21.192,21.192,0,0,1,38.862,32Zm-6.706-11.57c-.447,3.776.185,7.723.94,8.478s4.7,1.387,8.478.94l-2.006-.8a1,1,0,0,1,.25-1.922,19.494,19.494,0,0,0,4.053-.946,4.6,4.6,0,0,0-.905-.087,1,1,0,0,1-.6-1.8l2.582-1.937a3.441,3.441,0,0,0-1.284.174,1,1,0,0,1-1.22-1.377l1.439-3.029-3.029,1.439a1,1,0,0,1-1.377-1.22,3.315,3.315,0,0,0,.173-1.284l-1.936,2.582a1,1,0,0,1-1.8-.6,9.205,9.205,0,0,0-.049-1.007,19.109,19.109,0,0,0-.984,4.154,1,1,0,0,1-1.922.251Z"></path><path d="M9.138,31A21.192,21.192,0,0,1,2.7,30.078,1,1,0,0,1,2.646,28.2l1.942-.776A7.993,7.993,0,0,1,1.3,25.8a1,1,0,0,1,0-1.414,4.317,4.317,0,0,1,1.343-.844L.4,21.86a1,1,0,0,1-.04-1.568,4.756,4.756,0,0,1,2.6-.941L1.105,15.438a1,1,0,0,1,1.332-1.333l3.914,1.859a4.747,4.747,0,0,1,.941-2.6,1,1,0,0,1,1.568.04l1.577,2.1c.482-1.352,1.33-1.492,1.658-1.492a1,1,0,0,1,.707.293,7.993,7.993,0,0,1,1.623,3.286l.776-1.942a1.031,1.031,0,0,1,.958-.628,1,1,0,0,1,.919.683c1.5,4.506,1.1,11.76-.76,13.617C15.23,30.406,12.291,31,9.138,31ZM6.426,28.844c3.779.45,7.724-.185,8.478-.94s1.387-4.7.94-8.478l-.8,2.006a1,1,0,0,1-1.922-.25,19.191,19.191,0,0,0-.984-4.153,9.165,9.165,0,0,0-.049,1,1,1,0,0,1-1.8.6L8.349,16.052a3.337,3.337,0,0,0,.174,1.284,1,1,0,0,1-1.377,1.22L4.117,17.117l1.439,3.029a1,1,0,0,1-1.22,1.377,3.327,3.327,0,0,0-1.284-.173l2.582,1.936a1,1,0,0,1-.6,1.8,4.525,4.525,0,0,0-.906.088,19.439,19.439,0,0,0,4.053.945,1,1,0,0,1,.251,1.922Z"></path><path d="M25.119,29.994A8.735,8.735,0,0,1,19.293,27.1a1,1,0,0,1,.27-1.608l.8-.389a3.594,3.594,0,0,1-.818-4.092,1,1,0,0,1,.465-.465,3.6,3.6,0,0,1,4.092.818l.389-.8a1,1,0,0,1,.734-.549,1.015,1.015,0,0,1,.874.279c3.015,3.016,3.771,6.636,1.8,8.608A3.822,3.822,0,0,1,25.119,29.994ZM21.8,26.637c1.845,1.387,3.763,1.782,4.692.85s.536-2.848-.85-4.692l-.4.822a1,1,0,0,1-.851.563.988.988,0,0,1-.9-.477c-.01-.015-1.054-1.668-2.251-1.467-.207,1.207,1.45,2.239,1.468,2.25a1,1,0,0,1-.086,1.753Z"></path><path d="M33.6,43a1,1,0,0,1-.707-.293c-3.015-3.016-3.771-6.636-1.8-8.608s5.592-1.217,8.608,1.8a1,1,0,0,1-.27,1.608l-.8.389a3.594,3.594,0,0,1,.818,4.092,1,1,0,0,1-.465.465,3.6,3.6,0,0,1-4.092-.818l-.389.8a1,1,0,0,1-.734.549A1.036,1.036,0,0,1,33.6,43Zm1.057-4.181a1,1,0,0,1,.853.478c.01.015,1.061,1.67,2.251,1.467.207-1.207-1.45-2.239-1.468-2.25a1,1,0,0,1,.086-1.753l.822-.4c-1.844-1.385-3.761-1.781-4.692-.85s-.536,2.848.85,4.692l.4-.822a1,1,0,0,1,.851-.563Z"></path><path d="M16.4,41a1.036,1.036,0,0,1-.167-.014,1,1,0,0,1-.734-.549l-.389-.8a3.592,3.592,0,0,1-4.092.818,1,1,0,0,1-.465-.465,3.594,3.594,0,0,1,.818-4.092l-.8-.389a1,1,0,0,1-.27-1.608c3.015-3.015,6.637-3.772,8.608-1.8s1.217,5.592-1.8,8.608A1,1,0,0,1,16.4,41Zm-4.16-2.235c1.214.216,2.239-1.45,2.25-1.468a1,1,0,0,1,1.753.086l.4.822c1.386-1.844,1.78-3.762.85-4.692s-2.848-.536-4.692.85l.822.4a1,1,0,0,1,.086,1.753C13.687,36.523,12.037,37.568,12.236,38.765Z"></path><path d="M24.9,40.447l-1.79-.894a49.207,49.207,0,0,1,15.34-17.385l1.11,1.664A47.009,47.009,0,0,0,24.9,40.447Z"></path><path d="M25,37H23c0-2.995-9.036-10.256-15.515-14.143l1.03-1.714C8.68,21.241,25,31.29,25,37Z"></path><rect x="15.172" y="32" width="5.657" height="2" transform="translate(-18.062 22.393) rotate(-45)"></rect><rect x="30" y="31.394" width="2" height="7.211" transform="translate(-15.317 41.379) rotate(-56.31)"></rect><path d="M30,33H28c0-3.536-1.581-6-3-6V25C27.8,25,30,28.514,30,33Z"></path></g></svg>