<svg height='100px' width='100px'  fill="#000000" xmlns="http://www.w3.org/2000/svg" viewBox="0 0 512 512" x="0px" y="0px"><defs><style>.cls-1{fill:none;stroke:#000000;stroke-linecap:round;stroke-linejoin:round;stroke-width:20px;}</style></defs><title>sage-vegetable-vegan-healthy-vegetarian-organic</title><path class="cls-1" d="M231.93,227.51S205.8,341.77,30.44,501"></path><path class="cls-1" d="M329.2,228.77S369.36,108.5,494.42,120C494.42,120,470.82,226.68,329.2,228.77Z"></path><path class="cls-1" d="M176.36,337.07S296.51,251,329.2,228.77"></path><line class="cls-1" x1="106.51" y1="189.03" x2="137.26" y2="389.43"></line><path class="cls-1" d="M137.26,389.43S237.89,208.75,82.31,54.16C82.31,54.16-33.95,237,137.26,389.43Z"></path><line class="cls-1" x1="319.25" y1="348.06" x2="162.54" y2="366.14"></line><path class="cls-1" d="M162.54,366.14s109.52-119.75,289.8-44C452.34,322.14,302.73,460.55,162.54,366.14Z"></path><line class="cls-1" x1="268.67" y1="132.1" x2="231.93" y2="227.51"></line><path class="cls-1" d="M311.06,140.54c-20.11,55.13-79.13,87-79.13,87S205.52,170,225.64,114.85s82.27-104,82.27-104S331.18,85.41,311.06,140.54Z"></path><line class="cls-1" x1="169.27" y1="452.36" x2="72.53" y2="460.88"></line><path class="cls-1" d="M72.53,460.88s88.84-90.47,196.19-25.31C268.72,435.57,200.71,521.12,72.53,460.88Z"></path></svg>