<svg height="100" width="100" xmlns="http://www.w3.org/2000/svg" viewBox="-247 370.9 100 100"><path d="M-152.9 419.3c1.1-2.3 3.3-7.8 3-12.5l-.1-1.5-1.4-.4c-2.7-.7-5.5-.7-8-.3 1.2-1.3 2.2-2.5 2.7-3.6l.7-1.4-1.2-1c-.4-.4-.9-.7-1.4-1 1.5-2.8 4.7-9.7 3.5-15.8l-.3-1.5-1.6-.1c-6-.4-13.3 3.7-15.7 5.2-.6-.6-1.2-1.1-1.8-1.5.7-1.8 1.4-3.7 1.4-5V377l-1.9-.1c-2.8-.2-7.2 1.5-10.1 2.7-.1-1-.2-1.9-.4-2.6l-.6-2-2 .7c-3.3 1.2-6.9 4-8.9 5.6-.2-.4-.5-.8-.8-1.1l-1.4-1.5-1.5 1.4c-2.4 2.2-5.6 7.8-7.4 11.2-.3-.2-.5-.3-.8-.5l-1.6-.9-1 1.5c-2.6 3.7-4.9 10.9-5.4 12.5l-26 37.4.8 1.1c2.2 3.1 4.7 5.3 7.7 6.9l-6.6 7.4.7 1.2c3.2 5.6 7.4 9.3 13.2 11.8l1.2.5 7.1-6.9c2.1 2.7 4.7 4.8 8.1 6.6l1.1.6 23.9-18.4 14.8-10.5-.9-1c3.5-1.7 9.4-4.8 11.5-7l1.1-1.2-.9-1.3c-.2-.3-.5-.7-.9-1 3.2-1.9 7.9-5 9.3-7.3l.8-1.4-1.2-1.1c0-.4-.4-.7-.8-1zm-5.9-35.1c.1 4.6-2.3 9.7-3.4 11.7-1.5-.5-2.9-.9-4.4-1.1h.1c-.1-.2-1.4-3.3-3.5-6.3 2.6-1.5 7.3-3.9 11.2-4.3zm-78.9 56.9l15.3-22 9.5-13.5.1-.3c0-.1 1.8-6 3.9-10 2.9 2.3 4.6 5.5 4.6 5.5l3.5-1.9c-.1-.2-1.4-2.7-3.9-5.1 1.4-2.6 3.4-6.3 5.2-8.8.7 2 1.2 4.7 1.4 6.5l4-.4c-.1-.5-.4-3.2-1.1-5.9 1.2-1.1 3.8-3.2 6.3-4.7v5.4l2.9-1.5c2.1-1.1 5.7-2.6 8.4-3.2-.6 1.6-1.5 3.7-2.4 5.4-.5.6-1.1 1.2-1.6 1.9-3.1-.4-6.4-.2-8.5.5l1.2 3.8c1.1-.3 2.7-.5 4.4-.5-1 1.4-2 2.8-2.7 3.9l-1.2-.9-1.5-1.1-1.2 1.4c-3.7 4.3-13.9 19.9-14.8 21.3l-5.6 7.1-19.8 22.2c-2.5-1.2-4.6-2.9-6.4-5.1zm11.3 24.3c-4-1.9-7-4.5-9.4-8.3l27.3-30.6 2.7-3.4 2.3 3.5 3.4-2.2-3-4.7.4-.6.1-.1c.1-.2 9-13.7 13.4-19.4 3.4 3.1 5.2 7.5 5.2 7.6l1.9-.7 1.9-.7c-.1-.2-1.4-3.5-4-6.7 2.3-3.4 6-8.6 8.7-11.3 1.9 1.8 3.5 4.5 4.6 6.6-2.1 0-3.6.1-3.8.1l.4 4c.1 0 8-.8 13.3 2.2-1.4 1.7-3.9 4-6.5 6.1-.1 0-.2.1-.2.1v.1c-1.6 1.3-3.3 2.6-4.6 3.6-1.5-.7-2.7-1-2.8-1l-.8 3.9s1.9.4 3.6 1.8c-2.7 2.5-8.2 6-11.3 7.9-2.1-1.5-4.2-2.7-6-3.3l-1.2 3.8c1.6.5 3.7 1.7 5.6 3.2l-11.8 10.4-29.4 28.1zm62.2-37.9c-3.1-1.8-6.8-3.4-7.9-3.8l-1.5 3.7c3.3 1.3 7.1 3.2 9.1 4.6-2.8 1.9-8 4.6-11.2 6.1l-2.5 1.2 1.5 1.6-7.3 5.2c-2.8-1-5.8-1.6-7.9-1.5l.1 4c1 0 2.3.1 3.6.5l-21.7 16.7c-2.4-1.4-4.3-3.1-5.9-5.2l21-20.3 15.2-13.3-1.2-1.1c3.6-2.3 10.2-6.6 12.4-9.4l1-1.2-1-1.2c-.3-.4-.6-.7-.9-1 .9-.7 2.1-1.6 3.4-2.7 1.8-.7 6.9-2.4 11.7-1.7-.3 3.3-1.7 7-2.5 8.9-4.5-1.8-9.2-1.8-9.5-1.8v4c.1 0 5.9.1 9.9 2.5-1.6 1.4-5.1 3.6-7.9 5.2z"/></svg>