<svg height="100" width="100" xmlns="http://www.w3.org/2000/svg" viewBox="0 0 16.93 16.93"><path style="line-height:normal;font-variant-ligatures:normal;font-variant-position:normal;font-variant-caps:normal;font-variant-numeric:normal;font-variant-alternates:normal;font-feature-settings:normal;text-indent:0;text-align:start;text-decoration-line:none;text-decoration-style:solid;text-decoration-color:#000;text-transform:none;text-orientation:mixed;white-space:normal;shape-padding:0;isolation:auto;mix-blend-mode:normal;solid-color:#000;solid-opacity:1" d="M13.823 1.059c-.01 0-.019.002-.029.003-1.13.224-1.763 1.178-2.031 1.606a1.193 1.193 0 00-.467-.272 1.924 1.924 0 00-1.14 0c-.46.133-.943.498-1.342.858-.2.18-.374.358-.502.514a1.59 1.59 0 00-.157.22c-.04.073-.107.134-.064.311.044.175.136.2.207.242.071.042.15.076.24.11.182.065.41.125.664.173l.173.03C8.066 7.42 6.086 8.958 3.825 10.26c-1.137.654-1.748 1.509-1.904 2.367-.155.859.15 1.7.756 2.304 1.212 1.21 3.613 1.48 6.008-.537 2.146-1.806 3.573-4.439 4.478-7.117.038.035.078.076.114.106.075.063.142.115.215.156.072.041.14.107.316.057.175-.05.194-.137.237-.21a1.62 1.62 0 00.113-.247c.07-.189.139-.427.195-.69.112-.525.187-1.125.072-1.59-.134-.58-.533-1.093-1.005-1.25.303-1.031 1.462-1.496 1.462-1.496a.265.265 0 00.037-.476l-.943-.543a.265.265 0 00-.153-.035zm-.021.545c.152.093.278.162.434.252-.222.127-1.227.762-1.395 1.917a.265.265 0 00.248.305c.297.014.685.35.823.908.07.288.026.87-.077 1.352a4.528 4.528 0 01-.173.615c-.008.02-.013.026-.02.043l-.025-.02a4.057 4.057 0 01-.43-.435c-.31-.36-.618-.837-.69-1.125a.265.265 0 00-.443-.123 5.42 5.42 0 01-.93.723c-.129.08-.236.133-.328.175a3.02 3.02 0 01-.011-.365c.01-.353.062-.798.158-1.158a.265.265 0 00-.325-.324c-.293.079-.854.049-1.316-.04a4.03 4.03 0 01-.584-.152l-.024-.01c.012-.015.014-.022.028-.038.104-.127.262-.293.445-.458.367-.33.85-.66 1.135-.742.31-.09.605-.08.826-.005.222.074.359.203.414.359a.265.265 0 00.489.025c.142-.3.757-1.436 1.77-1.68zm-3.454 3.31a6.01 6.01 0 00-.093.896c-.005.196 0 .37.018.514.009.072.02.136.041.2.02.064.034.146.164.22.13.075.207.045.273.031.066-.014.126-.037.193-.066a5.309 5.309 0 001.191-.777c.163.338.37.624.613.91-.879 2.71-2.296 5.372-4.405 7.148-2.247 1.892-4.299 1.561-5.293.569-.497-.496-.733-1.157-.61-1.838.124-.681.612-1.405 1.649-2.002 2.352-1.354 4.48-3.014 5.846-5.803.136.007.273.008.413-.002zm-3.196 8.67a.264.264 0 00-.143.047c-.474.32-.98.576-1.55.62-.461.004-.886-.043-1.266-.278-.303-.202-.595.266-.28.449.508.315 1.059.366 1.563.361a.241.241 0 00.018-.002c.705-.054 1.3-.367 1.812-.713.22-.147.11-.49-.154-.484z" color="#000" font-weight="400" font-family="sans-serif" overflow="visible" stroke-width=".53" stroke-linejoin="round"/></svg>