<svg height="100" width="100" xmlns="http://www.w3.org/2000/svg"><path d="M74.7 71.518c-.388-4.609-1.688-9.069-2.945-13.381-.731-2.511-1.488-5.107-2.036-7.655-1.305-6.075-1.66-11.618-2.036-17.485-.113-1.759-.228-3.552-.37-5.404-.372-4.83-1.53-11.715-7.275-15.731-.934-.654-2.045-1.173-3.312-1.566-.152-.773-.463-1.883-1.088-2.845C54.529 5.743 52.633 4.877 50 4.877c-2.635 0-4.532.868-5.639 2.577-.623.96-.934 2.068-1.086 2.84-1.268.394-2.379.912-3.314 1.566-5.739 4.014-6.899 10.9-7.273 15.732-.143 1.852-.257 3.645-.37 5.404-.376 5.868-.731 11.41-2.036 17.485-.548 2.548-1.305 5.144-2.036 7.654-1.258 4.313-2.559 8.773-2.945 13.383-.535 6.389 1.479 12.578 5.528 16.98 4.653 5.06 11.615 7.396 19.172 6.387 1.177.157 2.35.237 3.49.237 6.185 0 11.754-2.352 15.682-6.623 4.048-4.402 6.062-10.591 5.527-16.981zM47.214 9.303c.182-.281.664-1.026 2.786-1.026 2.121 0 2.604.743 2.785 1.024.051.078.097.162.141.248-.924-.093-1.9-.144-2.936-.144-1.027 0-1.997.05-2.915.143.043-.084.089-.168.139-.245zm19.455 76.895c-3.94 4.286-9.918 6.218-16.429 5.289a1.76 1.76 0 00-.48 0c-6.513.93-12.487-1.004-16.429-5.289-3.407-3.704-5.099-8.951-4.643-14.395.357-4.271 1.609-8.564 2.82-12.716.749-2.568 1.523-5.224 2.097-7.892 1.357-6.321 1.721-11.985 2.105-17.981.111-1.745.226-3.523.367-5.36.509-6.583 2.361-10.78 5.832-13.207 1.722-1.205 4.516-1.841 8.1-1.841 3.564 0 6.358.636 8.079 1.841 3.474 2.428 5.327 6.625 5.833 13.206.142 1.837.256 3.616.367 5.361.385 5.997.748 11.661 2.105 17.982.573 2.668 1.348 5.324 2.097 7.893 1.21 4.151 2.462 8.444 2.82 12.714.458 5.444-1.234 10.691-4.641 14.395zM46.132 16.573a1.351 1.351 0 01-.911 1.65c-.113.042-2.685 1.072-3.72 6.853-.462 2.569-.55 4.713-.55 7.771a1.35 1.35 0 11-2.7 0c0-3.214.094-5.481.591-8.248 1.359-7.59 5.197-8.852 5.63-8.971a1.352 1.352 0 011.66.945zm-.081 70.923a1.35 1.35 0 01-1.449 1.243c-3.846-.294-7.295-2.016-9.712-4.849-2.618-3.069-3.863-7.146-3.508-11.482a1.35 1.35 0 012.691.221c-.297 3.614.723 6.992 2.871 9.509 1.975 2.315 4.693 3.667 7.862 3.909a1.35 1.35 0 011.245 1.449z"/></svg>