<svg height="100" width="100" xmlns="http://www.w3.org/2000/svg"><path d="M72.554 20.151a8.766 8.766 0 00-.617-.452c1.117-1 2.336-1.949 3.712-2.849 3.51-2.296 11.23-4.279 12.296-8.7a1.218 1.218 0 00-.836-1.472c-2.619-.816-5.129.988-7.396 2.224-2.917 1.59-5.783 3.234-8.483 5.174-1 .718-1.942 1.528-2.84 2.382.124-.514.264-1.025.372-1.542.814-3.883 2.217-11.162-1.146-14.122-.924-.812-2.21-.449-2.62.692-.59 1.637-.293 2.333-.11 4.147.271 2.675-.112 5.43-.573 8.056a42.99 42.99 0 01-.79 3.56c-.662-.057-1.324-.112-2.008-.107-1.506.011-1.72 2.097-.345 2.552.507.168.98.372 1.472.556-.734 2.287-1.577 4.541-2.426 6.797-.371.984.47 1.904 1.39 2.093-.01.076-.032.148-.04.223-.141 1.262 1.644 1.522 2.229.604 1.59-2.497 3.116-4.747 4.831-6.807 1.129.687 2.224 1.409 3.241 2.207.315 1.044.387 2.12-.17 3.287-1.104 2.307-3.894 3.403-6.209 3.971-2.718.667-5.797.279-8.285-.962-3.233-1.61-3.352-4.68-4.48-7.676-.078-.21-.364-.278-.49-.064-1.873 3.161.011 7.017 2.675 9.096 2.99 2.333 7.107 2.716 10.741 2.191 3.553-.514 7.16-2.087 8.98-5.344a6.32 6.32 0 00.578-1.485c2.302 2.376 4.228 5.095 5.814 8.084a.977.977 0 00-.435.018c-2.524.713-4.755 2.182-7.175 3.187-3.1 1.288-5.71.534-8.83-.007-.956-.165-1.615.862-.944 1.621 4.799 5.432 13.842 1.123 17.953-3.077.078-.08.132-.166.178-.256a43.998 43.998 0 012.029 5.057c-1.444 1.152-3.097 1.996-4.842 2.619-1.834.651-3.76.074-5.512.649-.597.196-.954 1.049-.4 1.516 1.737 1.468 4.567.84 6.571.227 1.935-.59 3.511-1.794 4.708-3.34.283.964.545 1.94.77 2.94.02.083.028.159.045.24-1.344.907-2.158 2.312-3.593 3.226-2.063 1.315-4.736 1.673-7.113 1.837-4.461.307-8.051-1.286-12.25-2.185a.166.166 0 00-.185.242c2.178 4.171 9.397 4.898 13.518 4.852 2.634-.03 7.656-.992 10.278-3.334.166 2.276.06 4.464-.268 6.565-.55.225-1.062.572-1.586.848-.877.462-1.984.542-2.946.701-1.803.295-3.703.073-5.403.816-.77.337-.772 1.695 0 2.032 2.066.9 4.597.534 6.746.117a9.613 9.613 0 002.33-.792 26.915 26.915 0 01-3.23 6.93c-4.376 2.2-9.946 1.355-14.668.829-8.47-.945-14.845-2.533-22.312-6.72-.173-.097-.4.103-.282.283 5.073 7.714 15.577 8.092 23.886 9.25 2.631.367 6.128.859 9.38.607-3.619 2.552-7.497 4.5-11.552 5.962-1.042.195-2.087.398-3.091.37-3.207-.085-6.568-.975-9.647-1.844-.248-.07-.399.287-.174.415 2.115 1.2 4.313 2.241 6.63 2.93-3.752.89-7.61 1.444-11.514 1.747-5.401-.183-11.082-.298-15.545.594-1.048.15-2.056.382-2.985.714-.059-.034-.106-.083-.189-.082-.654.006-1.25.119-1.799.306.052-2.914-.261-5.78-.782-8.619.653.763 1.439 1.41 2.292 2.058 1.141.865 3.303 2.412 4.8 1.92.36-.119.46-.462.321-.787-.537-1.261-2.501-1.947-3.617-2.653-1.369-.869-2.68-1.834-4.176-2.464-2.112-9.913-6.194-19.588-4.804-30.088.946 2.377 2.912 4.565 4.568 6.219 2.064 2.058 8.716 8.27 11.967 6.752.26-.121.405-.502.313-.767-.473-1.362-2.4-2.173-3.561-2.863-2.433-1.446-4.676-3.175-6.771-5.07-1.998-1.808-3.938-3.873-4.652-6.534-.195-.728.558-3.085-.48-3.481 1.304-3.514 3.378-6.942 5.835-9.939-.246 1.463-.083 3.046.355 4.658.83 3.06 3.355 7.499 6.558 8.48.492.152 1.036-.357.863-.862-.759-2.199-2.665-3.89-3.86-5.897-1.797-3.014-1.767-6.14-1.146-9.395 1.056-1.04 2.137-2.02 3.245-2.863.303-.23.608-.434.915-.637-.524 2.42-.069 5.419.587 7.237 1.131 3.139 6.04 11.87 10.352 10.758.4-.103.515-.539.357-.879-.549-1.181-1.823-1.808-2.798-2.635-1.832-1.553-3.25-3.545-4.465-5.595-1.137-1.918-1.855-4.046-2.014-6.267-.133-1.869.738-3.078 1.604-4.41 5.026-1.756 10.454-1.06 15.893-1.307.374-.017.556-.535.199-.73-12.12-6.615-24.55 3.03-30.894 12.946-4.457 6.966-5.67 14.368-5.338 21.924-.187.415-.373.84-.677 1.18-.864.969-2.085 1.62-3.104 2.409-1.064.826-4.264 3.774-2.575 5.208.094.08.235.146.361.095.97-.387.996-1.524 1.524-2.35.752-1.178 2.085-1.888 3.15-2.73.37-.292.937-.773 1.48-1.342.366 4.257 1.153 8.55 2.088 12.836-.239.968-.554 1.857-1.65 2.164-1.326.369-2.687.46-4.007.885-1.84.589-3.927 1.655-4.431 3.663-.914 3.638 7.915 6.814 3.932 9.697-.654.473-.106 1.386.624 1.07 4.627-2.01-1.568-6.843-2.546-9.173-1.388-3.303 6.19-3.213 7.789-4.25.397-.257.716-.58.991-.933 1.144 4.97 2.374 9.907 3.23 14.736-4.08 4.165-2.847 14.551 2.33 13.087.452-.129.827-.665.647-1.142-.318-.841-.895-1.356-1.447-2.04-.497-2.143-.868-4.233-.473-6.073 1.714-2.199 4.57-3.11 7.726-3.448a5.62 5.62 0 00-.383 1.013c-.485 1.95 1.07 4.316 2.988 4.752.178.04.323-.142.234-.304-.756-1.38-1.2-2.258-1.058-3.83.075-.832.532-1.331 1.032-1.798 3.583-.064 7.234.323 9.846.247a35.178 35.178 0 001.923-.11c.008.838.388 1.625.786 2.405.268.527.385 1.165.8 1.612.42.45.83.404.808.928-.077 1.825-2.436 2.435-1.805 4.56.146.492.874.638 1.13.148.861-1.64 2.827-3.78 1.975-5.805-.319-.748-.856-.945-1.061-1.887-.096-.44-.266-.869-.387-1.303-.126-.445-.066-.703.077-.914 1.22-.165 2.439-.37 3.65-.609a45.674 45.674 0 007.79-.739c-.226 1.357-.01 2.809.684 3.871.208.319.828.613 1.146.26.453-.504.35-1.238.403-1.882.067-.818.145-1.619.402-2.407.061-.191.159-.354.27-.512 3.81-1.011 7.336-2.597 10.45-4.717a5.52 5.52 0 01-.32 1.01c-.672 1.527-1.797 2.742-2.796 4.057-.426.56.384 1.268.932.93 1.583-.97 2.892-2.524 3.595-4.258.4-.98.792-2.203.684-3.31 2.348-1.908 4.411-4.146 6.097-6.728a6.957 6.957 0 001.271-1.582c.179-.308.212-.602.157-.862.426-.81.832-1.64 1.19-2.507 5.792-13.992-.014-38.008-14.157-46.412z"/><path d="M60.021 12.999c-.34-3.783-2.407-9.654-6.636-10.298-.689-.105-1.429.285-1.41 1.074.086 3.456 2.963 6.342 3.755 9.805.96 4.19-.305 8.732-.505 12.953-.074 1.586 2.126 1.692 2.615.353 1.65-4.523 2.616-9.04 2.181-13.887zM60.901 59.394c-2.708-1.492-6.033-1.769-8.887-3.064-2.876-1.3-5.423-3.182-8.037-4.926-.4-.266-.97.274-.677.678 3.41 4.718 11.382 9.646 17.448 8.48.55-.107.615-.914.153-1.168zM56.717 47.173c-.368-.687-1.227-1.206-1.865-1.64-.76-.514-1.48-1.157-2.304-1.555-.715-.347-1.435.35-1.071 1.071.415.828 1.13 1.447 1.81 2.06.705.636 1.692 1.363 2.666 1.396.695.023 1.07-.763.764-1.332zM41.768 72.862c-3.934-1.64-7.493-3.004-10.842-5.732-3.26-2.657-5.872-6.349-8.33-9.733-.065-.09-.221-.039-.189.08 2.272 8.306 10.163 16.41 19.135 17.045 1.038.075 1.03-1.325.226-1.66zM46.75 79.53c-1.95-.26-3.698-.563-5.498-1.431-.635-.306-1.408.524-.8 1.038 1.808 1.528 4.097 3.003 6.579 2.466 1.272-.272.801-1.931-.281-2.074z"/></svg>