<svg height="100" width="100" xmlns="http://www.w3.org/2000/svg" data-name="Layer 1"><defs><style>.cls-1{fill:none}</style></defs><path class="cls-1" d="M58.3 20.19a1 1 0 00.48.08 11.38 11.38 0 001.41-.59 5.47 5.47 0 015.06.27l-.85-.61 1-.83.68-.57h-.23l-3 .73 1.94-2.34a3.13 3.13 0 00.46-1.26 12.7 12.7 0 00-1.5.93l-2.07 1.51.5-2.51a8.22 8.22 0 00-.06-2.8 10.35 10.35 0 00-.42 2.59l-1.44.07.25.87-.22-.07c.22.24.46.5.71.75a4.08 4.08 0 01.66.65l-1.47 1.35-.56-.54a9.91 9.91 0 00-1.57-.87l.2 1.17-1-.36-.45.72 1.91.48zM56.08 20.41L54 19.87l-.65.25a5.63 5.63 0 01-3.9 0l-.15-.08a4.86 4.86 0 00-.65-.32c-1.3 5.36-2.89 12.34-3.76 17.08 2.1-3.27 5.19-7.31 7.52-8.72l.13-.08c2.14-1.3 6.24-3.8 7.63-6.15-.22.09-.47.18-.72.27a2.16 2.16 0 01-.68.1 4.59 4.59 0 01-2.22-.74l-.68-.44zM53.71 18.55l.44.52.27-.43-.95-.37zM55.8 15.69l-.14-.8-.79.66-.51.43c.64-.14 1.07-.24 1.44-.29zM62.74 24.56a12.48 12.48 0 013.72.31 11.76 11.76 0 01.27-2.79 4.35 4.35 0 01-2.23-.26 18 18 0 01-1.76 2.74zM62.52 21.18v.11l.06-.11zM81.76 28.64h-3.22l3.19-2.18a5.17 5.17 0 00-3.5-.1l-2.15.84 1-2.46a13.45 13.45 0 00-3.65.84l-1-1.71a5.76 5.76 0 001.4-1.49h-1.6l-.09-.9v-.62l-3.24 2.3-.24-.51a6.86 6.86 0 000 3.31l.08.24v.25c-.14.85-.74 3.65-2.5 4a2.87 2.87 0 00-.64.22 1.17 1.17 0 01.35.25 1.24 1.24 0 01.32 1.26 6.48 6.48 0 01-.6 1.31h.94l-.34 1.26a10.36 10.36 0 00-.27 3.14 4.81 4.81 0 00.92-1l.17-.25 2.84-1.22.77 1.58a3.92 3.92 0 00.17-1.18l-.27-2.72c-.61-.77-1.58-2.24-1-3.22a1.43 1.43 0 011.82-.51c1.85.57 4.53 3.09 5.51 5.19a4.29 4.29 0 00.79 1.14V32l1.45.72a4.49 4.49 0 002.37.29l-2-3 3.28-.36a3 3 0 00-1.06-1.01zM50.26 18.36a2.26 2.26 0 00.6.13l-.33-.26-1-.75 1-.83 1.15-1c-.45.06-.75.13-.76.13l-3 .74 2-2.35a4.2 4.2 0 00.6-1.76 14.13 14.13 0 00-2 1.19l-2.07 1.5.5-2.51a10 10 0 00-.15-3.74 11.11 11.11 0 00-.65 3.47l-1.65.08.22.78-.49-.15c.34.39.73.81 1.15 1.23a4.48 4.48 0 01.74.72l-1.47 1.35-.65-.57a11.86 11.86 0 00-2.09-1.16l.2 1.4-1.62-.59h-.11l.72.28-.64 1 2.2.55-.51 1.32a1.47 1.47 0 00.77.14 13 13 0 001.61-.7 6.11 6.11 0 015.73.36z"/><path class="cls-1" d="M66.53 27a9.94 9.94 0 00-6.47.24l-.77-1.4a45.12 45.12 0 01-5.74 4l-.13.08c-2.52 1.53-6.79 7.56-8.51 10.87a41 41 0 00-2.69 8l-.58 3.15-2-.18c0-1-.76-2.55-2.89-4.09A13.84 13.84 0 0133.67 44 8.22 8.22 0 0035 46.77c1.42 2 3 4.59 2.52 6a6.7 6.7 0 01-.5 1.07c-.48.88-.63 1.26-.31 1.81.61 1.07 5.11 2.3 5.95 1.85.48-.33.92-2.12 1-3.53 0-.85-.38-8.73 2.55-14.23C48.59 35.4 54 25.28 66.48 27.13z"/><path class="cls-1" d="M40.28 48.15a48.89 48.89 0 012-6.38c-.05-1.8.83-6.5 1.85-11.25-.27.89-.51 1.62-.66 2.09A134.26 134.26 0 0040 47.76c.06.13.17.24.28.39zM43.81 59.2a3 3 0 01-1.73.42 9.57 9.57 0 01-2.08-.27c-1.84-.42-4.24-1.37-5-2.66a3 3 0 01-.41-1.79c-2.74.06-12.15.94-15.54 9.65a16.06 16.06 0 000 9l.1.3-.09.31c0 .17-1.18 4.22 2.09 6l.27.15.14.27c0 .06 3.39 6.5 8.14 8.54 5.08 2.18 12 4.08 15.1 3.09 2.9-.92 5.16-3.87 6.51-5.63l.35-.46a11.28 11.28 0 011-1.06C54.89 83 59 79 57.53 70.61a20.42 20.42 0 00-12-15.28c-.17 1.28-.63 3.12-1.72 3.87z"/><path d="M86.22 31.28L85.47 30a10.57 10.57 0 00-1.81-2.4l1.89-1.3-1.27-.81a9.15 9.15 0 00-4.81-1.35l.64-1.6-1.58.1c-.23 0-1.42.1-2.75.31a4.1 4.1 0 00.39-1.45l.07-1.07h-2.18a2.47 2.47 0 01.22-1.12l-1.17-1.62-3.42 2.47-.87-1.88.61-.52 1.47-1.25L69 16a6.56 6.56 0 00-1.84-.18 10.75 10.75 0 00.27-2.11v-1.07h-1.07a5.51 5.51 0 00-2.11.7 15.18 15.18 0 00-.73-3.75l-.34-1-1 .38a4.21 4.21 0 00-2.14 3 11.94 11.94 0 00-1.1-1l-2.29-1.7 1 3.49-.36-.11-.19 1.13a1.6 1.6 0 00.05.69l-1.59-.54v.17l-1-.27a7.62 7.62 0 00-2.23-.2 12.17 12.17 0 00.35-2.55v-1.07h-1.07a6.48 6.48 0 00-2.53.88 16.94 16.94 0 00-.88-4.39l-.34-1-1 .38c-1.36.54-2.06 2.12-2.41 3.6a13.74 13.74 0 00-1.4-1.25L40.69 6.4l1.08 3.82-.51-.16-.19 1.13a1.92 1.92 0 00.14 1l-.3-.11-1.59-.54.34 1.93a22.59 22.59 0 00-3 .68l-2.88.82 4.36 1.69-.81 1.3 2.67.64-.32.82.68.44a5.08 5.08 0 002.45.82 2.34 2.34 0 00.74-.11c.49-.16.94-.35 1.29-.5-.52 2.52-1.88 7.65-3.3 11.91a124 124 0 00-3.32 14.17l-.28-.22c-1.63-1.18-3.6-4.81-4.21-6.11l-1.12-2.35-.76 2.53a9.13 9.13 0 001.56 8c1.47 2 2.31 3.79 2.25 4.24a5 5 0 01-.35.72c-1.28 0-13.9.08-18.14 11a17.92 17.92 0 00-.1 10.04c-.49 2-.44 5.86 2.87 7.86.73 1.33 4.11 7.11 9 9.19 4.14 1.78 9.72 3.51 13.77 3.51a9.12 9.12 0 002.72-.36c3.5-1.11 6.1-4.5 7.49-6.33l.34-.44a11.27 11.27 0 01.83-.85c2.3-2.24 7.08-6.89 5.43-16.28-1.69-9.63-9.07-15.57-13.83-17 0-2.06 0-8.22 2.34-12.52 3.48-6.52 7.92-12.36 16.56-11.78-1.26.62-2.6 1.75-2.75 2.84l-.22 1.58 1.51-.49.66-.18c-.26.44-.56.9-.8 1.23l-1.15 1.52H64a10.19 10.19 0 00.25 4.32l.33 1 1-.42a7.17 7.17 0 002.72-2.2l.7-.2 2 3.86.83-1.94a18.36 18.36 0 00.74-2.09l2.83 2.83-1-3.59a17.44 17.44 0 00-1.8-4.66 10.16 10.16 0 012.5 3 7.19 7.19 0 003.18 3.18l1.42.66V35a6.93 6.93 0 003.78-.4l1.13-.45L83 31.64zm-19.49-9.2a11.76 11.76 0 00-.27 2.79 12.48 12.48 0 00-3.72-.31 18 18 0 001.76-2.74 4.35 4.35 0 002.23.26zm-4.21-.9l-.06.11zm-5.23-3.37l1 .36-.23-1.17a9.91 9.91 0 011.61.91l.56.54 1.47-1.35a4.08 4.08 0 00-.66-.65c-.25-.25-.49-.5-.71-.75l.22.07-.25-.87 1.44-.07a10.35 10.35 0 01.42-2.59 8.22 8.22 0 01.06 2.8l-.5 2.51L63.8 16a12.7 12.7 0 011.5-.93 3.13 3.13 0 01-.46 1.26l-1.94 2.34 3-.73h.23l-.68.57-1 .83.85.61a5.47 5.47 0 00-5.06-.27 11.38 11.38 0 01-1.41.59 1 1 0 01-.48-.08l.4-1.19-1.91-.48zm1.43 4.46a2.16 2.16 0 00.68-.1c.25-.08.5-.18.72-.27-1.38 2.35-5.48 4.85-7.63 6.15l-.13.08C50 29.55 47 33.59 44.85 36.86c.86-4.74 2.45-11.72 3.76-17.08a4.86 4.86 0 01.65.32l.15.08a5.63 5.63 0 003.9 0l.65-.25 2.12.53-.26.69.68.44a4.59 4.59 0 002.22.68zm-4.57-3.2l-.44-.52-.24-.27.95.37zm.73-3.52l.79-.66.14.8c-.37.06-.85.15-1.43.29zm-12 3.12a1.47 1.47 0 01-.77-.14l.51-1.32-2.2-.55.64-1-.72-.28h.11l1.62.59-.24-1.35A11.86 11.86 0 0144 15.76l.65.62L46.08 15a4.48 4.48 0 00-.74-.72c-.42-.42-.81-.84-1.15-1.23l.49.15-.22-.78 1.65-.08a11.11 11.11 0 01.65-3.47 10 10 0 01.15 3.74l-.5 2.51 2.07-1.5a14.13 14.13 0 012-1.19 4.2 4.2 0 01-.6 1.76l-2 2.35 3-.74s.31-.07.76-.13l-1.15 1-1 .83 1 .75.33.26a2.26 2.26 0 01-.6-.13 6.11 6.11 0 00-5.69-.38 13 13 0 01-1.62.67zm.51 13.94c.16-.47.39-1.2.66-2.09-1 4.75-1.9 9.45-1.85 11.25a48.89 48.89 0 00-2 6.38c-.1-.13-.22-.26-.33-.39a134.26 134.26 0 013.55-15.15zm14.11 38C59 79 54.89 83 52.68 85.11a11.28 11.28 0 00-1 1.06l-.35.46c-1.35 1.76-3.61 4.72-6.51 5.63-3.12 1-10-.91-15.1-3.09-4.74-2-8.1-8.47-8.14-8.54l-.14-.27-.27-.15c-3.27-1.78-2.14-5.83-2.09-6l.09-.31-.1-.3a16.06 16.06 0 010-9c3.4-8.71 12.8-9.59 15.54-9.65a3 3 0 00.39 1.74c.74 1.29 3.15 2.24 5 2.66a9.57 9.57 0 002.09.27 3 3 0 001.73-.42c1.09-.75 1.55-2.59 1.75-3.87a20.42 20.42 0 0111.96 15.28zM46.25 39.78c-2.93 5.5-2.6 13.38-2.55 14.23-.09 1.42-.53 3.2-1 3.53-.84.45-5.33-.78-5.95-1.85-.32-.55-.17-.93.31-1.81a6.7 6.7 0 00.5-1.07c.48-1.45-1.11-4.09-2.52-6a8.22 8.22 0 01-1.35-2.89 13.84 13.84 0 003.08 3.67c2.13 1.54 2.89 3.12 2.89 4.09l2 .18.58-3.15a41 41 0 012.69-8c1.72-3.31 6-9.34 8.51-10.87l.13-.08a45.12 45.12 0 005.74-4l.77 1.4a9.94 9.94 0 016.45-.16l-.05.17C54 25.28 48.59 35.4 46.25 39.78zM81.54 33a4.49 4.49 0 01-2.37-.29L77.72 32v3.7a4.29 4.29 0 01-.79-1.14c-1-2.1-3.66-4.62-5.51-5.19a1.43 1.43 0 00-1.82.51c-.59 1 .38 2.45 1 3.22l.27 2.72A3.92 3.92 0 0170.7 37l-.83-1.58L67 36.64l-.17.25a4.81 4.81 0 01-.92 1 10.36 10.36 0 01.26-3.13l.34-1.26h-.94a6.48 6.48 0 00.6-1.31 1.24 1.24 0 00-.32-1.26 1.17 1.17 0 00-.35-.25 2.87 2.87 0 01.64-.22c1.76-.35 2.36-3.15 2.5-4v-.25l.01-.21a6.86 6.86 0 010-3.31l.24.51 3.16-2.28v.62l.09.9h1.6a5.76 5.76 0 01-1.4 1.49l1 1.71a13.45 13.45 0 013.65-.84l-1 2.46 2.15-.84a5.17 5.17 0 013.5.1l-3.19 2.18h3.22a3 3 0 011.09 1l-3.19.3z"/></svg>