<svg height="100" width="100" xmlns="http://www.w3.org/2000/svg" viewBox="0 0 48 48"><path d="M40.7 47.5C26 47.5 12 40.1 3.1 27.8.6 24.4-.1 20 1.2 16.5c.8-2.2 2.4-3.7 4.3-4.1.6-.1 1.1-.2 1.7-.2 3.9 0 7.9 3 9.6 7.4C21.3 31.4 32.1 40 44.9 42.1c1.5.2 2.6 1.3 2.6 2.6 0 1.1-.9 2.3-2.7 2.5-1.4.2-2.8.3-4.1.3zM7.2 14.3c-.4 0-.9 0-1.3.1-1.3.3-2.3 1.3-2.9 2.8-1.1 2.8-.4 6.5 1.6 9.3 8.6 11.8 22 18.9 36 18.9 1.3 0 2.6-.1 3.9-.2.5-.1.9-.3.9-.6s-.3-.5-.9-.6C31.1 42 19.7 32.9 15 20.4c-1.5-3.6-4.6-6.1-7.8-6.1z"/><path d="M4.7 14.8c-.3 0-.6-.1-.8-.3C3.8 14.3-.4 9.3.7 1.4.8.9 1.3.5 1.8.5c.5.1.9.6.9 1.1-1 7.1 2.7 11.5 2.7 11.6.4.4.3 1-.1 1.4-.1.1-.4.2-.6.2z"/></svg>