<svg height="100" width="100" xmlns="http://www.w3.org/2000/svg"><path d="M86.478 13.322c-2.887-2.889-5.265-3.942-7.064-3.123-1.22.552-3.96 2.193-5.662 3.439-6.681-1.063-12.767 4.219-17.57 8.391l-2.368 2.054C43.33 33.172 32.488 42.57 22.605 52.643l-.766.78c-8.145 8.28-20.453 20.792-8.378 32.869.044.044.09.085.138.124.038.046.078.091.121.135 3.629 3.629 7.296 5.056 10.877 5.056 8.339 0 16.206-7.741 22-13.442l.771-.759c10.11-9.92 19.544-20.805 28.668-31.332l1.94-2.238c4.262-4.904 9.678-11.146 8.32-17.99 1.464-2.058 2.765-4.286 3.301-5.463.813-1.802-.236-4.177-3.119-7.061zm-16.323 22.88l-2.243 2.38C58.475 48.6 48.718 58.958 38.793 68.802l-.765.76c-5.908 5.869-16.452 16.339-21.01 15.424-.299-.263-.597-.54-.896-.839a1.796 1.796 0 00-.138-.124 2.167 2.167 0 00-.121-.135 18.555 18.555 0 01-.837-.895c-.921-4.556 9.549-15.1 15.418-21.008l.763-.769c9.856-9.935 20.225-19.704 30.253-29.151l2.343-2.208c4.877-4.596 11.35-10.691 14.623-10.15.275.245.553.5.832.779l.26.262c.281.281.538.56.783.837.541 3.276-5.552 9.743-10.146 14.617zM24.261 55.808l.77-.783c9.787-9.974 20.576-19.327 31.009-28.372l2.37-2.056c6.447-5.601 11.454-9.318 16.762-7.032-3.97 1.611-8.643 6.014-13.22 10.328l-2.343 2.208C49.564 39.563 39.178 49.348 29.29 59.316l-.762.767c-6.312 6.355-13.693 13.791-15.722 19.581-3.504-7.602 3.11-15.372 11.455-23.856zm51.147-14.204l-1.943 2.242c-9.079 10.476-18.468 21.308-28.479 31.132l-.775.762c-8.492 8.357-16.268 14.981-23.877 11.457 5.793-2.021 13.237-9.401 19.599-15.721l.764-.758c9.957-9.876 19.731-20.251 29.183-30.286l2.242-2.38c4.312-4.574 8.713-9.245 10.324-13.213 2.287 5.312-1.434 10.318-7.038 16.765zm9.389-19.625c-.705-1.197-1.648-2.408-2.869-3.629l-.26-.262c-1.323-1.324-2.635-2.312-3.931-3.033 1.148-.723 2.334-1.408 2.992-1.719.454.052 1.769.813 3.344 2.39 1.574 1.574 2.334 2.887 2.385 3.34-.323.689-.933 1.762-1.661 2.913z"/></svg>