<svg height="100" width="100" xmlns="http://www.w3.org/2000/svg" viewBox="0 0 48 48"><path d="M10.1 43.9c-.3 0-.6-.1-.8-.4C5.8 39 4.4 34.7 5 30.6c.7-4.7 4.1-7.2 4.2-7.3.4-.3 1.1-.2 1.4.2.3.4.2 1.1-.2 1.4-.1 0-2.8 2.1-3.4 6-.5 3.4.8 7.3 3.9 11.3.3.4.3 1.1-.2 1.4-.2.3-.4.3-.6.3z"/><path d="M17.8 46c-.2 0-.4-.1-.6-.2-12.8-10-1.8-25.4-1.7-25.6.3-.4.9-.5 1.4-.2.4.3.5.9.2 1.4-.4.6-9.9 14 1.3 22.8.4.3.5 1 .2 1.4-.2.3-.5.4-.8.4zM32 39.9c-.2 0-.3 0-.4-.1-.5-.2-.7-.8-.4-1.3 4.4-8.8-1.6-13.3-1.9-13.5-.4-.3-.5-.9-.2-1.4.3-.4.9-.5 1.4-.2.1.1 7.7 5.7 2.5 16-.3.3-.7.5-1 .5zM21.8 46c-.3 0-.6-.1-.8-.4-.3-.4-.3-1.1.2-1.4 1.1-.9 2-1.8 2.8-2.8.3-.4 1-.5 1.4-.2s.5 1 .2 1.4c-.9 1.1-1.9 2.2-3.1 3.1-.3.3-.5.3-.7.3zM26.7 39.6c-.1 0-.2 0-.4-.1-.5-.2-.8-.8-.6-1.3 3-7.9-3.3-16.7-3.3-16.8-.3-.4-.2-1.1.2-1.4.4-.3 1.1-.2 1.4.2.3.4 6.9 9.7 3.6 18.6-.1.5-.5.8-.9.8z"/><path d="M34.3 47.5c-2.5 0-5-.6-7.3-1.8-.9-.5-1.7-1-2.2-2-.6-1.2-.4-2.7.5-4.3.1-.1.2-.4.6-.6.3-.2.6-.2.8-.2 6.7-.3 12.1-2.2 15.1-5.3l.1-.1c1.4-1.4 2.1-2.9 2-4.9 0-.5.4-1 .9-1 .5-.1 1 .3 1.1.8l.9 3.9c.4 1.6.6 2.9.6 4.1.1 2.8-1 5.4-3 7.5-2.7 2.4-6.3 3.9-10.1 3.9zm-7.5-6.9c-.3.6-.7 1.5-.3 2.2.2.4.8.8 1.3 1.1 2.1 1.1 4.2 1.6 6.4 1.6 3.3 0 6.4-1.2 8.5-3.4 1.7-1.7 2.5-3.8 2.4-6.1 0-1-.2-2.1-.5-3.4-.4.7-.9 1.3-1.6 2l-.1.1c-3.2 3.4-8.9 5.5-16.1 5.9z"/><path d="M20 46.1C9.4 46.1.9 39.6.9 31.5c0-4.5 2.6-8.6 7.2-11.4 4.1-2.5 6.6-6.8 6.6-11.4V1.5c0-.6.4-1 1-1h2.1c.3 0 .5.1.7.3L20 2.3 21.5.8c.2-.2.4-.3.7-.3h2.2c.6 0 1 .4 1 1v7.2c0 4.6 2.5 8.9 6.6 11.4 4.6 2.8 7.2 6.9 7.2 11.4 0 2.4-.8 4.7-2.2 6.8-.3.5-.9.6-1.4.3s-.6-.9-.3-1.4c1.2-1.8 1.8-3.7 1.8-5.7 0-3.7-2.3-7.3-6.2-9.7-4.7-2.9-7.6-7.8-7.6-13.2V2.5h-.8l-2 1.9c-.2.2-.5.3-.7.3-.3 0-.5-.1-.7-.3l-1.9-1.9h-.7v6.2c0 5.3-2.8 10.3-7.6 13.2-3.9 2.4-6.2 5.9-6.2 9.7 0 6.9 7.7 12.6 17.1 12.6 2.2 0 4.3-.3 6.3-.9.5-.2 1.1.2 1.2.7.2.5-.2 1.1-.7 1.2-2 .6-4.3.9-6.6.9z"/></svg>