<svg height="100" width="100" xmlns="http://www.w3.org/2000/svg" viewBox="-247 370.9 100 100"><path d="M-152.2 429c-1.1-3.2-1.3-6.4-.5-9.4.3-1.2.4-2.4.4-3.6 0-3.5-1.2-6.8-3.3-9.4 2.2-2.1 4.1-4.7 4.2-7.8.1-2.6-1.2-5.1-3.8-7.5-.5-.5-1-.9-1.6-1.3.4-.7.9-1.4 1.2-2.2.8-1.8 1-3.4 1.1-4.4l-4-.3c0 .6-.2 1.8-.8 3.1-.3.8-.7 1.4-1.1 1.9-3.4-1.2-6.9-.7-10.3 1.4-.4-.6-.8-1.1-1.3-1.6-3.2-3.1-8.3-4.7-14.4-4.4-9.6.4-15.9 5.7-16.2 13.8 0 .9.2 5 .5 8.7-.2-.1-.3-.2-.5-.3-2.2-1.1-4.9-1.2-7.5-.3-2.5.9-4.5 2.7-5.4 4.7-.8 1.8-1.5 1.9-5.9.8l-.6-.2c-.2-.1-.4-.1-.7-.1-2-3.6-4.9-5.9-8.2-6.5-1.9-.3-3.9 0-5.7.9-.2-.4-.5-.8-.7-1.3-.5-1.1-.7-2.1-.7-2.7l-4 .4c.1 1.3.5 2.6 1.1 3.9.3.7.7 1.4 1.1 1.9l-.2.2c-5.8 5.6-3 10.7.5 15.5-.1 1.4 0 2.9.3 4.3.7 2.7.4 5.5-.8 7.9-1.3 2.5-1.8 5.2-1.5 8 .3 3.2 1.6 6.1 3.7 8.4-.3.4-.6.8-1 1.2-.9.9-1.7 1.4-2.2 1.6l1.8 3.6c1.1-.6 2.3-1.4 3.3-2.4.5-.5.9-.9 1.2-1.4 1.9 1.3 4.1 2.1 6.4 2.5.7.1 1.5.2 2.2.2 3.7 0 7.4-1.3 10.2-3.7 2-1.7 4.7-2.2 7-1.4.6.2 1.4.6 2.3 1 2.6 1.2 5.7 2.5 8 2.5 4.5 0 8-1.8 10.6-5.2 2.2-3 7-1.5 10.6.3-.1.6-.3 1.2-.7 2-.5 1.1-1.1 1.9-1.5 2.3l3 2.7c.9-.9 1.6-2.1 2.2-3.4.4-.8.6-1.6.8-2.2.1 0 .2 0 .3.1.1.6.3 1.7.2 3.1-.1 1.2-.4 2.2-.6 2.7l3.7 1.5c.5-1.2.8-2.5.9-3.9.1-1.1 0-2.1-.1-2.9.7 0 1.4 0 2.2-.1 8.5-.9 15.2-7.6 16-15.9-.1-2.5-.4-5-1.2-7.3zm-5.8-34.6c1.7 1.6 2.6 3 2.5 4.4 0 1.5-1.1 3.1-3.1 5.1-2.6-2-5.9-3.1-9.5-3.1 0 0-.7-.5-.6-3.1.1-1.5-.1-2.9-.5-4.3 3.9-2.7 7.5-2.4 11.2 1zm-73.7 13.9c1.4.2 2.8 1.1 3.9 2.4h-.1c-4.6.7-8.4 3.5-10.4 7.4-2.1-3.6-1.5-5.3.8-7.5 1.9-1.9 3.9-2.6 5.8-2.3zm76.3 27.6c-.1 1.2-.4 2.4-.8 3.5-.8-4.3-3-7.8-4.5-10.2-.7-1.2-1.5-2.4-1.6-3-.5-2.1-.1-4.4 1.1-6.9l-3.6-1.7c-1.5 3.3-2 6.4-1.3 9.4.3 1.3 1.1 2.6 2.2 4.3 1.8 2.8 4.2 6.7 4.3 11.3 0 .6 0 2.4-3.1 4.1-1.5.7-3.1 1.2-4.8 1.4-2.8.3-5.6-.2-8.1-1.4-1.4-.7-2.7-1.2-3.9-1.6-.5-1.2-.8-2.3-1-3.5-.2-2 .1-3.4.5-4.9.4-1.5.8-3.1.6-5.1-.2-3.1-1.7-6.1-4.4-9l-2.9 2.7c2 2.2 3.2 4.4 3.3 6.5.1 1.4-.2 2.5-.5 3.8-.4 1.7-.9 3.7-.6 6.3.1.7.2 1.5.4 2.2-3.7-.1-6 1.5-7.3 3.3-1.8 2.4-4.2 3.6-7.4 3.6-1.5 0-4.3-1.3-6.4-2.2-.9-.4-1.8-.8-2.5-1.1-2.4-.9-5.1-.9-7.5 0 .1-1.4 0-2.9-.5-4.5-.6-2-1.8-3.8-3.3-5.3l-2.8 2.9c.7.7 1.7 1.9 2.3 3.7.9 2.8 0 5.4-.5 6.3-2.3 1.5-5.1 2.1-8 1.7-5.1-.7-9.2-4.9-9.7-9.9-.2-2 .2-4 1.1-5.8.9-1.8 1.5-3.8 1.6-5.9 1-.4 2.2-.8 3.6-.9 2.1-.1 3.8.5 4.8 1.1l1.8-3.6c-1.5-.7-3.8-1.6-6.8-1.5-1.4.1-2.6.3-3.7.7 0-.2-.1-.4-.1-.6-.3-1.3-.4-2.8-.1-4.2.8-3.9 4.2-7.1 8.3-7.6.5-.1 1-.1 1.6-.1.9 0 1.7.1 2.6.3l.6.2c3.7 1 8.4 2.2 10.6-3.1.4-1 1.6-2 3.1-2.5 1.5-.6 3.1-.5 4.3.1 1.6.8 2.2 1.7 2.5 2.3.3 1.1.7 2.4 1.3 3.7 1.7 3.5 4 5.7 5.7 7l2.4-3.2c-1.3-1-3.2-2.8-4.5-5.6-.3-.6-.5-1.2-.7-1.7-.4-5.1-1-13.2-.9-14.3 0-.8.2-1.6.4-2.3.5.3 1.1.6 1.7.8 1.4.5 2.7.6 3.6.6h.4l-.2-4c-.5 0-1.4 0-2.5-.4-.5-.2-.9-.4-1.3-.6 2.8-3.3 7.7-4 10.2-4.1 4.9-.2 9.1 1 11.4 3.3 1.6 1.6 2.4 3.8 2.3 6.5-.1 2.7.5 4.8 1.6 6 1.1 1.1 2.3 1.3 2.9 1.3 6.4 0 11.7 5.1 11.7 11.3 0 .9-.1 1.8-.3 2.7-.9 3.7-.7 7.7.6 11.6.7 2 .9 3.9.7 5.8z"/><path d="M-215.2 416.9l-3.8 1.2c.4 1.2.7 3.2.1 5.5-.5 2-1.6 3.4-2.4 4.3l2.9 2.8c1.1-1.2 2.7-3.2 3.4-6 .9-3.3.4-6-.2-7.8zM-192.7 439.5c-2.2.7-3.9 1.5-4.9 2.2l2.1 3.4c.8-.5 2.2-1.2 4-1.7 1.6-.5 2.8-.6 3.6-.6l-.1-4c-1.1-.1-2.7.1-4.7.7zM-192.6 436.3c1.6-.5 2.8-.6 3.6-.6l-.1-4c-1 0-2.6.2-4.6.8-2.2.7-3.9 1.5-4.9 2.2l2.1 3.4c.7-.6 2.1-1.3 3.9-1.8zM-172.1 418.1c2.1-1 3.5-2.2 4.4-3l-2.7-3c-.6.5-1.8 1.5-3.5 2.4-1.5.7-2.7 1.1-3.4 1.3l.8 3.9c1.5-.3 3-.8 4.4-1.6zM-179.7 405.8c3.3-.3 5.8-1.7 7.3-2.8l-2.4-3.2c-1.1.8-2.9 1.8-5.3 2.1-2.2.2-4-.3-5.1-.7l-1.5 3.7c1.3.5 3.2 1.1 5.5 1.1.5-.1 1-.1 1.5-.2zM-210.5 441.2c-.6-1.6-.2-3.1 0-3.7l-3.7-1.4c-.5 1.3-1.1 3.8 0 6.6.5 1.4 1.5 2.6 2.6 3.6l2.6-3.1c-.5-.3-1.1-1-1.5-2z"/><path d="M-168.7 407l-3.2-2.4c-1.1 1.5-3.7 4.1-8.3 5.3-7.1 1.8-13.1-1.7-13.8-2.1l-2.1 3.4c1 .6 5.6 3.2 11.7 3.2 1.6 0 3.4-.2 5.2-.6 5.7-1.5 9-4.9 10.5-6.8zM-167.4 440.5c0 .3-.1.6-.3.8-.5.6-1.4 1-2.4 1.1-1.6.2-3-.6-3-1.3l-4 .5c.3 2.9 3.1 4.9 6.5 4.9.3 0 .6 0 .9-.1 2.1-.2 3.9-1.2 5.1-2.6.9-1.1 1.3-2.4 1.1-3.7-.2-1.6-1.2-3.1-2.9-4l-1.9 3.5c.3.1.8.4.9.9zM-233.9 439.2c-1.6.6-2.7 1.9-3.2 3.7l3.9 1c.1-.3.3-.8.8-1 .8-.3 2.1.5 2.7 2 .3.9.4 1.8.1 2.4-.2.3-.4.6-.6.7l1.4 3.7c1.3-.5 2.3-1.5 2.9-2.8.7-1.6.7-3.7 0-5.5-1.6-3.5-5-5.3-8-4.2z"/></svg>