<svg height="100" width="100" xmlns="http://www.w3.org/2000/svg"><path d="M44.835 58.197c-.445-.138-1.005-.386-1.141-.786-.163-.478.213-1.174.354-1.374a1.062 1.062 0 00-1.661-1.323c-.658.754-1.786.386-1.847.366a1.06 1.06 0 00-1.353.64c-.2.553.085 1.162.637 1.361a4.35 4.35 0 001.707.224c.013.253.058.514.145.775.231.694.858 1.63 2.53 2.148a1.065 1.065 0 001.33-.701 1.063 1.063 0 00-.701-1.33zM54.206 67.604a1.063 1.063 0 001.061 1.008l.057-.002c.11-.006 2.726-.162 4.355-2.006a4.82 4.82 0 00.864-1.395c.225.147.476.273.754.368 1.122.382 2.351.134 3.649-.736a1.063 1.063 0 00-1.184-1.766c-.716.479-1.31.645-1.774.492-.627-.208-1.027-1.001-1.126-1.282a1.064 1.064 0 00-2.069.414c.075 1.05-.154 1.863-.7 2.487-1.022 1.166-2.843 1.297-2.886 1.3a1.065 1.065 0 00-1.001 1.118zM52.687 51.062c-4.328 0-5.382-1.259-5.428-1.756a1.062 1.062 0 00-.997-1.075c-.596-.06-1.091.408-1.126.995-.012.177-.021 1.105.857 2.04 1.198 1.275 3.45 1.922 6.693 1.922a1.064 1.064 0 00.001-2.126zM54.517 52.319a1.06 1.06 0 001.811-.75c0-.279-.11-.56-.311-.75-.39-.399-1.109-.399-1.5-.01-.2.2-.31.471-.31.76 0 .281.109.551.31.75z"/><path d="M28.854 35.345c-.044.26-.066.523-.066.788a4.861 4.861 0 004.855 4.856c.38 0 .753-.046 1.118-.136a5.849 5.849 0 005.544 3.932c1.475 0 2.858-.55 3.929-1.523a50.789 50.789 0 011.805 2.495c-7.111 1.85-9.85 8.228-10.713 11.014-.845-.609-1.857-1.688-2.458-2.462a1.063 1.063 0 00-1.712 1.26c1.709 2.44 1.945 6.942 1.973 8.58a5.945 5.945 0 00-.701-.342 1.062 1.062 0 00-1.385.584c-.222.544.04 1.164.584 1.385 1.134.461 1.445 1.098 2.128 2.493.653 1.335 1.548 3.164 3.638 5.556 2.357 2.697 5.671 3.988 8.34 4.612.516.419 2.047 1.712 2.924 2.964.859 1.229 1.921 1.897 3.004 1.897.052 0 .103-.002.153-.005.741-.043 1.803-.425 2.649-1.998 1.019-1.892 1.542-2.119 3.274-2.875l.304-.132c2.149-.924 7.159-3.077 9.566-8.272.243-.291.763-.765 1.199-.765h.016c.382.011.748.44.987.799a1.064 1.064 0 001.768-1.182c-.945-1.413-1.998-1.728-2.715-1.742a2.618 2.618 0 00-.779.093c.782-2.856 1.495-6.441-1.444-12.163-1.91-3.72-1.153-5.369-.518-5.707a1.064 1.064 0 00-.244-2.02c-2.294-.4-3.776.251-4.636.902-1.269-1.198-2.904-1.782-4.138-2.066a81.88 81.88 0 001.881-2.854c.867 1.223 1.939 2.281 3.624 2.281.564 0 1.152-.12 1.797-.368a6.595 6.595 0 004.174-5.417c.653-.016 1.379-.122 2.034-.373a5.649 5.649 0 003.249-7.284 5.524 5.524 0 00-.69-1.276 4.526 4.526 0 00.257-3.772 4.51 4.51 0 00-1.562-2.045 4.502 4.502 0 00-.203-2.563 4.57 4.57 0 00-4.241-2.918c-.556 0-1.102.102-1.624.302-.133.051-.265.11-.396.178a4.605 4.605 0 00-4.269-.557 4.517 4.517 0 00-2.699 2.9 4.487 4.487 0 00-1.209-1.335 4.496 4.496 0 00-.203-2.562 4.509 4.509 0 00-2.39-2.523 4.51 4.51 0 00-3.871.083 4.511 4.511 0 00-4.271-.555 4.519 4.519 0 00-2.873 3.682 5.222 5.222 0 00-.953.266c-1.795.687-3.458 3.143-3.591 5.143-1.274-.787-3.014-.79-4.289.003a4.067 4.067 0 00-2.154-.611 4.106 4.106 0 00-4.102 4.102c0 .103.004.206.014.311a4.073 4.073 0 00-1.78 3.379 4.08 4.08 0 002.091 3.563zm20.084.308c.311 2.031.686 4.025 1.057 5.813-.035-.001-.072.003-.107.001-1.759-.083-2.867-1.266-2.898-1.3a1.012 1.012 0 00-.263-.197c.145-.414.247-.861.26-1.345.037-1.328-.532-2.583-1.692-3.735.098-.402.214-.969.304-1.616l3.339 2.379zm3.678 2.615c.066.279.139.559.244.834.154.402.41.745.709 1.058-.5.364-.996.658-1.484.872-.148-.715-.297-1.459-.442-2.228l.973-.536zm.957 9.161c-.199-.763-.59-2.311-1.035-4.298.967-.361 1.931-.936 2.887-1.723.595.272 1.214.493 1.803.676a83.754 83.754 0 01-3.655 5.345zm-7.422-5.182c.729.551 1.956 1.253 3.588 1.342.118.007.236.01.354.01.12 0 .239-.014.358-.021.158.704.31 1.352.449 1.934a1.051 1.051 0 00-.709-.282 17.6 17.6 0 00-1.872.098 50.89 50.89 0 00-2.168-3.081zm14.17 8.154c.203.291.548.44.898.443.354-.007.688-.2.88-.499.024-.037.427-.642 1.453-.898-.582 1.689-.181 3.903 1.194 6.579 2.759 5.373 1.93 8.334 1.128 11.197l-.044.158c-.112.402.029.808.32 1.069a4.52 4.52 0 00-.317.381c-.043.06-.08.123-.11.189-2.046 4.529-6.585 6.48-8.522 7.313l-.314.136c-2.031.887-2.985 1.381-4.296 3.816-.294.546-.623.867-.901.884-.267.037-.765-.234-1.292-.989a11.907 11.907 0 00-.972-1.19c.427.026.71.03.766.03h.001a1.064 1.064 0 00.001-2.126c-.034 0-1.638-.018-3.723-.478h-.001c-2.391-.526-5.416-1.635-7.477-3.992a21.892 21.892 0 01-1.809-2.358c.248-.376.428-.878.548-1.455.898 1.279 2.2 2.592 4.089 3.683a1.06 1.06 0 001.452-.387 1.062 1.062 0 00-.388-1.452c-4.233-2.446-4.901-6.15-5.001-7.025l-.021-.233c-.053-.576-.562-1.018-1.129-.966a1.061 1.061 0 00-.991 1.106c.001.024.005.113.021.255.114 1.424.103 2.893-.007 3.935l-.095-.192c-.297-.607-.572-1.163-.91-1.662.288-.185.492-.487.502-.854.005-.181.065-3.002-.567-5.942.382.214.77.372 1.147.441a1.07 1.07 0 001.237-.854c.075-.41 1.79-9.136 10.184-10.824a37.33 37.33 0 011.241 2.142 1.064 1.064 0 001.432.456c.521-.271.726-.911.456-1.433a35.461 35.461 0 00-.801-1.43c.201-.008.4-.019.607-.019.457 0 .839-.292.989-.696.264 1.059.446 1.734.479 1.856.105.389.417.656.782.743a1.035 1.035 0 001.043 1.096c.312 0 .62-.137.83-.398a57.71 57.71 0 001.427-1.878c1.047.145 3.411.65 4.581 2.322zM59.294 25.22c.276-.007.602-.122.809-.351.206-.228.303-.534.267-.84a2.407 2.407 0 011.523-2.546c.91-.352 1.974-.091 2.633.618.376.404.996.451 1.432.116.218-.17.409-.283.603-.357 1.214-.466 2.657.188 3.118 1.393a2.4 2.4 0 01-.054 1.854 1.064 1.064 0 00.538 1.408 2.398 2.398 0 011.28 1.347 2.412 2.412 0 01-.415 2.403 1.063 1.063 0 00.06 1.429c.352.355.616.764.788 1.215a3.52 3.52 0 01-2.023 4.54c-.66.254-1.382.3-2.07.135a1.065 1.065 0 00-1.305 1.126 4.454 4.454 0 01-2.831 4.529c-1.512.579-2.163.06-3.44-1.937.38-.649.758-1.318 1.126-2.004l4.687-.948a1.064 1.064 0 00-.422-2.084l-3.041.615c.928-1.954 1.726-3.971 2.245-5.936.064-.029.13-.054.189-.098l2.145-1.594a1.063 1.063 0 00-1.267-1.707l-.504.375c.021-.206.043-.412.055-.615a1.064 1.064 0 00-.999-1.124c-.549-.022-1.088.412-1.124.999-.073 1.243-.346 2.567-.749 3.922l-1.806-3.223a1.064 1.064 0 00-1.855 1.039L61.6 33.77c-.897 2.211-2.052 4.422-3.233 6.439-1.286-.378-3.188-1.002-3.521-1.868a4.423 4.423 0 012.142-5.548c.321-.162.539-.477.578-.835s-.106-.712-.387-.939a3.21 3.21 0 01-1.001-1.354 3.259 3.259 0 01.067-2.509 3.255 3.255 0 011.822-1.727 3.323 3.323 0 011.227-.209zm-15.871-3.782a3.487 3.487 0 011.23-.211c.283-.013.603-.122.809-.351s.304-.535.267-.84a2.406 2.406 0 011.521-2.546 2.407 2.407 0 012.634.617c.375.405.997.453 1.432.117.218-.17.409-.283.603-.357a2.39 2.39 0 011.847.051c.589.263 1.04.739 1.271 1.343s.213 1.262-.054 1.854a1.061 1.061 0 00.539 1.407c.548.243.967.672 1.212 1.21-1.07.562-1.93 1.438-2.43 2.559a5.37 5.37 0 00.557 5.358 6.516 6.516 0 00-2.406 4.642 1.052 1.052 0 00-.811.089l-.394.217a82.317 82.317 0 01-.578-4.027l2.841-3.496a1.063 1.063 0 10-1.65-1.34l-1.464 1.802c-.085-1.455-.091-2.824.017-4.026a1.06 1.06 0 00-.964-1.153 1.059 1.059 0 00-1.153.964c-.175 1.953-.077 4.279.171 6.691a1.034 1.034 0 00-.026.681l-1.63-1.161a1.054 1.054 0 00-1.076-.075c.009-1.33-.199-2.763-.904-3.933-.743-1.233-1.895-2.004-3.422-2.288l-.041-.008c-.115-.021-.152-.038-.173-.261-.099-1.046 1.058-3.082 2.225-3.529zm-13.294 8.509c.512-.205.781-.767.622-1.293a1.968 1.968 0 01-.097-.566c0-1.089.886-1.976 1.976-1.976.529 0 1.026.208 1.4.584a1.066 1.066 0 001.508.001 1.962 1.962 0 011.402-.585 1.98 1.98 0 011.716 1.023 1.06 1.06 0 001.357.453c.35-.154.714-.238 1.086-.251.874.181 1.499.599 1.908 1.276 1.106 1.833.431 5.171.077 6.303-.128.406 0 .852.324 1.128.982.837 1.472 1.682 1.452 2.512-.013.556-.245 1.057-.516 1.464a36.26 36.26 0 00-3.196-3.271l-1.044-4.59a1.059 1.059 0 00-1.271-.801 1.06 1.06 0 00-.801 1.271l.458 2.015c-.142-.098-.277-.204-.421-.298a1.063 1.063 0 10-1.166 1.778c1.036.68 2.019 1.476 2.951 2.326h-.786a1.064 1.064 0 000 2.126h2.912c.309.338.609.677.9 1.019-.695.67-1.6 1.063-2.577 1.063a3.727 3.727 0 01-3.723-3.359 1.063 1.063 0 00-1.588-.813c-.433.25-.887.376-1.351.376a2.732 2.732 0 01-2.729-2.729c0-.346.068-.688.201-1.016a1.062 1.062 0 00-.726-1.432 1.969 1.969 0 01-1.501-1.908 1.97 1.97 0 011.243-1.83z"/></svg>