<svg height="100" width="100" xmlns="http://www.w3.org/2000/svg"><path d="M71.5 28.1l-6-3 1.1-2.1c.2-.4 0-1-.4-1.2L56.5 17c-.2-.1-.5-.1-.7 0-.2.1-.4.2-.5.5L50.5 27l-4.8-9.7c-.1-.2-.3-.4-.5-.5-.2-.1-.5-.1-.7 0l-9.7 4.8c-.4.2-.6.8-.4 1.2l1 2-6.2 3.1c-.4.2-.6.8-.4 1.2l12.4 25.1C43 57.9 44 62.1 44 66.3V89c0 1.7 1.4 3.2 3.2 3.2l-1.8 1.6c-.2.2-.3.6-.1.8.1.1.3.2.4.2.1 0 .3 0 .4-.2l2.8-2.4h.7v2c0 .3.3.6.6.6s.6-.3.6-.6v-2h.7l2.8 2.4c.1.1.3.2.4.2.2 0 .3-.1.4-.2.2-.2.2-.6-.1-.8l-1.8-1.6c1.7 0 3.2-1.4 3.2-3.2V66.4c0-4.2 1-8.3 2.8-12.1l12.4-25.1c.6-.4.4-.9-.1-1.1zm-15-9.1l1.2.6-1.6 3.4c-.1.3 0 .7.3.8.1 0 .2.1.3.1.2 0 .4-.1.5-.3l1.6-3.4 5.8 2.9-.7 1.3-2.1-1c-.2-.1-.5-.1-.7 0-.2.1-.4.2-.5.5l-5.9 11.9-3.2-6.5 5-10.3zm-20 4l5.7-2.8 2.6 5.3c.1.2.3.3.5.3.1 0 .2 0 .3-.1.3-.1.4-.5.3-.8l-2.6-5.3 1.3-.6 9.2 18.7-3.4 6.8-10.3-20.8c-.1-.2-.3-.4-.5-.5-.2-.1-.5-.1-.7 0l-1.8.9-.6-1.1zm6.4 30.6l-12-24.3 1.1-.5 3.8 7.9c.1.2.3.3.5.3.1 0 .2 0 .3-.1.3-.1.4-.5.3-.8L33 28.2l5.9-2.9 10.5 21.1-1.2 2.3c-1.6 3.2-2.7 6.6-3.4 10-.4-1.7-1.1-3.5-1.9-5.1zm15 0c-2 4-3 8.4-3 12.9v22.7c0 .7-.6 1.4-1.4 1.4h-6.3c-.7 0-1.4-.6-1.4-1.4V66.4c0-5.8 1.4-11.7 3.9-16.9l12-24.3 5.8 2.9-3.9 8c-.1.3 0 .7.3.8.1 0 .2.1.3.1.2 0 .4-.1.5-.3l3.9-8 1.2.6-11.9 24.3z"/></svg>