<svg height="100" width="100" xmlns="http://www.w3.org/2000/svg"><path d="M94.304 54.287c-.144-2.797-1.364-5.132-3.402-6.604 1.28-4.425 1.5-10.601-.916-15.078-1.569-2.907-4.101-4.834-7.32-5.573-.3-.069-.607-.127-.922-.173-1.053-7.011-4.938-10.021-7.226-11.201-2.529-1.303-5.417-1.627-7.784-.942-3.575-5.513-10.322-7.328-14.984-5.762a11.39 11.39 0 00-1.841.826 11.437 11.437 0 00-1.879-.826c-4.663-1.568-11.422.253-14.995 5.778-2.233-.596-4.982-.246-7.43 1.016-2.375 1.224-6.381 4.292-7.561 11.314-3.126.669-5.672 2.614-7.367 5.647C8.124 37.28 7.963 43.386 9.11 47.673c-2.047 1.472-3.271 3.811-3.416 6.614-.206 3.992 1.75 8.206 4.881 10.792-.652 1.707-.474 3.982.555 6.535 2.282 5.661 8.017 11.575 16.671 15.481.098.057.202.104.311.141C34.095 89.88 41.446 91.569 50 91.569c21.179 0 34.994-10.344 38.868-19.955 1.029-2.552 1.208-4.828.555-6.535 3.131-2.586 5.087-6.801 4.881-10.792zM64.477 17.606a1.7 1.7 0 002.35.725c1.261-.705 3.719-.896 6.135.349 2.789 1.437 4.65 4.345 5.342 8.239-2.741.524-5.686 2.307-8.382 6.442a47.963 47.963 0 00-1.437-2.442c2.428-2.849 2.959-5.585 2.982-5.711a1.347 1.347 0 00-1.078-1.566 1.357 1.357 0 00-1.577 1.072c-.004.021-.375 1.822-1.909 3.863-1.491-2.062-3.312-4.183-5.428-5.866a1.35 1.35 0 10-1.681 2.113c4.244 3.375 7.324 8.911 8.535 11.321-.503 1-.994 2.094-1.467 3.299-1.724-.682-4.415-1.354-7.029-.44.194-2.467-.217-4.674-1.245-6.589-1.3-2.423-3.291-3.792-4.675-4.5.833-3.08 1.478-5.554 1.45-8.276-.029-2.989-.914-5.538-2.521-7.465 3.212-1.073 9.032.217 11.635 5.432zm-37.314 1.165c2.364-1.218 4.612-1.098 5.792-.439a1.705 1.705 0 002.351-.725c2.605-5.22 8.435-6.506 11.643-5.43 3.198 1.074 4.979 3.736 5.017 7.497.024 2.344-.581 4.575-1.417 7.664l-.304 1.128a1.7 1.7 0 001.183 2.077c.027.008 2.745.833 4.167 3.481 1.131 2.109 1.178 4.856.153 8.161-1.677 2.253-2.542 5.049-2.956 6.989-.963-.326-1.976-.548-2.887-.622a8.87 8.87 0 00-2.197.105c-.597-1.967-1.85-5.122-4.17-7.435 1.728-.395 3.466-.992 4.923-1.899a1.35 1.35 0 00-1.428-2.292c-1.908 1.188-4.513 1.748-6.766 2.009a8.26 8.26 0 00-3.177-.475c.644-3.936 2.54-12.54 7.498-19.421a1.35 1.35 0 10-2.19-1.578c-2.699 3.746-4.538 7.903-5.785 11.639-1.498-1.48-2.627-3.054-3.37-4.235a1.35 1.35 0 10-2.286 1.436c.984 1.566 2.587 3.751 4.785 5.667a56.588 56.588 0 00-1.464 6.979c-.402.12-.779.251-1.116.384-1.84-5.025-4.996-11.975-11.607-12.606 1.081-4.999 3.901-7.18 5.608-8.059zM14.284 70.342c-.95-2.357-.809-3.957-.249-4.496a1.702 1.702 0 00-.298-2.679c-2.863-1.735-4.818-5.396-4.647-8.705.077-1.481.62-3.461 2.772-4.479a1.699 1.699 0 00.867-2.128c-1.281-3.45-1.396-9.349.916-13.487 1.24-2.22 2.997-3.569 5.221-4.011 5.852-1.167 8.826 3.724 11.721 11.989.169.484.551.865 1.035 1.037a1.708 1.708 0 001.459-.15c.039-.024 3.931-2.361 6.736-.659 2.79 1.69 4.177 5.465 4.722 7.371a8.423 8.423 0 00-1.297 1.095c-2.508 2.594-3.742 7.059-3.222 11.651.604 5.345.44 9.789-.454 13.195-6.046-4.99-10.16-11.084-12.895-16.49 1.047-1.168 2.878-3.627 3.706-7.283a1.35 1.35 0 00-2.634-.596 13.994 13.994 0 01-2.357 5.174c-2.748-6.161-3.645-10.87-3.662-10.965a1.349 1.349 0 10-2.657.479c.116.646 2.354 12.477 10.88 23.563-1.463.388-4.028.753-7.455.02a1.35 1.35 0 00-.566 2.64c1.623.348 3.092.479 4.385.479 2.597 0 4.463-.525 5.459-.892a49.387 49.387 0 006.833 6.563c-.485 1.024-1.062 1.91-1.742 2.633-1.854 1.971-4.44 2.864-7.889 2.725-8.549-3.958-13.162-9.809-14.688-13.594zm71.977-7.175a1.703 1.703 0 00-.298 2.679c.561.54.701 2.14-.249 4.497C83.229 76.508 72.567 88.168 50 88.168c-2.868 0-5.541-.19-8.032-.531 6.857-1.485 12.554-4.184 17.275-7.519.164-.059.32-.146.456-.271.035-.032.05-.076.081-.111 3.233-2.353 5.996-5.003 8.354-7.756.965.369 2.853.926 5.533.926 1.295 0 2.771-.131 4.405-.479a1.35 1.35 0 00-.561-2.641c-3.495.742-6.103.342-7.553-.053 2.494-3.251 4.459-6.571 5.995-9.653.014-.015.031-.026.045-.042.162-.186.242-.407.285-.633 3.513-7.264 4.623-13.05 4.65-13.202a1.35 1.35 0 00-2.657-.479c-.024.133-.925 4.813-3.676 10.943a14 14 0 01-2.343-5.153 1.35 1.35 0 10-2.634.596c.821 3.627 2.631 6.078 3.682 7.256-2.946 5.785-7.488 12.363-14.315 17.565-1.284-1.763-3.726-5.745-4.225-11.095a1.356 1.356 0 00-1.47-1.219 1.351 1.351 0 00-1.219 1.47c.557 5.967 3.228 10.374 4.715 12.415-5.425 3.628-12.146 6.365-20.46 7.315a11.479 11.479 0 003.006-2.278c3.828-4.067 5.194-11.211 4.062-21.234-.402-3.555.496-7.051 2.288-8.906 1.056-1.092 2.38-1.582 3.947-1.46 1.146.092 2.634.562 3.619 1.143a1.699 1.699 0 002.557-1.315c.139-1.556.899-5.383 2.81-7.779.021-.026.044-.05.064-.078.438-.536.935-.997 1.498-1.338 2.805-1.698 6.698.636 6.732.656a1.703 1.703 0 002.499-.884c2.198-6.277 6.148-13.454 12.494-11.999 2.27.52 3.981 1.823 5.087 3.873 2.076 3.847 1.71 9.771.275 13.635a1.699 1.699 0 00.867 2.128c2.153 1.019 2.696 2.998 2.772 4.479.172 3.311-1.783 6.972-4.647 8.707z"/></svg>