<svg height="100" width="100" xmlns="http://www.w3.org/2000/svg"><style></style><path d="M47.9 91.7c-23.3 0-43-20.3-43-44.4 0-.2 0-.4.1-.5.1-.2.2-.3.3-.5C7.1 44.5 9 43 11 41.7l.4-10.9c0-.4.2-.7.4-1C14.6 27 18 25 21.9 23.7c0-.2.1-.3.2-.4 2.7-4.4 6.6-7.9 11.5-10.4.1 0 .1-.1.2-.1.1-.1.2-.1.3-.2.1-.1.2-.1.3-.2.1 0 .1-.1.2-.1 13.5-6 29.9-2.2 38.4 8.9l2.4-2.4c.4-.4 1.1-.5 1.7-.3.2.1 19.6 10.4 14.5 30.9h2.1c.8 0 1.4.6 1.4 1.4C95 73 73.4 91.7 47.9 91.7zM34 73.8c.3 1 .7 2 1.1 3 2.5 5.8 7.1 10.1 12.8 12h.1c13.8 0 25-11.3 25-25.1 0-9.1-5.8-14.7-10.8-16.8-4.4-1.8-8.7-1.3-11.4 1.4-.3.3-.8.5-1.2.4-.4.1-.9-.1-1.2-.4-11.1-11.2-29.3-11.4-40.6-.5C8 67.5 22.3 84.3 40.4 88c-3.4-2.5-6.1-6-7.9-10.1-2.9-6.5-3.1-14-.7-21 .3-.8 1.1-1.2 1.8-.9.8.3 1.2 1.1.9 1.8-1.5 4.3-1.8 8.7-1.1 13 5 .7 9.8-3.1 10.8-8.7.1-.8.9-1.3 1.7-1.2.8.1 1.3.9 1.2 1.7-1.3 6.8-7 11.5-13.1 11.2zm41.9-10.1c0 8.9-4.2 16.8-10.7 22C80.4 80 91.4 67.1 92.1 52.4c-4.7.2-16.2 1.6-16.2 10.2v1.1zM57.1 43c2 0 4.1.4 6.2 1.3 4.4 1.8 9.3 6 11.5 12.4 2.2-3.3 6.5-6 13.7-6.9 4.7-16.7-8.2-25.9-11.9-28.1l-6.7 6.7c-.4.4-1 .5-1.5.3-10.3-3.5-21.4 1.9-25.1 12.1 2.3 1.3 4.4 2.8 6.4 4.6 2-1.6 4.6-2.4 7.4-2.4zM14.3 31.4l-.3 8.7c8.4-4.1 18.2-4.2 26.7-.5 1.2-3.3 3.2-6.2 5.7-8.5-8.4-7.9-23.6-7.7-32.1.3zm16.4-9c6.9 0 13.4 2.5 17.9 6.8 5.6-4 12.9-5.5 19.9-3.4l2.5-2.5C63.2 13 47.8 9.4 35.3 15.2c-3.8 1.8-6.9 4.4-9.3 7.5 1.5-.2 3-.4 4.6-.4 0 .1 0 .1.1.1z"/></svg>