<svg height="100" width="100" xmlns="http://www.w3.org/2000/svg" viewBox="0 0 48 68"><path d="M2.064.001c21.64.698 33.518 10.775 34.93 29.851 1.302 17.564 4.844 29.158 10.42 34.734 1.282 1.282.334 3.471-1.478 3.413-21.614-.697-33.508-10.069-34.93-27.84C9.7 23.815 6.126 11.474.356 3.14-.58 1.787.423-.052 2.064 0zm12.93 39.84c1.147 14.341 9.82 22.228 26.606 23.875-4.631-7.015-7.456-18.195-8.595-33.568C31.835 14.355 22.943 5.82 5.758 4.233c4.974 8.766 8.038 20.635 9.236 35.608zM24 40a6 6 0 110-12 6 6 0 010 12zm0-4a2 2 0 100-4 2 2 0 000 4zm-4-12a6 6 0 110-12 6 6 0 010 12zm0-4a2 2 0 100-4 2 2 0 000 4zm8 36a6 6 0 110-12 6 6 0 010 12zm0-4a2 2 0 100-4 2 2 0 000 4z"/></svg>