<svg height="100" width="100" xmlns="http://www.w3.org/2000/svg"><path d="M96.156 30c-.075-.964-.69-1.734-1.827-2.295.075-1.634-.882-3.22-1.916-4.251-1.341-1.332-2.959-1.939-4.208-1.584a1.789 1.789 0 00-.374.156c-1.107-1.04-2.838-1.98-4.459-.956-1.798 1.143-3.456 3.621-2.776 7.016-1.778-.29-3.772.92-5.646 3.7-1.876 2.789-9.594 12.075-30.039 14.593-3.556.438-6.957.664-10.093.823a41.331 41.331 0 00-4.788.231c-8.239.398-14.789.98-18.856 5.377-.079.081-7.395 8.274-2.702 18.199 2.698 5.722 11.303 11.937 23.805 12.094l.001-.002c9.924.123 20.584-3.71 30.824-11.077 21.087-15.172 30.717-31.286 29.865-37.496 1.581-1.167 3.322-2.85 3.189-4.528zm-7.444-6.329c.583-.167 1.558.29 2.385 1.107 1.028 1.029 1.553 2.336 1.299 3.25-.294 1.051-1.222 2.165-2.152 3.06-.459-1.196-1.352-2.028-2.438-2.503.023-2.679.424-4.781.906-4.914zM32.3 81.236c-11.18-.142-19.6-5.65-22.144-11.022-4.145-8.774 2.129-15.85 2.39-16.141 1.928-2.084 4.527-3.19 7.78-3.835-4.74 2.662-5.842 6.141-5.91 6.379a.933.933 0 00.63 1.153.936.936 0 001.161-.629c.092-.3 2.15-6.543 13.731-7.834.651-.03 1.291-.065 1.976-.095 3.948-.179 8.428-.389 13.226-.98 21.229-2.614 29.37-12.452 31.361-15.404 1.29-1.911 2.55-2.96 3.552-2.945.565.004 1.127.373 1.668 1.085l.784 1.041.287-.418.449-.662c.215-.321.533-.576.919-.751a3.234 3.234 0 011.417-.29c.124.003.251.023.377.034.704.08 1.396.356 1.919.843.435.404.73.954.812 1.659.013.094.034.176.036.275l.027 1.003 1.001-.099c.169-.017.323-.017.461 0a.992.992 0 01.487.211c.155.125.285.292.367.546.111.366.136.837.116 1.356-.231 5.747-9.023 20.296-29.17 34.794-9.917 7.134-20.188 10.843-29.71 10.728v-.002zm52.075-58.588a.923.923 0 01.507-.143c.638.01 1.345.586 1.767.994-.528 1.251-.689 2.994-.714 4.609-1.166-.089-2.302.177-3.172.757-.041-.092-.091-.168-.12-.269-.993-2.943.246-5.003 1.732-5.948zm7.859 10.074a2.649 2.649 0 00-.517-.472c.772-.77 1.566-1.692 2.075-2.708.312.202.485.405.502.607.052.646-.885 1.645-2.06 2.573z"/><path d="M24.597 69.115a1.106 1.106 0 002.21.029 1.105 1.105 0 10-2.21-.029zM18.958 74.554a1.107 1.107 0 10-.028 2.214 1.107 1.107 0 00.028-2.214zM32.834 61.627a1.108 1.108 0 00-1.115 1.097c-.01.611.479 1.11 1.091 1.118a1.11 1.11 0 001.124-1.092 1.116 1.116 0 00-1.1-1.123zM34.629 71.453a1.107 1.107 0 10.026-2.214 1.107 1.107 0 00-.026 2.214zM37.607 76.999a1.105 1.105 0 00-1.119 1.09 1.113 1.113 0 001.093 1.123 1.108 1.108 0 001.12-1.097 1.1 1.1 0 00-1.094-1.116zM48.124 73.806a1.102 1.102 0 00-1.117 1.09 1.1 1.1 0 001.092 1.122 1.1 1.1 0 001.119-1.093 1.103 1.103 0 00-1.094-1.119z"/><circle cx="56.17" cy="71.91" r="1.11"/><path d="M27.21 77.07a1.107 1.107 0 10-.026 2.214 1.107 1.107 0 00.026-2.214zM42.194 67.389a1.105 1.105 0 001.091 1.121 1.112 1.112 0 001.124-1.095 1.113 1.113 0 00-1.098-1.122 1.106 1.106 0 00-1.117 1.096zM42.279 60.115a1.102 1.102 0 001.119-1.097 1.108 1.108 0 00-1.089-1.122 1.11 1.11 0 00-.03 2.219zM53.113 64.097a1.108 1.108 0 002.216.024 1.108 1.108 0 10-2.216-.024zM21.628 59.611c.029-.045 3.018-4.896 14.615-4.126a.94.94 0 00.994-.871.933.933 0 00-.871-.995c-12.681-.825-16.204 4.805-16.347 5.046a.933.933 0 101.609.946zM44.552 55.445h.048c.362-.014 8.887-.39 14.309-3.506a.936.936 0 00.35-1.274.939.939 0 00-1.276-.345c-5.022 2.885-13.371 3.254-13.456 3.254a.94.94 0 00-.897.976.93.93 0 00.922.895zM63.506 49.91c.124 0 .251-.024.377-.075 12.707-5.42 17.978-14.861 18.197-15.26a.934.934 0 00-.372-1.268.94.94 0 00-1.267.372c-.051.092-5.21 9.283-17.293 14.438a.937.937 0 00-.492 1.228.948.948 0 00.85.565z"/><path d="M88.087 37.149a.937.937 0 00-.475-1.234.937.937 0 00-1.235.475c-4.956 11.185-21.201 29.988-40.33 34.822-19.053 4.816-23.828.636-23.941.534a.933.933 0 00-1.347 1.29c.133.144 2.257 2.259 9.277 2.345 3.853.051 9.184-.516 16.47-2.358 19.95-5.044 36.325-24.014 41.581-35.874zM19.99 65.192c-.026-.514-.474-.896-.984-.881a.933.933 0 00-.881.982c.076 1.385-.326 2.51-1.114 3.088-.69.509-1.646.572-2.701.182-1.093-.408-1.582-1.641-1.778-2.34-.448-1.634-.213-3.412.294-4.052.229-.285.459-.41.62-.445.141.005.386.152.66.55.861 1.267 2.039.725 2.544.494.477-.215.564-.225.695-.15a.934.934 0 10.98-1.589c-1.009-.622-1.911-.206-2.449.04a4.704 4.704 0 01-.259.114c-.733-1.06-1.547-1.305-2.1-1.325-.574-.012-1.37.166-2.152 1.148-.95 1.194-1.215 3.6-.628 5.714.495 1.799 1.534 3.074 2.921 3.592.635.237 1.272.36 1.881.366.955.012 1.847-.256 2.58-.795 1.303-.956 1.982-2.668 1.871-4.693z"/></svg>