<svg height="100" width="100" xmlns="http://www.w3.org/2000/svg" viewBox="0 0 512 512"><defs><style>.cls-1{fill:none;stroke:#000;stroke-linecap:round;stroke-linejoin:round;stroke-width:20px}</style></defs><path class="cls-1" d="M111.7 143C89.25 175.12 73.22 213.1 71 265.28c-6 141 85.38 193.16 185.66 193.16s191.66-52.13 185.65-193.16C440.07 213.1 424 175.12 401.6 143"/><path class="cls-1" d="M371.56 323.06a404.67 404.67 0 002.27-57.78c-2.38-88.47-29.83-136.14-59.56-183.82M199 81.46c-29.76 47.68-57.18 95.35-59.56 183.82-3.8 141 53.89 193.16 117.19 193.16 45.56 0 88.22-27 107.13-94.75"/><path class="cls-1" d="M211.75 265.28c-1.45 141 20.64 193.16 44.9 193.16 24.25 0 46.35-52.14 44.89-193.16-1.16-113.18-18-159.59-32.39-224.69M214.35 202.64c-.58 7.37-1.06 15.07-1.46 23.16M244.15 40.59c-8.86 40.14-18.67 73.18-25.16 119.16M256.65 458.44v42.07M217.57 491.89l9.97-33.94M194.21 454.66l-12.84 19.47M295.72 491.89l-9.97-33.94M319.08 454.66l12.85 19.47"/><path class="cls-1" d="M256.65 25.75c77.76 100.53 234.63 129.63 243 261.92 7.87 124.68-111.73 170.77-243 170.77S5.79 412.35 13.67 287.67C22 155.38 178.89 126.28 256.65 25.75z"/></svg>