<svg height="100" width="100" xmlns="http://www.w3.org/2000/svg" viewBox="0 0 1000 1000"><path d="M917.424 534.604c-32.947-56.817-103.314-90.398-158.183-102.878-25.07-5.703-52.412-8.594-81.265-8.594-19.264 0-39.776 1.29-60.967 3.833-26.693 3.203-49.045 13.392-67.831 26.025-13.29-15.732-28.976-28.569-47.753-39.303-2.463-1.408-5.03-2.849-7.668-4.33-20.696-11.619-46.453-26.079-56.952-45.167-13.794-25.082-22.217-48.92-27.276-77.179l-.124-7.224-.929-.186c-2.201-21.667 2.324-44.874 2.374-45.125l4.183-19.185-17.613 7.898c-.433.135-2.292.659-5.042.659a23.97 23.97 0 01-6.585-.949c-3.553-1.015-4.331-2.039-7.604-6.348-2.16-2.843-4.847-6.381-9.072-10.607-3.84-3.839-8.65-5.869-13.911-5.869-11.205 0-21.237 9.53-25.801 14.628l-36.89 10.247 31.946 51.468c-2.444 10.811-11.822 44.304-37.974 67.044-16.58 14.417-37.517 25.133-57.764 35.496-11.583 5.929-23.561 12.059-34.755 18.879-38.862 23.673-69.585 64.108-91.315 120.182-18.424 47.543-13.611 97.263 14.72 151.983 1.73 4.693 11.243 28.387 35.616 54.553 24.31 26.098 68.826 59.909 142.847 72.783l.439.066c.547.07 13.646 1.722 34.313 1.723h.013c32.885 0 82.216-4.156 130.486-23.945 30.217-12.389 55.934-29.193 77.038-50.223a244.569 244.569 0 005.105 5.55c18.504 19.409 54.742 53.84 89.543 66.35 12.57 4.52 25.681 5.179 38.359 5.816 4.758.239 9.251.466 13.643.888 9.466.909 18.7 1.366 27.717 1.365 48.665 0 90.939-13.29 128.574-40.308 39.6-28.431 65.069-72.604 79.462-104.655l-.012-.005c3.506-6.608 6.296-13.2 8.267-19.659 11.425-37.436 7.603-72.998-11.359-105.697zm-298.031-87.783c20.403-2.448 40.113-3.69 58.584-3.69 27.362 0 53.212 2.724 76.829 8.096 48.438 11.018 115.56 42.093 145.316 93.41 16.062 27.698 19.27 57.921 9.533 89.829-7.466 24.467-29.203 51.662-58.219 72.867-6.93 3.494-72.34 35.39-149.385 35.39-56.822 0-106.084-17.159-146.418-51.001-17.065-14.319-29.841-29.144-39.056-45.32-10.041-17.625-16.093-37.186-17.503-56.568-.58-7.974-.75-15.386-.527-22.334l.004-.029-.003-.001c.609-18.955 4.227-34.342 11.07-47.403a80.173 80.173 0 0113.899-19.036c32.959-33.49 62.527-50.208 95.876-54.21zm-135.426-20.027c2.591 1.455 5.113 2.871 7.533 4.254 16.452 9.405 30.091 20.388 41.684 33.871-8.88 7.28-16.819 14.866-23.92 22.081a101.299 101.299 0 00-3.32 3.562c-7.763-16.97-17.293-32.249-28.582-44.373-11.91-12.792-22.673-28.265-31.876-43.571 12.293 9.471 26.192 17.278 38.481 24.176zm-67.242 297.309c-4.456 23.169-8.922 38.925-11.684 47.579-16.971 3.571-33.415 5.574-48.454 6.581.809-10.189 2.382-25.916 5.217-41.481 3.005-16.501 9.31-56.65 15.985-99.157 4.226-26.904 8.594-54.726 12.129-76.524 5.782-35.656 3.78-69.772 1.845-102.764-1.169-19.924-2.273-38.744-1.72-57.535.932-31.694.705-67.71.4-90.399 1.719 30.763 6.646 87.574 20.529 133.497 19.068 63.07 23.533 97.584 19.11 147.72-1.255 14.229-2.273 27.814-3.258 40.952-2.571 34.303-4.791 63.93-10.099 91.531zm-93.141-487.024l17.302-4.806 2.026-2.58c3.625-4.614 9.562-9.313 12.067-9.603 3.262 3.262 5.398 6.075 7.283 8.558 3.972 5.229 8.079 10.637 18.037 13.482a44.476 44.476 0 008.96 1.603c-.925 7.975-1.723 18.741-1.24 29.966-6.125-2.646-13.245-6.602-18.901-12.258-5.421-5.42-12.114-7.725-18.845-6.491-4.414.809-8.385 3.094-11.852 6.033l-14.837-23.904zm-60.507 531.857c-32.311-10.09-56.645-24.479-74.509-38.689-17.297-48.536-14.123-74.025-7.878-123.892a3055.47 3055.47 0 002.297-18.675c7.041-59.143 37.184-98.571 99.531-168.52 49.982-56.078 60.057-111.931 62.052-134.509 2.124-3.39 4.51-6.434 6.484-8.258-3.109 24.181-13.676 92.467-38.201 135.677-25.505 44.938-59.609 115.624-61.299 210.247-1.072 60.061 3.17 112.766 11.523 146.619zM121.303 525.247c20.104-51.876 48.053-88.997 83.071-110.329 7.977-4.859 16.275-9.296 24.932-13.773-7.899 7.571-15.248 14.715-21.322 20.789-29.796 29.796-62.653 67.564-80.427 121.759-6.936 21.149-10.508 44.287-12.301 64.399-6.418-28.922-4.352-56.009 6.047-82.845zm14.729 137.54l-.247-.729-.355-.683c-.575-1.104-1.126-2.202-1.681-3.3-.36-11.06-1.287-65.159 12.812-108.15 16.463-50.199 47.438-85.722 75.565-113.85 19.805-19.805 53.392-51.195 75.219-71.423-7.629 13.332-17.351 27.278-29.759 41.199-59.672 66.95-96.48 112.437-104.459 179.463-.778 6.536-1.55 12.696-2.283 18.554-4.716 37.668-8.033 64.213-1.13 97.981-17.438-21.37-23.621-38.885-23.682-39.062zM330.59 779.129c-17.963-.001-29.933-1.342-31.573-1.537a299.064 299.064 0 01-13.476-2.682c-7.949-24.515-15.357-75.681-13.99-152.236 1.608-90.063 34.269-157.694 58.695-200.732 24.155-42.558 35.361-104.94 39.607-135.05a90.07 90.07 0 002.318 1.312l-2.122.052c.015.612 1.477 61.808.001 111.957-.579 19.672.603 39.814 1.746 59.294 1.872 31.912 3.808 64.909-1.622 98.392-3.543 21.849-7.916 49.694-12.145 76.623-6.655 42.383-12.942 82.415-15.904 98.676-3.239 17.786-4.894 35.413-5.67 45.887-1.991.029-3.946.045-5.854.045h-.011zm96.99-13.095c2.606-9.438 5.698-22.105 8.785-38.154 5.526-28.733 7.787-58.893 10.404-93.814.98-13.073 1.993-26.591 3.237-40.689 4.626-52.438-.207-90.165-19.888-155.266-3.597-11.896-6.567-24.688-9.023-37.607 11.167 20.036 25.281 41.755 41.63 59.315 12.054 12.948 21.989 30.485 29.67 50.069-.162.301-.333.595-.492.897-8.155 15.563-12.501 33.43-13.306 55.031-3.986 27.079 1.062 57.934 14.678 89.367 2.485 5.736 5.254 11.454 8.247 17.113-10.314 35.054-25.882 67.687-30.269 76.585-14.297 7.263-29.034 12.863-43.673 17.153zm74.288-36.018c4.263-10.046 8.971-21.943 13.342-34.72a268.733 268.733 0 0010.169 14.253 197.066 197.066 0 01-23.511 20.467zm327.535 18.36c-34.121 24.495-72.62 36.545-117.109 36.543-8.318 0-16.856-.422-25.604-1.263-4.845-.466-9.78-.714-14.553-.954-11.736-.59-22.821-1.147-32.597-4.662-27.868-10.018-57.91-37.045-76.229-55.562 39.82 26.718 86.368 40.244 138.74 40.244 68.067 0 126.33-22.834 149.123-33.12-6.68 6.795-13.929 13.144-21.771 18.774z"/><path d="M538.013 643.979c8.362 15.2 19.756 28.571 35.855 42.078 35.719 29.971 79.17 45.167 129.146 45.167 69.514 0 126.416-29.474 128.804-30.729l.638-.335.583-.423c26.607-19.298 46.756-44.793 53.897-68.199 9.338-30.603 6.209-59.681-9.3-86.427-26.771-46.166-83.813-73.421-128.271-83.534-20.272-4.611-42.371-6.949-65.684-6.949-15.545 0-32.093 1.04-49.184 3.091-22.689 2.723-43.21 10.505-60.992 23.129-16.762 11.9-30.386 27.884-39.398 46.224-18.113 36.856-16.69 79.466 3.906 116.907zm14.044-108.083c15.977-32.509 46.894-53.765 84.824-58.317 16.304-1.957 32.05-2.949 46.801-2.949 21.822 0 42.429 2.17 61.248 6.451 38.504 8.758 91.831 33.411 115.405 74.064 12.609 21.746 15.123 45.484 7.473 70.558-6.886 22.568-28.098 44.345-45.892 57.395-6.121 3.074-57.927 28.128-118.901 28.128-45.146 0-84.272-13.622-116.291-40.488-14.146-11.867-24.055-23.433-31.188-36.396-17.407-31.648-18.675-67.529-3.479-98.446z"/><path d="M609.401 662.081c26.215 21.993 58.079 33.146 94.708 33.146 50.699 0 92.228-21.514 93.971-22.43l.637-.335.583-.423c19.619-14.229 34.502-33.113 39.811-50.514 6.955-22.792 4.617-44.461-6.947-64.404-19.711-33.992-61.525-54.018-94.085-61.424-14.787-3.364-30.896-5.069-47.875-5.069-11.295 0-23.313.755-35.718 2.244-34.245 4.109-61.455 22.916-74.651 51.599-18.141 39.423-5.981 87.785 29.566 117.61zM598.003 552.83c10.375-22.549 31.28-36.79 58.865-40.101 11.618-1.395 22.834-2.102 33.335-2.102 15.489 0 30.104 1.538 43.439 4.571 27.15 6.176 64.713 23.488 81.219 51.955 8.665 14.942 10.388 31.271 5.12 48.534-4.729 15.497-19.4 30.567-31.795 39.701-5.082 2.52-41.575 19.837-84.077 19.837-31.799 0-59.338-9.578-81.853-28.468-28.662-24.045-38.636-62.67-24.253-93.927z"/><path d="M638.379 642.526c18.464 15.489 40.88 23.344 66.624 23.344 35.349 0 64.346-15.021 65.563-15.661l.637-.335.583-.422c13.919-10.095 24.507-23.588 28.323-36.096 4.94-16.19 3.201-32.25-5.028-46.442-13.954-24.064-43.35-38.194-66.207-43.394-10.316-2.347-21.538-3.536-33.354-3.536-7.828 0-16.15.522-24.735 1.553-24.101 2.892-43.344 16.511-52.796 37.365-12.862 28.376-4.477 62.764 20.39 83.624zm-2.174-75.368c6.592-14.545 19.719-23.694 36.962-25.764 7.798-.936 15.317-1.41 22.353-1.41 10.326 0 20.056 1.022 28.919 3.038 17.892 4.07 42.598 15.396 53.341 33.924 5.524 9.527 6.571 19.527 3.201 30.574-2.972 9.737-12.313 19.341-20.303 25.275-4.049 1.98-27.976 13.074-55.675 13.074-20.915 0-39.006-6.28-53.771-18.666-18.02-15.116-24.2-39.807-15.027-60.045z"/><path d="M667.34 622.997c10.719 8.986 23.692 13.543 38.558 13.543 20.012 0 36.486-8.534 37.178-8.897l.639-.335.583-.423c3.949-2.865 13.496-10.713 16.845-21.688 3.026-9.916 1.95-19.771-3.11-28.499-8.202-14.146-25.19-22.385-38.353-25.379-5.849-1.33-12.188-2.005-18.846-2.005-4.366 0-8.998.29-13.765.863-14.618 1.755-26.29 9.988-32.024 22.591-7.742 17.015-2.686 37.67 12.295 50.229zm5.909-41.945c2.815-6.188 8.569-10.101 16.204-11.017 3.979-.479 7.808-.721 11.38-.721 5.166 0 10.014.507 14.409 1.507 9.324 2.121 20.821 7.863 25.487 15.909 2.265 3.906 2.685 8.037 1.283 12.629-1 3.276-4.501 7.569-8.819 10.859-2.721 1.287-14.205 6.321-27.296 6.321-10.039 0-18.688-2.984-25.709-8.869-9.475-7.942-10.239-19.366-6.939-26.618z"/></svg>