<svg height="100" width="100" xmlns="http://www.w3.org/2000/svg" data-name="Layer 1"><path d="M42.766 84.86c-7.216 4.898-11.479-.294-14.245-7.027-2.146-5.222-3.72-10.586-5.909-15.808-2.158-5.15-3.692-10.751-2.663-16.31.507-2.737.639-5.143 3.108-6.834 4.064-2.782 11.533-2.41 14.453 1.834a1.52 1.52 0 002.741-.358c1.084-4.356 5.71-5.541 9.7-5.695 4.748-.182 8.122.787 9.96 5.558a1.522 1.522 0 002.742.358c2.695-4.755 9.654-7.404 14.185-3.517 3.984 3.418 4.329 10.693 2.823 15.33-1.969 6.064-3.987 12.134-6.32 18.07-1.645 4.189-7.53 22.842-14.436 13.447a1.52 1.52 0 00-2.356-.304c-3.167 3.537-7.812 3.203-11.818 1.37-1.743-.798-3.269 1.786-1.514 2.59 5.278 2.416 11.312 2.786 15.454-1.839l-2.356-.303c4.285 5.83 11.475 4.365 14.424-1.687a211.026 211.026 0 0012.15-31.189c1.8-5.964.266-15.146-5.323-18.701-6.047-3.846-14.161-.679-17.504 5.22l2.742.357c-1.087-2.821-1.612-4.898-4.5-6.368-2.638-1.342-5.468-1.419-8.352-1.392-5.462.052-11.188 2.249-12.594 7.897l2.742-.358c-4.238-6.161-16.014-7.27-20.985-.963-3.717 4.718-2.75 13.602-1.334 18.844 1.315 4.868 3.878 9.142 5.361 13.923 1.313 4.23 2.484 8.5 4.727 12.366 3.927 6.77 9.818 8.555 16.41 4.079 1.59-1.079.09-3.68-1.513-2.59z"/><path d="M44.775 85.618a61.903 61.903 0 00-2.562-6.298c-.777-1.763-3.362-.238-2.59 1.514a54.735 54.735 0 012.26 5.581c.578 1.835 3.475 1.052 2.892-.797zM41.083 44.836c-.145-.958-.545-1.85-.675-2.82a13.337 13.337 0 00-.222-1.437 4.3 4.3 0 01-.281-.945 1.5 1.5 0 00-3 0 24.662 24.662 0 00.528 2.73c.125 1.133.589 2.16.757 3.27a1.512 1.512 0 001.845 1.047 1.536 1.536 0 001.048-1.845zM28.239 35.922c.923-1.636 3.357-2.958 5.062-3.467a9.223 9.223 0 019.415 1.937c1.412 1.314 3.538-.803 2.121-2.121a11.722 11.722 0 00-11.634-2.91c-2.8.693-6.09 2.451-7.555 5.047a1.501 1.501 0 002.59 1.514zM54.837 33.225c1.909-2.094 4.25-2.575 6.977-2.227 2.944.376 4.022 1.776 5.735 3.894 1.215 1.501 3.326-.633 2.122-2.121-2.196-2.714-4.108-4.535-7.857-4.773-3.682-.234-6.54.3-9.098 3.106-1.298 1.424.818 3.552 2.121 2.121z"/><path d="M47.943 32.498a19.241 19.241 0 00-.662-5.875 31.031 31.031 0 00-1.961-3.653l-.57-.816q-1.939-3.153.788-4.193c1.424-1.393 4.105-1.864 5.82-2.789a17.21 17.21 0 012.041-1.31c1.668-.564.471-1.941 1.66 1.492.233.67.974 2.104.837 2.71q-.001.732.375-.066a7.614 7.614 0 00-2.018.054c-1.591.199-4.026.787-5.244 1.98a2.541 2.541 0 00-.939 2.606c.07 1.402.722 2.872.707 4.368-.02 1.962-.348 3.851-.334 5.825a1.5 1.5 0 003 0c-.014-1.957.283-3.877.334-5.825.041-1.573-.769-4.05.07-5.003 1.785-2.028 5.812.405 7.08-2.19.716-1.464-.551-3.932-.974-5.257-.56-1.751-1.067-4.452-3.277-4.642-1.774-.152-3.395 1.878-4.832 2.668-2.376 1.306-5.191 1.943-7.275 3.779-1.857 1.635-1.95 3.853-1.035 6.081.524 1.276 1.48 2.281 2.103 3.502a14.567 14.567 0 011.306 6.554 1.5 1.5 0 003 0zM58.572 85.505a8.871 8.871 0 00.626-3.57c.104-1.316.332-2.622.412-3.937.117-1.928-2.883-1.921-3 0-.07 1.142-.312 2.285-.417 3.433-.036.404-.07.811-.09 1.221-.014.303-.027.581-.067.885-.016.122-.2.707-.054.454a1.501 1.501 0 002.59 1.514z"/></svg>