<svg height="100" width="100" xmlns="http://www.w3.org/2000/svg"><path d="M82.248 35.718a25.748 25.748 0 00-.094-1.516c-1.167-12.768-11.619-21.686-25.418-21.686-11.382 0-16.305 7.659-20.647 14.416-1.067 1.66-2.074 3.228-3.169 4.701-1.457 1.961-2.948 3.808-4.391 5.594-1.866 2.31-3.795 4.698-5.656 7.343-3.566 5.072-5.154 10.136-5.148 16.42.016 16.584 13.908 26.494 27.329 26.494 4.748 0 9.415-1.208 13.497-3.492 3.107-1.739 6.186-4.208 8.903-7.141 9.482-10.237 15.289-26.383 14.794-41.133zM69.822 68.161c-2.992-.163-4.422-.686-4.458-.699a1.35 1.35 0 00-1.005 2.506c.156.063 1.341.508 3.724.764a42.26 42.26 0 01-3.125 3.808c-2.479 2.675-5.269 4.917-8.069 6.484-3.576 2.001-7.669 3.059-11.837 3.059-11.751 0-23.915-8.639-23.928-23.097-.005-5.539 1.392-9.999 4.529-14.461a98.866 98.866 0 013.472-4.607c1.704 1.493 4.936 4.059 8.658 5.671a1.35 1.35 0 001.073-2.477c-3.435-1.488-6.497-3.95-8.04-5.307l.356-.442c1.464-1.812 2.978-3.687 4.476-5.703 1.163-1.566 2.249-3.256 3.299-4.89 2.394-3.725 4.714-7.332 7.986-9.772.705.934 2.146 2.387 4.946 3.799a1.348 1.348 0 001.814-.597 1.35 1.35 0 00-.598-1.813c-2.183-1.1-3.311-2.173-3.851-2.82 2.075-1.04 4.513-1.649 7.49-1.649 11.972 0 21.032 7.646 22.033 18.597.04.433.067.872.082 1.318.368 10.939-3.132 23.064-9.027 32.328zm-18.235 3.296a1.35 1.35 0 01-1.622 1.006c-7.641-1.787-11.667-4.995-11.834-5.13a1.349 1.349 0 011.696-2.101c.037.03 3.763 2.967 10.754 4.603a1.348 1.348 0 011.006 1.622zm21.227-30.546a1.349 1.349 0 01-1.248 1.445c-.491.036-.97.053-1.436.053-5.519 0-9.144-2.338-9.308-2.446a1.35 1.35 0 011.48-2.259c.051.033 3.713 2.348 9.066 1.959a1.35 1.35 0 011.446 1.248zM37.15 63.25c.26.24.4.59.4.95a1.347 1.347 0 01-1.35 1.35 1.347 1.347 0 01-1.35-1.35c0-.36.14-.7.4-.95.5-.51 1.4-.51 1.9 0zm19.16-41.18c.25.25.39.6.39.95 0 .36-.14.7-.39.96-.26.25-.6.39-.95.39a1.345 1.345 0 01-.96-2.3c.5-.5 1.41-.5 1.91 0z"/></svg>