<svg height="100" width="100" xmlns="http://www.w3.org/2000/svg" viewBox="0 0 6.83 6.83" fill-rule="evenodd" clip-rule="evenodd" shape-rendering="geometricPrecision" text-rendering="geometricPrecision" image-rendering="optimizeQuality"><defs><style>.fil0{fill:#000;fill-rule:nonzero}</style></defs><path class="fil0" d="M5.077 2.502c-.196.912-1.016.649-1.081.626a.074.074 0 01-.053-.084c.002-.006.162-.92 1.078-.63.04.009.065.048.056.088z"/><path class="fil0" d="M4.547 2.836a.074.074 0 00-.073-.128l-.494.285a.074.074 0 00.073.128l.494-.285zM2.477 1.808c-.073.026-1.122.37-1.372-.794A.074.074 0 011.16.926c1.164-.37 1.367.791 1.368.798a.074.074 0 01-.052.084z"/><path class="fil0" d="M1.854 1.304a.074.074 0 00-.074.128l.64.37a.074.074 0 00.073-.129l-.64-.369zM4.345 1.868c-.161.747-.83.536-.89.515a.074.074 0 01-.052-.084c.001-.004.132-.757.885-.519.04.009.065.048.057.088z"/><path class="fil0" d="M3.91 2.146a.074.074 0 00-.073-.128l-.398.23a.074.074 0 00.074.128l.398-.23zM2.754 3.596c-.064.022-.87.281-1.064-.617a.074.074 0 01.056-.088c.902-.286 1.06.614 1.06.62a.074.074 0 01-.052.085z"/><path class="fil0" d="M2.285 3.18a.074.074 0 00-.074.128l.486.28a.074.074 0 00.074-.127l-.486-.28z"/><path d="M3.174 4.295h-2.07a.111.111 0 010-.222h2.063a.786.786 0 00-.464-.442.11.11 0 01.062-.213 1.02 1.02 0 01.453.313 3.938 3.938 0 00-.127-.9c-.111-.404-.316-.782-.69-.998a.11.11 0 01.11-.192c.315.181.526.457.667.774a1.006 1.006 0 01.243-.199.11.11 0 01.11.192.734.734 0 00-.26.25l.034.115c.068.245.106.504.124.763l.027-.046c.126-.211.295-.382.496-.524a.11.11 0 01.128.182 1.493 1.493 0 00-.434.456 1.606 1.606 0 00-.182.47h2.258a.111.111 0 010 .221h-1.95a.11.11 0 01.044.167l-.167.229c.026.01.054.014.083.008a.111.111 0 01.043.218.353.353 0 01-.156-.004c.01.014.022.028.035.04a.649.649 0 01.34.028.946.946 0 01.176.08c.024.012.05.027.077.035.032.009.06.007.092-.003a.628.628 0 00.162-.085.11.11 0 01.124.183.893.893 0 01-.24.124.353.353 0 01-.09.015.613.613 0 00.106.107c.077.06.166.104.261.134a.111.111 0 01-.066.212 1.103 1.103 0 01-.176-.072c.016.033.035.066.052.096a.11.11 0 01-.19.112c-.062-.105-.131-.256-.099-.382a.825.825 0 01-.19-.318.61.61 0 00-.152-.05.443.443 0 01.023.224.675.675 0 01-.074.225.11.11 0 01-.193-.108.438.438 0 00.046-.133c.014-.082-.003-.156-.073-.207a.337.337 0 01-.091-.068.293.293 0 01-.047.272.383.383 0 01-.005.307.691.691 0 01-.115.189.11.11 0 01-.166-.147.418.418 0 00.092-.183c-.033.02-.067.036-.102.052a.111.111 0 01-.092-.202.87.87 0 00.104-.055.445.445 0 00.07-.052c.043-.041.06-.086.033-.142a.248.248 0 00-.07-.082.117.117 0 01-.037-.04h-.006l-.004-.03-.001-.007-.005-.036-.008-.058a.52.52 0 01-.323.235.469.469 0 00-.013.093.56.56 0 00.117.343.11.11 0 01-.18.13.772.772 0 01-.157-.498.52.52 0 00-.184.211 1.26 1.26 0 00-.103.261 1.309 1.309 0 00-.033.144.11.11 0 01-.219-.035 1.496 1.496 0 01.077-.284.319.319 0 00-.08.046.248.248 0 00-.077.115.208.208 0 01-.057.092.111.111 0 01-.156-.012.111.111 0 01.002-.147l.004-.014a.46.46 0 01.131-.199.684.684 0 01.36-.14.957.957 0 01.033-.049.588.588 0 01.42-.257.579.579 0 00.118-.037 1.118 1.118 0 01-.37-.096.111.111 0 01-.059-.145.111.111 0 01.145-.058c.126.053.297.105.43.05a.34.34 0 00.178-.195 1.101 1.101 0 00.05-.147zm.23 0l-.01.034-.003.014a1.187 1.187 0 00.097.193l.15-.205a.11.11 0 01.044-.036h-.278z"/><path fill="none" d="M0 0h6.83v6.83H0z"/></svg>