<svg height="100" width="100" xmlns="http://www.w3.org/2000/svg"><path d="M70.274 63.112c2.253-4.041 3.445-9.66 3.445-16.25 0-9.288-2.384-19.521-6.377-27.373-4.577-9-10.736-13.957-17.342-13.957S37.235 10.489 32.658 19.49c-3.993 7.852-6.377 18.084-6.377 27.373 0 6.59 1.191 12.209 3.445 16.25 2.605 4.671 6.602 7.14 11.557 7.14 1.776 0 3.154-.355 4.135-.733l-1.096 18.083a.997.997 0 00.056.396 5.422 5.422 0 00-.058.789c0 3.132 2.548 5.681 5.681 5.681s5.681-2.548 5.681-5.681c0-.26-.02-.523-.058-.789.044-.125.064-.26.056-.396L54.583 69.52c.981.378 2.359.733 4.135.733 4.955-.001 8.951-2.47 11.556-7.141zM50 92.468a3.685 3.685 0 01-3.681-3.681c0-.286.038-.583.112-.884a.998.998 0 00-.083-.7l2.336-38.538a.986.986 0 00.033-.546L50 26.962l1.282 21.158a.995.995 0 00.033.546l2.336 38.538c-.11.213-.141.461-.083.698.076.306.112.596.112.885A3.684 3.684 0 0150 92.468zm4.226-28.833L64.8 50.534a1 1 0 00-1.556-1.256l-9.197 11.395-.73-12.048 10.526-13.042a1 1 0 00-1.556-1.256l-9.149 11.336-.816-13.465 10.777-13.353a1 1 0 00-1.556-1.256l-9.4 11.647L51 10.373a1 1 0 00-1.998-.002l-1.143 18.863-9.4-11.647a1 1 0 00-1.556 1.256L47.68 32.196l-.816 13.465-9.149-11.336a1 1 0 00-1.556 1.256l10.526 13.042-.73 12.048-9.197-11.395a1 1 0 00-1.556 1.256l10.574 13.101-.22 3.628c-.624.348-2.07.99-4.271.99-4.247 0-7.547-2.057-9.81-6.114-2.088-3.744-3.192-9.026-3.192-15.276 0-8.988 2.303-18.882 6.16-26.466C38.659 12.101 44.185 7.532 50 7.532s11.341 4.569 15.56 12.865c3.857 7.584 6.16 17.478 6.16 26.466 0 6.25-1.104 11.532-3.191 15.276-2.263 4.057-5.564 6.114-9.81 6.114-2.199 0-3.646-.641-4.272-.989l-.221-3.629z"/></svg>