<svg height="100" width="100" xmlns="http://www.w3.org/2000/svg" viewBox="0 0 12.7 12.7"><path d="M4.449.53a1.047 1.047 0 00-1.006 1.012.512.512 0 00.009.106 2.933 2.933 0 01.04.708.41.41 0 01-.287.365 1.447 1.447 0 00-.435 2.537.103.103 0 01-.035.182.938.938 0 00-.617 1.257 2.883 2.883 0 001.68 1.498.257.257 0 01.14.372h-.002a1.039 1.039 0 00-.074.887 1.654 1.654 0 00.923.89 4.428 4.428 0 001.032.231.718.718 0 01.579.412 2.044 2.044 0 002.576 1.052.82.82 0 00.519-.631 6.573 6.573 0 01.783-2.188 1.948 1.948 0 00-.746-2.917.103.103 0 01-.044-.146 2.61 2.61 0 00.28-2.006.82.82 0 00-.33-.467 1.505 1.505 0 00-.452-.209.103.103 0 01-.068-.058 2.393 2.393 0 01-.193-.848.82.82 0 00-.725-.78 1.667 1.667 0 00-.72.075.41.41 0 01-.497-.2 1.072 1.072 0 01-.11-.35.512.512 0 00-.546-.441A3.71 3.71 0 015.35.85a.41.41 0 01-.203-.088A1.047 1.047 0 004.448.53zm.005.204a.843.843 0 01.563.187.615.615 0 00.305.131 3.915 3.915 0 00.815.024.308.308 0 01.328.266 1.277 1.277 0 00.131.416.615.615 0 00.743.3 1.463 1.463 0 01.632-.067.615.615 0 01.545.586 2.597 2.597 0 00.209.92.308.308 0 00.201.176 1.301 1.301 0 01.391.18.615.615 0 01.249.35 2.405 2.405 0 01-.26 1.85.308.308 0 00.134.436 1.744 1.744 0 01.662 2.62 6.777 6.777 0 00-.814 2.265.615.615 0 01-.369.466 30.55 30.55 0 00-3.647-9.027.03.03 0 00-.053.03 56.07 56.07 0 013.557 9.046h.004a1.84 1.84 0 01-2.196-.988.923.923 0 00-.744-.529 4.224 4.224 0 01-.981-.22 1.45 1.45 0 01-.804-.775.835.835 0 01.06-.708A.461.461 0 003.864 8a2.679 2.679 0 01-1.558-1.386.734.734 0 01.485-.979.308.308 0 00.102-.542 1.243 1.243 0 01.374-2.178.615.615 0 00.429-.546 3.137 3.137 0 00-.042-.757.308.308 0 01-.01-.064.843.843 0 01.81-.815z"/><path d="M2.821 4.273a.03.03 0 01.051-.034 2.794 2.794 0 002.676 1.019.03.03 0 01.016.06A2.281 2.281 0 012.82 4.272zM6.705 7.366a3.7 3.7 0 01-3.734-.677.03.03 0 00-.045.041 2.864 2.864 0 003.806.69.03.03 0 00-.027-.054zM6.55 4.151a.03.03 0 00.021.057A1.73 1.73 0 007.9 2.526a.03.03 0 00-.06-.008A2.594 2.594 0 016.55 4.151zM8.989 4.306A2.35 2.35 0 017.335 5.86a.03.03 0 00.01.06 1.666 1.666 0 001.707-1.602.03.03 0 00-.06-.01zM7.375 9.413a.03.03 0 01.036.05 1.814 1.814 0 01-2.744-.323.03.03 0 01.046-.04 2.234 2.234 0 002.662.313zM9.653 7.356a1.8 1.8 0 01-1.278 1.1.03.03 0 00.01.06 1.322 1.322 0 001.33-1.145.03.03 0 00-.06-.015z"/></svg>