<svg height="100" width="100" xmlns="http://www.w3.org/2000/svg" viewBox="0 0 44 64"><g fill="none" stroke="#000" stroke-width="2" stroke-linejoin="round" stroke-miterlimit="10"><path d="M33 53c.064 2.363 1.679 5.065 4 5M11 59c2.321-.065 4.064-2.637 4-5M2 57c2.286.409 4.598-1.672 5-4M28 54c-1.901 1.357-1.333 5.065 0 7M26.695 12.245c1.644-.444 2.821-1.931 2.636-3.63-.193-1.771-1.913-3.064-3.829-3.064h-.25c.009-.125.015-.251.015-.379C25.267 2.868 23.804 1 22 1c-1.804 0-3.267 1.868-3.267 4.172 0 .128.006.254.015.379h-.25c-1.916 0-3.636 1.292-3.829 3.064-.185 1.698.993 3.186 2.636 3.63.648.175 1.156.64 1.32 1.248l.009.033c.081.301.108.621.013.918-.17.532-.58.981-1.121 1.267-.741.393-1.243 1.134-1.243 1.978 0 1.252 1.103 2.276 2.45 2.276v.594c-.599.503-.94 1.266-.775 2.099.217 1.101 1.328 1.858 2.533 1.858h3.019c1.205 0 2.316-.757 2.533-1.858.164-.834-.177-1.597-.775-2.099v-.594c1.347 0 2.45-1.024 2.45-2.276 0-.845-.502-1.586-1.243-1.978-.541-.287-.951-.735-1.121-1.267-.095-.297-.068-.617.013-.918l.009-.033c.163-.608.671-1.073 1.319-1.248z" stroke-linecap="round"/><path d="M33.119 9.523l-.201-.076c.046-.104.09-.21.13-.319.716-1.964.122-4-1.327-4.548-1.272-.481-2.779.345-3.614 1.881.668.542 1.13 1.289 1.224 2.154.185 1.698-.993 3.186-2.636 3.63-.648.175-1.156.64-1.32 1.248l-.009.033c-.081.301-.108.621-.013.918.17.532.58.981 1.121 1.267.741.393 1.243 1.134 1.243 1.978 0 1.252-1.103 2.276-2.45 2.276v.594c.599.503.94 1.266.775 2.099-.187.946-1.035 1.635-2.034 1.811l1.613.61c.968.366 2.096.058 2.613-.814.391-.66.355-1.414.029-2.025l.185-.506c1.083.409 2.287-.128 2.676-1.195a2.093 2.093 0 00-.384-2.064c-.345-.409-.536-.916-.507-1.421.016-.282.138-.547.296-.779l.017-.025c.32-.468.874-.71 1.448-.662 1.459.121 2.867-.789 3.247-2.292.398-1.567-.582-3.191-2.122-3.773zM10.881 9.523l.201-.076a5.315 5.315 0 01-.13-.319c-.716-1.964-.122-4 1.327-4.548 1.272-.481 2.779.345 3.614 1.881-.668.542-1.13 1.289-1.224 2.154-.185 1.698.993 3.186 2.636 3.63.648.175 1.156.64 1.32 1.248l.009.033c.081.301.108.621.013.918-.17.532-.58.981-1.121 1.267-.741.393-1.243 1.134-1.243 1.978 0 1.252 1.103 2.276 2.45 2.276v.594c-.599.503-.94 1.266-.775 2.099.187.946 1.035 1.635 2.034 1.811l-1.613.61c-.968.366-2.096.058-2.613-.814-.391-.66-.355-1.414-.029-2.025l-.185-.506c-1.083.409-2.287-.128-2.676-1.195a2.093 2.093 0 01.384-2.064c.345-.409.536-.916.507-1.421-.016-.282-.138-.547-.296-.779l-.017-.025c-.32-.468-.874-.71-1.448-.662-1.459.121-2.867-.789-3.247-2.292-.398-1.567.582-3.191 2.122-3.773zM22 7v23.93" stroke-linecap="round"/><path d="M26.2 24.52L22 30.93M17.8 24.52l4.2 6.41M43 47.559c0-9.184-10.691-16.628-21-16.628S1 38.376 1 47.559c0 8.488 9.478 8.351 18.7 9.363 1.32.856 2.3 1.747 2.3 2.515 0 0 .003-.937 2.313-2.516C33.529 55.903 43 56.044 43 47.559z"/><path d="M7.726 41.01c1.478-1.666 3.515-2.956 5.874-3.665M5.2 47.424c0-1.117.203-2.194.579-3.207M22 59c0 1.97-1.065 4-3 4" stroke-linecap="round"/></g></svg>