<svg height="100" width="100" xmlns="http://www.w3.org/2000/svg" viewBox="-247 370.9 100 100"><path d="M-152.7 392.3c-3.2-3.2-7.1-4.7-11-4.2-1 .1-1.9-.3-3.5-1.2-1.3-.7-2.7-1.4-4.5-2-4-1.1-9.9-1.1-14.7-1.1h-1.7c-2.1 0-4.1.4-6.1.7-1.2.2-2.3.4-3.3.5h-.4c-6.3 0-13.8 4-14.7 23.1-1.5.7-2.8 1.6-4.1 2.9-.6-.1-1.1-.3-1.7-.3-.1 0-.5-.1-1.1-.1-3.1-.4-5.1-.7-6.4-.8-.7-.1-1.3-.2-2-.2h-.4c-3.4.1-14.8 2.1-17.4 24.8-2.7 23.4 5.9 28.2 11.4 28.9.6.1 2.3.4 9.8 1.2l1 .1c.5.1 1 .1 1.5.1 2.8 0 5.5-.9 7.8-2.8.3-.3.7-.6 1-.9 1.4.3 3.6.7 7 1.4l1 .2c.9.2 1.7.3 2.5.3 2.4 0 4.8-.7 7-2.2 5.3-3.5 9-10.7 11.2-21.6 15.8 0 23.4-.4 29.3-12.2 3.4-2.5 7.4-8.7 8.2-14.6 1-7.7-1.1-15.3-5.7-20zm-46.1-3.2h1.2c8.5.4 10.3 12.5 10.3 22.7 0 1.1 0 2.2-.1 3.3-2.3-3.2-5.3-5-8.5-5.7-.1 0-.5-.1-1.1-.2-6.6-1.4-8.1-1.7-8.7-1.8-1-.2-2-.3-3-.2.6-8.4 2.8-17.4 9.9-18.1zm-7.5 22.3c8.7 1.8 8.1 14.3 6.1 24.5-2 10.1-5.2 16.7-9.1 19.4 2.1-4.1 3.5-9.4 4.3-16 1.7-14.8-2.3-22.9-7.8-26.5 2-1.4 4.1-1.9 6.5-1.4zm-35.7 23.5c2.3-19.5 10.9-21.2 13.6-21.3.2 0 .9.1 1.7.2 1.3.3 2.5 1 3.6 2.2 2 2.2 5.1 7.9 3.5 21.5-1.4 12.4-5.1 17.7-8 20-1.9 1.5-4.1 2.1-6.3 1.9-6.9-.9-9.8-9.6-8.1-24.5zm18.7 25.7l-1.1-.1c-.2 0-.4 0-.6-.1 4.8-4 8.1-11.7 9.3-22.5 1.5-12.5-.8-19.4-3.3-23.2 7.9 1 11.6 10 10 24.1-1.1 9.5-3.5 14.8-5.9 17.7h-.1l-.1.3c-.6.8-1.3 1.4-1.9 1.9-1.8 1.6-4 2.2-6.3 1.9zm34.7-22.3c-2.4 12.2-6.5 17.1-9.5 19.1-2 1.3-4.2 1.8-6.5 1.3l-1.1-.2c-.3-.1-.6-.1-.9-.2 4-3 7.9-9.3 10.3-21.7 2.4-11.9 1.3-19.1-1.2-23.4.4.1.6.1.7.2 7.9 1.6 11 10.9 8.2 24.9zm37.4-26.4c-.7 4.8-4.2 10.4-6.9 12.1l-.5.3-.2.5c-2.8 5.7-5.6 8.3-10.8 9.4 1.8-3 2.8-6.9 3.6-10.7l-3.9-.8c-2 10-4.5 12.2-7.8 12.3-1.9.1-4 .1-6.3.1.6-4.9.5-9-.2-12.5h.2c.5-3.2.8-6.8.8-10.9 0-13.5-3-20.4-6.8-23.8.6-.1 1.2-.1 1.8-.1h5.3v.2c4.3.4 7 3.6 8.3 9.9l3.9-.8c-.8-4-2.1-6.8-3.7-8.7.6.1 1.1.2 1.6.4 1.4.4 2.6 1 3.7 1.6 1.8 1 3.6 1.9 5.9 1.6 2.7-.3 5.4.7 7.7 3 3.7 4 5.3 10.2 4.3 16.9z"/><path d="M-174.2 401.4c.3 2 .4 4.2.6 6.5l4-.2c-.1-2.4-.3-4.7-.6-6.8l-4 .5zM-161.4 405.3c.2 2 .4 4.2.5 6.5l4-.2c-.1-2.4-.3-4.7-.5-6.8l-4 .5zM-162.3 393.3l-3.1 2.6c1.2 1.4 2.2 3.3 2.9 5.7l3.8-1.2c-.8-2.8-2-5.2-3.6-7.1zM-199.3 451l3.2 2.5c1.9-2.4 3.1-4.8 3.7-7.1l-3.9-1c-.5 1.7-1.5 3.6-3 5.6zM-212.1 447.3l-3.9-.7c-.3 1.8-1.2 3.8-2.6 5.9l3.3 2.2c1.7-2.6 2.7-5.1 3.2-7.4z"/></svg>