<svg height="100" width="100" xmlns="http://www.w3.org/2000/svg" data-name="Layer 2"><path d="M89.577 34.216a4.38 4.38 0 01-2.916-4.688 7.059 7.059 0 00-1.078-4.587c-1.717-2.759-2.226-3.335-4.776-4.398-.022-.01-.045-.012-.067-.02-1.138-2.96-1.431-3.439-4.512-5.449a7.06 7.06 0 00-4.56-1.174 4.141 4.141 0 01-2.846-.687 4.155 4.155 0 01-1.778-2.329 7.06 7.06 0 00-2.915-3.702c-3.112-2.031-3.647-2.088-6.898-1.936l-1.76.075c-3.534.138-4.12.24-7.616 2.422a8.836 8.836 0 00-3.507 3.894 5.97 5.97 0 01-2.445 2.753 5.98 5.98 0 01-3.549.988 8.864 8.864 0 00-4.802 1.305 1.402 1.402 0 00-.406.244 11.137 11.137 0 00-4.664 4.68c-.317.529-.693 1.157-1.205 1.94-.51.783-.933 1.38-1.29 1.884-1.417 2.004-1.933 2.874-2.435 6.347a8.844 8.844 0 00.713 5.194 6.513 6.513 0 01-1.009 6.992 8.849 8.849 0 00-2.151 4.782c-.588 4.077-.445 4.653.85 7.94l.643 1.653c1.165 3.032 1.434 3.497 4.542 5.524.13.085.252.15.378.223L5.45 76.844a1.5 1.5 0 00-.523 2.091l4.098 6.586a1.5 1.5 0 002.107.455l7.075-4.727-4.78 6.831a1.5 1.5 0 00.41 2.116l6.497 4.239a1.5 1.5 0 002.102-.478l13.036-21.475c.084.155.168.31.269.471 1.963 3.156 2.424 3.436 5.435 4.67l1.625.673c2.172.912 3.152 1.286 4.773 1.286a27.079 27.079 0 003.154-.262 8.836 8.836 0 004.825-2.048 6.512 6.512 0 017.012-.858 8.84 8.84 0 005.179.823c3.485-.426 4.365-.923 6.4-2.297.51-.346 1.118-.756 1.913-1.25.793-.494 1.43-.857 1.964-1.163 2.132-1.217 2.967-1.787 4.889-4.724a8.84 8.84 0 001.548-5.008 5.967 5.967 0 011.063-3.524 6.31 6.31 0 012.827-2.502 10.413 10.413 0 003.822-3.133c2.365-3.053 2.52-4.12 2.694-7.352.024-.44.05-.931.087-1.486l.046-.664c.225-3.24.178-3.776-1.783-6.927a7.05 7.05 0 00-3.637-2.991zM37.366 64.148l2.817-4.318c2.99-1.138 6.247-.099 9.692 1.017a30.063 30.063 0 006.387 1.566c.713.065 1.416.139 2.11.212l.543.057a8.94 8.94 0 00-2.547 3.215 5.97 5.97 0 01-2.444 2.753c-2.955 1.845-3.075 1.85-6.144 1.97l-1.784.075c-2.698.129-2.697.128-5.119-1.452a4.157 4.157 0 01-1.778-2.329 7.413 7.413 0 00-1.733-2.766zm34.947-8.361a11.63 11.63 0 01-1.21 1.78 1.49 1.49 0 00-.352.203c-3.477 2.781-7.455 2.36-12.064 1.872-.708-.075-1.427-.151-2.154-.217a27.517 27.517 0 01-5.735-1.433c-2.723-.88-5.51-1.778-8.336-1.657l6.676-10.233c2.99-1.136 6.246-.098 9.692 1.017a30.04 30.04 0 006.388 1.566c.79.072 1.598.169 2.415.267a44.636 44.636 0 005.303.42 16.59 16.59 0 003.477-.354 7.898 7.898 0 01-1.482 2.757c-.373.527-.817 1.155-1.353 1.976a60.093 60.093 0 00-1.265 2.036zm5.377-22.738a9.207 9.207 0 00-2.084 4.847 8.835 8.835 0 00.714 5.191 6.187 6.187 0 01.604 2.677c-2.653.946-5.839.581-8.933.21-.846-.102-1.684-.203-2.503-.276a27.51 27.51 0 01-5.734-1.433c-2.723-.881-5.511-1.78-8.336-1.659l8.357-12.809c2.986-1.137 6.245-.098 9.691 1.017a30.04 30.04 0 006.388 1.567 30.2 30.2 0 002.247.113c-.133.186-.269.368-.41.555zM71.744 16.9a4.138 4.138 0 012.845.688c2.415 1.576 2.415 1.576 3.381 4.09l.243.629c.206.532.394 1 .563 1.42 1.015 2.526 1.193 2.982.574 5.776-.041-.001-.08-.008-.123-.006a27.067 27.067 0 01-3.102-.102 27.486 27.486 0 01-5.735-1.434c-2.723-.881-5.511-1.778-8.336-1.657l6.446-9.88a7.452 7.452 0 003.244.477zM55.588 8.32l1.785-.076c2.698-.13 2.697-.127 5.117 1.451a4.155 4.155 0 011.779 2.33 7.419 7.419 0 001.72 2.756l-6.493 9.953c-1.013-2.692-2.989-4.92-4.923-7.09a27.456 27.456 0 01-3.622-4.672 26.914 26.914 0 01-1.34-2.788c2.787-1.735 2.97-1.747 5.977-1.864zM38.45 18.376a8.85 8.85 0 005.041-1.44A8.835 8.835 0 0047 13.04c.111-.21.219-.41.33-.606.31.671.636 1.338.995 1.988a30.08 30.08 0 004.008 5.215c2.453 2.755 4.769 5.357 4.855 8.635L48.86 41.037c-1.013-2.691-2.989-4.919-4.923-7.09a27.456 27.456 0 01-3.623-4.672c-.398-.72-.827-1.446-1.261-2.18-1.565-2.645-3.163-5.373-3.402-8.142a6.135 6.135 0 012.8-.577zm-10.014 8.788c.373-.528.817-1.156 1.353-1.977.536-.822.932-1.481 1.265-2.036a8.09 8.09 0 011.837-2.394 27.46 27.46 0 003.579 7.866c.42.708.834 1.408 1.217 2.103a30.08 30.08 0 004.008 5.215c2.454 2.755 4.77 5.358 4.855 8.636l-6.646 10.188c-1.013-2.692-2.99-4.919-4.924-7.091a27.521 27.521 0 01-3.622-4.671c-.354-.64-.712-1.267-1.066-1.885-2.3-4.012-4.283-7.479-3.154-11.769a9.43 9.43 0 011.298-2.185zm-3.038 30.1l-.653-1.678c-1.125-2.855-1.169-2.966-.671-6.412a5.975 5.975 0 011.535-3.35 8.987 8.987 0 001.893-3.54l.186.325c.347.605.699 1.22 1.044 1.845a30.053 30.053 0 004.008 5.215c2.454 2.755 4.77 5.357 4.855 8.635l-2.745 4.208a6.76 6.76 0 00-2.64-.484c-.204 0-.399.006-.586.01a4.15 4.15 0 01-2.847-.687c-2.414-1.575-2.414-1.575-3.38-4.088zM10.753 82.62l-2.46-3.955 19.68-11.377-5.027 7.186zm9.922 8.454l-3.901-2.545 16.38-23.414a4.009 4.009 0 011.392.609 4.218 4.218 0 01.994.865zm71.329-47.148l-.046.672c-.038.569-.065 1.072-.09 1.524-.15 2.798-.174 3.228-2.07 5.676a7.429 7.429 0 01-2.852 2.317 9.195 9.195 0 00-3.936 3.512 8.84 8.84 0 00-1.548 5.007 5.968 5.968 0 01-1.063 3.525c-1.624 2.482-2.054 2.728-3.865 3.762a58.76 58.76 0 00-2.062 1.22c-.834.519-1.471.95-2.007 1.312-1.73 1.168-2.14 1.445-5.086 1.806a5.995 5.995 0 01-3.634-.604 9.497 9.497 0 00-10.003 1.224 5.973 5.973 0 01-3.378 1.463c-3.456.423-3.569.377-6.403-.813l-1.647-.683c-2.5-1.024-2.5-1.024-4.026-3.479a4.963 4.963 0 01-.358-.682 7.556 7.556 0 001.308 1.07c2.496 1.628 3.335 1.989 5.244 1.989.472 0 1.01-.022 1.655-.053l1.76-.075c3.534-.138 4.12-.24 7.615-2.422A8.839 8.839 0 0059.02 67.3a6.515 6.515 0 015.994-3.741 8.85 8.85 0 005.041-1.442c2.979-1.86 3.567-2.682 4.83-4.788.318-.528.694-1.157 1.205-1.94.511-.782.934-1.38 1.29-1.882 1.418-2.005 1.934-2.875 2.435-6.349a8.843 8.843 0 00-.712-5.193 5.97 5.97 0 01-.527-3.642 6.313 6.313 0 011.506-3.463 10.413 10.413 0 002.14-4.454 11.522 11.522 0 00.39-4.554c.13.205.266.42.424.673a4.153 4.153 0 01.628 2.863 7.354 7.354 0 004.714 7.577 4.152 4.152 0 012.29 1.826c1.522 2.448 1.522 2.448 1.336 5.135z"/></svg>