<svg height="100" width="100" xmlns="http://www.w3.org/2000/svg" viewBox="0 0 12.7 12.7"><path d="M6.272.531a1.688 1.688 0 00-1.3.71 3.26 3.26 0 00-.417.808 3.26 3.26 0 00-.67-.617 1.688 1.688 0 00-2.587.942 3.26 3.26 0 001.29 3.545 1.688 1.688 0 001.45.227l2.152 5.913a.17.17 0 00.32 0l2.152-5.913a1.688 1.688 0 001.45-.227 3.26 3.26 0 001.29-3.545 1.688 1.688 0 00-2.588-.942 3.26 3.26 0 00-.67.617 3.26 3.26 0 00-.417-.809A1.688 1.688 0 006.272.531zm.148.184a1.503 1.503 0 011.156.632 3.075 3.075 0 010 3.559 1.503 1.503 0 01-1.134.63V3.814l.656-.63a.092.092 0 00-.128-.134l-.528.507V2.21a.092.092 0 00-.185 0v1.347L5.73 3.05a.092.092 0 00-.128.133l.655.63v1.725a1.503 1.503 0 01-1.133-.631 3.075 3.075 0 010-3.559A1.503 1.503 0 016.42.715zm3.347.602a1.503 1.503 0 011.457 1.106 3.075 3.075 0 01-1.217 3.344 1.503 1.503 0 01-1.282.204l.59-1.619.832-.368a.092.092 0 00-.075-.169l-.67.296.461-1.266a.092.092 0 00-.173-.063l-.46 1.266-.323-.657a.092.092 0 00-.166.08l.4.818-.589 1.62a1.503 1.503 0 01-.824-.898 3.26 3.26 0 00.484-2.748 3.075 3.075 0 01.708-.679 1.503 1.503 0 01.847-.267zm-6.845 0a1.503 1.503 0 01.859.267 3.075 3.075 0 01.707.68 3.26 3.26 0 00.484 2.747 1.503 1.503 0 01-.825.898l-.59-1.62.401-.817a.092.092 0 00-.165-.081l-.323.657-.46-1.266a.092.092 0 00-.174.063l.46 1.266-.669-.296a.092.092 0 00-.075.17l.832.367.59 1.62a1.503 1.503 0 01-1.282-.205 3.075 3.075 0 01-1.217-3.344 1.503 1.503 0 011.446-1.105zm2.185 3.86a1.688 1.688 0 001.15.544v5.984L4.211 6.082a1.688 1.688 0 00.896-.904zm2.486 0a1.688 1.688 0 00.896.905l-2.047 5.623V5.72a1.688 1.688 0 001.151-.543z"/></svg>