<svg height='100px' width='100px'  fill="#000000" xmlns="http://www.w3.org/2000/svg" xmlns:xlink="http://www.w3.org/1999/xlink" version="1.1" x="0px" y="0px" viewBox="0 0 50 50" enable-background="new 0 0 50 50" xml:space="preserve"><g><path d="M19.53899,45.34646c1.6346,0,3.2652-0.1854,4.8537-0.5393c1.5706,0.3928,3.2346,0.6135,4.9656,0.6135   c11.467,0,21.1031-8.6152,19.46-17.958c-0.8457-4.832-4.6118-8.8008-10.0747-10.6143c-3.8877-1.2919-8.3008-6.9404-8.9092-11.4023   c-0.0522-0.3838-0.3213-0.7031-0.6909-0.8193c-0.3696-0.1192-0.7734-0.0088-1.0357,0.2763l-2.5595,2.7803   c-0.1958,0.2139-0.2901,0.501-0.2578,0.7891l0.0346,0.3086c0.2477,1.8089-0.1444,3.5664-0.9088,5.1828   c-1.0641-1.7687-1.6293-3.7529-1.6293-5.8235v-0.2851c0-0.3594-0.1928-0.6914-0.5053-0.8692l-3.96-2.2529   c-0.3096-0.1748-0.689-0.1758-0.9975,0.0049c-0.3077,0.1787-0.4971,0.5078-0.4971,0.8643c0,4.5039-3.6045,10.6953-7.2744,12.498   c-5.1739,2.5225-8.3682,6.9639-8.5445,11.876C0.64909,39.16236,10.1879,45.34646,19.53899,45.34646z M27.33099,8.69996   l0.9648-1.0478c1.3936,4.4521,5.3936,9.624,9.8174,11.0947c4.7529,1.5781,8.0186,4.9648,8.7354,9.0615   c1.45831,8.2928-7.4933,15.6123-17.4903,15.6123c-7.1847,0-13.477-4.1165-14.5171-9.9873   c-0.7597-4.3037,1.3487-8.7441,5.6412-11.8799C24.55829,18.56216,27.93259,13.71776,27.33099,8.69996z M10.43209,19.89626   c3.8745-1.9033,7.559-7.6973,8.2714-12.6445l2.087,1.1865c0.059,2.6923,0.9173,5.2529,2.497,7.4656   c-1.0005,1.4296-2.3898,2.8641-3.9863,4.0354c-4.9214,3.5957-7.3252,8.7695-6.4297,13.8427c0.732,4.1306,3.6774,7.5633,7.541,9.545   c-8.5874,0.369-17.7261-5.0943-17.4057-13.2754C3.15619,25.88646,5.93109,22.09156,10.43209,19.89626z"></path><path d="M6.23529,31.25176c0.105,0.4648,0.5176,0.7793,0.9741,0.7793c0.0733,0,0.1475-0.0078,0.2222-0.0244   c0.5386-0.1221,0.876-0.6583,0.7539-1.1963c-0.8472-3.7393,1.0952-4.8975,1.2046-4.959c0.4824-0.2559,0.6714-0.8526,0.4218-1.3399   c-0.2524-0.4922-0.8554-0.6875-1.3461-0.4336C8.32459,24.15016,5.02429,25.90996,6.23529,31.25176z"></path><path d="M18.32269,30.67356c0,5.8516,5.5571,10.6114,12.3877,10.6114c6.831,0,12.3882-4.7598,12.3882-10.6114   c0-5.8505-5.5572-10.6103-12.3882-10.6103C23.87979,20.06326,18.32269,24.82306,18.32269,30.67356z M30.71039,22.06326   c5.728,0,10.3882,3.8623,10.3882,8.6103c0,4.7481-4.6602,8.6114-10.3882,8.6114s-10.3877-3.8633-10.3877-8.6114   C20.32269,25.92556,24.98239,22.06326,30.71039,22.06326z"></path><path d="M32.45259,26.51056c0.0991,0.0312,0.1997,0.0459,0.2988,0.0459c0.4258,0,0.8203-0.2735,0.9541-0.7012l0.3511-1.1231   c0.1645-0.5273-0.1289-1.0888-0.6563-1.2529c-0.5268-0.166-1.08839,0.1279-1.2529,0.6553l-0.3511,1.123   C31.63179,25.78496,31.92519,26.34646,32.45259,26.51056z"></path><path d="M27.62539,27.07206c0.0991,0.0312,0.1997,0.0459,0.2989,0.0459c0.4257,0,0.8203-0.2735,0.9541-0.7012l0.351-1.123   c0.1646-0.5274-0.1289-1.0889-0.6562-1.253c-0.5274-0.167-1.0889,0.128-1.253,0.6553l-0.351,1.1231   C26.80459,26.34646,27.09809,26.90796,27.62539,27.07206z"></path><path d="M24.04099,30.57206c0.0991,0.0312,0.1997,0.0459,0.2988,0.0459c0.4258,0,0.8203-0.2735,0.9541-0.7012l0.3511-1.123   c0.1645-0.5274-0.129-1.0889-0.6563-1.253c-0.5269-0.166-1.0884,0.128-1.2529,0.6553l-0.3511,1.1231   C23.22019,29.84646,23.51359,30.40796,24.04099,30.57206z"></path><path d="M25.12839,32.03497c-0.5269-0.166-1.0874,0.1289-1.25249,0.6562l-0.2803,0.8975   c-0.1645,0.5273,0.1294,1.0879,0.6568,1.2519c0.0991,0.0313,0.1992,0.0459,0.2983,0.0459c0.4258,0,0.8203-0.2744,0.9541-0.7021   l0.2803-0.8975C25.94959,32.75956,25.65569,32.19896,25.12839,32.03497z"></path><path d="M30.27239,38.04376c0.0991,0.0312,0.1992,0.0459,0.2983,0.0459c0.4258,0,0.8203-0.2745,0.9541-0.7022l0.2803-0.8975   c0.1646-0.5273-0.1294-1.0878-0.6567-1.2519c-0.5274-0.168-1.0874,0.1289-1.25249,0.6562l-0.2802,0.8975   C29.45109,37.31916,29.74509,37.87967,30.27239,38.04376z"></path><path d="M26.81829,37.59546c0.0991,0.0313,0.1997,0.0459,0.2988,0.0459c0.4253,0,0.8203-0.2734,0.9541-0.7012l0.2808-0.8974   c0.1645-0.5274-0.1289-1.0879-0.6563-1.2529c-0.5239-0.167-1.0883,0.1279-1.2529,0.6552l-0.2808,0.8975   C25.99749,36.86987,26.29099,37.43046,26.81829,37.59546z"></path><path d="M27.51649,32.33666c0.0992,0.0303,0.1997,0.045,0.2984,0.045c0.4258,0,0.8208-0.2745,0.9541-0.7022l0.2187-0.7012   c0.1646-0.5273-0.1294-1.0879-0.6567-1.2529c-0.5288-0.1631-1.0884,0.1299-1.2525,0.6572l-0.2187,0.7012   C26.69519,31.61106,26.98919,32.17167,27.51649,32.33666z"></path><path d="M32.78359,30.73316l-0.2187,0.7002c-0.1646,0.5264,0.12939,1.0879,0.6562,1.252c0.0996,0.0312,0.1997,0.0459,0.2989,0.0459   c0.4257,0,0.8203-0.2745,0.9541-0.7022l0.2187-0.7002c0.1646-0.5264-0.1294-1.0879-0.6562-1.2519   C33.50679,29.90896,32.94869,30.20386,32.78359,30.73316z"></path><path d="M30.66249,30.36206c0.0992,0.0303,0.1997,0.0449,0.2984,0.0449c0.4258,0,0.8208-0.2744,0.9541-0.7021l0.2187-0.7012   c0.1646-0.5273-0.1294-1.0879-0.6567-1.2529c-0.5283-0.1621-1.0884,0.1309-1.2525,0.6572l-0.2187,0.7012   C29.84119,29.63646,30.13519,30.19706,30.66249,30.36206z"></path><path d="M33.85879,34.74397l-0.2192,0.7011c-0.1646,0.5274,0.1289,1.0889,0.6562,1.253c0.0992,0.0312,0.1997,0.0459,0.2989,0.0459   c0.4253,0,0.8203-0.2735,0.9541-0.7012l0.2192-0.7012c0.1646-0.5273-0.1289-1.0889-0.6562-1.2529   C34.5859,33.92266,34.02339,34.21656,33.85879,34.74397z"></path><path d="M36.89539,29.80346c0.0972,0.0293,0.1949,0.043,0.2915,0.043c0.42879,0,0.8252-0.2773,0.95609-0.709l0.21391-0.7031   c0.16109-0.5283-0.1372-1.0869-0.6656-1.2481c-0.5288-0.1591-1.0869,0.1368-1.2475,0.6661l-0.21389,0.7031   C36.06879,29.08376,36.36709,29.64236,36.89539,29.80346z"></path><path d="M37.14979,31.43336l-0.2187,0.7012c-0.1646,0.5273,0.1294,1.0879,0.6567,1.2529   c0.09911,0.0303,0.1997,0.0449,0.2984,0.0449c0.4257,0,0.8208-0.2744,0.9541-0.7021l0.2187-0.7012   c0.1646-0.5273-0.1294-1.0879-0.6567-1.2529C37.8749,30.61306,37.31339,30.90606,37.14979,31.43336z"></path></g></svg>