<svg height='100px' width='100px'  fill="#000000" xmlns="http://www.w3.org/2000/svg" xmlns:xlink="http://www.w3.org/1999/xlink" viewBox="0 0 60 55" version="1.1" x="0px" y="0px"><title>167 -Grapefruit- (Outline)</title><desc>Created with Sketch.</desc><g stroke="none" stroke-width="1" fill="none" fill-rule="evenodd"><g transform="translate(-840.000000, -2248.000000)" fill="#000000"><g transform="translate(840.000000, 2247.000000)"><path d="M22.001,24.9919 C10.037,24.9919 2.001,29.1289 2.001,32.9919 C2.001,36.8549 10.037,40.9919 22.001,40.9919 C33.965,40.9919 42.001,36.8549 42.001,32.9919 C42.001,29.1289 33.965,24.9919 22.001,24.9919 M22.001,42.9919 C9.664,42.9919 0.001,38.5989 0.001,32.9919 C0.001,27.3849 9.664,22.9919 22.001,22.9919 C34.338,22.9919 44.001,27.3849 44.001,32.9919 C44.001,38.5989 34.338,42.9919 22.001,42.9919"></path><path d="M6.1621,32.988 C7.2861,34.147 12.4381,36.992 22.0011,36.992 C31.5461,36.992 36.7091,34.153 37.8401,32.996 C36.7161,31.837 31.5631,28.992 22.0011,28.992 C12.4561,28.992 7.2931,31.831 6.1621,32.988 M22.0011,38.992 C10.7641,38.992 4.3161,35.177 4.0121,33.133 L3.9901,32.984 L4.0121,32.836 C4.3191,30.797 10.7691,26.992 22.0011,26.992 C33.2381,26.992 39.6851,30.806 39.9901,32.851 L40.0121,33 L39.9901,33.148 C39.6831,35.187 33.2321,38.992 22.0011,38.992"></path><path d="M22.4326,55.9997 C22.1636,55.9997 21.9976,55.9927 21.9536,55.9907 C21.6716,56.0037 12.7716,56.3577 6.3306,50.2167 C2.1306,46.2117 0.0006,40.4167 0.0006,32.9917 C0.0006,32.4387 0.4486,31.9917 1.0006,31.9917 C1.5536,31.9917 2.0006,32.4387 2.0006,32.9917 C2.0006,39.8397 3.9166,45.1437 7.6966,48.7557 C13.5036,54.3057 21.8636,53.9967 21.9546,53.9927 C22.1296,53.9997 30.4966,54.3067 36.3056,48.7557 C40.0846,45.1437 42.0006,39.8397 42.0006,32.9917 C42.0006,32.4387 42.4486,31.9917 43.0006,31.9917 C43.5536,31.9917 44.0006,32.4387 44.0006,32.9917 C44.0006,40.4167 41.8706,46.2117 37.6706,50.2167 C31.9976,55.6257 24.4166,55.9997 22.4326,55.9997"></path><polygon points="21.001 37.992 23.001 37.992 23.001 27.992 21.001 27.992"></polygon><polygon points="5.001 33.992 39.001 33.992 39.001 31.992 5.001 31.992"></polygon><path d="M15.002,37.9919 C14.654,37.9919 14.317,37.8109 14.133,37.4879 C13.858,37.0089 14.025,36.3979 14.505,36.1239 L28.505,28.1239 C28.984,27.8469 29.596,28.0159 29.869,28.4959 C30.144,28.9749 29.977,29.5859 29.497,29.8599 L15.497,37.8599 C15.341,37.9499 15.17,37.9919 15.002,37.9919"></path><path d="M29,37.9919 C28.832,37.9919 28.661,37.9499 28.505,37.8599 L14.505,29.8599 C14.025,29.5859 13.858,28.9749 14.133,28.4959 C14.406,28.0159 15.016,27.8469 15.497,28.1239 L29.497,36.1239 C29.977,36.3979 30.144,37.0089 29.869,37.4879 C29.685,37.8109 29.348,37.9919 29,37.9919"></path><path d="M38.001,11.9919 C35.795,11.9919 34.001,10.1979 34.001,7.9919 C34.001,7.4389 34.448,6.9919 35.001,6.9919 C35.554,6.9919 36.001,7.4389 36.001,7.9919 C36.001,9.0949 36.898,9.9919 38.001,9.9919 C39.104,9.9919 40.001,9.0949 40.001,7.9919 C40.001,7.4389 40.448,6.9919 41.001,6.9919 C41.554,6.9919 42.001,7.4389 42.001,7.9919 C42.001,10.1979 40.207,11.9919 38.001,11.9919"></path><path d="M47.001,17.9919 C46.745,17.9919 46.489,17.8939 46.294,17.6989 C45.903,17.3079 45.903,16.6759 46.294,16.2849 L47.294,15.2849 C47.685,14.8939 48.317,14.8939 48.708,15.2849 C49.099,15.6759 49.099,16.3079 48.708,16.6989 L47.708,17.6989 C47.513,17.8939 47.257,17.9919 47.001,17.9919"></path><path d="M26.001,14.9919 C25.745,14.9919 25.489,14.8939 25.294,14.6989 C24.903,14.3079 24.903,13.6759 25.294,13.2849 L26.294,12.2849 C26.685,11.8939 27.317,11.8939 27.708,12.2849 C28.099,12.6759 28.099,13.3079 27.708,13.6989 L26.708,14.6989 C26.513,14.8939 26.257,14.9919 26.001,14.9919"></path><path d="M35.001,20.9919 C34.745,20.9919 34.489,20.8939 34.294,20.6989 C33.903,20.3079 33.903,19.6759 34.294,19.2849 L35.294,18.2849 C35.685,17.8939 36.317,17.8939 36.708,18.2849 C37.099,18.6759 37.099,19.3079 36.708,19.6989 L35.708,20.6989 C35.513,20.8939 35.257,20.9919 35.001,20.9919"></path><path d="M12.001,46.9919 C11.745,46.9919 11.489,46.8939 11.294,46.6989 C10.903,46.3079 10.903,45.6759 11.294,45.2849 L12.294,44.2849 C12.685,43.8939 13.317,43.8939 13.708,44.2849 C14.099,44.6759 14.099,45.3079 13.708,45.6989 L12.708,46.6989 C12.513,46.8939 12.257,46.9919 12.001,46.9919"></path><path d="M33.001,46.9919 C32.745,46.9919 32.489,46.8939 32.294,46.6989 L31.294,45.6989 C30.903,45.3079 30.903,44.6759 31.294,44.2849 C31.685,43.8939 32.317,43.8939 32.708,44.2849 L33.708,45.2849 C34.099,45.6759 34.099,46.3079 33.708,46.6989 C33.513,46.8939 33.257,46.9919 33.001,46.9919"></path><path d="M22.001,50.9919 C21.745,50.9919 21.489,50.8939 21.294,50.6989 C20.903,50.3079 20.903,49.6759 21.294,49.2849 L22.294,48.2849 C22.685,47.8939 23.317,47.8939 23.708,48.2849 C24.099,48.6759 24.099,49.3079 23.708,49.6989 L22.708,50.6989 C22.513,50.8939 22.257,50.9919 22.001,50.9919"></path><path d="M52.001,27.9919 C51.745,27.9919 51.489,27.8939 51.294,27.6989 C50.903,27.3079 50.903,26.6759 51.294,26.2849 L52.294,25.2849 C52.685,24.8939 53.317,24.8939 53.708,25.2849 C54.099,25.6759 54.099,26.3079 53.708,26.6989 L52.708,27.6989 C52.513,27.8939 52.257,27.9919 52.001,27.9919"></path><path d="M22.001,22.9919 C34.338,22.9919 44.001,27.3849 44.001,32.9919 C44.001,36.4919 43.517,39.6629 42.559,42.4439 C51.475,40.3569 58.001,32.2859 58.001,22.9919 C58.001,11.9639 49.029,2.9919 38.001,2.9919 C26.973,2.9919 18.001,11.9639 18.001,22.9919 C18.001,23.0489 18.002,23.1049 18.003,23.1609 C19.356,23.0489 20.697,22.9919 22.001,22.9919 L22.001,22.9919 Z M39.324,45.0019 L40.056,43.3529 C41.347,40.4409 42.001,36.9549 42.001,32.9919 C42.001,29.1289 33.965,24.9919 22.001,24.9919 C20.432,24.9919 18.806,25.0779 17.167,25.2479 L16.127,25.3549 L16.045,23.9789 C16.022,23.6519 16.001,23.3249 16.001,22.9919 C16.001,10.8609 25.87,0.9919 38.001,0.9919 C50.132,0.9919 60.001,10.8609 60.001,22.9919 C60.001,33.8669 51.88,43.2199 41.11,44.7489 L39.324,45.0019 Z"></path></g></g></g></svg>