<svg height='100px' width='100px'  fill="#000000" xmlns:dc="http://purl.org/dc/elements/1.1/" xmlns:cc="http://creativecommons.org/ns#" xmlns:rdf="http://www.w3.org/1999/02/22-rdf-syntax-ns#" xmlns:svg="http://www.w3.org/2000/svg" xmlns="http://www.w3.org/2000/svg" xmlns:sodipodi="http://sodipodi.sourceforge.net/DTD/sodipodi-0.dtd" xmlns:inkscape="http://www.inkscape.org/namespaces/inkscape" viewBox="0 0 32 32" version="1.1" x="0px" y="0px"><g transform="translate(0,-1020.3622)"><path style="color:#000000;font-style:normal;font-variant:normal;font-weight:normal;font-stretch:normal;font-size:medium;line-height:normal;font-family:sans-serif;text-indent:0;text-align:start;text-decoration:none;text-decoration-line:none;text-decoration-style:solid;text-decoration-color:#000000;letter-spacing:normal;word-spacing:normal;text-transform:none;direction:ltr;block-progression:tb;writing-mode:lr-tb;baseline-shift:baseline;text-anchor:start;white-space:normal;clip-rule:nonzero;display:inline;overflow:visible;visibility:visible;opacity:1;isolation:auto;mix-blend-mode:normal;color-interpolation:sRGB;color-interpolation-filters:linearRGB;solid-color:#000000;solid-opacity:1;fill:#000000;fill-opacity:1;fill-rule:evenodd;stroke:none;stroke-width:0.99999994;stroke-linecap:round;stroke-linejoin:round;stroke-miterlimit:4;stroke-dasharray:none;stroke-dashoffset:0;stroke-opacity:1;color-rendering:auto;image-rendering:auto;shape-rendering:auto;text-rendering:auto;enable-background:accumulate" d="m 2.5097656,1027.3613 a 0.50004997,0.50004997 0 0 0 -0.4941406,0.4864 c -0.1461643,4.7889 0.7413606,8.3203 4.7148438,11.2695 0.00115,9e-4 0.00275,0 0.00391,0 0.2672006,0.2053 0.5982215,0.3595 0.8867188,0.4883 0.2897409,0.1294 0.5292968,0.2207 0.5292968,0.2207 a 0.50037944,0.50037944 0 1 0 0.3554688,-0.9355 c 0,0 -0.2152044,-0.082 -0.4765625,-0.1992 -0.2613582,-0.1168 -0.5757945,-0.283 -0.6875,-0.3692 a 0.50004997,0.50004997 0 0 0 -0.00781,-0.01 c -3.5862496,-2.6581 -4.3689138,-5.5668 -4.3046875,-9.9082 2.4170808,0.2081 4.2551361,0.3088 5.7011719,0.8281 1.5691532,0.5635 2.8364312,1.6043 4.3417972,4 a 0.50020006,0.50020006 0 1 0 0.847656,-0.5313 c -1.573452,-2.504 -3.064818,-3.7685 -4.8515626,-4.4101 -1.7867445,-0.6417 -3.792886,-0.6833 -6.5078125,-0.9317 a 0.50004997,0.50004997 0 0 0 -0.050781,-0 z"></path><path style="color:#000000;font-style:normal;font-variant:normal;font-weight:normal;font-stretch:normal;font-size:medium;line-height:normal;font-family:sans-serif;text-indent:0;text-align:start;text-decoration:none;text-decoration-line:none;text-decoration-style:solid;text-decoration-color:#000000;letter-spacing:normal;word-spacing:normal;text-transform:none;direction:ltr;block-progression:tb;writing-mode:lr-tb;baseline-shift:baseline;text-anchor:start;white-space:normal;clip-rule:nonzero;display:inline;overflow:visible;visibility:visible;opacity:1;isolation:auto;mix-blend-mode:normal;color-interpolation:sRGB;color-interpolation-filters:linearRGB;solid-color:#000000;solid-opacity:1;fill:#000000;fill-opacity:1;fill-rule:nonzero;stroke:none;stroke-width:0.99999994;stroke-linecap:round;stroke-linejoin:round;stroke-miterlimit:4;stroke-dasharray:none;stroke-dashoffset:0;stroke-opacity:1;color-rendering:auto;image-rendering:auto;shape-rendering:auto;text-rendering:auto;enable-background:accumulate" d="m 20.5,1037.3613 c -2.755494,0 -5,2.2445 -5,5 0,2.7555 2.244506,5 5,5 2.755494,0 5,-2.2445 5,-5 0,-2.7555 -2.244506,-5 -5,-5 z m 0,1 c 2.215052,0 4,1.785 4,4 0,2.2151 -1.784948,4 -4,4 -2.215052,0 -4,-1.7849 -4,-4 0,-2.215 1.784948,-4 4,-4 z"></path><path style="color:#000000;font-style:normal;font-variant:normal;font-weight:normal;font-stretch:normal;font-size:medium;line-height:normal;font-family:sans-serif;text-indent:0;text-align:start;text-decoration:none;text-decoration-line:none;text-decoration-style:solid;text-decoration-color:#000000;letter-spacing:normal;word-spacing:normal;text-transform:none;direction:ltr;block-progression:tb;writing-mode:lr-tb;baseline-shift:baseline;text-anchor:start;white-space:normal;clip-rule:nonzero;display:inline;overflow:visible;visibility:visible;opacity:1;isolation:auto;mix-blend-mode:normal;color-interpolation:sRGB;color-interpolation-filters:linearRGB;solid-color:#000000;solid-opacity:1;fill:#000000;fill-opacity:1;fill-rule:nonzero;stroke:none;stroke-width:0.99999994;stroke-linecap:round;stroke-linejoin:round;stroke-miterlimit:4;stroke-dasharray:none;stroke-dashoffset:0;stroke-opacity:1;color-rendering:auto;image-rendering:auto;shape-rendering:auto;text-rendering:auto;enable-background:accumulate" d="m 13.509766,1036.375 c -1.434424,-0.093 -2.904812,0.3449 -4.0742191,1.3359 -2.3387948,1.9821 -2.5940076,5.466 -0.5644531,7.752 2.0295742,2.286 5.5702272,2.545 7.9257812,0.582 a 0.50063226,0.50063226 0 0 0 -0.640625,-0.7695 c -1.9434,1.6195 -4.866663,1.405 -6.5371094,-0.4766 -1.6704295,-1.8815 -1.4664294,-4.6911 0.4628904,-6.3261 1.929337,-1.6351 4.856357,-1.4443 6.542969,0.4238 a 0.50004997,0.50004997 0 1 0 0.742188,-0.6699 c -1.024471,-1.1347 -2.422999,-1.7583 -3.857422,-1.8516 z"></path><path style="color:#000000;font-style:normal;font-variant:normal;font-weight:normal;font-stretch:normal;font-size:medium;line-height:normal;font-family:sans-serif;text-indent:0;text-align:start;text-decoration:none;text-decoration-line:none;text-decoration-style:solid;text-decoration-color:#000000;letter-spacing:normal;word-spacing:normal;text-transform:none;direction:ltr;block-progression:tb;writing-mode:lr-tb;baseline-shift:baseline;text-anchor:start;white-space:normal;clip-rule:nonzero;display:inline;overflow:visible;visibility:visible;opacity:1;isolation:auto;mix-blend-mode:normal;color-interpolation:sRGB;color-interpolation-filters:linearRGB;solid-color:#000000;solid-opacity:1;fill:#000000;fill-opacity:1;fill-rule:nonzero;stroke:none;stroke-width:0.99999994;stroke-linecap:round;stroke-linejoin:round;stroke-miterlimit:4;stroke-dasharray:none;stroke-dashoffset:0;stroke-opacity:1;color-rendering:auto;image-rendering:auto;shape-rendering:auto;text-rendering:auto;enable-background:accumulate" d="m 17.744141,1030.918 c -1.010117,-0.1536 -2.066819,0 -3.019532,0.4961 -1.905401,0.9828 -2.97954,3.0823 -2.673828,5.2168 a 0.50022498,0.50022498 0 0 0 0.990235,-0.1426 c -0.246154,-1.7186 0.6166,-3.3985 2.142578,-4.1856 1.525998,-0.7871 3.371031,-0.5062 4.601562,0.7012 1.230546,1.2074 1.563425,3.0703 0.828125,4.6387 a 0.50064826,0.50064826 0 1 0 0.90625,0.4258 c 0.914228,-1.95 0.498345,-4.2747 -1.035156,-5.7793 -0.766742,-0.7524 -1.730118,-1.2175 -2.740234,-1.3711 z"></path><path style="color:#000000;font-style:normal;font-variant:normal;font-weight:normal;font-stretch:normal;font-size:medium;line-height:normal;font-family:sans-serif;text-indent:0;text-align:start;text-decoration:none;text-decoration-line:none;text-decoration-style:solid;text-decoration-color:#000000;letter-spacing:normal;word-spacing:normal;text-transform:none;direction:ltr;block-progression:tb;writing-mode:lr-tb;baseline-shift:baseline;text-anchor:start;white-space:normal;clip-rule:nonzero;display:inline;overflow:visible;visibility:visible;opacity:1;isolation:auto;mix-blend-mode:normal;color-interpolation:sRGB;color-interpolation-filters:linearRGB;solid-color:#000000;solid-opacity:1;fill:#000000;fill-opacity:1;fill-rule:evenodd;stroke:none;stroke-width:0.99999994;stroke-linecap:round;stroke-linejoin:round;stroke-miterlimit:4;stroke-dasharray:none;stroke-dashoffset:0;stroke-opacity:1;color-rendering:auto;image-rendering:auto;shape-rendering:auto;text-rendering:auto;enable-background:accumulate" d="m 12.966797,1038.8633 a 0.50004997,0.50004997 0 0 0 -0.369141,0.2031 c 0,0 -0.09668,0.1263 -0.222656,0.2774 -0.125974,0.151 -0.295521,0.3308 -0.357422,0.3808 -0.272688,0.2209 -1.21875,0.6797 -1.21875,0.6797 a 0.50004997,0.50004997 0 1 0 0.414063,0.9102 c 0,0 0.904726,-0.3842 1.433593,-0.8125 0.191929,-0.155 0.353881,-0.3471 0.496094,-0.5176 0.142213,-0.1705 0.251953,-0.3145 0.251953,-0.3145 a 0.50004997,0.50004997 0 0 0 -0.427734,-0.8066 z"></path><path style="color:#000000;font-style:normal;font-variant:normal;font-weight:normal;font-stretch:normal;font-size:medium;line-height:normal;font-family:sans-serif;text-indent:0;text-align:start;text-decoration:none;text-decoration-line:none;text-decoration-style:solid;text-decoration-color:#000000;letter-spacing:normal;word-spacing:normal;text-transform:none;direction:ltr;block-progression:tb;writing-mode:lr-tb;baseline-shift:baseline;text-anchor:start;white-space:normal;clip-rule:nonzero;display:inline;overflow:visible;visibility:visible;opacity:1;isolation:auto;mix-blend-mode:normal;color-interpolation:sRGB;color-interpolation-filters:linearRGB;solid-color:#000000;solid-opacity:1;fill:#000000;fill-opacity:1;fill-rule:evenodd;stroke:none;stroke-width:0.99999994;stroke-linecap:round;stroke-linejoin:round;stroke-miterlimit:4;stroke-dasharray:none;stroke-dashoffset:0;stroke-opacity:1;color-rendering:auto;image-rendering:auto;shape-rendering:auto;text-rendering:auto;enable-background:accumulate" d="m 15.990234,1033.8613 a 0.50004997,0.50004997 0 0 0 -0.251953,0.9258 c 0,0 0.215957,0.1381 0.496094,0.2754 0.280137,0.1373 0.605438,0.2988 1.015625,0.2988 0.410187,0 0.735488,-0.1615 1.015625,-0.2988 0.280137,-0.1373 0.496094,-0.2754 0.496094,-0.2754 a 0.50004997,0.50004997 0 1 0 -0.535157,-0.8437 c 0,0 -0.174437,0.1118 -0.40039,0.2226 -0.225954,0.1108 -0.522755,0.1953 -0.576172,0.1953 -0.05342,0 -0.350219,-0.084 -0.576172,-0.1953 -0.225953,-0.1108 -0.40039,-0.2226 -0.40039,-0.2226 a 0.50004997,0.50004997 0 0 0 -0.283204,-0.082 z"></path><path style="color:#000000;font-style:normal;font-variant:normal;font-weight:normal;font-stretch:normal;font-size:medium;line-height:normal;font-family:sans-serif;text-indent:0;text-align:start;text-decoration:none;text-decoration-line:none;text-decoration-style:solid;text-decoration-color:#000000;letter-spacing:normal;word-spacing:normal;text-transform:none;direction:ltr;block-progression:tb;writing-mode:lr-tb;baseline-shift:baseline;text-anchor:start;white-space:normal;clip-rule:nonzero;display:inline;overflow:visible;visibility:visible;opacity:1;isolation:auto;mix-blend-mode:normal;color-interpolation:sRGB;color-interpolation-filters:linearRGB;solid-color:#000000;solid-opacity:1;fill:#000000;fill-opacity:1;fill-rule:evenodd;stroke:none;stroke-width:0.99999994;stroke-linecap:round;stroke-linejoin:round;stroke-miterlimit:4;stroke-dasharray:none;stroke-dashoffset:0;stroke-opacity:1;color-rendering:auto;image-rendering:auto;shape-rendering:auto;text-rendering:auto;enable-background:accumulate" d="m 29.458984,1025.3633 a 0.50004997,0.50004997 0 0 0 -0.01758,0 c -2.691422,0.2468 -4.846821,0.4169 -6.761718,1.1758 -1.914898,0.7589 -3.54262,2.1224 -5.09961,4.6055 a 0.5001735,0.5001735 0 1 0 0.847656,0.5312 c 1.480233,-2.3607 2.900734,-3.5252 4.621094,-4.207 1.585791,-0.6285 3.522179,-0.8292 5.917969,-1.0508 0.0282,2.4769 -0.141093,4.9324 -1.054688,6.8574 -0.981763,2.0688 -2.730815,3.5913 -6.138671,4.0899 a 0.50004997,0.50004997 0 1 0 0.144531,0.9883 c 3.658411,-0.5353 5.793862,-2.3229 6.898437,-4.6504 1.104576,-2.3275 1.234963,-5.14 1.169922,-7.8555 a 0.50004997,0.50004997 0 0 0 -0.527344,-0.4863 z"></path><path style="color:#000000;font-style:normal;font-variant:normal;font-weight:normal;font-stretch:normal;font-size:medium;line-height:normal;font-family:sans-serif;text-indent:0;text-align:start;text-decoration:none;text-decoration-line:none;text-decoration-style:solid;text-decoration-color:#000000;letter-spacing:normal;word-spacing:normal;text-transform:none;direction:ltr;block-progression:tb;writing-mode:lr-tb;baseline-shift:baseline;text-anchor:start;white-space:normal;clip-rule:nonzero;display:inline;overflow:visible;visibility:visible;opacity:1;isolation:auto;mix-blend-mode:normal;color-interpolation:sRGB;color-interpolation-filters:linearRGB;solid-color:#000000;solid-opacity:1;fill:#000000;fill-opacity:1;fill-rule:evenodd;stroke:none;stroke-width:0.99999994;stroke-linecap:round;stroke-linejoin:round;stroke-miterlimit:4;stroke-dasharray:none;stroke-dashoffset:0;stroke-opacity:1;color-rendering:auto;image-rendering:auto;shape-rendering:auto;text-rendering:auto;enable-background:accumulate" d="m 29.484375,1025.3633 a 0.50004997,0.50004997 0 0 0 -0.34375,0.1523 l -7.988281,7.9883 a 0.50004997,0.50004997 0 1 0 0.707031,0.707 l 7.988281,-7.9882 a 0.50004997,0.50004997 0 0 0 -0.363281,-0.8594 z"></path><path style="color:#000000;font-style:normal;font-variant:normal;font-weight:normal;font-stretch:normal;font-size:medium;line-height:normal;font-family:sans-serif;text-indent:0;text-align:start;text-decoration:none;text-decoration-line:none;text-decoration-style:solid;text-decoration-color:#000000;letter-spacing:normal;word-spacing:normal;text-transform:none;direction:ltr;block-progression:tb;writing-mode:lr-tb;baseline-shift:baseline;text-anchor:start;white-space:normal;clip-rule:nonzero;display:inline;overflow:visible;visibility:visible;opacity:1;isolation:auto;mix-blend-mode:normal;color-interpolation:sRGB;color-interpolation-filters:linearRGB;solid-color:#000000;solid-opacity:1;fill:#000000;fill-opacity:1;fill-rule:evenodd;stroke:none;stroke-width:0.99999982;stroke-linecap:round;stroke-linejoin:round;stroke-miterlimit:4;stroke-dasharray:none;stroke-dashoffset:0;stroke-opacity:1;color-rendering:auto;image-rendering:auto;shape-rendering:auto;text-rendering:auto;enable-background:accumulate" d="m 3,1027.8613 a 0.50004991,0.50004991 0 0 0 -0.3476562,0.8594 l 8.4882812,8.4902 a 0.50004991,0.50004991 0 1 0 0.707031,-0.707 l -8.488281,-8.4902 A 0.50004991,0.50004991 0 0 0 3,1027.8613 Z"></path><path style="color:#000000;font-style:normal;font-variant:normal;font-weight:normal;font-stretch:normal;font-size:medium;line-height:normal;font-family:sans-serif;text-indent:0;text-align:start;text-decoration:none;text-decoration-line:none;text-decoration-style:solid;text-decoration-color:#000000;letter-spacing:normal;word-spacing:normal;text-transform:none;direction:ltr;block-progression:tb;writing-mode:lr-tb;baseline-shift:baseline;text-anchor:start;white-space:normal;clip-rule:nonzero;display:inline;overflow:visible;visibility:visible;opacity:1;isolation:auto;mix-blend-mode:normal;color-interpolation:sRGB;color-interpolation-filters:linearRGB;solid-color:#000000;solid-opacity:1;fill:#000000;fill-opacity:1;fill-rule:evenodd;stroke:none;stroke-width:0.99999994;stroke-linecap:round;stroke-linejoin:round;stroke-miterlimit:4;stroke-dasharray:none;stroke-dashoffset:0;stroke-opacity:1;color-rendering:auto;image-rendering:auto;shape-rendering:auto;text-rendering:auto;enable-background:accumulate" d="m 18.990234,1040.3613 a 0.50004997,0.50004997 0 0 0 -0.251953,0.9258 c 0,0 0.215957,0.1381 0.496094,0.2754 0.280137,0.1373 0.605438,0.2988 1.015625,0.2988 0.410187,0 0.735488,-0.1615 1.015625,-0.2988 0.280137,-0.1373 0.496094,-0.2754 0.496094,-0.2754 a 0.50004997,0.50004997 0 1 0 -0.535157,-0.8437 c 0,0 -0.174437,0.1118 -0.40039,0.2226 -0.225954,0.1108 -0.522755,0.1953 -0.576172,0.1953 -0.05342,0 -0.350219,-0.084 -0.576172,-0.1953 -0.225953,-0.1108 -0.40039,-0.2226 -0.40039,-0.2226 a 0.50004997,0.50004997 0 0 0 -0.283204,-0.082 z"></path></g></svg>