<svg height='100px' width='100px'  fill="#000000" xmlns:x="http://ns.adobe.com/Extensibility/1.0/" xmlns:i="http://ns.adobe.com/AdobeIllustrator/10.0/" xmlns:graph="http://ns.adobe.com/Graphs/1.0/" xmlns="http://www.w3.org/2000/svg" xmlns:xlink="http://www.w3.org/1999/xlink" version="1.1" x="0px" y="0px" viewBox="-247 370.9 100 100" style="enable-background:new -247 370.9 100 100;" xml:space="preserve"><g><g i:extraneous="self"><path d="M-192.7,379.2c-25.5,0-43.3,17-43.3,41.4c0,3.3,0.3,6.6,1,9.7l0.1,0c-2.3,4.8-4.9,10.4-7.9,16.8c-1.3,2.7-2.2,4.8-2.4,5.1    l-0.2,0.4v0.5c0,7.2,14.8,11.6,28.5,11.6c6.7,0,13.6-1,18.9-2.9c1.8,0.2,3.6,0.3,5.4,0.3c25.5,0,43.3-17,43.3-41.4    C-149.4,396.2-167.2,379.2-192.7,379.2z M-197,444c-4.3,3.3-11.9,5.4-20,5.4c-8.1,0-15.7-2.1-20-5.3c10.5-22.3,17.2-36,20-40.7    C-215,406.8-209.8,416.6-197,444z M-232,420.6c0-16.5,8.6-29.1,22.7-34.5c-0.4,0.4-0.7,0.8-0.9,1.2c-1.1,1.6,0.1,3.1,0.8,3.8    c-0.4,0.3-0.8,0.6-1.2,0.9c-1.4,1.1-2.9,2.2-3.7,3.6c-1.1,1.9,0.1,3.6,0.8,4.5c0.1,0.1,0.2,0.2,0.3,0.4c-0.2,0-0.4,0.1-0.7,0.2    c-1.6-2.5-2.2-2.5-2.9-2.5c-1.6,0-2.5,0-14.9,25.8C-231.9,422.8-232,421.7-232,420.6z M-241.4,453.4c0.4-0.8,1-2.2,2.2-4.7    c0.2-0.4,0.3-0.7,0.5-1c5.1,3.5,13.1,5.7,21.7,5.7c8.6,0,16.7-2.1,21.8-5.7c0.6,1.4,1.3,2.8,2,4.2c0.3,0.6,0.5,1.1,0.7,1.5    c-0.8,2.7-10.1,7.3-24.4,7.3C-231.3,460.7-240.6,456.1-241.4,453.4z M-188.7,452.2c-0.1-0.2-0.4-0.9-0.9-1.9    c-4.2-9.1-7.8-16.6-10.8-22.8c-0.2-1.1,0.7-2.4,1.6-3.5c0.8-1.1,1.5-2.1,1.5-3.3c0-1.8-1.4-3-2.5-4c-0.3-0.3-0.8-0.7-1-0.9    c0.2-0.3,0.6-0.8,0.9-1.2c0.9-1,1.9-2.2,2-3.6c0.1-1.6-1-2.8-1.9-3.8c-0.2-0.3-0.6-0.6-0.7-0.9c0.2-0.3,0.7-0.9,1.1-1.2    c0.9-1,2-2,2.1-3.5c0.2-1.8-1.2-3.1-2.3-4.2c-0.3-0.2-0.6-0.6-0.8-0.8c0.2-0.4,0.7-1,1.1-1.5c0.7-0.9,1.5-1.7,1.8-2.8    c0.5-1.6-0.2-3.1-0.6-4c-0.1-0.3-0.3-0.6-0.3-0.8c-0.1-0.7,0.8-3,1.6-4c1.4-0.1,2.8-0.2,4.3-0.2c2,0,3.9,0.1,5.8,0.3    c0.8,1.1,1.6,3.2,1.5,3.9c0,0.2-0.2,0.5-0.3,0.8c-0.5,0.9-1.1,2.4-0.6,4c0.3,1.1,1.1,2,1.8,2.8c0.4,0.5,0.9,1,1.1,1.5    c-0.2,0.2-0.6,0.6-0.8,0.8c-1.1,1-2.5,2.3-2.3,4.2c0.2,1.4,1.2,2.5,2.1,3.5c0.3,0.3,0.8,0.8,1,1.1c-0.3,0.3-0.7,0.6-1,0.9    c-1.2,1-2.6,2.3-2.5,4c0.1,1.7,1.4,2.8,2.7,3.8c0.3,0.2,0.7,0.6,1,0.9c-0.4,0.3-0.9,0.7-1.3,1c-1.5,1.1-3.3,2.4-3.3,4.3    c0,1.9,1.7,2.9,3.4,3.9c0.3,0.2,0.7,0.4,1,0.6c-0.3,0.3-0.6,0.5-0.9,0.7c-1.2,1-2.6,2.1-2.7,3.8c-0.1,1.9,1.7,3.1,3.2,4.2    c0.3,0.2,0.7,0.5,1,0.7c-0.3,0.3-0.8,0.6-1.1,0.9c-1.3,1-2.6,2.1-2.8,3.7c-0.2,1.8,1.2,3.1,2.3,4.2c0.2,0.2,0.6,0.5,0.8,0.8    c-0.3,0.4-0.9,0.9-1.3,1.2c-1,0.9-2.1,1.9-2.4,3.1c-0.5,1.9,0.7,3.4,1.6,4.4c0.1,0.1,0.3,0.3,0.4,0.5c-0.4,0.7-0.7,1.4-1,2.1    c-0.4,0.8-0.7,1.6-1,1.9l0,0c-1.3,0.1-2.6,0.2-3.9,0.3c1.6-1.4,2.6-3.1,2.6-4.9v-0.5L-188.7,452.2z M-173.1,453.8    c0.2-1.4-0.7-2.6-1.1-3.2c-0.1-0.1-0.1-0.2-0.2-0.2c0.4-0.4,1-0.9,1.7-1.4c1.4-1,2.7-2.1,3.5-3.5c1.1-1.9-0.2-3.6-0.8-4.5    c-0.1-0.2-0.3-0.5-0.5-0.7c0.4-0.3,1.2-0.9,1.7-1.2c1.6-1,3.2-2.1,3.7-3.7c0.5-1.9-0.9-3.3-1.9-4.3c-0.2-0.2-0.5-0.5-0.7-0.8    c0.3-0.3,0.8-0.7,1.2-1c1.4-1,2.9-2.2,3-4c0.1-1.8-1.4-3-2.6-3.9c-0.3-0.2-0.7-0.5-0.9-0.8c0.3-0.3,0.7-0.7,1-1    c1.2-1.1,2.6-2.4,2.4-4.2c-0.1-1.8-1.7-2.9-3.1-4c-0.4-0.3-0.9-0.7-1.2-1c0.2-0.2,0.5-0.6,0.7-0.8c1-1,2.3-2.4,1.8-4.3    c-0.5-1.6-2.1-2.7-3.7-3.7c-0.5-0.3-1.3-0.8-1.7-1.2c0.1-0.2,0.3-0.4,0.4-0.6c0.7-0.9,1.9-2.6,0.8-4.5c-0.8-1.4-2.3-2.5-3.7-3.6    c-0.4-0.3-0.8-0.6-1.2-0.9c0.7-0.7,1.9-2.1,0.8-3.8c-0.1-0.1-0.1-0.2-0.2-0.3c12.8,5.8,20.6,17.9,20.6,33.6    C-153.4,435.9-160.8,447.8-173.1,453.8z"></path><path d="M-220.7,441.1c0,3.5,2.4,3.9,3.4,3.9s3.4-0.4,3.4-3.9c0-1.4-0.6-6.5-3.4-6.5C-220.2,434.6-220.7,439.7-220.7,441.1z"></path><path d="M-225.2,433.2c-2.8-0.8-4.7,4-5.1,5.4c-0.9,3.4,1.3,4.4,2.3,4.7c0.3,0.1,0.7,0.2,1.1,0.2c1.1,0,2.6-0.5,3.3-3    c0.3-1.1,0.5-2.5,0.4-3.7C-223.4,434.8-224,433.6-225.2,433.2z"></path><path d="M-207.6,443.5c0.4,0,0.8-0.1,1.1-0.2c1-0.3,3.2-1.3,2.3-4.7c-0.4-1.3-2.3-6.2-5.1-5.4c-1.2,0.3-1.9,1.5-2,3.5    c-0.1,1.2,0.1,2.6,0.4,3.7C-210.2,442.9-208.7,443.5-207.6,443.5z"></path></g></g></svg>