<svg height='100px' width='100px'  fill="#000000" xmlns="http://www.w3.org/2000/svg" xmlns:xlink="http://www.w3.org/1999/xlink" version="1.1" x="0px" y="0px" viewBox="0 0 64.033 63.934" style="enable-background:new 0 0 64.033 63.934;" xml:space="preserve"><g><path style="" d="M48.473,8.64l5.294-5.291   c1.671-1.67,4.38-1.67,6.051,0c1.671,1.67,1.853,3.915,0.182,5.584" fill="none" stroke="#000000" stroke-width="2" stroke-linecap="round" stroke-miterlimit="10"></path><path style="" d="M50.098,19.478l6.467-3.771   c2.041-1.19,4.661-0.501,5.852,1.538s0.625,4.498-1.416,5.689" fill="none" stroke="#000000" stroke-width="2" stroke-linecap="round" stroke-miterlimit="10"></path><path style="" d="M35.399,10.887l1.754-3.938   c0.961-2.157-0.011-4.685-2.17-5.645S29.961,1.776,29,3.934" fill="none" stroke="#000000" stroke-width="2" stroke-linecap="round" stroke-miterlimit="10"></path><path style="" d="   M35.423,10.898c0.097,0.043-3.839,8.004-7.506,18.818c-6.238,18.396-3.712,24.614-3.479,27.276   c0.319,3.654,3.161,5.663,3.161,5.663c0.339,0.56-5.694,1.019-7.597-6.356c-1.929-7.475-0.8-14.214,3.875-27.989   c2.342-6.904,4.176-11.394,5.878-15.259C29.754,13.049,31.493,9.15,35.423,10.898z" fill="none" stroke="#000000" stroke-width="2" stroke-linecap="round" stroke-linejoin="round" stroke-miterlimit="10"></path><path style="" d="M53.97,35.153l4.277-0.562   c2.343-0.308,3.992-2.455,3.684-4.797c-0.308-2.341-2.588-4.169-4.93-3.861" fill="none" stroke="#000000" stroke-width="2" stroke-linecap="round" stroke-miterlimit="10"></path><g><path style="" d="    M49.177,31.471c-4.188,0.569-8.977,1.35-16.092,2.959c-0.219,0.049-0.42,0.098-0.635,0.147l-7.152,4.099    c0.106-0.442,0.218-0.895,0.336-1.358c-0.349,1.359-0.638,2.626-0.877,3.81c2.603-0.858,5.651-1.709,9.237-2.52    c11.143-2.522,19.993-3.324,19.978-3.429C53.412,30.918,49.177,31.471,49.177,31.471z" fill="none" stroke="#000000" stroke-width="2" stroke-linecap="round" stroke-linejoin="round" stroke-miterlimit="10"></path></g><g><g><path style="" d="     M48.473,8.64L28.199,28.901c-0.094,0.272-0.188,0.538-0.282,0.814c-0.368,1.087-0.704,2.127-1.013,3.131l8.029-4.627     l12.028-12.02C46.96,16.199,51.498,11.664,48.473,8.64z" fill="none" stroke="#000000" stroke-width="2" stroke-linecap="round" stroke-linejoin="round" stroke-miterlimit="10"></path></g><path style="" d="    M19.993,41.717l-4.725,2.708c-1.276,0.744-4.91,2.863-6.252,3.645l-2.142,2.141c0,0-4.538,4.535,1.513,10.582    c0,0-1.513-4.535,3.782-9.826c0.915-0.915,4.188-4.186,5.294-5.291l2.193-2.192C19.755,42.91,19.867,42.322,19.993,41.717z" fill="none" stroke="#000000" stroke-width="2" stroke-linecap="round" stroke-linejoin="round" stroke-miterlimit="10"></path></g><g><path style="" d="    M21.438,35.996L3.873,46.119c0,0-5.543,3.232-1.231,10.618c0,0-0.309-4.77,6.158-8.541c1.118-0.652,5.116-2.983,6.467-3.771    l4.725-2.708C20.358,39.965,20.839,38.071,21.438,35.996z" fill="none" stroke="#000000" stroke-width="2" stroke-linecap="round" stroke-linejoin="round" stroke-miterlimit="10"></path><path style="" d="    M50.098,19.478L26.903,32.846c-0.654,2.119-1.182,4.057-1.605,5.83l21.412-12.273C46.711,26.403,52.254,23.171,50.098,19.478z" fill="none" stroke="#000000" stroke-width="2" stroke-linecap="round" stroke-linejoin="round" stroke-miterlimit="10"></path></g></g></svg>