<svg height='100px' width='100px'  fill="#000000" xmlns="http://www.w3.org/2000/svg" xmlns:xlink="http://www.w3.org/1999/xlink" version="1.1" x="0px" y="0px" viewBox="0 0 100 100" enable-background="new 0 0 100 100" xml:space="preserve"><g display="none"><rect x="-68.5" y="35.5" display="inline" fill="#000000" stroke="#000000" stroke-miterlimit="10" width="95" height="95"></rect><rect x="53.5" y="35.5" display="inline" fill="#000000" stroke="#000000" stroke-miterlimit="10" width="95" height="95"></rect></g><g><path fill="#000000" d="M86.478,13.322c-2.887-2.889-5.265-3.942-7.064-3.123c-1.22,0.552-3.96,2.193-5.662,3.439   c-6.681-1.063-12.767,4.219-17.57,8.391l-2.368,2.054c-10.484,9.089-21.326,18.487-31.209,28.56l-0.766,0.78   c-8.145,8.28-20.453,20.792-8.378,32.869c0.044,0.044,0.09,0.085,0.138,0.124c0.038,0.046,0.078,0.091,0.121,0.135   c3.629,3.629,7.296,5.056,10.877,5.056c8.339,0,16.206-7.741,22-13.442l0.771-0.759c10.11-9.92,19.544-20.805,28.668-31.332   l1.94-2.238c4.262-4.904,9.678-11.146,8.32-17.99c1.464-2.058,2.765-4.286,3.301-5.463C90.41,18.581,89.361,16.206,86.478,13.322z    M70.155,36.202l-2.243,2.38c-9.437,10.018-19.194,20.376-29.119,30.22l-0.765,0.76c-5.908,5.869-16.452,16.339-21.01,15.424   c-0.299-0.263-0.597-0.54-0.896-0.839c-0.044-0.044-0.09-0.085-0.138-0.124c-0.038-0.046-0.078-0.091-0.121-0.135   c-0.298-0.298-0.575-0.596-0.837-0.895c-0.921-4.556,9.549-15.1,15.418-21.008l0.763-0.769   c9.856-9.935,20.225-19.704,30.253-29.151l2.343-2.208c4.877-4.596,11.35-10.691,14.623-10.15c0.275,0.245,0.553,0.5,0.832,0.779   l0.26,0.262c0.281,0.281,0.538,0.56,0.783,0.837C80.842,24.861,74.749,31.328,70.155,36.202z M24.261,55.808l0.77-0.783   c9.787-9.974,20.576-19.327,31.009-28.372l2.37-2.056c6.447-5.601,11.454-9.318,16.762-7.032c-3.97,1.611-8.643,6.014-13.22,10.328   l-2.343,2.208c-10.045,9.462-20.431,19.247-30.319,29.215l-0.762,0.767c-6.312,6.355-13.693,13.791-15.722,19.581   C9.302,72.062,15.916,64.292,24.261,55.808z M75.408,41.604l-1.943,2.242c-9.079,10.476-18.468,21.308-28.479,31.132l-0.775,0.762   c-8.492,8.357-16.268,14.981-23.877,11.457c5.793-2.021,13.237-9.401,19.599-15.721l0.764-0.758   c9.957-9.876,19.731-20.251,29.183-30.286l2.242-2.38c4.312-4.574,8.713-9.245,10.324-13.213   C84.733,30.151,81.012,35.157,75.408,41.604z M84.797,21.979c-0.705-1.197-1.648-2.408-2.869-3.629l-0.26-0.262   c-1.323-1.324-2.635-2.312-3.931-3.033c1.148-0.723,2.334-1.408,2.992-1.719c0.454,0.052,1.769,0.813,3.344,2.39   c1.574,1.574,2.334,2.887,2.385,3.34C86.135,19.755,85.525,20.828,84.797,21.979z"></path></g></svg>