<svg height='100px' width='100px'  fill="#000000" xmlns="http://www.w3.org/2000/svg" data-name="Layer 1" viewBox="0 0 100 100" x="0px" y="0px"><title>Icons_MinimalFood_Vineta</title><path d="M52.24,35.9687A31.6175,31.6175,0,0,1,83.7422,6.5156a2.25,2.25,0,0,0,0-4.5A36.1262,36.1262,0,0,0,47.7285,35.957,28.4827,28.4827,0,0,0,47.66,92.751v2.9834a2.25,2.25,0,0,0,4.5,0V92.751a28.4827,28.4827,0,0,0,.08-56.7823Zm4.167,28.3877c0,15.5235-4.292,23.9912-6.497,23.9912S43.4131,79.88,43.4131,64.3564s4.292-23.9912,6.4971-23.9912S56.4072,48.833,56.4072,64.3564Zm-30.4883,0A24.0306,24.0306,0,0,1,43.1621,41.3379c-2.8047,5.459-4.249,14.2705-4.249,23.0185s1.4443,17.56,4.249,23.0186A24.0307,24.0307,0,0,1,25.9189,64.3564ZM56.6582,87.375c2.8047-5.459,4.249-14.27,4.249-23.0186s-1.4443-17.5595-4.249-23.0185a23.9857,23.9857,0,0,1,0,46.0371ZM32.4414,32.5166c1.0293-.958,7.2793-7.0987,7.2813-14.8916-.002-8.252-7.0713-14.7-7.3721-14.9707a2.2507,2.2507,0,0,0-3.0108.0029A26.8311,26.8311,0,0,0,24.0615,9.665C18.1182,5.5224,10.5225,5.1621,8.09,5.1621c-.5527,0-.8632.0176-.8632.0176A2.2578,2.2578,0,0,0,5.1,7.3066c-.0234.44-.4531,9.7725,4.4844,16.835A26.7669,26.7669,0,0,0,2.5791,29.42a2.25,2.25,0,0,0-.0029,3.0107c.27.3008,6.7207,7.3721,14.9736,7.3721h.001C25.4141,39.8008,31.6387,33.3818,32.4414,32.5166ZM29.332,29.2627a1.9532,1.9532,0,0,0-.1552.1572l-.001-.001c-.0528.06-5.4014,5.8819-11.626,5.8838-4.1846,0-7.9746-2.6318-10.0244-4.374a20.0291,20.0291,0,0,1,6.4267-3.7608,2.2493,2.2493,0,0,0,.834-3.7822C10.752,19.3125,9.83,13,9.6338,9.709c3.3174.1923,9.6338,1.1171,13.7178,5.1992a2.25,2.25,0,0,0,3.7382-.8789,20.045,20.045,0,0,1,3.7588-6.4248c1.7432,2.0508,4.3731,5.8379,4.3741,10.0205C35.2207,23.81,29.3916,29.209,29.332,29.2627Zm68.0918-1.7158A17.9318,17.9318,0,0,0,89.7529,22.73a15.2441,15.2441,0,0,0,.4092-4.01A2.2623,2.2623,0,0,0,88.0352,16.59s-.1592-.0088-.4414-.0088c-1.711,0-6.0059.3145-8.9209,3.2266-2.78,2.7832-3.3145,7.1143-3.2022,9.1328l-.0127-.001c-.0293.5987-.1855,5.9463,3.2168,9.3526,2.915,2.9111,7.209,3.2256,8.919,3.2256h.0009c.2823,0,.4405-.0088.4405-.0088a2.2631,2.2631,0,0,0,2.1269-2.1309,15.2474,15.2474,0,0,0-.4092-4.01,17.942,17.942,0,0,0,7.6709-4.8144A2.2487,2.2487,0,0,0,97.4238,27.5469ZM86.78,31.2929a2.0786,2.0786,0,0,0-1.0625.2374,2.2508,2.2508,0,0,0-1.002,3.0283,8.6685,8.6685,0,0,1,.7412,2.2461A6.9844,6.9844,0,0,1,81.8564,35.11c-2.0273-2.03-1.9111-5.8086-1.9052-5.9687.0029-.0684.0019-.1367-.002-.2051h.001c-.0488-1.0752.1982-4.2383,1.9053-5.9463a6.9869,6.9869,0,0,1,3.6035-1.6973,8.7357,8.7357,0,0,1-.7412,2.2481,2.2528,2.2528,0,0,0,2.0136,3.2646,9.84,9.84,0,0,1,5.6465,2.2432A9.8957,9.8957,0,0,1,86.78,31.2929Z"></path></svg>