<svg height='100px' width='100px'  fill="#000000" xmlns="http://www.w3.org/2000/svg" data-name="Layer 1" viewBox="0 0 53.85 96" x="0px" y="0px"><title>07</title><path d="M67.54,51.81a28.67,28.67,0,0,0,2.64-5.61c1.13-3.46,2.37-8.66.37-14.13,4.9-6.82,8-16.12,5.53-22.09-1.63-4-4.68-6.65-8.17-7.07-2.95-.36-5.82.88-8.24,3.49a7.89,7.89,0,0,0-1.9-2A12.41,12.41,0,0,0,50.23,2a18,18,0,0,0-8.74,2.34,4.82,4.82,0,0,0-1.92,2.3c-2.8-2.42-5.88-3.59-8.64-3-7.69,1.74-8.74,12.2-7.29,20.63,1.09,6.34,10.15,19.93,11.15,21.41l.12.38v8.11c.16,4.36-.66,9.68-1.46,14.82-1,6.16-1.86,12-1.1,16.22a13.41,13.41,0,0,0,7.2,9.65,11.26,11.26,0,0,0,4.9,1.3l.16.2h0A4.21,4.21,0,0,0,47.9,98h6.93a4.23,4.23,0,0,0,3.09-1.34h0l.06-.06.34-.38a11.53,11.53,0,0,0,4.57-1.3,13.41,13.41,0,0,0,7.19-9.65C70.85,81,69.95,75.21,69,69c-.8-5.14-1.62-10.46-1.45-14.85Zm.17-47.24c2.88.35,5.43,2.61,6.83,6,2.06,5.08-.6,14.05-5.46,20.7a.83.83,0,0,0-.23.31,26,26,0,0,1-5,5.1,18.83,18.83,0,0,1-5.16,2.73h0a.83.83,0,0,0-.19.11h0l-3.29,2.61c-1.32.57-2.53,1.16-3.61,1.75a2.47,2.47,0,0,0-.64.52,70,70,0,0,1,2.07-12.15,16.31,16.31,0,0,0,1-2.58c1.49-2.08,5.56-7.33,7.84-8.52a.83.83,0,1,0-.77-1.48c-2,1-4.66,4.16-6.5,6.5.85-5.48,2.26-13.31,5.21-17.36C62.06,5.75,64.87,4.23,67.71,4.57ZM51.85,93a9.57,9.57,0,0,0-1.56-.07,8.58,8.58,0,0,0-2.56-3.47,17.28,17.28,0,0,1-3.55-5.1c0-7.93,1.79-14.68,3.36-20.65.27-1,.53-2,.78-3,.53-2.13.94-4.24,1.34-6.29v0c.35-1.81.8-4.13,1.33-6l0-.11c.42-1.46.89-2.58,1.4-2.86.73-.4,1.53-.81,2.38-1.2,0,3-.05,7.32.06,10.21a46.88,46.88,0,0,0,1.85,9l.34,1.23c1.07,3.82,3.58,12.75,2.34,16.82h0a48.63,48.63,0,0,1-2.7,6A36.85,36.85,0,0,1,51.85,93ZM40.71,49.52a45.61,45.61,0,0,1-.12-7.26.84.84,0,0,0,0-.22c-.1-.48-.27-1.47-.46-2.64L41,41.57a14.19,14.19,0,0,0,5.26,6.36L48,54.22c-.38,2-.78,4-1.29,6-.24,1-.5,2-.77,3a92.88,92.88,0,0,0-3.26,17.23,47.27,47.27,0,0,1-2.36-14.21c0-.47-.06-.92-.09-1.36s-.08-1.08-.09-1.55a31.49,31.49,0,0,0-.23-3.4C40.28,57.54,41,51.66,40.71,49.52Zm.38-42.15a2.93,2.93,0,0,1,1.27-1.61,16.27,16.27,0,0,1,7.85-2.1,10.89,10.89,0,0,1,6.5,2l.06,0c.94.69,1.89,1.84,1.66,2.21h0C55,12.76,53.59,21.7,52.69,27.63c-.08.55-.16,1.07-.24,1.55a14.63,14.63,0,0,1-.93,2.47.82.82,0,0,0-.06.15c-.11.41-2.72,10.11-2.09,16.21-.22.78-.44,1.67-.65,2.64l-1-3.38a.83.83,0,0,0,.19-.72c-1-4.86-.66-9.54-.33-14.08.37-5.22.73-10.14-.95-14.86A27.75,27.75,0,0,0,41.43,8.5,1.44,1.44,0,0,1,41.09,7.37Zm-.94,2.2h0a26.23,26.23,0,0,1,4.95,8.58c1.56,4.39,1.22,9.15.85,14.19a55.34,55.34,0,0,0,.16,13.43A11.94,11.94,0,0,1,42.51,41L38.94,31.9c-.71-4.78-.23-14.4,0-17.41.17-2.21-.88-5.42-1.7-7.55A17,17,0,0,1,40.16,9.57ZM25.27,24c-1.06-6.21-1-17.13,6-18.72a6.25,6.25,0,0,1,3.63.36c.52,1.19,2.56,6,2.36,8.69-.25,3.3-.72,13,0,17.88h0c.06.37,1.21,8.06,1.61,10a45.23,45.23,0,0,0,.14,7.49,24.46,24.46,0,0,1-.14,4.57c-.82-3.63-1.83-6.82-2.3-8.31l-.05-.17a.84.84,0,0,0-.05-.3l-.18-.47a.83.83,0,0,0-.1-.2C35.86,44.34,26.32,30.16,25.27,24Zm15,69.4A11.76,11.76,0,0,1,34,85c-.71-4,.17-9.65,1.1-15.67.81-5.22,1.64-10.62,1.47-15.12V51.72a62.34,62.34,0,0,1,1.67,8.21c0,.3-.09.51-.11.6a.83.83,0,0,0,.26.83c.06.68.09,1.35.09,2s0,1.08.09,1.66c0,.42.07.86.09,1.31a46.81,46.81,0,0,0,3.94,18.48l0,0a18.94,18.94,0,0,0,4,5.77l.06.05a7.78,7.78,0,0,1,2,2.43,8.29,8.29,0,0,0-3.31,1.61.83.83,0,0,0-.49-.16h-.14A9.07,9.07,0,0,1,40.3,93.44Zm7.6,2.9a2.55,2.55,0,0,1-1.43-.44c1.22-1,4.38-2.62,9.41.21a2.57,2.57,0,0,1-1,.22Zm18-42.18c-.17,4.52.66,9.92,1.47,15.14.93,6,1.81,11.71,1.1,15.67a11.76,11.76,0,0,1-6.31,8.46A9.56,9.56,0,0,1,58,94.56a.86.86,0,0,0-.69.27l-.11.13a15.67,15.67,0,0,0-3.37-1.56,45.21,45.21,0,0,0,4.25-5l.06-.1a44.61,44.61,0,0,0,5.44-18.49.83.83,0,0,0-.07-.39,76.48,76.48,0,0,0-.86-9.27c-.17-1.28-.32-2.39-.36-3-.14-2.21-2.07-6.09-2.54-7V46.92a.83.83,0,0,0-1.66,0v3.42a.83.83,0,0,0,.1.39c.64,1.22,2.34,4.76,2.44,6.5,0,.67.19,1.75.37,3.12a64.5,64.5,0,0,1,.83,10,.82.82,0,0,0,0,.21,43.81,43.81,0,0,1-.7,4.8,81.11,81.11,0,0,0-2.5-11.13c-.13-.47-.25-.88-.34-1.21a46,46,0,0,1-1.8-8.64c-.12-3.16-.08-8.11,0-11l2.53-2a.8.8,0,0,0,.76-.47,19.56,19.56,0,0,0,5.11-2.78,26.45,26.45,0,0,0,4.43-4.37c1.32,4.54.33,8.76-.73,12A28.37,28.37,0,0,1,66,51.16a.83.83,0,0,0-.12.43Z" transform="translate(-23.08 -2)"></path><path d="M64.58,46.11a.83.83,0,0,0-1,.62A46.76,46.76,0,0,0,62.45,53a.83.83,0,0,0,.83.79h0a.83.83,0,0,0,.79-.87A48.1,48.1,0,0,1,65.2,47.1.83.83,0,0,0,64.58,46.11Z" transform="translate(-23.08 -2)"></path></svg>