<svg height='100px' width='100px'  fill="#000000" xmlns="http://www.w3.org/2000/svg" xmlns:xlink="http://www.w3.org/1999/xlink" version="1.1" x="0px" y="0px" viewBox="0 0 100 100" style="enable-background:new 0 0 100 100;" xml:space="preserve"><g><g><g><g><g><g><g><path d="M73.98,87.84c-1.9,0-3.78-0.36-5.58-1.07c-1.03-0.41-1.53-1.57-1.13-2.59c0.41-1.03,1.57-1.53,2.59-1.13         c1.34,0.53,2.72,0.79,4.12,0.79c8.7,0,15.77-10.14,15.77-22.6v-5.11c0-12.46-7.07-22.59-15.77-22.59         c-1.3,0-2.25,0.39-3.68,0.98l-0.13,0.05c-1.02,0.42-2.19-0.07-2.61-1.09c-0.42-1.02,0.07-2.19,1.09-2.61l0.12-0.05         c1.6-0.66,3.11-1.28,5.2-1.28c10.9,0,19.77,11.93,19.77,26.59v5.11C93.75,75.9,84.88,87.84,73.98,87.84z"></path></g></g></g></g></g></g><g><g><g><g><g><g><path d="M62.92,88.49c-2.58,0-5.06-0.68-7.37-2.01c-0.96-0.55-1.29-1.77-0.73-2.73c0.55-0.96,1.78-1.29,2.73-0.73         c1.7,0.98,3.5,1.47,5.37,1.47c7.27,0,13.19-7.58,13.19-16.89V49.77c0-9.31-5.92-16.89-13.19-16.89         c-1.83,0-3.09,0.68-4.96,1.8c-0.95,0.57-2.18,0.26-2.74-0.69s-0.26-2.18,0.69-2.74c2.24-1.34,4.18-2.37,7.02-2.37         c9.48,0,17.19,9.37,17.19,20.89V67.6C80.1,79.12,72.39,88.49,62.92,88.49z"></path></g></g></g></g></g></g><g><g><g><g><g><g><path d="M26.02,87.53c-10.9,0-19.77-11.81-19.77-26.33v-5.06c0-11.63,5.84-22.01,14.21-25.28c0.71-0.33,4.55-1.97,7.54-0.68         c1.39,0.6,2.39,1.73,2.89,3.27c0.34,1.05-0.24,2.18-1.29,2.52c-1.06,0.34-2.18-0.24-2.52-1.29         c-0.18-0.55-0.43-0.72-0.66-0.82c-1.15-0.5-3.41,0.22-4.33,0.65c-0.04,0.02-0.09,0.04-0.13,0.06         c-6.89,2.65-11.71,11.52-11.71,21.57v5.06c0,12.32,7.07,22.33,15.77,22.33c1.46,0,2.34-0.31,3.85-0.96         c1.02-0.44,2.19,0.04,2.63,1.05c0.44,1.02-0.04,2.19-1.05,2.63C29.76,86.98,28.28,87.53,26.02,87.53z"></path></g></g></g></g></g></g><g><g><g><g><g><g><path d="M37.07,88.17c-9.47,0-17.18-9.28-17.18-20.69V49.85c0-9.92,5.87-18.46,13.95-20.32c0.92-0.25,6.99-1.74,9.82,1.96         c0.67,0.88,0.5,2.13-0.38,2.8c-0.88,0.67-2.13,0.5-2.8-0.38c-0.99-1.29-4.27-0.9-5.61-0.53c-0.03,0.01-0.07,0.02-0.1,0.02         c-6.2,1.41-10.88,8.47-10.88,16.43v17.64c0,9.2,5.91,16.69,13.18,16.69c1.52,0,3.01-0.33,4.44-0.99         c1-0.46,2.19-0.02,2.65,0.98c0.46,1,0.02,2.19-0.98,2.65C41.22,87.72,39.17,88.17,37.07,88.17z"></path></g></g></g></g></g></g><g><g><g><g><g><g><path d="M49.34,89.46c-8.28,0-15.01-7.9-15.01-17.61V45.63c0-9.71,6.73-17.61,15.01-17.61s15.01,7.9,15.01,17.61v26.22         C64.35,81.56,57.62,89.46,49.34,89.46z M49.34,32.02c-6.07,0-11.01,6.11-11.01,13.61v26.22c0,7.5,4.94,13.61,11.01,13.61         s11.01-6.11,11.01-13.61V45.63C60.35,38.13,55.41,32.02,49.34,32.02z"></path></g></g></g></g></g></g><g><g><g><g><g><path d="M53.82,32.9c-0.92,0-1.75-0.64-1.95-1.58c-0.02-0.1-2.13-9.53-7.28-15.78l-1.55,1.79c1.24,2.1,3.39,6.55,4.15,13.19        c0.13,1.1-0.66,2.09-1.76,2.22c-1.08,0.14-2.09-0.66-2.22-1.76C42.26,22.72,39,18.44,38.96,18.4        c-0.58-0.75-0.56-1.81,0.06-2.53l4-4.64c0.36-0.42,0.88-0.67,1.43-0.69c0.53-0.02,1.09,0.18,1.48,0.57        c7.08,6.93,9.73,18.87,9.84,19.37c0.23,1.08-0.45,2.14-1.53,2.38C54.1,32.89,53.96,32.9,53.82,32.9z"></path></g></g></g></g></g></g></svg>