<svg height='100px' width='100px'  fill="#000000" xmlns="http://www.w3.org/2000/svg" xmlns:xlink="http://www.w3.org/1999/xlink" version="1.1" x="0px" y="0px" viewBox="0 0 100 100" style="enable-background:new 0 0 100 100;" xml:space="preserve"><path d="M70.274,63.112c2.253-4.041,3.445-9.66,3.445-16.25c0-9.288-2.384-19.521-6.377-27.373C62.765,10.489,56.606,5.532,50,5.532  S37.235,10.489,32.658,19.49c-3.993,7.852-6.377,18.084-6.377,27.373c0,6.59,1.191,12.209,3.445,16.25  c2.605,4.671,6.602,7.14,11.557,7.14c1.776,0,3.154-0.355,4.135-0.733l-1.096,18.083c-0.008,0.136,0.011,0.271,0.056,0.396  c-0.039,0.265-0.058,0.529-0.058,0.789c0,3.132,2.548,5.681,5.681,5.681s5.681-2.548,5.681-5.681c0-0.26-0.02-0.523-0.058-0.789  c0.044-0.125,0.064-0.26,0.056-0.396L54.583,69.52c0.981,0.378,2.359,0.733,4.135,0.733C63.673,70.252,67.669,67.783,70.274,63.112z   M50,92.468c-2.029,0-3.681-1.651-3.681-3.681c0-0.286,0.038-0.583,0.112-0.884c0.059-0.237,0.028-0.486-0.083-0.7l2.336-38.538  c0.058-0.177,0.078-0.363,0.033-0.546L50,26.962l1.282,21.158c-0.044,0.183-0.025,0.369,0.033,0.546l2.336,38.538  c-0.11,0.213-0.141,0.461-0.083,0.698c0.076,0.306,0.112,0.596,0.112,0.885C53.681,90.817,52.029,92.468,50,92.468z M54.226,63.635  L64.8,50.534c0.347-0.43,0.279-1.059-0.15-1.406c-0.429-0.345-1.059-0.28-1.406,0.15l-9.197,11.395l-0.73-12.048l10.526-13.042  c0.347-0.43,0.279-1.059-0.15-1.406c-0.429-0.346-1.059-0.279-1.406,0.15l-9.149,11.336l-0.816-13.465l10.777-13.353  c0.347-0.43,0.279-1.059-0.15-1.406c-0.429-0.345-1.059-0.28-1.406,0.15l-9.4,11.647l-1.143-18.863  C50.966,9.844,50.529,9.432,50,9.432s-0.966,0.412-0.998,0.939l-1.143,18.863l-9.4-11.647c-0.347-0.43-0.977-0.496-1.406-0.15  c-0.43,0.347-0.497,0.977-0.15,1.406l10.777,13.353l-0.816,13.465l-9.149-11.336c-0.347-0.43-0.978-0.496-1.406-0.15  c-0.43,0.347-0.497,0.977-0.15,1.406l10.526,13.042l-0.73,12.048l-9.197-11.395c-0.347-0.43-0.978-0.496-1.406-0.15  c-0.43,0.347-0.497,0.977-0.15,1.406l10.574,13.101l-0.22,3.628c-0.624,0.348-2.07,0.99-4.271,0.99c-4.247,0-7.547-2.057-9.81-6.114  c-2.088-3.744-3.192-9.026-3.192-15.276c0-8.988,2.303-18.882,6.16-26.466C38.659,12.101,44.185,7.532,50,7.532  s11.341,4.569,15.56,12.865c3.857,7.584,6.16,17.478,6.16,26.466c0,6.25-1.104,11.532-3.191,15.276  c-2.263,4.057-5.564,6.114-9.81,6.114c-2.199,0-3.646-0.641-4.272-0.989L54.226,63.635z"></path></svg>