<svg height='100px' width='100px'  fill="#000000" xmlns="http://www.w3.org/2000/svg" xmlns:xlink="http://www.w3.org/1999/xlink" version="1.1" x="0px" y="0px" viewBox="0 0 44 64" style="enable-background:new 0 0 44 64;" xml:space="preserve"><g><path style="" d="   M33,53c0.064,2.363,1.679,5.065,4,5" fill="none" stroke="#000000" stroke-width="2" stroke-linecap="round" stroke-linejoin="round" stroke-miterlimit="10"></path><path style="" d="   M11,59c2.321-0.065,4.064-2.637,4-5" fill="none" stroke="#000000" stroke-width="2" stroke-linecap="round" stroke-linejoin="round" stroke-miterlimit="10"></path><path style="" d="M2,57   c2.286,0.409,4.598-1.672,5-4" fill="none" stroke="#000000" stroke-width="2" stroke-linecap="round" stroke-linejoin="round" stroke-miterlimit="10"></path><path style="" d="   M28,54c-1.901,1.357-1.333,5.065,0,7" fill="none" stroke="#000000" stroke-width="2" stroke-linecap="round" stroke-linejoin="round" stroke-miterlimit="10"></path><path style="" d="   M26.695,12.245c1.644-0.444,2.821-1.931,2.636-3.63c-0.193-1.771-1.913-3.064-3.829-3.064l-0.25,0   c0.009-0.125,0.015-0.251,0.015-0.379C25.267,2.868,23.804,1,22,1c-1.804,0-3.267,1.868-3.267,4.172   c0,0.128,0.006,0.254,0.015,0.379l-0.25,0c-1.916,0-3.636,1.292-3.829,3.064c-0.185,1.698,0.993,3.186,2.636,3.63   c0.648,0.175,1.156,0.64,1.32,1.248l0.009,0.033c0.081,0.301,0.108,0.621,0.013,0.918c-0.17,0.532-0.58,0.981-1.121,1.267   c-0.741,0.393-1.243,1.134-1.243,1.978c0,1.252,1.103,2.276,2.45,2.276v0.594c-0.599,0.503-0.94,1.266-0.775,2.099   c0.217,1.101,1.328,1.858,2.533,1.858h3.019c1.205,0,2.316-0.757,2.533-1.858c0.164-0.834-0.177-1.597-0.775-2.099v-0.594   c1.347,0,2.45-1.024,2.45-2.276c0-0.845-0.502-1.586-1.243-1.978c-0.541-0.287-0.951-0.735-1.121-1.267   c-0.095-0.297-0.068-0.617,0.013-0.918l0.009-0.033C25.539,12.885,26.047,12.42,26.695,12.245z" fill="none" stroke="#000000" stroke-width="2" stroke-linecap="round" stroke-linejoin="round" stroke-miterlimit="10"></path><path style="" d="   M33.119,9.523l-0.201-0.076c0.046-0.104,0.09-0.21,0.13-0.319c0.716-1.964,0.122-4-1.327-4.548   c-1.272-0.481-2.779,0.345-3.614,1.881c0.668,0.542,1.13,1.289,1.224,2.154c0.185,1.698-0.993,3.186-2.636,3.63   c-0.648,0.175-1.156,0.64-1.32,1.248l-0.009,0.033c-0.081,0.301-0.108,0.621-0.013,0.918c0.17,0.532,0.58,0.981,1.121,1.267   c0.741,0.393,1.243,1.134,1.243,1.978c0,1.252-1.103,2.276-2.45,2.276v0.594c0.599,0.503,0.94,1.266,0.775,2.099   c-0.187,0.946-1.035,1.635-2.034,1.811l1.613,0.61c0.968,0.366,2.096,0.058,2.613-0.814c0.391-0.66,0.355-1.414,0.029-2.025   l0.185-0.506c1.083,0.409,2.287-0.128,2.676-1.195c0.263-0.72,0.089-1.504-0.384-2.064c-0.345-0.409-0.536-0.916-0.507-1.421   c0.016-0.282,0.138-0.547,0.296-0.779l0.017-0.025c0.32-0.468,0.874-0.71,1.448-0.662c1.459,0.121,2.867-0.789,3.247-2.292   C35.639,11.729,34.659,10.105,33.119,9.523z" fill="none" stroke="#000000" stroke-width="2" stroke-linecap="round" stroke-linejoin="round" stroke-miterlimit="10"></path><path style="" d="   M10.881,9.523l0.201-0.076c-0.046-0.104-0.09-0.21-0.13-0.319c-0.716-1.964-0.122-4,1.327-4.548   c1.272-0.481,2.779,0.345,3.614,1.881c-0.668,0.542-1.13,1.289-1.224,2.154c-0.185,1.698,0.993,3.186,2.636,3.63   c0.648,0.175,1.156,0.64,1.32,1.248l0.009,0.033c0.081,0.301,0.108,0.621,0.013,0.918c-0.17,0.532-0.58,0.981-1.121,1.267   c-0.741,0.393-1.243,1.134-1.243,1.978c0,1.252,1.103,2.276,2.45,2.276v0.594c-0.599,0.503-0.94,1.266-0.775,2.099   c0.187,0.946,1.035,1.635,2.034,1.811l-1.613,0.61c-0.968,0.366-2.096,0.058-2.613-0.814c-0.391-0.66-0.355-1.414-0.029-2.025   l-0.185-0.506c-1.083,0.409-2.287-0.128-2.676-1.195c-0.263-0.72-0.089-1.504,0.384-2.064c0.345-0.409,0.536-0.916,0.507-1.421   c-0.016-0.282-0.138-0.547-0.296-0.779l-0.017-0.025c-0.32-0.468-0.874-0.71-1.448-0.662c-1.459,0.121-2.867-0.789-3.247-2.292   C8.361,11.729,9.341,10.105,10.881,9.523z" fill="none" stroke="#000000" stroke-width="2" stroke-linecap="round" stroke-linejoin="round" stroke-miterlimit="10"></path><line style="" x1="22" y1="7" x2="22" y2="30.931" fill="none" stroke="#000000" stroke-width="2" stroke-linecap="round" stroke-linejoin="round" stroke-miterlimit="10"></line><line style="" x1="26.2" y1="24.517" x2="22" y2="30.931" fill="none" stroke="#000000" stroke-width="2" stroke-linejoin="round" stroke-miterlimit="10"></line><line style="" x1="17.8" y1="24.517" x2="22" y2="30.931" fill="none" stroke="#000000" stroke-width="2" stroke-linejoin="round" stroke-miterlimit="10"></line><path style="" d="M43,47.559   c0-9.184-10.691-16.628-21-16.628S1,38.376,1,47.559c0,8.488,9.478,8.351,18.7,9.363c1.32,0.856,2.3,1.747,2.3,2.515   c0,0,0.003-0.937,2.313-2.516C33.529,55.903,43,56.044,43,47.559z" fill="none" stroke="#000000" stroke-width="2" stroke-linejoin="round" stroke-miterlimit="10"></path><path style="" d="   M7.726,41.01c1.478-1.666,3.515-2.956,5.874-3.665" fill="none" stroke="#000000" stroke-width="2" stroke-linecap="round" stroke-linejoin="round" stroke-miterlimit="10"></path><path style="" d="   M5.2,47.424c0-1.117,0.203-2.194,0.579-3.207" fill="none" stroke="#000000" stroke-width="2" stroke-linecap="round" stroke-linejoin="round" stroke-miterlimit="10"></path><path style="" d="   M22,59c0,1.97-1.065,4-3,4" fill="none" stroke="#000000" stroke-width="2" stroke-linecap="round" stroke-linejoin="round" stroke-miterlimit="10"></path></g></svg>