<svg height='100px' width='100px'  fill="#000000" xmlns="http://www.w3.org/2000/svg" data-name="Layer 2" viewBox="0 0 100 100" x="0px" y="0px"><title>SUMMER_VEGES_AND _FRUITS_ICONS</title><path d="M89.57666,34.21582a4.37963,4.37963,0,0,1-2.916-4.6875A7.05881,7.05881,0,0,0,85.583,24.94141c-1.7168-2.75928-2.22608-3.33545-4.77588-4.39844-.022-.00916-.04468-.01221-.06677-.02026-1.1388-2.95978-1.43152-3.43848-4.51233-5.44849a7.05984,7.05984,0,0,0-4.56055-1.17383,4.14128,4.14128,0,0,1-2.8457-.687,4.155,4.155,0,0,1-1.77783-2.3291,7.06052,7.06052,0,0,0-2.91456-3.70264c-3.11279-2.03076-3.64746-2.08789-6.89843-1.936l-1.75977.07568c-3.53369.13769-4.11963.23926-7.61621,2.42139a8.836,8.836,0,0,0-3.50684,3.89453,5.97089,5.97089,0,0,1-2.44482,2.75293,5.97923,5.97923,0,0,1-3.54932.98828A8.86425,8.86425,0,0,0,33.552,16.683a1.40162,1.40162,0,0,0-.40564.24439,11.13715,11.13715,0,0,0-4.66394,4.68c-.31738.52832-.69385,1.15674-1.20508,1.93994-.51074.78272-.93359,1.38037-1.28955,1.8833-1.418,2.00391-1.93408,2.874-2.43554,6.34766a8.8442,8.8442,0,0,0,.71289,5.19336,6.51276,6.51276,0,0,1-1.00879,6.99219A8.84874,8.84874,0,0,0,21.105,48.74561c-.58789,4.07714-.44531,4.6538.84961,7.94091l.64355,1.65284c1.165,3.03125,1.4336,3.49658,4.54151,5.52392.1297.0846.2525.14942.37829.2226L5.44971,76.84375a1.50065,1.50065,0,0,0-.52246,2.09131L9.0249,85.521a1.49979,1.49979,0,0,0,2.10694.45459l7.075-4.72687-4.77906,6.83136a1.50016,1.50016,0,0,0,.40918,2.11621l6.49659,4.23828a1.49976,1.49976,0,0,0,2.102-.478L35.47247,72.48218c.08338.15472.168.30993.26825.471,1.96338,3.15625,2.42383,3.43554,5.43555,4.66943l1.62451.67383c2.17188.91162,3.15186,1.28515,4.77295,1.28515a27.07855,27.07855,0,0,0,3.1543-.26123,8.83613,8.83613,0,0,0,4.8247-2.04834,6.512,6.512,0,0,1,7.0127-.85791,8.84062,8.84062,0,0,0,5.17822.82324c3.48487-.42675,4.36573-.92334,6.40039-2.29785.51075-.34521,1.11768-.75537,1.9126-1.25.79346-.49365,1.42969-.85644,1.96436-1.16211,2.13232-1.21728,2.96728-1.78759,4.88867-4.72461A8.83914,8.83914,0,0,0,84.458,62.79541a5.96749,5.96749,0,0,1,1.0625-3.5249,6.31025,6.31025,0,0,1,2.82715-2.502,10.41281,10.41281,0,0,0,3.82275-3.13232c2.36426-3.05273,2.51953-4.1206,2.69385-7.352.02392-.44092.05029-.93115.08691-1.48584l.04541-.66406c.2251-3.24121.17822-3.77637-1.78222-6.92774A7.05051,7.05051,0,0,0,89.57666,34.21582ZM37.36578,64.14752l2.81678-4.31775c2.9906-1.13806,6.24707-.09869,9.69244,1.01691a30.06326,30.06326,0,0,0,6.38721,1.56592c.7124.06494,1.41552.13916,2.10888.21289.18232.01929.36261.03741.54419.05639a8.9402,8.9402,0,0,0-2.54712,3.21558,5.9709,5.9709,0,0,1-2.44433,2.75244c-2.95459,1.84473-3.07471,1.84961-6.144,1.96924l-1.78418.07617c-2.69727.12842-2.69629.12793-5.11866-1.45215a4.15721,4.15721,0,0,1-1.77783-2.3291A7.41312,7.41312,0,0,0,37.36578,64.14752ZM72.313,55.78662a11.6305,11.6305,0,0,1-1.21063,1.781A1.49017,1.49017,0,0,0,70.751,57.77c-3.47705,2.78125-7.45508,2.35937-12.064,1.87207-.70849-.0752-1.42676-.15137-2.1543-.2168a27.5171,27.5171,0,0,1-5.73437-1.4331c-2.723-.88092-5.51093-1.77851-8.33594-1.65723l6.67542-10.23279c2.99011-1.13653,6.246-.09814,9.69226,1.01648a30.03936,30.03936,0,0,0,6.38769,1.56641c.79053.07178,1.59864.16894,2.41553.26709a44.63641,44.63641,0,0,0,5.30225.41992,16.59,16.59,0,0,0,3.47747-.35455,7.89771,7.89771,0,0,1-1.48236,2.75738c-.373.52735-.81689,1.15479-1.353,1.97608C73.0415,54.57324,72.64551,55.23242,72.313,55.78662Zm5.37744-22.7373a9.207,9.207,0,0,0-2.084,4.84619,8.83523,8.83523,0,0,0,.71337,5.19189,6.18727,6.18727,0,0,1,.60376,2.67645c-2.65271.94587-5.83856.58112-8.93237.20978-.84668-.10156-1.68408-.20215-2.50293-.27588a27.50957,27.50957,0,0,1-5.73437-1.4331c-2.72321-.88111-5.51111-1.77936-8.33558-1.65827l8.35621-12.80914c2.98675-1.13745,6.2453-.09778,9.69177,1.01721A30.03936,30.03936,0,0,0,75.854,32.38086c.74738.06781,1.49866.10089,2.24677.11279C77.96844,32.68018,77.832,32.86243,77.69043,33.04932ZM71.74365,16.8999a4.1381,4.1381,0,0,1,2.84522.687c2.41552,1.57569,2.41552,1.57569,3.38134,4.08985l.24268.6289c.20606.53223.394,1,.563,1.41993,1.01556,2.52649,1.19348,2.982.57428,5.77667-.04138-.00122-.08069-.00842-.12311-.00617a27.067,27.067,0,0,1-3.10254-.10254A27.48564,27.48564,0,0,1,70.38965,27.96c-2.72247-.8811-5.51093-1.77838-8.33533-1.65741l6.4455-9.88031A7.452,7.452,0,0,0,71.74365,16.8999Zm-16.15576-8.581,1.78467-.07617c2.69824-.12891,2.69775-.127,5.11767,1.45166a4.15474,4.15474,0,0,1,1.77832,2.32959,7.41873,7.41873,0,0,0,1.72114,2.75573l-6.49323,9.95343c-1.01337-2.69177-2.9892-4.91919-4.92322-7.091a27.45565,27.45565,0,0,1-3.62256-4.67139,26.914,26.914,0,0,1-1.3396-2.78735C52.39807,8.44763,52.58014,8.4361,55.58789,8.31885ZM38.45068,18.37646a8.84933,8.84933,0,0,0,5.04151-1.4414,8.83535,8.83535,0,0,0,3.50732-3.895c.11151-.21057.21936-.41046.3313-.60565.309.67108.63489,1.33752.9939,1.98749a30.08046,30.08046,0,0,0,4.00781,5.21533c2.45325,2.75445,4.76929,5.35711,4.8551,8.63507L48.86023,41.03735c-1.01331-2.69183-2.9892-4.91925-4.92322-7.09106a27.45565,27.45565,0,0,1-3.62256-4.67139c-.398-.71972-.82763-1.4458-1.26172-2.17969-1.56481-2.64544-3.16272-5.37329-3.40161-8.14178A6.135,6.135,0,0,1,38.45068,18.37646ZM28.43652,27.16357c.37354-.52783.81739-1.15527,1.35352-1.97656.53613-.82226.93213-1.48144,1.26465-2.03613a8.0902,8.0902,0,0,1,1.83764-2.394,27.46007,27.46007,0,0,0,3.57837,7.86572c.41944.70849.834,1.40869,1.21778,2.10351a30.08015,30.08015,0,0,0,4.00781,5.21534c2.45325,2.75445,4.76929,5.35711,4.8551,8.63513L39.905,54.76489c-1.01319-2.69171-2.98914-4.91894-4.92352-7.09106a27.52136,27.52136,0,0,1-3.62256-4.6709c-.35352-.63965-.71241-1.2666-1.06641-1.88477-2.29858-4.01239-4.28284-7.47882-3.15375-11.7691A9.43013,9.43013,0,0,1,28.43652,27.16357ZM25.39893,57.26318l-.65284-1.67675c-1.125-2.855-1.16894-2.96631-.67138-6.4126a5.97505,5.97505,0,0,1,1.53515-3.34912,8.98735,8.98735,0,0,0,1.893-3.54151c.06213.10865.12372.2168.18609.32569.34717.60547.69874,1.21924,1.04444,1.84521A30.053,30.053,0,0,0,32.74121,49.669c2.45337,2.75457,4.769,5.35662,4.85468,8.63549l-2.74512,4.208a6.75955,6.75955,0,0,0-2.64032-.48413c-.20313,0-.398.00537-.58594.00977a4.14991,4.14991,0,0,1-2.84619-.6875C26.36426,59.77588,26.36426,59.77588,25.39893,57.26318ZM10.75342,82.62061,8.293,78.66553,27.97284,67.28882l-5.027,7.18579Zm9.92187,8.45459-3.90136-2.54493L33.15424,65.1156a4.00885,4.00885,0,0,1,1.39166.609,4.21826,4.21826,0,0,1,.99432.86511ZM92.00391,43.92676l-.0459.67236c-.03809.56885-.06494,1.07178-.08936,1.52344-.15088,2.79834-.17431,3.22851-2.07031,5.67676a7.42856,7.42856,0,0,1-2.852,2.31689,9.19528,9.19528,0,0,0-3.936,3.51172,8.83914,8.83914,0,0,0-1.54834,5.00732,5.96752,5.96752,0,0,1-1.0625,3.52491c-1.624,2.48193-2.0542,2.728-3.86572,3.7622-.56152.32032-1.229.70166-2.06152,1.21973-.834.51855-1.47168.94922-2.00733,1.31152-1.72949,1.168-2.14013,1.44532-5.08545,1.80616a5.99451,5.99451,0,0,1-3.63476-.604A9.49739,9.49739,0,0,0,53.7417,74.88037a5.97311,5.97311,0,0,1-3.37793,1.4624c-3.45606.42286-3.56836.377-6.40234-.8125L42.314,74.84668c-2.49951-1.02393-2.49951-1.02393-4.02636-3.47852a4.96332,4.96332,0,0,1-.35761-.68237,7.5564,7.5564,0,0,0,1.3078,1.07007c2.4961,1.62842,3.335,1.98877,5.24414,1.98877.47217,0,1.01026-.022,1.65479-.05225l1.75976-.07568c3.53418-.1377,4.12012-.23926,7.61573-2.42188a8.83878,8.83878,0,0,0,3.50781-3.894,6.51466,6.51466,0,0,1,5.99365-3.74121,8.84935,8.84935,0,0,0,5.04151-1.44141c2.97851-1.85937,3.56689-2.68212,4.83056-4.78808.3169-.52832.69336-1.15674,1.20459-1.93945.51074-.78272.9336-1.38038,1.28955-1.88282,1.418-2.00439,1.93408-2.87451,2.43555-6.34863a8.84334,8.84334,0,0,0-.71289-5.19287,5.96988,5.96988,0,0,1-.52637-3.64258,6.31279,6.31279,0,0,1,1.50537-3.4624,10.41258,10.41258,0,0,0,2.14112-4.45459,11.52235,11.52235,0,0,0,.38928-4.5542c.13092.20557.266.41974.42419.67383a4.15264,4.15264,0,0,1,.62744,2.8623,7.35364,7.35364,0,0,0,4.71485,7.57715,4.15248,4.15248,0,0,1,2.28906,1.82568C92.19043,41.23975,92.19043,41.23975,92.00391,43.92676Z"></path></svg>