<svg height='100px' width='100px'  fill="#000000" xmlns:dc="http://purl.org/dc/elements/1.1/" xmlns:cc="http://creativecommons.org/ns#" xmlns:rdf="http://www.w3.org/1999/02/22-rdf-syntax-ns#" xmlns:svg="http://www.w3.org/2000/svg" xmlns="http://www.w3.org/2000/svg" xmlns:sodipodi="http://sodipodi.sourceforge.net/DTD/sodipodi-0.dtd" xmlns:inkscape="http://www.inkscape.org/namespaces/inkscape" viewBox="0 0 12.7 12.7" version="1.1" x="0px" y="0px"><g transform="translate(0,-284.29998)"><path style="" d="m 6.2717498,284.83096 a 1.6881309,1.6881309 0 0 0 -1.2989033,0.70948 3.2598934,3.2598934 0 0 0 -0.4178608,0.80893 3.2598934,3.2598934 0 0 0 -0.6692895,-0.61726 1.6881309,1.6881309 0 0 0 -2.5875185,0.94186 3.2598934,3.2598934 0 0 0 1.2896439,3.54482 1.6881309,1.6881309 0 0 0 1.4498767,0.2267 l 2.1521413,5.91337 a 0.17028347,0.17028347 0 0 0 0.3199643,0 l 2.1526425,-5.91337 a 1.6881309,1.6881309 0 0 0 1.4498766,-0.2267 3.2598934,3.2598934 0 0 0 1.289644,-3.54482 1.6881309,1.6881309 0 0 0 -2.5880461,-0.94186 3.2598934,3.2598934 0 0 0 -0.6692895,0.61726 3.2598934,3.2598934 0 0 0 -0.4178608,-0.80893 1.6881309,1.6881309 0 0 0 -1.4550208,-0.70948 z m 0.1478869,0.18394 a 1.5034702,1.5034702 0 0 1 1.1566882,0.6322 3.0752327,3.0752327 0 0 1 0,3.55873 1.5034702,1.5034702 0 0 1 -1.1340277,0.63066 v -1.72399 l 0.6558884,-0.63013 a 0.09233037,0.09233037 0 0 0 -0.1277588,-0.13293 l -0.5281296,0.50699 v -1.34734 a 0.09248865,0.09248865 0 0 0 -0.1849773,0 v 1.34734 l -0.527602,-0.50699 a 0.09233037,0.09233037 0 0 0 -0.1277588,0.13293 l 0.6553608,0.63013 v 1.72399 a 1.5034702,1.5034702 0 0 1 -1.1335001,-0.63066 3.0752327,3.0752327 0 0 1 0,-3.55873 1.5034702,1.5034702 0 0 1 1.2958169,-0.6322 z m 3.3474764,0.60232 a 1.5034702,1.5034702 0 0 1 1.4571049,1.10569 3.0752327,3.0752327 0 0 1 -1.217521,3.34389 1.5034702,1.5034702 0 0 1 -1.2813868,0.20455 l 0.5899382,-1.61939 0.8321076,-0.36788 a 0.09248992,0.09248992 0 0 0 -0.07521,-0.169 l -0.6698169,0.29626 0.4611241,-1.26645 a 0.09246204,0.09246204 0 0 0 -0.1736338,-0.0634 l -0.4605965,1.26645 -0.3225495,-0.65745 a 0.09248801,0.09248801 0 0 0 -0.1659045,0.0814 l 0.4003444,0.81665 -0.5889357,1.61991 a 1.5034702,1.5034702 0 0 1 -0.8243781,-0.89703 3.2598934,3.2598934 0 0 0 0.483811,-2.74827 3.0752327,3.0752327 0 0 1 0.7079364,-0.67908 1.5034702,1.5034702 0 0 1 0.8475662,-0.26689 z m -6.8454249,5.2e-4 a 1.5034702,1.5034702 0 0 1 0.8589097,0.26638 v 0 a 3.0752327,3.0752327 0 0 1 0.7074087,0.67908 3.2598934,3.2598934 0 0 0 0.4838111,2.74827 1.5034702,1.5034702 0 0 1 -0.8243782,0.89703 l -0.5899381,-1.6199 0.4008456,-0.81665 a 0.09233037,0.09233037 0 0 0 -0.1653769,-0.0814 l -0.3225495,0.65744 -0.4611241,-1.26645 a 0.09233037,0.09233037 0 0 0 -0.1731326,0.0634 l 0.4606229,1.26646 -0.6692895,-0.29627 a 0.09248992,0.09248992 0 0 0 -0.07521,0.169 l 0.8315799,0.36788 0.5899382,1.6199 a 1.5034702,1.5034702 0 0 1 -1.2818882,-0.20506 3.0752327,3.0752327 0 0 1 -1.2164919,-3.34388 1.5034702,1.5034702 0 0 1 1.4457614,-1.10519 z m 2.1851164,3.86015 a 1.6881309,1.6881309 0 0 0 1.1505153,0.54358 v 5.98344 l -2.0465154,-5.62278 a 1.6881309,1.6881309 0 0 0 0.8960001,-0.90424 z m 2.4865355,0 a 1.6881309,1.6881309 0 0 0 0.8954725,0.90424 l -2.0465154,5.62278 v -5.98344 a 1.6881309,1.6881309 0 0 0 1.1510429,-0.54358 z" fill="#000000" stroke="none"></path></g></svg>