<svg height='100px' width='100px'  fill="#000000" xmlns="http://www.w3.org/2000/svg" xmlns:xlink="http://www.w3.org/1999/xlink" version="1.1" x="0px" y="0px" viewBox="0 0 100 100" enable-background="new 0 0 100 100" xml:space="preserve"><g><path fill="none" d="M48.748,18.766c0.072-2.536-0.491-5.039-1.278-7.495c-0.428,1.85-0.757,3.758-0.826,5.65   c-0.088,2.393-0.032,4.872,0.859,7.001C48.298,22.228,48.696,20.571,48.748,18.766z"></path><path fill="none" d="M40.749,24.361c0.659,0.015,1.264,0.004,1.854-0.018c-2.951-1.654-6.31-2.015-8.721-1.996   c-2.226,0.018-4.464,0.333-6.681,0.76c1.484,0.525,3.01,0.968,4.565,1.333C34.886,24.228,37.954,24.296,40.749,24.361z"></path><path fill="none" d="M74.194,24.482c-3.102-1.25-6.386-1.535-9.742-1.248c0,0-0.001,0-0.001,0   c-4.687,0.401-9.517,1.927-14.202,3.568c-0.164,0.058-0.344,0.077-0.51,0.081c-0.501-0.011-0.975-0.011-1.432,0   c-1.042,0.025-1.994,0.098-2.946,0.173c-1.428,0.11-2.901,0.22-4.679,0.181c-1.355-0.032-2.779-0.066-4.239-0.066   c-5.648,0-11.848,0.504-16.79,3.552c-4.967,3.064-8.581,8.834-9.667,15.433c-0.94,5.709-0.159,12.075,2.319,18.924   c3.561,9.836,9.64,17.673,17.115,22.064c10.608,6.235,23.275,5.49,32.034,3.768c3.727-0.733,8.489-1.937,12.252-4.771   c4.071-3.062,6.771-7.893,9.154-12.155c3.298-5.898,7.037-12.585,7.492-19.682c0.278-4.323-0.619-8.991-2.743-14.271   C85.387,34.509,81.256,27.327,74.194,24.482z"></path><path d="M90.277,38.96c-2.43-6.043-7.007-13.923-15.009-17.146c-1.917-0.773-3.892-1.211-5.893-1.411   c0.131-0.081,0.262-0.161,0.393-0.242c0.573-0.357,0.822-1.063,0.598-1.699c-0.223-0.635-0.861-1.035-1.529-0.951   c-5.507,0.666-11.353,2.339-17.789,5.092c0.343-1.225,0.538-2.47,0.575-3.755c0.131-4.608-1.54-9.023-3.015-12.917   c-0.219-0.581-0.786-0.972-1.406-0.927c-0.62,0.027-1.153,0.448-1.322,1.045c-0.923,3.262-1.97,6.96-2.109,10.769   c-0.06,1.649-0.049,3.343,0.206,5.004c-3.484-1.939-7.344-2.361-10.117-2.35c-4.046,0.032-7.968,0.933-11.761,1.802   c-0.595,0.136-1.039,0.635-1.107,1.241c-0.068,0.607,0.255,1.191,0.805,1.456c1.098,0.528,2.233,0.998,3.384,1.438   c-2.447,0.6-4.829,1.505-7.036,2.866C12.476,31.771,8.366,38.28,7.147,45.69c-1.02,6.199-0.195,13.051,2.453,20.369   c3.789,10.465,10.311,18.834,18.363,23.565C34.873,93.686,42.53,95.001,49.55,95c4.545,0,8.824-0.551,12.458-1.265   c4.029-0.792,9.197-2.111,13.427-5.296c4.555-3.427,7.414-8.539,9.935-13.048c3.447-6.167,7.354-13.155,7.851-20.901   C93.528,49.727,92.564,44.648,90.277,38.96z M46.644,16.921c0.069-1.892,0.398-3.8,0.826-5.65c0.787,2.456,1.35,4.959,1.278,7.495   c-0.052,1.805-0.45,3.462-1.244,5.155C46.612,21.793,46.556,19.314,46.644,16.921z M27.201,23.107   c2.217-0.427,4.455-0.742,6.681-0.76c2.411-0.019,5.77,0.342,8.721,1.996c-0.59,0.022-1.195,0.033-1.854,0.018   c-2.794-0.066-5.863-0.133-8.983,0.079C30.211,24.075,28.684,23.632,27.201,23.107z M90.351,54.304   c-0.455,7.098-4.193,13.784-7.492,19.682c-2.383,4.262-5.083,9.093-9.154,12.155c-3.764,2.834-8.525,4.038-12.252,4.771   c-8.759,1.722-21.426,2.467-32.034-3.768c-7.475-4.391-13.554-12.228-17.115-22.064c-2.479-6.849-3.259-13.215-2.319-18.924   c1.086-6.599,4.7-12.368,9.667-15.433c4.942-3.047,11.142-3.552,16.79-3.552c1.461,0,2.884,0.034,4.239,0.066   c1.779,0.039,3.252-0.072,4.679-0.181c0.951-0.074,1.904-0.147,2.946-0.173c0.457-0.011,0.932-0.011,1.432,0   c0.166-0.004,0.345-0.024,0.51-0.081c4.685-1.641,9.514-3.166,14.202-3.568c0,0,0.001,0,0.001,0   c3.357-0.287,6.64-0.003,9.743,1.248c7.062,2.845,11.193,10.027,13.415,15.551C89.732,45.313,90.629,49.981,90.351,54.304z"></path></g></svg>