<svg height='100px' width='100px'  fill="#000000" xmlns="http://www.w3.org/2000/svg" data-name="Layer 1" viewBox="0 0 100 100" x="0px" y="0px"><title>Icons_MinimalFood_Vineta</title><path d="M55.0742,20.9463l8.8731-8.8086a2.25,2.25,0,1,0-3.17-3.1934L52.25,17.41V4.2656a2.25,2.25,0,1,0-4.5,0V8.4209L41.94,2.6533a2.25,2.25,0,1,0-3.17,3.1934l8.9805,8.914v5.8809c-12.5967.8311-22.5,8.5605-22.5,17.9463a35.6968,35.6968,0,0,0,.3262,4.05c.0019.0093.0019.02.0039.0293A185.3947,185.3947,0,0,0,31.94,71.1C37.4453,88.9492,43.5215,98,50,98s12.5547-9.0508,18.0605-26.9C72.2051,57.6606,74.75,43.1064,74.75,38.5879,74.75,29.916,66.2959,22.6562,55.0742,20.9463ZM50,93.5c-2.7129,0-7.0449-4.7319-11.6836-17.5122H47.125a2.25,2.25,0,0,0,0-4.5H36.7813c-.1807-.56-.36-1.13-.5411-1.7149a190.3721,190.3721,0,0,1-5.8759-25.312H46.3164a2.25,2.25,0,0,0,0-4.5H29.8125c-.041-.5346-.0625-.9965-.0625-1.373,0-7.457,9.084-13.5239,20.25-13.5239s20.25,6.0669,20.25,13.5239c0,2.9517-1.2881,11.0317-3.4658,20.0859h-11.57a2.25,2.25,0,1,0,0,4.5H65.6465c-.585,2.2017-1.2149,4.42-1.8867,6.5991C58.3643,87.2671,53.1143,93.5,50,93.5Z"></path></svg>