<svg height='100px' width='100px'  fill="#000000" xmlns="http://www.w3.org/2000/svg" xmlns:xlink="http://www.w3.org/1999/xlink" version="1.1" x="0px" y="0px" viewBox="0 0 100 100" style="enable-background:new 0 0 100 100;" xml:space="preserve"><path d="M87.975,72.017c-1.459-3.327-4.755-5.476-8.39-5.476c-0.207,0-0.421,0.002-0.641,0.011c0.502-0.843,0.865-1.768,1.076-2.75  c0.364-1.702,0.247-3.453-0.333-5.05l-0.063-0.183c-0.112-0.323-0.381-0.566-0.713-0.645c-2.68-0.639-5.454-0.035-7.597,1.551  c0.008-0.15,0.013-0.302,0.016-0.454c0.03-2.322-0.584-4.583-1.774-6.539c-0.069-0.113-0.16-0.212-0.268-0.29l-0.135-0.098  c-0.161-0.117-0.353-0.183-0.551-0.19c-4.816-0.169-9.341,2.523-11.46,6.878c-1.017,2.089-2.211,7.738-0.993,12.824h-4.596V49.793  c7.455,2.071,15.504,0.121,18.163-1.17c6.004-2.916,9.726-9.115,9.479-15.793c-0.007-0.199-0.073-0.392-0.19-0.552l-0.138-0.189  c-0.078-0.107-0.176-0.197-0.289-0.266c-2.698-1.641-5.825-2.486-9.008-2.445c-0.524,0.008-1.045,0.04-1.561,0.095  c2.598-3.011,3.65-7.137,2.704-11.107c-0.079-0.331-0.32-0.599-0.641-0.711l-0.251-0.088c-2.208-0.803-4.601-0.962-6.919-0.465  c-1.608,0.346-3.105,0.991-4.434,1.902c0.051-0.587,0.063-1.156,0.063-1.689c0-4.964-2.934-9.469-7.474-11.477  c-0.127-0.056-0.265-0.085-0.404-0.085h-0.146c-0.14,0-0.277,0.029-0.404,0.085c-4.54,2.008-7.474,6.513-7.474,11.477  c0,0.534,0.013,1.103,0.062,1.689c-1.327-0.91-2.824-1.555-4.433-1.901c-2.319-0.498-4.711-0.337-6.909,0.461l-0.261,0.092  c-0.32,0.113-0.562,0.381-0.641,0.711c-0.946,3.97,0.106,8.097,2.704,11.107c-0.517-0.055-1.038-0.087-1.564-0.095  c-3.187-0.044-6.305,0.805-9.007,2.445c-0.115,0.07-0.216,0.164-0.295,0.274l-0.135,0.189c-0.113,0.159-0.178,0.348-0.185,0.543  c-0.249,6.677,3.472,12.876,9.479,15.793c2.028,0.985,6.468,2.09,11.366,2.09c2.214,0,4.517-0.247,6.738-0.812v21.705h-5.703  c1.218-5.085,0.023-10.734-0.993-12.824c-2.118-4.355-6.652-7.057-11.46-6.878c-0.198,0.007-0.39,0.073-0.551,0.19l-0.135,0.098  c-0.107,0.078-0.198,0.176-0.268,0.29c-1.19,1.956-1.805,4.217-1.774,6.542c0.003,0.151,0.008,0.302,0.016,0.452  c-2.143-1.587-4.918-2.191-7.597-1.552c-0.332,0.079-0.601,0.322-0.713,0.645l-0.058,0.169c-0.586,1.611-0.703,3.362-0.339,5.065  c0.211,0.981,0.574,1.906,1.076,2.749c-0.22-0.008-0.434-0.011-0.641-0.011c-3.635,0-6.931,2.149-8.397,5.476  c-0.056,0.127-0.085,0.264-0.085,0.403v0.101c0,0.139,0.029,0.276,0.085,0.403c1.466,3.323,4.762,5.471,8.397,5.471  c0.207,0,0.422-0.002,0.642-0.011c-0.502,0.844-0.866,1.77-1.077,2.752c-0.364,1.699-0.247,3.45,0.333,5.05l0.063,0.183  c0.112,0.323,0.381,0.566,0.713,0.645c2.684,0.641,5.455,0.036,7.597-1.549c-0.008,0.15-0.013,0.301-0.016,0.452  c-0.03,2.325,0.584,4.586,1.775,6.54c0.071,0.117,0.166,0.219,0.278,0.297l0.135,0.095c0.158,0.111,0.345,0.174,0.538,0.181  c0.152,0.005,0.305,0.008,0.457,0.008c4.668,0,8.952-2.666,11.004-6.886c0.9-1.85,2.255-7.329,0.994-12.545h5.702v19.642  c0,0.552,0.447,1,1,1c0.553,0,1-0.448,1-1V73.606h4.595c-1.261,5.217,0.094,10.696,0.994,12.545  c2.052,4.222,6.336,6.887,11.004,6.887c0.151,0,0.305-0.003,0.457-0.008c0.193-0.007,0.38-0.07,0.538-0.181l0.135-0.095  c0.112-0.079,0.207-0.18,0.278-0.297c1.191-1.953,1.806-4.215,1.775-6.543c-0.003-0.15-0.008-0.3-0.016-0.449  c2.143,1.587,4.917,2.19,7.597,1.55c0.332-0.079,0.601-0.322,0.713-0.645l0.059-0.169c0.585-1.614,0.702-3.365,0.338-5.064  c-0.211-0.981-0.575-1.907-1.077-2.751c0.221,0.008,0.435,0.011,0.642,0.011c3.636,0,6.932-2.147,8.397-5.471  c0.056-0.127,0.085-0.264,0.085-0.403V72.42C88.06,72.281,88.031,72.144,87.975,72.017z M41.58,72.933  c1.58,4.721,0.44,10.368-0.521,12.344c-1.705,3.507-5.251,5.73-9.125,5.76c-0.852-1.543-1.287-3.295-1.264-5.092  c0.022-1.374,0.304-2.689,0.838-3.912c0.009-0.019,0.018-0.039,0.027-0.058c0.015-0.032,0.033-0.081,0.045-0.114  c0.173-0.505-0.082-1.058-0.579-1.254c-0.497-0.196-1.062,0.033-1.279,0.521c-0.012,0.024-0.022,0.049-0.033,0.073  c-0.207,0.434-0.461,0.849-0.757,1.236c-1.606,2.114-4.247,3.154-6.849,2.736c-0.356-1.164-0.408-2.407-0.148-3.619  c0.318-1.482,1.084-2.801,2.214-3.815c0.027-0.024,0.053-0.05,0.077-0.077l0.105-0.118c0.312-0.349,0.341-0.868,0.068-1.249  c-0.271-0.381-0.772-0.522-1.203-0.34c-0.725,0.306-1.556,0.437-2.781,0.437c-2.713,0-5.184-1.528-6.4-3.924  c1.218-2.4,3.688-3.93,6.4-3.93c1.226,0,2.057,0.131,2.779,0.439c0.428,0.181,0.927,0.044,1.202-0.334  c0.273-0.378,0.249-0.895-0.06-1.246l-0.105-0.12c-0.026-0.03-0.054-0.059-0.084-0.085c-1.128-1.01-1.894-2.328-2.213-3.811  c-0.259-1.21-0.208-2.45,0.149-3.619c2.597-0.417,5.241,0.624,6.853,2.746c0.111,0.144,0.218,0.295,0.318,0.448  c0.291,0.448,0.85,0.635,1.338,0.416c0.009-0.004,0.018-0.008,0.027-0.012c0.486-0.219,0.745-0.768,0.575-1.274  c-0.331-0.986-0.507-2.023-0.524-3.093c-0.023-1.799,0.413-3.552,1.266-5.099c3.873,0.034,7.419,2.257,9.123,5.761  c0.95,1.952,2.12,7.845,0.521,12.625c-0.005,0.015-0.01,0.029-0.014,0.043C41.505,72.533,41.515,72.744,41.58,72.933z   M51.095,47.573c-0.104-0.035-0.211-0.052-0.318-0.052c-0.107,0-0.215,0.017-0.318,0.052c-6.849,2.3-15.324,0.616-18.137-0.749  c-5.164-2.509-8.411-7.77-8.363-13.49c2.301-1.316,4.92-2.003,7.604-1.957c1.979,0.031,3.888,0.44,5.679,1.217  c0.029,0.014,0.059,0.028,0.089,0.042c0.04,0.019,0.107,0.043,0.15,0.056c0.504,0.16,1.046-0.104,1.235-0.6  c0.188-0.496-0.044-1.052-0.528-1.268c-0.038-0.017-0.076-0.034-0.114-0.05c-0.639-0.308-1.246-0.681-1.81-1.11  c-3.174-2.415-4.7-6.413-3.979-10.31c1.781-0.594,3.694-0.699,5.557-0.299c2.18,0.469,4.118,1.594,5.604,3.251  c0.025,0.029,0.054,0.057,0.083,0.083l0.169,0.149c0.35,0.309,0.868,0.333,1.247,0.06c0.379-0.274,0.518-0.773,0.334-1.203  c-0.569-1.33-0.647-2.748-0.647-4.082c0-4.051,2.324-7.738,5.951-9.494c3.626,1.756,5.95,5.443,5.95,9.494  c0,1.267-0.077,2.742-0.647,4.083c-0.184,0.43-0.044,0.929,0.335,1.202c0.377,0.273,0.896,0.249,1.246-0.061l0.169-0.149  c0.029-0.026,0.058-0.053,0.083-0.083c1.486-1.657,3.425-2.782,5.604-3.251c1.858-0.398,3.77-0.294,5.557,0.299  c0.722,3.897-0.805,7.896-3.979,10.311c-0.568,0.434-1.184,0.81-1.771,1.093c-0.051,0.022-0.102,0.044-0.152,0.067  c-0.49,0.219-0.721,0.786-0.521,1.284c0.199,0.499,0.758,0.749,1.263,0.572c0.03-0.011,0.083-0.031,0.112-0.045  c0.021-0.01,0.041-0.02,0.062-0.029c1.799-0.785,3.719-1.199,5.705-1.23c2.675-0.035,5.31,0.641,7.608,1.958  c0.044,5.721-3.203,10.981-8.364,13.488C66.284,48.065,58.265,49.98,51.095,47.573z M79.585,76.395  c-1.226,0-2.057-0.131-2.781-0.437c-0.429-0.182-0.932-0.041-1.205,0.342c-0.271,0.382-0.241,0.902,0.074,1.25l0.106,0.118  c0.022,0.025,0.047,0.05,0.073,0.073c1.129,1.014,1.895,2.333,2.213,3.814c0.259,1.208,0.208,2.448-0.149,3.62  c-2.599,0.418-5.241-0.623-6.849-2.739c-0.288-0.377-0.538-0.783-0.716-1.142c-0.023-0.055-0.048-0.11-0.073-0.165  c-0.218-0.488-0.78-0.708-1.276-0.513c-0.497,0.196-0.749,0.758-0.576,1.263c0.012,0.033,0.024,0.065,0.039,0.097  c0.01,0.019,0.019,0.039,0.027,0.058c0.534,1.223,0.815,2.538,0.838,3.909c0.023,1.8-0.412,3.553-1.264,5.096  c-3.874-0.03-7.42-2.253-9.125-5.761c-0.962-1.976-2.102-7.623-0.521-12.344c0.065-0.189,0.075-0.4,0.015-0.606  c-0.004-0.015-0.009-0.029-0.014-0.043c-1.6-4.781-0.43-10.673,0.521-12.625c1.704-3.504,5.25-5.727,9.123-5.761  c0.853,1.546,1.289,3.3,1.266,5.095c-0.022,1.405-0.317,2.75-0.876,3.997c-0.024,0.054-0.044,0.109-0.058,0.166  c-0.118,0.468,0.117,0.965,0.574,1.162c0.499,0.215,1.083-0.01,1.308-0.51c0.005-0.01,0.009-0.02,0.014-0.029  c0.214-0.455,0.474-0.881,0.776-1.274c1.607-2.116,4.245-3.158,6.849-2.739c0.356,1.162,0.408,2.405,0.148,3.618  c-0.319,1.483-1.084,2.802-2.212,3.812c-0.029,0.025-0.056,0.053-0.081,0.082l-0.106,0.12c-0.311,0.35-0.337,0.868-0.063,1.248  s0.773,0.518,1.203,0.336c0.723-0.308,1.554-0.439,2.779-0.439c2.712,0,5.183,1.53,6.4,3.93  C84.769,74.867,82.298,76.395,79.585,76.395z"></path></svg>