<svg height="100" width="100" xmlns="http://www.w3.org/2000/svg" viewBox="0 0 48 48"><g data-name="28-parsley"><path d="M23 31h2v16h-2zM23 10h2v10h-2z"/><path d="M24 18c-2.266 0-6.659-2.083-8.895-6.553A1 1 0 0116 10h.968A5.932 5.932 0 0116 7a1 1 0 011-1c2.307 0 5 .786 5 3h-2c0-.41-.84-.726-1.752-.885a7.524 7.524 0 001.46 2.179A1 1 0 0119 12h-1.229c2.006 2.776 4.953 4 6.229 4s4.223-1.224 6.229-4H29a1 1 0 01-.708-1.706 7.524 7.524 0 001.461-2.181C28.834 8.271 28 8.585 28 9h-2c0-2.214 2.693-3 5-3a1 1 0 011 1 5.932 5.932 0 01-.968 3H32a1 1 0 01.9 1.447C30.659 15.917 26.266 18 24 18z"/><path d="M28.97 8.242l-1.94-.484.545-2.181a2.638 2.638 0 00-.68.87A1 1 0 0125.02 6.2 22.6 22.6 0 0024 2.576 22.6 22.6 0 0022.98 6.2a1 1 0 01-1.875.251 2.671 2.671 0 00-.681-.875l.546 2.186-1.94.484-1-4A1 1 0 0119 3a4.589 4.589 0 012.468.853C22.494 0 23.525 0 24 0s1.506 0 2.532 3.853A4.589 4.589 0 0129 3a1 1 0 01.97 1.242zM38.862 32c-3.154 0-6.092-.59-7.18-1.678-1.858-1.857-2.262-9.111-.76-13.617a1 1 0 01.919-.683 1.031 1.031 0 01.958.628l.776 1.942A7.993 7.993 0 0135.2 15.3a1 1 0 01.707-.293c.328 0 1.176.14 1.658 1.492l1.577-2.1a1 1 0 01.774-.4 1.036 1.036 0 01.794.36 4.747 4.747 0 01.941 2.6l3.913-1.859a1 1 0 011.336 1.338l-1.859 3.913a4.747 4.747 0 012.6.941 1 1 0 01-.04 1.568l-2.245 1.684a4.317 4.317 0 011.343.844 1 1 0 010 1.414 7.993 7.993 0 01-3.286 1.623l1.942.776a1 1 0 01-.055 1.877 21.192 21.192 0 01-6.438.922zm-6.706-11.57c-.447 3.776.185 7.723.94 8.478s4.7 1.387 8.478.94l-2.006-.8a1 1 0 01.25-1.922 19.494 19.494 0 004.053-.946 4.6 4.6 0 00-.905-.087 1 1 0 01-.6-1.8l2.582-1.937a3.441 3.441 0 00-1.284.174 1 1 0 01-1.22-1.377l1.439-3.029-3.029 1.439a1 1 0 01-1.377-1.22 3.315 3.315 0 00.173-1.284l-1.936 2.582a1 1 0 01-1.8-.6 9.205 9.205 0 00-.049-1.007 19.109 19.109 0 00-.984 4.154 1 1 0 01-1.922.251zM9.138 31a21.192 21.192 0 01-6.438-.922 1 1 0 01-.054-1.878l1.942-.776A7.993 7.993 0 011.3 25.8a1 1 0 010-1.414 4.317 4.317 0 011.343-.844L.4 21.86a1 1 0 01-.04-1.568 4.756 4.756 0 012.6-.941l-1.855-3.913a1 1 0 011.332-1.333l3.914 1.859a4.747 4.747 0 01.941-2.6 1 1 0 011.568.04l1.577 2.1c.482-1.352 1.33-1.492 1.658-1.492a1 1 0 01.707.293 7.993 7.993 0 011.623 3.286l.776-1.942a1.031 1.031 0 01.958-.628 1 1 0 01.919.683c1.5 4.506 1.1 11.76-.76 13.617C15.23 30.406 12.291 31 9.138 31zm-2.712-2.156c3.779.45 7.724-.185 8.478-.94s1.387-4.7.94-8.478l-.8 2.006a1 1 0 01-1.922-.25 19.191 19.191 0 00-.984-4.153 9.165 9.165 0 00-.049 1 1 1 0 01-1.8.6l-1.94-2.577a3.337 3.337 0 00.174 1.284 1 1 0 01-1.377 1.22l-3.029-1.439 1.439 3.029a1 1 0 01-1.22 1.377 3.327 3.327 0 00-1.284-.173l2.582 1.936a1 1 0 01-.6 1.8 4.525 4.525 0 00-.906.088 19.439 19.439 0 004.053.945 1 1 0 01.251 1.922zM25.119 29.994a8.735 8.735 0 01-5.826-2.894 1 1 0 01.27-1.608l.8-.389a3.594 3.594 0 01-.818-4.092 1 1 0 01.465-.465 3.6 3.6 0 014.092.818l.389-.8a1 1 0 01.734-.549 1.015 1.015 0 01.874.279c3.015 3.016 3.771 6.636 1.8 8.608a3.822 3.822 0 01-2.78 1.092zM21.8 26.637c1.845 1.387 3.763 1.782 4.692.85s.536-2.848-.85-4.692l-.4.822a1 1 0 01-.851.563.988.988 0 01-.9-.477c-.01-.015-1.054-1.668-2.251-1.467-.207 1.207 1.45 2.239 1.468 2.25a1 1 0 01-.086 1.753zM33.6 43a1 1 0 01-.707-.293c-3.015-3.016-3.771-6.636-1.8-8.608s5.592-1.217 8.608 1.8a1 1 0 01-.27 1.608l-.8.389a3.594 3.594 0 01.818 4.092 1 1 0 01-.465.465 3.6 3.6 0 01-4.092-.818l-.389.8a1 1 0 01-.734.549A1.036 1.036 0 0133.6 43zm1.057-4.181a1 1 0 01.853.478c.01.015 1.061 1.67 2.251 1.467.207-1.207-1.45-2.239-1.468-2.25a1 1 0 01.086-1.753l.822-.4c-1.844-1.385-3.761-1.781-4.692-.85s-.536 2.848.85 4.692l.4-.822a1 1 0 01.851-.563zM16.4 41a1.036 1.036 0 01-.167-.014 1 1 0 01-.734-.549l-.389-.8a3.592 3.592 0 01-4.092.818 1 1 0 01-.465-.465 3.594 3.594 0 01.818-4.092l-.8-.389a1 1 0 01-.27-1.608c3.015-3.015 6.637-3.772 8.608-1.8s1.217 5.592-1.8 8.608A1 1 0 0116.4 41zm-4.16-2.235c1.214.216 2.239-1.45 2.25-1.468a1 1 0 011.753.086l.4.822c1.386-1.844 1.78-3.762.85-4.692s-2.848-.536-4.692.85l.822.4a1 1 0 01.086 1.753c-.022.007-1.672 1.052-1.473 2.249z"/><path d="M24.9 40.447l-1.79-.894a49.207 49.207 0 0115.34-17.385l1.11 1.664A47.009 47.009 0 0024.9 40.447z"/><path d="M25 37h-2c0-2.995-9.036-10.256-15.515-14.143l1.03-1.714C8.68 21.241 25 31.29 25 37z"/><path d="M15.294 34.292l4-4 1.414 1.414-4 4zM27.445 33.832l1.11-1.664 6 4-1.11 1.664z"/><path d="M30 33h-2c0-3.536-1.581-6-3-6v-2c2.8 0 5 3.514 5 8z"/></g></svg>