<svg height='100px' width='100px'  fill="#000000" xmlns="http://www.w3.org/2000/svg" xmlns:xlink="http://www.w3.org/1999/xlink" version="1.1" x="0px" y="0px" viewBox="0 0 100 100" enable-background="new 0 0 100 100" xml:space="preserve"><g><path d="M45.4,22.5c-2.8,0-5.4,1.1-7.3,3c-1.6,1.6-2.7,3.5-3.4,5.7l-1.3,3.9c-0.5,1.4-1.5,4.4-2.3,5.3l-6,6   c-3.3,3.3-5.7,7.3-6.8,11.6c-2.1,7.9-0.1,16.3,5.2,22.5l7.9,9.3c1.3,1.6,2.9,2.8,4.8,3.7c2.1,1.1,4.5,1.6,6.8,1.6h0.6   c1.3,0,2.7-0.4,4.1-1.1c1.4-0.7,3.2-0.7,4.6,0c1.4,0.7,2.8,1.1,4.1,1.1H57c2.4,0,4.7-0.6,6.8-1.6c1.8-0.9,3.4-2.2,4.8-3.7l7.9-9.3   c5.3-6.2,7.2-14.6,5.2-22.5c-1.1-4.2-3.5-8.2-6.8-11.6l-6-6c-0.9-0.9-1.9-3.8-2.3-5.3l-1.3-3.9c-0.7-2.1-1.9-4.1-3.4-5.7   c-1.8-1.9-4.4-3-7.3-3c-0.7,0-1.4,0.1-2.1,0.2c0.3-5.5,3.6-10.4,8.6-13l-2.2-4.5c-4.2,2.1-7.5,5.5-9.4,9.6C45.3,8.7,38.3,5,30.9,5   c-2.5,0-5,0.4-7.4,1.3l-3.1,1.1l1.8,2.7c4.2,6.2,11.2,10,18.7,10c2.4,0,4.8-0.4,7.2-1.2c-0.3,1.3-0.5,2.6-0.6,3.9   C46.8,22.6,46.1,22.5,45.4,22.5z M28.8,10.1C34,9.5,39.3,11.3,43,14.9C37.7,15.5,32.5,13.7,28.8,10.1z M52.4,27.9   c0.7-0.2,1.5-0.4,2.2-0.4c1,0,2.5,0.3,3.7,1.5c1,1.1,1.8,2.4,2.3,3.8l1.3,3.9c1,2.9,2,5.7,3.5,7.2l6,6c2.7,2.7,4.6,5.9,5.5,9.3   c1.6,6.3,0.1,13-4.1,17.9l-8,9.3c-0.9,1-2,1.9-3.2,2.5c-1.4,0.7-3,1.1-4.6,1.1h-0.6c-0.5,0-1.2-0.2-1.8-0.5c-1.4-0.7-3-1.1-4.6-1.1   s-3.2,0.4-4.6,1.1c-0.7,0.3-1.3,0.5-1.8,0.5H43c-1.6,0-3.2-0.4-4.6-1.1c-1.2-0.6-2.3-1.5-3.2-2.5l-7.9-9.3   c-4.2-4.9-5.8-11.6-4.1-17.9c0.9-3.4,2.8-6.6,5.5-9.3l6-6c1.6-1.6,2.6-4.3,3.5-7.2l1.3-3.9c0.5-1.4,1.3-2.7,2.3-3.8   c1.1-1.2,2.6-1.5,3.7-1.5c0.7,0,1.5,0.1,2.2,0.4C49.1,28.4,50.9,28.4,52.4,27.9z"></path><path d="M44.1,34.6l-1.2,3.7c-1.1,3.4-2.4,6.9-4.7,9.2c-1,1-1,2.6,0,3.5c0.5,0.5,1.1,0.7,1.8,0.7s1.3-0.2,1.8-0.7   c3.1-3.1,4.7-7.2,6-11.2l1.2-3.7c0.4-1.3-0.3-2.7-1.6-3.2C46,32.5,44.6,33.3,44.1,34.6z"></path><path d="M32.8,61.7c0.3-1.3-0.5-2.7-1.8-3c-1.3-0.3-2.7,0.5-3,1.8c-1.2,4.7-0.1,9.7,3.1,13.4c0.5,0.6,1.2,0.9,1.9,0.9   c0.6,0,1.2-0.2,1.6-0.6c1-0.9,1.2-2.5,0.3-3.5C32.8,68.2,32,64.9,32.8,61.7z"></path></g></svg>