<svg height='100px' width='100px'  fill="#000000" xmlns="http://www.w3.org/2000/svg" xmlns:xlink="http://www.w3.org/1999/xlink" version="1.2" baseProfile="tiny" x="0px" y="0px" viewBox="0 0 100 100" xml:space="preserve"><path d="M68.875,29.875c-4.5844727,0-8.4887695,2.9245605-9.9750366,7.0014648  c-0.605896-1.9624634-1.2608032-6.4024048-1.300354-12.3215942c0.1394653-1.807312,0.2360229-3.6409302,0.2901001-5.4963379  c9.9506836-0.6460571,13.4143677-7.1430054,13.5614624-7.4296265l0.4736328-0.9262695l-0.9453125-0.4365234  c-0.1806641-0.0849609-4.4951172-2.0356445-8.8378906-0.375c-1.9069214,0.7280273-3.4989014,2.0375977-4.769104,3.8837891  C54.0581055,4.298584,44.0953979,5.9980469,43.9892578,6.0166016l-1.125,0.2080078l0.3823242,1.0927734  c0.1099854,0.3285522,2.7692261,7.8442383,12.5883179,10.1972656c-0.3525391,7.4014893-3.2250977,14.1410522-6.4804688,15.6620483  C49.4418335,32.6290894,49.5,32.0718384,49.5,31.5c0-5.8583984-4.7666016-10.625-10.625-10.625S28.25,25.6416016,28.25,31.5  s4.7666016,10.625,10.625,10.625c4.4644775,0,8.2877808-2.7717285,9.8577881-6.6817017  c2.5469971-0.305603,4.6710815-2.1859131,6.2295532-5.1504517c-1.0334473,7.6453247-2.8477173,14.687439-5.269043,20.7789307  c-1.6584473,1.9703369-3.8125,3.2503662-6.3654175,3.578125C42.4484863,49.671936,38.1013184,45.875,32.875,45.875  c-5.8583984,0-10.625,4.7666016-10.625,10.625s4.7666016,10.625,10.625,10.625  c5.8102417,0,10.5403442-4.6901245,10.6177979-10.4823608c1.6190186-0.2030029,3.1065063-0.7520752,4.4533691-1.5631714  c-5.4448242,11.4389038-13.1845703,18.6559448-21.6776123,18.8058472C24.354126,72.026001,21.7480469,70.875,18.875,70.875  c-5.8583984,0-10.625,4.7666016-10.625,10.625s4.7666016,10.625,10.625,10.625S29.5,87.3583984,29.5,81.5  c0-2.0986938-0.619751-4.0518188-1.6742554-5.701355c1.7828369-0.1831665,3.5187378-0.6420288,5.2024536-1.3374023  C31.7037964,75.7356567,30.875,77.5214844,30.875,79.5c0,3.859375,3.1401367,7,7,7s7-3.140625,7-7  c0-1.986145-0.8355713-3.77771-2.1689453-5.0530396c1.7340088-1.855957,2.4488525-6.4996948,2.454834-10.3966064  c0.3167114-0.4450684,0.6253052-0.9081421,0.9324951-1.3746948c0.1976318,3.8037109,0.6956787,5.7141113,1.1333008,6.6748047  C45.9872437,71.0883179,45.25,73.2076416,45.25,75.5c0,5.8583984,4.7666016,10.625,10.625,10.625S66.5,81.3583984,66.5,75.5  s-4.7666016-10.625-10.625-10.625c-2.8483887,0-5.4329224,1.1328735-7.3427734,2.9641113  c-0.2664185-1.2175903-0.5062866-3.9359741-0.5241699-8.3204956c0.300354-0.5368042,0.5973511-1.079834,0.8862305-1.6383057  C49.0936279,61.5625,52.1439819,64.5,55.875,64.5c3.859375,0,7-3.140625,7-7s-3.140625-7-7-7  c-1.625061,0-3.1187744,0.5617065-4.3081055,1.4945068c0.0508423-0.1279297,0.1043091-0.2518311,0.1546631-0.3805542  c2.3091431-3.1184692,3.6511841-7.4384766,3.7056274-12.3108521c0.3686523-1.6524658,0.6955566-3.3457642,0.9868164-5.0698853  c0.4064941,2.4135742,1.0076294,4.4824219,1.8898315,5.2035522C58.2689209,39.7866211,58.25,40.1411133,58.25,40.5  c0,5.8583984,4.7666016,10.625,10.625,10.625S79.5,46.3583984,79.5,40.5S74.7333984,29.875,68.875,29.875z M38.875,40.125  c-4.7558594,0-8.625-3.8691406-8.625-8.625s3.8691406-8.625,8.625-8.625S47.5,26.7441406,47.5,31.5S43.6308594,40.125,38.875,40.125  z M32.875,65.125c-4.7558594,0-8.625-3.8691406-8.625-8.625s3.8691406-8.625,8.625-8.625S41.5,51.7441406,41.5,56.5  S37.6308594,65.125,32.875,65.125z M48,68.3193359c0.0256958,0,0.0414429,0.0012207,0.0654907,0.0014038  C48.0435181,68.3446045,48.0217285,68.3686523,48,68.3927612V68.3193359z M55.875,66.875c4.7558594,0,8.625,3.8691406,8.625,8.625  s-3.8691406,8.625-8.625,8.625S47.25,80.2558594,47.25,75.5S51.1191406,66.875,55.875,66.875z M55.875,52.5  c2.7568359,0,5,2.2431641,5,5s-2.2431641,5-5,5s-5-2.2431641-5-5S53.1181641,52.5,55.875,52.5z M62.8388672,11.765625  c1.0302734-0.3959961,2.0742188-0.5366211,3.0390625-0.5366211c1.2529297,0,2.3710938,0.2373047,3.1474609,0.4619141  c-1.2750854,1.6664429-4.567627,4.9067383-11.100769,5.3769531c0.0008545-0.072876,0.0020142-0.1455688,0.0028076-0.2185059  C59.1015015,14.2835083,60.750061,12.5688477,62.8388672,11.765625z M45.6474609,7.8652344  c2.6005859-0.074707,8.2900391,0.5917969,10.15625,7.6000977C49.5424805,13.8198242,46.7114258,9.8603516,45.6474609,7.8652344z   M18.875,90.125c-4.7558594,0-8.625-3.8691406-8.625-8.625s3.8691406-8.625,8.625-8.625S27.5,76.7441406,27.5,81.5  S23.6308594,90.125,18.875,90.125z M42.875,79.5c0,2.7568359-2.2431641,5-5,5s-5-2.2431641-5-5s2.2431641-5,5-5  S42.875,76.7431641,42.875,79.5z M41.053772,73.2713013C40.0985718,72.7817993,39.0200195,72.5,37.875,72.5  c-0.4737549,0-0.9362793,0.0484619-1.3838501,0.1386108c2.3343506-1.5006104,4.5377197-3.4855957,6.5789185-5.8994751  C42.7861328,70.8962402,41.8752441,73.1761475,41.053772,73.2713013z M68.875,49.125c-4.7558594,0-8.625-3.8691406-8.625-8.625  s3.8691406-8.625,8.625-8.625S77.5,35.7441406,77.5,40.5S73.6308594,49.125,68.875,49.125z"></path><circle cx="33.25" cy="34.5" r="1.8561553"></circle><circle cx="73.25" cy="44.5" r="1.8561553"></circle><circle cx="59.25" cy="80.5" r="1.8561553"></circle><circle cx="29.25" cy="61.5" r="1.8561553"></circle><circle cx="15.25" cy="86.5" r="1.8561553"></circle><circle cx="37.25" cy="81.5" r="1.8561553"></circle><circle cx="58.25" cy="58.5" r="1.8561553"></circle></svg>