<svg height="100" width="100" xmlns="http://www.w3.org/2000/svg"><path fill="none" d="M48.748 18.766c.072-2.536-.491-5.039-1.278-7.495-.428 1.85-.757 3.758-.826 5.65-.088 2.393-.032 4.872.859 7.001.795-1.694 1.193-3.351 1.245-5.156zM40.749 24.361c.659.015 1.264.004 1.854-.018-2.951-1.654-6.31-2.015-8.721-1.996-2.226.018-4.464.333-6.681.76 1.484.525 3.01.968 4.565 1.333 3.12-.212 6.188-.144 8.983-.079zM74.194 24.482c-3.102-1.25-6.386-1.535-9.742-1.248h-.001c-4.687.401-9.517 1.927-14.202 3.568a1.667 1.667 0 01-.51.081 31.058 31.058 0 00-1.432 0 52.584 52.584 0 00-2.946.173c-1.428.11-2.901.22-4.679.181-1.355-.032-2.779-.066-4.239-.066-5.648 0-11.848.504-16.79 3.552-4.967 3.064-8.581 8.834-9.667 15.433-.94 5.709-.159 12.075 2.319 18.924 3.561 9.836 9.64 17.673 17.115 22.064 10.608 6.235 23.275 5.49 32.034 3.768 3.727-.733 8.489-1.937 12.252-4.771 4.071-3.062 6.771-7.893 9.154-12.155 3.298-5.898 7.037-12.585 7.492-19.682.278-4.323-.619-8.991-2.743-14.271-2.222-5.524-6.353-12.706-13.415-15.551z"/><path d="M90.277 38.96c-2.43-6.043-7.007-13.923-15.009-17.146-1.917-.773-3.892-1.211-5.893-1.411l.393-.242a1.439 1.439 0 00-.931-2.65c-5.507.666-11.353 2.339-17.789 5.092.343-1.225.538-2.47.575-3.755.131-4.608-1.54-9.023-3.015-12.917-.219-.581-.786-.972-1.406-.927a1.439 1.439 0 00-1.322 1.045c-.923 3.262-1.97 6.96-2.109 10.769-.06 1.649-.049 3.343.206 5.004-3.484-1.939-7.344-2.361-10.117-2.35-4.046.032-7.968.933-11.761 1.802a1.438 1.438 0 00-.302 2.697c1.098.528 2.233.998 3.384 1.438-2.447.6-4.829 1.505-7.036 2.866C12.476 31.771 8.366 38.28 7.147 45.69c-1.02 6.199-.195 13.051 2.453 20.369 3.789 10.465 10.311 18.834 18.363 23.565C34.873 93.686 42.53 95.001 49.55 95c4.545 0 8.824-.551 12.458-1.265 4.029-.792 9.197-2.111 13.427-5.296 4.555-3.427 7.414-8.539 9.935-13.048 3.447-6.167 7.354-13.155 7.851-20.901.307-4.763-.657-9.842-2.944-15.53zM46.644 16.921c.069-1.892.398-3.8.826-5.65.787 2.456 1.35 4.959 1.278 7.495-.052 1.805-.45 3.462-1.244 5.155-.892-2.128-.948-4.607-.86-7zm-19.443 6.186c2.217-.427 4.455-.742 6.681-.76 2.411-.019 5.77.342 8.721 1.996-.59.022-1.195.033-1.854.018-2.794-.066-5.863-.133-8.983.079a43.416 43.416 0 01-4.565-1.333zm63.15 31.197c-.455 7.098-4.193 13.784-7.492 19.682-2.383 4.262-5.083 9.093-9.154 12.155-3.764 2.834-8.525 4.038-12.252 4.771-8.759 1.722-21.426 2.467-32.034-3.768-7.475-4.391-13.554-12.228-17.115-22.064-2.479-6.849-3.259-13.215-2.319-18.924 1.086-6.599 4.7-12.368 9.667-15.433 4.942-3.047 11.142-3.552 16.79-3.552 1.461 0 2.884.034 4.239.066 1.779.039 3.252-.072 4.679-.181a54.496 54.496 0 012.946-.173c.457-.011.932-.011 1.432 0 .166-.004.345-.024.51-.081 4.685-1.641 9.514-3.166 14.202-3.568h.001c3.357-.287 6.64-.003 9.743 1.248 7.062 2.845 11.193 10.027 13.415 15.551 2.123 5.28 3.02 9.948 2.742 14.271z"/></svg>