<svg height='100px' width='100px'  fill="#000000" xmlns="http://www.w3.org/2000/svg" xmlns:xlink="http://www.w3.org/1999/xlink" version="1.1" x="0px" y="0px" viewBox="0 0 100 100" enable-background="new 0 0 100 100" xml:space="preserve"><path d="M70.161,25.753C70.161,25.752,70.161,25.752,70.161,25.753C70.161,25.752,70.161,25.752,70.161,25.753  c-0.018-0.042-0.037-0.083-0.061-0.121c0-0.001,0-0.001,0-0.001c-0.116-0.199-0.302-0.358-0.534-0.439  c-0.015-0.005-0.029-0.01-0.044-0.015c-2.733-0.831-5.567-1.621-7.779-1.774c-3.334-0.227-7.116-0.123-9.891,2.4  c-1.514,1.378-2.525,3.249-2.848,5.269c-0.127,0.792-0.136,1.559-0.028,2.273c-0.743,0.758-1.305,1.452-1.724,2.029  c-3.243-9.543-9.973-12.993-10.374-13.19c-0.493-0.241-1.092-0.04-1.337,0.454c-0.244,0.494-0.041,1.094,0.452,1.34  c0.509,0.253,12.229,6.339,10.862,25.609c-2.646-1.141-5.916-1.614-8.83-1.248c-2.378,0.299-4.433,1.252-5.787,2.686  c-1.204,1.276-1.954,3.021-2.292,5.332c-0.815,5.59,1.006,13.644,6.933,18.117c2.324,1.755,5.306,2.893,8.622,3.292  c0.854,0.103,1.707,0.153,2.552,0.153c2.538,0,5.005-0.46,7.245-1.361c0.568-0.229,1.129-0.492,1.664-0.781c0,0,0,0,0.001-0.001  c7-3.79,9.344-11.634,9.225-17.198c-0.016-0.749-0.077-1.496-0.184-2.221c-0.338-2.312-1.088-4.056-2.293-5.332  c-1.354-1.434-3.408-2.387-5.787-2.686c-2.996-0.379-6.385,0.129-9.071,1.347c0.321-4.582-0.059-8.472-0.858-11.753  c0.025-0.038,0.055-0.07,0.075-0.112c0.015-0.03,0.497-0.993,1.688-2.334c1.578,2.418,5.157,3.046,7.364,2.854  c4.621-0.412,7.738-4.415,9.802-7.064c1.277-1.639,2.313-3.15,3.167-4.619c0.034-0.056,0.063-0.115,0.086-0.179  c0.013-0.034,0.023-0.07,0.032-0.105C70.261,26.159,70.24,25.943,70.161,25.753z M49.655,51.517c2.332-1.064,5.41-1.52,8.02-1.194  c1.892,0.237,3.562,0.993,4.582,2.074c0.926,0.98,1.488,2.33,1.769,4.248c0.094,0.644,0.148,1.307,0.162,1.974  c0.108,5.002-1.969,12.037-8.178,15.398c-0.469,0.253-0.96,0.483-1.459,0.685c-2.672,1.075-5.717,1.452-8.812,1.077  c-2.965-0.356-5.612-1.36-7.655-2.901c-5.277-3.984-6.892-11.207-6.159-16.232c0.28-1.918,0.843-3.268,1.768-4.248  c1.021-1.081,2.691-1.837,4.582-2.074c0.559-0.069,1.138-0.104,1.727-0.104c2.167,0,4.46,0.461,6.294,1.298  C47.347,51.996,48.602,51.996,49.655,51.517z M50.98,31.386c0.251-1.573,1.039-3.031,2.219-4.104  c1.723-1.566,4.004-1.964,6.374-1.964c0.674,0,1.356,0.032,2.033,0.079c0.782,0.054,1.694,0.21,2.622,0.412  c-6.255,1.215-10.492,3.54-13.274,5.756C50.961,31.507,50.97,31.447,50.98,31.386z M65.346,30.048  c-2.448,3.144-4.934,5.991-8.401,6.301c-1.88,0.17-4.883-0.448-5.719-2.336c2.819-2.543,7.813-5.607,16.08-6.668  C66.73,28.211,66.08,29.105,65.346,30.048z"></path></svg>