<svg height="100" width="100" xmlns="http://www.w3.org/2000/svg" viewBox="0 0 24 24"><g fill="#000" fill-rule="evenodd"><path d="M9.5 23C5.934 23 3 19.437 3 15c0-4.437 2.934-8 6.5-8 2.016 0 3.89 1.142 5.12 3.074a.5.5 0 10.843-.537C14.058 7.33 11.876 6 9.5 6 5.334 6 2 10.049 2 15s3.334 9 7.5 9c2.733 0 5.193-1.761 6.515-4.535a.5.5 0 10-.903-.43C13.948 21.479 11.822 23 9.5 23z"/><path d="M13.5 7c3.566 0 6.5 3.563 6.5 8 0 4.437-2.934 8-6.5 8-.626 0-1.24-.11-1.83-.322a.5.5 0 00-.34.94A6.364 6.364 0 0013.5 24c4.166 0 7.5-4.049 7.5-9s-3.334-9-7.5-9c-.743 0-1.472.13-2.17.382a.5.5 0 00.34.94A5.364 5.364 0 0113.5 7z"/><path d="M12.112 5.716a9.761 9.761 0 01.492-2.14c.456-1.26 1.153-2.172 2.125-2.622a.5.5 0 10-.42-.908c-1.25.579-2.106 1.702-2.645 3.19a10.74 10.74 0 00-.545 2.36 11.429 11.429 0 00-.078 1.083.5.5 0 101 0c0-.186.018-.524.07-.963z"/><path d="M4.149 1.449a.5.5 0 10.702.711c1.705-1.685 6.091-.901 6.454 1.713a.5.5 0 00.99-.137C11.806.208 6.384-.76 4.15 1.449z"/><path d="M4.939 1.56a.5.5 0 00-.878.48c1.92 3.505 5.791 3.989 8.055 2.148a.5.5 0 10-.632-.776C9.682 4.878 6.54 4.486 4.94 1.56z"/></g></svg>