<svg height="100" width="100" xmlns="http://www.w3.org/2000/svg"><path d="M76.266 42.649c-1.628-5.578-4.494-10.792-8.302-15.184a13.078 13.078 0 00-.908-1.035l-.031-.035-.001.001-.036-.039c-7.353-7.352-22.447-4.222-33.65 6.98-11.201 11.202-14.333 26.298-6.98 33.65l.04.036-.001.002c.049.046.102.087.152.133.307.295.624.578.957.84 4.384 3.791 9.584 6.645 15.145 8.269 3.112.907 6.177 1.354 9.131 1.354 7.028 0 13.421-2.529 18.282-7.391l.168-.168c6.903-6.904 9.103-16.895 6.034-27.413zm-47.8 22.204c-6.165-6.188-3.031-19.368 6.993-29.394 6.546-6.545 14.437-10.153 20.849-10.153 3.406 0 6.395 1.02 8.543 3.158.052.056.099.115.15.171 2.79 2.91 3.686 7.431 2.502 12.778-1.257 5.68-4.673 11.53-9.616 16.474s-10.794 8.359-16.474 9.616c-5.35 1.183-9.868.288-12.777-2.501-.056-.052-.115-.099-.17-.149zm39.643 3.088l-.168.168c-6.104 6.105-15.018 8.029-24.452 5.278a37.415 37.415 0 01-6.104-2.384 23.816 23.816 0 004.675-.572c6.23-1.38 12.604-5.082 17.946-10.425 5.343-5.342 9.045-11.716 10.425-17.946a23.92 23.92 0 00.58-4.66 37.334 37.334 0 012.375 6.088c2.752 9.435.829 18.348-5.277 24.453z"/><path d="M43.14 56.558c2.902 0 6.277-1.506 9.095-4.323 4.555-4.555 5.68-10.566 2.561-13.686-1.578-1.578-3.936-2.114-6.637-1.52-2.46.545-4.963 1.994-7.049 4.08s-3.535 4.589-4.08 7.049c-.598 2.702-.059 5.06 1.52 6.637 1.189 1.191 2.799 1.763 4.59 1.763zm-3.18-7.751c.423-1.909 1.584-3.889 3.271-5.576s3.667-2.849 5.576-3.271c.377-.084.88-.164 1.419-.164.84 0 1.768.195 2.448.875 1.865 1.865.692 6.189-2.561 9.443-3.254 3.253-7.578 4.427-9.443 2.561-1.116-1.117-.924-2.903-.71-3.868z"/><ellipse transform="rotate(-45.001 46.672 46.673)" cx="46.672" cy="46.672" rx="4.248" ry="2.708"/></svg>