<svg height="100" width="100" xmlns="http://www.w3.org/2000/svg" data-name="Layer 1"><defs><style>.cls-1{fill:none}</style></defs><path class="cls-1" d="M16 56.3c0 15.63 11.9 28.35 26.54 28.35S69.07 71.93 69.07 56.3 57.17 28 42.53 28 16 40.67 16 56.3zm29.78-14.66a3.56 3.56 0 11-3.56 3.56 3.57 3.57 0 013.56-3.56z"/><path class="cls-1" d="M14 56.3c0-13.79 8.7-25.45 20.56-29.13a18.68 18.68 0 00-12.73.83C14.67 31.17 9.38 38.37 7.49 43.73c-2.69 7.66-3.13 22.78 6.72 33.08C20.43 83.3 26.7 84 30.06 83.59A30.6 30.6 0 0114 56.3zM42.73 15.46c-.88-.48-2.53.87-3.76 3.08-.89 1.6-1.49 5.34-1.74 7.37l.53.21a55.82 55.82 0 003.1-4.69c.53-.88 1-1.7 1.54-2.43a4 4 0 00.92-2.81 1.07 1.07 0 00-.59-.73z"/><circle class="cls-1" cx="45.78" cy="45.21" r="1.56"/><path class="cls-1" d="M80.16 29.46c1.85 2 6.26 6.29 10.2 8.43-1.81-1.66-4-3.9-6.73-6.68-4.4-4.51-9.39-9.63-13.3-12.35A15.35 15.35 0 0062 16.58c5.52 1.47 12 5.02 18.16 12.88z"/><path class="cls-1" d="M78.64 30.75C67.25 16.16 55.06 17.13 51 18l-.43.11c3.21 1 7.26 3 12.47 8.5.83.88 1.79 2.13 2.9 3.58 2.58 3.38 5.8 7.58 9.69 10.13 3.46 2.26 10.58 1.09 15.11 0-5.43-2.38-11.28-8.67-12.1-9.57z"/><path d="M95.41 39.14c-1.72-.48-6.1-5-10.34-9.32-4.46-4.58-9.52-9.77-13.59-12.59-8.46-5.88-24.31-.27-25 0l-1.3.47a4.15 4.15 0 00.06-2 3.05 3.05 0 00-1.56-2c-2-1.1-4.55.42-6.47 3.86-1.06 1.9-1.67 5.74-1.93 7.71A20.62 20.62 0 0021 26.2C13.29 29.57 7.6 37.3 5.57 43.06c-2.82 8.13-3.27 24.18 7.2 35.13 5.87 6.14 11.67 7.45 15.55 7.45a13.9 13.9 0 004.7-.72 26.88 26.88 0 009.5 1.74C58.27 86.64 71.07 73 71.07 56.3S58.27 26 42.53 26c-.76 0-1.52 0-2.27.1.9-1.3 1.63-2.5 2.3-3.6.54-.89 1-1.65 1.47-2.33a8.61 8.61 0 00.81-1.43l2.39.57c3.5.82 7.86 1.85 14.36 8.69.76.8 1.69 2 2.76 3.42 2.54 3.31 6 7.85 10.18 10.58a13 13 0 007 1.6 51.56 51.56 0 0014-2.5l3.11-1zm-81.2 37.67C4.36 66.51 4.8 51.39 7.49 43.73 9.38 38.37 14.67 31.17 21.83 28a18.68 18.68 0 0112.72-.87C22.69 30.85 14 42.51 14 56.3a30.6 30.6 0 0016.06 27.29c-3.36.41-9.63-.29-15.85-6.78zM69.07 56.3c0 15.63-11.9 28.35-26.54 28.35S16 71.93 16 56.3 27.9 28 42.53 28s26.54 12.67 26.54 28.3zM42.39 19c-.51.73-1 1.56-1.54 2.43a55.82 55.82 0 01-3.1 4.69l-.53-.21c.25-2 .86-5.78 1.74-7.37 1.23-2.21 2.88-3.56 3.76-3.08a1.07 1.07 0 01.57.72 4 4 0 01-.9 2.82zm41.25 12.22c2.7 2.77 4.91 5 6.73 6.68-3.94-2.14-8.36-6.41-10.2-8.43C74 21.6 67.52 18.05 62 16.58a15.35 15.35 0 018.29 2.29c3.96 2.72 8.95 7.83 13.35 12.35zm-8 9.07c-3.89-2.54-7.1-6.75-9.69-10.13-1.11-1.45-2.07-2.7-2.9-3.58-5.21-5.49-9.26-7.49-12.47-8.5L51 18c4.08-.84 16.26-1.81 27.65 12.78.82.9 6.67 7.19 12.09 9.54-4.54 1.05-11.67 2.22-15.12-.04z"/><path d="M45.78 48.77a3.56 3.56 0 10-3.56-3.56 3.57 3.57 0 003.56 3.56zm0-5.13a1.56 1.56 0 11-1.56 1.56 1.57 1.57 0 011.56-1.56z"/></svg>