<svg height="100" width="100" xmlns="http://www.w3.org/2000/svg" data-name="Layer 1"><path d="M53.73 23.08a30.63 30.63 0 00-7.41.91h-.09a21.69 21.69 0 00-5.35-4.52c-10-6-22.38-2.68-22.9-2.53a3 3 0 00-1.9 4.2c.24.51 4.76 9.68 12.19 15.64a30.18 30.18 0 00-5 16.78 30.5 30.5 0 1030.5-30.5zm-30.24-1c3.75-.39 9.53-.32 14.33 2.57C41.41 26.82 44 30.29 45.44 35a11 11 0 01-7.57.37c-6.46-1.93-11.68-8.94-14.38-13.28zm30.24 56a24.53 24.53 0 01-24.5-24.5A24.24 24.24 0 0133.33 40a19.88 19.88 0 002.79 1.09 17.36 17.36 0 005 .76 17.76 17.76 0 008.16-2.06l.36.49-.2.58a3 3 0 003.77 3.84l.58-.19.49.37a3 3 0 004.81-2.4v-.61l.5-.35a3 3 0 00-.8-5.32l-.58-.19-.18-.58a3 3 0 00-5.31-.89l-.36.5h-.76a30.72 30.72 0 00-2-5.64 24.5 24.5 0 114.06 48.66z"/><circle cx="45.73" cy="68.58" r="3.5"/><circle cx="48.73" cy="58.58" r="3.5"/><circle cx="57.73" cy="69.58" r="3.5"/><circle cx="37.73" cy="58.58" r="3.5"/></svg>