<svg height="100" width="100" xmlns="http://www.w3.org/2000/svg" class="icon" viewBox="0 0 1024 1024"><path d="M825.355 648.906c-16.6-46.552-42.034-89.088-69.011-134.083l-6.7-11.205-1.87-3.124c-6.362-10.69-12.623-21.168-15.597-26.224-9.9-16.789-19.712-38.17-30.114-60.793-9.599-20.916-20.477-44.619-32.41-66.138-19.838-35.76-39.21-58.559-60.956-71.771-29.499-17.918-62.047-17.429-96.74 1.468-34.745-18.897-67.318-19.36-96.842-1.393-21.682 13.238-41.056 36.087-60.906 71.922-11.87 21.431-22.71 45.046-32.284 65.9-10.427 22.71-20.277 44.154-30.114 60.83a8215.192 8215.192 0 01-16.312 27.353l-1.167 1.958-6.663 11.13c-26.94 45.045-52.398 87.58-69.01 134.17-19.073 53.464-22.825 104.357-11.507 155.588 13.075 58.974 45.61 114.182 91.597 155.188 45.447 40.54 99.25 63.39 151.473 64.318h2.66c15.546 0 29.349-2.434 42.661-4.806 12.347-2.183 23.991-4.253 36.388-4.253 11.77 0 23.665 2.058 36.275 4.24 14.442 2.51 29.386 5.02 45.434 4.794 52.236-.929 106.027-23.84 151.486-64.318 46.05-41.08 78.585-96.202 91.597-155.213 11.456-51.219 7.691-102.086-11.368-155.538zM797.65 795.71c-11.293 50.855-39.349 98.41-79.15 133.92-38.295 34.154-82.813 53.376-125.474 54.142-12.234.213-24.694-1.933-37.881-4.216-13.715-2.372-27.906-4.831-43.113-4.831-15.91 0-29.876 2.51-43.377 4.868-12.799 2.272-24.907 4.417-37.643 4.179-42.661-.753-87.18-19.988-125.474-54.13-39.788-35.484-67.895-83.04-79.15-133.894-21.594-97.682 25.697-176.732 75.774-260.423q3.35-5.571 6.688-11.18l1.18-1.97c6.713-11.293 13.55-22.736 16.311-27.504 10.879-18.445 21.155-40.804 32.034-64.494 9.724-21.18 19.762-43.088 30.905-63.177 26.5-47.818 49.098-64.393 71.42-64.393 10.891 0 21.732 3.952 32.912 10.15l8.62 4.781a20.076 20.076 0 0019.474 0l8.632-4.78c29.16-16.187 46.79-9.399 57.53-2.874 15.321 9.31 30.591 27.93 46.677 56.928 11.192 20.189 21.732 43.15 31.03 63.415 10.841 23.59 21.067 45.886 32.009 64.431 2.999 5.02 9.297 15.647 15.71 26.35l1.869 3.124q3.35 5.634 6.725 11.293c50.09 83.667 97.356 162.678 75.762 260.335zM512.082 200.66a19.95 19.95 0 0019.95-19.95V60.228a19.95 19.95 0 00-39.9 0v120.456a19.95 19.95 0 0019.95 19.975zm61.32-1.292l17.716 1.092c3.501.213 7.014.326 10.503.326A171.123 171.123 0 00772.442 19.122L771.35 1.418 753.646.326A171.135 171.135 0 00572.31 181.662zM650.505 78.51a131.02 131.02 0 0181.646-37.894A130.933 130.933 0 01612.6 160.17a131.096 131.096 0 0137.906-81.66z"/></svg>