<svg height="100" width="100" xmlns="http://www.w3.org/2000/svg" viewBox="0 0 560.133 649.71"><path d="M191.035 0v104.003C80.13 141.239 0 245.777 0 369.34c0 154.906 125.283 280.37 280.127 280.37 16.447 0 32.602-1.513 48.365-4.243 131.51-22.9 231.64-137.853 231.64-276.127 0-114.565-68.72-212.868-167.275-256.125-7.758-3.415-15.872-6.482-23.879-9.212V0l-44.485 52.849L280.127 0 235.52 52.849 191.035 0zm89.7 128.365c16.383 0 32.365 1.685 47.757 4.85 109.043 22.031 191.276 118.81 191.276 234.307 0 115.746-82.233 212.335-191.276 234.429-15.33 3.104-31.374 4.728-47.758 4.728-132.191 0-239.156-107.15-239.156-239.157 0-131.943 106.965-239.157 239.156-239.157zm-54.427 47.395c-4.018.315-8.072 1.158-12.121 2.546l-.484.486c5.895 3.413 10.303 9.639 10.303 17.212 0 11.171-9.129 20.122-20.485 20.122-11.11 0-20.123-9.013-20.123-20.122 0-1.49.415-2.759.848-4-62.186 33.822-104.607 99.8-104.607 175.64 0 87.631 56.35 162.029 134.548 189.338 32.334 11.171 65.94-13.806 65.94-48.002V405.583c-2.73 1.428-5.923 2.547-9.212 2.547-11.17 0-20.364-9.013-20.364-20.123 0-11.296 9.256-20.363 20.364-20.363 3.352 0 6.482 1.117 9.212 2.544V226.429c0-29.976-25.69-52.866-53.819-50.669zm-2.182 77.579c11.11 0 20.122 9.012 20.122 20.12 0 11.11-9.075 20.365-20.122 20.365-11.42 0-20.364-9.192-20.364-20.365 0-11.171 9.007-20.12 20.364-20.12zm-77.82 36.605c11.171 0 20.364 8.954 20.364 20.001 0 11.419-9.193 20.486-20.363 20.486-11.171 0-20.122-9.127-20.122-20.486-.069-11.047 8.95-20.001 20.122-20.001zm37.213 69.82c11.171 0 20.121 9.012 20.121 20.122 0 11.294-8.95 20.364-20.12 20.364-11.359 0-20.365-9.07-20.365-20.364 0-11.17 9.069-20.122 20.364-20.122zm-37.212 59.759c11.108 0 20.363 9.07 20.363 20.364 0 11.173-9.255 20.123-20.363 20.123-11.171 0-20.122-9.013-20.122-20.123 0-11.357 9.013-20.364 20.122-20.364zm77.819 50.304c11.11 0 20.122 9.068 20.122 20.365 0 11.107-9.075 20.12-20.122 20.12-11.42 0-20.364-9.01-20.364-20.12 0-11.357 9.007-20.365 20.364-20.365z"/></svg>