<svg height="100" width="100" xmlns="http://www.w3.org/2000/svg"><path d="M45.4 22.5c-2.8 0-5.4 1.1-7.3 3-1.6 1.6-2.7 3.5-3.4 5.7l-1.3 3.9c-.5 1.4-1.5 4.4-2.3 5.3l-6 6c-3.3 3.3-5.7 7.3-6.8 11.6-2.1 7.9-.1 16.3 5.2 22.5l7.9 9.3c1.3 1.6 2.9 2.8 4.8 3.7 2.1 1.1 4.5 1.6 6.8 1.6h.6c1.3 0 2.7-.4 4.1-1.1 1.4-.7 3.2-.7 4.6 0 1.4.7 2.8 1.1 4.1 1.1h.6c2.4 0 4.7-.6 6.8-1.6 1.8-.9 3.4-2.2 4.8-3.7l7.9-9.3c5.3-6.2 7.2-14.6 5.2-22.5-1.1-4.2-3.5-8.2-6.8-11.6l-6-6c-.9-.9-1.9-3.8-2.3-5.3l-1.3-3.9c-.7-2.1-1.9-4.1-3.4-5.7-1.8-1.9-4.4-3-7.3-3-.7 0-1.4.1-2.1.2.3-5.5 3.6-10.4 8.6-13l-2.2-4.5c-4.2 2.1-7.5 5.5-9.4 9.6C45.3 8.7 38.3 5 30.9 5c-2.5 0-5 .4-7.4 1.3l-3.1 1.1 1.8 2.7c4.2 6.2 11.2 10 18.7 10 2.4 0 4.8-.4 7.2-1.2-.3 1.3-.5 2.6-.6 3.9-.7-.2-1.4-.3-2.1-.3zM28.8 10.1c5.2-.6 10.5 1.2 14.2 4.8-5.3.6-10.5-1.2-14.2-4.8zm23.6 17.8c.7-.2 1.5-.4 2.2-.4 1 0 2.5.3 3.7 1.5 1 1.1 1.8 2.4 2.3 3.8l1.3 3.9c1 2.9 2 5.7 3.5 7.2l6 6c2.7 2.7 4.6 5.9 5.5 9.3 1.6 6.3.1 13-4.1 17.9l-8 9.3c-.9 1-2 1.9-3.2 2.5-1.4.7-3 1.1-4.6 1.1h-.6c-.5 0-1.2-.2-1.8-.5-1.4-.7-3-1.1-4.6-1.1s-3.2.4-4.6 1.1c-.7.3-1.3.5-1.8.5H43c-1.6 0-3.2-.4-4.6-1.1-1.2-.6-2.3-1.5-3.2-2.5l-7.9-9.3c-4.2-4.9-5.8-11.6-4.1-17.9.9-3.4 2.8-6.6 5.5-9.3l6-6c1.6-1.6 2.6-4.3 3.5-7.2l1.3-3.9c.5-1.4 1.3-2.7 2.3-3.8 1.1-1.2 2.6-1.5 3.7-1.5.7 0 1.5.1 2.2.4 1.4.5 3.2.5 4.7 0z"/><path d="M44.1 34.6l-1.2 3.7c-1.1 3.4-2.4 6.9-4.7 9.2-1 1-1 2.6 0 3.5.5.5 1.1.7 1.8.7s1.3-.2 1.8-.7c3.1-3.1 4.7-7.2 6-11.2l1.2-3.7c.4-1.3-.3-2.7-1.6-3.2-1.4-.4-2.8.4-3.3 1.7zM32.8 61.7c.3-1.3-.5-2.7-1.8-3-1.3-.3-2.7.5-3 1.8-1.2 4.7-.1 9.7 3.1 13.4.5.6 1.2.9 1.9.9.6 0 1.2-.2 1.6-.6 1-.9 1.2-2.5.3-3.5-2.1-2.5-2.9-5.8-2.1-9z"/></svg>