<svg height="100" width="100" xmlns="http://www.w3.org/2000/svg"><path d="M58.548 50.287c-1.93 0-3.786.646-5.299 1.822a8.575 8.575 0 00-2.197-.295 8.564 8.564 0 00-3.669.83 8.633 8.633 0 00-5.931-2.357c-4.766 0-8.644 3.877-8.644 8.643s3.878 8.645 8.644 8.645c1.28 0 2.531-.295 3.679-.836a8.59 8.59 0 0011.202.547 8.719 8.719 0 002.215.289c4.766 0 8.644-3.879 8.644-8.645s-3.879-8.643-8.644-8.643zM35.101 58.93a6.357 6.357 0 016.352-6.35 6.35 6.35 0 013.931 1.369 8.62 8.62 0 00-2.975 6.51c0 1.615.454 3.125 1.229 4.42a6.34 6.34 0 01-2.186.402 6.356 6.356 0 01-6.351-6.351zm15.951 7.881c-3.503 0-6.352-2.85-6.352-6.352s2.849-6.352 6.352-6.352c3.502 0 6.351 2.85 6.351 6.352s-2.849 6.352-6.351 6.352zm7.496-1.53c-.107 0-.213-.008-.319-.014a8.58 8.58 0 001.467-4.809c0-3.027-1.568-5.691-3.931-7.236a6.332 6.332 0 012.783-.643 6.357 6.357 0 016.352 6.35 6.358 6.358 0 01-6.352 6.352z"/><path d="M53.284 64.049c-.298 0-.596-.121-.81-.336s-.336-.512-.336-.811c0-.297.122-.596.336-.811.436-.426 1.192-.426 1.62 0a1.15 1.15 0 010 1.622 1.14 1.14 0 01-.81.336zM61.246 62.521a1.16 1.16 0 01-.811-.338 1.16 1.16 0 01-.335-.809c0-.299.122-.596.335-.811.429-.428 1.192-.428 1.62 0 .214.215.337.512.337.811a1.152 1.152 0 01-1.146 1.147zM46.982 62.482c-.481 0-.931-.305-1.089-.789-.363-1.109-.095-3.148.986-4.639.904-1.25 2.195-1.908 3.732-1.908a1.147 1.147 0 010 2.291c-.794 0-1.408.314-1.876.961-.687.947-.777 2.238-.664 2.58a1.147 1.147 0 01-1.089 1.504zM37.185 59.592a1.147 1.147 0 01-1.146-1.146c0-1.83 2.41-4.857 5.157-4.857a1.147 1.147 0 010 2.292c-1.375 0-2.864 1.924-2.864 2.564a1.149 1.149 0 01-1.147 1.147zM50.296 49.184c-1.373 0-1.373-1.764-1.373-3.997 0-2.455.452-6.004 2.604-8.968 2.561-3.53 6.803-5.32 12.608-5.32.542 0 1.011.381 1.122.912.062.303 1.496 7.464-2.648 12.563-2.596 3.191-6.738 4.81-12.313 4.81zM63.147 33.21c-4.252.172-7.415 1.479-9.407 3.891-2.704 3.271-2.627 7.821-2.442 9.771 4.34-.174 7.543-1.499 9.531-3.944 2.67-3.284 2.529-7.793 2.318-9.718zM45.342 49.184c-1.263 0-3.09-.24-4.625-1.385-1.812-1.351-2.729-3.548-2.729-6.529 0-.549.389-1.021.926-1.125a8.81 8.81 0 011.587-.13c4.667 0 7.454 2.953 7.454 7.897 0 .543-.381 1.012-.912 1.122-.074.016-.745.15-1.701.15zm-5.015-6.875c.301 3.042 1.982 4.583 5.015 4.583.095 0 .185-.002.271-.005-.302-3.04-2.019-4.58-5.113-4.58l-.173.002z"/><path d="M50.781 48.057a.762.762 0 01-.54-1.304l6.566-6.566a.763.763 0 111.081 1.08l-6.567 6.566a.761.761 0 01-.54.224z"/></svg>