<svg height="100" width="100" xmlns="http://www.w3.org/2000/svg" viewBox="0 0 52.89 53.68"><path d="M42.42 10.17l-.06-.03c.04-.6-.22-1.18-.75-1.52-2.01-1.29-5.13-2.83-8.56-2.83-1.37 0-2.69.25-3.93.74V2.79c0-1.54-1.11-2.79-2.48-2.79h-2.22c-1.37 0-2.48 1.25-2.48 2.79V6.9c-.79-.14-1.9-.28-3.21-.28-3.13 0-5.99.76-8.52 2.27-.65.39-.96 1.14-.75 1.88.04.13.09.25.15.36-.09.02-.19.05-.29.07-.24.06-.46.18-.66.34C3.16 16.12 0 22.66 0 29.46c0 13.35 11.86 24.21 26.45 24.21S52.9 42.81 52.9 29.46c-.01-7.63-3.82-14.67-10.48-19.29zM18.73 8.61c1.38 0 2.5.17 3.2.32 1.01.2 2-.6 2-1.64v-4.5c.01-.45.27-.79.49-.79h2.22c.22 0 .48.34.48.79v4.25c0 .46.18.88.51 1.2.49.47 1.23.6 1.86.32 1.1-.5 2.3-.76 3.56-.76 2.42 0 4.71.92 6.44 1.88h-.28c-.12 0-.23.01-.34.01-2.06.01-3.75.18-5.06.5-.66.16-1.15.7-1.25 1.37-.1.68.22 1.35.82 1.71 2.5 1.47 3.55 3.25 3.96 4.72-2.92-2.39-6.32-2.77-7.77-2.81-.45 0-.87.18-1.19.5-.32.32-.49.75-.48 1.21.08 5.14-1.7 8.58-2.73 10.14-.99-2.09-1.29-6.58-1.23-10.27.01-.85-.62-1.58-1.48-1.69-.26-.03-.52-.05-.78-.05-.05 0-.1.01-.15.01-.13 0-.26.02-.4.03-.22.02-.43.04-.65.08-.12.02-.24.05-.36.07-.24.05-.47.11-.71.18-.1.03-.21.06-.31.1-.25.08-.5.17-.75.27-.09.04-.18.07-.28.11-.26.11-.51.23-.76.36-.08.04-.17.08-.25.13-.25.13-.5.27-.74.41-.08.05-.16.09-.25.14-.24.14-.47.29-.7.44-.08.05-.17.11-.25.16-.24.16-.47.33-.7.49-.05.04-.11.08-.17.12a14.94 14.94 0 011.81-2.6c.78-.89 1.54-1.55 2.17-2.01.04-.03.09-.07.12-.09.05-.04.09-.06.14-.09.11-.08.22-.16.32-.22.52-.34.81-.94.75-1.57-.06-.63-.47-1.16-1.05-1.39-.05-.02-.11-.03-.16-.05-.23-.08-.47-.15-.73-.22-.14-.03-.28-.07-.42-.09-.03-.01-.06-.01-.09-.02h-.06c-1.15-.2-2.5-.22-4.05-.06 1.76-.73 3.68-1.1 5.73-1.1zm7.72 43.07C12.97 51.68 2 41.71 2 29.46c0-6.2 2.88-12.15 7.9-16.35 2.17-.58 4.5-1.04 6.86-1.37.14.02.27.05.4.08-.57.41-1.25.97-1.95 1.7-.02.02-.03.04-.05.05-.22.23-.44.46-.66.72-.08.09-.16.2-.24.3-.16.19-.32.38-.47.59-.15.2-.29.42-.44.64-.09.13-.17.24-.26.37-.22.35-.44.71-.64 1.1-.01.01-.01.02-.02.04-.21.4-.42.82-.62 1.27-.23.52-.18 1.09.12 1.56.52.8 1.73 1 2.48.38 2.89-2.38 5.54-3.67 7.52-3.53-.03 2.81.12 8.92 1.79 11.52.31.48.84.77 1.41.77.53 0 1.04-.26 1.35-.69.91-1.25 2.84-4.41 3.3-9.26.07-.69.1-1.42.1-2.18 1.46.1 4.43.59 6.79 2.89.67.65 1.81.59 2.42-.09.32-.36.46-.84.4-1.32-.18-1.39-.75-3.17-2.29-4.87l-.12-.15c-.06-.07-.15-.13-.22-.2-.51-.51-1.09-1.01-1.8-1.48.91-.16 2.25-.29 4.13-.29h.63l.36.03c.3.04.59.08.89.11l.25.03c6.07 4.25 9.55 10.66 9.55 17.61.02 12.27-10.94 22.24-24.42 22.24z"/><path d="M6.06 30.71a.981.981 0 00-1.13-.84c-.55.08-.93.58-.85 1.13.22 1.49.71 2.88 1.46 4.15.19.32.52.49.86.49a.998.998 0 00.86-1.51 9.497 9.497 0 01-1.2-3.42zM5.12 27.68h.07c.52 0 .96-.4 1-.93.08-1.14.31-2.24.69-3.29a.998.998 0 00-.6-1.28.998.998 0 00-1.28.6c-.44 1.22-.72 2.51-.81 3.83-.03.55.38 1.03.93 1.07z"/></svg>