<svg height='100px' width='100px'  fill="#000000" xmlns="http://www.w3.org/2000/svg" xmlns:xlink="http://www.w3.org/1999/xlink" version="1.1" x="0px" y="0px" viewBox="0 0 100 100" enable-background="new 0 0 100 100" xml:space="preserve"><g><path fill="#000000" d="M74.7,71.518c-0.388-4.609-1.688-9.069-2.945-13.381c-0.731-2.511-1.488-5.107-2.036-7.655   c-1.305-6.075-1.66-11.618-2.036-17.485c-0.113-1.759-0.228-3.552-0.37-5.404c-0.372-4.83-1.53-11.715-7.275-15.731   c-0.934-0.654-2.045-1.173-3.312-1.566c-0.152-0.773-0.463-1.883-1.088-2.845C54.529,5.743,52.633,4.877,50,4.877   c-2.635,0-4.532,0.868-5.639,2.577c-0.623,0.96-0.934,2.068-1.086,2.84c-1.268,0.394-2.379,0.912-3.314,1.566   c-5.739,4.014-6.899,10.9-7.273,15.732c-0.143,1.852-0.257,3.645-0.37,5.404c-0.376,5.868-0.731,11.41-2.036,17.485   c-0.548,2.548-1.305,5.144-2.036,7.654c-1.258,4.313-2.559,8.773-2.945,13.383c-0.535,6.389,1.479,12.578,5.528,16.98   c4.653,5.06,11.615,7.396,19.172,6.387c1.177,0.157,2.35,0.237,3.49,0.237c6.185,0,11.754-2.352,15.682-6.623   C73.221,84.097,75.235,77.908,74.7,71.518z M47.214,9.303C47.396,9.022,47.878,8.277,50,8.277c2.121,0,2.604,0.743,2.785,1.024   c0.051,0.078,0.097,0.162,0.141,0.248c-0.924-0.093-1.9-0.144-2.936-0.144c-1.027,0-1.997,0.05-2.915,0.143   C47.118,9.464,47.164,9.38,47.214,9.303z M66.669,86.198c-3.94,4.286-9.918,6.218-16.429,5.289c-0.08-0.011-0.16-0.017-0.24-0.017   s-0.16,0.006-0.24,0.017c-6.513,0.93-12.487-1.004-16.429-5.289c-3.407-3.704-5.099-8.951-4.643-14.395   c0.357-4.271,1.609-8.564,2.82-12.716c0.749-2.568,1.523-5.224,2.097-7.892c1.357-6.321,1.721-11.985,2.105-17.981   c0.111-1.745,0.226-3.523,0.367-5.36c0.509-6.583,2.361-10.78,5.832-13.207c1.722-1.205,4.516-1.841,8.1-1.841   c3.564,0,6.358,0.636,8.079,1.841c3.474,2.428,5.327,6.625,5.833,13.206c0.142,1.837,0.256,3.616,0.367,5.361   c0.385,5.997,0.748,11.661,2.105,17.982c0.573,2.668,1.348,5.324,2.097,7.893c1.21,4.151,2.462,8.444,2.82,12.714   C71.768,77.247,70.076,82.494,66.669,86.198z M46.132,16.573c0.194,0.708-0.213,1.439-0.911,1.65   c-0.113,0.042-2.685,1.072-3.72,6.853c-0.462,2.569-0.55,4.713-0.55,7.771c0,0.746-0.604,1.35-1.35,1.35s-1.35-0.604-1.35-1.35   c0-3.214,0.094-5.481,0.591-8.248c1.359-7.59,5.197-8.852,5.63-8.971C45.195,15.434,45.936,15.855,46.132,16.573z M46.051,87.496   c-0.054,0.708-0.646,1.247-1.345,1.247c-0.034,0-0.068-0.001-0.104-0.004c-3.846-0.294-7.295-2.016-9.712-4.849   c-2.618-3.069-3.863-7.146-3.508-11.482c0.062-0.743,0.724-1.302,1.456-1.235c0.743,0.061,1.296,0.713,1.235,1.456   c-0.297,3.614,0.723,6.992,2.871,9.509c1.975,2.315,4.693,3.667,7.862,3.909C45.552,86.104,46.108,86.752,46.051,87.496z"></path></g></svg>