<svg height='100px' width='100px'  fill="#000000" xmlns="http://www.w3.org/2000/svg" xmlns:xlink="http://www.w3.org/1999/xlink" version="1.1" x="0px" y="0px" viewBox="0 0 100 100" enable-background="new 0 0 100 100" xml:space="preserve"><path d="M72.5537109,20.1513672c-0.2011719-0.1586914-0.4042969-0.3129883-0.6171875-0.4526367  c1.1171875-1,2.3369141-1.9487305,3.7128906-2.8486328c3.5087891-2.2963867,11.2304688-4.2788086,12.2958984-8.7001953  c0.1552734-0.6503906-0.1982422-1.2734375-0.8359375-1.472168c-2.6191406-0.815918-5.1289063,0.987793-7.3964844,2.2241211  c-2.9169922,1.590332-5.7832031,3.234375-8.4824219,5.1738281c-1,0.7182617-1.9423828,1.527832-2.8398438,2.3828125  c0.1230469-0.5146484,0.2636719-1.0258789,0.3710938-1.5429688c0.8144531-3.8828125,2.2167969-11.1611328-1.1455078-14.121582  c-0.9238281-0.8120117-2.2099609-0.4487305-2.6201172,0.6918945c-0.5898438,1.637207-0.2929688,2.3330078-0.109375,4.1474609  c0.2705078,2.6743164-0.1123047,5.4296875-0.5732422,8.0556641c-0.2109375,1.203125-0.4814453,2.3886719-0.7910156,3.5600586  c-0.6611328-0.0571289-1.3232422-0.1123047-2.0078125-0.1069336c-1.5058594,0.0112305-1.71875,2.0966797-0.3447266,2.5522461  c0.5068359,0.1679688,0.9804688,0.371582,1.4716797,0.5561523c-0.7333984,2.2866211-1.5761719,4.5405273-2.4257813,6.796875  c-0.3710938,0.9838867,0.4697266,1.9033203,1.390625,2.0922852c-0.0097656,0.0761719-0.0322266,0.1479492-0.0410156,0.2236328  c-0.140625,1.2612305,1.6445313,1.5214844,2.2294922,0.6040039c1.5898438-2.4975586,3.1162109-4.7475586,4.8310547-6.8071289  c1.1289063,0.6865234,2.2236328,1.4086914,3.2412109,2.206543c0.3144531,1.0444336,0.3867188,2.1196289-0.1708984,3.2875977  c-1.1035156,2.3066406-3.8935547,3.4023438-6.2080078,3.9711914c-2.71875,0.6669922-5.796875,0.2783203-8.2851563-0.9628906  c-3.2333984-1.6103516-3.3525391-4.6796875-4.4804688-7.675293c-0.078125-0.2099609-0.3632813-0.277832-0.4902344-0.0639648  c-1.8720703,3.1611328,0.0117188,7.0170898,2.6757813,9.0952148c2.9892578,2.3330078,7.1064453,2.7167969,10.7412109,2.1914063  c3.5527344-0.5141602,7.1601563-2.0869141,8.9804688-5.3442383c0.2587891-0.4633789,0.4414063-0.9667969,0.5771484-1.484375  c2.3017578,2.3759766,4.2275391,5.0947266,5.8144531,8.0839844c-0.1376953-0.0224609-0.2792969-0.0258789-0.4355469,0.0180664  c-2.5234375,0.7124023-4.7548828,2.1816406-7.1748047,3.1870117c-3.0996094,1.2880859-5.7099609,0.5332031-8.8310547-0.0073242  c-0.9550781-0.1655273-1.6142578,0.8618164-0.9433594,1.6210938c4.7988281,5.4316406,13.8427734,1.1230469,17.953125-3.0771484  c0.078125-0.0791016,0.1318359-0.1665039,0.1777344-0.2558594c0.7714844,1.6132813,1.4443359,3.3037109,2.0292969,5.0566406  c-1.4443359,1.1518555-3.0966797,1.996582-4.8417969,2.6191406c-1.8339844,0.6513672-3.7597656,0.0742188-5.5117188,0.6489258  c-0.5976563,0.1958008-0.9541016,1.0488281-0.3994141,1.5166016c1.7363281,1.4672852,4.5664063,0.8398438,6.5703125,0.2260742  c1.9345703-0.590332,3.5107422-1.7939453,4.7080078-3.3398438c0.2832031,0.9638672,0.5449219,1.9399414,0.7705078,2.9399414  c0.0195313,0.0830078,0.0273438,0.1591797,0.0439453,0.2407227c-1.34375,0.9067383-2.1572266,2.3115234-3.5927734,3.2255859  c-2.0625,1.3154297-4.7363281,1.6728516-7.1132813,1.8369141c-4.4609375,0.3066406-8.0507813-1.2861328-12.2490234-2.1845703  c-0.1425781-0.03125-0.2548828,0.1108398-0.1855469,0.2421875c2.1777344,4.1708984,9.3964844,4.8974609,13.5175781,4.8515625  c2.6347656-0.0292969,7.65625-0.9921875,10.2783203-3.3339844c0.1660156,2.2763672,0.0595703,4.4638672-0.2675781,6.5644531  c-0.5507813,0.2255859-1.0625,0.5722656-1.5859375,0.8486328c-0.8779297,0.4619141-1.984375,0.5419922-2.9462891,0.7011719  c-1.8027344,0.2949219-3.703125,0.0722656-5.4033203,0.8154297c-0.7705078,0.3369141-0.7714844,1.6953125,0,2.0322266  c2.0664063,0.9003906,4.5966797,0.5341797,6.7460938,0.1171875c0.6660156-0.1289063,1.5263672-0.3945313,2.3300781-0.7919922  c-0.7539063,2.4736328-1.8339844,4.7998047-3.2304688,6.9296875c-4.3759766,2.1992188-9.9453125,1.3554688-14.6679688,0.8291016  c-8.46875-0.9453125-14.8447266-2.5332031-22.3115234-6.7197266c-0.1728516-0.0976563-0.3994141,0.1025391-0.2817383,0.2832031  c5.0722656,7.7138672,15.5766602,8.0917969,23.8852539,9.25c2.6318359,0.3662109,6.1279297,0.8583984,9.3808594,0.6064453  c-3.6191406,2.5517578-7.4970703,4.5009766-11.5527344,5.9619141c-1.0419922,0.1953125-2.0869141,0.3984375-3.0908203,0.3701172  c-3.2070313-0.0849609-6.5683594-0.9746094-9.6464844-1.84375c-0.2480469-0.0703125-0.3994141,0.2871094-0.1748047,0.4150391  c2.1152344,1.2001953,4.3134766,2.2412109,6.6298828,2.9296875c-3.7519531,0.8896484-7.6103516,1.4443359-11.5131836,1.7470703  c-5.4013672-0.1826172-11.0825195-0.2978516-15.5454102,0.59375c-1.0478516,0.1494141-2.0556641,0.3818359-2.9853516,0.7138672  c-0.0581055-0.0332031-0.1054688-0.0830078-0.1884766-0.0820313c-0.6538086,0.0068359-1.2495117,0.1191406-1.7988281,0.3066406  c0.0517578-2.9140625-0.2612305-5.7802734-0.7822266-8.6191406c0.6533203,0.7626953,1.4389648,1.4091797,2.2915039,2.0576172  c1.1416016,0.8652344,3.3037109,2.4121094,4.8012695,1.9208984c0.3583984-0.1191406,0.4589844-0.4628906,0.3203125-0.7871094  c-0.5371094-1.2617188-2.5014648-1.9472656-3.6166992-2.6533203c-1.3691406-0.8691406-2.6806641-1.8339844-4.1762695-2.4638672  c-2.1123047-9.9130859-6.1938477-19.5878906-4.8037109-30.0883789c0.9453125,2.3769531,2.9111328,4.5649414,4.5673828,6.21875  c2.0639648,2.0581055,8.7163086,8.2709961,11.9672852,6.7524414c0.2602539-0.1210938,0.4047852-0.5019531,0.3129883-0.7675781  c-0.4726563-1.3613281-2.3999023-2.1728516-3.5615234-2.8623047c-2.4326172-1.4462891-4.6757813-3.1748047-6.7709961-5.0708008  c-1.9975586-1.8071289-3.9379883-3.8720703-4.6513672-6.5336914c-0.1948242-0.7280273,0.5581055-3.0844727-0.480957-3.480957  c1.3046875-3.5141602,3.378418-6.9418945,5.8354492-9.9384766c-0.2460938,1.4628906-0.0825195,3.0458984,0.3549805,4.6577148  c0.8300781,3.0605469,3.3554688,7.4990234,6.5585938,8.480957c0.4916992,0.1508789,1.0361328-0.3583984,0.862793-0.862793  c-0.7587891-2.1987305-2.6650391-3.890625-3.8603516-5.8969727c-1.796875-3.0146484-1.7666016-6.1401367-1.1459961-9.3950195  c1.0566406-1.0395508,2.1376953-2.0209961,3.2456055-2.8632813c0.3022461-0.2299805,0.6079102-0.4335938,0.9150391-0.6367188  c-0.5244141,2.4189453-0.0693359,5.418457,0.5864258,7.2368164c1.1313477,3.1386719,6.0410156,11.8701172,10.3520508,10.7578125  c0.4008789-0.1030273,0.515625-0.5385742,0.3569336-0.878418c-0.5483398-1.1816406-1.8222656-1.8085938-2.7973633-2.6352539  c-1.8325195-1.5527344-3.2509766-3.5449219-4.465332-5.5952148c-1.1367188-1.9174805-1.8549805-4.0454102-2.0141602-6.2670898  c-0.1328125-1.8686523,0.7382813-3.0776367,1.6044922-4.4101563c5.0258789-1.7553711,10.453125-1.059082,15.8930664-1.3066406  c0.3740234-0.0170898,0.5556641-0.5351563,0.1982422-0.7304688c-12.1191406-6.6142578-24.550293,3.03125-30.8935547,12.9462891  c-4.4570313,6.9663086-5.6699219,14.3681641-5.3383789,21.9243164c-0.1870117,0.4150391-0.3725586,0.8398438-0.6767578,1.1806641  c-0.8637695,0.9677734-2.0849609,1.6191406-3.1035156,2.4082031c-1.0649414,0.8261719-4.2641602,3.7744141-2.5751953,5.2080078  c0.0932617,0.0791016,0.234375,0.1455078,0.3608398,0.0947266c0.9692383-0.3867188,0.9960938-1.5234375,1.5234375-2.3496094  c0.7524414-1.1777344,2.0849609-1.8876953,3.1513672-2.7294922c0.3686523-0.2929688,0.9360352-0.7734375,1.4794922-1.3427734  c0.3652344,4.2568359,1.152832,8.5507813,2.0874023,12.8359375c-0.2387695,0.9677734-0.5541992,1.8574219-1.6503906,2.1640625  c-1.3251953,0.3691406-2.6865234,0.4599609-4.0063477,0.8847656c-1.8393555,0.5888672-3.9267578,1.6552734-4.4311523,3.6630859  C10.4838867,78.9414063,19.3125,82.1171875,15.3295898,85c-0.6538086,0.4726563-0.105957,1.3857422,0.6240234,1.0693359  c4.6269531-2.0097656-1.5678711-6.8427734-2.5458984-9.171875c-1.3881836-3.3037109,6.1894531-3.2138672,7.7890625-4.2509766  c0.3969727-0.2568359,0.7163086-0.5800781,0.9916992-0.9326172c1.1430664,4.9697266,2.3735352,9.9072266,3.2294922,14.7363281  c-4.0795898,4.1650391-2.847168,14.5507813,2.3291016,13.0869141c0.4526367-0.1289063,0.828125-0.6650391,0.6479492-1.1425781  c-0.3178711-0.8408203-0.8945313-1.3554688-1.4472656-2.0390625c-0.4970703-2.1435547-0.8681641-4.2333984-0.4726563-6.0732422  c1.7138672-2.1992188,4.5703125-3.1103516,7.7255859-3.4482422c-0.1645508,0.3486328-0.3037109,0.6933594-0.3828125,1.0126953  c-0.4848633,1.9501953,1.0693359,4.3164063,2.9882813,4.7519531c0.1777344,0.0400391,0.3227539-0.1416016,0.2333984-0.3037109  c-0.7558594-1.3808594-1.2001953-2.2578125-1.0576172-3.8300781c0.0751953-0.8320313,0.5317383-1.3310547,1.0317383-1.7978516  c3.5830078-0.0644531,7.234375,0.3232422,9.8461914,0.2470703c0.6416016-0.0185547,1.2822266-0.0556641,1.9228516-0.109375  c0.0083008,0.8369141,0.3886719,1.6240234,0.7861328,2.4042969c0.2685547,0.5273438,0.3852539,1.1650391,0.7998047,1.6123047  c0.4194336,0.4501953,0.8305664,0.4033203,0.8081055,0.9277344c-0.0771484,1.8251953-2.4355469,2.4345703-1.8046875,4.5595703  c0.1459961,0.4921875,0.8740234,0.6386719,1.1303711,0.1484375c0.8608398-1.6396484,2.8266602-3.7792969,1.9741211-5.8046875  c-0.3183594-0.7480469-0.8554688-0.9453125-1.0605469-1.8876953c-0.0957031-0.4394531-0.265625-0.8681641-0.3867188-1.3027344  c-0.1259766-0.4453125-0.0664063-0.703125,0.0771484-0.9140625c1.2197266-0.1650391,2.4384766-0.3691406,3.6494141-0.6083984  c2.5625-0.03125,5.1289063-0.2490234,7.7900391-0.7392578c-0.2255859,1.3564453-0.0097656,2.8085938,0.6845703,3.8710938  c0.2080078,0.3183594,0.8271484,0.6123047,1.1455078,0.2597656c0.453125-0.5039063,0.3496094-1.2382813,0.4033203-1.8818359  c0.0664063-0.8183594,0.1445313-1.6191406,0.4013672-2.4072266c0.0615234-0.1914063,0.1591797-0.3544922,0.2695313-0.5117188  c3.8105469-1.0117188,7.3369141-2.5976563,10.4511719-4.7177734c-0.0791016,0.3457031-0.1767578,0.6855469-0.3203125,1.0097656  c-0.671875,1.5273438-1.796875,2.7431641-2.7958984,4.0576172c-0.4257813,0.5595703,0.3837891,1.2685547,0.9316406,0.9306641  c1.5830078-0.9707031,2.8925781-2.5244141,3.5957031-4.2587891c0.3994141-0.9804688,0.7910156-2.203125,0.6835938-3.3105469  c2.3476563-1.9072266,4.4111328-4.1455078,6.0966797-6.7275391c0.4814453-0.453125,0.9150391-0.9677734,1.2714844-1.5820313  c0.1787109-0.3076172,0.2119141-0.6015625,0.1572266-0.8613281c0.4257813-0.8105469,0.8310547-1.6396484,1.1894531-2.5068359  C92.5029297,52.5712891,86.6972656,28.5546875,72.5537109,20.1513672z"></path><path d="M60.0214844,12.9990234c-0.3398438-3.7827148-2.4072266-9.6542969-6.6367188-10.2978516  c-0.6884766-0.1049805-1.4287109,0.284668-1.4091797,1.0737305c0.0849609,3.456543,2.9628906,6.3422852,3.7548828,9.8051758  c0.9589844,4.1894531-0.3056641,8.7319336-0.5058594,12.9526367c-0.0732422,1.5859375,2.1259766,1.6918945,2.6152344,0.3530273  C59.4892578,22.3632813,60.4560547,17.8466797,60.0214844,12.9990234z"></path><path d="M60.9013672,59.3935547c-2.7080078-1.4912109-6.0332031-1.7685547-8.8876953-3.0634766  c-2.8759766-1.3007813-5.4223633-3.1816406-8.0366211-4.9257813c-0.4008789-0.2666016-0.9692383,0.2734375-0.6767578,0.6777344  c3.409668,4.7177734,11.3813477,9.6455078,17.4477539,8.4804688C61.2988281,60.4550781,61.3632813,59.6484375,60.9013672,59.3935547  z"></path><path d="M56.7167969,47.1728516c-0.3681641-0.6870117-1.2265625-1.2055664-1.8652344-1.6396484  c-0.7587891-0.5141602-1.4804688-1.1572266-2.3037109-1.5556641c-0.7148438-0.3461914-1.4345703,0.3510742-1.0712891,1.0717773  c0.4150391,0.8276367,1.1308594,1.4462891,1.8105469,2.059082c0.7050781,0.6367188,1.6914063,1.3637695,2.6660156,1.3964844  C56.6484375,48.527832,57.0224609,47.7416992,56.7167969,47.1728516z"></path><path d="M41.7675781,72.8623047c-3.9331055-1.6396484-7.4921875-3.0039063-10.8417969-5.7324219  c-3.2597656-2.6572266-5.8720703-6.3486328-8.3291016-9.7324219c-0.065918-0.0908203-0.2216797-0.0390625-0.1894531,0.0791016  c2.2714844,8.3066406,10.1625977,16.4101563,19.1352539,17.0458984  C42.5800781,74.5966797,42.5722656,73.1972656,41.7675781,72.8623047z"></path><path d="M46.75,79.5292969c-1.9501953-0.2587891-3.6982422-0.5625-5.4980469-1.4306641  c-0.6347656-0.3056641-1.4077148,0.5244141-0.800293,1.0380859c1.8085938,1.5283203,4.0976563,3.0029297,6.5791016,2.4658203  C48.3027344,81.3310547,47.8320313,79.671875,46.75,79.5292969z"></path></svg>