<svg height='100px' width='100px'  fill="#000000" xmlns="http://www.w3.org/2000/svg" xmlns:xlink="http://www.w3.org/1999/xlink" version="1.1" x="0px" y="0px" viewBox="0 0 100 100" enable-background="new 0 0 100 100" xml:space="preserve"><g><g><path fill="#000000" d="M86.03125,24.77393c0.44043-2.58984-1.22949-5.30273-1.30859-5.42871    c-0.20801-0.33301-0.5918-0.51416-0.98242-0.46094C83.71289,18.8877,81.03027,19.25,78.75,19.25    c-2.23242,0-3.83789,2.07617-4.52539,3.1626c-1.06836-0.31738-3.4375-1.40332-5.38574-2.42334    c-0.29883-0.15625-0.65625-0.15283-0.94922,0.01172l-2.25,1.25c-0.05566,0.03076-0.1084,0.06689-0.15723,0.10742    c-2.388,2.00104-3.40198,4.17242-3.86444,6.00531c-0.05603-0.04565-0.10339-0.09955-0.17072-0.13324    c-1.22852-0.61377-3.50781-0.72754-4.80273-0.73877c-0.33008-1.61475-1.40625-3.24316-2.83984-4.19873    c-0.23926-0.15918-0.54102-0.61182-0.83301-1.04932c-1.00684-1.51123-2.69141-4.03955-7.20312-2.96631    c-1.77344,0.42188-2.55176,1.47852-2.8916,2.29004c-1.29785,3.09277,1.44922,7.79785,1.7666,8.32422    c0.16211,0.26807,0.44043,0.44531,0.75195,0.47803c1.36621,0.14355,2.21582,0.4751,2.67285,1.04346    c0.40723,0.50635,0.55469,1.29736,0.4375,2.35156c-0.0498,0.45068-0.18945,1.03467-0.56934,1.25684    c-0.41113,0.24023-1.0752,0.09717-1.40527-0.01416c-3.25195-2.91943-5.05078-3.88184-6.38867-3.4209    c-0.50879,0.1748-1.16113,0.64014-1.37695,1.86475c-0.14941,0.84717-2.72852,1.90039-4.94922,2.31592    c-0.12067,0.02258-0.22797,0.07251-0.32733,0.13226c-5.89655-3.9718-12.59711-6.38361-18.82111-6.64838    c-0.54102-0.01758-1.01855,0.40527-1.04199,0.95654c-0.02344,0.55176,0.4043,1.01807,0.95605,1.0415    c4.35803,0.18549,9.08875,1.56488,13.55457,3.84076c-0.43524,1.03101-1.37408,2.92566-2.33093,3.58795    c-0.4541,0.31445-0.56738,0.9375-0.25293,1.3916C25.74707,39.34961,26.05859,39.5,26.37598,39.5    c0.19629,0,0.39453-0.05762,0.56836-0.17773c1.39703-0.96747,2.46753-3.13239,2.95905-4.27295    c2.69543,1.54376,5.26099,3.40625,7.54193,5.53467l0.70215,0.65186c3.22064,2.98865,6.83514,6.34723,8.09558,10.40338    c-2.61285-1.57379-4.96588-0.82092-6.93738-0.18219C38.24609,51.80029,37.24512,52.125,36.25,52.125    c-0.97852,0-1.36523-0.2168-1.44043-0.34473c-0.09961-0.17236,0.02246-0.60645,0.15723-0.8623    c0.7666-1.0415,3.93164-5.65283,1.76465-7.9751c-0.43945-0.4707-0.99902-0.71387-1.68848-0.67871    c-1.8877,0.07666-4.27344,2.48145-5.54395,3.92871c-1.16895-1.14453-2.72656-1.85449-4.03125-2.44971    c-0.78516-0.3584-1.97168-0.89941-2.0957-1.18945l-0.03516-0.54248c-0.11328-1.8291-0.25391-4.10547-1.78906-5.50098    c-0.87402-0.79492-2.19141-0.89062-3.58691-0.99219c-1.41699-0.10303-2.88281-0.20947-3.7998-1.01807    c-1.93066-1.70361-3.84961-6.10303-3.86816-6.14697c-0.21973-0.50586-0.80469-0.7417-1.31543-0.52051    c-0.50684,0.21924-0.73926,0.80762-0.52051,1.31445C8.54199,29.34424,10.57227,34,12.83887,36    c1.42188,1.25439,3.39355,1.39795,4.97754,1.51318c0.99414,0.07227,2.02344,0.14697,2.38574,0.47656    c0.93457,0.8501,1.04785,2.67725,1.13867,4.14502l0.03711,0.56152c0.10156,1.42627,1.56543,2.09375,3.25977,2.86621    c1.49121,0.68018,3.18164,1.45117,4.02637,2.73682c0.17676,0.26807,0.4707,0.43555,0.79199,0.44971    c0.32129,0.00537,0.62793-0.12695,0.82812-0.37842c1.29004-1.62988,3.7207-4.0625,4.84082-4.10791    c0.11133-0.00439,0.11719,0.01514,0.14355,0.04443c0.76758,0.82275-0.63672,3.70605-1.94629,5.47168    c-0.02051,0.02783-0.04004,0.05762-0.05859,0.0874c-0.0957,0.16309-0.91895,1.62891-0.19141,2.90381    C33.58496,53.66943,34.6543,54.125,36.25,54.125c1.31055,0,2.51172-0.38916,3.67285-0.76562    c2.42932-0.78711,4.3526-1.40643,6.92889,1.36273c0.21106,1.63068,0.28967,3.35974,0.24866,5.16541    c-3.2757,0.53912-7.25366,1.72815-8.35291,2.06635c-1.05481-0.64246-2.05035-0.69995-2.11859-0.70288    c-0.54395-0.00781-1.00586,0.39893-1.03516,0.94629c-0.02832,0.54736,0.39355,1.01611,0.94043,1.05127    c0.06543,0.00439,1.60547,0.12158,2.33398,1.77881c0.16406,0.375,0.53125,0.59814,0.91602,0.59814    c0.13379,0,0.27051-0.02734,0.40137-0.08496c0.50586-0.22217,0.73535-0.8125,0.5127-1.31787    c-0.10577-0.24078-0.22528-0.45538-0.35004-0.65875c1.57178-0.45874,4.29871-1.20813,6.65997-1.63031    c-0.00287,0.03943-0.00226,0.07672-0.00525,0.11621c-0.04199,0.55078,0.37109,1.03076,0.92188,1.07227    c0.02539,0.00195,0.05078,0.00293,0.07617,0.00293c0.51855,0,0.95703-0.3999,0.99609-0.9248    c0.01385-0.18384,0.01282-0.35913,0.02435-0.54169c0.1756-0.01416,0.3515-0.02844,0.51276-0.034    c0.3205-0.01141,0.61237-0.01324,0.90405-0.01526c-0.01855,0.08185-0.0329,0.14551-0.03882,0.172    c-0.12109,0.53857,0.21777,1.07373,0.75684,1.19434C51.22949,62.99219,51.30371,63,51.37598,63    c0.45801,0,0.87012-0.31592,0.97461-0.78125c0.00354-0.01544,0.04858-0.2146,0.12683-0.55194    c1.47791,0.10242,2.25586,0.29694,2.26477,0.2995C54.82617,61.98877,54.91309,62,55,62c0.31036,0,0.60089,0.01605,0.89142,0.03204    c-0.01056,0.31189-0.01526,0.51587-0.01642,0.57294c-0.01074,0.55225,0.42773,1.00879,0.98047,1.02002    c0.00684,0,0.01367,0,0.01953,0c0.54297,0,0.98926-0.43457,1-0.97998c0.00018-0.01196,0.00305-0.1413,0.01031-0.36395    c2.89783,0.58496,4.50433,1.96411,5.26715,2.85797c-0.67627,0.21576-1.30316,0.47931-1.8175,0.69592l-0.34375,0.14453    c-1.27051,0.52832-2.74902,1.10596-4.23145,1.27734c-0.54785,0.06299-0.94141,0.55908-0.87793,1.10791    c0.05859,0.50977,0.49121,0.88525,0.99219,0.88525c0.03809,0,0.07715-0.00195,0.11621-0.00684    c1.73828-0.20068,3.37305-0.83691,4.76953-1.41699l0.35156-0.14795c2.74414-1.1582,4.18066-1.43311,4.92285,0.12646    c0.2373,0.49805,0.83301,0.71045,1.33301,0.47314c0.49902-0.2373,0.71094-0.83398,0.47363-1.33252    c-0.8233-1.72931-2.13855-2.23773-3.50592-2.21033c-0.58588-0.93274-2.65869-3.63031-7.35492-4.4751    c0.10559-1.79761,0.31244-4.3808,0.70667-6.94617c0.23108,0.01398,0.46259,0.02661,0.69128,0.02661    c0.8916,0,1.74609-0.11719,2.42285-0.43555C64.46973,51.64893,64.5,48.74805,64.5,48.625    c0-0.54932-0.44336-0.9917-0.99219-0.99609c-0.59277-0.01025-0.99902,0.43896-1.00781,0.98877    c-0.00098,0.07178-0.04492,1.76904-1.55078,2.47754c-0.45233,0.21259-1.14288,0.26807-1.91461,0.2348    c0.38971-1.95532,0.90771-3.76678,1.59705-5.04663l4.03241-0.67206c0.54492-0.09082,0.91309-0.60596,0.82227-1.15088    c-0.08984-0.54443-0.60742-0.91162-1.15039-0.82178l-2.15869,0.3598c0.48596-0.65082,1.04333-1.36664,1.65833-2.13165    c0.01215,0.00092,0.02228,0.00775,0.03455,0.00818c0.62653,0.02313,4.09875,1.19885,7.08813,2.31824    c0.31152,0.49554,0.70581,1.1142,1.14008,1.77802c-0.66577,0.96631-1.97687,3.09998-1.70673,4.58246    c0.08691,0.48291,0.50781,0.82129,0.98242,0.82129c0.05957,0,0.11914-0.00537,0.17969-0.01611    c0.54395-0.09863,0.9043-0.61963,0.80469-1.1626c-0.07574-0.41724,0.3783-1.44611,0.95654-2.41479    c0.99591,1.43475,1.98511,2.72607,2.52979,3.06665c0.16016,0.1001,0.33594,0.14746,0.50879,0.14746    c0.32031,0,0.63281-0.1626,0.82812-0.45264c0.30078-0.44727,0.16992-1.06836-0.2666-1.38428    c-0.5401-0.39087-2.59705-3.38281-4.27045-6.04028l0.12103-1.81372c5.4502,2.82324,7.91992-0.30371,8.03027-0.44971    c0.24219-0.31836,0.27148-0.75049,0.07422-1.09863c-1.87891-3.31006-1.28711-7.27832-0.95117-8.8125    C85.0332,30.52686,87.625,29.45312,87.625,27.75C87.625,26.33838,86.80957,25.3457,86.03125,24.77393z M39.50781,39.77002    l-0.69727-0.64844c-1.02997-0.96094-2.11115-1.86176-3.22461-2.71234c1.87543-0.50885,4.79657-1.61261,5.14844-3.61041    c0.03613-0.20166,0.08105-0.29883,0.07617-0.32178c0.21973-0.01172,1.20117,0.14355,4.51953,3.14014    c0.0791,0.07178,0.16895,0.12988,0.26758,0.17334c0.18945,0.0835,1.89551,0.79443,3.33301-0.03369    c0.6123-0.35254,1.37988-1.11963,1.56348-2.77148c0.17773-1.60254-0.11426-2.88965-0.86816-3.82617    c-0.92383-1.14893-2.35059-1.54541-3.50586-1.71436c-0.78809-1.44824-2.09375-4.45117-1.39844-6.10498    c0.15137-0.36133,0.47363-0.87012,1.50977-1.11719c3.15527-0.75,4.08789,0.64795,5.07715,2.13037    c0.41895,0.62891,0.81543,1.22314,1.38672,1.604C53.86621,24.73779,54.75,26.26123,54.75,27.5    c0,0.271,0.11035,0.53027,0.30469,0.71875c0.19434,0.18799,0.45312,0.29346,0.72852,0.28076    c1.35547-0.04297,3.84473,0.05762,4.76953,0.52002c0.24414,0.12256,0.51428,0.13397,0.75525,0.05566    c-0.05103,0.43024-0.08203,0.82379-0.10779,1.16406c-0.02441,0.32129-0.05371,0.70947-0.09277,0.89844    c-0.39941,0.25488-1.76465,0.56885-2.59961,0.76074c-1.13104,0.26013-2.16504,0.5033-2.95825,0.85309    c-1.13538-3.93457-6.21234-9.30334-6.82886-9.9444c-0.38281-0.39844-1.01562-0.41113-1.41406-0.02783    c-0.39746,0.38281-0.41016,1.01562-0.02734,1.41357c1.6748,1.74268,6.10449,6.87939,6.47949,9.68945    c0.02405,0.17914,0.10553,0.33069,0.20801,0.4646c-0.28101,0.6601-0.57697,1.58313-0.92432,2.67358    c-0.04968-0.00281-0.09637-0.01996-0.14697-0.01514c-1.36792,0.14404-3.7998,1.69971-5.95319,3.27087    c-0.71173-0.76862-3.48517-2.82288-4.35052-3.45789c-0.44629-0.32666-1.07129-0.22998-1.39844,0.21533    c-0.32617,0.44531-0.23047,1.07129,0.21484,1.39795c1.56799,1.1496,3.38287,2.54889,3.92285,3.05682    c-0.94696,0.73425-1.73804,1.38141-2.21057,1.77478C41.94562,42.034,40.7016,40.87756,39.50781,39.77002z M49.46582,59.62549    c-0.11224,0.00385-0.23615,0.01532-0.35406,0.02283c0.04211-2.6485-0.17328-5.14136-0.64984-7.43347    c-0.58679-2.82098-2.12152-5.26526-3.99731-7.46613c2.45441-2.03949,6.00104-4.67505,7.84735-5.49762    c-0.37421,1.0816-0.77234,2.09851-1.15961,2.71912c-1.37891,2.20605-1.06641,8.38965-1.02539,9.0874    C50.15723,51.58936,50.59766,52,51.12402,52c0.01953,0,0.03906-0.00049,0.05859-0.00146    c0.55176-0.03223,0.97266-0.50488,0.94043-1.05615c-0.1377-2.39014-0.0625-6.65186,0.72461-7.9126    c0.77832-1.24463,1.46484-3.40479,2.07129-5.31055c0.39355-1.23682,0.80078-2.51611,1.04102-2.92285    c0.21564-0.22949,1.08685-0.48413,1.93597-0.69641c-0.00232,0.0722-0.01636,0.14258-0.00238,0.21643    c0.00684,0.03467,0.63086,3.53369-1.79199,8.49463c-2.02893,4.15411-4.22455,12.75922-5.19489,16.7998    C50.4563,59.60663,49.98431,59.60828,49.46582,59.62549z M55.98608,60.03906c-0.28595-0.0155-0.56525-0.03668-0.86694-0.03857    c-0.28705-0.06519-1.0274-0.20624-2.17365-0.3009c0.44208-1.81903,1.09656-4.41058,1.85168-7.07123    c0.46155,0.12738,1.13507,0.29474,1.90747,0.43701C56.30347,55.65704,56.09406,58.21918,55.98608,60.03906z M79.05859,29.00244    c-0.41309,0.02734-0.76562,0.30566-0.88867,0.70068c-0.07324,0.23438-1.67871,5.54199,0.58398,10.31641    c-0.80566,0.50586-2.76074,1.09717-6.33301-1.23193c-0.29785-0.19482-0.67578-0.2168-0.99316-0.05713    c-0.31738,0.15869-0.52734,0.47363-0.55078,0.82812l-0.16016,2.41113c-1.58508-0.58185-3.91675-1.40784-5.46893-1.82727    c1.9433-2.33478,4.20007-4.90747,6.2973-7.21051L74.1709,33.479c0.06934,0.01416,0.1377,0.021,0.20508,0.021    c0.46387,0,0.87988-0.32422,0.97754-0.7959c0.11328-0.54102-0.2334-1.07031-0.77441-1.18311l-1.45636-0.30341    c2.37555-2.55127,4.34058-4.52045,5.06671-5.0174c0.45605-0.31152,0.57227-0.93408,0.26074-1.38965    c-0.31055-0.45508-0.93262-0.57227-1.38965-0.26074c-1.1698,0.80005-4.32306,4.04272-7.70245,7.79199    c-0.37061-1.66119-1.01959-3.71796-1.28192-4.52588c-0.17188-0.52539-0.73242-0.81299-1.26074-0.64209    c-0.52441,0.1709-0.8125,0.73486-0.6416,1.26025c0.74512,2.29297,1.50879,5.1333,1.45703,5.70557    c-0.00488,0.04419,0.01056,0.08405,0.01141,0.12732c-3.5957,4.08087-7.11505,8.36523-8.49188,10.5802    c-0.94647,1.52283-1.6203,3.81262-2.10046,6.24609c-0.60394-0.11084-1.18262-0.24609-1.69159-0.38599    c0.81268-2.70447,1.69958-5.2973,2.5401-7.01831c2.74219-5.61426,1.99023-9.59326,1.95703-9.76025    c-0.01959-0.09839-0.06677-0.18164-0.112-0.2655c1.75873-0.42389,2.79492-0.78815,3.17059-1.63196    c0.18848-0.42432,0.22656-0.93457,0.28027-1.64111c0.13477-1.78564,0.36133-4.76514,3.50098-7.43848l1.69531-0.94141    c2.10547,1.08398,5.31152,2.61768,6.46973,2.4834c0.33594-0.03711,0.63086-0.24316,0.7832-0.54443    C76.02246,23.19824,77.32031,21.25,78.75,21.25c1.71582,0,3.59082-0.18604,4.57422-0.29932    c0.48047,0.98096,1.08008,2.68555,0.6123,3.95361c-0.18359,0.49951,0.05566,1.05518,0.54492,1.26465    c0.01074,0.00488,1.05469,0.47949,1.13867,1.45605C85.03125,28.16992,82.04688,28.80225,79.05859,29.00244z"></path><path fill="#000000" d="M77.64453,44.80273c-0.24707-0.49414-0.84766-0.69385-1.3418-0.44727    c-0.49414,0.24707-0.69434,0.84766-0.44727,1.3418c0.77539,1.55127,3.78125,4.77197,5.50586,6.55566    c-2.60352,0.73486-6.5957,1.7959-7.91992,1.87402c-1.9209,0.11035-5.43066-1.0918-6.04688-2.32422    c-0.24805-0.49365-0.84863-0.69482-1.3418-0.44727c-0.49414,0.24707-0.69434,0.84766-0.44727,1.3418    c1.04492,2.08936,5.09766,3.43604,7.58984,3.43604c0.12598,0,0.24707-0.00293,0.36328-0.01025    c2.17676-0.12793,9.18262-2.18018,9.97461-2.41406c0.33789-0.09961,0.59863-0.37061,0.68555-0.7124    s-0.01172-0.7041-0.26172-0.95361C82.45898,50.54492,78.40527,46.32373,77.64453,44.80273z"></path><path fill="#000000" d="M66.41406,68.93945c-0.44727,0.32324-0.54785,0.94824-0.22461,1.396    c0.65527,0.90723,0.41309,3.0542-0.14844,4.61377c-0.5423,1.50806-1.43213,2.9267-2.54065,4.14484    c-0.05231-0.02185-0.09656-0.05615-0.15369-0.06915c-5.73535-1.30225-12.79004,1.42676-13.08691,1.54443    c-0.51465,0.20166-0.76758,0.78223-0.56543,1.29639c0.1543,0.39404,0.53223,0.63477,0.93066,0.63477    c0.12207,0,0.24609-0.02246,0.36523-0.06982c0.06207-0.02386,5.75854-2.22595,10.67615-1.65717    c-1.50342,1.14386-3.21295,1.94342-4.92908,2.22357c-3.02051,0.4917-8.7832,0.99707-13.44336-1.15479    c-0.50195-0.2334-1.0957-0.0127-1.32715,0.48828c-0.23145,0.50146-0.0127,1.0957,0.48926,1.32715    c2.94336,1.35986,6.2373,1.76709,9.12598,1.76709c2.15723,0,4.08887-0.22754,5.47754-0.4541    c4.69238-0.76611,9.16016-4.6084,10.86426-9.34473c0.1543-0.43066,1.46777-4.27295-0.11328-6.46143    C67.48633,68.71582,66.86328,68.61523,66.41406,68.93945z"></path><path fill="#000000" d="M37.42871,73.54932c0.4375,0.31543,1.05762,0.21045,1.38574-0.21875    c0.00781-0.01123,0.87793-1.10449,3.72168-1.20605c3.2041-0.11572,6.93652,1.16699,8.1416,1.77002    C50.82129,73.96631,50.97363,74,51.12402,74c0.36719,0,0.71973-0.20215,0.89551-0.55273    c0.24707-0.49414,0.04688-1.09473-0.44727-1.3418c-1.11621-0.55811-5.17773-2.10889-9.1084-1.97998    c-3.89941,0.13965-5.16406,1.87256-5.2959,2.06982C36.86914,72.64404,36.98926,73.23584,37.42871,73.54932z"></path><path fill="#000000" d="M42.89551,81.12891c0.53516,0.15381,1.08398-0.15967,1.23438-0.69141    c0.14941-0.53125-0.16016-1.08398-0.69141-1.2334c-0.26367-0.07422-0.53223-0.16309-0.80469-0.25293    c-0.95508-0.31445-2.03613-0.67139-3.16895-0.55176c-0.28918,0.03052-0.55316,0.10748-0.79852,0.2121    c-3.82733-2.95917-3.30835-9.1842-1.63312-12.81757c0.23145-0.50146,0.01172-1.0957-0.48926-1.32715    c-0.50488-0.23242-1.09668-0.01172-1.32715,0.48926c-2.25873,4.89825-2.21265,11.66302,2.07239,15.12402    c-0.10559,0.28278-0.17792,0.59143-0.20325,0.92822c-0.04199,0.55029,0.37109,1.03076,0.92188,1.07227    c0.02539,0.00195,0.05078,0.00293,0.07617,0.00293c0.51855,0,0.95605-0.39941,0.99609-0.9248    c0.05371-0.71338,0.3916-0.74902,0.59375-0.77002c0.71191-0.0791,1.53223,0.19824,2.33398,0.46191    C42.30859,80.94971,42.60547,81.04736,42.89551,81.12891z"></path></g></g></svg>