<svg height='100px' width='100px'  fill="#000000" xmlns="http://www.w3.org/2000/svg" xmlns:xlink="http://www.w3.org/1999/xlink" version="1.1" x="0px" y="0px" viewBox="0 0 100 100" enable-background="new 0 0 100 100" xml:space="preserve"><g display="none"><rect x="53.5" y="35.5" display="inline" fill="#000000" stroke="#000000" stroke-miterlimit="10" width="95" height="95"></rect><rect x="53.5" y="-86.5" display="inline" fill="#000000" stroke="#000000" stroke-miterlimit="10" width="95" height="95"></rect><rect x="-68.5" y="-86.5" display="inline" fill="#000000" stroke="#000000" stroke-miterlimit="10" width="95" height="95"></rect><rect x="-68.5" y="35.5" display="inline" fill="#000000" stroke="#000000" stroke-miterlimit="10" width="95" height="95"></rect></g><g><path fill="#000000" d="M82.248,35.718c-0.017-0.512-0.048-1.019-0.094-1.516c-1.167-12.768-11.619-21.686-25.418-21.686   c-11.382,0-16.305,7.659-20.647,14.416c-1.067,1.66-2.074,3.228-3.169,4.701c-1.457,1.961-2.948,3.808-4.391,5.594   c-1.866,2.31-3.795,4.698-5.656,7.343c-3.566,5.072-5.154,10.136-5.148,16.42c0.016,16.584,13.908,26.494,27.329,26.494   c4.748,0,9.415-1.208,13.497-3.492c3.107-1.739,6.186-4.208,8.903-7.141C76.936,66.614,82.743,50.468,82.248,35.718z    M69.822,68.161c-2.992-0.163-4.422-0.686-4.458-0.699c-0.688-0.275-1.471,0.06-1.749,0.748c-0.28,0.691,0.053,1.479,0.744,1.758   c0.156,0.063,1.341,0.508,3.724,0.764c-0.988,1.354-2.032,2.628-3.125,3.808c-2.479,2.675-5.269,4.917-8.069,6.484   c-3.576,2.001-7.669,3.059-11.837,3.059c-11.751,0-23.915-8.639-23.928-23.097c-0.005-5.539,1.392-9.999,4.529-14.461   c1.143-1.625,2.294-3.122,3.472-4.607c1.704,1.493,4.936,4.059,8.658,5.671c0.175,0.076,0.357,0.112,0.536,0.112   c0.521,0,1.019-0.305,1.239-0.814c0.296-0.684-0.018-1.479-0.702-1.775c-3.435-1.488-6.497-3.95-8.04-5.307   c0.119-0.148,0.236-0.293,0.356-0.442c1.464-1.812,2.978-3.687,4.476-5.703c1.163-1.566,2.249-3.256,3.299-4.89   c2.394-3.725,4.714-7.332,7.986-9.772c0.705,0.934,2.146,2.387,4.946,3.799c0.195,0.098,0.402,0.145,0.607,0.145   c0.494,0,0.969-0.271,1.207-0.742c0.335-0.666,0.068-1.478-0.598-1.813c-2.183-1.1-3.311-2.173-3.851-2.82   c2.075-1.04,4.513-1.649,7.49-1.649c11.972,0,21.032,7.646,22.033,18.597c0.04,0.433,0.067,0.872,0.082,1.318   C79.217,46.772,75.717,58.897,69.822,68.161z M51.587,71.457c-0.146,0.623-0.7,1.042-1.313,1.042c-0.102,0-0.205-0.011-0.309-0.036   c-7.641-1.787-11.667-4.995-11.834-5.13c-0.58-0.469-0.669-1.319-0.2-1.898c0.468-0.578,1.316-0.669,1.896-0.203   c0.037,0.03,3.763,2.967,10.754,4.603C51.307,70.004,51.757,70.73,51.587,71.457z M72.814,40.911   c0.055,0.744-0.504,1.391-1.248,1.445c-0.491,0.036-0.97,0.053-1.436,0.053c-5.519,0-9.144-2.338-9.308-2.446   c-0.623-0.41-0.796-1.247-0.386-1.87c0.408-0.621,1.244-0.795,1.866-0.389c0.051,0.033,3.713,2.348,9.066,1.959   C72.117,39.613,72.76,40.167,72.814,40.911z M37.15,63.25c0.26,0.24,0.4,0.59,0.4,0.95c0,0.36-0.14,0.7-0.4,0.96   c-0.25,0.25-0.59,0.39-0.95,0.39c-0.36,0-0.7-0.14-0.95-0.39c-0.26-0.26-0.4-0.6-0.4-0.96c0-0.36,0.14-0.7,0.4-0.95   C35.75,62.74,36.65,62.74,37.15,63.25z M56.31,22.07c0.25,0.25,0.39,0.6,0.39,0.95c0,0.36-0.14,0.7-0.39,0.96   c-0.26,0.25-0.6,0.39-0.95,0.39c-0.37,0-0.71-0.14-0.96-0.39c-0.26-0.26-0.4-0.6-0.4-0.96c0-0.35,0.15-0.7,0.4-0.95   C54.9,21.57,55.81,21.57,56.31,22.07z"></path></g></svg>