<svg height='100px' width='100px'  fill="#000000" xmlns="http://www.w3.org/2000/svg" xmlns:xlink="http://www.w3.org/1999/xlink" xml:space="preserve" style="shape-rendering:geometricPrecision;text-rendering:geometricPrecision;image-rendering:optimizeQuality;" viewBox="0 0 6.82666 6.82666" x="0px" y="0px" fill-rule="evenodd" clip-rule="evenodd"><defs><style type="text/css">
   
    .fil2 {fill:none}
    .fil1 {fill:#000000}
    .fil0 {fill:#000000;fill-rule:nonzero}
   
  </style></defs><g><g><path class="fil0" d="M5.07691 2.50193c-0.196378,0.912441 -1.01618,0.64865 -1.08102,0.62628 -0.0362638,-0.0103268 -0.0594016,-0.046748 -0.0524173,-0.0845827l0.000232283 4.33071e-005c0.00106299,-0.00595669 0.160902,-0.920087 1.07694,-0.629539 0.0397244,0.00876772 0.0649528,0.0480039 0.0563898,0.0878268l-0.000125984 -2.75591e-005z"></path><path class="fil0" d="M4.54718 2.83562c0.0352835,-0.0202756 0.0474488,-0.0653189 0.0271732,-0.100606 -0.0202756,-0.0352835 -0.0653228,-0.0474488 -0.100606,-0.0271732l-0.494213 0.285327c-0.0352835,0.0202756 -0.0474488,0.0653228 -0.0271732,0.100606 0.0202756,0.0352874 0.0653228,0.0474528 0.100606,0.0271772l0.494213 -0.285331z"></path><path class="fil0" d="M2.47709 1.80839c-0.0730433,0.0254134 -1.1219,0.369063 -1.37224,-0.794335l-0.000125984 3.14961e-005c-0.00856299,-0.0398228 0.0166614,-0.0790472 0.0563819,-0.0878228 1.16426,-0.370531 1.36686,0.790941 1.36806,0.797614l0.000232283 -4.33071e-005c0.00697244,0.0377953 -0.0161063,0.0741811 -0.0523071,0.0845551z"></path><path class="fil0" d="M1.85356 1.30401c-0.0352874,-0.0202756 -0.0803307,-0.00811024 -0.100606,0.0271772 -0.0202795,0.0352835 -0.00811417,0.0803307 0.0271732,0.100606l0.639772 0.36937c0.0352874,0.0202756 0.0803346,0.00811417 0.10061,-0.0271732 0.0202756,-0.0352835 0.00811024,-0.0803307 -0.0271772,-0.100606l-0.639772 -0.369374z"></path><path class="fil0" d="M4.3447 1.86786c-0.160783,0.746992 -0.829598,0.535925 -0.889098,0.515575 -0.0363031,-0.0102835 -0.0594921,-0.0467087 -0.0525315,-0.0845669l0.000232283 4.33071e-005c0.000677165,-0.00377559 0.131803,-0.756965 0.885142,-0.518843 0.0397165,0.00877559 0.0649449,0.048 0.0563819,0.0878189l-0.000125984 -2.75591e-005z"></path><path class="fil0" d="M3.91089 2.14618c0.0352835,-0.0202756 0.0474488,-0.0653228 0.0271732,-0.100606 -0.0202756,-0.0352874 -0.0653228,-0.0474488 -0.100606,-0.0271732l-0.398315 0.229961c-0.0352835,0.0202756 -0.0474488,0.0653228 -0.0271732,0.10061 0.0202756,0.0352835 0.0653228,0.0474488 0.100606,0.0271732l0.398315 -0.229965z"></path><path class="fil0" d="M2.75437 3.59585c-0.0645354,0.022252 -0.871157,0.28135 -1.06445,-0.616748l-0.000129921 3.14961e-005c-0.00856299,-0.0398228 0.0166654,-0.0790591 0.0563937,-0.0878268 0.901862,-0.285992 1.05933,0.613937 1.0604,0.619992l0.00023622 -4.33071e-005c0.00698425,0.0378425 -0.0161654,0.0742756 -0.0524488,0.0845945z"></path><path class="fil0" d="M2.28482 3.18024c-0.0352874,-0.0202756 -0.0803346,-0.00811417 -0.10061,0.0271732 -0.0202756,0.0352835 -0.00811024,0.0803307 0.0271772,0.100606l0.485941 0.280559c0.0352835,0.0202756 0.0803307,0.00811024 0.100606,-0.0271772 0.0202756,-0.0352835 0.00811417,-0.0803307 -0.0271732,-0.100606l-0.485941 -0.280555z"></path><path class="fil1" d="M3.17402 4.29534l-2.06917 0c-0.0612913,0 -0.111008,-0.0497165 -0.111008,-0.111012 0,-0.0612913 0.0497165,-0.111008 0.111008,-0.111008l2.06235 0c-0.053685,-0.129417 -0.137559,-0.241728 -0.252567,-0.329094 -0.0459409,-0.0348976 -0.0962874,-0.0653268 -0.14889,-0.0891102 -0.0197717,-0.00894488 -0.0415748,-0.018 -0.0625,-0.0240551 -0.0586654,-0.0169685 -0.0925551,-0.0785512 -0.075563,-0.137197 0.0169961,-0.0586496 0.0785551,-0.0925433 0.137094,-0.0755709 0.028937,0.0081811 0.0596654,0.0208937 0.0870591,0.033248 0.0682992,0.0307992 0.133673,0.0699724 0.193472,0.115047 0.0651102,0.0490748 0.122661,0.104343 0.172591,0.165012 -0.0110433,-0.304909 -0.0470984,-0.612736 -0.126409,-0.899717 -0.111874,-0.40478 -0.316201,-0.783323 -0.690047,-0.998657 -0.0528661,-0.0304488 -0.0711929,-0.0981969 -0.0407874,-0.151106 0.0304055,-0.0529173 0.098248,-0.0712717 0.151154,-0.0407992 0.313902,0.180799 0.525579,0.456402 0.666642,0.773917 0.0105118,-0.0119488 0.0213071,-0.0236575 0.0323937,-0.0351142 0.0621535,-0.0642165 0.132386,-0.119213 0.209839,-0.163823 0.0529016,-0.0304724 0.120744,-0.0121181 0.151154,0.0407992 0.0304055,0.0529094 0.0120787,0.120657 -0.0407874,0.151106 -0.0595984,0.0343268 -0.113406,0.0769055 -0.161217,0.126303 -0.0369449,0.0381654 -0.0697795,0.0799764 -0.0988346,0.124343 0.012126,0.0376654 0.0234646,0.075689 0.0340551,0.114 0.0678031,0.245346 0.105925,0.503898 0.124264,0.763634 0.00854724,-0.0154528 0.0173622,-0.0307953 0.0264567,-0.0460315 0.12648,-0.211886 0.295406,-0.382547 0.496701,-0.524075 0.050063,-0.0351969 0.119248,-0.0231535 0.154461,0.0269055 0.0352165,0.050063 0.0231654,0.119268 -0.0269055,0.154476 -0.17548,0.12337 -0.323772,0.271551 -0.434091,0.456366 -0.0872559,0.146177 -0.144724,0.304701 -0.182335,0.469193l2.25822 0c0.0612953,0 0.111012,0.0497165 0.111012,0.111008 0,0.0612953 -0.0497165,0.111012 -0.111012,0.111012l-1.95031 0c0.00707874,0.00312598 0.0139291,0.00705512 0.020437,0.0117913 0.0494016,0.0359764 0.0603268,0.105256 0.0243031,0.154638l-0.167051 0.228984c0.0258346,0.0101181 0.0535827,0.0139764 0.0828819,0.00825197 0.0600315,-0.0117323 0.118425,0.0275945 0.130138,0.087622 0.0117165,0.0600315 -0.0275945,0.118402 -0.0876181,0.13013 -0.0527953,0.010315 -0.104835,0.00900787 -0.155457,-0.00374016 0.010185,0.0142913 0.0220197,0.0275827 0.0347244,0.0398386 0.00546063,-0.00144094 0.0107402,-0.00269291 0.0157205,-0.00375197 0.105205,-0.0222874 0.222732,-0.000692913 0.323354,0.031937 0.0513425,0.0166535 0.0970118,0.0374921 0.143524,0.061437 0.0012126,0.000598425 0.00240945,0.00122047 0.00359843,0.00185827 0.00987008,0.00511024 0.0197835,0.0103583 0.0298071,0.0157362 0.0245157,0.0131496 0.0507677,0.0277756 0.0775748,0.0355236 0.0315866,0.0091378 0.060311,0.00691732 0.0916535,-0.00231496 0.0554016,-0.016315 0.114004,-0.0529528 0.161409,-0.0851339 0.0505079,-0.0342874 0.119516,-0.0210118 0.153756,0.0295118 0.0342323,0.0505118 0.0209724,0.119445 -0.0295039,0.153709 -0.0718268,0.0487598 -0.155583,0.0993543 -0.239528,0.123669 -0.0304449,0.00882283 -0.0602087,0.0139291 -0.0900591,0.0146614 0.0265,0.0344409 0.0563386,0.065374 0.0888268,0.0930315 0.00611417,0.00407874 0.0118543,0.00878346 0.0171102,0.0140787 0.0763898,0.0607126 0.166063,0.104516 0.260898,0.13422 0.0583583,0.0182835 0.0910236,0.0804134 0.0728346,0.138827 -0.0182008,0.058437 -0.0804685,0.0911811 -0.138906,0.072878 -0.0609921,-0.0191063 -0.119791,-0.0428701 -0.175472,-0.0715512 0.0160079,0.0330709 0.0345118,0.0656535 0.0519606,0.0954528 0.0308465,0.0526693 0.0131378,0.120638 -0.0395276,0.151512 -0.0526654,0.030878 -0.120677,0.0131575 -0.151535,-0.0395315 -0.0612244,-0.104539 -0.130697,-0.256043 -0.0980118,-0.381476 -0.0371811,-0.0383858 -0.0710079,-0.0806732 -0.100902,-0.127024 -0.0347913,-0.0539409 -0.0636811,-0.112705 -0.0840866,-0.173614 -0.00192913,-0.00575591 -0.0038622,-0.0117205 -0.00574409,-0.0178031 -0.0217874,-0.0100512 -0.0440591,-0.019126 -0.0676063,-0.0267638 -0.025685,-0.00833071 -0.0544331,-0.016811 -0.0836575,-0.0232913 0.0267913,0.0678268 0.0340906,0.143665 0.0230669,0.224724 -0.00985827,0.0724685 -0.0375197,0.160776 -0.0741024,0.225091 -0.0299764,0.0533307 -0.0975276,0.0723228 -0.150909,0.0424016 -0.0533976,-0.0299291 -0.0724764,-0.0976142 -0.0425079,-0.150996 0.0215315,-0.0383543 0.0388031,-0.0894409 0.0459961,-0.132413 0.0137244,-0.0819803 -0.003,-0.15622 -0.0729055,-0.207169 -0.000787402,-0.000555118 -0.00156299,-0.00111811 -0.00233465,-0.00169291 -0.0348583,-0.025315 -0.0672913,-0.0536378 -0.0955748,-0.0850512 0.0024252,0.0061811 0.00467323,0.0124173 0.00672047,0.0187008 0.0331102,0.101563 0.00932283,0.193295 -0.047122,0.272063 0.043815,0.0958543 0.0369016,0.202319 -0.00473228,0.306567 -0.0253583,0.0634843 -0.0688661,0.137161 -0.11476,0.188819 -0.0403346,0.0455945 -0.110693,0.0498661 -0.156283,0.0095315 -0.0457244,-0.0404567 -0.0500197,-0.110602 -0.00954724,-0.156315 0.037374,-0.0422126 0.0756142,-0.107921 0.0882795,-0.16239 0.00161024,-0.00692126 0.00288189,-0.0137913 0.00376378,-0.0206024 -0.0333071,0.0192559 -0.0678465,0.0365354 -0.102858,0.0523189 -0.0557323,0.0251299 -0.121543,0.000200787 -0.146657,-0.0555315 -0.0251102,-0.0557362 -0.000192913,-0.121524 0.0555315,-0.146646 0.0356142,-0.0160591 0.0707638,-0.0339803 0.103906,-0.0547126 0.0245236,-0.0153465 0.0486732,-0.0326535 0.0697323,-0.0525512 0.0433307,-0.0409528 0.0600748,-0.0862047 0.0329331,-0.14139 -0.0143504,-0.029185 -0.0439291,-0.0634331 -0.0707362,-0.0824567 -0.015248,-0.0108189 -0.0276732,-0.0247677 -0.0361535,-0.0408858l-0.00625591 0.000866142 -0.00424016 -0.0305709c-0.000389764,-0.00198425 -0.000724409,-0.00398425 -0.00100787,-0.00600394l-0.00509055 -0.0366496 0.000173228 -2.3622e-005 -0.00804331 -0.0579213c-0.00230709,0.00427953 -0.00469291,0.00851575 -0.00715354,0.0127047 -0.0690866,0.1175 -0.18848,0.18502 -0.31602,0.222323 -0.00764961,0.0314685 -0.0115315,0.0660354 -0.0122717,0.0934016 -0.00337008,0.124866 0.0438701,0.242614 0.116638,0.342476 0.0359882,0.0493976 0.0250827,0.118654 -0.024315,0.154622 -0.0494016,0.0359646 -0.118622,0.0250669 -0.154602,-0.024311 -0.104504,-0.143421 -0.165287,-0.310177 -0.157913,-0.488705 0.000125984,-0.00308661 0.000275591,-0.00617717 0.000440945,-0.00926378 -0.0706693,0.0429134 -0.125661,0.111213 -0.167598,0.181457 -0.00411811,0.0108189 -0.0098937,0.0208858 -0.0170354,0.0298583 -0.0444921,0.0815709 -0.0778031,0.171917 -0.102736,0.260709 -0.0130669,0.0465354 -0.0252835,0.0961969 -0.0329409,0.144039 -0.00965354,0.0603661 -0.0663504,0.101571 -0.126748,0.0919843 -0.0604094,-0.00958661 -0.101673,-0.0663465 -0.0920354,-0.126756 0.0106102,-0.067437 0.0296575,-0.13935 0.049815,-0.204307 0.00826772,-0.0266417 0.0172402,-0.053374 0.0269685,-0.0800039 -0.0293425,0.0121496 -0.0566496,0.0273386 -0.0799882,0.0463858 -0.0405472,0.0330827 -0.0586654,0.0673307 -0.0772008,0.114748 -0.0140866,0.0360394 -0.0263543,0.0661969 -0.0565512,0.0920551 -0.0462795,0.0396299 -0.116654,0.0341457 -0.156256,-0.0121457 -0.0365787,-0.042752 -0.0346969,-0.106024 0.00225984,-0.14665 0.000799213,-0.0045748 0.00209449,-0.00906299 0.00401575,-0.0139724 0.0312874,-0.0800512 0.0642874,-0.141374 0.130799,-0.198965 0.0977087,-0.0846063 0.23111,-0.123031 0.359016,-0.140106 0.0108543,-0.0167598 0.0221693,-0.0331299 0.0339488,-0.0490472 0.0944764,-0.127606 0.218902,-0.224177 0.37926,-0.249626 0.0129252,-0.00205118 0.0263819,-0.00447638 0.0401339,-0.00734646 0.00404724,-0.00112598 0.00816142,-0.00201969 0.0123268,-0.0026811 0.0350748,-0.00792913 0.0715669,-0.0188307 0.105598,-0.033878 -0.127906,-0.00667323 -0.257339,-0.0483189 -0.369858,-0.0963031 -0.0560276,-0.0238976 -0.0824134,-0.0893189 -0.0585591,-0.145374 0.0238661,-0.0560669 0.0893504,-0.0824803 0.145409,-0.0585748 0.12511,0.0533583 0.296394,0.105697 0.429846,0.0513465 0.088311,-0.0359606 0.141709,-0.110941 0.178016,-0.195909 0.0170276,-0.0398425 0.0304134,-0.0807835 0.0426102,-0.122173 0.000649606,-0.00254331 0.00138189,-0.00505512 0.00220866,-0.00753937 0.0016378,-0.00562205 0.00325591,-0.011252 0.00485827,-0.0168858zm0.230173 0c-0.00318898,0.0111024 -0.00626772,0.0222362 -0.00937402,0.0333504 -0.00131102,0.00469291 -0.00262598,0.00937402 -0.00394488,0.0140551 0.00701969,0.018063 0.0146614,0.0359961 0.0224213,0.0533898 0.0213189,0.047811 0.0460433,0.095622 0.0747756,0.139925l0.149287 -0.20463c0.0119291,-0.0163543 0.0275,-0.0284882 0.0447953,-0.0360906l-0.277961 0z"></path></g></g><rect class="fil2" width="6.82666" height="6.82666"></rect></svg>