<svg height='100px' width='100px'  fill="#000000" xmlns="http://www.w3.org/2000/svg" xmlns:xlink="http://www.w3.org/1999/xlink" xml:space="preserve" version="1.1" style="shape-rendering:geometricPrecision;text-rendering:geometricPrecision;image-rendering:optimizeQuality;" viewBox="0 0 60000 60000" x="0px" y="0px" fill-rule="evenodd" clip-rule="evenodd"><defs><style type="text/css">
   
    .fil0 {fill:#000000;fill-rule:nonzero}
   
  </style></defs><g><path class="fil0" d="M47951 56203c-101,15 -227,36 -376,61 -823,138 -2211,372 -2335,-123 -538,-2145 -770,-4859 -1013,-7711 -253,-2961 -518,-6071 -1149,-8793l0 0c-460,-1817 -2728,-4026 -4690,-5936 -1049,-1021 -2013,-1960 -2601,-2740 -235,-312 -455,-628 -660,-948 571,2489 2387,5710 4175,8881 210,373 420,746 628,1116 17,10 33,22 49,34 662,544 1279,1075 1820,1596 553,533 1029,1058 1397,1580 112,159 91,371 -39,506 -69,75 -130,144 -202,225 -178,201 -411,465 -621,685 498,1111 875,2150 1058,3075 39,198 -77,391 -263,455 -70,31 -185,83 -318,144 -759,347 -2039,931 -2287,486 -1075,-1932 -2001,-4494 -2974,-7185l-8 -22c-292,-302 -581,-602 -872,-905 -1689,-1758 -3463,-3605 -5268,-5013 -1217,-907 -3791,-1145 -6018,-1350 -1201,-111 -2306,-213 -3086,-408 -1697,-424 -3168,-1164 -4436,-2100 -2877,-2124 -4697,-5252 -5764,-7982 -1076,-2752 -1384,-5156 -1244,-5718 22,-87 56,-162 101,-224 91,-123 239,-178 380,-157l0 -1c38,6 65,-33 232,-76 626,-163 1920,-499 3593,-556 640,-22 1349,-21 2101,35 583,43 1195,119 1826,240 -521,-2308 -638,-4615 -545,-6654 164,-3578 1000,-6384 1428,-6932 61,-78 127,-138 196,-177 135,-77 295,-66 416,14 33,14 115,4 322,38 775,128 2377,394 4256,1153 1464,591 3212,1439 4904,2745 1546,1193 3041,2766 4225,4869 1027,-2766 2259,-4718 2744,-5083 78,-59 157,-99 237,-120 148,-38 298,12 395,118l0 0c23,25 103,32 305,124 715,325 2194,996 3814,2216 1594,1201 3521,2916 5009,5358 1491,2447 2537,5615 2359,9712 -180,4152 -1208,5648 -2306,7247 -659,959 -1344,1957 -1864,3644 -759,2462 406,6662 1555,10806 963,3474 1916,6909 1751,9383 -13,191 -158,342 -341,369l0 0zm-8179 -38674l1 8c156,744 312,1491 468,2239 1228,5888 2465,11821 3814,16357 42,-252 98,-493 169,-722 557,-1806 1276,-2853 1967,-3860 1032,-1503 1998,-2909 2168,-6831 170,-3914 -825,-6934 -2244,-9262 -1422,-2333 -3274,-3980 -4809,-5136 -1507,-1135 -2894,-1777 -3602,-2099 702,2865 1385,6051 2068,9307l0 0zm2768 14521c519,2567 1049,5118 1583,7642 -130,-898 -195,-1745 -169,-2519 -485,-1541 -955,-3271 -1415,-5123zm2065 10155l-229 49c297,2002 475,4090 648,6110 241,2820 470,5504 991,7583 55,221 876,-377 1429,-470l65 -11c59,-2323 -834,-5545 -1737,-8802 -417,-1504 -836,-3015 -1167,-4459zm-1166 -3823c-586,-2786 -1162,-5591 -1721,-8395 -823,-4128 -1611,-8275 -2340,-12389l0 0c-688,-3282 -1377,-6492 -2087,-9380 -603,737 -1767,2860 -2667,5696 -1040,3276 -1691,7463 -643,11489 456,1749 1234,3471 2444,5077 555,737 1496,1653 2520,2650 1690,1646 3599,3505 4495,5253zm-27114 -11996c-109,-16 -184,-118 -168,-227 16,-109 118,-184 227,-168 507,77 1074,117 1625,43 541,-73 1069,-254 1512,-618 85,-70 211,-58 280,27 70,85 58,211 -27,280 -508,417 -1104,624 -1712,706 -597,80 -1201,39 -1738,-43zm-3043 -4598c-109,-16 -184,-118 -168,-227 16,-109 118,-184 227,-168 377,57 798,87 1206,32 398,-53 785,-187 1110,-453 85,-70 211,-58 280,27 70,85 58,211 -27,280 -389,320 -846,478 -1310,541 -454,61 -912,30 -1318,-32zm6087 9195c-109,-16 -184,-118 -168,-227 16,-109 118,-184 227,-168 637,97 1350,147 2045,53 684,-92 1352,-322 1914,-784 85,-70 211,-58 280,27 70,85 58,211 -27,280 -626,515 -1363,770 -2114,871 -740,99 -1491,48 -2157,-53zm-1522 -2299c-109,-16 -184,-118 -168,-227 16,-109 118,-184 227,-168 572,87 1212,132 1835,48 612,-82 1211,-288 1713,-701 85,-70 211,-58 280,27 70,85 58,211 -27,280 -567,466 -1234,697 -1913,788 -669,90 -1346,43 -1947,-48zm-3043 -4598c-109,-16 -184,-118 -168,-227 16,-109 118,-184 227,-168 442,67 936,102 1415,37 469,-63 927,-221 1311,-536 85,-70 211,-58 280,27 70,85 58,211 -27,280 -448,368 -975,551 -1511,623 -525,71 -1057,34 -1528,-37zm26225 17921c336,629 653,1247 942,1847 137,-150 272,-303 384,-430 -308,-397 -684,-801 -1110,-1211 -71,-68 -143,-137 -217,-206zm-4159 -2270c-230,-623 -464,-1246 -705,-1863 -18,-11 -35,-23 -51,-36l-79 -65c-1382,-1147 -2825,-2345 -3877,-3659 -397,-495 -745,-1282 -1095,-2074 -399,-902 -802,-1812 -1199,-2142 -590,-346 -1189,-682 -1767,-1005 -1273,-713 -2443,-1368 -3221,-1975 -1672,-1306 -2935,-2848 -3877,-4507 -760,-1339 -1311,-2753 -1697,-4179 -727,-161 -1431,-254 -2095,-303 -732,-54 -1412,-56 -2019,-35 -1582,55 -2820,376 -3418,531 -57,15 -110,29 -159,41 -37,692 307,2703 1233,5072 1024,2618 2762,5614 5495,7632 1186,876 2563,1568 4155,1966 732,183 1801,282 2964,389 2327,215 5016,463 6416,1501 6,4 12,9 18,13 1719,1341 3385,3042 4978,4699zm-1339 -3424c-427,-1011 -879,-1988 -1366,-2901l0 0c-496,-886 -1535,-1747 -2764,-2562 133,280 263,574 393,868 331,749 661,1493 986,1899 751,938 1735,1833 2751,2696zm-5247 -7095c7,4 13,7 19,11 1257,739 2478,1533 3393,2382 -1878,-3791 -3809,-7709 -5762,-11695 -2476,-5052 -4941,-10118 -7337,-15076 -52,-94 -103,-188 -155,-281 -391,867 -966,3218 -1102,6193 -157,3435 297,7647 2352,11264 894,1574 2091,3036 3674,4272 720,562 1869,1206 3121,1906 587,329 1196,669 1797,1023zm-5368 -21033c35,-105 148,-162 252,-127 105,35 162,148 127,252 -73,222 -161,443 -268,659 -106,215 -231,424 -377,619 -66,88 -191,106 -279,40 -88,-66 -106,-191 -40,-279 130,-173 242,-361 338,-557 96,-195 177,-400 246,-608zm2528 1933c18,-109 121,-182 230,-164 109,18 182,121 164,230 -86,503 -216,1044 -424,1566 -210,528 -498,1034 -897,1457 -76,80 -202,84 -282,9 -80,-76 -84,-202 -9,-282 362,-384 625,-846 818,-1331 195,-490 318,-1005 400,-1485zm2290 2912c18,-109 121,-182 230,-164 109,18 182,121 164,230 -111,650 -287,1358 -584,2024 -300,675 -721,1304 -1319,1787 -86,69 -211,55 -280,-30 -69,-86 -55,-211 30,-280 544,-439 929,-1017 1205,-1637 280,-629 448,-1304 554,-1929zm2290 2912c18,-109 121,-182 230,-164 109,18 182,121 164,230 -121,708 -311,1476 -625,2203 -317,735 -761,1425 -1387,1968 -83,72 -209,63 -281,-20 -72,-83 -63,-209 20,-281 576,-500 986,-1141 1282,-1824 299,-691 480,-1428 597,-2111zm-11140 -5247c-106,-31 -167,-141 -136,-247 31,-106 141,-167 247,-136 228,66 463,118 699,149 233,30 471,38 709,18 110,-9 207,73 216,183 9,110 -73,207 -183,216 -263,22 -529,12 -792,-22 -259,-33 -514,-90 -760,-161zm75 3151c-100,-47 -143,-166 -97,-266 47,-100 166,-143 266,-97 464,216 986,417 1529,533 537,115 1096,150 1641,39 108,-22 213,48 235,155 22,108 -48,213 -155,235 -605,124 -1218,87 -1803,-39 -579,-124 -1129,-335 -1615,-561zm1093 3540c-100,-47 -143,-166 -97,-266 47,-100 166,-143 266,-97 541,252 1149,485 1782,618 627,132 1280,166 1915,26 107,-24 214,44 238,152 24,107 -44,214 -152,238 -697,154 -1406,118 -2082,-24 -671,-141 -1308,-384 -1870,-646zm1093 3540c-100,-47 -143,-166 -97,-266 47,-100 166,-143 266,-97 643,300 1373,576 2131,721 750,143 1530,159 2285,-57 106,-30 217,31 247,138 30,106 -31,217 -138,247 -820,235 -1663,219 -2469,65 -798,-152 -1558,-439 -2225,-750zm1093 3540c-100,-47 -143,-166 -97,-266 47,-100 166,-143 266,-97 731,341 1562,654 2424,812 854,157 1742,163 2599,-105 105,-33 217,26 250,131 33,105 -26,217 -131,250 -924,289 -1877,283 -2790,116 -904,-166 -1767,-490 -2521,-842zm-3380 -20005l98 202c1604,2923 3258,6124 4918,9335 2834,5483 5684,10997 8307,15176 -29,-277 -39,-544 -30,-801 1,-36 7,-71 18,-104 -409,-875 -724,-1768 -959,-2668 -1093,-4197 -421,-8538 656,-11929 23,-74 47,-147 71,-220 -6,-9 -11,-19 -16,-29 -1169,-2306 -2726,-3986 -4340,-5232 -1620,-1250 -3303,-2066 -4713,-2635 -1740,-703 -3238,-965 -4010,-1093zm5656 11642c594,1216 1187,2429 1779,3637 2148,4384 4315,8779 6459,13099 39,61 75,123 110,184l0 0 3 6c346,649 674,1327 987,2024l69 139c9,18 15,38 18,57 869,1958 1629,4059 2362,6087 962,2662 1879,5196 2921,7069 110,198 749,-590 1259,-823l60 -28c-541,-2259 -2223,-5243 -3932,-8274 -1810,-3211 -3650,-6473 -4255,-9092 -2466,-3804 -5148,-8887 -7841,-14086zm14030 -3037c64,-89 189,-110 278,-45 89,64 110,189 45,278 -130,180 -272,353 -426,513 -157,162 -327,312 -513,445 -90,64 -214,43 -278,-47 -64,-90 -43,-214 47,-278 164,-117 316,-251 456,-396 142,-147 272,-305 390,-469zm2073 2329c46,-100 164,-144 264,-98 100,46 144,164 98,264 -213,464 -479,953 -812,1401 -338,455 -747,868 -1242,1175 -94,58 -216,29 -274,-65 -58,-94 -29,-216 65,-274 447,-277 820,-655 1131,-1073 316,-424 568,-888 770,-1329zm1458 3406c46,-100 164,-144 264,-98 100,46 144,164 98,264 -269,587 -613,1208 -1053,1763 -447,562 -994,1056 -1667,1378 -99,47 -218,5 -266,-94 -47,-99 -5,-218 94,-266 611,-293 1113,-748 1527,-1267 419,-527 746,-1120 1003,-1680zm1458 3406c46,-100 164,-144 264,-98 100,46 144,164 98,264 -340,740 -784,1529 -1372,2207 -596,687 -1339,1258 -2266,1546 -105,33 -217,-26 -250,-131 -33,-105 26,-217 131,-250 849,-264 1532,-791 2083,-1426 560,-645 985,-1401 1311,-2111zm1458 3406c46,-100 164,-144 264,-98 100,46 144,164 98,264 -377,820 -870,1696 -1521,2446 -660,760 -1481,1392 -2507,1711 -105,33 -217,-26 -250,-131 -33,-105 26,-217 131,-250 947,-294 1709,-882 2324,-1591 623,-718 1097,-1560 1460,-2351zm-10870 -11362c-94,-57 -124,-180 -66,-274 57,-94 180,-124 274,-66 193,117 394,223 601,311 206,87 420,157 641,204 108,22 177,128 155,236 -22,108 -128,177 -236,155 -246,-52 -484,-130 -714,-227 -229,-97 -447,-212 -654,-338zm-734 3068c-85,-71 -96,-197 -25,-281 71,-85 197,-96 281,-25 366,307 785,614 1242,860 452,243 941,427 1453,492 109,14 186,114 173,223 -14,109 -114,186 -223,173 -567,-73 -1102,-272 -1592,-536 -485,-261 -926,-583 -1310,-905zm139 3702c-85,-71 -96,-197 -25,-281 71,-85 197,-96 281,-25 433,364 931,727 1475,1013 538,283 1122,492 1733,551 110,10 190,108 180,217 -10,110 -108,190 -217,180 -670,-65 -1302,-290 -1882,-595 -573,-302 -1094,-681 -1545,-1060zm139 3702c-85,-71 -96,-197 -25,-281 71,-85 197,-96 281,-25 527,442 1139,884 1809,1217 664,330 1387,554 2143,567 110,2 198,92 196,202 -2,110 -92,198 -202,196 -823,-15 -1602,-255 -2313,-608 -705,-350 -1342,-809 -1889,-1268zm139 3702c-85,-71 -96,-197 -25,-281 71,-85 197,-96 281,-25 667,560 1456,1119 2325,1500 860,377 1800,583 2783,443 109,-15 210,61 225,170 15,109 -61,210 -170,225 -1063,151 -2075,-69 -2997,-473 -912,-400 -1732,-980 -2422,-1560z"></path></g></svg>