<svg height='100px' width='100px'  fill="#000000" xmlns="http://www.w3.org/2000/svg" data-name="Layer 1" viewBox="0 0 100 100" x="0px" y="0px"><title>Truffle</title><path d="M94.88,57.7a8.59,8.59,0,0,0-.66-6.64c0-1,0-4.23-1.42-6.18-.27-1.78-1.23-4.39-3.31-4.81a5.14,5.14,0,0,0-3.3-3.71c-.31-1.06-1.35-2.71-4.84-3.15-2.32-.29-3.91-.53-5.05-.71-1-.15-1.63-.25-2.16-.29-.29,0-.53-.06-.73-.1a3.37,3.37,0,0,0-2,.18,6.85,6.85,0,0,1-1,.22c-1.24.22-2.79.5-3.58,1.55a5.26,5.26,0,0,0-.52.85,3.48,3.48,0,0,0-1.6-.47,2.39,2.39,0,0,0-2,1.08c-.3.41-.49.7-.64.92a1.44,1.44,0,0,1-.76.69c-.93.52-1.61.86-1.61.86l-2.25.87c-.57-.5-1.62-1.4-2.82-2.43a5.48,5.48,0,0,1-1.51-2.12,3.36,3.36,0,0,0-1.19-1.6c-.65-.4-1.76-.46-4-.5a18.59,18.59,0,0,1-2-.09,19.6,19.6,0,0,0-6-2.43h0a14.31,14.31,0,0,0-3-.33A11.09,11.09,0,0,0,33,30.1c-.18,0-.43,0-.74,0-1.55,0-4.3.31-6.09,2.28h-.05a5.52,5.52,0,0,0-5.24,3.84c-2.42.39-6,2-5.9,6l-1.3,2.21c-.74.59-3.38,2.87-3.76,5.23-.29,1.8-.57,3.47-.67,4h0l0,.2c-.34,1.29-1,4.41.26,5.69a3.62,3.62,0,0,1,.87,1.3c-.06.91-.13,3.71,1.09,5l.38.42c.3.34.65.74,1.05,1.12l0,0a6.76,6.76,0,0,0,4.52,2.1c.9.56,4.17,2.57,5,3.12.25.16.58.4.95.66A11.46,11.46,0,0,0,27,75.47L31.92,77h0l.93.34a1,1,0,0,0,.34.06h4.9a11.55,11.55,0,0,0,5-1.59h0l.05,0a1.17,1.17,0,0,1,.56-.1h.71a3.83,3.83,0,0,0,3.34-1.53,6.36,6.36,0,0,0,1.58.2,6.65,6.65,0,0,0,5.49-3.12,1,1,0,0,0,.83-.48,6.29,6.29,0,0,1,.77-.05,2.67,2.67,0,0,1,1.22.23,5.76,5.76,0,0,0,2.59.84,2.29,2.29,0,0,0,.53-.06c2.24,1.35,7.66,4.57,8.73,4.84a4.7,4.7,0,0,0,1.13.11c.54,0,1.16,0,1.75-.09l.54,0h.83a4,4,0,0,0,1.76.38,5.21,5.21,0,0,0,3.25-1.18,9.1,9.1,0,0,0,1.16.08,4.51,4.51,0,0,0,2.6-.66l1.12,0c1.85,0,4.37-.18,5.93-1a11.94,11.94,0,0,0,1.17-.75l.06,0A5.38,5.38,0,0,0,92.89,71l.11-.12c.81-.87,3.15-3.42,2-6.07A7.26,7.26,0,0,0,94.88,57.7ZM73.08,34.09c.25,0,.53.09.89.12s1.09.13,2,.28l.69.1a2.54,2.54,0,0,0-1.17.6,3.17,3.17,0,0,0-.9,2.52,2,2,0,0,1-.29.16,1.71,1.71,0,0,0-.5,0L72.46,34h.12A3.09,3.09,0,0,1,73.08,34.09Zm8.11,39.29.1.23a2,2,0,0,1-.47.15ZM78.73,73l-2.26-.79.72-3.8s0,0,0,0v0s0,0,0,0a1.06,1.06,0,0,0,0-.12v-.37a3.48,3.48,0,0,0,1.59,2.63,6.93,6.93,0,0,0,1.59.88Zm-12.56-.45-1-3.1a1,1,0,0,0,.79.1,1,1,0,0,0,.62-.55l1.21-2.74,2.7,1.88-.32,4.67L69,74.14C68.27,73.77,67.29,73.22,66.17,72.57ZM52.05,67.79l1.29-3.07,2.92,1.48A6.74,6.74,0,0,1,56,68.4a1,1,0,0,0-.34.37,9.57,9.57,0,0,0-1.19.2Zm-7.11,2.85-1.78,3.11a3,3,0,0,0-.49.11l-2.9-1.57,1.1-3.42,4.79-1.36.27,2.17-.79.71A1,1,0,0,0,44.95,70.64ZM28,73.66,27.2,71.6c.8-2.11,1.66-4.31,2.15-5.48l4,2.24-.4,4.95-1.11,1.58C30.61,74.45,29,73.91,28,73.66Zm-16.12-14a6,6,0,0,0-1.06-1.42,5.94,5.94,0,0,1,.09-3.07c.9.33,2.34.92,3.77,1.52l.51,2.5C13.57,59.34,12.54,59.49,11.9,59.62Zm4.33-15.67L20,46.83,18.83,50.9c-1.55-2.62-3-5.09-3.21-5.62a1,1,0,0,0-.07-.17Zm18.21-5.39,2.33,3.55-4.19,2.12-2.32-3.74Zm10.42-4.78a35.16,35.16,0,0,0,.71,4.49l-3.49,4.1-3.37-1L36,37.33l4.15-5.54A18,18,0,0,1,44.87,33.78ZM53.34,38l.38.33-1.31,2.43-3.07,2.39c-.55-1.48-1-2.63-1-2.66-.17-.41-.31-.85-.45-1.29l4.9-1.74A7.06,7.06,0,0,0,53.34,38ZM56.4,40.6a10.29,10.29,0,0,0,1.42,2.62l-1.13.91-2.3-2.86.89-1.65Zm4.79,7.21c.09.33.21.73.35,1.16l-5.07-.06.91-2.78,2-1.59A7,7,0,0,1,61.19,47.82Zm6.73-4.22,1.33,3.26-.52,3.28-4.49.81c-.1-.36-.22-.73-.33-1.11l2.24-5.6a1,1,0,0,0,.5-.27Zm3.14-.94.08.25A4,4,0,0,1,71.4,44a3.73,3.73,0,0,1-.45,1.72v0L69.85,43ZM71,55.51l-.64,1.86-.07.11-.15-.1L64.93,54.6a8.64,8.64,0,0,0-.2-1.71l4.53-.82,1.65,1.71A10.39,10.39,0,0,0,71,55.51Zm3.37,17.06-1,1.93-1.25-1.57.28-4.14L75,69.1Zm.79-5.92,0,.45-3.29-.41-3.33-2.32,2.28-3.87,1.45,1.2A14,14,0,0,0,75.15,66.65ZM67,63.09l-3.36-4.51c.31-.64.6-1.32.84-2l4.64,2.47.15.13ZM56.65,55.28l-.57-4.38,6.08.08a18.5,18.5,0,0,1,.75,3.25l-2.57,1.11Zm-4.41,6.89-2.74-.63-.34-4.37,5.16.08Zm-6.41,3.21-5.1,1.45L40,62.69l3-2,4.17,2.09Zm-9,9.56L35,73.25l.36-4.4,3.41.19ZM29.46,61.79c-.21-1.17-.52-2.74-.94-4.85l3.06,1.89Zm9.1-18.35,2.17.62a1.07,1.07,0,0,0,0,.11l-1.18,5.76-4.88,1.55-2.28-2.08.72-3.2Zm7.9-2.23c.28.69.57,1.45.86,2.22l-3-.58,1.93-2.26C46.31,40.8,46.39,41,46.47,41.21ZM53,42.77l2.38,3-1,3.08-3.26-.38c-.23-.87-.64-2.1-1.08-3.35ZM38.94,61l-4.77-3,1.08-4.68,4.69-1.49,2.16,3.62-.22,3.55Zm3.87-16.43,5.32,1c.41,1.15.75,2.18,1,2.89l-7.44,1,1-4.7Zm1.25,11.6,3.08.75.29,3.71L43.89,58.9ZM47.42,55l-3.9-1L42,51.49l6.87-.94C48.5,51.76,47.91,53.5,47.42,55ZM31,50.87,33.29,53l-.92,4-4.69-2.9.17-2.25Zm2.29,9L38,62.83,38.74,67l-4.06-.22-4.54-2.54Zm16.17-4.71c.62-1.83,1.23-3.67,1.58-4.74l3,.35.58,4.46Zm13.17-9.74.89-1.15H64L63,46.8a10.69,10.69,0,0,0-.48-1.24A.9.9,0,0,0,62.63,45.44ZM28.38,41.23l2.77,4.49L30.42,49l-3.11.92L22.47,46.2,25,42.29Zm-2.5,10.09-.18,2.28-5.29-1,1.3-4.48Zm-6.71,3.1,6,1.12-3.69,4.12-4.22-.54-.49-2.44ZM16.49,66.35l.09,1.12A4.45,4.45,0,0,1,15.37,67Zm1.7-2.61-.52-2.54,3.47.44.81,2.1ZM23,60.93,26.51,57c.47,2.43,1,5.22,1.26,6.69H24.1Zm4.31,4.8c-.3.72-.69,1.72-1.23,3.13l-.51-1.28-.71-1.84Zm6.75,9.43.29.27H33.9Zm5.07-.94,1.27.69a11.47,11.47,0,0,1-1.63.43Zm8.63-5.91,0-.39.39.19Zm.1-2.54,1.2-2.28,2.37.55-1.17,2.79-.1.06Zm9.9-1.05-3.66-1.86,2.35-5.59,4.06.06h0a1,1,0,0,0,.4-.08l1.36-.59A25.84,25.84,0,0,1,60.6,60,4.79,4.79,0,0,0,60,61.66c-.2,1-.42,2-1.14,2.48A8.62,8.62,0,0,1,57.78,64.73ZM62,62.06a5.17,5.17,0,0,1,.25-1c.09-.14.21-.33.34-.55l3.47,4.67-.86,2-1.7-1.07-2.15-1.85A9.34,9.34,0,0,0,62,62.06Zm.83,6.75.73,2.25-1.59-1ZM73.3,60l-1.45-1.19.22-.37a4.87,4.87,0,0,0,1,1.06,1,1,0,0,0,.21.12A2.55,2.55,0,0,1,73.3,60ZM70.51,34.52l1.55,4.31A3.81,3.81,0,0,0,71,40.48s0,.08,0,.12l-1.73.52-1-5.06a1,1,0,0,0-.11-.27,3.09,3.09,0,0,1,.32-.52A4.3,4.3,0,0,1,70.51,34.52ZM64.32,36.7c.19-.26.31-.26.36-.26a2.37,2.37,0,0,1,.88.36c.17.09.33.18.46.23a1.81,1.81,0,0,0,.35.11l.91,4.55-2,.59h-1l-.67-4.63.08-.11C63.88,37.34,64,37.08,64.32,36.7Zm-3.81,3.12s.54-.27,1.34-.71l.49,3.42-1,1.24a5.34,5.34,0,0,0-1.57-1.36h0a4.52,4.52,0,0,1-1.25-1.82Zm-9.64-5.4a2.38,2.38,0,0,1,.43.74c.08.17.17.36.27.56l-4.19,1.49c-.24-1.15-.38-2.24-.47-3l1,0A16.12,16.12,0,0,1,50.88,34.42ZM38,31.41l-2.87,3.83-1.26-3.32A9.16,9.16,0,0,1,37,31.37C37.33,31.37,37.64,31.38,38,31.41Zm-6.2.68,1.78,4.69-4.08,1.88-1.82-5A6,6,0,0,1,31.76,32.09Zm-10.11,6a1,1,0,0,0,.88-.72c.7-2.38,2.21-2.93,3.22-3l1.84,5L24,40.49a1,1,0,0,0-.54.42L20.88,45l-3.93-3C17,38.53,21.45,38.12,21.65,38.11Zm-7.55,8.58c.51,1,1.58,2.82,3.65,6.32l-2,1.9c-2.23-.94-3.58-1.48-4.41-1.76.14-.82.33-2,.52-3.16A7.21,7.21,0,0,1,14.09,46.69ZM12.28,61.58c.73-.13,2-.31,3.34-.46l.63,3.09-2.5,1.35L13.27,65l-.41-.46A5.52,5.52,0,0,1,12.28,61.58ZM23.47,71c-.81-.51-3.73-2.32-4.84-3l-.18-2.3h4.28l1,2.57,1.63,4.06-.84-.6C24.11,71.48,23.75,71.22,23.47,71Zm22.15,2.44.86-1.5.12.42a1,1,0,0,0-.08.09A2.33,2.33,0,0,1,45.62,73.48Zm3.76-1.11a4.29,4.29,0,0,1-.73-.07l-.53-1.87,2.16-1.28L53,70.46A4.55,4.55,0,0,1,49.38,72.37Zm8.53-3.46a7.19,7.19,0,0,0,.35-2.22A9.51,9.51,0,0,0,60,65.84l.1-.08,1.53,1.32L59.85,69.7h0a6.51,6.51,0,0,1-1.21-.52A3.58,3.58,0,0,0,57.91,68.91Zm17.5,6,.41-.82,1.19.41A2.91,2.91,0,0,1,75.41,74.95Zm7.87-1.76-.18-.42a4.26,4.26,0,0,0,.75.42h-.57ZM93,65.34c.86,1.35-.26,2.88-1.47,4.19a1.88,1.88,0,0,0-.59,1,4.69,4.69,0,0,1-1.05,1.07l-1.35.19H86.35A4.09,4.09,0,0,1,84.11,71a2.55,2.55,0,0,0-1.25-1.69,1.84,1.84,0,0,0-1.55.05c-.24.11-.3.14-1.41-.6-.66-.44-.71-.92-.76-1.8l0-.3c0-.65-.17-2.36-1.75-2.68l-.22,0c-.38-.07-.51-.09-1.08-.91a3.65,3.65,0,0,1-.75-2.92A2.51,2.51,0,0,0,74.64,58a1.42,1.42,0,0,0-.53-.29c-1.87-1.71-1-5.53-1-5.57a1,1,0,0,0-.15-.79,4.1,4.1,0,0,1-.62-3.7c.15-.47.32-.87.47-1.23a5.49,5.49,0,0,0,.6-2.6A5.82,5.82,0,0,0,73,42.26,1.88,1.88,0,0,1,72.88,41a2.25,2.25,0,0,1,1.23-1.19,3.15,3.15,0,0,0,2.2-.92,1,1,0,0,0,.34-.87,1.83,1.83,0,0,1,.22-1.41c.14-.12.47-.24,1.25-.09,1,.2,1.73-.66,2.2-1.48l.78.1c3.18.4,3.21,1.91,3.21,1.94a1,1,0,0,0,.9,1.07c2.06.2,2.45,2.84,2.46,2.95a1,1,0,0,0,1.1.87c1.4-.16,2,2.65,2.08,3.39a1,1,0,0,0,.23.53c1.12,1.3,1.19,4.25,1.12,5.28a1,1,0,0,0,.11.53c1.71,3.25.59,5.51.55,5.6a1,1,0,0,0,.07,1.05A5.37,5.37,0,0,1,93,64.25,1,1,0,0,0,93,65.34Z"></path><path d="M90.93,60.42a1.72,1.72,0,0,0-.34-.35,1.72,1.72,0,0,0-1-2.77,1.71,1.71,0,0,0-1.5-2.73A1.72,1.72,0,0,0,88,52.88l-.1-.11a1.72,1.72,0,0,0-.54-3.4,1.71,1.71,0,0,0-.3-.86h0a1.72,1.72,0,0,0-1.1-3.13,1.72,1.72,0,0,0-1.58-2.42,1.73,1.73,0,0,0-2.6-2,1.75,1.75,0,0,0-.46.48,1.71,1.71,0,0,0-2.37,1A1.73,1.73,0,0,0,77,45.21,1.72,1.72,0,0,0,77,48.1a1.72,1.72,0,0,0,.89,3.2h0a1.7,1.7,0,0,0,.25.87,1.72,1.72,0,0,0,.12,3.11,1.72,1.72,0,0,0,1.36,2.78h0a1.68,1.68,0,0,0,0,.31,1.73,1.73,0,1,0,1.73-1.73h0a1.67,1.67,0,0,0,0-.31,1.73,1.73,0,0,0-1-1.59,1.69,1.69,0,0,0,.12-1.93,1.72,1.72,0,0,0-.8-3.25,1.72,1.72,0,0,0-.84-1.47,1.72,1.72,0,0,0,.09-2.89,1.72,1.72,0,0,0,.64-.84,1.72,1.72,0,0,0,2,0,1.74,1.74,0,0,0,.46-.48,1.72,1.72,0,0,0,.76.18,1.72,1.72,0,0,0,1.72,2.33,1.72,1.72,0,0,0,.16,1.69,1.72,1.72,0,0,0,1.2,3.12,1.71,1.71,0,0,0,.3.86l.1.11a1.72,1.72,0,0,0,.44,3.41A1.71,1.71,0,0,0,87.86,58a1.72,1.72,0,0,0,0,2,1.68,1.68,0,0,0,.34.35A1.72,1.72,0,0,0,88,62.14,1.71,1.71,0,0,0,86.17,64a1.72,1.72,0,0,0-.6-.1,1.72,1.72,0,0,0-1.94-2,1.73,1.73,0,1,0-1.48,1.68,1.72,1.72,0,0,0,1.75,1.75,1.72,1.72,0,0,0,2.94,1.51v0a1.72,1.72,0,0,0,3-1.64,1.7,1.7,0,0,0,.85-2.53A1.72,1.72,0,0,0,90.93,60.42Z"></path></svg>