<svg height='100px' width='100px'  fill="#000000" xmlns="http://www.w3.org/2000/svg" viewBox="0 0 48 48" x="0px" y="0px"><title>04-beetroot</title><g data-name="04-beetroot"><path d="M19.433,22.077a10,10,0,0,1-1.359-1.151c-2.262-2.262-2.75-5.32-1.109-6.961a3.026,3.026,0,0,1,.675-.508c-1.884-2.2-2.2-4.962-.675-6.492a3.322,3.322,0,0,1,2.086-.934C19.39,2.56,21.442,0,24,0c2.8,0,5,3.075,5,7a9.762,9.762,0,0,1-.081,1.256,3.093,3.093,0,0,1,1.116.708c1.275,1.276,1.264,3.412.108,5.377a3.145,3.145,0,0,1,.891.623c1.642,1.642,1.153,4.7-1.108,6.962l-1.414-1.414c1.544-1.545,1.824-3.418,1.109-4.133a1.592,1.592,0,0,0-1.183-.367.972.972,0,0,1-.948-.581,1,1,0,0,1,.174-1.1c1.279-1.382,1.718-3.193.957-3.954a1.414,1.414,0,0,0-.929-.357,1,1,0,0,1-.9-1.23A7.709,7.709,0,0,0,27,7c0-2.71-1.374-5-3-5s-3,2.29-3,5a1.056,1.056,0,0,1-.345.784,1,1,0,0,1-.8.26,1.789,1.789,0,0,0-1.478.335c-.715.715-.435,2.588,1.109,4.133a5.885,5.885,0,0,0,.858.694,1,1,0,0,1-.652,1.822,1.652,1.652,0,0,0-1.315.351c-.715.715-.435,2.588,1.109,4.133a8.217,8.217,0,0,0,1.085.922Z"></path><path d="M35.8,21.484l-1.75-.968a1.3,1.3,0,0,0,.171-.63,1.652,1.652,0,0,0-.65-1.175,1,1,0,0,1,.848-1.737,5.314,5.314,0,0,0,1.034.113c1.862,0,3.5-.987,3.5-2.113A1.769,1.769,0,0,0,38.18,13.7a1,1,0,0,1-.109-1.484c1.874-1.944,2.492-4.523,1.39-5.668A1.931,1.931,0,0,0,38.007,6a5.819,5.819,0,0,0-3.86,1.947,7.636,7.636,0,0,0-1.065,1.4L31.359,8.334a9.584,9.584,0,0,1,1.347-1.773A7.74,7.74,0,0,1,38.007,4h0a3.9,3.9,0,0,1,2.9,1.157c1.733,1.8,1.377,5.053-.734,7.7a3.361,3.361,0,0,1,.781,2.116c0,2.14-2.079,3.851-4.842,4.086a3.043,3.043,0,0,1,.114.826A3.275,3.275,0,0,1,35.8,21.484Z"></path><rect x="23" y="13" width="2" height="8"></rect><path d="M24,48a1,1,0,0,1-.894-.552c-.018-.036-1.858-3.645-4.422-4.5C13.7,41.2,8,38.259,8,31c0-7.4,5.233-11,16-11,9.686,0,14.865,2.891,15.834,8.839l-1.975.322C37.359,26.087,35.378,22,24,22c-12.409,0-14,4.81-14,9,0,4.748,2.791,7.755,9.332,10.057A10.123,10.123,0,0,1,24,45.065a10.15,10.15,0,0,1,4.684-4.014C35.209,38.755,38,35.748,38,31h2c0,7.259-5.7,10.2-10.668,11.943-2.154.719-3.933,3.5-4.437,4.5A1,1,0,0,1,24,48Z"></path><rect x="15" y="35" width="4" height="2"></rect><rect x="30" y="27" width="4" height="2"></rect><rect x="21" y="31" width="2" height="2"></rect><rect x="9" y="27" width="5" height="2"></rect><rect x="26" y="27" width="2" height="2"></rect></g></svg>