<svg height='100px' width='100px'  fill="#000000" xmlns:x="http://ns.adobe.com/Extensibility/1.0/" xmlns:i="http://ns.adobe.com/AdobeIllustrator/10.0/" xmlns:graph="http://ns.adobe.com/Graphs/1.0/" xmlns="http://www.w3.org/2000/svg" xmlns:xlink="http://www.w3.org/1999/xlink" version="1.1" x="0px" y="0px" viewBox="-247 370.9 100 100" style="enable-background:new -247 370.9 100 100;" xml:space="preserve"><g><g i:extraneous="self"><path d="M-149.7,405.8c-2.2,0-4.1-0.3-6-0.5c-0.8-0.1-1.7-0.2-2.5-0.3c0.9-7.7,0.2-14.5-2.2-20.5l-1.2-2.9l-2.2,2.3    c-1,1-1.8,2-2.6,2.9c-2.8,3.1-4.9,5.4-8.7,8.3c-1.7-1.1-4.6-3.4-7.3-6l-2.2-2.2l-1.1,2.9c-0.2,0.4-0.3,0.8-0.5,1.3    c-0.6,1.6-1.2,3.3-1.6,5.2c-2.5-0.9-5.2-1.5-8.1-1.5c-1.6,0-3.1,0.2-4.6,0.4c-1-3.1-1.5-4.6-1.5-4.6l-0.6-1.8l-8.7,2.2l-16.2-15.1    l-1.2,2.4c-0.3,0.6-6.6,13.9-4.4,26c-2.5,0.9-6.5,2.3-10.3,2.2l-2.9,0l1,2.7c2.2,5.8,6.3,12.4,10.5,16.8c-2.5,3.6-4,8.2-4,13.2    c0,12.8,9,21.3,22.4,21.3c7,0,13-2.4,17.1-6.8c4,5.6,10.9,8.9,19.4,8.9c14,0,23.5-9,23.5-22.3c0-5.9-1.8-11.1-5-15.1    c6.5-3.4,11.2-9.3,13.5-17l0.7-2.5L-149.7,405.8z M-178.7,415.9c0,0.4,0,0.7,0,1.1c-0.3,0-0.6,0-0.9,0c-7.8,0-14.3,3.2-18.5,8.5    c-3.7-5-9.4-8-16-8.5l1.3-0.1c0-0.3,0-0.7,0-1c0-10,7-17.1,17.1-17.1S-178.7,405.8-178.7,415.9z M-231.4,408    c0.6-0.2,1-0.4,1.4-0.5l1.8-0.6l-0.5-1.9c-2.2-8.3,0.9-18,2.6-22.5l13.7,12.8l7.2-1.8c0.2,0.7,0.5,1.6,0.9,2.8    c-7.7,3.1-12.7,10.3-12.7,19.5c0,0.3,0,0.7,0,1c-6.1,0.2-11.3,2.4-15.2,6.1c-3.1-3.4-6.2-8.1-8.3-12.6    C-236.8,409.9-233.5,408.8-231.4,408z M-216.2,456.6c-11,0-18.4-7-18.4-17.3c0-10.8,7.6-18.4,18.4-18.4c6.7,0,12.4,3,15.6,8.2    c-1.7,3.3-2.6,7.1-2.6,11.3c0,3.6,0.7,6.8,2,9.7C-204.5,454.3-209.8,456.6-216.2,456.6z M-179.7,458.7c-11.7,0-19.5-7.4-19.5-18.3    c0-11.5,8-19.5,19.5-19.5s19.5,8,19.5,19.5C-160.2,451.4-168.1,458.7-179.7,458.7z M-164.2,422.3c-2.9-2.5-6.5-4.2-10.6-5    c0-0.5,0.1-1,0.1-1.5c0-7.7-3.5-14.1-9.2-17.7c0.2-1.4,0.6-2.8,1.1-4.1c2.8,2.5,5.6,4.5,7,5.2l1.1,0.6l1-0.7    c4.9-3.5,7.4-6.2,10.5-9.6c0.1-0.1,0.2-0.2,0.3-0.3c1.5,5.1,1.6,10.8,0.6,17.5l-0.4,2.3h2.3c1.3,0,2.6,0.2,4.2,0.4    c1.1,0.1,2.4,0.3,3.7,0.4C-155.3,416.8-160.2,420.5-164.2,422.3z"></path><path d="M-179.7,423.8v4c7.9,0,13.4,5.5,13.4,13.4h4C-162.3,431.2-169.6,423.8-179.7,423.8z"></path><path d="M-175.5,437.6c-3.1,0-5.5,2.4-5.5,5.5c0,3.1,2.3,5.3,5.5,5.3s5.5-2.2,5.5-5.3C-170,439.9-172.4,437.6-175.5,437.6z     M-175.5,444.4c-1,0-1.5-0.4-1.5-1.3c0-0.9,0.6-1.5,1.5-1.5s1.5,0.6,1.5,1.5C-174,443.9-174.5,444.4-175.5,444.4z"></path><path d="M-225.9,433.4c-3.1,0-5.5,2.4-5.5,5.5c0,3.1,2.3,5.3,5.5,5.3c3.2,0,5.5-2.2,5.5-5.3C-220.4,435.7-222.8,433.4-225.9,433.4    z M-225.9,440.2c-1,0-1.5-0.4-1.5-1.3c0-0.9,0.6-1.5,1.5-1.5c0.9,0,1.5,0.6,1.5,1.5C-224.4,439.7-224.9,440.2-225.9,440.2z"></path><path d="M-200.1,411.9c2.9,0,5.1-2.1,5.1-4.9c0-2.9-2.2-5.1-5.1-5.1s-5.1,2.2-5.1,5.1C-205.2,409.8-203,411.9-200.1,411.9z     M-200.1,405.9c0.7,0,1.1,0.4,1.1,1.1c0,0.3,0,0.9-1.1,0.9s-1.1-0.7-1.1-0.9C-201.2,406.2-200.8,405.9-200.1,405.9z"></path><path d="M-217.5,423.9v4c4.5,0,8.5,1.7,11.2,4.9l3-2.6C-206.7,426.1-211.8,423.9-217.5,423.9z"></path><path d="M-185.7,415h4c0-6.4-3.8-11.7-9.7-13.4l-1.1,3.8C-188.4,406.7-185.7,410.3-185.7,415z"></path></g></g></svg>