<svg height='100px' width='100px'  fill="#000000" xmlns="http://www.w3.org/2000/svg" xmlns:xlink="http://www.w3.org/1999/xlink" version="1.1" x="0px" y="0px" viewBox="0 0 100 100" style="enable-background:new 0 0 100 100;" xml:space="preserve"><g><path d="M75.2,17.4l-0.1-1.3l-1.3-0.4c-3.2-1.1-6.7-1.1-10.2-0.2c-0.4-3.5-1.8-6.8-4-9.4l-0.9-1l-1.3,0.4c-5.4,1.9-9.8,6.9-11.4,13   c-1.5,5.8-0.4,11.8,2.9,16.1c0.2,0.2,0.4,0.4,0.7,0.6c0.3,0.4,0.8,0.8,1.4,1c1.6,0.5,3.2,0.7,4.8,0.7c4,0,8.1-1.4,11.6-4   C72.5,29.1,75.5,23.1,75.2,17.4z M50,19.4c1.1-4.3,4-7.9,7.6-9.7c1.4,2,2.2,4.5,2.3,7.1c-1,0.5-2,1.1-3,1.8   c-3.2,2.4-5.6,5.6-6.8,9.2C49.3,25.3,49.2,22.3,50,19.4z M65.1,29.7c-3.6,2.7-8,3.8-11.9,2.9c0.3-4,2.5-7.9,6.1-10.6   s8-3.7,11.9-2.9C70.9,23,68.7,27,65.1,29.7z"></path><path d="M79.8,60c0-4.5-2.8-8.3-6.7-9.8c0.2-0.8,0.3-1.5,0.3-2.3c0-5.8-4.8-10.6-10.6-10.6c-2.4,0-4.6,0.8-6.4,2.2   c-1.8-1.4-4-2.2-6.4-2.2s-4.6,0.8-6.4,2.2c-1.8-1.4-4-2.2-6.4-2.2c-5.8,0-10.6,4.8-10.6,10.6c0,0.8,0.1,1.6,0.3,2.3   c-3.9,1.6-6.7,5.4-6.7,9.8c0,4.5,2.8,8.3,6.7,9.8c-0.2,0.8-0.3,1.5-0.3,2.3c0,4.5,2.8,8.3,6.7,9.8c-0.2,0.8-0.3,1.5-0.3,2.3   c0,6,4.8,10.8,10.6,10.8c2.4,0,4.6-0.8,6.4-2.2c1.8,1.4,4,2.2,6.4,2.2C62.2,95,67,90.2,67,84.4c0-0.8-0.1-1.6-0.3-2.3   c3.9-1.6,6.7-5.4,6.7-9.8c0-0.8-0.1-1.6-0.3-2.3C77,68.3,79.8,64.5,79.8,60z M62.8,41.3c3.6,0,6.6,3,6.6,6.6c0,0.5-0.1,1.1-0.2,1.6   l0,0c-2.4,0-4.6,0.8-6.4,2.2c-0.8-0.6-1.6-1.1-2.5-1.4c0.2-0.8,0.3-1.5,0.3-2.3c0-2-0.6-3.9-1.5-5.4C60.1,41.7,61.4,41.3,62.8,41.3   z M56.6,72.2c0,3.6-3,6.6-6.6,6.6s-6.6-3-6.6-6.6c0-0.5,0.1-1.1,0.2-1.6l0,0c2.4,0,4.6-0.8,6.4-2.2c1.8,1.4,4,2.2,6.4,2.2l0,0   C56.5,71.2,56.6,71.7,56.6,72.2z M37,60c0-3.6,3-6.6,6.6-6.6s6.6,3,6.6,6.6s-3,6.6-6.6,6.6S37,63.7,37,60z M56.4,66.7   c-1.4,0-2.7-0.4-3.7-1.2c1-1.6,1.5-3.5,1.5-5.4c0-2-0.6-3.9-1.5-5.4c1.1-0.7,2.3-1.2,3.7-1.2c3.6,0,6.6,3,6.6,6.6   C63,63.7,60,66.7,56.4,66.7z M50,41.3c3.6,0,6.6,3,6.6,6.6c0,0.5-0.1,1.1-0.2,1.6l0,0c-2.4,0-4.6,0.8-6.4,2.2   c-1.8-1.4-4-2.2-6.4-2.2l0,0c-0.1-0.5-0.2-1-0.2-1.6C43.4,44.2,46.4,41.3,50,41.3z M30.6,47.9c0-3.6,3-6.6,6.6-6.6   c1.4,0,2.7,0.4,3.7,1.2c-1,1.6-1.5,3.5-1.5,5.4c0,0.8,0.1,1.6,0.3,2.3c-0.9,0.4-1.7,0.8-2.5,1.4c-1.8-1.4-4-2.2-6.4-2.2l0,0   C30.7,48.9,30.6,48.4,30.6,47.9z M24.2,60c0-3.6,3-6.6,6.6-6.6c1.4,0,2.7,0.4,3.7,1.2c-1,1.6-1.5,3.5-1.5,5.4c0,2,0.6,3.9,1.5,5.4   c-1.1,0.7-2.3,1.2-3.7,1.2C27.2,66.7,24.2,63.7,24.2,60z M30.6,72.2c0-0.5,0.1-1.1,0.2-1.6l0,0c2.4,0,4.6-0.8,6.4-2.2   c0.8,0.6,1.6,1.1,2.5,1.4c-0.2,0.8-0.3,1.5-0.3,2.3c0,2,0.6,3.9,1.5,5.4c-1.1,0.7-2.3,1.2-3.7,1.2C33.6,78.8,30.6,75.9,30.6,72.2z    M43.6,91C40,91,37,88,37,84.4c0-0.5,0.1-1.1,0.2-1.6l0,0c2.4,0,4.6-0.8,6.4-2.2c1.8,1.4,4,2.2,6.4,2.2l0,0c0.1,0.5,0.2,1,0.2,1.6   C50.2,88.1,47.2,91,43.6,91z M63,84.4c0,3.6-3,6.6-6.6,6.6c-1.4,0-2.7-0.4-3.7-1.2c1-1.6,1.5-3.5,1.5-5.4c0-0.8-0.1-1.6-0.3-2.3   c0.9-0.4,1.7-0.8,2.5-1.4c1.8,1.4,4,2.2,6.4,2.2l0,0C62.9,83.3,63,83.9,63,84.4z M69.4,72.2c0,3.6-3,6.6-6.6,6.6   c-1.4,0-2.7-0.4-3.7-1.2c1-1.6,1.5-3.5,1.5-5.4c0-0.8-0.1-1.6-0.3-2.3c0.9-0.4,1.7-0.8,2.5-1.4c1.8,1.4,4,2.2,6.4,2.2l0,0   C69.3,71.2,69.4,71.7,69.4,72.2z M69.2,66.7c-1.4,0-2.7-0.4-3.7-1.2c1-1.6,1.5-3.5,1.5-5.4c0-2-0.6-3.9-1.5-5.4   c1.1-0.7,2.3-1.2,3.7-1.2c3.6,0,6.6,3,6.6,6.6C75.8,63.7,72.8,66.7,69.2,66.7z"></path></g></svg>