<svg height='100px' width='100px'  fill="#000000" xmlns:x="http://ns.adobe.com/Extensibility/1.0/" xmlns:i="http://ns.adobe.com/AdobeIllustrator/10.0/" xmlns:graph="http://ns.adobe.com/Graphs/1.0/" xmlns="http://www.w3.org/2000/svg" xmlns:xlink="http://www.w3.org/1999/xlink" version="1.1" x="0px" y="0px" viewBox="-247 370.9 100 100" style="enable-background:new -247 370.9 100 100;" xml:space="preserve"><g><g i:extraneous="self"><path d="M-214,407.1c3.1-3.1,4.5-7.4,3.9-11.8l-4,0.5c0.4,3.2-0.6,6.3-2.7,8.5c-2.2,2.2-5.3,3.2-8.5,2.7l-0.6,4    c0.7,0.1,1.4,0.2,2.1,0.2C-220.1,411.1-216.6,409.7-214,407.1z"></path><path d="M-183.2,437.9c-3.1,3.1-4.5,7.4-3.9,11.9l4-0.6c-0.5-3.2,0.5-6.3,2.7-8.5c2.2-2.2,5.3-3.2,8.5-2.7l0.5-4    C-175.9,433.4-180.2,434.8-183.2,437.9z"></path><path d="M-154.3,434c5.3-5.3,5.3-16.1,0-21.4c-1.2-1.2-2.7-2.2-4.2-2.9c-0.2-1.9-0.8-3.8-1.7-5.5c3.1-5.8,2.1-13.2-2.6-17.9    c-4.8-4.8-12.1-5.8-17.9-2.6c-1.7-0.9-3.5-1.5-5.4-1.7c-0.7-1.6-1.7-3-2.9-4.3c-2.5-2.6-6.6-4-11.2-4c-4.6,0-8.7,1.5-11.2,4    c-1.4,1.4-2.5,3.2-3.2,5.1c-0.7,0.3-1.4,0.6-2.1,0.9c-5.4-2.8-11.7-1.5-16.9,3.6c-5.2,5.2-6.5,11.5-3.6,16.9    c-3.2,5.8-2.1,13.2,2.6,17.9c1.6,1.6,3.6,2.8,5.6,3.5c-0.5,3.8,0.6,7.7,3.2,10.5l-17.3,14.5l0.5,1.3c1.9,5,9.5,12.6,14.2,14.2    l1.3,0.4l13.9-16.5c2.4,2.2,5.5,3.4,8.7,3.4c0.9,0,1.9-0.1,2.8-0.3c0.8,2,1.9,3.8,3.4,5.3c2.9,2.9,6.8,4.4,10.7,4.4    c2.5,0,4.9-0.6,7.2-1.8c5.4,2.8,11.7,1.5,16.9-3.6c5.2-5.2,6.5-11.5,3.6-16.9c0.6-1.2,1.1-2.5,1.4-3.8    C-156.9,436.2-155.5,435.3-154.3,434z M-157.1,431.2c-0.3,0.3-0.7,0.6-1.1,0.9c-0.3-3.5-1.8-6.8-4.4-9.4c-0.1-0.1-0.3-0.2-0.4-0.4    c0,0,0.1-0.1,0.1-0.1c2.2-2.2,3.6-5,4.2-8c0.5,0.4,1.1,0.8,1.6,1.2C-153.4,419.3-153.4,427.5-157.1,431.2z M-165.6,389.2    c3.7,3.7,4.3,9.6,1.4,14l0,0.1c-0.4,0.6-0.9,1.2-1.4,1.7c-1.8,1.8-4.2,3-6.8,3.2l0.4,4c3.4-0.3,6.6-1.8,9.1-4.2    c1.3,3.9,0.4,8.4-2.7,11.5c-4.4,4.4-11.4,4.4-15.8,0c-2.4-2.4-3.5-5.7-3.2-9l0.2-2.4l-2.4,0.2c-3.4,0.3-6.6-0.8-9-3.2    c-2.1-2.1-3.3-4.9-3.3-7.9c0-3,1.2-5.8,3.3-7.9c3-3,7.5-4,11.5-2.7c-2.4,2.4-3.9,5.7-4.2,9.1l4,0.4c0.3-2.6,1.4-5,3.2-6.8    c0.5-0.5,1.1-1,1.8-1.4l0,0C-175.3,384.9-169.4,385.5-165.6,389.2z M-200.3,377.8c3.5,0,6.6,1.1,8.4,2.8c0.5,0.5,0.9,1,1.3,1.6    c-3,0.5-5.8,1.9-8,4.2c0,0-0.1,0.1-0.1,0.1c0,0-0.1-0.1-0.1-0.1c-3-3-6.9-4.5-10.9-4.4c0.3-0.5,0.7-0.9,1.1-1.3    C-206.9,378.8-203.8,377.8-200.3,377.8z M-233.4,405.4l0.7-1.1l-0.7-1.1c-2.6-4-1.7-8.8,2.5-13c4.2-4.2,9-5.1,13-2.5l1.1,0.7    l1.1-0.7c4.4-2.9,10.3-2.3,14,1.4c0.2,0.2,0.3,0.4,0.5,0.5c-1.2,2.2-1.9,4.7-1.9,7.4c0,2.6,0.7,5.1,1.9,7.4    c-0.2,0.2-0.3,0.4-0.5,0.5c-2.4,2.4-5.7,3.5-9,3.2l-2.4-0.2l0.2,2.4c0.3,3.4-0.8,6.6-3.2,9c-4.4,4.4-11.4,4.4-15.8,0    C-235.6,415.7-236.2,409.8-233.4,405.4z M-225.2,426.6c0.4,0,0.8,0.1,1.2,0.1c3.9,0,7.9,0.8,7.5,1.7l-6.3,5.3    C-224.6,431.8-225.5,429.2-225.2,426.6z M-228.4,462c-3.3-1.8-8-6.5-9.9-10l30-25.2l0.2-0.3c1.6-2.6,1.8-7.1-1-11.5    c0.2-0.9,0.3-1.8,0.4-2.7c1.1-0.1,2.3-0.3,3.4-0.6c1.4,2.5,2,5.3,2,5.3l0.7,3.5l9.7-9.1c1.4,0.5,2.9,0.8,4.4,0.9    c0.1,1.3,0.3,2.5,0.7,3.7l-9.3,9.9l3.5,0.7c1.1,0.2,4,1.1,6.1,2.5c-0.3,1.2-0.6,2.4-0.6,3.6c-0.5,0-1,0.1-1.5,0.1    c-5.6-3.7-12.4-1.4-12.7-1.3l-0.5,0.2L-228.4,462z M-210.8,447.2l5.3-6.3c0.9-0.2,2.6,3,2.6,7c0,0.5,0,1,0.1,1.5    C-205.6,450-208.7,449.2-210.8,447.2z M-163.9,441.8c2.6,4,1.7,8.8-2.5,13c-4.2,4.2-9,5.1-13,2.5l-1.1-0.7l-1.1,0.7    c-4.4,2.9-10.3,2.3-14-1.4c-2.1-2.1-3.3-4.9-3.3-7.9c0-3,1.2-5.8,3.3-7.9c2.4-2.4,5.7-3.6,9-3.2l2.4,0.2l-0.2-2.4    c-0.3-3.4,0.8-6.6,3.2-9c0.2-0.2,0.4-0.4,0.6-0.6c2.2,1.1,4.6,1.7,7,1.7c2.5,0,5.1-0.6,7.3-1.9c0.3,0.2,0.6,0.5,0.9,0.8    c3.7,3.7,4.3,9.6,1.4,14l-0.7,1.1L-163.9,441.8z"></path></g></g></svg>