<svg height='100px' width='100px'  fill="#000000" xmlns="http://www.w3.org/2000/svg" xmlns:xlink="http://www.w3.org/1999/xlink" version="1.1" x="0px" y="0px" viewBox="0 0 200 200" style="enable-background:new 0 0 200 200;" xml:space="preserve"><style type="text/css">
	.st0{fill:none;}
	.st1{fill:#000000;}
	.st2{fill:#000000;}
	.st3{fill-rule:evenodd;clip-rule:evenodd;}
</style><path class="st3" d="M127.5,28.3c11.6-4.6,28-2.4,35.7,4.6c5.6,5,8.9,13.3,13.2,18.7c2.2,2.7,6.6,17.1,6.7,18.2s0.5,10.5-1.3,15  c-2,5-4.6,10.5-6.2,15.3c-1.2,3.8-1.5,19.9-3.6,20.5c-2.1,0.5-18.6,5-24,2.7c-1.9-0.8-3.5-4.1-5.7-5.2c-4.7-2.4-6.8-2.7-11.4-4.3  c-0.9-0.3-1.6-0.5-5.6-1.8s-24.7-27.8-24.9-41.3c-0.1-4.2,3-8.1,4.2-12.1c1-3.7,0.1-8.2,2.4-11.5C112.3,39.6,120.8,35.8,127.5,28.3z   M164.4,40.7c-8.1,0.5-9.9,10.6-7.4,17.3c-0.1,0-0.2,0.1-0.3,0.1c-2.2-2-7.8-6.1-9-7.9c-0.7-2.3-1.4-4.7-2-7  c-4.6-6.7-9.4-8.4-17-9.3c0-0.1-0.1-0.2-0.1-0.3c0-0.1,0.1-0.2,0.1-0.2c0.7-0.5,1.4-0.9,2.1-1.4C142.1,28.5,159.2,30.1,164.4,40.7z   M142.9,50.6c0,1,1.5,2.2,2.8,3.3c1.2,1,3.6,1.3,4.6,2.2c5.1,4.4,1.9,8.7,2.1,14.5c0.1,3.6,3.7,11.8,4,16.8  c0.1,2.9,5.4,9.9,6.3,12.9c-0.2,2.1-0.4,4.1-0.6,6.2c0.5,3.6,1,7.2,1.5,10.8c-1.9,0.5-3.8,1.1-5.8,1.6c-0.9-3.4-3.3-4.4-4.8-6.3  c0.5-5.1,4-7.5,4.3-12.9c0.5-10-15.8-13.1-19.5-5.8c0-0.1,0-0.1-0.1-0.2c0-0.1-0.1-0.2-0.1-0.3c0.5-3.7,4.9-4.1,5.3-7.4  c0.9-5.2-2.2-5.4-3.5-7.8c-5.3-9.8,3.2-17.2,3.4-17.8c0.2-0.6,0.2-1.7-1.2-1.7c-2.8,0-8.6,4.7-7.4,18.3c0.1,0.8-5.1,1.5-5.5,1.9  c-6.5,1.1-3-8.4-3.1-9.8s-1.2-2.2-1.8-3.3c-0.8-3.3,0.6-8.1,2-10.5c1.6-2.7,4.6-4.7,6.3-7.1c0.6-1,0.6-2.6-0.6-2.9  c-8.7,0.1-10.3,13.9-11.3,19.9c-0.2,0.1-0.5,0.2-0.7,0.3c-2-1.1-3.9-2.7-5.2-4.8c-1.4-2.2,0.8-5.1-1.9-6.6c-1-0.4-2-0.2-3.2,0.6  c-0.3,0-0.6-0.1-0.8-0.1c2-3.9,4.8-9.7,5.3-10.5s2.5-3.1,5.7-4.6C122.5,37.8,142.9,35.3,142.9,50.6z M50.1,68.3  c30.7-9.7,51.2,16.8,54.3,44.3c1,2.1,2.1,4.1,3.1,6.2c0.4,3.6-0.8,8.4-0.6,13.2c2.1,5.8,6.4,12.6,6.2,17.4s-12,12.2-19.1,16.8  c-2,1.3-1.9,4.9-4.5,4.9c-2.6,0-12.9-9-19.2-10.3c-6.8-1.4-14.4,3.1-21.2-0.9c-4.3-2.5-8.5-9.4-8.7-10.4c-0.2-1-0.1-2-0.1-2.9  c-2.8-1.5-5.6-2.9-8.4-4.4c-5.6-3.9-9.7-9.5-12.9-14c-7.2-10.1,5.6-34.8,11.4-41.9c2.3-1.3,4.6-2.7,6.8-4c2.4-2.6,4.2-8.3,5.3-9.2  C43.6,72.1,47.6,69.9,50.1,68.3z M60.7,69.5c3.5,1,8.6,0.5,12.7,1.6c7.1,1.9,20.1,16.3,21.5,24.9c0.1,0.1,0.1,0.1,0.2,0.2  c-2-0.2-3.1-2.5-4.8-3.5c-13.4-7.3-14.4-18.3-34-13.8c-0.5,0.1-1.2,0.3-1,1.6c0.4,2,12.2-1.1,17.4,1.8c4.9,2.8,8.1,8.1,12.8,11.3  c0.1,0.2,0.1,0.3,0.2,0.5c0,0.1-0.1,0.2-0.1,0.2C80,94,65.5,96.7,64.4,94.5c-0.4-0.5-1.9,0.2-2.1,1.2c-0.7,3.2,4.2,4.7,7.1,3.5  c9.2-3.7,27-2.6,29.5,8.1c-0.1,0-0.1,0-0.2,0.1c-2.8-0.8-7.6-2.6-8.5-2.5c-0.9,0-8.3,2.5-10.1,2.6c-1.9,0.1-14.2-4.4-16.5,5.2  c-0.2,0.1-0.3,0.2-0.5,0.4c-2.9-8.8-5.9-5.4-13.3-7.3c-7.1-5.5,0.4-18.8-8.8-22.3c-0.1-0.2-0.1-0.3-0.2-0.5  c2.9-5.1,9.2-10.5,10.2-11C51.9,71.5,58.8,69,60.7,69.5z M110.6,62c1.2,5,5.5,6.1,9.4,6.4c2.3,1.8-1.1,11.5,4.7,13.5  c3.7,1.5,8.8-1.9,14,0.3c1,0.5,1,1.1,0.7,1.7c-2.5,5.2-6.6,5.9-3.5,13.3c0.3,0.9,3.5,1.8,3.9,0.7c1-3.4,7.4-10.4,13.2-0.4  c-1.1,4.2-1.6,7.5-3.5,11.7c-0.3,0-0.7,0-1,0c-0.7,0.1-1.4,1.1-1.5,1.9c-0.1,0.9,7,6.9,7.3,7.8c0.3,0.9-1.6,1.5-2.1,1.2  c-0.5-0.2-18.2-12.9-16.2-20.1c-0.8-1.2-0.8-1.2-1.5-1.4c-0.7-0.3-2.4,0.1-2.8,0.4c-0.4,0.3-0.9,1.1-0.7,2.4c2,3.5,4.1,6.9,6.1,10.4  c0,0.3,0.1,0.5,0.1,0.8c-0.1,0-0.1,0-0.2,0.1c-4.7-3.6-7.1-7.3-10.8-13.4c-2.3-3.7-1-10-1.1-10.5c-0.2-0.8-0.7-1.3-1.7-1.1  s-1.2,0.4-1.5,0.9c-4.3,4.6,3.9,14,4.9,19.2c-9.3-8.1-25.1-26.2-22.3-40.1c0.8-3.9,4.4-6.7,5.5-9.6C110.7,58.7,110.2,60.5,110.6,62z   M42.2,97.5c-0.1,0.8,0.2,1.4,0.3,1.8c0.7,4,2.7,5.9,4.4,9.1c0,0.1,0.5,0.3,0.5,0.3c0.9,0.1,11.5-1.7,11.6,5.1c0.2,0.6-0.1,1,0,1.1  c-9,5.9-9.8,2-11.6,13.5c-0.3,1.8-0.1,3.2,1.2,4.7c-1.7,1.7-2.9,1.3-4.6,0.6c-2-0.5-5.1-4.8-5.3-6.2c-1.2-3.4-3.3-8.6-3.5-10.2  c-0.1-1.7,0.8-5.9,0.5-7.1c-0.2-0.6-0.9-0.8-1.7-0.7c-0.2-0.2-0.7,0-0.9,0.1c-4.2,1.1,1.5,18.9,4.4,22.8c1.9,1.8,3.9,3.6,5.8,5.4  c-0.8,1.2-1.6,2.3-2.5,3.5c-6.8,1.5-19.3-12.2-19.8-21.4c-0.2-3.1,1.5-5.6,2-8.3c2.3-10.9,5.8-19.4,11.8-24S42.6,94.4,42.2,97.5z   M165.6,44.3c3.8,2.4,4.6,5.6,6.8,9.2c5.9,9.6,6.9,22.1,5,31.1c-1.1,2.7-1.7,5.2-2.7,7.9c-0.2,0.9-1,1.2-1.3,1  c-0.3-0.3-1.3-4.4-1.9-6.6c-0.1-6.8,3.6-16.2-2.8-21.2c-1.7-1.3-2.1-1.7-4.1-0.3c1,1.9,2.6,2.7,3.5,4.6c3.1,6.5-0.7,11.2,0,17.9  c0.4,3.5,4,8.4,3.1,12.5c-0.7,3-3.3,11.8-1.6,15.3c0,0.3,0.6,0.4-0.1,0.8c-0.7,0.4-2.6,0.7-2.8-0.5c-0.4-4.3,1.3-12.7,0.5-15.1  c-1.2-3.4-3.1-4.1-4.9-7.3c-0.4-0.7-5.9-23.4-5.9-23.4c0.2-6.6,4.3-7.2,5.7-12.3c0.4-4.5,0.7-9,1.1-13.5  C163.7,43.4,164.2,43,165.6,44.3z M78.9,110.3c0.7-0.2,2.2-0.2,3.3-0.2c5.5-0.4,10.9-3.9,16.3,0.6c0.6,1.1,1.2,2.2,1.8,3.3  c1.3,1.1,3.3,2.7,3.7,6c0.5,5.3-0.5,10.5,0.5,16.5c1.9,2,5.3,12.8,5.1,13.5c-0.2,0.6-0.9,1.7-1.9,1.4c-1-0.3-11.1-15.4-11.4-18.6  c-0.4-3.7,0.9-9.6-0.7-12.5c-1-0.5-2.3-0.6-2.7,0.8c-0.1,2.8-1.5,5.3-1.6,7.8c0.4,1.6,0.8,3.3,1.3,4.9c0,0.2,0,0.4,0,0.6  c-7.2-3.6-13.3-12.6-23.9-8.6c-1.1,0.4-1.8,1.3-1.7,1.8c0.2,1,0.7,1.5,1.5,1.4c11.5-1.3,12.9,3.6,21.1,8.5c2.8,1.7,5.5,2.6,7.9,5.2  c4.7,5.1,9.1,18.4-2.2,18.3c-9.7-5.6,1-25.4-19-17.1c-1.5-3.4-2.6-8.1-4.4-10.1c-1.8-2-7,1.7-12.1,2.8c-2.2,0.5-5.1-1.6-7.1-1.9  c-8.5-18.1,6.6-13,12.8-18.8c2-1.9,1.5-4.2,3.1-6.1C73.4,108.3,74.1,110.2,78.9,110.3z M53.6,139c0,0,2.7,1.6,3.8,1.6  c3.6-0.2,6.6-3.8,10.2-2.5c4.2,1.5,4.9,11,10.5,10.4c1.6-1.1,3.9-3.3,4.7-3.4s1.7,0.2,2.1,0.8c0.4,0.6-0.4,2.9,0.1,4.5  c0.6,1.6,6,13.3,6,14.2c0,1-0.7,1.7-1.8,1.7c-4.6-3.5-10.2-4.9-15.3-7.9c-1.9-0.7-3.8-1.3-5.7-2c-4.7-4.3-10.7-10.4-13-10.6  c-0.7-0.1-1.2,0.1-1.7,0.7s-0.4,0.8-0.1,1.3c1.4,3.4,4.9,2.7,7.1,4.6c1.4,1.7,2.8,3.3,4.3,5c-11.4,3.9-26.9-6.3-17.9-17.9  C49,139.3,51.3,139.1,53.6,139z"></path></svg>