<svg height='100px' width='100px'  fill="#000000" xmlns="http://www.w3.org/2000/svg" xmlns:xlink="http://www.w3.org/1999/xlink" version="1.1" x="0px" y="0px" viewBox="0 0 48 48" enable-background="new 0 0 48 48" xml:space="preserve"><path d="M15.405,13.118c-0.296,0.229-0.572,0.486-0.818,0.77c-2.365,2.702-3.824,6.018-4.219,9.588  c-0.03,0.274,0.167,0.521,0.442,0.552c0.019,0.002,0.037,0.003,0.055,0.003c0.251,0,0.468-0.188,0.497-0.444  c0.372-3.365,1.747-6.491,3.978-9.039c0.204-0.232,0.431-0.446,0.676-0.636c0.219-0.168,0.259-0.481,0.091-0.7  C15.939,12.99,15.625,12.948,15.405,13.118z"></path><path d="M29.09,9.223c-1.41,0-2.81,0.358-4.049,1.036c-0.16,0.087-0.33,0.152-0.508,0.195c0.167-2.945,1.531-5.681,3.823-7.568  c0.213-0.175,0.243-0.491,0.067-0.704c-0.174-0.212-0.488-0.244-0.703-0.068c-2.526,2.08-4.021,5.101-4.188,8.35  c-0.2-0.043-0.395-0.106-0.574-0.204c-1.239-0.678-2.639-1.036-4.048-1.036c-2.437,0-4.753,1.051-6.357,2.883  c-6.451,7.371-6.686,18.268-0.558,25.91c1.909,2.381,4.754,3.746,7.805,3.746l0,0c0.313,0,0.628-0.017,1.039-0.049  c0.37,0.018,0.657,0.332,0.64,0.703c-0.042,0.897-0.31,1.78-0.777,2.549c-0.195,0.32-0.093,0.739,0.229,0.938  C21.009,45.949,21.192,46,21.283,46c0.066,0,0.201-0.027,0.262-0.053c1.563-0.652,3.345-0.652,4.91,0  C26.516,45.973,26.65,46,26.715,46c0.275,0,0.521-0.164,0.629-0.42c0.084-0.201,0.065-0.433-0.047-0.613  c-0.467-0.77-0.734-1.651-0.774-2.645c0.032-0.346,0.315-0.605,0.725-0.605c0.003,0,0.005,0,0.007,0  c3.389,0.324,6.645-1.075,8.75-3.7c6.129-7.644,5.895-18.539-0.559-25.91C33.844,10.273,31.525,9.223,29.09,9.223z M35.223,37.389  c-1.895,2.363-4.826,3.619-7.875,3.332c-0.941-0.09-1.734,0.592-1.821,1.51c-0.007,0.076-0.009,0.152-0.005,0.23  c0.035,0.789,0.22,1.565,0.537,2.287c-0.666-0.193-1.356-0.293-2.059-0.293c-0.703,0-1.393,0.1-2.06,0.293  c0.317-0.722,0.501-1.498,0.538-2.287c0.042-0.92-0.673-1.703-1.667-1.748c-0.054,0-0.108,0.002-0.161,0.008  c-0.284,0.027-0.567,0.041-0.85,0.041l0,0c-2.746,0-5.306-1.229-7.024-3.373c-5.825-7.262-5.602-17.619,0.53-24.625  c1.414-1.615,3.457-2.542,5.604-2.542c1.242,0,2.476,0.315,3.569,0.913c0.438,0.239,0.931,0.355,1.428,0.37  c0.031,0.006,0.059,0.019,0.092,0.019H24c0.034,0,0.063-0.013,0.096-0.019c0.495-0.016,0.989-0.131,1.424-0.37  c1.094-0.598,2.328-0.913,3.57-0.913c2.146,0,4.189,0.926,5.604,2.542C40.824,19.77,41.049,30.127,35.223,37.389z"></path></svg>