<svg height='100px' width='100px'  fill="#000000" xmlns="http://www.w3.org/2000/svg" xmlns:xlink="http://www.w3.org/1999/xlink" version="1.1" x="0px" y="0px" viewBox="0 0 58 64" style="enable-background:new 0 0 58 64;" xml:space="preserve"><g><line style="" x1="29" y1="1" x2="29" y2="63" fill="none" stroke="#000000" stroke-width="2" stroke-linecap="round" stroke-miterlimit="10"></line><line style="" x1="22" y1="16" x2="36" y2="16" fill="none" stroke="#000000" stroke-width="2" stroke-linecap="round" stroke-miterlimit="10"></line><line style="" x1="21" y1="11" x2="29" y2="15.966" fill="none" stroke="#000000" stroke-width="2" stroke-linecap="round" stroke-miterlimit="10"></line><line style="" x1="25" y1="9" x2="29" y2="15.966" fill="none" stroke="#000000" stroke-width="2" stroke-linecap="round" stroke-miterlimit="10"></line><line style="" x1="37" y1="11" x2="29" y2="15.966" fill="none" stroke="#000000" stroke-width="2" stroke-linecap="round" stroke-miterlimit="10"></line><line style="" x1="33" y1="9" x2="29" y2="15.966" fill="none" stroke="#000000" stroke-width="2" stroke-linecap="round" stroke-miterlimit="10"></line><line style="" x1="22" y1="27" x2="36" y2="27" fill="none" stroke="#000000" stroke-width="2" stroke-linecap="round" stroke-miterlimit="10"></line><line style="" x1="21" y1="22" x2="29" y2="26.655" fill="none" stroke="#000000" stroke-width="2" stroke-linecap="round" stroke-miterlimit="10"></line><line style="" x1="25" y1="20" x2="29" y2="26.655" fill="none" stroke="#000000" stroke-width="2" stroke-linecap="round" stroke-miterlimit="10"></line><line style="" x1="37" y1="22" x2="29" y2="26.655" fill="none" stroke="#000000" stroke-width="2" stroke-linecap="round" stroke-miterlimit="10"></line><line style="" x1="33" y1="20" x2="29" y2="26.655" fill="none" stroke="#000000" stroke-width="2" stroke-linecap="round" stroke-miterlimit="10"></line><line style="" x1="26" y1="3" x2="29" y2="9.552" fill="none" stroke="#000000" stroke-width="2" stroke-linecap="round" stroke-miterlimit="10"></line><line style="" x1="32" y1="3" x2="29" y2="9.552" fill="none" stroke="#000000" stroke-width="2" stroke-linecap="round" stroke-miterlimit="10"></line><line style="" x1="56.238" y1="20.963" x2="29" y2="48" fill="none" stroke="#000000" stroke-width="2" stroke-linecap="round" stroke-miterlimit="10"></line><line style="" x1="2" y1="22" x2="29" y2="48" fill="none" stroke="#000000" stroke-width="2" stroke-linecap="round" stroke-miterlimit="10"></line><line style="" x1="17" y1="27" x2="7" y2="37" fill="none" stroke="#000000" stroke-width="2" stroke-linecap="round" stroke-miterlimit="10"></line><line style="" x1="14" y1="23" x2="12.422" y2="32.063" fill="none" stroke="#000000" stroke-width="2" stroke-linecap="round" stroke-miterlimit="10"></line><line style="" x1="10" y1="24" x2="12.422" y2="32.063" fill="none" stroke="#000000" stroke-width="2" stroke-linecap="round" stroke-miterlimit="10"></line><line style="" x1="3" y1="34" x2="12.422" y2="32.063" fill="none" stroke="#000000" stroke-width="2" stroke-linecap="round" stroke-miterlimit="10"></line><line style="" x1="4" y1="30" x2="12.422" y2="32.063" fill="none" stroke="#000000" stroke-width="2" stroke-linecap="round" stroke-miterlimit="10"></line><line style="" x1="25" y1="35" x2="15" y2="45" fill="none" stroke="#000000" stroke-width="2" stroke-linecap="round" stroke-miterlimit="10"></line><line style="" x1="22" y1="30" x2="20.037" y2="39.622" fill="none" stroke="#000000" stroke-width="2" stroke-linecap="round" stroke-miterlimit="10"></line><line style="" x1="18" y1="32" x2="20.037" y2="39.622" fill="none" stroke="#000000" stroke-width="2" stroke-linecap="round" stroke-miterlimit="10"></line><line style="" x1="10" y1="42" x2="20.037" y2="39.622" fill="none" stroke="#000000" stroke-width="2" stroke-linecap="round" stroke-miterlimit="10"></line><line style="" x1="12" y1="38" x2="20.037" y2="39.622" fill="none" stroke="#000000" stroke-width="2" stroke-linecap="round" stroke-miterlimit="10"></line><line style="" x1="6" y1="21" x2="7.853" y2="27.528" fill="none" stroke="#000000" stroke-width="2" stroke-linecap="round" stroke-miterlimit="10"></line><line style="" x1="1" y1="26" x2="7.853" y2="27.528" fill="none" stroke="#000000" stroke-width="2" stroke-linecap="round" stroke-miterlimit="10"></line><line style="" x1="41" y1="26.482" x2="51" y2="36.482" fill="none" stroke="#000000" stroke-width="2" stroke-linecap="round" stroke-miterlimit="10"></line><line style="" x1="44" y1="22.482" x2="45.578" y2="31.545" fill="none" stroke="#000000" stroke-width="2" stroke-linecap="round" stroke-miterlimit="10"></line><line style="" x1="48" y1="23.482" x2="45.578" y2="31.545" fill="none" stroke="#000000" stroke-width="2" stroke-linecap="round" stroke-miterlimit="10"></line><line style="" x1="55" y1="33.482" x2="45.578" y2="31.545" fill="none" stroke="#000000" stroke-width="2" stroke-linecap="round" stroke-miterlimit="10"></line><line style="" x1="54" y1="29.482" x2="45.578" y2="31.545" fill="none" stroke="#000000" stroke-width="2" stroke-linecap="round" stroke-miterlimit="10"></line><line style="" x1="33" y1="34.482" x2="43" y2="44.482" fill="none" stroke="#000000" stroke-width="2" stroke-linecap="round" stroke-miterlimit="10"></line><line style="" x1="36" y1="29.482" x2="37.963" y2="39.104" fill="none" stroke="#000000" stroke-width="2" stroke-linecap="round" stroke-miterlimit="10"></line><line style="" x1="40" y1="31.482" x2="37.963" y2="39.104" fill="none" stroke="#000000" stroke-width="2" stroke-linecap="round" stroke-miterlimit="10"></line><line style="" x1="48" y1="41.482" x2="37.963" y2="39.104" fill="none" stroke="#000000" stroke-width="2" stroke-linecap="round" stroke-miterlimit="10"></line><line style="" x1="46" y1="37.482" x2="37.963" y2="39.104" fill="none" stroke="#000000" stroke-width="2" stroke-linecap="round" stroke-miterlimit="10"></line><line style="" x1="52" y1="20.482" x2="50.147" y2="27.01" fill="none" stroke="#000000" stroke-width="2" stroke-linecap="round" stroke-miterlimit="10"></line><line style="" x1="57" y1="25.482" x2="50.147" y2="27.01" fill="none" stroke="#000000" stroke-width="2" stroke-linecap="round" stroke-miterlimit="10"></line></g></svg>