<svg height='100px' width='100px'  fill="#000000" xmlns="http://www.w3.org/2000/svg" viewBox="0 0 66 52" x="0px" y="0px"><path fill="#000000" d="M566.167491,586.80575 C563.88249,587.592832 561.468749,588 559,588 C546.849736,588 537,578.150264 537,566 C537,553.849736 546.849736,544 559,544 C567.543278,544 575.185818,548.914964 578.818725,556.437749 C580.167222,556.150922 581.565986,556 583,556 C594.045695,556 603,564.954305 603,576 C603,587.045695 594.045695,596 583,596 C575.934896,596 569.725423,592.336612 566.167491,586.80575 Z M559,546 C547.954305,546 539,554.954305 539,566 C539,577.045695 547.954305,586 559,586 C561.115581,586 563.184657,585.671748 565.152962,585.035977 C563.746438,582.263677 563,579.185433 563,576 C563,567.228894 568.693567,559.593692 576.847818,556.964061 C573.48059,550.318878 566.636279,546 559,546 Z M583,594 C592.941125,594 601,585.941125 601,576 C601,566.058875 592.941125,558 583,558 C573.058875,558 565,566.058875 565,576 C565,585.941125 573.058875,594 583,594 Z M553,557 C553.552285,557 554,557.447715 554,558 C554,558.552285 553.552285,559 553,559 L552,559 L552,560 C552,560.552285 551.552285,561 551,561 C550.447715,561 550,560.552285 550,560 L550,559 L549,559 C548.447715,559 548,558.552285 548,558 C548,557.447715 548.447715,557 549,557 L550,557 L550,556 C550,555.447715 550.447715,555 551,555 C551.552285,555 552,555.447715 552,556 L552,557 L553,557 Z M577,569 L578,569 C578.552285,569 579,569.447715 579,570 C579,570.552285 578.552285,571 578,571 L577,571 L577,572 C577,572.552285 576.552285,573 576,573 C575.447715,573 575,572.552285 575,572 L575,571 L574,571 C573.447715,571 573,570.552285 573,570 C573,569.447715 573.447715,569 574,569 L575,569 L575,568 C575,567.447715 575.447715,567 576,567 C576.552285,567 577,567.447715 577,568 L577,569 Z" transform="translate(-537 -544)"></path></svg>