<svg height='100px' width='100px'  fill="#000000" xmlns="http://www.w3.org/2000/svg" xmlns:xlink="http://www.w3.org/1999/xlink" version="1.1" x="0px" y="0px" viewBox="0 0 50 50" enable-background="new 0 0 50 50" xml:space="preserve"><g><path fill-rule="evenodd" clip-rule="evenodd" d="M30.499,30.685c5.127-5.47,10.143-11.252,15.013-17.431   c0.822,6.104-0.036,11.825-2.312,16.817c-2.786,6.111-8.045,11.461-14.079,14.397c-3.52,1.726-11.081,3.62-14.989,2.406   C19.686,41.753,25.153,36.389,30.499,30.685 M26.753,0C19.701,17.246,11.416,33.005,1.466,48.744   c2.592,2.19,7.314,1.073,10.179-0.018c4.506,2.769,14.304,0.344,18.715-1.819c6.59-3.242,12.273-9.016,15.32-15.702   c3.862-8.471,3.274-15.625,1.347-24.366c-4.955,6.445-9.975,12.616-15.445,18.645C33.717,15.629,31.139,8.621,26.753,0z    M26.266,41.891c0-1.314-1.065-2.379-2.379-2.379c-1.314,0-2.38,1.065-2.38,2.379c0,1.314,1.065,2.379,2.38,2.379   C25.201,44.271,26.266,43.206,26.266,41.891z M27.314,36.957c0,1.53,1.24,2.77,2.769,2.77c1.53,0,2.77-1.24,2.77-2.77   c0-1.529-1.24-2.769-2.77-2.769C28.553,34.188,27.314,35.428,27.314,36.957z M33.405,32.079c0.423,1.47,1.959,2.318,3.429,1.895   c1.469-0.424,2.317-1.958,1.895-3.428c-0.424-1.47-1.959-2.318-3.428-1.895C33.83,29.075,32.982,30.61,33.405,32.079z    M38.367,25.515c0.364,1.262,1.683,1.991,2.945,1.628c1.263-0.364,1.992-1.682,1.628-2.945c-0.364-1.262-1.683-1.991-2.945-1.627   C38.733,22.933,38.004,24.253,38.367,25.515z M26.987,6.576c3.25,7.66,3.532,15.942,0.24,23.599   C21.929,35.756,16.5,41.02,10.985,46.055c-1.605,0.644-3.652,1.301-5.382,1.242C13.755,34.25,20.991,20.753,26.987,6.576z"></path></g></svg>