<svg height='100px' width='100px'  fill="#000000" xmlns:x="http://ns.adobe.com/Extensibility/1.0/" xmlns:i="http://ns.adobe.com/AdobeIllustrator/10.0/" xmlns:graph="http://ns.adobe.com/Graphs/1.0/" xmlns="http://www.w3.org/2000/svg" xmlns:xlink="http://www.w3.org/1999/xlink" version="1.1" x="0px" y="0px" viewBox="-247 370.9 100 100" style="enable-background:new -247 370.9 100 100;" xml:space="preserve"><g><g i:extraneous="self"><path d="M-152.2,429c-1.1-3.2-1.3-6.4-0.5-9.4c0.3-1.2,0.4-2.4,0.4-3.6c0-3.5-1.2-6.8-3.3-9.4c2.2-2.1,4.1-4.7,4.2-7.8    c0.1-2.6-1.2-5.1-3.8-7.5c-0.5-0.5-1-0.9-1.6-1.3c0.4-0.7,0.9-1.4,1.2-2.2c0.8-1.8,1-3.4,1.1-4.4l-4-0.3c0,0.6-0.2,1.8-0.8,3.1    c-0.3,0.8-0.7,1.4-1.1,1.9c-3.4-1.2-6.9-0.7-10.3,1.4c-0.4-0.6-0.8-1.1-1.3-1.6c-3.2-3.1-8.3-4.7-14.4-4.4    c-9.6,0.4-15.9,5.7-16.2,13.8c0,0.9,0.2,5,0.5,8.7c-0.2-0.1-0.3-0.2-0.5-0.3c-2.2-1.1-4.9-1.2-7.5-0.3c-2.5,0.9-4.5,2.7-5.4,4.7    c-0.8,1.8-1.5,1.9-5.9,0.8l-0.6-0.2c-0.2-0.1-0.4-0.1-0.7-0.1c-2-3.6-4.9-5.9-8.2-6.5c-1.9-0.3-3.9,0-5.7,0.9    c-0.2-0.4-0.5-0.8-0.7-1.3c-0.5-1.1-0.7-2.1-0.7-2.7l-4,0.4c0.1,1.3,0.5,2.6,1.1,3.9c0.3,0.7,0.7,1.4,1.1,1.9    c-0.1,0.1-0.1,0.1-0.2,0.2c-5.8,5.6-3,10.7,0.5,15.5c-0.1,1.4,0,2.9,0.3,4.3c0.7,2.7,0.4,5.5-0.8,7.9c-1.3,2.5-1.8,5.2-1.5,8    c0.3,3.2,1.6,6.1,3.7,8.4c-0.3,0.4-0.6,0.8-1,1.2c-0.9,0.9-1.7,1.4-2.2,1.6l1.8,3.6c1.1-0.6,2.3-1.4,3.3-2.4    c0.5-0.5,0.9-0.9,1.2-1.4c1.9,1.3,4.1,2.1,6.4,2.5c0.7,0.1,1.5,0.2,2.2,0.2c3.7,0,7.4-1.3,10.2-3.7c2-1.7,4.7-2.2,7-1.4    c0.6,0.2,1.4,0.6,2.3,1c2.6,1.2,5.7,2.5,8,2.5c4.5,0,8-1.8,10.6-5.2c2.2-3,7-1.5,10.6,0.3c-0.1,0.6-0.3,1.2-0.7,2    c-0.5,1.1-1.1,1.9-1.5,2.3l3,2.7c0.9-0.9,1.6-2.1,2.2-3.4c0.4-0.8,0.6-1.6,0.8-2.2c0.1,0,0.2,0,0.3,0.1c0.1,0.6,0.3,1.7,0.2,3.1    c-0.1,1.2-0.4,2.2-0.6,2.7l3.7,1.5c0.5-1.2,0.8-2.5,0.9-3.9c0.1-1.1,0-2.1-0.1-2.9c0.7,0,1.4,0,2.2-0.1c8.5-0.9,15.2-7.6,16-15.9    C-151.1,433.8-151.4,431.3-152.2,429z M-158,394.4c1.7,1.6,2.6,3,2.5,4.4c0,1.5-1.1,3.1-3.1,5.1c-2.6-2-5.9-3.1-9.5-3.1    c0,0,0,0,0,0c0,0-0.7-0.5-0.6-3.1c0.1-1.5-0.1-2.9-0.5-4.3C-165.3,390.7-161.7,391-158,394.4z M-231.7,408.3    c1.4,0.2,2.8,1.1,3.9,2.4c0,0-0.1,0-0.1,0c-4.6,0.7-8.4,3.5-10.4,7.4c-2.1-3.6-1.5-5.3,0.8-7.5    C-235.6,408.7-233.6,408-231.7,408.3z M-155.4,435.9c-0.1,1.2-0.4,2.4-0.8,3.5c-0.8-4.3-3-7.8-4.5-10.2c-0.7-1.2-1.5-2.4-1.6-3    c-0.5-2.1-0.1-4.4,1.1-6.9l-3.6-1.7c-1.5,3.3-2,6.4-1.3,9.4c0.3,1.3,1.1,2.6,2.2,4.3c1.8,2.8,4.2,6.7,4.3,11.3    c0,0.6,0,2.4-3.1,4.1l0,0c-1.5,0.7-3.1,1.2-4.8,1.4c-2.8,0.3-5.6-0.2-8.1-1.4c-1.4-0.7-2.7-1.2-3.9-1.6c-0.5-1.2-0.8-2.3-1-3.5    c-0.2-2,0.1-3.4,0.5-4.9c0.4-1.5,0.8-3.1,0.6-5.1c-0.2-3.1-1.7-6.1-4.4-9l-2.9,2.7c2,2.2,3.2,4.4,3.3,6.5c0.1,1.4-0.2,2.5-0.5,3.8    c-0.4,1.7-0.9,3.7-0.6,6.3c0.1,0.7,0.2,1.5,0.4,2.2c-3.7-0.1-6,1.5-7.3,3.3c-1.8,2.4-4.2,3.6-7.4,3.6c-1.5,0-4.3-1.3-6.4-2.2    c-0.9-0.4-1.8-0.8-2.5-1.1c-2.4-0.9-5.1-0.9-7.5,0c0.1-1.4,0-2.9-0.5-4.5c-0.6-2-1.8-3.8-3.3-5.3l-2.8,2.9    c0.7,0.7,1.7,1.9,2.3,3.7c0.9,2.8,0,5.4-0.5,6.3c-2.3,1.5-5.1,2.1-8,1.7c-5.1-0.7-9.2-4.9-9.7-9.9c-0.2-2,0.2-4,1.1-5.8    c0.9-1.8,1.5-3.8,1.6-5.9c1-0.4,2.2-0.8,3.6-0.9c2.1-0.1,3.8,0.5,4.8,1.1l1.8-3.6c-1.5-0.7-3.8-1.6-6.8-1.5    c-1.4,0.1-2.6,0.3-3.7,0.7c0-0.2-0.1-0.4-0.1-0.6c-0.3-1.3-0.4-2.8-0.1-4.2c0.8-3.9,4.2-7.1,8.3-7.6c0.5-0.1,1-0.1,1.6-0.1    c0.9,0,1.7,0.1,2.6,0.3l0.6,0.2c3.7,1,8.4,2.2,10.6-3.1c0.4-1,1.6-2,3.1-2.5c1.5-0.6,3.1-0.5,4.3,0.1c1.6,0.8,2.2,1.7,2.5,2.3    c0.3,1.1,0.7,2.4,1.3,3.7c1.7,3.5,4,5.7,5.7,7l2.4-3.2c-1.3-1-3.2-2.8-4.5-5.6c-0.3-0.6-0.5-1.2-0.7-1.7c-0.4-5.1-1-13.2-0.9-14.3    c0-0.8,0.2-1.6,0.4-2.3c0.5,0.3,1.1,0.6,1.7,0.8c1.4,0.5,2.7,0.6,3.6,0.6c0.1,0,0.3,0,0.4,0l-0.2-4c-0.5,0-1.4,0-2.5-0.4    c-0.5-0.2-0.9-0.4-1.3-0.6c2.8-3.3,7.7-4,10.2-4.1c4.9-0.2,9.1,1,11.4,3.3c1.6,1.6,2.4,3.8,2.3,6.5c-0.1,2.7,0.5,4.8,1.6,6    c1.1,1.1,2.3,1.3,2.9,1.3c6.4,0,11.7,5.1,11.7,11.3c0,0.9-0.1,1.8-0.3,2.7c-0.9,3.7-0.7,7.7,0.6,11.6    C-155.4,432.1-155.2,434-155.4,435.9z"></path><path d="M-215.2,416.9l-3.8,1.2c0.4,1.2,0.7,3.2,0.1,5.5c-0.5,2-1.6,3.4-2.4,4.3l2.9,2.8c1.1-1.2,2.7-3.2,3.4-6    C-214.1,421.4-214.6,418.7-215.2,416.9z"></path><path d="M-192.7,439.5c-2.2,0.7-3.9,1.5-4.9,2.2l2.1,3.4c0.8-0.5,2.2-1.2,4-1.7c1.6-0.5,2.8-0.6,3.6-0.6l-0.1-4    C-189.1,438.7-190.7,438.9-192.7,439.5z"></path><path d="M-192.6,436.3c1.6-0.5,2.8-0.6,3.6-0.6l-0.1-4c-1,0-2.6,0.2-4.6,0.8c-2.2,0.7-3.9,1.5-4.9,2.2l2.1,3.4    C-195.8,437.5-194.4,436.8-192.6,436.3z"></path><path d="M-172.1,418.1c2.1-1,3.5-2.2,4.4-3l-2.7-3c-0.6,0.5-1.8,1.5-3.5,2.4c-1.5,0.7-2.7,1.1-3.4,1.3l0.8,3.9    C-175,419.4-173.5,418.9-172.1,418.1z"></path><path d="M-179.7,405.8c3.3-0.3,5.8-1.7,7.3-2.8l-2.4-3.2c-1.1,0.8-2.9,1.8-5.3,2.1c-2.2,0.2-4-0.3-5.1-0.7l-1.5,3.7    c1.3,0.5,3.2,1.1,5.5,1.1C-180.7,405.9-180.2,405.9-179.7,405.8z"></path><path d="M-210.5,441.2c-0.6-1.6-0.2-3.1,0-3.7l-3.7-1.4c-0.5,1.3-1.1,3.8,0,6.6c0.5,1.4,1.5,2.6,2.6,3.6l2.6-3.1    C-209.5,442.9-210.1,442.2-210.5,441.2z"></path><path d="M-168.7,407l-3.2-2.4c-1.1,1.5-3.7,4.1-8.3,5.3c-7.1,1.8-13.1-1.7-13.8-2.1l-2.1,3.4c1,0.6,5.6,3.2,11.7,3.2    c1.6,0,3.4-0.2,5.2-0.6C-173.5,412.3-170.2,408.9-168.7,407z"></path><path d="M-167.4,440.5c0,0.3-0.1,0.6-0.3,0.8c-0.5,0.6-1.4,1-2.4,1.1c-1.6,0.2-3-0.6-3-1.3l-4,0.5c0.3,2.9,3.1,4.9,6.5,4.9    c0.3,0,0.6,0,0.9-0.1c2.1-0.2,3.9-1.2,5.1-2.6c0.9-1.1,1.3-2.4,1.1-3.7c-0.2-1.6-1.2-3.1-2.9-4l-1.9,3.5    C-168,439.7-167.5,440-167.4,440.5z"></path><path d="M-233.9,439.2c-1.6,0.6-2.7,1.9-3.2,3.7l3.9,1c0.1-0.3,0.3-0.8,0.8-1c0.8-0.3,2.1,0.5,2.7,2c0.3,0.9,0.4,1.8,0.1,2.4    c-0.2,0.3-0.4,0.6-0.6,0.7l1.4,3.7c1.3-0.5,2.3-1.5,2.9-2.8c0.7-1.6,0.7-3.7,0-5.5C-227.5,439.9-230.9,438.1-233.9,439.2z"></path></g></g></svg>