<svg height="100" width="100" xmlns="http://www.w3.org/2000/svg" viewBox="0 0 128 128"><path d="M127.596 62.797c1.465-7.187-1.314-11.834-4.124-14.256 2.854-7.657-.324-14.534-8.991-19.14-4.273-2.271-8.228-3.163-11.751-2.652-2.746.397-5.149 1.604-7.188 3.597a21.725 21.725 0 00-.724-3.407c-2.397-8.114-7.796-11.21-11.878-12.032C81.878 5.5 75.191.364 63.84.364S45.803 5.5 44.74 14.907c-4.082.822-9.481 3.918-11.878 12.031a21.835 21.835 0 00-.686 3.156c-1.979-1.836-4.284-2.966-6.906-3.345-3.527-.51-7.479.382-11.751 2.652-8.667 4.606-11.844 11.483-8.991 19.14-2.811 2.422-5.59 7.068-4.124 14.256 1.039 5.094 3.466 7.949 6.055 9.436-2.866 3.58-5.323 9.376-1.531 17.135 4.101 8.392 11.013 9.733 16.153 8.935.382 3.336 1.8 7.888 6.29 11.247 5.498 4.115 11.608 2.288 15.112.582a9.054 9.054 0 003.529 2.701 9.403 9.403 0 003.724.74c1.42 0 2.931-.287 4.526-.856l7.054 13.333.002.003c.026.048.062.091.09.138a2.603 2.603 0 00.341.459c.027.03.049.064.077.093.039.04.084.073.125.111.069.063.142.122.218.179.068.051.137.101.209.146.036.022.071.044.108.065.023.013.042.031.065.044.031.016.064.021.096.037.129.063.263.113.402.158.05.016.097.039.149.053l.091.022c.193.044.393.069.599.073.019 0 .037.007.056.007h.005l.008-.001h.004c.224-.001.44-.031.649-.079l.084-.021c.051-.013.098-.037.149-.053.141-.045.278-.096.41-.161.028-.014.058-.018.085-.033.023-.012.042-.03.065-.043.039-.022.076-.046.115-.07a2.964 2.964 0 00.428-.327c.042-.039.089-.072.129-.113.02-.021.036-.046.055-.068l.021-.026a2.793 2.793 0 00.34-.461c.026-.044.06-.083.084-.128l.001-.002 7.088-13.364c1.622.587 3.159.885 4.601.885a9.403 9.403 0 003.724-.74 9.043 9.043 0 003.529-2.701c3.504 1.705 9.615 3.532 15.112-.582 4.49-3.359 5.907-7.91 6.29-11.246 5.14.793 12.053-.544 16.153-8.936 3.792-7.759 1.335-13.554-1.531-17.136 2.587-1.486 5.015-4.34 6.054-9.435zM38.569 28.625c2.403-8.132 8.141-8.04 8.742-7.999a2.98 2.98 0 003.23-2.965c0-4.869 1.378-11.344 13.298-11.344s13.298 6.475 13.298 11.344c0 .833.35 1.628.963 2.192a2.988 2.988 0 002.267.773c.062-.01 6.249-.436 8.742 7.999.387 1.31.574 2.509.603 3.611-3.095.134-6.734 1.404-10.247 4.986-3.641 3.712-4.649 7.321-4.432 10.298-2.455-.198-5.374.069-8.219 1.51v-9.79c.274.009.556.015.853.015 4.238 0 10.712-1.046 16.071-6.406l-4.208-4.208c-4.32 4.319-9.699 4.794-12.716 4.653V16.252a2.975 2.975 0 10-5.952 0v32.655c-2.659-1.268-5.425-1.597-7.894-1.427.205-2.969-.81-6.563-4.434-10.258-3.638-3.71-7.408-4.937-10.572-4.993.031-1.098.221-2.295.607-3.604zm22.325 80.246l.018 3.688-1.383-2.613c.489-.348.947-.705 1.365-1.075zm5.951-.221c.468.433.999.847 1.56 1.251l-1.54 2.904-.02-4.155zm-18.458-1.276c-1.405-.572-1.93-2.145-1.931-2.145v.001a2.975 2.975 0 00-4.638-1.575c-.062.046-6.268 4.58-10.881 1.13-4.862-3.639-3.992-9.697-3.956-9.936a2.976 2.976 0 00-4.189-3.189c-.843.391-8.365 3.586-12.517-4.907-4.163-8.517 3.024-13.097 3.843-13.583 1.247-.721 1.824-2.234 1.337-3.588-.487-1.355-1.849-2.174-3.27-1.932-.77.1-4.659.284-5.95-6.044-1.404-6.885 2.769-9.041 3.209-9.247a2.973 2.973 0 001.461-4.134c-3.928-7.394.826-11.136 5.406-13.57 3.133-1.665 5.863-2.339 8.106-2.019 2.507.363 4.525 2.042 6.166 5.132a2.976 2.976 0 004.243 1.102c.043-.029 4.336-2.707 9.459 2.516 4.524 4.612 2.193 7.734 1.713 8.276a2.977 2.977 0 003.459 4.727c.268-.131 6.027-2.836 10.72 1.122-.067.111-.137.211-.202.325-4.66 8.095-1.9 14.572 1.635 18.388-2.551 2.183-5.529 5.905-5.802 11.507-.182 3.753 1.217 6.658 3.071 8.843a2.991 2.991 0 00-1.516 1.829 3.024 3.024 0 00.539 2.694c.011.013 1.038 1.337.724 2.833-.19.903-.84 1.815-1.91 2.697L43.173 79.031c2.064-.906 4.795-2.331 7.327-4.384l-3.749-4.622c-2.204 1.788-4.658 3.007-6.371 3.729L22.802 40.529a2.975 2.975 0 10-5.261 2.784l6.737 12.734c-2.266 1.267-6.293 2.808-10.969 1.376l-1.742 5.69c1.947.597 3.808.839 5.55.839 4.158 0 7.628-1.383 9.94-2.652l15.551 29.392c-1.141 1.079-4.181 3.317-9.691 3.135l-.194 5.948c.275.01.546.014.813.014 5.751 0 9.635-2.024 11.905-3.742l5.989 11.319c-1.214.321-2.246.333-3.043.008zm73.377-45.766c-1.291 6.331-5.183 6.137-5.901 6.052a2.968 2.968 0 00-3.28 1.915 2.985 2.985 0 001.284 3.588c.833.494 8.02 5.074 3.857 13.591-4.016 8.22-11.145 5.525-12.517 4.907a2.977 2.977 0 00-3.04.329 2.99 2.99 0 00-1.152 2.841c.039.257.909 6.315-3.953 9.954-4.561 3.411-10.828-1.092-10.881-1.13a2.977 2.977 0 00-4.638 1.575c-.004.015-.513 1.54-1.889 2.126-.82.35-1.892.338-3.159-.009l6.014-11.338c2.262 1.725 6.16 3.778 11.954 3.778.266 0 .539-.004.813-.014l-.194-5.948c-5.577.184-8.624-2.11-9.732-3.174l15.574-29.363c2.311 1.271 5.79 2.661 9.958 2.661a18.87 18.87 0 005.55-.839l-1.742-5.69c-4.689 1.434-8.715-.111-10.982-1.383l6.749-12.724a2.976 2.976 0 00-5.258-2.788L87.582 73.744c-3.696-1.552-10.78-5.391-11.345-12.184l-5.931.494c.802 9.625 9.533 14.791 14.479 16.964l-13.557 25.561c-1.034-.866-1.668-1.76-1.854-2.646-.312-1.486.698-2.8.696-2.8a2.985 2.985 0 00-1.279-4.721c-.073-.026-7.313-2.699-7.037-8.389.295-6.066 5.802-8.735 6.02-8.838a2.979 2.979 0 001.726-2.524 2.992 2.992 0 00-1.411-2.723c-1.294-.801-7.517-5.201-2.953-13.128 4.73-8.218 12.547-4.825 13.407-4.417 1.295.629 2.871.261 3.722-.9a2.95 2.95 0 00-.229-3.791c-.513-.578-2.844-3.7 1.68-8.312 4.92-5.018 9.043-2.766 9.458-2.516a2.976 2.976 0 004.244-1.103c1.641-3.089 3.658-4.768 6.166-5.131 2.249-.321 4.974.354 8.106 2.019 4.581 2.434 9.335 6.176 5.407 13.57a2.978 2.978 0 001.46 4.134c.045.018 4.668 2.079 3.207 9.245z"/></svg>