<svg height='100px' width='100px'  fill="#000000" xmlns="http://www.w3.org/2000/svg" xmlns:xlink="http://www.w3.org/1999/xlink" version="1.1" x="0px" y="0px" viewBox="0 0 100 100" enable-background="new 0 0 100 100" xml:space="preserve"><g><g><path d="M96.156,30c-0.075-0.964-0.69-1.734-1.827-2.295c0.075-1.634-0.882-3.22-1.916-4.251    c-1.341-1.332-2.959-1.939-4.208-1.584c-0.133,0.042-0.256,0.087-0.374,0.156c-1.107-1.04-2.838-1.98-4.459-0.956    c-1.798,1.143-3.456,3.621-2.776,7.016c-1.778-0.29-3.772,0.92-5.646,3.7c-1.876,2.789-9.594,12.075-30.039,14.593    c-3.556,0.438-6.957,0.664-10.093,0.823c-1.745-0.017-3.32,0.076-4.788,0.231c-8.239,0.398-14.789,0.98-18.856,5.377    c-0.079,0.081-7.395,8.274-2.702,18.199c2.698,5.722,11.303,11.937,23.805,12.094c0.001-0.002,0.001-0.002,0.001-0.002    c9.924,0.123,20.584-3.71,30.824-11.077c21.087-15.172,30.717-31.286,29.865-37.496C94.548,33.361,96.289,31.678,96.156,30z     M88.712,23.671c0.583-0.167,1.558,0.29,2.385,1.107c1.028,1.029,1.553,2.336,1.299,3.25c-0.294,1.051-1.222,2.165-2.152,3.06    c-0.459-1.196-1.352-2.028-2.438-2.503C87.829,25.906,88.23,23.804,88.712,23.671z M32.3,81.236    c-11.18-0.142-19.6-5.65-22.144-11.022c-4.145-8.774,2.129-15.85,2.39-16.141c1.928-2.084,4.527-3.19,7.78-3.835    c-4.74,2.662-5.842,6.141-5.91,6.379c-0.143,0.494,0.141,1.006,0.63,1.153c0.088,0.021,0.17,0.036,0.257,0.036    c0.405,0.004,0.781-0.258,0.904-0.665c0.092-0.3,2.15-6.543,13.731-7.834c0.651-0.03,1.291-0.065,1.976-0.095    c3.948-0.179,8.428-0.389,13.226-0.98c21.229-2.614,29.37-12.452,31.361-15.404c1.29-1.911,2.55-2.96,3.552-2.945    c0.565,0.004,1.127,0.373,1.668,1.085l0.784,1.041l0.287-0.418l0.449-0.662c0.215-0.321,0.533-0.576,0.919-0.751    c0.406-0.191,0.891-0.297,1.417-0.29c0.124,0.003,0.251,0.023,0.377,0.034c0.704,0.08,1.396,0.356,1.919,0.843    c0.435,0.404,0.73,0.954,0.812,1.659c0.013,0.094,0.034,0.176,0.036,0.275l0.027,1.003l1.001-0.099    c0.169-0.017,0.323-0.017,0.461,0c0.196,0.027,0.351,0.105,0.487,0.211c0.155,0.125,0.285,0.292,0.367,0.546    c0.111,0.366,0.136,0.837,0.116,1.356c-0.231,5.747-9.023,20.296-29.17,34.794c-9.917,7.134-20.188,10.843-29.71,10.728    L32.3,81.236z M84.375,22.648c0.159-0.101,0.329-0.143,0.507-0.143c0.638,0.01,1.345,0.586,1.767,0.994    c-0.528,1.251-0.689,2.994-0.714,4.609c-1.166-0.089-2.302,0.177-3.172,0.757c-0.041-0.092-0.091-0.168-0.12-0.269    C81.65,25.653,82.889,23.593,84.375,22.648z M92.234,32.722c-0.157-0.182-0.324-0.341-0.517-0.472    c0.772-0.77,1.566-1.692,2.075-2.708c0.312,0.202,0.485,0.405,0.502,0.607C94.346,30.795,93.409,31.794,92.234,32.722z"></path><path d="M24.597,69.115c-0.008,0.615,0.48,1.113,1.091,1.12c0.612,0.005,1.11-0.48,1.119-1.091    c0.01-0.615-0.476-1.115-1.093-1.125C25.102,68.015,24.602,68.502,24.597,69.115z"></path><path d="M18.958,74.554c-0.614-0.006-1.112,0.481-1.121,1.093c-0.008,0.611,0.482,1.112,1.091,1.122    c0.615,0.007,1.114-0.485,1.124-1.095C20.059,75.061,19.57,74.561,18.958,74.554z"></path><path d="M32.834,61.627c-0.608-0.007-1.107,0.485-1.115,1.097c-0.01,0.611,0.479,1.11,1.091,1.118    c0.613,0.009,1.112-0.482,1.124-1.092C33.94,62.139,33.45,61.639,32.834,61.627z"></path><path d="M34.629,71.453c0.612,0.007,1.112-0.481,1.12-1.097c0.007-0.607-0.484-1.111-1.092-1.117    c-0.617-0.007-1.112,0.483-1.124,1.09C33.528,70.944,34.016,71.448,34.629,71.453z"></path><path d="M37.607,76.999c-0.608-0.009-1.11,0.478-1.119,1.09c-0.005,0.611,0.482,1.113,1.093,1.123    c0.61,0.007,1.115-0.484,1.12-1.097C38.71,77.505,38.223,77.005,37.607,76.999z"></path><path d="M48.124,73.806c-0.61-0.008-1.109,0.479-1.117,1.09c-0.008,0.617,0.477,1.115,1.092,1.122    c0.612,0.009,1.114-0.479,1.119-1.093C49.229,74.312,48.735,73.814,48.124,73.806z"></path><circle cx="56.168" cy="71.914" r="1.107"></circle><path d="M27.21,77.07c-0.61-0.008-1.112,0.481-1.12,1.095c-0.007,0.611,0.484,1.115,1.091,1.12    c0.613,0.007,1.117-0.481,1.122-1.094C28.312,77.582,27.822,77.079,27.21,77.07z"></path><path d="M42.194,67.389c-0.008,0.611,0.479,1.113,1.091,1.121c0.613,0.006,1.114-0.482,1.124-1.095    c0.006-0.609-0.485-1.115-1.098-1.122C42.699,66.288,42.199,66.778,42.194,67.389z"></path><path d="M42.279,60.115c0.617,0.007,1.113-0.481,1.119-1.097c0.008-0.611-0.478-1.11-1.089-1.122    c-0.612-0.004-1.114,0.486-1.12,1.097C41.178,59.604,41.669,60.105,42.279,60.115z"></path><path d="M53.113,64.097c-0.007,0.607,0.481,1.107,1.092,1.115c0.613,0.009,1.112-0.479,1.124-1.091    c0.005-0.612-0.482-1.114-1.099-1.122C53.623,62.989,53.123,63.481,53.113,64.097z"></path><path d="M21.628,59.611c0.029-0.045,3.018-4.896,14.615-4.126c0.517,0.022,0.961-0.354,0.994-0.871    c0.035-0.517-0.354-0.959-0.871-0.995c-12.681-0.825-16.204,4.805-16.347,5.046c-0.262,0.445-0.113,1.019,0.332,1.279    c0.143,0.084,0.303,0.128,0.462,0.128C21.138,60.077,21.451,59.914,21.628,59.611z"></path><path d="M44.552,55.445c0.018,0,0.033,0,0.048,0c0.362-0.014,8.887-0.39,14.309-3.506c0.45-0.257,0.604-0.831,0.35-1.274    c-0.261-0.447-0.836-0.601-1.276-0.345c-5.022,2.885-13.371,3.254-13.456,3.254c-0.517,0.025-0.917,0.459-0.897,0.976    C43.65,55.048,44.056,55.441,44.552,55.445z"></path><path d="M63.506,49.91c0.124,0,0.251-0.024,0.377-0.075c12.707-5.42,17.978-14.861,18.197-15.26    c0.249-0.453,0.08-1.018-0.372-1.268c-0.443-0.241-1.016-0.084-1.267,0.372c-0.051,0.092-5.21,9.283-17.293,14.438    c-0.473,0.203-0.694,0.751-0.492,1.228C62.807,49.692,63.148,49.903,63.506,49.91z"></path><path d="M88.087,37.149c0.206-0.473-0.002-1.025-0.475-1.234c-0.471-0.209-1.021,0.002-1.235,0.475    c-4.956,11.185-21.201,29.988-40.33,34.822c-19.053,4.816-23.828,0.636-23.941,0.534c-0.357-0.363-0.937-0.378-1.307-0.026    c-0.373,0.353-0.392,0.943-0.04,1.316c0.133,0.144,2.257,2.259,9.277,2.345c3.853,0.051,9.184-0.516,16.47-2.358    C66.456,67.979,82.831,49.009,88.087,37.149z"></path><path d="M19.99,65.192c-0.026-0.514-0.474-0.896-0.984-0.881c-0.513,0.026-0.91,0.469-0.881,0.982    c0.076,1.385-0.326,2.51-1.114,3.088c-0.69,0.509-1.646,0.572-2.701,0.182c-1.093-0.408-1.582-1.641-1.778-2.34    c-0.448-1.634-0.213-3.412,0.294-4.052c0.229-0.285,0.459-0.41,0.62-0.445c0.141,0.005,0.386,0.152,0.66,0.55    c0.861,1.267,2.039,0.725,2.544,0.494c0.477-0.215,0.564-0.225,0.695-0.15c0.438,0.274,1.014,0.14,1.285-0.303    c0.272-0.438,0.134-1.014-0.305-1.286c-1.009-0.622-1.911-0.206-2.449,0.04c-0.077,0.036-0.177,0.082-0.259,0.114    c-0.733-1.06-1.547-1.305-2.1-1.325c-0.574-0.012-1.37,0.166-2.152,1.148c-0.95,1.194-1.215,3.6-0.628,5.714    c0.495,1.799,1.534,3.074,2.921,3.592c0.635,0.237,1.272,0.36,1.881,0.366c0.955,0.012,1.847-0.256,2.58-0.795    C19.422,68.929,20.101,67.217,19.99,65.192z"></path></g></g></svg>