<svg height='100px' width='100px'  fill="#000000" xmlns="http://www.w3.org/2000/svg" xmlns:xlink="http://www.w3.org/1999/xlink" version="1.1" x="0px" y="0px" viewBox="0 0 99 94.1" style="enable-background:new 0 0 99 94.1;" xml:space="preserve"><path d="M98.6,41.3c-3.4-5.1-8.2-7-12.2-7.6c0.5-0.5,0.7-1.3,0.6-2c-0.2-0.8-0.8-1.5-1.6-1.8C82.1,29,79.3,29,77,29.4l0.3-0.6  c0.3-0.6,0.3-1.3,0-1.9c-0.3-0.6-0.8-1.1-1.5-1.3c-2.8-0.7-5.8,0.4-8.3,2c0-0.5-0.2-0.9-0.6-1.3c-0.5-0.6-1.4-0.9-2.2-0.7  c-2.9,0.6-6,2.8-8.5,5.2c0,0,0-0.1-0.1-0.1c-0.3-0.3-0.6-0.5-1-0.7c-0.2-1.8-0.6-3.9-1.3-6.1c-0.2-0.8-0.9-1.4-1.7-1.6  c-0.8-0.2-1.6,0.1-2.2,0.7l-1,1.1c-0.7-3.9-1.8-8.8-3.4-10.7c-0.5-0.5-1.1-0.9-1.8-0.8c-0.7,0-1.4,0.4-1.8,1l-1.4,2l-2.8-5.8  c-0.4-0.8-1.1-1.2-2-1.3c-0.8,0-1.6,0.4-2,1.2l-1,1.8l-9-10.7c-0.5-0.6-1.3-0.9-2.1-0.8c-0.8,0.1-1.5,0.7-1.7,1.5l-4.6,12.8  l-1.6-1.4c-0.6-0.6-1.6-0.7-2.3-0.4c-0.8,0.3-1.3,1.1-1.4,1.9l-0.6,6.2l-2.1-1.4c-0.6-0.4-1.3-0.5-2-0.3c-0.7,0.2-1.2,0.7-1.4,1.4  c-0.8,2.3-0.1,7.1,0.7,11l-1.2-0.7c-0.7-0.4-1.6-0.4-2.3,0.1c-0.7,0.5-1.1,1.3-1,2.1c0.6,7.1,2.7,11.5,4.6,14.1l-2.4,0.6  C1.6,47.6,1,48,0.7,48.6c-0.3,0.6-0.4,1.2-0.2,1.8C2.3,55.7,6,60.8,8.2,63.6l-3.4,1.8c-1.1,0.6-1.5,1.9-1,3  c0.4,0.8,14.4,17.4,25.8,18.8c0.5,0.1,1.1,0.1,1.6,0.1c1,0,2-0.2,2.9-0.4c0,0.3,0,0.6,0,0.8c0.2,1.4,0.4,2.6,0.7,3.5  c0.7,1.9,1.2,2.9,1.2,2.9l0.6-0.1c0,0,0.2-1.1,0.4-2.9c0.1-0.5,0.2-1,0.3-1.6c1.5,1,5.8,3.4,13.1,3.4c2.1,0,4.5-0.2,7.1-0.7  c1.1-0.2,1.9-1.2,1.8-2.3l-0.1-2.6L72.3,86c0.8-0.1,1.5-0.6,1.9-1.3c0.3-0.7,0.2-1.6-0.2-2.3l-1.3-1.7l8.2-4.4  c0.8-0.4,1.3-1.3,1.2-2.3c-0.1-0.9-0.8-1.7-1.7-1.9L79.8,72l5.1-3.9c0.7-0.5,1-1.4,0.8-2.3c-0.2-0.9-0.9-1.5-1.7-1.7c0,0,0,0-0.1,0  c1.5-1.6,3.4-3.6,4.8-5.1c0.5-0.5,0.7-1.2,0.6-1.9c-0.1-0.7-0.5-1.3-1.2-1.6l-0.1,0c1.3-1.3,3-3,5.3-5.5c0.5-0.6,0.7-1.3,0.5-2.1  c-0.2-0.7-0.7-1.3-1.4-1.6l-0.2-0.1c1.4-0.5,3.1-1,4.8-1.3c0.8-0.1,1.4-0.6,1.7-1.3C99.1,42.7,99,41.9,98.6,41.3z M31.5,16.9  c0.5,0.6,1.2,0.9,2,0.8c0.7-0.1,1.4-0.5,1.8-1.2l0.5-0.9l2.6,5.3c0.4,0.7,1.1,1.2,1.9,1.3c0.8,0.1,1.6-0.3,2-0.9l1.3-1.8  c0.7,2.7,1.4,6.6,1.8,10c0.1,0.9,0.7,1.6,1.6,1.9c0.8,0.3,1.8,0,2.4-0.7l1.3-1.4c0.1,0.6,0.1,1.2,0.2,1.7c-1.6,1-2.9,2.6-3.9,4.3  c-0.6-0.2-1.3-0.1-1.8,0.3c-2.3,1.5-3.7,4.6-4.5,7.4l0,0c-0.5-0.7-1.5-1.1-2.3-0.8c-0.9,0.2-1.6,0.9-1.7,1.8L35,51.4  c-0.4-0.4-1-0.7-1.7-0.7c-0.4,0-0.8,0.2-1.2,0.4c-0.6-2.9-1.1-5.7-1.7-8.7c-2.7-14.1-5.6-28.2-7.1-35.3L31.5,16.9z M30.9,82.7  c-7.2-0.3-17.6-10.3-21.5-14.6l3.5-1.8c0.6-0.3,1.1-0.9,1.2-1.6c0.1-0.7-0.1-1.4-0.6-1.9c-0.1-0.1-4.9-5.4-7.6-11.4l3.8-0.9  c0.9-0.2,1.6-0.9,1.7-1.8c0.2-0.9-0.3-1.8-1-2.3c0,0-3.4-2.3-5-9.5l1.7,0.9c0.8,0.4,1.8,0.4,2.5-0.2c0.7-0.6,1-1.5,0.8-2.4  c-0.9-3.3-1.6-7.1-1.9-9.8l1.8,1.2c0.7,0.5,1.5,0.5,2.3,0.2c0.7-0.3,1.2-1,1.3-1.9l0.5-5.6l0.8,0.7c0.6,0.5,1.3,0.7,2.1,0.5  c0.7-0.2,1.3-0.7,1.6-1.4l4.1-11.5c1.1,7.3,3.1,21.4,5.3,35.5c0.6,4,1.2,7.9,1.7,11.8c-1.5,3.7-0.7,7.6,0.7,10.5l-0.8,0.1  c-1.1,0.1-2,0.9-2.1,2c-0.6,5.2,3,11.7,5.4,15.2C32.2,82.7,31.6,82.7,30.9,82.7z M85.5,46c-0.4,1.2,0.2,2.4,1.3,2.9l0.9,0.3  c-1.8,1.9-3.5,3.6-4.3,4.2c-0.6,0.1-1.1,0.5-1.5,1.1c-0.6,1-0.3,2.4,0.7,3.1c0.2,0.1,0.4,0.3,0.7,0.4l0.1,0.1  c-5.7,5.9-5.7,6-5.9,6.5c-0.2,0.6-0.2,1.3,0.1,1.9c0.2,0.4,0.4,0.7,0.9,0.9l-5.1,4c-0.7,0.5-1,1.4-0.8,2.3c0.1,0.7,0.6,1.2,1.2,1.5  l-5.5,2.9c-0.6,0.3-1,0.9-1.1,1.5c-0.1,0.6,0,1.3,0.4,1.9l0.5,0.6L56.6,83c-1.2,0.1-2.1,1.1-2,2.3l0.1,2.7  c-9.8,1.5-14.9-2.4-15.1-2.5c-0.3-0.3-0.7-0.4-1.1-0.5c0.1-0.4,0.2-0.8,0.4-1.2c0.5-1.4,1.1-2.9,1.8-4.5c0.7-1.6,1.5-3.2,2.3-4.8  c0.8-1.7,1.7-3.4,2.7-5.1c0.9-1.8,2.2-3.4,3.3-5.1c1.3-1.6,2.6-3.2,4-4.6c1.4-1.5,2.9-2.8,4.3-4.1c1.5-1.3,3-2.3,4.4-3.5  c1.5-1,2.9-1.9,4.2-2.8c1.4-0.8,2.6-1.5,3.8-2.1c1.1-0.6,2.2-1,3-1.4c1.7-0.8,2.7-1.2,2.7-1.2l-0.2-0.6c0,0-1,0.3-2.8,0.8  c-0.9,0.3-2,0.5-3.2,1c-1.2,0.5-2.6,1-4.2,1.6c-1.5,0.7-3.1,1.5-4.8,2.3c-1.6,1-3.4,1.9-5.1,3.1c-1.7,1.2-3.5,2.4-5.1,3.9  c-1.7,1.4-3.3,2.9-4.8,4.5c-1.5,1.6-3,3.3-4.4,5.1c-0.7,0.9-1.4,1.7-2,2.7c-0.6,0.9-1.1,1.9-1.6,2.8c-0.5,0.9-0.9,1.9-1.3,2.9  c-0.4,0.9-0.7,1.8-0.9,2.8c-1.4-2.5-2.7-5.3-3-7.7l2.5-0.2c0.9-0.1,1.6-0.6,1.9-1.4c0.3-0.8,0.2-1.7-0.3-2.4c0-0.1-3.8-4.6-2.3-9  l0.9,1c0.6,0.6,1.5,0.9,2.3,0.6c0.8-0.2,1.4-0.9,1.6-1.8l1.3-6.8c0.6,0.7,1.5,1,2.3,0.7c0.9-0.2,1.6-1,1.7-1.9  c0.1-1.2,0.4-2.5,0.8-3.9c0.3,0.3,0.8,0.5,1.3,0.6c1.2,0.1,2.2-0.6,2.5-1.8c0.3-1.3,1-3.3,1.9-5.1c0,0.8,0.5,1.6,1.3,2  c1,0.5,2.2,0.2,2.8-0.7c1.6-2.1,4.2-5.1,6.8-7.2L60.7,34c-0.4,1,0.1,2.2,1,2.7c1,0.5,2.1,0.3,2.9-0.5c1.4-1.6,4.1-4.3,6.7-5.6  l-0.9,1.8c-0.5,0.9-0.2,2,0.6,2.7c0.8,0.7,1.9,0.7,2.8,0.1c0.1-0.1,1.9-1.3,5-1.6l-0.5,0.4c-0.9,0.6-1.1,1.8-0.7,2.8  c0.4,1,1.5,1.5,2.5,1.3c0.1,0,7.2-1.4,12.5,3C89.6,42,86.3,43.5,85.5,46z"></path></svg>