<svg height='100px' width='100px'  fill="#000000" xmlns="http://www.w3.org/2000/svg" data-name="Layer 1" viewBox="0 0 100 100" x="0px" y="0px"><defs><style>.cls-1{fill:none;}</style></defs><title>Parsnip</title><path class="cls-1" d="M54.39,78.29H52.2a1,1,0,0,1,0-2h3.19a6.47,6.47,0,0,0,.45-3.05,10.22,10.22,0,0,1-.07-1.36H51.24a1,1,0,0,1,0-2h4.69A27.29,27.29,0,0,1,57,65.28a3.83,3.83,0,0,0,.15-.94l-3.38-.64a1,1,0,0,1,.37-2l3,.56c0-.36-.06-.69-.08-.92s-.06-.61-.06-.73V60.4c0-8.14.17-8.88.25-9.16s.13-.44.22-.73a21.84,21.84,0,0,0,.73-2.79,31.91,31.91,0,0,1-7,1.18,4.58,4.58,0,0,1-2-.34,1,1,0,0,1,.91-1.78c.89.46,4.84-.23,8.26-1.17l.89-8a12.91,12.91,0,0,1-2.44.25,7.31,7.31,0,0,1-3.25-.67,1,1,0,1,1,.89-1.79c1.51.76,3.78.43,5,.11.08-.64.16-1.27.24-1.85.38-2.8.65-4.83-.13-5.9l-.25-.37H54a1,1,0,0,1,0-2H58a8.09,8.09,0,0,0-3.14-2.78l0,0a12.18,12.18,0,0,1-5.31,1.19A13,13,0,0,1,44.85,23a1,1,0,0,1-.23-.16,6.8,6.8,0,0,0-1.63.71c-.47.32-4.59,3.21-3.43,7.53a1,1,0,0,1,0,.56,11,11,0,0,0-.22,4.79,18.29,18.29,0,0,1,.2,3.92,13,13,0,0,0,.61,5.32,1,1,0,0,1,.06.65,23.16,23.16,0,0,0-.54,4.52h5.95a1,1,0,0,1,0,2h-5.9A14.47,14.47,0,0,0,40.94,58a1,1,0,0,1,.06.69c-.3,1.1-.77,4.17.29,6l5.91.74a1,1,0,0,1-.12,2H47l-5.4-.68c-.27,2.35-.59,6.53-.08,8.18l.45,1.43a1,1,0,0,1,.19,0h5a1,1,0,1,1,0,2H42.56a40.58,40.58,0,0,0,2.65,6.62,27.16,27.16,0,0,1,1.5,2.87,16.14,16.14,0,0,0,1.35,2.52,11.85,11.85,0,0,1,1.57,4.41l.06.27c0-.39.06-.86.08-1.42a1,1,0,0,1,0-.18,15.92,15.92,0,0,1,1.6-4.53c.14-.2.32-.43.51-.68.78-1,2-2.54,1.86-3.61,0-.44-.12-.9-.21-1.35-.25-1.41-.54-3,.41-4.3C54.06,78.77,54.22,78.55,54.39,78.29ZM42.27,30.35c1.1.16,4.28.49,5.8,0a1,1,0,0,1,.57,1.92,10.53,10.53,0,0,1-2.86.32A28.3,28.3,0,0,1,42,32.33a1,1,0,0,1,.3-2Zm2.8,13.26c-1,0-2.38-.06-4.31-.22a1,1,0,1,1,.17-2,35,35,0,0,0,5.64.14,1,1,0,0,1,1.22,1.56C47.57,43.31,47.27,43.62,45.07,43.62Zm.36,16.61a1,1,0,0,1-.38-2c.43-.08,4.26-.78,6.53,0a1,1,0,0,1-.34,1.94,1,1,0,0,1-.34-.06C49.4,59.64,46.44,60,45.43,60.22Zm7.63,22.52a1,1,0,0,1-1.37.34,11.23,11.23,0,0,0-3.3.13,1,1,0,1,1-.3-2c1.31-.2,3.66-.45,4.62.13A1,1,0,0,1,53.05,82.74Z"></path><path class="cls-1" d="M51.53,19.82a46.61,46.61,0,0,1,.91-4.62l-1.51,2.3a1,1,0,0,1-1.83-.41l-.14-1-.27,2a1,1,0,0,1-1.92.25l-1.27-3.08a13.15,13.15,0,0,0,1.6,4.88c.9-.16,1.59-.24,1.78-.26A16.13,16.13,0,0,1,51.53,19.82Z"></path><path d="M61.16,26.61c-.16-.22-.33-.51-.53-.84-1.09-1.81-2.9-4.81-7.14-5.7.29-2,1.37-6.51,2.47-10.55a1,1,0,0,0-1.81-.79l-2.37,3.83-1.07,1.63-.82-5.73a1,1,0,0,0-1-.86h0a1,1,0,0,0-1,.88l-.66,5.43,0,.27L44.65,8a1,1,0,0,0-1.92.38,61,61,0,0,0,.67,6.37,18.21,18.21,0,0,0,1.66,5.93,10.94,10.94,0,0,0-3.17,1.25c-2.63,1.75-5.29,5.25-4.32,9.44a12.85,12.85,0,0,0-.19,5.51,17,17,0,0,1,.16,3.48,15.56,15.56,0,0,0,.65,5.84c-.32,1.46-1.4,7.33.79,12.33-.26,1.17-.92,4.84.65,7.35-.21,1.63-.83,7.22-.07,9.65,1.2,3.84,2.73,8.5,3.94,10.46a25.08,25.08,0,0,1,1.39,2.67,17.9,17.9,0,0,0,1.53,2.82,10.42,10.42,0,0,1,1.25,3.67c.12.59.24,1.14.38,1.63.47,1.62,1.25,1.92,1.77,1.92H50c1.16-.15,1.66-1.54,1.77-5A13.81,13.81,0,0,1,53,90l.47-.62c1-1.33,2.44-3.16,2.27-5,0-.52-.14-1-.23-1.52-.2-1.11-.39-2.16,0-2.75A13.42,13.42,0,0,0,57,77.68h0A8.92,8.92,0,0,0,57.83,73a10,10,0,0,1,0-2.11h0a24.77,24.77,0,0,1,1.08-5,12.89,12.89,0,0,0,.1-4.74c0-.25,0-.44,0-.53V60.4c0-7.38.14-8.47.18-8.61s.12-.4.2-.66a14.21,14.21,0,0,0,.91-4.71l1.11-10c.1-.88.21-1.7.31-2.47C62.1,30.69,62.42,28.33,61.16,26.61ZM45.51,15.31l1.27,3.08a1,1,0,0,0,1.92-.25l.27-2,.14,1a1,1,0,0,0,1.83.41l1.51-2.3a46.61,46.61,0,0,0-.91,4.62,16.13,16.13,0,0,0-2.63.11c-.19,0-.88.1-1.78.26A13.15,13.15,0,0,1,45.51,15.31Zm8,67.9c.08.45.17.9.21,1.35.1,1.07-1.08,2.6-1.86,3.61-.19.25-.37.48-.51.68a15.92,15.92,0,0,0-1.6,4.53,1,1,0,0,0,0,.18c0,.56,0,1-.08,1.42l-.06-.27a11.85,11.85,0,0,0-1.57-4.41,16.14,16.14,0,0,1-1.35-2.52,27.16,27.16,0,0,0-1.5-2.87,40.58,40.58,0,0,1-2.65-6.62h4.52a1,1,0,1,0,0-2h-5a1,1,0,0,0-.19,0l-.45-1.43c-.52-1.66-.19-5.84.08-8.18l5.4.68h.13a1,1,0,0,0,.12-2l-5.91-.74c-1.06-1.83-.59-4.91-.29-6a1,1,0,0,0-.06-.69,14.47,14.47,0,0,1-1.24-5.13h5.9a1,1,0,0,0,0-2H39.66a23.16,23.16,0,0,1,.54-4.52,1,1,0,0,0-.06-.65,13,13,0,0,1-.61-5.32,18.29,18.29,0,0,0-.2-3.92,11,11,0,0,1,.22-4.79,1,1,0,0,0,0-.56c-1.16-4.32,3-7.22,3.43-7.53a6.8,6.8,0,0,1,1.63-.71,1,1,0,0,0,.23.16,13,13,0,0,0,4.69.85,12.18,12.18,0,0,0,5.31-1.19l0,0A8.09,8.09,0,0,1,58,25.42H54a1,1,0,0,0,0,2H59.3l.25.37c.78,1.07.51,3.1.13,5.9-.08.58-.16,1.21-.24,1.85-1.26.31-3.53.64-5-.11a1,1,0,1,0-.89,1.79,7.31,7.31,0,0,0,3.25.67,12.91,12.91,0,0,0,2.44-.25l-.89,8c-3.42.94-7.37,1.62-8.26,1.17a1,1,0,0,0-.91,1.78,4.58,4.58,0,0,0,2,.34,31.91,31.91,0,0,0,7-1.18,21.84,21.84,0,0,1-.73,2.79c-.09.29-.17.54-.22.73s-.28,1-.25,9.16v.23c0,.12,0,.38.06.73s.06.56.08.92l-3-.56a1,1,0,0,0-.37,2l3.38.64a3.83,3.83,0,0,1-.15.94,27.29,27.29,0,0,0-1.08,4.59H51.24a1,1,0,0,0,0,2h4.54a10.22,10.22,0,0,0,.07,1.36,6.47,6.47,0,0,1-.45,3.05H52.2a1,1,0,0,0,0,2h2.19c-.17.26-.32.49-.42.63C53,80.2,53.3,81.8,53.55,83.21Z"></path><path d="M42,32.33a28.3,28.3,0,0,0,3.81.29,10.53,10.53,0,0,0,2.86-.32,1,1,0,0,0-.57-1.92c-1.53.46-4.71.13-5.8,0a1,1,0,0,0-.3,2Z"></path><path d="M47.78,41.69a1,1,0,0,0-1.22-.15,35,35,0,0,1-5.64-.14,1,1,0,1,0-.17,2c1.94.16,3.32.22,4.31.22,2.2,0,2.51-.3,2.72-.51A1,1,0,0,0,47.78,41.69Z"></path><path d="M50.89,60.18a1,1,0,0,0,.34.06,1,1,0,0,0,.34-1.94c-2.27-.82-6.1-.12-6.53,0a1,1,0,0,0,.38,2C46.44,60,49.4,59.64,50.89,60.18Z"></path><path d="M52.71,81.37c-1-.58-3.31-.33-4.62-.13a1,1,0,1,0,.3,2,11.23,11.23,0,0,1,3.3-.13,1,1,0,1,0,1-1.71Z"></path></svg>