<svg height='100px' width='100px'  fill="#000000" xmlns="http://www.w3.org/2000/svg" xmlns:xlink="http://www.w3.org/1999/xlink" version="1.1" x="0px" y="0px" viewBox="0 0 100 100" enable-background="new 0 0 100 100" xml:space="preserve"><g display="none"><rect x="-68.5" y="35.5" display="inline" fill="#000000" stroke="#000000" stroke-miterlimit="10" width="95" height="95"></rect><rect x="-68.5" y="-86.5" display="inline" fill="#000000" stroke="#000000" stroke-miterlimit="10" width="95" height="95"></rect><rect x="53.5" y="35.5" display="inline" fill="#000000" stroke="#000000" stroke-miterlimit="10" width="95" height="95"></rect><rect x="53.5" y="-86.5" display="inline" fill="#000000" stroke="#000000" stroke-miterlimit="10" width="95" height="95"></rect></g><g><path fill="#000000" d="M79.005,17.689c-0.012-0.019-0.03-0.033-0.043-0.051c-0.063-0.092-0.135-0.178-0.216-0.257   c-0.023-0.022-0.044-0.047-0.068-0.068c-0.101-0.088-0.212-0.166-0.335-0.229c-0.032-0.017-0.067-0.026-0.1-0.041   c-0.065-0.028-0.127-0.06-0.197-0.08c-0.433-0.128-4.455-1.141-12.407,2.422c-0.022,0.01-0.04,0.024-0.061,0.035   c-0.537-0.068-1.08-0.112-1.631-0.112c-5.568,0-10.301,3.595-12.033,8.581c-0.026,0.018-0.055,0.03-0.081,0.05   c-2.39,1.836-4.885,3.921-7.418,6.193c-4.647,1.063-8.324,4.67-9.498,9.275c-2.617,2.799-4.989,5.594-7.06,8.32   c-4.525,1.958-7.702,6.465-7.702,11.702c0,0.256,0.028,0.506,0.043,0.759c-3.846,8.434-2.993,13.182-2.954,13.379   c0.004,0.021,0.017,0.036,0.021,0.056c0.038,0.164,0.095,0.321,0.179,0.467c0.007,0.012,0.009,0.026,0.016,0.037   c0.083,0.136,0.184,0.261,0.304,0.372c0.021,0.019,0.046,0.036,0.067,0.055c0.001,0.001,0.003,0.002,0.005,0.004   c3.31,2.99,8.494,4.707,14.246,4.707c11.044,0,23.231-6.104,34.314-17.188C92.079,40.397,80.419,19.938,79.005,17.689z    M74.595,20.216c-0.468,0.688-1.081,1.548-1.878,2.606c-0.676-0.644-1.412-1.208-2.2-1.684   C72.207,20.594,73.564,20.332,74.595,20.216z M63.947,22.71c2.541,0,4.921,1.014,6.673,2.807   c-2.65,3.309-6.552,7.876-12.251,14.022c-2.34-1.752-3.767-4.531-3.767-7.483C54.602,26.902,58.794,22.71,63.947,22.71z    M51.476,34.535c-0.58-0.205-1.177-0.367-1.787-0.486c0.523-0.443,1.042-0.873,1.559-1.296   C51.282,33.356,51.358,33.95,51.476,34.535z M47.255,37.204c3.587,0,6.839,2.072,8.393,5.242c-2.067,2.191-4.327,4.549-6.824,7.107   c-1.935,1.982-3.745,3.801-5.457,5.494c-3.3-1.507-5.458-4.802-5.458-8.497C37.91,41.397,42.102,37.204,47.255,37.204z    M35.285,50.913c-0.735-0.14-1.488-0.217-2.252-0.225c0.54-0.651,1.096-1.304,1.667-1.96   C34.829,49.479,35.028,50.208,35.285,50.913z M32.901,54.084c3.006,0,5.796,1.439,7.543,3.825   c-6.042,5.843-10.554,9.766-13.858,12.394c-1.929-1.769-3.031-4.229-3.031-6.871C23.556,58.277,27.748,54.084,32.901,54.084z    M23.849,72.395c-1.371,0.999-2.434,1.693-3.229,2.168c0.127-1.219,0.435-2.896,1.121-5.003   C22.306,70.588,23.006,71.546,23.849,72.395z M63.994,63.676c-14.088,14.088-26.04,16.192-31.91,16.192   c-3.796,0-7.256-0.83-9.876-2.325c3.983-2.348,12.5-8.66,29.049-25.614c2.779-2.847,5.279-5.459,7.537-7.862   c0.026-0.023,0.046-0.05,0.07-0.075c11.209-11.933,16.313-18.578,18.572-21.908C80.024,28.247,83.553,44.116,63.994,63.676z    M47.519,61.62c0.07,0.142,1.696,3.541,0.316,8.733c-0.161,0.604-0.707,1.003-1.304,1.003c-0.115,0-0.231-0.015-0.348-0.045   c-0.721-0.191-1.149-0.931-0.958-1.651c1.104-4.157-0.083-6.75-0.135-6.858c-0.316-0.67-0.035-1.476,0.633-1.797   C46.391,60.684,47.192,60.955,47.519,61.62z M62.264,45.982c0.079,0.175,1.906,4.35,0.646,9.023   c-0.163,0.602-0.708,0.999-1.303,0.999c-0.117,0-0.235-0.015-0.353-0.047c-0.72-0.194-1.146-0.935-0.952-1.655   c1.003-3.722-0.49-7.188-0.505-7.222c-0.3-0.681,0.007-1.478,0.688-1.78C61.166,45,61.96,45.303,62.264,45.982z M27.077,65.857   c-0.579,0-1.115-0.376-1.292-0.959c-0.189-0.625-0.285-1.274-0.285-1.93c0-2.366,1.277-4.572,3.334-5.754   c0.648-0.372,1.472-0.148,1.843,0.498c0.372,0.646,0.149,1.472-0.498,1.843c-1.221,0.702-1.979,2.01-1.979,3.415   c0,0.391,0.056,0.775,0.168,1.146c0.216,0.713-0.187,1.467-0.9,1.684C27.339,65.838,27.207,65.857,27.077,65.857z M39.939,46.146   c0-2.366,1.277-4.571,3.333-5.754c0.649-0.37,1.472-0.148,1.844,0.497c0.372,0.646,0.149,1.472-0.497,1.844   c-1.222,0.702-1.98,2.011-1.98,3.415c0,0.39,0.057,0.774,0.169,1.146c0.216,0.713-0.187,1.467-0.9,1.684   c-0.13,0.04-0.262,0.059-0.392,0.059c-0.579,0-1.115-0.376-1.292-0.959C40.034,47.45,39.938,46.801,39.939,46.146z M58.053,34.7   c-0.58,0-1.115-0.376-1.292-0.959c-0.19-0.627-0.286-1.276-0.285-1.931c0-2.369,1.278-4.574,3.335-5.754   c0.648-0.372,1.472-0.147,1.843,0.499c0.371,0.646,0.147,1.472-0.499,1.843c-1.221,0.701-1.979,2.009-1.979,3.414   c0,0.389,0.057,0.775,0.169,1.147c0.216,0.714-0.188,1.467-0.901,1.683C58.314,34.681,58.183,34.7,58.053,34.7z"></path></g></svg>