<svg height='100px' width='100px'  fill="#000000" xmlns="http://www.w3.org/2000/svg" xmlns:xlink="http://www.w3.org/1999/xlink" version="1.1" x="0px" y="0px" viewBox="0 0 100 100" enable-background="new 0 0 100 100" xml:space="preserve"><path d="M73.947,55.274c0-1.782-0.443-3.442-1.199-4.863c0.643-1.337,1.016-2.867,1.016-4.498c0-4.598-2.901-8.425-6.715-9.222  c-0.832-1.75-2.14-3.155-3.719-4.009c1.123-1.214,2.497-1.975,3.467-2.504c1.042-0.569,2.026-1.106,1.971-2.272  c-0.02-0.408-0.207-1.159-1.247-1.604c-3.051-1.301-6.852-0.837-10.335,1.136c0.369-1.428,1.062-2.628,1.563-3.497  c0.596-1.029,1.109-1.919,0.563-2.864c-0.147-0.256-0.596-0.852-1.562-0.852c-0.115,0-0.248,0.009-0.4,0.031  c-2.833,0.41-5.419,2.167-7.349,4.929c-1.932-2.762-4.518-4.518-7.347-4.929c-0.152-0.022-0.285-0.031-0.4-0.031  c-0.966,0-1.414,0.596-1.562,0.852c-0.545,0.944-0.032,1.834,0.562,2.863c0.501,0.869,1.195,2.07,1.563,3.498  c-3.484-1.974-7.281-2.437-10.336-1.136c-1.039,0.444-1.227,1.195-1.247,1.604c-0.056,1.166,0.884,1.679,1.971,2.272  c0.97,0.529,2.345,1.29,3.468,2.504c-1.58,0.854-2.89,2.26-3.722,4.01c-3.812,0.8-6.713,4.626-6.713,9.221  c0,1.63,0.373,3.159,1.015,4.495c-0.756,1.421-1.2,3.083-1.2,4.866c0,3.741,1.928,6.963,4.7,8.464  c-0.002,0.08-0.015,0.157-0.015,0.237c0,5.171,3.67,9.377,8.182,9.377c1.115,0,2.177-0.257,3.145-0.722  c0.877,4.094,4.096,7.144,7.937,7.144c3.84,0,7.057-3.05,7.933-7.144c0.968,0.465,2.029,0.722,3.144,0.722  c4.516,0,8.189-4.206,8.189-9.377c0-0.081-0.013-0.159-0.015-0.239C72.022,62.233,73.947,59.013,73.947,55.274z M70.764,45.913  c0,0.616-0.075,1.209-0.209,1.771c-1.068-0.889-2.328-1.486-3.696-1.697c0.745-1.41,1.183-3.057,1.183-4.822  c0-0.294-0.016-0.583-0.038-0.87C69.641,41.366,70.764,43.475,70.764,45.913z M40.568,57.501c-2.86,0-5.188-2.861-5.188-6.379  c0-3.519,2.327-6.381,5.188-6.381c0.438,0,0.86,0.082,1.267,0.209c0.134,3.135,1.612,5.866,3.792,7.453  c-1.514,1.103-2.688,2.757-3.312,4.717C41.769,57.362,41.182,57.501,40.568,57.501z M55.186,44.489c0,3.518-2.325,6.379-5.184,6.379  c-2.86,0-5.188-2.861-5.188-6.379c0-3.52,2.327-6.383,5.188-6.383C52.86,38.106,55.186,40.97,55.186,44.489z M44.814,60.321  c0-3.52,2.327-6.383,5.188-6.383c2.858,0,5.184,2.863,5.184,6.383c0,3.516-2.325,6.375-5.184,6.375  C47.142,66.696,44.814,63.837,44.814,60.321z M57.685,57.119c-0.624-1.96-1.797-3.613-3.311-4.716  c2.18-1.587,3.657-4.317,3.791-7.452c0.408-0.128,0.831-0.21,1.271-0.21c2.858,0,5.184,2.862,5.184,6.381  c0,3.518-2.325,6.379-5.184,6.379C58.82,57.501,58.232,57.361,57.685,57.119z M64.552,43.812c-1.402-1.292-3.181-2.07-5.116-2.07  c-0.537,0-1.062,0.062-1.569,0.179c-0.416-1.67-1.225-3.146-2.305-4.297c0.932-1.706,2.503-2.839,4.296-2.839  c2.858,0,5.184,2.862,5.184,6.381C65.041,42.113,64.855,43.002,64.552,43.812z M39.812,31.798c-1.022-1.473-2.305-2.503-3.447-3.245  c2.333,0.04,5.05,1.206,7.296,3.135c0.453,0.39,1.093,0.427,1.632,0.164c0.538-0.262,0.867-0.864,0.839-1.462  c-0.024-0.535-0.049-1.079-0.081-1.624c-0.106-1.791-0.666-3.34-1.254-4.568c2.062,1.305,3.321,3.509,3.853,4.611  c0.25,0.519,0.775,0.849,1.351,0.849c0,0,0,0,0.001,0c0.575-0.001,1.101-0.331,1.351-0.85c0.532-1.105,1.795-3.32,3.858-4.624  c-0.592,1.231-1.155,2.786-1.263,4.588l-0.082,1.705c-0.029,0.599,0.301,1.157,0.839,1.421c0.538,0.262,1.183,0.182,1.637-0.21  c2.244-1.929,4.96-3.094,7.294-3.135c-1.142,0.742-2.424,1.772-3.444,3.244c-0.002,0.002-0.003,0.004-0.005,0.006  c-0.11-0.005-0.219-0.019-0.33-0.019c-2.781,0-5.228,1.609-6.707,4.046c-0.97-0.465-2.033-0.724-3.148-0.724  c-1.117,0-2.181,0.259-3.151,0.725c-1.478-2.438-3.923-4.047-6.702-4.047c-0.112,0-0.221,0.014-0.333,0.02  C39.814,31.802,39.813,31.8,39.812,31.798z M40.148,34.784c1.791,0,3.361,1.134,4.292,2.839c-1.081,1.151-1.89,2.627-2.306,4.296  c-0.507-0.115-1.03-0.178-1.566-0.178c-1.937,0-3.716,0.778-5.12,2.071c-0.304-0.81-0.49-1.699-0.49-2.647  C34.959,37.646,37.287,34.784,40.148,34.784z M31.997,40.298c-0.023,0.286-0.038,0.574-0.038,0.867c0,1.766,0.438,3.412,1.184,4.822  c-1.368,0.211-2.627,0.809-3.695,1.696c-0.134-0.562-0.209-1.155-0.209-1.771C29.238,43.477,30.36,41.371,31.997,40.298z   M31.325,60.53c-1.368-1.148-2.272-3.069-2.272-5.256c0-2.788,1.463-5.158,3.492-6.023c-0.107,0.605-0.164,1.23-0.164,1.871  c0,2.034,0.574,3.913,1.539,5.452C32.771,57.597,31.87,58.958,31.325,60.53z M33.738,63.976c0-2.128,0.858-4,2.162-5.158  c1.326,1.059,2.933,1.684,4.668,1.684c0.426,0,0.841-0.045,1.249-0.119c0.013,2.266,0.73,4.342,1.915,5.957  c-0.766,2.349-2.631,4.014-4.812,4.014C36.063,70.353,33.738,67.492,33.738,63.976z M50.002,76.774  c-2.844,0-5.159-2.829-5.185-6.318c0.482-0.576,0.901-1.221,1.244-1.922c1.17,0.739,2.513,1.162,3.941,1.162  c1.429,0,2.771-0.424,3.941-1.164c0.342,0.701,0.76,1.344,1.24,1.92C55.159,73.943,52.846,76.774,50.002,76.774z M61.078,70.353  c-2.179,0-4.043-1.667-4.807-4.017c1.182-1.615,1.898-3.69,1.911-5.954c0.409,0.074,0.826,0.119,1.253,0.119  c1.734,0,3.341-0.626,4.666-1.685c1.307,1.159,2.166,3.031,2.166,5.159C66.268,67.492,63.939,70.353,61.078,70.353z M68.68,60.526  c-0.546-1.57-1.447-2.933-2.597-3.954c0.963-1.538,1.536-3.417,1.536-5.45c0-0.641-0.057-1.266-0.164-1.871  c2.029,0.865,3.492,3.235,3.492,6.023C70.947,57.459,70.044,59.378,68.68,60.526z"></path></svg>