<svg height='100px' width='100px'  fill="#000000" xmlns:dc="http://purl.org/dc/elements/1.1/" xmlns:cc="http://creativecommons.org/ns#" xmlns:rdf="http://www.w3.org/1999/02/22-rdf-syntax-ns#" xmlns:svg="http://www.w3.org/2000/svg" xmlns="http://www.w3.org/2000/svg" xmlns:sodipodi="http://sodipodi.sourceforge.net/DTD/sodipodi-0.dtd" xmlns:inkscape="http://www.inkscape.org/namespaces/inkscape" viewBox="0 0 12.7 12.7" version="1.1" x="0px" y="0px"><g transform="translate(0,-284.29998)"><path style="" d="m 4.4488207,284.82992 a 1.0470555,1.0470555 0 0 0 -1.0062512,1.01224 0.51178998,0.51178998 0 0 0 0.00945,0.10621 2.9332279,2.9332279 0 0 1 0.039904,0.70807 0.41085294,0.41085294 0 0 1 -0.2867308,0.3645 1.4470834,1.4470834 0 0 0 -0.4348065,2.53658 0.10330525,0.10330525 0 0 1 -0.0349,0.182 0.93791926,0.93791926 0 0 0 -0.6173226,1.25756 2.8829243,2.8829243 0 0 0 1.6799191,1.49742 0.25707914,0.25707914 0 0 1 0.1401103,0.37198 h -0.00255 a 1.0387927,1.0387927 0 0 0 -0.073297,0.88708 1.6540606,1.6540606 0 0 0 0.9224862,0.88957 4.4281386,4.4281386 0 0 0 1.0321899,0.23187 0.71840058,0.71840058 0 0 1 0.5788995,0.41237 2.0443834,2.0443834 0 0 0 2.5764665,1.05163 0.81933769,0.81933769 0 0 0 0.5185969,-0.63127 6.5732212,6.5732212 0 0 1 0.782861,-2.18753 1.9479262,1.9479262 0 0 0 -0.7454591,-2.91704 0.10330525,0.10330525 0 0 1 -0.044397,-0.1461 2.6090541,2.6090541 0 0 0 0.2807567,-2.00602 0.81933769,0.81933769 0 0 0 -0.3311024,-0.46723 1.5052282,1.5052282 0 0 0 -0.4517586,-0.20843 0.10330525,0.10330525 0 0 1 -0.068319,-0.0588 2.3929147,2.3929147 0 0 1 -0.1924729,-0.84768 0.81933769,0.81933769 0 0 0 -0.72552,-0.78087 1.6669157,1.6669157 0 0 0 -0.720031,0.0763 0.41085294,0.41085294 0 0 1 -0.4961557,-0.20045 1.0724898,1.0724898 0 0 1 -0.1106994,-0.34955 0.51178998,0.51178998 0 0 0 -0.5455059,-0.44179 3.7104036,3.7104036 0 0 1 -0.7729042,-0.0229 0.41085294,0.41085294 0 0 1 -0.2034254,-0.0878 1.0470555,1.0470555 0 0 0 -0.698611,-0.23187 z m 0.00536,0.20395 a 0.84281316,0.84281316 0 0 1 0.5629686,0.18699 0.61509532,0.61509532 0 0 0 0.3046786,0.13114 3.914646,3.914646 0 0 0 0.8152589,0.0239 0.30754763,0.30754763 0 0 1 0.3276048,0.26577 1.2767322,1.2767322 0 0 0 0.1316342,0.41637 0.61509532,0.61509532 0 0 0 0.7424721,0.30018 1.4626734,1.4626734 0 0 1 0.6317983,-0.0673 0.61509532,0.61509532 0 0 1 0.5449952,0.5864 2.597157,2.597157 0 0 0 0.2094251,0.91999 0.30754763,0.30754763 0 0 0 0.2009489,0.17552 1.3009858,1.3009858 0 0 1 0.3914305,0.17951 0.61509532,0.61509532 0 0 1 0.2483332,0.35104 2.4048119,2.4048119 0 0 1 -0.2592857,1.84895 0.30754763,0.30754763 0 0 0 0.1336256,0.43631 1.7436839,1.7436839 0 0 1 0.661695,2.61985 6.7774634,6.7774634 0 0 0 -0.8132684,2.26581 0.61509532,0.61509532 0 0 1 -0.3694999,0.46573 30.549451,30.549451 0 0 0 -3.647054,-9.02735 0.03075475,0.03075475 0 0 0 -0.053333,0.0294 56.07046,56.07046 0 0 1 3.5577745,9.0473 h 0.00408 a 1.840141,1.840141 0 0 1 -2.1964991,-0.9883 0.92264293,0.92264293 0 0 0 -0.7439529,-0.52906 4.2238962,4.2238962 0 0 1 -0.9813336,-0.2204 1.4498182,1.4498182 0 0 1 -0.8037958,-0.77438 0.8345503,0.8345503 0 0 1 0.059818,-0.70857 0.46132151,0.46132151 0 0 0 -0.2508097,-0.66768 2.6786819,2.6786819 0 0 1 -1.5582417,-1.38621 0.73367688,0.73367688 0 0 1 0.4851778,-0.97833 0.30754763,0.30754763 0 0 0 0.1017127,-0.54202 1.2428409,1.2428409 0 0 1 0.3744784,-2.17855 0.61509532,0.61509532 0 0 0 0.4288324,-0.54601 3.1374703,3.1374703 0 0 0 -0.041385,-0.75694 0.30754763,0.30754763 0 0 1 -0.00996,-0.0638 0.84281316,0.84281316 0 0 1 0.8097955,-0.81528 z" fill="#000000" stroke="none"></path><path style="" d="m 2.8213141,288.57316 a 0.03079807,0.03079807 0 0 1 0.051141,-0.0341 2.7938232,2.7938232 0 0 0 2.6756395,1.01897 0.03075475,0.03075475 0 0 1 0.015439,0.0593 2.2810561,2.2810561 0 0 1 -2.7425088,-1.04427 z" fill="#000000" stroke="none"></path><path style="" d="m 6.7047498,291.66584 a 3.7003986,3.7003986 0 0 1 -3.7341619,-0.67726 0.03075475,0.03075475 0 0 0 -0.044386,0.0418 2.8641447,2.8641447 0 0 0 3.8057593,0.6903 0.03075475,0.03075475 0 0 0 -0.027018,-0.0548 z" fill="#000000" stroke="none"></path><path style="" d="m 6.5500724,288.45131 a 0.03075475,0.03075475 0 0 0 0.021228,0.057 1.7300841,1.7300841 0 0 0 1.3279293,-1.68217 0.03075475,0.03075475 0 0 0 -0.059825,-0.008 2.5940244,2.5940244 0 0 1 -1.2894288,1.63292 z" fill="#000000" stroke="none"></path><path style="" d="m 8.9885334,288.60647 a 2.349916,2.349916 0 0 1 -1.6535913,1.55216 0.03075475,0.03075475 0 0 0 0.00965,0.0605 1.665724,1.665724 0 0 0 1.7069517,-1.60205 0.03075475,0.03075475 0 0 0 -0.059825,-0.0106 z" fill="#000000" stroke="none"></path><path style="" d="m 7.3747935,293.71339 a 0.03075475,0.03075475 0 0 1 0.036667,0.0491 1.8138398,1.8138398 0 0 1 -2.7445352,-0.32238 0.03075475,0.03075475 0 0 1 0.046316,-0.0394 2.2344277,2.2344277 0 0 0 2.6614552,0.31262 z" fill="#000000" stroke="none"></path><path style="" d="m 9.6525946,291.65572 a 1.8009399,1.8009399 0 0 1 -1.2780427,1.09951 0.03078052,0.03078052 0 0 0 0.00965,0.0608 1.3222772,1.3222772 0 0 0 1.3300522,-1.14492 0.03075475,0.03075475 0 0 0 -0.05886,-0.0154 z" fill="#000000" stroke="none"></path></g></svg>