<svg height='100px' width='100px'  fill="#000000" xmlns="http://www.w3.org/2000/svg" data-name="Layer 1" viewBox="0 0 100 100" x="0px" y="0px"><defs><style>.cls-1{fill:none;stroke:#000000;stroke-miterlimit:10;stroke-width:2px;}</style></defs><title>Leek</title><path class="cls-1" d="M29.34,89.52a3.19,3.19,0,0,0,2.53.91c1.82,0,10.82-2.73,10.82-12.13s1.21-12.53,3.23-16.58S57.44,40.39,57.44,40.39,70.89,14.72,73,8.35a21.06,21.06,0,0,0-2.73-1S58,33.42,55.52,38.27,47.33,51,46,53s-6.77,12.74-9.6,15.16-8.9,5.05-9.5,14.55C26.92,82.74,27.22,87.6,29.34,89.52Z"></path><polyline class="cls-1" points="63.8 28.01 75.84 16.64 77.15 18.36 58.76 37.86"></polyline><polyline class="cls-1" points="72.6 10.88 74.73 11.79 67.46 24.55"></polyline><path class="cls-1" d="M52,43.83a94.51,94.51,0,0,1,3.23-18C57.75,17.65,63.51,6,63.51,6L60.27,4.92s-15,40.71-15,49.36"></path><polyline class="cls-1" points="53.09 35.07 67.05 4.92 70.58 6.03 61.44 26.07"></polyline><path d="M29.81,89.35a15.26,15.26,0,0,0,2.88-2.5,22.47,22.47,0,0,0,2.41-3.15,24.93,24.93,0,0,0,1.84-3.57,29.55,29.55,0,0,0,1.3-3.85,29.82,29.82,0,0,1-.83,4A25.68,25.68,0,0,1,36,84.18a23.72,23.72,0,0,1-2.12,3.62A16.7,16.7,0,0,1,30.93,91Z"></path><path d="M28.35,89.66a26.38,26.38,0,0,1,0-3.06,27.93,27.93,0,0,1,.36-3A15,15,0,0,1,30.81,78a14.54,14.54,0,0,0-1.07,5.68,26.68,26.68,0,0,0,.15,2.88,24.82,24.82,0,0,0,.45,2.8Z"></path><path d="M29,90.28a16,16,0,0,1,.49-3.76A26.55,26.55,0,0,1,30.56,83a31.37,31.37,0,0,1,1.52-3.26c.56-1.05,1.19-2.07,1.84-3.05-.51,1.07-1,2.15-1.38,3.26a30.63,30.63,0,0,0-1,3.36,25.3,25.3,0,0,0-.57,3.42,14.68,14.68,0,0,0,0,3.3Z"></path></svg>