<svg height='100px' width='100px'  fill="#000000" xmlns="http://www.w3.org/2000/svg" xmlns:xlink="http://www.w3.org/1999/xlink" version="1.1" x="0px" y="0px" viewBox="0 0 88.08 88.08" enable-background="new 0 0 88.08 88.08" xml:space="preserve"><path fill-rule="evenodd" clip-rule="evenodd" d="M81.122,39.496c-7.026,7.18-19.488,6.496-31.288,7.521  c0.171,6.481,1.077,12.128,0.902,20.76c-0.038,1.868,0.103,4.48-0.301,6.017c-1.108,4.215-6.225,8.249-9.628,9.324  c-4.787,1.515-11.78,0.559-12.333-5.414c-0.437-4.706,3.999-10.402,5.415-14.441c1.838-5.253,3.099-9.651,4.211-15.344  C25.767,47.412,4.492,48.721,8.016,31.072C10.16,20.339,20.782,12.409,29.377,7.004C35.285,3.29,41.674,0.1,50.736,3.094  c1.087,0.359,2.461,1.267,3.61,1.806c5.628,2.639,9.643,5.719,14.14,10.228C74.694,21.353,81.879,27.417,81.122,39.496z   M37.198,5.199c0.165,5.139,10.998,4.491,9.626-0.601C43.688,3.519,40.54,4.387,37.198,5.199z M48.931,5.802  c-1.188,4.48-7.193,5.584-12.033,3.911c-0.896-0.909-1.188-2.423-2.106-3.31c-3.664,1.25-7.542,2.285-9.326,5.416  c3.581,6.527-3.313,16.123-11.432,15.644c-1.641-1.146-1.5-1.635-2.407-2.708c-3.045,6.374-2.822,14.199,3.009,17.148  c2.06,1.042,6.159,1.585,9.627,2.406c5.626,1.333,10.576,1.964,14.44,0.603c-0.07-1.475,0.53-2.278,0.301-3.912  c-1.971-0.435-5.781,0.968-6.317-0.902c1.768-0.526,4.154-0.175,6.919-0.302c0.206-2.561,0.052-3.629,0-6.317  c-4.691-0.279-3.479,5.345-7.221,6.016c1.471-1.739,2.813-3.605,3.611-6.016c-6.767-1.085-9.301,3.679-13.538,6.016  c2.633,0.276,6.519-0.702,7.822,0.903c-5.694-0.669-12.891,1.752-15.043-2.106c5.047-6.758,20.267-6.618,33.694-6.618  c6.642,0,13.19-0.605,18.653,0.903c3.408,0.939,9.428,3.069,6.618,6.618c-1.08-0.11-1.103-0.808-2.106-0.301  C65.808,41.368,57.751,42.339,51.037,41c0.043,0.846-0.737,0.868-1.505,0.903c-0.235,1.239,0.462,1.544,0.302,2.707  c8.354-1.609,23.847,0.179,28.58-4.512c1.888-1.872,0.325-7.683-0.902-10.53c-1.395-3.229-4.49-5.588-6.019-8.123  c-7.175,4.042-17.768-4.391-13.537-10.831C55.301,8.731,53.169,5.15,48.931,5.802z M59.762,10.916  c-0.448,0.354-0.85,0.755-1.203,1.203c1.573,4.852,5.688,8.742,11.432,8.424C67.7,17.417,63.735,13.36,59.762,10.916z   M25.164,15.429c-0.433-0.168-0.733-0.469-0.902-0.903c-5.286,1.231-8.979,4.059-10.529,9.026  C18.483,28.913,24.513,20.805,25.164,15.429z M49.834,40.699c6.584-1.168,16.654,0.802,22.864-3.61  c-2.587-1.928-7.085-3.543-10.831-3.309c0.895,2.213,3.024,3.192,4.514,4.813c-0.235,0.066-0.351,0.251-0.302,0.602  c-3.782-0.43-4.657-3.768-6.618-6.018c-2.488,0.357-4.976-1.022-6.619,0.302c-0.363,3.473,1.992,4.224,2.708,6.619  c-2.619-0.891-3.928-3.093-3.61-6.92c-1.134-0.63-2.434,0.073-3.309-0.3C48.754,35.909,48.974,39.25,49.834,40.699z M41.711,39.195  c-1.188,11.26-3.438,18.252-7.221,27.376c-1.23,2.968-3.908,6.637-3.309,9.929c1.481,8.148,15.029,3.58,17.148-1.204  c1.179-2.664,0.057-4.753,0-6.618c-0.039-1.241,0.319-2.762,0.301-4.212c-0.156-11.074-0.911-23.487-1.807-30.084  c-0.017-0.184-0.045-0.355-0.301-0.301C44.983,35.849,43.251,37.426,41.711,39.195z M17.042,37.691  c3.526,3.417,9.087-0.646,9.928-3.309C23.303,35.128,19.268,35.505,17.042,37.691z"></path><path fill-rule="evenodd" clip-rule="evenodd" d="M50.436,19.34c2.82,9.484-14.302,10.882-14.141,3.008  C36.435,15.569,46.94,12.747,50.436,19.34z M38.401,22.348c0.646,4.29,9.596,4.667,10.229,0.301  c0.597-4.128-4.344-5.757-7.222-5.114C39.18,18.717,38.138,20.599,38.401,22.348z"></path><path fill-rule="evenodd" clip-rule="evenodd" d="M34.49,71.386c0.227,0.737-0.337,3.265-0.902,4.211  C32.204,74.802,33.771,72.053,34.49,71.386z"></path><path fill-rule="evenodd" clip-rule="evenodd" d="M35.694,74.695c1.125,0.779-1.351,2.479-2.407,3.009  C33.386,75.997,34.878,75.685,35.694,74.695z"></path><path fill-rule="evenodd" clip-rule="evenodd" d="M37.198,76.5c-0.424,1.08-1.01,1.998-2.407,2.105  C35.078,77.389,36.19,76.996,37.198,76.5z"></path></svg>