<svg height='100px' width='100px'  fill="#000000" xmlns="http://www.w3.org/2000/svg" xmlns:xlink="http://www.w3.org/1999/xlink" version="1.1" x="0px" y="0px" viewBox="0 0 100 100" style="enable-background:new 0 0 100 100;" xml:space="preserve"><g><path d="M26.2,57.7c1.3,5.3,7.1,9.9,11.4,12.5c1.1,0.7,2.2,1.4,3.4,2c1.1,0.5,3.4,1.6,3.4,1.7c0,3.9,0.1,7.7,0.4,11.6   c0.2,2.3,2.8,3.9,5,2.6c1.6-1,1.2-3.1,1.5-4.8c0.3-1.5,0.8-3.7,0.9-5.8c0.2-0.2,0.3-0.5,0.3-0.8c0-0.1-0.1-0.3-0.2-0.4l0.1,0.1   c0,0,0-0.1,0-0.1c4.8,0.2,10-1.5,13.3-4.7c2-1.9,4-4.7,4.5-7.4c0.1-0.7,0.5-1.7,0.4-2.4c-0.1-0.7-1.3-1.7-1.2-1.8   c1.5-1.3,4.6-3.5,4.1-5.9c-0.3-1.4-1.7-1.8-2.9-2.3c-0.4-0.2-1.5-0.2-1.4-0.3c0.2-0.3,5.2-5.2,4.7-6.8c-0.6-2-5-0.7-6-0.6   c-0.5,0.1-1.6,0.1-1.5,0c2.2-2.5,4.2-7.9,3.2-11.3c-0.2-0.7-1.2-1.5-1.9-1.4c-0.4,0.1-1.1,0.7-1.1,0.6c-0.1-1.7,0.3-6.2-0.9-8.2   c-0.5-0.8-1.4-1.1-2.3-0.8c-0.7,0.3-1.8,1.2-1.8,1c-0.1-1.2,0.7-6.3-1.5-7c-1.8-0.6-5.1,2.8-5.1,2.7c-0.5-1.9-1-3.8-1.5-5.7   c-0.3-1-0.7-2.4-1.5-2.7c0,0,0,0,0,0c-0.4-0.2-0.9-0.2-1.5,0.2c-2,1.1-3,3.7-4,5.6c-0.5,1-1.4,3.1-1.5,3c-1.1-1.1-3.4-4.2-4.8-1.8   c-0.8,1.3-1,3.4-1.1,4.9c-0.1,0.9,0.2,2.9,0.1,2.7c-1.4-1.1-3.6-2.7-4.7-0.3c-0.4,0.9-0.3,2.5-0.3,3.6c0,1.5,0.1,4.4,0,4.2   c-0.9-0.9-2.9-3.4-4.2-1.5c-1.6,2.3,0.5,5.6,0.9,8.4c0.1,0.8,0.7,2.2,0.6,2.2c-1-0.6-2.5-0.7-3,0.7c-0.7,1.8,1.4,7.1,1.6,7.7   c0.1,0.4,0.2,0.8,0.4,1.2c0.6,1.1,1.1,2.2,1.9,3.1c0.4,0.5,1.2,1.5,1.1,1.5C31.6,56.8,25.3,54.1,26.2,57.7z M37.7,57.7   c-0.4-2.4-3.7-4.7-5-6.9c-0.8-1.4-1-4.6-0.9-4.5c0.8,0.6,2.8,0.7,3.4-0.3c0.9-1.3-1-3.6-1.2-4.9c-0.3-1.5-0.9-4.5-0.7-4.4   c1.1,0.5,4.1,2.5,5,0.4c0.6-1.3-0.9-2.8-1.2-3.9c-0.4-1.5-0.1-4.5,0-4.4c1.1,0.7,4,3.5,5.2,1.4c0.9-1.4-0.6-4.2-0.6-5.6   c0-0.9,0.5-2.6,0.6-2.4c0.9,0.9,2.7,2.7,4.1,1.8c1.1-0.7,1.9-4.2,2.6-5.3c0.5-1,1.8-2.8,1.8-2.6c0.4,1.4,1.1,6.9,2.8,7.7   c1.7,0.7,4.9-2.7,5-2.6c0.1,1.8-0.7,5.9,0.7,7.1c1.1,0.9,3.9-1.4,3.9-1.2c0.3,2.4-0.2,6.8,0.4,8.7c0.3,0.8,2.6,0.8,2.5,0.9   c-0.2,2-0.5,3.5-1.6,5.2c-0.7,1.2-3.1,2.8-2.8,4.5c0.3,2.1,4.1,1.2,5.3,1.1c0.7-0.1,1.9-0.3,1.9-0.2c-1.3,1.5-5,4.8-4.3,6.8   c0.4,1.2,2.3,0.9,3.3,1c0.8,0.1,2.2,0.2,2.2,0.3c-1.4,2.1-4.3,4-6,5.4c-0.2,0.2-0.7,0.6-0.8,0.7c-1,0.5-5,0.9-3.6,3.1   c0.7,1.1,3,0.9,4,0.5c0.5-0.3,1.5-0.9,1.7-1c0.6-0.2,1.9-0.6,1.9-0.4c-0.7,3.8-6.2,9.4-10.5,9.4c-1.8,0-3.7,0-5.5,0   c-0.2-0.1-0.4-0.2-0.6-0.2c0.2-3,0.1-6,0.1-7.1c0.1-1.9-0.4-5.6,0.9-7.1c0.4-0.4,0.9-0.7,1.3-1c1.7-1.1,3.7-2.2,5.1-3.6   c1.1-1.1,0.5-1.7-0.9-2.5c0,0-0.1-0.1-0.1-0.1c-0.7-0.7-3.3,0.6-5.3,2c0.7-0.5,0.5-5.6,0.5-6.5c0.2-3.9,0.4-8,0.4-11.9   c0-1.5,1-9.3-1.9-8.7c-1.3,0.2-1.7,2.1-1.8,3.2c-0.2,1.8,0.1,3.6,0,5.4c-0.1,1,0.1,2,0,2.9c-0.3,2.5-1.9,0.1-3.2,0.7   c-2.9,1.2,1.8,4.1,2.8,4.6c-0.2,4.4-0.5,8.7-0.7,13.1c0,0.8-0.1,1.6-0.1,2.3c-1.2-0.8-2.5-1.5-3.8-2.3C43.8,56,43.6,56,43.4,56   l0.1,0c0,0,0,0-0.1,0c-0.3,0-0.6,0-0.8,0.1c-1,0.2-2.4,0.2-2.6,1.4c-0.2,1.6,1.6,2,2.7,2.2c0.9,0.2,1.6,0.7,2.4,1.1   c0.5,0.2,1.8,0.6,2.1,0.9c0.8,0.9,0,4-0.2,5.2c-0.2,1.6,0,4.5-0.1,5.2c-0.3-0.3-0.6-0.5-0.6-0.5c-3.1-2.2-7.5-3.1-10.3-5.8   c-1.1-1.1-2.2-2-3-3.2c-0.6-0.9-1.9-2.7-1.7-2.7C32.8,59.9,38.3,60.7,37.7,57.7z"></path></g></svg>