<svg height="100" width="100" xmlns="http://www.w3.org/2000/svg" viewBox="0 0 200 200"><style></style><path d="M127.5 28.3c11.6-4.6 28-2.4 35.7 4.6 5.6 5 8.9 13.3 13.2 18.7 2.2 2.7 6.6 17.1 6.7 18.2s.5 10.5-1.3 15c-2 5-4.6 10.5-6.2 15.3-1.2 3.8-1.5 19.9-3.6 20.5-2.1.5-18.6 5-24 2.7-1.9-.8-3.5-4.1-5.7-5.2-4.7-2.4-6.8-2.7-11.4-4.3-.9-.3-1.6-.5-5.6-1.8s-24.7-27.8-24.9-41.3c-.1-4.2 3-8.1 4.2-12.1 1-3.7.1-8.2 2.4-11.5 5.3-7.5 13.8-11.3 20.5-18.8zm36.9 12.4c-8.1.5-9.9 10.6-7.4 17.3-.1 0-.2.1-.3.1-2.2-2-7.8-6.1-9-7.9-.7-2.3-1.4-4.7-2-7-4.6-6.7-9.4-8.4-17-9.3 0-.1-.1-.2-.1-.3 0-.1.1-.2.1-.2.7-.5 1.4-.9 2.1-1.4 11.3-3.5 28.4-1.9 33.6 8.7zm-21.5 9.9c0 1 1.5 2.2 2.8 3.3 1.2 1 3.6 1.3 4.6 2.2 5.1 4.4 1.9 8.7 2.1 14.5.1 3.6 3.7 11.8 4 16.8.1 2.9 5.4 9.9 6.3 12.9-.2 2.1-.4 4.1-.6 6.2l1.5 10.8c-1.9.5-3.8 1.1-5.8 1.6-.9-3.4-3.3-4.4-4.8-6.3.5-5.1 4-7.5 4.3-12.9.5-10-15.8-13.1-19.5-5.8 0-.1 0-.1-.1-.2 0-.1-.1-.2-.1-.3.5-3.7 4.9-4.1 5.3-7.4.9-5.2-2.2-5.4-3.5-7.8-5.3-9.8 3.2-17.2 3.4-17.8.2-.6.2-1.7-1.2-1.7-2.8 0-8.6 4.7-7.4 18.3.1.8-5.1 1.5-5.5 1.9-6.5 1.1-3-8.4-3.1-9.8s-1.2-2.2-1.8-3.3c-.8-3.3.6-8.1 2-10.5 1.6-2.7 4.6-4.7 6.3-7.1.6-1 .6-2.6-.6-2.9-8.7.1-10.3 13.9-11.3 19.9-.2.1-.5.2-.7.3-2-1.1-3.9-2.7-5.2-4.8-1.4-2.2.8-5.1-1.9-6.6-1-.4-2-.2-3.2.6-.3 0-.6-.1-.8-.1 2-3.9 4.8-9.7 5.3-10.5s2.5-3.1 5.7-4.6c3.1-1.7 23.5-4.2 23.5 11.1zM50.1 68.3c30.7-9.7 51.2 16.8 54.3 44.3 1 2.1 2.1 4.1 3.1 6.2.4 3.6-.8 8.4-.6 13.2 2.1 5.8 6.4 12.6 6.2 17.4s-12 12.2-19.1 16.8c-2 1.3-1.9 4.9-4.5 4.9s-12.9-9-19.2-10.3c-6.8-1.4-14.4 3.1-21.2-.9-4.3-2.5-8.5-9.4-8.7-10.4-.2-1-.1-2-.1-2.9-2.8-1.5-5.6-2.9-8.4-4.4-5.6-3.9-9.7-9.5-12.9-14-7.2-10.1 5.6-34.8 11.4-41.9 2.3-1.3 4.6-2.7 6.8-4 2.4-2.6 4.2-8.3 5.3-9.2 1.1-1 5.1-3.2 7.6-4.8zm10.6 1.2c3.5 1 8.6.5 12.7 1.6C80.5 73 93.5 87.4 94.9 96l.2.2c-2-.2-3.1-2.5-4.8-3.5-13.4-7.3-14.4-18.3-34-13.8-.5.1-1.2.3-1 1.6.4 2 12.2-1.1 17.4 1.8 4.9 2.8 8.1 8.1 12.8 11.3.1.2.1.3.2.5 0 .1-.1.2-.1.2-5.6-.3-20.1 2.4-21.2.2-.4-.5-1.9.2-2.1 1.2-.7 3.2 4.2 4.7 7.1 3.5 9.2-3.7 27-2.6 29.5 8.1-.1 0-.1 0-.2.1-2.8-.8-7.6-2.6-8.5-2.5-.9 0-8.3 2.5-10.1 2.6-1.9.1-14.2-4.4-16.5 5.2-.2.1-.3.2-.5.4-2.9-8.8-5.9-5.4-13.3-7.3-7.1-5.5.4-18.8-8.8-22.3-.1-.2-.1-.3-.2-.5C43.7 77.9 50 72.5 51 72c.9-.5 7.8-3 9.7-2.5zm49.9-7.5c1.2 5 5.5 6.1 9.4 6.4 2.3 1.8-1.1 11.5 4.7 13.5 3.7 1.5 8.8-1.9 14 .3 1 .5 1 1.1.7 1.7-2.5 5.2-6.6 5.9-3.5 13.3.3.9 3.5 1.8 3.9.7 1-3.4 7.4-10.4 13.2-.4-1.1 4.2-1.6 7.5-3.5 11.7h-1c-.7.1-1.4 1.1-1.5 1.9-.1.9 7 6.9 7.3 7.8.3.9-1.6 1.5-2.1 1.2-.5-.2-18.2-12.9-16.2-20.1-.8-1.2-.8-1.2-1.5-1.4-.7-.3-2.4.1-2.8.4-.4.3-.9 1.1-.7 2.4 2 3.5 4.1 6.9 6.1 10.4 0 .3.1.5.1.8-.1 0-.1 0-.2.1-4.7-3.6-7.1-7.3-10.8-13.4-2.3-3.7-1-10-1.1-10.5-.2-.8-.7-1.3-1.7-1.1s-1.2.4-1.5.9c-4.3 4.6 3.9 14 4.9 19.2-9.3-8.1-25.1-26.2-22.3-40.1.8-3.9 4.4-6.7 5.5-9.6.7.6.2 2.4.6 3.9zM42.2 97.5c-.1.8.2 1.4.3 1.8.7 4 2.7 5.9 4.4 9.1 0 .1.5.3.5.3.9.1 11.5-1.7 11.6 5.1.2.6-.1 1 0 1.1-9 5.9-9.8 2-11.6 13.5-.3 1.8-.1 3.2 1.2 4.7-1.7 1.7-2.9 1.3-4.6.6-2-.5-5.1-4.8-5.3-6.2-1.2-3.4-3.3-8.6-3.5-10.2-.1-1.7.8-5.9.5-7.1-.2-.6-.9-.8-1.7-.7-.2-.2-.7 0-.9.1-4.2 1.1 1.5 18.9 4.4 22.8 1.9 1.8 3.9 3.6 5.8 5.4-.8 1.2-1.6 2.3-2.5 3.5-6.8 1.5-19.3-12.2-19.8-21.4-.2-3.1 1.5-5.6 2-8.3 2.3-10.9 5.8-19.4 11.8-24s7.8 6.8 7.4 9.9zm123.4-53.2c3.8 2.4 4.6 5.6 6.8 9.2 5.9 9.6 6.9 22.1 5 31.1-1.1 2.7-1.7 5.2-2.7 7.9-.2.9-1 1.2-1.3 1-.3-.3-1.3-4.4-1.9-6.6-.1-6.8 3.6-16.2-2.8-21.2-1.7-1.3-2.1-1.7-4.1-.3 1 1.9 2.6 2.7 3.5 4.6 3.1 6.5-.7 11.2 0 17.9.4 3.5 4 8.4 3.1 12.5-.7 3-3.3 11.8-1.6 15.3 0 .3.6.4-.1.8s-2.6.7-2.8-.5c-.4-4.3 1.3-12.7.5-15.1-1.2-3.4-3.1-4.1-4.9-7.3-.4-.7-5.9-23.4-5.9-23.4.2-6.6 4.3-7.2 5.7-12.3.4-4.5.7-9 1.1-13.5.5-1 1-1.4 2.4-.1zm-86.7 66c.7-.2 2.2-.2 3.3-.2 5.5-.4 10.9-3.9 16.3.6l1.8 3.3c1.3 1.1 3.3 2.7 3.7 6 .5 5.3-.5 10.5.5 16.5 1.9 2 5.3 12.8 5.1 13.5-.2.6-.9 1.7-1.9 1.4-1-.3-11.1-15.4-11.4-18.6-.4-3.7.9-9.6-.7-12.5-1-.5-2.3-.6-2.7.8-.1 2.8-1.5 5.3-1.6 7.8.4 1.6.8 3.3 1.3 4.9v.6c-7.2-3.6-13.3-12.6-23.9-8.6-1.1.4-1.8 1.3-1.7 1.8.2 1 .7 1.5 1.5 1.4 11.5-1.3 12.9 3.6 21.1 8.5 2.8 1.7 5.5 2.6 7.9 5.2 4.7 5.1 9.1 18.4-2.2 18.3-9.7-5.6 1-25.4-19-17.1-1.5-3.4-2.6-8.1-4.4-10.1-1.8-2-7 1.7-12.1 2.8-2.2.5-5.1-1.6-7.1-1.9-8.5-18.1 6.6-13 12.8-18.8 2-1.9 1.5-4.2 3.1-6.1 4.8-1.5 5.5.4 10.3.5zM53.6 139s2.7 1.6 3.8 1.6c3.6-.2 6.6-3.8 10.2-2.5 4.2 1.5 4.9 11 10.5 10.4 1.6-1.1 3.9-3.3 4.7-3.4s1.7.2 2.1.8c.4.6-.4 2.9.1 4.5.6 1.6 6 13.3 6 14.2 0 1-.7 1.7-1.8 1.7-4.6-3.5-10.2-4.9-15.3-7.9-1.9-.7-3.8-1.3-5.7-2-4.7-4.3-10.7-10.4-13-10.6-.7-.1-1.2.1-1.7.7s-.4.8-.1 1.3c1.4 3.4 4.9 2.7 7.1 4.6 1.4 1.7 2.8 3.3 4.3 5-11.4 3.9-26.9-6.3-17.9-17.9 2.1-.2 4.4-.4 6.7-.5z" fill-rule="evenodd" clip-rule="evenodd"/></svg>