<svg height="100" width="100" xmlns="http://www.w3.org/2000/svg" data-name="Layer 1"><path d="M55.074 20.946l8.873-8.808a2.25 2.25 0 10-3.17-3.194L52.25 17.41V4.266a2.25 2.25 0 10-4.5 0V8.42l-5.81-5.768a2.25 2.25 0 10-3.17 3.194l8.98 8.914v5.88c-12.596.832-22.5 8.561-22.5 17.947a35.697 35.697 0 00.327 4.05l.004.03A185.395 185.395 0 0031.94 71.1C37.445 88.95 43.522 98 50 98s12.555-9.05 18.06-26.9c4.145-13.44 6.69-27.994 6.69-32.512 0-8.672-8.454-15.932-19.676-17.642zM50 93.5c-2.713 0-7.045-4.732-11.684-17.512h8.809a2.25 2.25 0 000-4.5H36.781c-.18-.56-.36-1.13-.54-1.715a190.372 190.372 0 01-5.877-25.312h15.952a2.25 2.25 0 000-4.5H29.812a18.512 18.512 0 01-.062-1.373c0-7.457 9.084-13.524 20.25-13.524s20.25 6.067 20.25 13.524c0 2.952-1.288 11.032-3.466 20.086h-11.57a2.25 2.25 0 100 4.5h10.433a175.135 175.135 0 01-1.887 6.599C58.364 87.267 53.114 93.5 50 93.5z"/></svg>