<svg height="100" width="100" xmlns="http://www.w3.org/2000/svg" viewBox="0 0 91 91"><path d="M90.2 43c.7-4.1-2.1-7.1-5.3-9 1.8-4.2-.6-9.3-5.3-11.1-.8-.3-1.6-.5-2.5-.6.2-2.2-1.4-5.1-2.8-6.3-2.9-2.5-6.3-2.2-9.4-.7-.2-.7-.3-1.4-.7-1.9-.7-1.1-1.8-1.8-2.9-2.4-2.5-1.2-5.6-1.8-8.3-1.4-.5.1-1.1.2-1.7.5-2-3.6-8.2-4.7-11.9-4.4-4.6.3-9.5 2.9-10.6 7.3-8.3-2.1-18.3 4-16.2 13.4v.1c-1.7.8-3.1 2.2-4.1 3.9-.2.4-.3.9-.6 1.3.1.3 0 .6-.1.8 0-.1-.1-.2-.1-.2-.7.3-1.7.2-2.5.6-1.7.8-3 2.4-3.7 4.2-2.2 5.2 1.2 9.2 4.2 13 0 .9.1 1.9.3 2.8.1.7.5 1.1 1 1.4-1.5-.1-3-.1-4.4 0-1.5 0-2.7 2.1-1.3 3.2 3 2.3 3.9 6.1 6.3 8.9 2.7 3.1 6.5 5.1 10.2 6.6 4.5 1.9 9.3 2.8 14.1 2.9-.4 2.6-.1 5.5 1.8 7.3 2.6 2.4 7.6 1.8 10.8 2 3.5.2 6.8.2 9.8-1.7 3-1.9 2.4-4.5 2.9-7.6 5.3.1 10.6-.9 15.5-2.9 3.6-1.5 7.2-3.4 9.8-6.2 2.7-2.9 4.1-6.8 7.3-9.3 1.4-1.1.1-3.2-1.3-3.2C77 53.9 64.6 57 55 63.8c.9-3.3 1.1-6.8.4-10.4-.7-3.5-2.2-6.9-4.4-9.7-1.6-2-4.1-5-7-4.6-2.7.3-4.4 4-5.5 6.1-1.6 3.3-2.6 6.8-3 10.4-.2 2.2-.3 5.3.2 8.2-8-5.8-17.7-9-27.3-9.6 1-.3 1.9-1.2 1.7-2.5-.3-1.5-.2-3.8 1.2-4.8.5-.4 1.2-.5 1.8-.7.8-.3 1.6-.7 2.4-.9 1.2-.4 1.4-2.4 0-2.7s-2.5-.7-4-.4c-1.4.1-2.7.8-3.6 1.8-.3.3-.6.6-.8 1-1.6-1.7-2.8-3.7-1.9-6.1 1.1-3.1 3.9-1.4 5.7-3.4.6-.7.7-1.6 1-2.4.6-1.4 1.5-2.6 3-3.2 2.7-1.1 4.2.5 6.4 1.5.1.1.3.1.4.2.2 0 .4.1.7 0 .9-.2 1.4-1.2 1.2-2.1-.4-1.8-2.8-3-4.3-3.5-.8-.3-1.6-.4-2.4-.4 0-.1 0-.3-.1-.4-1.8-6.7 7.8-10.2 12.8-7.7 1.2.6 3.2-.1 3.1-1.8-.5-4.4 4.2-6.1 7.8-6.1 2.8 0 5.6.6 7.3 2.6-1.5 1.6-2.4 3.6-1.4 5.6.6 1.3 2.8 1 3.1-.4.6-2.3 2.9-4.1 5.3-4.2 1.6 0 4.2.4 5.5 1.4s1.2 3.1 1.9 4.6c.5 1 1.9 1.3 2.8.7 2.2-1.3 5.2-2.9 7.3-.4.7.8.8 1.7 1 2.6-4.2.6-8.2 2.9-8.9 7.1-.4 2.4 3.2 3.5 3.7 1 .7-3.5 5.6-4.7 8.6-4 3.1.6 6.2 4 3.4 6.9-1.3 1.3-.5 3.1 1 3.8 1.9.8 4.2 2.1 4.7 4.3.5 2.1-.7 2.9-2.2 3.7-2.1-1.2-4.6-1.4-6.8-.4-.7-1.8-2.6-2.9-4.7-3.1-3.5-.4-6 1.3-7.6 4.2-1 1.7 1.6 3.3 2.7 1.6.9-1.5 1.8-2.4 3.6-2.6 1.8-.2 3.5.5 3.9 2.4.2 1.1 1.5 1.2 2.2.6 1.5-1.3 4.4-.9 5.7.4 1.6 1.6.8 2.9 1.1 4.8.1.7.5 1 1.2.9 2.9-.4 2.7-3.5 1.6-5.8 1.8-.6 3.4-2.7 3.7-4.9zM84 57.8c-.8 1.1-1.5 2.2-2.3 3.3-2.2 3.4-5.2 5.6-8.9 7.3-5.2 2.4-11 3.5-16.8 3.3 1.8-.5 3.6-1.1 5.4-1.6 3.4-1 7.2-1.7 10.2-3.5 1-.6.6-2.3-.6-2.3-4.9 0-10.1 2.2-14.8 3.5-.6.2-1.2.3-1.9.4 9.2-5.9 18.9-9.9 29.7-10.4zm-45.1-2.5c.3-2.5 2.9-14.2 6.7-11.9 1.7 1.1 3.1 3.9 4 5.7 1.1 2.4 1.8 5 1.9 7.6.2 4.7-1.4 9.7-4.7 13.2-.1-2.2-.5-4.5-.5-6.7-.1-3.5-.2-7.1-.4-10.6 0-.8-1.2-1-1.5-.2-.9 3.5-1.5 7.1-1.6 10.8-.1 1.9-.2 3.9-.1 6-.1-.1-.2-.2-.3-.2-4-2.1-3.9-9.9-3.5-13.7zm4 16.3c0-.1-.1-.2-.2-.2 0-.1.1-.1.1-.2.1.1.1.3.1.4zm-1 3.1c.7-.1 1.2-.8 1.4-1.4.1.3.2.7.3 1 .6 1.7 2.8 1.4 3.2-.2.4.2.8.3 1.2.4l.6.3c1.6.4 3.2.6 4.8.8.2 1 .3 2.2.2 3.1-.1 1.8-.3 1.7-1.6 1.6-1.9-.1-3.7-.5-5.6-.5-2.3 0-5.1.7-7.4.2-2.7-.5-2.7-2.2-2.8-4.4 1.8-.2 3.8-.5 5.7-.9zM22.8 61c4.8 1.8 9.1 4.4 13.3 7.2-.7-.1-1.4-.3-2.1-.5-4.6-1.2-9.9-3.5-14.8-3.5-1.2 0-1.6 1.6-.6 2.3 3 1.9 6.9 2.5 10.2 3.5 1.8.5 3.6 1.1 5.3 1.6h.1c-5.5.2-11-.7-16-2.9-3.5-1.5-7-3.5-9.1-6.8-.9-1.4-1.6-2.8-2.5-4.1 5.6.2 11 1.3 16.2 3.2z"/><path d="M33.8 35.5c1-.9 1.4-2.2 2.9-2.7 2.3-.8 3.9.3 5.1 2.2.4.6 1.3.6 1.7 0 1.1-2-.2-3.9-2-5-2.3-1.3-5.1-.9-7.3.4-.7.5-1.8 2.4-2.4 2.6-.5.1-2.5-.9-3.4-.9-2.9-.3-5.3 1.3-6 4.1-.5 2 2.6 2.8 3.1.8.9-3.9 5.9.7 8.3-1.5zM56.1 27.2c-2.5-2.1-8.3-2.5-8.7 1.9-.2 1.8 2 2.2 3.2 1.3.7-.6.9-1 1.9-.8.8.2 1.4.9 1.8 1.6.5.8.5 1.6.6 2.5s.5 1.9 1.5 1.9c1.9.2 2.2-2.5 2-3.9 0-1.7-.9-3.3-2.3-4.5zM17.9 49.4c-.3 1 .7 2 1.7 1.7 2-.6 3.3-2.2 5.6-2.4 2.2-.2 3.9.8 6 .9.8 0 1.1-.8.8-1.5-2-4.6-12.8-3.4-14.1 1.3z"/></svg>