<svg height="100" width="100" xmlns="http://www.w3.org/2000/svg" version="1.2" baseProfile="tiny"><path d="M92.5 5H50C25.187 5 5 25.187 5 50c0 11.509 4.348 22.018 11.481 29.984L5.732 90.732A2.498 2.498 0 007.5 95c.64 0 1.279-.244 1.768-.732l10.749-10.749C27.982 90.652 38.491 95 50 95c24.813 0 45-20.187 45-45V7.5A2.5 2.5 0 0092.5 5zM90 50c0 22.056-17.944 40-40 40-10.13 0-19.387-3.793-26.442-10.023L28.535 75H62.5a2.5 2.5 0 100-5H33.535l10-10H72.5a2.5 2.5 0 100-5H48.535l10-10H77.5a2.5 2.5 0 100-5H63.535l15.732-15.732a2.498 2.498 0 000-3.535 2.498 2.498 0 00-3.535 0L60 36.465V22.5a2.5 2.5 0 10-5 0v18.965l-10 10V27.5a2.5 2.5 0 10-5 0v28.965l-10 10V37.5a2.5 2.5 0 10-5 0v33.965l-4.977 4.977C13.793 69.387 10 60.13 10 50c0-22.056 17.944-40 40-40h40v40z"/></svg>