<svg height='100px' width='100px'  fill="#000000" xmlns="http://www.w3.org/2000/svg" data-name="Layer 1" viewBox="0 0 100 100" x="0px" y="0px"><defs><style>.cls-1{fill:none;}</style></defs><title>Celery Root</title><path class="cls-1" d="M58.3,20.19a1,1,0,0,0,.48.08,11.38,11.38,0,0,0,1.41-.59,5.47,5.47,0,0,1,5.06.27l-.85-.61,1-.83.68-.57-.23,0-3,.73,1.94-2.34a3.13,3.13,0,0,0,.46-1.26,12.7,12.7,0,0,0-1.5.93l-2.07,1.51.5-2.51a8.22,8.22,0,0,0-.06-2.8,10.35,10.35,0,0,0-.42,2.59l-1.44.07.25.87-.22-.07c.22.24.46.5.71.75a4.08,4.08,0,0,1,.66.65l-1.47,1.35-.56-.54A9.91,9.91,0,0,0,58.06,17l.2,1.17-1-.36-.45.72,1.91.48Z"></path><path class="cls-1" d="M56.08,20.41,54,19.87l-.65.25a5.63,5.63,0,0,1-3.9,0l-.15-.08a4.86,4.86,0,0,0-.65-.32c-1.3,5.36-2.89,12.34-3.76,17.08,2.1-3.27,5.19-7.31,7.52-8.72l.13-.08c2.14-1.3,6.24-3.8,7.63-6.15-.22.09-.47.18-.72.27a2.16,2.16,0,0,1-.68.1,4.59,4.59,0,0,1-2.22-.74l-.68-.44Z"></path><path class="cls-1" d="M53.71,18.55l.44.52.27-.43-.95-.37Z"></path><path class="cls-1" d="M55.8,15.69l-.14-.8-.79.66-.51.43C55,15.84,55.43,15.74,55.8,15.69Z"></path><path class="cls-1" d="M62.74,24.56a12.48,12.48,0,0,1,3.72.31,11.76,11.76,0,0,1,.27-2.79,4.35,4.35,0,0,1-2.23-.26A18,18,0,0,1,62.74,24.56Z"></path><path class="cls-1" d="M62.52,21.18l0,.11.06-.11Z"></path><path class="cls-1" d="M81.76,28.64H78.54l3.19-2.18a5.17,5.17,0,0,0-3.5-.1l-2.15.84,1-2.46a13.45,13.45,0,0,0-3.65.84l-1-1.71a5.76,5.76,0,0,0,1.4-1.49h-1.6l-.09-.9c0-.14,0-.36,0-.62L68.9,23.16l-.24-.51a6.86,6.86,0,0,0,0,3.31l.08.24,0,.25c-.14.85-.74,3.65-2.5,4a2.87,2.87,0,0,0-.64.22,1.17,1.17,0,0,1,.35.25,1.24,1.24,0,0,1,.32,1.26,6.48,6.48,0,0,1-.6,1.31h.94l-.34,1.26A10.36,10.36,0,0,0,66,37.89a4.81,4.81,0,0,0,.92-1l.17-.25,2.84-1.22L70.7,37a3.92,3.92,0,0,0,.17-1.18l-.27-2.72c-.61-.77-1.58-2.24-1-3.22a1.43,1.43,0,0,1,1.82-.51c1.85.57,4.53,3.09,5.51,5.19a4.29,4.29,0,0,0,.79,1.14V32l1.45.72a4.49,4.49,0,0,0,2.37.29l-2-3,3.28-.36A3,3,0,0,0,81.76,28.64Z"></path><path class="cls-1" d="M50.26,18.36a2.26,2.26,0,0,0,.6.13l-.33-.26-1-.75,1-.83,1.15-1c-.45.06-.75.13-.76.13l-3,.74,2-2.35a4.2,4.2,0,0,0,.6-1.76,14.13,14.13,0,0,0-2,1.19l-2.07,1.5.5-2.51a10,10,0,0,0-.15-3.74,11.11,11.11,0,0,0-.65,3.47l-1.65.08.22.78-.49-.15c.34.39.73.81,1.15,1.23a4.48,4.48,0,0,1,.74.72l-1.47,1.35L44,15.76a11.86,11.86,0,0,0-2.09-1.16L42.11,16l-1.62-.59h-.11l.72.28-.64,1,2.2.55-.51,1.32a1.47,1.47,0,0,0,.77.14A13,13,0,0,0,44.53,18,6.11,6.11,0,0,1,50.26,18.36Z"></path><path class="cls-1" d="M66.53,27a9.94,9.94,0,0,0-6.47.24l-.77-1.4a45.12,45.12,0,0,1-5.74,4l-.13.08c-2.52,1.53-6.79,7.56-8.51,10.87a41,41,0,0,0-2.69,8l-.58,3.15-2-.18c0-1-.76-2.55-2.89-4.09a13.84,13.84,0,0,1-3.08-3.67A8.22,8.22,0,0,0,35,46.77c1.42,2,3,4.59,2.52,6a6.7,6.7,0,0,1-.5,1.07c-.48.88-.63,1.26-.31,1.81.61,1.07,5.11,2.3,5.95,1.85.48-.33.92-2.12,1-3.53,0-.85-.38-8.73,2.55-14.23C48.59,35.4,54,25.28,66.48,27.13Z"></path><path class="cls-1" d="M40.28,48.15a48.89,48.89,0,0,1,2-6.38c-.05-1.8.83-6.5,1.85-11.25-.27.89-.51,1.62-.66,2.09a134.26,134.26,0,0,0-3.47,15.15C40.06,47.89,40.17,48,40.28,48.15Z"></path><path class="cls-1" d="M43.81,59.2a3,3,0,0,1-1.73.42A9.57,9.57,0,0,1,40,59.35c-1.84-.42-4.24-1.37-5-2.66a3,3,0,0,1-.41-1.79c-2.74.06-12.15.94-15.54,9.65a16.06,16.06,0,0,0,0,9l.1.3-.09.31c0,.17-1.18,4.22,2.09,6l.27.15.14.27c0,.06,3.39,6.5,8.14,8.54,5.08,2.18,12,4.08,15.1,3.09,2.9-.92,5.16-3.87,6.51-5.63l.35-.46a11.28,11.28,0,0,1,1-1.06C54.89,83,59,79,57.53,70.61a20.42,20.42,0,0,0-12-15.28C45.36,56.61,44.9,58.45,43.81,59.2Z"></path><path d="M86.22,31.28,85.47,30a10.57,10.57,0,0,0-1.81-2.4l1.89-1.3-1.27-.81a9.15,9.15,0,0,0-4.81-1.35l.64-1.6-1.58.1c-.23,0-1.42.1-2.75.31a4.1,4.1,0,0,0,.39-1.45l.07-1.07H74.06a2.47,2.47,0,0,1,.22-1.12h0l-1.17-1.62h0l-3.42,2.47-.87-1.88.61-.52,1.47-1.25L69,16a6.56,6.56,0,0,0-1.84-.18,10.75,10.75,0,0,0,.27-2.11l0-1.07-1.07,0a5.51,5.51,0,0,0-2.11.7,15.18,15.18,0,0,0-.73-3.75l-.34-1-1,.38a4.21,4.21,0,0,0-2.14,3,11.94,11.94,0,0,0-1.1-1L56.65,9.27l1,3.49-.36-.11-.19,1.13a1.6,1.6,0,0,0,.05.69h0l-1.59-.54,0,.17-1-.27a7.62,7.62,0,0,0-2.23-.2,12.17,12.17,0,0,0,.35-2.55l0-1.07-1.07,0a6.48,6.48,0,0,0-2.53.88A16.94,16.94,0,0,0,48.2,6.5l-.34-1-1,.38c-1.36.54-2.06,2.12-2.41,3.6a13.74,13.74,0,0,0-1.4-1.25L40.69,6.4l1.08,3.82-.51-.16-.19,1.13a1.92,1.92,0,0,0,.14,1l-.3-.11-1.59-.54.34,1.93a22.59,22.59,0,0,0-3,.68l-2.88.82,4.36,1.69-.81,1.3L40,18.6l-.32.82.68.44a5.08,5.08,0,0,0,2.45.82,2.34,2.34,0,0,0,.74-.11c.49-.16.94-.35,1.29-.5-.52,2.52-1.88,7.65-3.3,11.91a124,124,0,0,0-3.32,14.17l-.28-.22c-1.63-1.18-3.6-4.81-4.21-6.11l-1.12-2.35L31.85,40a9.13,9.13,0,0,0,1.56,8c1.47,2,2.31,3.79,2.25,4.24a5,5,0,0,1-.35.72c-1.28,0-13.9.08-18.14,11A17.92,17.92,0,0,0,17.07,74c-.49,2-.44,5.86,2.87,7.86.73,1.33,4.11,7.11,9,9.19,4.14,1.78,9.72,3.51,13.77,3.51a9.12,9.12,0,0,0,2.72-.36c3.5-1.11,6.1-4.5,7.49-6.33l.34-.44a11.27,11.27,0,0,1,.83-.85c2.3-2.24,7.08-6.89,5.43-16.28-1.69-9.63-9.07-15.57-13.83-17,0-2.06,0-8.22,2.34-12.52,3.48-6.52,7.92-12.36,16.56-11.78-1.26.62-2.6,1.75-2.75,2.84l-.22,1.58,1.51-.49.66-.18c-.26.44-.56.9-.8,1.23L61.84,35.5H64a10.19,10.19,0,0,0,.25,4.32l.33,1,1-.42a7.17,7.17,0,0,0,2.72-2.2L69,38l2,3.86.83-1.94a18.36,18.36,0,0,0,.74-2.09l2.83,2.83-1-3.59a17.44,17.44,0,0,0-1.8-4.66,10.16,10.16,0,0,1,2.5,3,7.19,7.19,0,0,0,3.18,3.18l1.42.66V35a6.93,6.93,0,0,0,3.78-.4l1.13-.45L83,31.64Zm-19.49-9.2a11.76,11.76,0,0,0-.27,2.79,12.48,12.48,0,0,0-3.72-.31,18,18,0,0,0,1.76-2.74A4.35,4.35,0,0,0,66.73,22.08Zm-4.21-.9h0l-.06.11Zm-5.23-3.37,1,.36L58.06,17a9.91,9.91,0,0,1,1.61.91l.56.54,1.47-1.35a4.08,4.08,0,0,0-.66-.65c-.25-.25-.49-.5-.71-.75l.22.07-.25-.87,1.44-.07a10.35,10.35,0,0,1,.42-2.59,8.22,8.22,0,0,1,.06,2.8l-.5,2.51L63.8,16a12.7,12.7,0,0,1,1.5-.93,3.13,3.13,0,0,1-.46,1.26l-1.94,2.34,3-.73.23,0-.68.57-1,.83.85.61a5.47,5.47,0,0,0-5.06-.27,11.38,11.38,0,0,1-1.41.59,1,1,0,0,1-.48-.08L58.75,19l-1.91-.48Zm1.43,4.46a2.16,2.16,0,0,0,.68-.1c.25-.08.5-.18.72-.27-1.38,2.35-5.48,4.85-7.63,6.15l-.13.08C50,29.55,47,33.59,44.85,36.86c.86-4.74,2.45-11.72,3.76-17.08a4.86,4.86,0,0,1,.65.32l.15.08a5.63,5.63,0,0,0,3.9,0l.65-.25,2.12.53-.26.69.68.44A4.59,4.59,0,0,0,58.72,22.27Zm-4.57-3.2-.44-.52-.24-.27.95.37Zm.73-3.52.79-.66.14.8c-.37.06-.85.15-1.43.29Zm-12,3.12a1.47,1.47,0,0,1-.77-.14l.51-1.32-2.2-.55.64-1-.72-.28h.11l1.62.59-.24-1.35A11.86,11.86,0,0,1,44,15.76l.65.62L46.08,15a4.48,4.48,0,0,0-.74-.72c-.42-.42-.81-.84-1.15-1.23l.49.15-.22-.78,1.65-.08a11.11,11.11,0,0,1,.65-3.47,10,10,0,0,1,.15,3.74l-.5,2.51,2.07-1.5a14.13,14.13,0,0,1,2-1.19,4.2,4.2,0,0,1-.6,1.76l-2,2.35,3-.74s.31-.07.76-.13l-1.15,1-1,.83,1,.75.33.26a2.26,2.26,0,0,1-.6-.13A6.11,6.11,0,0,0,44.53,18,13,13,0,0,1,42.91,18.67Zm.51,13.94c.16-.47.39-1.2.66-2.09-1,4.75-1.9,9.45-1.85,11.25a48.89,48.89,0,0,0-2,6.38c-.1-.13-.22-.26-.33-.39A134.26,134.26,0,0,1,43.42,32.61Zm14.11,38C59,79,54.89,83,52.68,85.11a11.28,11.28,0,0,0-1,1.06l-.35.46c-1.35,1.76-3.61,4.72-6.51,5.63-3.12,1-10-.91-15.1-3.09-4.74-2-8.1-8.47-8.14-8.54l-.14-.27-.27-.15c-3.27-1.78-2.14-5.83-2.09-6l.09-.31-.1-.3a16.06,16.06,0,0,1,0-9c3.4-8.71,12.8-9.59,15.54-9.65A3,3,0,0,0,35,56.69c.74,1.29,3.15,2.24,5,2.66a9.57,9.57,0,0,0,2.09.27,3,3,0,0,0,1.73-.42c1.09-.75,1.55-2.59,1.75-3.87A20.42,20.42,0,0,1,57.53,70.61ZM46.25,39.78c-2.93,5.5-2.6,13.38-2.55,14.23-.09,1.42-.53,3.2-1,3.53-.84.45-5.33-.78-5.95-1.85-.32-.55-.17-.93.31-1.81a6.7,6.7,0,0,0,.5-1.07c.48-1.45-1.11-4.09-2.52-6a8.22,8.22,0,0,1-1.35-2.89,13.84,13.84,0,0,0,3.08,3.67c2.13,1.54,2.89,3.12,2.89,4.09l2,.18.58-3.15a41,41,0,0,1,2.69-8c1.72-3.31,6-9.34,8.51-10.87l.13-.08a45.12,45.12,0,0,0,5.74-4l.77,1.4A9.94,9.94,0,0,1,66.53,27l-.05.17C54,25.28,48.59,35.4,46.25,39.78ZM81.54,33a4.49,4.49,0,0,1-2.37-.29L77.72,32V35.7a4.29,4.29,0,0,1-.79-1.14c-1-2.1-3.66-4.62-5.51-5.19a1.43,1.43,0,0,0-1.82.51c-.59,1,.38,2.45,1,3.22l.27,2.72A3.92,3.92,0,0,1,70.7,37l-.83-1.58L67,36.64l-.17.25a4.81,4.81,0,0,1-.92,1,10.36,10.36,0,0,1,.26-3.13l.34-1.26h-.94a6.48,6.48,0,0,0,.6-1.31,1.24,1.24,0,0,0-.32-1.26,1.17,1.17,0,0,0-.35-.25,2.87,2.87,0,0,1,.64-.22c1.76-.35,2.36-3.15,2.5-4l0-.25L68.65,26a6.86,6.86,0,0,1,0-3.31l.24.51,3.16-2.28c0,.26,0,.48,0,.62l.09.9h1.6a5.76,5.76,0,0,1-1.4,1.49l1,1.71a13.45,13.45,0,0,1,3.65-.84l-1,2.46,2.15-.84a5.17,5.17,0,0,1,3.5.1l-3.19,2.18h3.22a3,3,0,0,1,1.09,1L79.57,30Z"></path></svg>