<svg height="100" width="100" xmlns="http://www.w3.org/2000/svg" data-name="Layer 1" viewBox="0 0 64 64"><path d="M-44.5-33.36a15.2 15.2 0 01-4.73-.76 8.61 8.61 0 01-5.54 0 15.2 15.2 0 01-4.73.76c-8.81 0-15.2-6-15.2-14.2 0-6.66 4.8-13.13 11.42-15.39A9.76 9.76 0 01-55-62c.15.08.29.17.44.27a12.54 12.54 0 011.41-.56l.43-.11c-.3-1.75-.71-5.76 1.27-8.3a6 6 0 015-2.2 1.2 1.2 0 011.2 1.2 1.2 1.2 0 01-1.2 1.2 3.67 3.67 0 00-3.1 1.27c-1.5 1.93-1 5.78-.66 7.1.29.11.57.23.85.36a3.13 3.13 0 01.34-.21 9.71 9.71 0 018.68-.78c6.21 2.49 11.08 9.15 11.08 15.16-.04 7.74-7 14.24-15.24 14.24zm-1.62-2.5a12.58 12.58 0 001.62.1c6.94 0 12.8-5.4 12.8-11.8 0-5-4.3-10.82-9.58-12.94a7.24 7.24 0 00-5.75.19 17.25 17.25 0 016.73 13.47c0 4.5-1.91 8.11-5.82 10.98zm-14.07-25.2a7 7 0 00-2.31.38c-5.68 1.94-9.8 7.46-9.8 13.12 0 7 5.26 11.8 12.8 11.8a12.58 12.58 0 001.62-.1c-3.91-2.87-5.82-6.48-5.82-11A17.28 17.28 0 01-57-60.32a7.51 7.51 0 00-3.19-.74zm5.88 24.55a6.2 6.2 0 004.62 0 5.64 5.64 0 00.92-.46c4-2.53 6-5.75 6-9.84a14.51 14.51 0 00-7.18-12.45 9.9 9.9 0 00-1.61-.74 1.5 1.5 0 00-.89 0 10.16 10.16 0 00-1.66.72A14.49 14.49 0 00-61.3-47v.18c0 4.09 2 7.31 6 9.84a6.08 6.08 0 001 .49zm91.73 4.08a1.2 1.2 0 01-1-.48l-1.39-1.86-.47-.09a8.23 8.23 0 01-2.57.41 8.21 8.21 0 01-2.16-.29l-1.38 1.83a1.2 1.2 0 01-1.68.24 1.21 1.21 0 01-.24-1.68l.12-.15a13.47 13.47 0 01-4.41-.25 11.23 11.23 0 01-8.24-7.6 11.22 11.22 0 012.69-10.9c.63-.69 1.3-1.43 2-2.2 2.75-3.08 5.78-6.47 8.73-8.46a1.54 1.54 0 010-.3v-8.42a1.22 1.22 0 01.72-1.1 1.2 1.2 0 011.3.23l2.77 2.58 2-.81a1.2 1.2 0 011.13.1 1.22 1.22 0 01.53 1v6.31c3.15 1.9 6.44 5.59 9.37 8.87.69.77 1.35 1.51 2 2.2a11.22 11.22 0 012.68 10.9 11.23 11.23 0 01-8.31 7.6 12.06 12.06 0 01-3.14.32l.07.08a1.21 1.21 0 01-.25 1.68 1.17 1.17 0 01-.87.24zm.43-4.42a10.45 10.45 0 003-.23 8.86 8.86 0 006.58-6 8.84 8.84 0 00-2.15-8.59c-.64-.69-1.31-1.44-2-2.22-3-3.35-6.38-7.15-9.34-8.71a1.22 1.22 0 01-.64-1v-5.25l-1 .42a1.21 1.21 0 01-1.3-.21l-1.32-1.23v4.69l.55-.18a1.21 1.21 0 011.5.8 1.21 1.21 0 01-.81 1.5c-3.16 1-7.25 5.53-10.54 9.21-.69.78-1.36 1.53-2 2.22A8.87 8.87 0 0016.26-43a8.86 8.86 0 006.58 6 10.8 10.8 0 003.33.21l-.09-.21a10.07 10.07 0 01-2.94-7.12 1.2 1.2 0 011.2-1.2 1.2 1.2 0 011.2 1.2 7.64 7.64 0 002.24 5.42 6.1 6.1 0 001.88 1.3h4.72a6.19 6.19 0 001.88-1.31 7.61 7.61 0 002.25-5.42c0-1.49-1.14-5.59-2.82-10.21a1.2 1.2 0 01.72-1.54 1.18 1.18 0 011.53.72c.7 1.9 3 8.33 3 11A10 10 0 0138-37zm73 5.42a1.2 1.2 0 01-.72-.24 1.2 1.2 0 01-.24-1.68l.81-1.08c-5.62 0-9.85-1.55-12.25-4.34-2.06-2.39-2.8-5.67-2.19-9.74.94-6.3 8.76-11.93 14.47-16l.57-.42v-8.66a1.2 1.2 0 01.72-1.1 1.2 1.2 0 011.3.23l2.77 2.58 2-.81a1.2 1.2 0 011.13.1 1.22 1.22 0 01.53 1v6.31c2.86 2 14.06 10.18 15 16.81a10.93 10.93 0 01-2.45 9c-3 3.45-7.69 4.85-11.42 5l.83 1.1a1.2 1.2 0 01-.24 1.68 1.2 1.2 0 01-1.68-.24l-1.89-2.52h-4.2l-1.88 2.52a1.19 1.19 0 01-.99.5zM112.7-63l-.59.42c-5.36 3.86-12.7 9.15-13.5 14.45-.5 3.35 0 6 1.64 7.83 2.49 2.89 7.21 3.5 10.73 3.5h9c4.14 0 8.26-1.66 10.47-4.23a8.5 8.5 0 001.9-7.1c-.65-4.35-8-11.09-14.53-15.52l-.08-.06a1.27 1.27 0 01-.32-.38 1.33 1.33 0 01-.14-.48v-5.23l-1 .42a1.21 1.21 0 01-1.28-.23l-1.32-1.23v4.14l.79-.62a1.2 1.2 0 011.69.18 1.21 1.21 0 01-.19 1.69c-.71.57-1.54 1.19-2.44 1.85a1.23 1.23 0 01-.83.6zm92.59 31.1a1.16 1.16 0 01-.75-.26l-1.9-1.53a1.34 1.34 0 01-.2-.21h-4.2a.8.8 0 01-.2.21l-1.89 1.53a1.21 1.21 0 01-1.69-.18 1.22 1.22 0 01.07-1.59 15.76 15.76 0 01-10.59-4.62 12.06 12.06 0 01-3.14-9.34c.44-6.34 8.06-11.68 14.19-16l.86-.6v-8.63a1.2 1.2 0 01.72-1.1 1.2 1.2 0 011.3.23l2.77 2.58 2-.81a1.2 1.2 0 011.13.1 1.22 1.22 0 01.53 1v6.31c5.79 4 14.88 11.12 15.05 16.95.13 4.09-1 7.39-3.34 9.81a15 15 0 01-9.88 4.05 1.19 1.19 0 01.09 1.61 1.18 1.18 0 01-.93.46zm-2.39-4.4h1.65c2.38 0 6.81-.44 9.68-3.4 1.88-1.94 2.78-4.65 2.68-8.07-.13-4.19-7.58-10.69-14.52-15.38l-.08-.06a1.27 1.27 0 01-.32-.38 1.56 1.56 0 01-.14-.48v-5.23l-1 .42a1.21 1.21 0 01-1.28-.23l-1.32-1.23v4.13c.28-.21.55-.41.79-.61a1.2 1.2 0 011.69.18 1.21 1.21 0 01-.18 1.69c-1.14.92-2.62 2-4.18 3-5.41 3.8-12.82 9-13.17 14.19a9.64 9.64 0 002.49 7.54 13.61 13.61 0 009.87 3.88h4.88a54.56 54.56 0 00-.21-22.52 1.19 1.19 0 01.89-1.44 1.2 1.2 0 011.45.88c0 .1 0 .2.07.3a11.12 11.12 0 017.72 3.33 11.82 11.82 0 013.81 8.45 11.73 11.73 0 01-4.33 9.13 1.2 1.2 0 01-1.69-.17 1.2 1.2 0 01.17-1.69 9.33 9.33 0 003.45-7.27 9.48 9.48 0 00-3.06-6.66 9.31 9.31 0 00-5.58-2.65c.15.81.27 1.61.37 2.4a7.71 7.71 0 017.1 7.67 7.71 7.71 0 01-7.26 7.69c-.15 1.01-.34 1.89-.44 2.56zm.89-6.7q-.07.86-.15 1.65a5.31 5.31 0 004.56-5.25 5.31 5.31 0 00-4.44-5.23 57 57 0 01.16 6 1.26 1.26 0 00.28-.8 1.2 1.2 0 011.2-1.2 1.2 1.2 0 011.2 1.2 3.71 3.71 0 01-2.81 3.63zM-64 50.66a24 24 0 01-7.84-1.29 2.3 2.3 0 01-1.54-2.16A2.28 2.28 0 01-71.93 45c6.57-2.47 10.85-4.82 14.64-10.16 1.69-2.37 2.9-5.74 4.08-9a54.11 54.11 0 012.58-6.36c1.35-2.58 4.42-3.76 7.82-3a7.27 7.27 0 01.8.22c.84-1.28 3.19-4.45 6.26-4.9A5.58 5.58 0 01-31 13.55a1.2 1.2 0 010 1.7 1.2 1.2 0 01-1.7 0 3.27 3.27 0 00-2.77-1.09c-1.82.27-3.54 2.27-4.42 3.55a7.13 7.13 0 013.48 5.74c.22 5-1.68 10.39-5.64 16A27.52 27.52 0 01-64 50.66zm-6.81-3.48c9.43 3.16 21-.74 26.91-9.12 3.39-4.77 5.14-9.31 5.21-13.52a7.2 7.2 0 01-6.54-.73 1.2 1.2 0 01-.43-1.64 1.22 1.22 0 011.66-.43c2.11 1.24 4.21 1.07 4.89.15a6.1 6.1 0 00-4.18-3c-1.76-.39-4.16-.16-5.17 1.77A52.16 52.16 0 00-51 26.69c-1.22 3.41-2.5 6.93-4.37 9.57C-59.83 42.6-65 45-70.84 47.18zM18 49.92a4.22 4.22 0 01-2.78-1c-4-3.31 2.55-15 10.85-28.71l1.51-2.5a6 6 0 018.74-1.67 16.13 16.13 0 013.31 1.55c.59-1.15 2.4-4.26 5.2-4.95a5 5 0 014.42 1.14 1.2 1.2 0 11-1.49 1.89 2.69 2.69 0 00-2.36-.7c-1.8.44-3.33 3-3.76 4l-.09.15a10.85 10.85 0 012.11 3 6 6 0 01-.05 8.88c-1.3 1.15-2.81 2.56-4.41 4.05-8.92 8.36-16.35 14.87-21.2 14.87zm-1.24-2.81C20 49.76 31 39.48 37.57 33.34c1.61-1.5 3.13-2.92 4.45-4.1a3.54 3.54 0 001.2-2.72 3.6 3.6 0 00-1.29-2.69 1.23 1.23 0 01-.33-.42c-1.16-2.54-3-4-6.23-5.12a1.26 1.26 0 01-.39-.22 3.56 3.56 0 00-5.33.91l-1.51 2.51C24.28 27.88 14 44.85 16.77 47.11zm98.79 10.1h-.19c-.94-.07-3.15-.25-6.73-14.29a152.37 152.37 0 01-3.91-21.34 6.69 6.69 0 013.28-6.4c3.75-2.45 9.93-2.59 14.07-.32a7.33 7.33 0 014.16 6.61c-.1 9.2-4 30.67-8.6 34.84a3 3 0 01-2.07.9zm.12-2.38zm-.46-39.17a11 11 0 00-5.93 1.53 4.29 4.29 0 00-2.17 4.17c1 11.81 6.14 31.87 8.49 33.43a1 1 0 00.37-.25c2.42-2.21 5.17-12.21 6.68-21.6a26.72 26.72 0 01-5.51.23 1.2 1.2 0 11.12-2.39 26 26 0 005.22-.24 1.18 1.18 0 01.53 0c.13-.93.24-1.84.34-2.74a28.48 28.48 0 01-7.93 0 1.2 1.2 0 01.39-2.36 27.06 27.06 0 007.51 0 1.22 1.22 0 01.27 0c.12-1.42.19-2.75.2-4a5 5 0 00-2.9-4.44 12.09 12.09 0 00-5.67-1.34zm7.67-4.12a1.22 1.22 0 01-.85-.35 1.2 1.2 0 010-1.7l1.3-1.3a1.2 1.2 0 011.7 0 1.22 1.22 0 010 1.7l-1.3 1.3a1.22 1.22 0 01-.84.35zm-14.27 0a1.2 1.2 0 01-.85-.35l-1.3-1.3a1.2 1.2 0 111.7-1.7l1.3 1.3a1.2 1.2 0 010 1.7 1.24 1.24 0 01-.84.35zm6.84-1.3a1.2 1.2 0 01-1.2-1.2V6.45a1.2 1.2 0 112.4 0V9a1.2 1.2 0 01-1.19 1.24zM212 52.86h-1.85a3.4 3.4 0 01-3.4-3.4v-5.54a17.17 17.17 0 01-1.82-.37v4a5.31 5.31 0 01-5.31 5.3h-3.46a5.31 5.31 0 01-5.31-5.3V36.3c-8.36-1.1-13.13-4-13.13-8 0-10.32 9-18.71 20.17-18.71S218 18 218 28.31a4.68 4.68 0 01-.51 2.14 10.42 10.42 0 014.89 8.7c0 2.36-2.55 4.07-7 4.77v5.54a3.41 3.41 0 01-3.38 3.4zm-2.85-8.69v5.29a1 1 0 001 1H212a1 1 0 001-1v-5.29a30.43 30.43 0 01-3.82 0zm-15.9-7.61v11a2.91 2.91 0 002.91 2.9h3.46a2.92 2.92 0 002.91-2.9v-4.84c-1.83-.88-2.82-2.1-2.82-3.57a9.75 9.75 0 01.3-2.43 56.22 56.22 0 01-6.8-.16zM208 41.67a28.57 28.57 0 005.92 0h.08c3.92-.44 6-1.6 6-2.52a8.12 8.12 0 00-4.69-7.15h-.08a9.55 9.55 0 00-4.23-1c-4.95 0-9 3.66-9 8.18 0 .52.65 1.12 1.93 1.62l.23.08a16.38 16.38 0 003.84.79zm-15.81-7.62a50.77 50.77 0 008.21.24h.6a11.5 11.5 0 0110-5.73 12.11 12.11 0 014.33.8 2.32 2.32 0 00.25-1.05c0-9-8-16.31-17.77-16.31s-17.77 7.31-17.77 16.31c0 2.68 4.73 4.93 12.06 5.73h.09zM-51.63 142.82h-.43a1.78 1.78 0 01-.73-.06 9.33 9.33 0 01-7.52-5.05c-1.77-3.42-.85-7.68 0-11.44.26-1.2.5-2.32.64-3.34.32-2.32.43-4.71.53-7 .1-2.13.19-4.32.46-6.5a37.08 37.08 0 011.06-5.21 1.26 1.26 0 01.16-.33 1.21 1.21 0 01-.29-1.48L-55 97a1.18 1.18 0 011.06-.65h1c-.14-1.3-.15-3.72 1.2-5.29a4.2 4.2 0 013.6-1.39A1.2 1.2 0 01-47 90.92a1.18 1.18 0 01-1.26 1.14 1.92 1.92 0 00-1.66.56c-.77.9-.73 2.76-.61 3.73h.57a1.21 1.21 0 011.06.64l2.68 5.08a1.19 1.19 0 01-.23 1.42l-.16.15a32.92 32.92 0 011.28 5.77c.27 2.18.36 4.37.46 6.5.1 2.3.21 4.69.53 7 .14 1 .38 2.14.64 3.34.82 3.76 1.74 8 0 11.44a9.36 9.36 0 01-7.54 5.05 1.09 1.09 0 01-.39.08zm-.37-2.42h.33a7 7 0 005.9-3.79c1.37-2.65.54-6.47-.18-9.83-.27-1.24-.53-2.42-.68-3.53-.33-2.42-.44-4.86-.55-7.22-.09-2.08-.19-4.24-.44-6.32a30.13 30.13 0 00-1-4.7 9 9 0 01-6.73.11 33.66 33.66 0 00-.93 4.59c-.25 2.08-.35 4.24-.44 6.32-.11 2.36-.22 4.8-.55 7.22-.15 1.11-.41 2.29-.68 3.53-.72 3.36-1.55 7.18-.18 9.83a7 7 0 005.9 3.79h.16zm-3.16-37.86a6.45 6.45 0 006 .06 1.2 1.2 0 01.33-.55l-1.74-3.3h-2.58zm70.07 31.11a26.25 26.25 0 01-6.28-.76 1.2 1.2 0 01-.9-1.34 26.21 26.21 0 012.74-8.55 3.19 3.19 0 00-1.26.15 1.2 1.2 0 01-.77-2.27 5.83 5.83 0 013.33-.08 26.46 26.46 0 017.29-7.36l15.1-10.15a26.42 26.42 0 0121-3.74 1.2 1.2 0 01.9 1.34A26.44 26.44 0 0144.7 119l-10.22 6.88a10.31 10.31 0 01-.25 1.56 1.21 1.21 0 01-2.28.14l-2.34 1.58a26.46 26.46 0 01-14.75 4.49zm-4.62-2.85a24.06 24.06 0 0018-3.64l3.86-2.59a4.21 4.21 0 00-1.22-3.1 1.21 1.21 0 01-.1-1.7 1.2 1.2 0 011.69-.1 6 6 0 011.86 3.4l9-6.06a24 24 0 0010.16-15.33 24 24 0 00-18 3.64L20.4 115.47a24.09 24.09 0 00-6.4 6.32 11 11 0 012 1.51 1.2 1.2 0 01-1.69 1.7 9.8 9.8 0 00-1.58-1.17 24 24 0 00-2.49 6.97zm9.49-16.32zm95.92 22.46a1.2 1.2 0 01-1.2-1.2v-1.8a34.08 34.08 0 01-3.55-2.09c-5-3.2-13.33-9.44-13.14-15.33.26-8.48 7.1-12.91 13.72-12.91h7.94c6.62 0 13.46 4.43 13.72 12.91.19 5.9-8.16 12.14-13.16 15.34-1.45.93-2.44 1.52-3.13 1.88v2a1.2 1.2 0 01-1.25 1.2zm-.73-5zm0 0zm0 0zm0 0zm0 0zm-14.78-15.38c-.18 5.87 12.57 13.85 15.3 15.17 2.74-1.33 15.48-9.3 15.3-15.17-.23-7.27-6-10.58-11.33-10.58h-7.94c-5.29 0-11.1 3.31-11.33 10.58zM120.65 102a1.17 1.17 0 01-.84-.36 1.19 1.19 0 010-1.69l1.34-1.35a1.2 1.2 0 011.7 1.7l-1.35 1.34a1.17 1.17 0 01-.85.36zm-9.41 0a1.19 1.19 0 01-.85-.36l-1.34-1.34a1.2 1.2 0 010-1.7 1.19 1.19 0 011.69 0l1.35 1.35a1.21 1.21 0 01-.85 2zm4.41-1.35a1.2 1.2 0 01-1.2-1.2v-2.71a1.2 1.2 0 112.4 0v2.69a1.2 1.2 0 01-1.2 1.2zm167 40.72a.82.82 0 01-.22 0l-2.36-.45a1.21 1.21 0 01-1-1.3l1.25-12.77v-.11a3.36 3.36 0 00-1.74-3.54 5.51 5.51 0 01-2.61-3.79 5.26 5.26 0 01.28-2.79 8.41 8.41 0 013-15.86l.06-.35a11.55 11.55 0 013.36-6.24 6.2 6.2 0 00-2.67-.6c-4 0-7.21 3.77-7.21 8.4a10.44 10.44 0 00.08 1.16 1.2 1.2 0 01-1 1.33 6 6 0 00.3 11.89 1.21 1.21 0 01.93.61 1.18 1.18 0 010 1.11 2.9 2.9 0 00-.12 2.36 3 3 0 001.78 1.77 5.77 5.77 0 014 5.42 1.2 1.2 0 11-2.4 0 3.38 3.38 0 00-2.39-3.14 5.48 5.48 0 01-3.27-3.22 5.19 5.19 0 01-.26-2.8 8.4 8.4 0 01-.08-16.13v-.36c0-6 4.31-10.8 9.61-10.8a8.73 8.73 0 014.8 1.44 8.8 8.8 0 016-1 9 9 0 016.23 4.44 11.5 11.5 0 011.27 8c0 .11 0 .23-.07.35a8.4 8.4 0 01-3.2 15.79 5.29 5.29 0 01-.79 2.7 5.43 5.43 0 01-3.76 2.53 3.4 3.4 0 00-3 2.64v.11l-.93 3.18a1.21 1.21 0 01-1.49.82 1.2 1.2 0 01-.81-1.49l.91-3.13a5.75 5.75 0 014.94-4.49 3 3 0 002.12-1.42 2.84 2.84 0 00.32-2.33 1.2 1.2 0 01.24-1.08 1.23 1.23 0 011-.43 6 6 0 002.55-11.62 1.2 1.2 0 01-.74-1.5 9.52 9.52 0 00.3-1.12 9.07 9.07 0 00-1-6.3 6.48 6.48 0 00-9.9-1.91 9.11 9.11 0 00-3.27 5.48 10.65 10.65 0 00-.14 1.15 1.18 1.18 0 01-1.24 1.11 6 6 0 00-2 11.73 1.22 1.22 0 01.8.78 1.21 1.21 0 01-.19 1.1 2.89 2.89 0 00-.57 2.28 3 3 0 001.41 2.08 5.76 5.76 0 012.94 6l-1.13 11.64.28.05c.6-1.5 1.72-3.64 3.41-4.36a2.89 2.89 0 012.47.06 1.2 1.2 0 11-1.05 2.16.48.48 0 00-.48 0c-.79.34-1.8 1.94-2.44 3.9a1.19 1.19 0 01-1.07.84zm2-16.73h-.23a1.2 1.2 0 01-1-1.41l1.28-6.64a1.27 1.27 0 01-.37-.25L278 110a1.2 1.2 0 011.68-1.72l5.63 5.54.82-4.24-3.63-4a1.2 1.2 0 011.76-1.62l2.44 2.65.45-2.33a1.2 1.2 0 112.35.45l-.45 2.33 3.25-1.55a1.2 1.2 0 011 2.17l-4.78 2.32-2.64 13.61a1.2 1.2 0 01-1.17 1.01zm4.87-157.48a17.77 17.77 0 01-3.35-.31 14 14 0 00-5.31 0 17.66 17.66 0 01-3.34.31 16 16 0 01-12.53-5.6A14.75 14.75 0 01262.23-51a16.67 16.67 0 019-11.8 14.2 14.2 0 019.54-1.12c.31.08.63.14.95.19-.25-2-.33-5.3 1.39-7.5a6 6 0 015-2.2 1.2 1.2 0 011.2 1.2 1.2 1.2 0 01-1.2 1.2 3.67 3.67 0 00-3.1 1.27c-1.23 1.58-1.11 4.45-.85 6.16a12.77 12.77 0 002.28-.32 14.21 14.21 0 019.56 1.15 16.7 16.7 0 019 11.8 14.76 14.76 0 01-2.83 12.51 16 16 0 01-12.59 5.6zm-6-3a16.38 16.38 0 013.11.3 15.38 15.38 0 002.89.27A13.59 13.59 0 00300.24-40a12.35 12.35 0 002.33-10.52 14.24 14.24 0 00-7.66-10.1 11.79 11.79 0 00-8-.95 14.82 14.82 0 01-3.62.39 1.18 1.18 0 01-.46 0 15.45 15.45 0 01-2.68-.38 11.81 11.81 0 00-8 .95 14.24 14.24 0 00-7.66 10.1A12.41 12.41 0 00266.91-40a13.59 13.59 0 0010.67 4.72 15.46 15.46 0 002.89-.27 16.3 16.3 0 013.11-.28zm4.5-18a1.42 1.42 0 01-.45-.08l-4.55-1.83-4.56 1.83a1.21 1.21 0 01-1.12-.13 1.18 1.18 0 01-.52-1v-3.26l-1.28-.69a1.21 1.21 0 01-.54-1.6 1.2 1.2 0 011.61-.53l2 1a1.2 1.2 0 01.67 1.07v2.23l3.35-1.34a1.15 1.15 0 01.89 0l3.36 1.34v-2.23a1.2 1.2 0 01.82-1.14l3-1a1.2 1.2 0 011.52.76 1.22 1.22 0 01-.76 1.52l-2.18.73v3.13a1.19 1.19 0 01-.53 1 1.18 1.18 0 01-.67.2zm-7 110.29a1.09 1.09 0 01-.46-.1 1.2 1.2 0 01-.65-1.56c0-.07.05-.14.08-.2a8.79 8.79 0 01-5.32-2.8c-2.84-3.08-3.55-7.83-3.29-11 .35-4.33-.3-5.68-.78-6.67a4.61 4.61 0 01-.57-1.7 1.21 1.21 0 01.47-1.08 8 8 0 013.18-1.21v-1.48c0-9.72 1-22.63 9.87-22.63 7.66 0 9.09 10 9.52 14.63a7 7 0 013.54 1.35 1.19 1.19 0 01.47 1.08 5.89 5.89 0 01-.43 1.63c-.39 1-.91 2.43-.91 6.84 0 9.42-.94 21.8-8.78 23a1.21 1.21 0 01-.58 1.6 1.2 1.2 0 01-1.59-.58c-.85-1.79-.44-2.44-.28-2.68a1.41 1.41 0 011.19-.64c5.14 0 7.64-6.77 7.64-20.68 0-4.84.64-6.55 1.06-7.68l.13-.36a4.87 4.87 0 00-2.32-.53h-.35c-3.82.23-6.09 4.36-6.93 12.6a24.44 24.44 0 01.3 7.27 1.2 1.2 0 01-2.39-.22 22.83 22.83 0 00-.14-5.91 1.59 1.59 0 01-.15-.29c-1.37-3.84-3.94-4.15-6.68-4.15H274.97a9.73 9.73 0 00-2.24.51l.09.19c.57 1.17 1.43 2.93 1 7.92-.22 2.65.35 6.64 2.66 9.15a6.55 6.55 0 005 2.12 1.33 1.33 0 011.05.56c.34.5.38 1.1-.34 2.85a1.2 1.2 0 01-1.13.83zm-4.94-26.5a8.69 8.69 0 016.79 2.47c.72-4.48 2.54-10.64 7.78-11.64-.84-8.3-3.18-12.33-7.11-12.33-5 0-7.47 6.61-7.47 20.23.04.4.05.83.05 1.25zM-63.83 219.53a7.08 7.08 0 01-6.08-3c-2.16-3-1.82-6.48 1-10.45.24-.34.5-.69.78-1a6 6 0 01-.88-1c-1.82-2.5-1.54-5.44.8-8.75 1.79-2.52 4.79-5.29 9.18-8.48 6.33-4.59 15.22-10 19.48-4.16a5.92 5.92 0 011 5 6.88 6.88 0 014.47 2.86c2.16 3 1.82 6.48-1 10.45-2.18 3.07-5.85 6.46-11.24 10.37s-9.75 6.36-13.34 7.48a14.24 14.24 0 01-4.17.68zm-1.72-13.84q-.8.92-1.41 1.77c-2.18 3.09-2.52 5.59-1 7.66s4 2.53 7.59 1.41c3.34-1 7.47-3.37 12.65-7.13s8.67-7 10.69-9.82c2.18-3.08 2.52-5.58 1-7.65a4.81 4.81 0 00-4.08-2 .43.43 0 01-.16 0 11.77 11.77 0 00-3.35.6c-3.34 1-7.47 3.37-12.65 7.13a57.21 57.21 0 00-9.15 7.89zm20.81-23.12c-2.89 0-7.2 2.07-12.89 6.2-4.18 3-7 5.63-8.63 7.92-2.28 3.22-1.56 4.94-.82 6a3.72 3.72 0 00.52.59 63.56 63.56 0 018.88-7.53c5.39-3.92 9.75-6.36 13.34-7.48a15.2 15.2 0 013.32-.68 3.64 3.64 0 00-.49-3.47 3.74 3.74 0 00-3.23-1.55zm83.68 31.3a13.92 13.92 0 01-2.87-.3 12 12 0 01-7.2-4.46c-4.78 3.49-10.85 3.74-14.86.46a10.85 10.85 0 01-3.87-8.5 15.7 15.7 0 0112.28-15 10.84 10.84 0 019.1 2.09 10 10 0 011.94 2.11l.29-.18A14.48 14.48 0 0144 188.35a11.79 11.79 0 019 15.48 14.56 14.56 0 01-6.62 8 14.78 14.78 0 01-7.44 2.04zm-8.67-7a9.57 9.57 0 006.3 4.31 12.07 12.07 0 008.56-1.45 12.08 12.08 0 005.54-6.69 9.41 9.41 0 00-7.16-12.39 12.14 12.14 0 00-8.51 1.49c-.38.22-.74.46-1.09.71l-.14.1c-4.51 3.35-6.15 9.17-3.64 13.63a1.09 1.09 0 01.14.33zM24.8 188.2a10.67 10.67 0 00-1.92.19 12.79 12.79 0 00-7.35 4.55 12.72 12.72 0 00-3 8.11 8.5 8.5 0 003 6.66c3.2 2.62 8.16 2.3 12.09-.66-2.44-5.14-.76-11.46 3.89-15.41A7.4 7.4 0 0030 190a8.08 8.08 0 00-5.2-1.8zm89.46 31.94a22.72 22.72 0 01-5.67-.72 22.23 22.23 0 01-6.24-2.67 22.54 22.54 0 01-8.35-9.11 1.18 1.18 0 010-1 1.16 1.16 0 01.78-.67 9.92 9.92 0 014.3-.2 25 25 0 01-1.54-15 1.22 1.22 0 01.9-.92 10.74 10.74 0 014.63.08 17.73 17.73 0 0115.44-7.31 10.66 10.66 0 012.33-2.81 1.18 1.18 0 011.27-.13 25.2 25.2 0 018.93 7.39 13.94 13.94 0 011.79-.84 1.2 1.2 0 011.48.56 22.77 22.77 0 01-.72 22.64 22.25 22.25 0 01-5.28 5.9 22.82 22.82 0 01-14.05 4.81zm-4-2.8a20.4 20.4 0 0016.59-3.93 20.16 20.16 0 004.72-5.27 20.39 20.39 0 001.14-19.26 10.68 10.68 0 00-1.2.71l-.09.07h-.06a8.87 8.87 0 00-3.69 6.08 1.2 1.2 0 01-1.9.79 2.68 2.68 0 00-2.69-.16 6.16 6.16 0 00-3.42 4.89 2 2 0 000 .36 1.23 1.23 0 01-.54.9 1.21 1.21 0 01-1 .14c-1.73-.56-3.43-.64-5.08 4.45l-.08.23c-.83 2.57-1.54 4.78-2.11 7.33a1.47 1.47 0 01-.1.44c-.23.73-.37 1.46-.5 2.23zM97 208a20.22 20.22 0 006.64 6.69 19.81 19.81 0 004.31 2q.12-.72.27-1.41a20.43 20.43 0 01-7.5-6.69 1.25 1.25 0 01-.42-.08A8 8 0 0097 208zm2.78-16a21.91 21.91 0 002.22 14.12 17.7 17.7 0 006.77 6.75c.54-2.15 1.17-4.11 1.86-6.24l.07-.23c.64-2 2.24-6.84 6.75-6.3a8.92 8.92 0 012-3.95 2.17 2.17 0 00-2.26.79 1.21 1.21 0 01-1.88-.25 5.22 5.22 0 00-4.42-2.61 2.17 2.17 0 00-2 1.06 1.2 1.2 0 01-2 .15 7.49 7.49 0 00-3.61-2.82.81.81 0 01-.22-.07 8.31 8.31 0 00-3.31-.4zm19.14 1.63a5.32 5.32 0 012.66.8 5.94 5.94 0 01.57-.27 5.31 5.31 0 013.5-.33 10.94 10.94 0 013.46-5.46 23.23 23.23 0 00-7.29-6.23 8.22 8.22 0 00-1.43 2.06.9.9 0 01-.12.24 7.48 7.48 0 00-.31 5.34 1.18 1.18 0 01-.26 1.15 1.2 1.2 0 01-1.12.37c-1.29-.25-2.31.91-2.77 2.2a7.93 7.93 0 01.82.82 4.27 4.27 0 012.26-.65zm-13.47-2.88a9.6 9.6 0 012.48 1.92 4.82 4.82 0 012.94-1 6.69 6.69 0 012.87.57 5.31 5.31 0 013.58-3.25 9.51 9.51 0 01.23-4h-.08a15.23 15.23 0 00-12.05 5.8zm88.17 28.82a7.69 7.69 0 01-2.51-.42c-5.52-1.88-9.18-15.87-9.18-21 0-6.63 5.14-11.44 12.23-11.44a5.91 5.91 0 013 .87A7.22 7.22 0 01199 187a7.4 7.4 0 011.41-5.34 5 5 0 014-1.62 1.2 1.2 0 010 2.4 2.71 2.71 0 00-2.16.8 5.34 5.34 0 00-.8 3.82 7 7 0 011.53.49 5.91 5.91 0 013-.87c6.63 0 12.23 5.24 12.23 11.44 0 4.31-3.59 18.72-8.89 20.86a8 8 0 01-7.08-.64l-.21-.14a4.77 4.77 0 01-.95.44 3.32 3.32 0 01-2 0 4.2 4.2 0 01-.94-.44l-.31.19a8.11 8.11 0 01-4.24 1.22zm.54-30.5c-5.79 0-9.83 3.72-9.83 9 0 5.09 3.79 17.49 7.55 18.77a5.56 5.56 0 004.42-.4 17.91 17.91 0 01-2.17-3.79 1.2 1.2 0 112.19-1 12.62 12.62 0 002.57 4l.12.1a2.41 2.41 0 00.79.46.83.83 0 00.54 0 2.32 2.32 0 00.76-.44.84.84 0 01.18-.15 9.88 9.88 0 002-2.84 38.17 38.17 0 002.86-8.3 1.2 1.2 0 011.44-.9 1.21 1.21 0 01.9 1.45 41.09 41.09 0 01-3.06 8.85 15.31 15.31 0 01-1.54 2.47 5.49 5.49 0 004.58.26c3.79-1.53 7.38-14.36 7.38-18.63 0-4.9-4.5-9-9.83-9a2.76 2.76 0 00-.57.06 10.94 10.94 0 013.24 4.08 1.2 1.2 0 01-2.19 1 9.72 9.72 0 00-4-4.18 4.62 4.62 0 00-4.88 0 9.77 9.77 0 00-3.88 4 1.21 1.21 0 01-1.6.57 1.19 1.19 0 01-.57-1.6 11 11 0 013.14-3.88 2.67 2.67 0 00-.57.08zm6.12-52.65a27 27 0 01-9.71-1.91 22.43 22.43 0 01-6.77-4.07 22.73 22.73 0 01-7.37-21.41 1.18 1.18 0 011.24-1 12.26 12.26 0 015.4 1.58 6.5 6.5 0 012.4-1.35 5.7 5.7 0 01-.15-1.3 6.39 6.39 0 016.32-6.46 6.23 6.23 0 012.67.55 6.4 6.4 0 0112.5-.14 6.28 6.28 0 012.65-.61 6.39 6.39 0 016.46 6.33 5.67 5.67 0 01-.12 1.3 6.38 6.38 0 012.61 1.46 12.68 12.68 0 014.23-.84 1.16 1.16 0 011.21 1 22.7 22.7 0 01-14.95 25 19.85 19.85 0 01-8.65 1.91zm-21.68-25.85a20.36 20.36 0 006.77 18.06 20 20 0 006.06 3.64c6 2.31 11.83 2.34 16.46.09l.44-.22a69.88 69.88 0 00-5.5-9.93 15.26 15.26 0 00-1.74-2.11c-1.59-1.55-2.77-1.71-4.39-.58a1.19 1.19 0 01-1 .17 1.23 1.23 0 01-.77-.69c-.05-.12-.07-.18-.1-.24l-.06-.11A6.19 6.19 0 00190 115a2.71 2.71 0 00-2.53 1 1.2 1.2 0 01-2.05-.2 9 9 0 00-6.85-5.19zm26.18 10.18a73.82 73.82 0 015.77 10.41 20 20 0 003.62-2.34 20.39 20.39 0 007.41-17.82 9 9 0 00-7 4.85 1.16 1.16 0 01-.8.61 1.18 1.18 0 01-1-.2c-2.76-2-5.25-1.32-9.26 2.86.38.44.77 1 1.2 1.55zm-6.2-4.44a5.34 5.34 0 013.24 1.2c2.55-2.71 6.61-6.38 11.31-3.83a11 11 0 012.94-3 4 4 0 00-1.89-.53 1.21 1.21 0 01-1-.58 1.17 1.17 0 01-.07-1.13 3.87 3.87 0 00.39-1.74 4 4 0 00-4-4h-.05a3.94 3.94 0 00-2.91 1.33 1.17 1.17 0 01-1.41.27 1.19 1.19 0 01-.66-1.28 3.94 3.94 0 00-3.93-4.68 4 4 0 00-3.95 4 3.36 3.36 0 00.08.72 1.2 1.2 0 01-.63 1.29 1.18 1.18 0 01-1.42-.24 4 4 0 00-2.94-1.26 4 4 0 00-3.95 4 3.84 3.84 0 00.43 1.72 1.21 1.21 0 010 1.14 1.23 1.23 0 01-1 .59 4 4 0 00-2.06.7 11.19 11.19 0 011.77 2.13 5.29 5.29 0 013.44-.72 8.44 8.44 0 016.23 4.25 5.06 5.06 0 012.01-.31z"/></svg>