<svg height="100" width="100" xmlns="http://www.w3.org/2000/svg"><path d="M51.602 2.078c-4.875 1.508-8.683 5.474-10.952 10.734-4.402-2.187-8.578-3.478-12.97-2.537a2.002 2.002 0 00-1.024.557c-5.25 5.466-5.543 14.556-1.427 22.92 3.942 8.01 12.045 15.517 24.294 19.18-1.469 3.428-1 13.614-4.064 24.003-1.036-5.253-4.452-10.117-8.44-13.858-4.497-3.736-9.863-7.873-15.606-7.64-1.805.038-2.923.767-3.413 2.258 0 5.312 1.784 11.985 5.864 17.539 3.878 5.278 10.005 9.434 18.306 9.836-2.486 4.707-6.036 9.085-11.263 12.435 1.986 0 5.95-.976 7.353.495 5.818-4.13 8.811-10.39 10.705-17.168 8.877.603 17.598-5.394 20.757-9.558 4.08-5.553 5.864-12.226 5.864-17.539-.424-1.919-1.826-2.057-3.413-2.258-6.087.25-11.655 3.948-15.638 7.64a34.692 34.692 0 00-4.126 4.61c.938-3.824 1.697-7.899 3.226-11.012 11.828-3.743 19.69-11.12 23.55-18.962 4.116-8.365 3.791-17.455-1.458-22.921a2.001 2.001 0 00-.993-.557c-4.321-.942-8.867.07-13 2.537-2.28-5.257-6.08-9.226-10.953-10.734-.452-.09-.814-.117-1.179 0zm.59 4.114c5.072 1.945 9.172 8.005 9.835 16.116.647 7.917-2.115 17.447-9.835 26.045-7.713-8.595-10.483-18.131-9.836-26.045.663-8.11 4.763-14.171 9.836-16.116zM39.315 16.709a30.97 30.97 0 00-.9 5.29c-.647 7.923 1.584 17.095 7.82 25.55-8.748-3.671-14.482-9.554-17.438-15.56-3.461-7.032-2.977-13.957.435-17.94 3.57-.465 7.61 1.065 10.083 2.66zm35.867-2.63c3.397 3.987 3.89 10.89.435 17.91-2.956 6.006-8.69 11.889-17.437 15.56 6.235-8.455 8.466-17.627 7.818-25.55a30.89 30.89 0 00-.868-5.259c3.173-1.595 6.623-3.066 10.052-2.66zM71.46 55.592c-.369 4.152-1.926 9.197-4.964 13.332-3.187 4.339-7.877 7.131-14.52 7.68-.324-5.184 2.778-10.375 7.29-14.609 3.529-2.768 7.747-6.6 12.194-6.403zM34.32 65.954c4.513 4.234 7.615 9.818 7.291 15.002-6.65-.546-11.362-3.733-14.551-8.073-3.038-4.135-4.564-9.18-4.933-13.332 4.727.282 9.259 3.684 12.193 6.403z" overflow="visible" color="#000"/></svg>