<svg height="100" width="100" xmlns="http://www.w3.org/2000/svg" data-name="01-artichoke" viewBox="0 0 48 48"><path d="M29 48H19a1 1 0 01-1-1c0-2.849-1.412-4-2-4v-2c1.785 0 3.625 1.85 3.95 5h8.1c.325-3.15 2.165-5 3.95-5v2c-.588 0-2 1.151-2 4a1 1 0 01-1 1z"/><path d="M24 44c-3.744 0-6.609-1.175-8.285-3.4l1.6-1.2C18.934 41.549 21.844 42 24 42c5.309 0 8-2.439 8-7.25 0-5.211-6.426-12.113-8-12.729-1.574.616-8 7.518-8 12.729a9.333 9.333 0 00.429 2.941l-1.9.634A11.272 11.272 0 0114 34.75C14 28.373 21.75 20 24 20s10 8.373 10 14.75C34 40.628 30.355 44 24 44z"/><path d="M7.624 37.926a7.71 7.71 0 01-4.582-4.294C.563 28.257 3.023 18.123 5.09 17.148c.4-.188 1.107-.316 3.025.383 3.294 1.2 8.89 4.489 10.8 8.635.068.146.132.293.194.439l-1.842.778a13.27 13.27 0 00-.167-.377C15.053 22.562 7.656 19.1 5.96 19c-1.016 1.376-3.158 9.335-1.1 13.794a5.715 5.715 0 003.518 3.28zM5.808 19zm.252-.119M40.376 37.927l-.752-1.854a5.7 5.7 0 003.518-3.279C45.2 28.335 43.056 20.376 42.04 19c-1.7.1-9.093 3.562-11.141 8-.061.131-.117.258-.17.384l-1.843-.774q.093-.224.2-.45c1.911-4.143 7.507-7.433 10.8-8.632 1.918-.7 2.624-.573 3.025-.383 2.067.975 4.527 11.109 2.048 16.484a7.708 7.708 0 01-4.583 4.298zM42.192 19z"/><path d="M9 19H7c.008-3.382 1.331-8.238 2.806-8.874 1.436-.618 6.519 1.57 9.545 4.108l-1.285 1.532a18.894 18.894 0 00-7.434-3.758A15.551 15.551 0 009 19zm1.46-7zM39 19a15.546 15.546 0 00-1.632-7 18.9 18.9 0 00-7.436 3.76l-1.286-1.532c3.027-2.54 8.111-4.729 9.548-4.11 1.474.635 2.8 5.491 2.806 8.874zM32.675 24.251l-1.936-.5A9.033 9.033 0 0031 21.5a7.014 7.014 0 00-.132-1.313l1.965-.374A9.049 9.049 0 0133 21.5a11 11 0 01-.325 2.751z"/><path d="M15.324 24.247A11 11 0 0115 21.5C15 15.663 21.976 8 24 8c1.809 0 6.438 5.079 8.2 9.642l-1.866.719c-1.576-4.083-5.273-7.811-6.334-8.328-1.475.693-7 6.81-7 11.467a9 9 0 00.26 2.246zm8.79-14.26h-.228z"/><path d="M34.788 12.258A14.349 14.349 0 0031 6.124a14.718 14.718 0 00-3.5 5.229l-1.871-.706C26.726 7.745 29.526 4 31 4c1.585 0 4.848 4.418 5.723 7.75z"/><path d="M20.5 7.353l-1.871-.706C19.726 3.745 22.526 0 24 0s4.271 3.741 5.366 6.641l-1.866.707A14.74 14.74 0 0024 2.127a14.737 14.737 0 00-3.5 5.226zm3.737-5.4zm-.48 0z"/><path d="M13.213 12.254l-1.935-.508C12.154 8.416 15.417 4 17 4c1.449 0 4.3 3.809 5.371 6.652l-1.872.705A14.723 14.723 0 0017 6.124a14.336 14.336 0 00-3.787 6.13zM23 44c-9 0-17-5.033-17-9 0-2.966 8.632-3 9-3v2c-3.737 0-6.35.724-6.983 1.193C8.378 37.375 14.592 42 23 42zM25 44v-2c8.408 0 14.622-4.625 14.983-6.807C39.35 34.724 36.737 34 33 34v-2c.368 0 9 .034 9 3 0 3.967-8 9-17 9z"/></svg>