<svg height="100" width="100" xmlns="http://www.w3.org/2000/svg"><path d="M86.031 24.774c.44-2.59-1.23-5.303-1.308-5.429a.999.999 0 00-.983-.46c-.027.003-2.71.365-4.99.365-2.232 0-3.838 2.076-4.525 3.163-1.069-.318-3.438-1.404-5.386-2.424a.996.996 0 00-.95.012l-2.25 1.25c-.055.03-.108.067-.157.107-2.388 2.001-3.402 4.173-3.864 6.006-.056-.046-.103-.1-.17-.134-1.23-.613-3.509-.727-4.803-.738-.33-1.615-1.407-3.243-2.84-4.199-.24-.16-.541-.612-.833-1.05-1.007-1.51-2.692-4.039-7.203-2.966-1.774.422-2.552 1.479-2.892 2.29-1.298 3.093 1.45 7.798 1.767 8.325.162.268.44.445.752.478 1.366.143 2.215.475 2.672 1.043.408.506.555 1.297.438 2.352-.05.45-.19 1.034-.57 1.256-.41.24-1.075.098-1.405-.014-3.252-2.92-5.05-3.882-6.388-3.42-.51.174-1.162.64-1.377 1.864-.15.847-2.729 1.9-4.95 2.316a.987.987 0 00-.327.132c-5.896-3.971-12.597-6.383-18.821-6.648a1.011 1.011 0 00-1.042.957 1 1 0 00.956 1.041c4.358.186 9.089 1.565 13.555 3.84-.436 1.032-1.374 2.926-2.331 3.589a1 1 0 001.138 1.644c1.397-.967 2.468-3.132 2.96-4.273a40.843 40.843 0 017.541 5.535l.702.652c3.221 2.989 6.836 6.347 8.096 10.403-2.613-1.574-4.966-.82-6.937-.182-1.06.343-2.06.668-3.056.668-.979 0-1.365-.217-1.44-.345-.1-.172.022-.606.157-.862.766-1.042 3.931-5.653 1.764-7.975a2.067 2.067 0 00-1.688-.679c-1.888.077-4.273 2.482-5.544 3.929-1.169-1.145-2.727-1.855-4.031-2.45-.785-.358-1.972-.9-2.096-1.19l-.035-.542c-.113-1.829-.254-4.105-1.79-5.5-.873-.796-2.19-.891-3.586-.993-1.417-.103-2.883-.21-3.8-1.018-1.93-1.704-3.85-6.103-3.868-6.147a1 1 0 00-1.836.794c.085.197 2.115 4.853 4.382 6.853 1.422 1.254 3.393 1.398 4.977 1.513.995.072 2.024.147 2.386.477.935.85 1.048 2.677 1.139 4.145l.037.561c.101 1.427 1.565 2.094 3.26 2.866 1.49.68 3.181 1.452 4.026 2.737.177.268.47.436.792.45.321.005.628-.127.828-.378 1.29-1.63 3.72-4.063 4.841-4.108.111-.005.117.015.144.044.767.823-.637 3.706-1.947 5.472a1.36 1.36 0 00-.058.087c-.096.163-.92 1.63-.192 2.904.513.9 1.582 1.355 3.178 1.355 1.31 0 2.512-.39 3.673-.766 2.43-.787 4.352-1.406 6.929 1.363.21 1.63.29 3.36.248 5.166-3.275.539-7.253 1.728-8.353 2.066-1.054-.643-2.05-.7-2.118-.703a1.008 1.008 0 00-1.035.946 1.005 1.005 0 00.94 1.052c.066.004 1.606.121 2.334 1.778a1 1 0 101.83-.804 5.407 5.407 0 00-.35-.66c1.572-.458 4.299-1.207 6.66-1.63-.003.04-.002.077-.005.117a1 1 0 101.994.15c.014-.184.013-.359.024-.541.176-.015.352-.029.513-.034.32-.012.613-.014.904-.016l-.039.172a1 1 0 101.952.438c.003-.016.048-.215.126-.552 1.478.102 2.256.297 2.265.3A1 1 0 0055 62c.31 0 .6.016.891.032-.01.312-.015.516-.016.573a1 1 0 00.98 1.02h.02a1 1 0 001-.98l.01-.364c2.898.585 4.505 1.964 5.267 2.858-.676.216-1.303.48-1.817.696l-.344.144c-1.27.529-2.749 1.106-4.231 1.278a1 1 0 10.23 1.986c1.739-.2 3.373-.837 4.77-1.417l.351-.148c2.744-1.158 4.181-1.433 4.923.127a1 1 0 001.807-.86c-.823-1.729-2.139-2.237-3.506-2.21-.586-.933-2.659-3.63-7.355-4.475.106-1.798.312-4.38.707-6.946.23.014.462.026.69.026.893 0 1.747-.117 2.424-.435 2.669-1.256 2.699-4.157 2.699-4.28a.997.997 0 00-.992-.996c-.593-.01-1 .439-1.008.989-.001.071-.045 1.769-1.55 2.477-.453.213-1.144.268-1.915.235.39-1.955.907-3.767 1.597-5.047l4.032-.672a1 1 0 00-.328-1.972l-2.159.36a76.454 76.454 0 011.659-2.132c.012 0 .022.008.034.008.627.023 4.099 1.199 7.088 2.318.312.496.706 1.114 1.14 1.778-.665.967-1.977 3.1-1.706 4.583a.999.999 0 101.966-.358c-.075-.417.379-1.446.957-2.414.996 1.434 1.985 2.726 2.53 3.066.16.1.336.148.509.148.32 0 .632-.163.828-.453.3-.447.17-1.068-.267-1.384-.54-.391-2.597-3.383-4.27-6.04l.12-1.814c5.45 2.823 7.92-.304 8.03-.45a1 1 0 00.075-1.099c-1.879-3.31-1.287-7.278-.951-8.812 5.114-.417 7.706-1.49 7.706-3.194 0-1.412-.815-2.404-1.594-2.976zM39.508 39.77l-.697-.648a42.85 42.85 0 00-3.225-2.713c1.875-.509 4.796-1.612 5.148-3.61.036-.202.081-.299.077-.322.22-.012 1.2.144 4.52 3.14.078.072.168.13.267.174.19.083 1.895.794 3.333-.034.612-.353 1.38-1.12 1.563-2.772.178-1.602-.114-2.89-.868-3.826-.924-1.149-2.35-1.545-3.506-1.714-.788-1.448-2.094-4.451-1.398-6.105.151-.361.473-.87 1.51-1.117 3.155-.75 4.087.648 5.077 2.13.419.629.815 1.223 1.386 1.604 1.171.78 2.055 2.304 2.055 3.543a1.002 1.002 0 001.033 1c1.356-.043 3.845.057 4.77.52a.993.993 0 00.755.055c-.051.43-.082.824-.108 1.164-.024.322-.054.71-.093.899-.399.255-1.764.569-2.6.76-1.13.26-2.164.504-2.957.854-1.136-3.935-6.213-9.304-6.83-9.945a1 1 0 10-1.44 1.386c1.674 1.743 6.104 6.88 6.479 9.69.024.178.105.33.208.464-.281.66-.577 1.583-.925 2.673-.05-.002-.096-.02-.146-.015-1.368.144-3.8 1.7-5.954 3.271-.711-.768-3.485-2.823-4.35-3.458a1 1 0 00-1.184 1.614c1.568 1.15 3.383 2.548 3.923 3.056a83.8 83.8 0 00-2.21 1.775c-1.175-1.229-2.42-2.385-3.613-3.493zm9.958 19.855c-.112.004-.236.016-.354.023.042-2.648-.174-5.141-.65-7.433-.587-2.821-2.122-5.265-3.997-7.466 2.454-2.04 6-4.675 7.847-5.498-.374 1.082-.772 2.099-1.16 2.72-1.379 2.205-1.066 8.389-1.025 9.087a1 1 0 101.996-.116c-.138-2.39-.062-6.651.725-7.912.778-1.245 1.464-3.405 2.07-5.31.394-1.238.802-2.517 1.042-2.924.216-.23 1.087-.484 1.936-.696-.002.072-.016.143-.002.216.006.035.63 3.534-1.792 8.495-2.03 4.154-4.225 12.76-5.195 16.8-.45-.004-.923-.003-1.441.014zm6.52.414c-.286-.015-.565-.037-.867-.039-.287-.065-1.027-.206-2.174-.3.443-1.82 1.097-4.411 1.852-7.072a22.94 22.94 0 001.908.437c-.402 2.592-.61 5.154-.719 6.974zM79.06 29.002a1 1 0 00-.89.701c-.072.234-1.678 5.542.585 10.317-.806.505-2.76 1.097-6.333-1.232a1 1 0 00-1.544.771l-.16 2.41c-1.585-.581-3.917-1.407-5.47-1.827 1.944-2.334 4.2-4.907 6.298-7.21l2.626.547a1 1 0 10.408-1.958l-1.456-.303c2.375-2.552 4.34-4.52 5.066-5.018a1 1 0 10-1.128-1.65c-1.17.8-4.324 4.043-7.703 7.792-.37-1.661-1.02-3.718-1.282-4.526a1 1 0 10-1.902.618c.745 2.293 1.509 5.133 1.457 5.706-.005.044.01.084.011.127-3.595 4.08-7.115 8.365-8.492 10.58-.946 1.523-1.62 3.813-2.1 6.246a20.27 20.27 0 01-1.692-.386c.813-2.704 1.7-5.297 2.54-7.018 2.743-5.614 1.99-9.593 1.957-9.76-.02-.099-.066-.182-.112-.266 1.76-.424 2.795-.788 3.171-1.632.189-.424.227-.934.28-1.64.135-1.787.362-4.766 3.501-7.44l1.696-.94c2.105 1.083 5.311 2.617 6.47 2.483.335-.037.63-.244.783-.545.378-.75 1.676-2.699 3.106-2.699 1.716 0 3.59-.186 4.574-.3.48.982 1.08 2.686.613 3.954a1 1 0 00.544 1.265c.011.005 1.055.48 1.14 1.456-.59.545-3.574 1.177-6.562 1.377z"/><path d="M77.645 44.803a1 1 0 00-1.79.894c.776 1.552 3.782 4.772 5.506 6.556-2.603.735-6.595 1.796-7.92 1.874-1.92.11-5.43-1.092-6.046-2.324a1 1 0 00-1.79.894c1.045 2.09 5.098 3.436 7.59 3.436.126 0 .247-.003.364-.01 2.176-.128 9.182-2.18 9.974-2.414a1 1 0 00.424-1.666c-1.498-1.498-5.552-5.72-6.312-7.24zM66.414 68.94a1 1 0 00-.225 1.395c.656.908.414 3.055-.148 4.614-.542 1.508-1.432 2.927-2.54 4.145-.053-.022-.097-.056-.154-.07-5.736-1.301-12.79 1.428-13.087 1.545a1 1 0 10.73 1.862c.062-.024 5.759-2.226 10.676-1.657-1.503 1.143-3.213 1.943-4.929 2.223-3.02.492-8.783.997-13.443-1.155a1 1 0 10-.838 1.815c2.943 1.36 6.237 1.768 9.126 1.768 2.157 0 4.089-.228 5.478-.454 4.692-.766 9.16-4.609 10.864-9.345.154-.43 1.468-4.273-.113-6.461a.999.999 0 00-1.397-.226zM37.429 73.55c.437.315 1.057.21 1.385-.22.008-.01.878-1.104 3.722-1.205 3.204-.116 6.937 1.167 8.142 1.77a1 1 0 10.895-1.79c-1.117-.558-5.178-2.108-9.11-1.98-3.899.14-5.163 1.873-5.295 2.07a.985.985 0 00.26 1.354z"/><path d="M42.896 81.129a1 1 0 10.543-1.925c-.264-.074-.533-.163-.805-.253-.955-.314-2.036-.671-3.17-.552a2.76 2.76 0 00-.798.213c-3.827-2.96-3.308-9.185-1.633-12.818a1 1 0 00-1.816-.838c-2.259 4.898-2.213 11.663 2.072 15.124a3.36 3.36 0 00-.203.928 1 1 0 101.994.15c.054-.713.392-.748.594-.77.712-.078 1.532.199 2.334.463.3.099.597.196.888.278z"/></svg>