<svg height='100px' width='100px'  fill="#000000" xmlns="http://www.w3.org/2000/svg" xmlns:xlink="http://www.w3.org/1999/xlink" version="1.1" x="0px" y="0px" viewBox="0 0 100 100" style="enable-background:new 0 0 100 100;" xml:space="preserve"><style type="text/css">
	.st0{fill:none;stroke:#000000;stroke-width:3;stroke-linecap:round;stroke-linejoin:round;stroke-miterlimit:10;}
</style><g><path d="M47.9,91.7c-23.3,0-43-20.3-43-44.4c0,0,0,0,0,0c0,0,0,0,0,0c0,0,0,0,0,0c0,0,0,0,0,0c0-0.2,0-0.4,0.1-0.5   c0.1-0.2,0.2-0.3,0.3-0.5c0,0,0,0,0,0c0,0,0,0,0,0c0,0,0,0,0,0c1.8-1.8,3.7-3.3,5.7-4.6l0.4-10.9c0-0.4,0.2-0.7,0.4-1   c2.8-2.8,6.2-4.8,10.1-6.1c0-0.2,0.1-0.3,0.2-0.4c2.7-4.4,6.6-7.9,11.5-10.4c0.1,0,0.1-0.1,0.2-0.1c0.1-0.1,0.2-0.1,0.3-0.2   c0.1-0.1,0.2-0.1,0.3-0.2c0.1,0,0.1-0.1,0.2-0.1c13.5-6,29.9-2.2,38.4,8.9l2.4-2.4c0.4-0.4,1.1-0.5,1.7-0.3   c0.2,0.1,19.6,10.4,14.5,30.9c0.7,0,1.4,0,2.1,0c0.8,0,1.4,0.6,1.4,1.4C95,73,73.4,91.7,47.9,91.7z M34,73.8c0.3,1,0.7,2,1.1,3   c2.5,5.8,7.1,10.1,12.8,12c0,0,0.1,0,0.1,0C61.8,88.8,73,77.5,73,63.7c0-9.1-5.8-14.7-10.8-16.8c-4.4-1.8-8.7-1.3-11.4,1.4   c-0.3,0.3-0.8,0.5-1.2,0.4c-0.4,0.1-0.9-0.1-1.2-0.4C37.3,37.1,19.1,36.9,7.8,47.8C8,67.5,22.3,84.3,40.4,88   c-3.4-2.5-6.1-6-7.9-10.1c-2.9-6.5-3.1-14-0.7-21c0.3-0.8,1.1-1.2,1.8-0.9c0.8,0.3,1.2,1.1,0.9,1.8c-1.5,4.3-1.8,8.7-1.1,13   c5,0.7,9.8-3.1,10.8-8.7c0.1-0.8,0.9-1.3,1.7-1.2c0.8,0.1,1.3,0.9,1.2,1.7C45.8,69.4,40.1,74.1,34,73.8z M75.9,63.7   c0,8.9-4.2,16.8-10.7,22C80.4,80,91.4,67.1,92.1,52.4c-4.7,0.2-16.2,1.6-16.2,10.2c0,0.1,0,0.1,0,0.2   C75.9,63.1,75.9,63.4,75.9,63.7z M57.1,43c2,0,4.1,0.4,6.2,1.3c4.4,1.8,9.3,6,11.5,12.4c2.2-3.3,6.5-6,13.7-6.9   c4.7-16.7-8.2-25.9-11.9-28.1l-6.7,6.7c-0.4,0.4-1,0.5-1.5,0.3c-10.3-3.5-21.4,1.9-25.1,12.1c2.3,1.3,4.4,2.8,6.4,4.6   C51.7,43.8,54.3,43,57.1,43z M14.3,31.4L14,40.1c8.4-4.1,18.2-4.2,26.7-0.5c1.2-3.3,3.2-6.2,5.7-8.5C38,23.2,22.8,23.4,14.3,31.4z    M30.7,22.4c6.9,0,13.4,2.5,17.9,6.8c5.6-4,12.9-5.5,19.9-3.4l2.5-2.5C63.2,13,47.8,9.4,35.3,15.2c-3.8,1.8-6.9,4.4-9.3,7.5   c1.5-0.2,3-0.4,4.6-0.4C30.6,22.4,30.6,22.4,30.7,22.4z"></path></g></svg>