<svg height="100" width="100" xmlns="http://www.w3.org/2000/svg"><path d="M74.438 49.039c-7.05-1.563-13.426-.452-18.767 3.119-.47-.953-1.104-1.903-1.892-2.841.08-.04.162-.077.232-.14 1.344-1.187 3.669-1.66 5.721-2.079 1.367-.278 2.659-.542 3.591-1.007 1.543-.771 5.75-3.698 6.68-7.943.558-2.551-.145-5.07-2.089-7.49-6.064-7.547-12.572-3.817-18.314-.522-1.215.697-2.472 1.418-3.695 2.021-5.618 2.769-6.588 6.054-6.678 7.742-.419-.165-.837-.33-1.267-.488-6.247-2.302-12.372-2.083-16.807.599-3.422 2.068-5.525 5.419-6.084 9.688-.453 3.463.461 6.558 2.645 8.948 2.215 2.426 6.828 5.233 16.271 4.865 2.784-.11 5.46.202 8.05.503 1.495.174 2.921.335 4.27.404a10.351 10.351 0 00.104 3.58 10.3 10.3 0 004.463 6.566 10.287 10.287 0 005.637 1.704h.005c.212.009.42.013.622.013 3.712 0 5.824-1.438 7.867-2.829 1.75-1.191 3.403-2.317 6.132-2.474 5.239-.299 11.447-1.514 12.958-8.309.587-2.641-.254-5.742-2.306-8.51-1.942-2.613-4.688-4.528-7.349-5.12zm-33.075-8.515c-.029-.139-.645-3.441 5.48-6.461 1.284-.633 2.57-1.37 3.813-2.084 5.728-3.284 10.672-6.123 15.6.011 1.521 1.894 2.083 3.812 1.669 5.704-.747 3.413-4.349 5.895-5.552 6.495-.681.34-1.84.576-3.066.826-2.312.472-4.934 1.006-6.702 2.568a1 1 0 00-.2.265 26.7 26.7 0 00-2.317-2.002c.238-.038.458-.102.636-.222.374-.253.589-.663.589-1.126a1.063 1.063 0 00-1.795-.77 4.987 4.987 0 01-.713-.217 1.05 1.05 0 00-1.326.512 46.69 46.69 0 00-6.111-3.235c.001-.088.014-.175-.005-.264zm.916 21.378c-2.546-.296-5.433-.629-8.379-.516-6.824.268-11.876-1.173-14.616-4.174-1.748-1.914-2.477-4.417-2.107-7.239.473-3.605 2.228-6.422 5.077-8.145 3.821-2.31 9.416-2.469 14.972-.424 8.439 3.108 14.795 7.701 16.7 12.04a27.953 27.953 0 00-4.692 4.865 1.048 1.048 0 00-.661.113c-.533.301-1.022-.114-1.12-.205a1.063 1.063 0 00-1.495 1.511c.324.325.948.722 1.704.864a10.411 10.411 0 00-.824 1.718c-1.4-.047-2.935-.219-4.559-.408zm39.736.308c-.962 4.33-4.149 6.256-11.003 6.646-3.317.19-5.295 1.537-7.208 2.84-1.858 1.265-3.613 2.46-6.67 2.46-.173 0-.351-.004-.577-.012a8.225 8.225 0 01-4.52-1.356 8.194 8.194 0 01-3.549-5.221 8.2 8.2 0 011.183-6.201c4.686-7.136 11.116-10.908 18.597-10.908 1.825 0 3.746.221 5.709.657 4.371.972 9.053 6.527 8.038 11.095z"/><path d="M76.102 53.556a1.06 1.06 0 00-1.472.304 1.062 1.062 0 00.304 1.472c1.463.963 2.712 2.472 3.341 4.037a1.063 1.063 0 101.972-.793c-.796-1.982-2.308-3.812-4.145-5.02zM27.569 44.994c-.564.162-.892.75-.73 1.314.137.477-.203.772-.315.854-.477.328-.604.98-.281 1.464a1.062 1.062 0 001.474.296c.65-.433 1.627-1.593 1.168-3.198a1.072 1.072 0 00-1.316-.73zM34.665 53.962c-.587 0-1.063.477-1.063 1.063 0 .135-.379.362-.673.442a1.064 1.064 0 00.263 2.093c.086 0 .173-.011.259-.032.846-.212 2.277-.977 2.277-2.503a1.062 1.062 0 00-1.063-1.063zM44.272 48.298a1.062 1.062 0 00-1.44.431c-.187.344-.708.186-.816.149a1.06 1.06 0 00-1.358.626c-.206.55.072 1.163.622 1.368.285.107.687.195 1.126.195.809 0 1.742-.299 2.298-1.329a1.065 1.065 0 00-.432-1.44zM52.271 40.049c.354 0 .71-.088 1.053-.294.503-.303.688-.963.385-1.466a1.037 1.037 0 00-1.438-.37h-.005c-.159 0-.574-.268-.829-.536a1.063 1.063 0 00-1.555 1.45c.593.637 1.481 1.216 2.389 1.216zM59.406 37.969a3.45 3.45 0 001.398.298c.704 0 1.485-.229 2.08-.955a1.064 1.064 0 00-1.646-1.346c-.286.348-.901.09-.941.072a1.063 1.063 0 00-.891 1.931zM56.02 62.009c-.535.306-1.023-.113-1.121-.204a1.062 1.062 0 00-1.493 1.513c.398.398 1.237.928 2.236.928.453 0 .939-.109 1.433-.391a1.063 1.063 0 10-1.055-1.846zM69.049 61.868c-.26 0-.396-.202-.408-.602a1.063 1.063 0 00-1.062-1.053h-.001c-.587 0-1.062.476-1.062 1.062-.001.107.013.67.274 1.26.412.927 1.235 1.459 2.259 1.459a1.064 1.064 0 000-2.126zM26.059 56.923c-.032-.006-3.282-.648-4.663-2.948a9.337 9.337 0 01-.753-1.565 1.063 1.063 0 00-1.998.724c.232.643.544 1.292.928 1.933 1.88 3.133 5.925 3.915 6.097 3.946a1.062 1.062 0 001.236-.848 1.065 1.065 0 00-.847-1.242zM19.242 50.963a1.063 1.063 0 001.062-1.052 1.73 1.73 0 00-.004-.163c-.066-1.023-.875-1.088-1.044-1.09-.031 0-1.005.012-1.074 1.063l-.002.049-.001.045v.072a1.062 1.062 0 001.051 1.074l.012.002z"/></svg>