<svg height="100" width="100" xmlns="http://www.w3.org/2000/svg" data-name="Layer 1" viewBox="0 0 53.85 96"><path d="M44.46 49.81a28.67 28.67 0 002.64-5.61c1.13-3.46 2.37-8.66.37-14.13 4.9-6.82 8-16.12 5.53-22.09-1.63-4-4.68-6.65-8.17-7.07-2.95-.36-5.82.88-8.24 3.49a7.89 7.89 0 00-1.9-2A12.41 12.41 0 0027.15 0a18 18 0 00-8.74 2.34 4.82 4.82 0 00-1.92 2.3c-2.8-2.42-5.88-3.59-8.64-3C.16 3.38-.89 13.84.56 22.27c1.09 6.34 10.15 19.93 11.15 21.41l.12.38v8.11c.16 4.36-.66 9.68-1.46 14.82-1 6.16-1.86 12-1.1 16.22a13.41 13.41 0 007.2 9.65 11.26 11.26 0 004.9 1.3l.16.2A4.21 4.21 0 0024.82 96h6.93a4.23 4.23 0 003.09-1.34l.06-.06.34-.38a11.53 11.53 0 004.57-1.3A13.41 13.41 0 0047 83.27c.77-4.27-.13-10.06-1.08-16.27-.8-5.14-1.62-10.46-1.45-14.85zm.17-47.24c2.88.35 5.43 2.61 6.83 6 2.06 5.08-.6 14.05-5.46 20.7a.83.83 0 00-.23.31 26 26 0 01-5 5.1 18.83 18.83 0 01-5.16 2.73.83.83 0 00-.19.11l-3.29 2.61c-1.32.57-2.53 1.16-3.61 1.75a2.47 2.47 0 00-.64.52 70 70 0 012.07-12.15 16.31 16.31 0 001-2.58c1.49-2.08 5.56-7.33 7.84-8.52a.834.834 0 10-.77-1.48c-2 1-4.66 4.16-6.5 6.5.85-5.48 2.26-13.31 5.21-17.36 2.25-3.06 5.06-4.58 7.9-4.24zM28.77 91a9.57 9.57 0 00-1.56-.07 8.58 8.58 0 00-2.56-3.47 17.28 17.28 0 01-3.55-5.1c0-7.93 1.79-14.68 3.36-20.65.27-1 .53-2 .78-3 .53-2.13.94-4.24 1.34-6.29.35-1.81.8-4.13 1.33-6v-.11c.42-1.46.89-2.58 1.4-2.86.73-.4 1.53-.81 2.38-1.2 0 3-.05 7.32.06 10.21a46.88 46.88 0 001.85 9l.34 1.23c1.07 3.82 3.58 12.75 2.34 16.82a48.63 48.63 0 01-2.7 6A36.85 36.85 0 0128.77 91zM17.63 47.52a45.61 45.61 0 01-.12-7.26.84.84 0 000-.22c-.1-.48-.27-1.47-.46-2.64l.87 2.17a14.19 14.19 0 005.26 6.36l1.74 6.29c-.38 2-.78 4-1.29 6-.24 1-.5 2-.77 3a92.88 92.88 0 00-3.26 17.23 47.27 47.27 0 01-2.36-14.21c0-.47-.06-.92-.09-1.36s-.08-1.08-.09-1.55a31.49 31.49 0 00-.23-3.4c.37-2.39 1.09-8.27.8-10.41zm.38-42.15a2.93 2.93 0 011.27-1.61 16.27 16.27 0 017.85-2.1 10.89 10.89 0 016.5 2h.06c.94.69 1.89 1.84 1.66 2.21-3.43 4.89-4.84 13.83-5.74 19.76-.08.55-.16 1.07-.24 1.55a14.63 14.63 0 01-.93 2.47.82.82 0 00-.06.15c-.11.41-2.72 10.11-2.09 16.21-.22.78-.44 1.67-.65 2.64l-1-3.38a.83.83 0 00.19-.72c-1-4.86-.66-9.54-.33-14.08.37-5.22.73-10.14-.95-14.86a27.75 27.75 0 00-5.2-9.11 1.44 1.44 0 01-.34-1.13zm-.94 2.2a26.23 26.23 0 014.95 8.58c1.56 4.39 1.22 9.15.85 14.19a55.34 55.34 0 00.16 13.43 11.94 11.94 0 01-3.6-4.77l-3.57-9.1c-.71-4.78-.23-14.4 0-17.41.17-2.21-.88-5.42-1.7-7.55a17 17 0 012.92 2.63zM2.19 22c-1.06-6.21-1-17.13 6-18.72a6.25 6.25 0 013.63.36c.52 1.19 2.56 6 2.36 8.69-.25 3.3-.72 13 0 17.88.06.37 1.21 8.06 1.61 10a45.23 45.23 0 00.14 7.49 24.46 24.46 0 01-.14 4.57c-.82-3.63-1.83-6.82-2.3-8.31l-.05-.17a.84.84 0 00-.05-.3l-.18-.47a.83.83 0 00-.1-.2C12.78 42.34 3.24 28.16 2.19 22zm15 69.4a11.76 11.76 0 01-6.27-8.4c-.71-4 .17-9.65 1.1-15.67.81-5.22 1.64-10.62 1.47-15.12v-2.49a62.34 62.34 0 011.67 8.21c0 .3-.09.51-.11.6a.83.83 0 00.26.83c.06.68.09 1.35.09 2s0 1.08.09 1.66c0 .42.07.86.09 1.31a46.81 46.81 0 003.94 18.48 18.94 18.94 0 004 5.77l.06.05a7.78 7.78 0 012 2.43 8.29 8.29 0 00-3.31 1.61.83.83 0 00-.49-.16h-.14a9.07 9.07 0 01-4.42-1.07zm7.6 2.9a2.55 2.55 0 01-1.43-.44c1.22-1 4.38-2.62 9.41.21a2.57 2.57 0 01-1 .22zm18-42.18c-.17 4.52.66 9.92 1.47 15.14.93 6 1.81 11.71 1.1 15.67a11.76 11.76 0 01-6.31 8.46 9.56 9.56 0 01-4.13 1.17.86.86 0 00-.69.27l-.11.13a15.67 15.67 0 00-3.37-1.56 45.21 45.21 0 004.25-5l.06-.1a44.61 44.61 0 005.44-18.49.83.83 0 00-.07-.39 76.48 76.48 0 00-.86-9.27c-.17-1.28-.32-2.39-.36-3-.14-2.21-2.07-6.09-2.54-7v-3.23a.83.83 0 00-1.66 0v3.42a.83.83 0 00.1.39c.64 1.22 2.34 4.76 2.44 6.5 0 .67.19 1.75.37 3.12a64.5 64.5 0 01.83 10 .82.82 0 000 .21 43.81 43.81 0 01-.7 4.8 81.11 81.11 0 00-2.5-11.13c-.13-.47-.25-.88-.34-1.21a46 46 0 01-1.8-8.64c-.12-3.16-.08-8.11 0-11l2.53-2a.8.8 0 00.76-.47 19.56 19.56 0 005.11-2.78 26.45 26.45 0 004.43-4.37c1.32 4.54.33 8.76-.73 12a28.37 28.37 0 01-2.59 5.4.83.83 0 00-.12.43z"/><path d="M41.5 44.11a.83.83 0 00-1 .62A46.76 46.76 0 0039.37 51a.83.83 0 00.83.79.83.83 0 00.79-.87 48.1 48.1 0 011.13-5.82.83.83 0 00-.62-.99z"/></svg>