<svg height="100" width="100" xmlns="http://www.w3.org/2000/svg"><path d="M79.005 17.689c-.012-.019-.03-.033-.043-.051a1.7 1.7 0 00-.216-.257c-.023-.022-.044-.047-.068-.068a1.667 1.667 0 00-.335-.229c-.032-.017-.067-.026-.1-.041-.065-.028-.127-.06-.197-.08-.433-.128-4.455-1.141-12.407 2.422-.022.01-.04.024-.061.035a12.962 12.962 0 00-1.631-.112c-5.568 0-10.301 3.595-12.033 8.581-.026.018-.055.03-.081.05a127.997 127.997 0 00-7.418 6.193 12.773 12.773 0 00-9.498 9.275c-2.617 2.799-4.989 5.594-7.06 8.32-4.525 1.958-7.702 6.465-7.702 11.702 0 .256.028.506.043.759-3.846 8.434-2.993 13.182-2.954 13.379.004.021.017.036.021.056.038.164.095.321.179.467.007.012.009.026.016.037.083.136.184.261.304.372.021.019.046.036.067.055l.005.004c3.31 2.99 8.494 4.707 14.246 4.707 11.044 0 23.231-6.104 34.314-17.188 25.683-25.68 14.023-46.139 12.609-48.388zm-4.41 2.527a67.092 67.092 0 01-1.878 2.606 12.737 12.737 0 00-2.2-1.684c1.69-.544 3.047-.806 4.078-.922zM63.947 22.71a9.286 9.286 0 016.673 2.807c-2.65 3.309-6.552 7.876-12.251 14.022-2.34-1.752-3.767-4.531-3.767-7.483 0-5.154 4.192-9.346 9.345-9.346zM51.476 34.535a12.599 12.599 0 00-1.787-.486c.523-.443 1.042-.873 1.559-1.296.034.603.11 1.197.228 1.782zm-4.221 2.669a9.374 9.374 0 018.393 5.242 576.945 576.945 0 01-6.824 7.107 439.282 439.282 0 01-5.457 5.494 9.33 9.33 0 01-5.458-8.497c.001-5.153 4.193-9.346 9.346-9.346zm-11.97 13.709a12.745 12.745 0 00-2.252-.225 108.31 108.31 0 011.667-1.96c.129.751.328 1.48.585 2.185zm-2.384 3.171a9.345 9.345 0 017.543 3.825c-6.042 5.843-10.554 9.766-13.858 12.394a9.276 9.276 0 01-3.031-6.871c.001-5.155 4.193-9.348 9.346-9.348zm-9.052 18.311c-1.371.999-2.434 1.693-3.229 2.168.127-1.219.435-2.896 1.121-5.003a12.673 12.673 0 002.108 2.835zm40.145-8.719c-14.088 14.088-26.04 16.192-31.91 16.192-3.796 0-7.256-.83-9.876-2.325 3.983-2.348 12.5-8.66 29.049-25.614a573.169 573.169 0 007.537-7.862c.026-.023.046-.05.07-.075 11.209-11.933 16.313-18.578 18.572-21.908 2.588 6.163 6.117 22.032-13.442 41.592zM47.519 61.62c.07.142 1.696 3.541.316 8.733a1.351 1.351 0 01-2.61-.693c1.104-4.157-.083-6.75-.135-6.858a1.355 1.355 0 01.633-1.797 1.347 1.347 0 011.796.615zm14.745-15.638c.079.175 1.906 4.35.646 9.023a1.352 1.352 0 01-1.656.952 1.35 1.35 0 01-.952-1.655c1.003-3.722-.49-7.188-.505-7.222a1.35 1.35 0 012.467-1.098zM27.077 65.857a1.352 1.352 0 01-1.292-.959 6.661 6.661 0 01-.285-1.93 6.656 6.656 0 013.334-5.754 1.35 1.35 0 111.345 2.341 3.95 3.95 0 00-1.811 4.561 1.351 1.351 0 01-1.291 1.741zm12.862-19.711a6.658 6.658 0 013.333-5.754 1.35 1.35 0 011.347 2.341 3.95 3.95 0 00-1.811 4.561 1.351 1.351 0 01-1.292 1.743 1.352 1.352 0 01-1.292-.959 6.627 6.627 0 01-.285-1.932zM58.053 34.7c-.58 0-1.115-.376-1.292-.959a6.65 6.65 0 013.05-7.685 1.35 1.35 0 111.344 2.342 3.947 3.947 0 00-1.81 4.561 1.35 1.35 0 01-1.292 1.741z"/></svg>