<svg height="100" width="100" xmlns="http://www.w3.org/2000/svg"><path d="M73.98 87.84c-1.9 0-3.78-.36-5.58-1.07a2.004 2.004 0 01-1.13-2.59 2.004 2.004 0 012.59-1.13c1.34.53 2.72.79 4.12.79 8.7 0 15.77-10.14 15.77-22.6v-5.11c0-12.46-7.07-22.59-15.77-22.59-1.3 0-2.25.39-3.68.98l-.13.05c-1.02.42-2.19-.07-2.61-1.09-.42-1.02.07-2.19 1.09-2.61l.12-.05c1.6-.66 3.11-1.28 5.2-1.28 10.9 0 19.77 11.93 19.77 26.59v5.11c.01 14.66-8.86 26.6-19.76 26.6z"/><path d="M62.92 88.49c-2.58 0-5.06-.68-7.37-2.01a1.986 1.986 0 01-.73-2.73c.55-.96 1.78-1.29 2.73-.73 1.7.98 3.5 1.47 5.37 1.47 7.27 0 13.19-7.58 13.19-16.89V49.77c0-9.31-5.92-16.89-13.19-16.89-1.83 0-3.09.68-4.96 1.8-.95.57-2.18.26-2.74-.69s-.26-2.18.69-2.74c2.24-1.34 4.18-2.37 7.02-2.37 9.48 0 17.19 9.37 17.19 20.89V67.6c-.02 11.52-7.73 20.89-17.2 20.89zM26.02 87.53c-10.9 0-19.77-11.81-19.77-26.33v-5.06c0-11.63 5.84-22.01 14.21-25.28.71-.33 4.55-1.97 7.54-.68 1.39.6 2.39 1.73 2.89 3.27.34 1.05-.24 2.18-1.29 2.52a2 2 0 01-2.52-1.29c-.18-.55-.43-.72-.66-.82-1.15-.5-3.41.22-4.33.65-.04.02-.09.04-.13.06-6.89 2.65-11.71 11.52-11.71 21.57v5.06c0 12.32 7.07 22.33 15.77 22.33 1.46 0 2.34-.31 3.85-.96 1.02-.44 2.19.04 2.63 1.05.44 1.02-.04 2.19-1.05 2.63-1.69.73-3.17 1.28-5.43 1.28z"/><path d="M37.07 88.17c-9.47 0-17.18-9.28-17.18-20.69V49.85c0-9.92 5.87-18.46 13.95-20.32.92-.25 6.99-1.74 9.82 1.96.67.88.5 2.13-.38 2.8-.88.67-2.13.5-2.8-.38-.99-1.29-4.27-.9-5.61-.53-.03.01-.07.02-.1.02-6.2 1.41-10.88 8.47-10.88 16.43v17.64c0 9.2 5.91 16.69 13.18 16.69 1.52 0 3.01-.33 4.44-.99 1-.46 2.19-.02 2.65.98.46 1 .02 2.19-.98 2.65-1.96.92-4.01 1.37-6.11 1.37z"/><path d="M49.34 89.46c-8.28 0-15.01-7.9-15.01-17.61V45.63c0-9.71 6.73-17.61 15.01-17.61s15.01 7.9 15.01 17.61v26.22c0 9.71-6.73 17.61-15.01 17.61zm0-57.44c-6.07 0-11.01 6.11-11.01 13.61v26.22c0 7.5 4.94 13.61 11.01 13.61s11.01-6.11 11.01-13.61V45.63c0-7.5-4.94-13.61-11.01-13.61z"/><path d="M53.82 32.9c-.92 0-1.75-.64-1.95-1.58-.02-.1-2.13-9.53-7.28-15.78l-1.55 1.79c1.24 2.1 3.39 6.55 4.15 13.19.13 1.1-.66 2.09-1.76 2.22-1.08.14-2.09-.66-2.22-1.76-.95-8.26-4.21-12.54-4.25-12.58-.58-.75-.56-1.81.06-2.53l4-4.64c.36-.42.88-.67 1.43-.69.53-.02 1.09.18 1.48.57 7.08 6.93 9.73 18.87 9.84 19.37.23 1.08-.45 2.14-1.53 2.38-.14.03-.28.04-.42.04z"/></svg>