<svg height="100" width="100" xmlns="http://www.w3.org/2000/svg" viewBox="-247 370.9 100 100"><path d="M-214 407.1c3.1-3.1 4.5-7.4 3.9-11.8l-4 .5c.4 3.2-.6 6.3-2.7 8.5-2.2 2.2-5.3 3.2-8.5 2.7l-.6 4c.7.1 1.4.2 2.1.2 3.7-.1 7.2-1.5 9.8-4.1zM-183.2 437.9c-3.1 3.1-4.5 7.4-3.9 11.9l4-.6c-.5-3.2.5-6.3 2.7-8.5s5.3-3.2 8.5-2.7l.5-4c-4.5-.6-8.8.8-11.8 3.9z"/><path d="M-154.3 434c5.3-5.3 5.3-16.1 0-21.4-1.2-1.2-2.7-2.2-4.2-2.9-.2-1.9-.8-3.8-1.7-5.5 3.1-5.8 2.1-13.2-2.6-17.9-4.8-4.8-12.1-5.8-17.9-2.6-1.7-.9-3.5-1.5-5.4-1.7-.7-1.6-1.7-3-2.9-4.3-2.5-2.6-6.6-4-11.2-4s-8.7 1.5-11.2 4c-1.4 1.4-2.5 3.2-3.2 5.1l-2.1.9c-5.4-2.8-11.7-1.5-16.9 3.6-5.2 5.2-6.5 11.5-3.6 16.9-3.2 5.8-2.1 13.2 2.6 17.9 1.6 1.6 3.6 2.8 5.6 3.5-.5 3.8.6 7.7 3.2 10.5l-17.3 14.5.5 1.3c1.9 5 9.5 12.6 14.2 14.2l1.3.4 13.9-16.5c2.4 2.2 5.5 3.4 8.7 3.4.9 0 1.9-.1 2.8-.3.8 2 1.9 3.8 3.4 5.3 2.9 2.9 6.8 4.4 10.7 4.4 2.5 0 4.9-.6 7.2-1.8 5.4 2.8 11.7 1.5 16.9-3.6 5.2-5.2 6.5-11.5 3.6-16.9.6-1.2 1.1-2.5 1.4-3.8 1.6-.5 3-1.4 4.2-2.7zm-2.8-2.8c-.3.3-.7.6-1.1.9-.3-3.5-1.8-6.8-4.4-9.4-.1-.1-.3-.2-.4-.4l.1-.1c2.2-2.2 3.6-5 4.2-8 .5.4 1.1.8 1.6 1.2 3.7 3.9 3.7 12.1 0 15.8zm-8.5-42c3.7 3.7 4.3 9.6 1.4 14v.1c-.4.6-.9 1.2-1.4 1.7-1.8 1.8-4.2 3-6.8 3.2l.4 4c3.4-.3 6.6-1.8 9.1-4.2 1.3 3.9.4 8.4-2.7 11.5-4.4 4.4-11.4 4.4-15.8 0-2.4-2.4-3.5-5.7-3.2-9l.2-2.4-2.4.2c-3.4.3-6.6-.8-9-3.2-2.1-2.1-3.3-4.9-3.3-7.9s1.2-5.8 3.3-7.9c3-3 7.5-4 11.5-2.7-2.4 2.4-3.9 5.7-4.2 9.1l4 .4c.3-2.6 1.4-5 3.2-6.8.5-.5 1.1-1 1.8-1.4 4.2-3 10.1-2.4 13.9 1.3zm-34.7-11.4c3.5 0 6.6 1.1 8.4 2.8.5.5.9 1 1.3 1.6-3 .5-5.8 1.9-8 4.2l-.1.1-.1-.1c-3-3-6.9-4.5-10.9-4.4.3-.5.7-.9 1.1-1.3 1.7-1.9 4.8-2.9 8.3-2.9zm-33.1 27.6l.7-1.1-.7-1.1c-2.6-4-1.7-8.8 2.5-13 4.2-4.2 9-5.1 13-2.5l1.1.7 1.1-.7c4.4-2.9 10.3-2.3 14 1.4.2.2.3.4.5.5-1.2 2.2-1.9 4.7-1.9 7.4 0 2.6.7 5.1 1.9 7.4-.2.2-.3.4-.5.5-2.4 2.4-5.7 3.5-9 3.2l-2.4-.2.2 2.4c.3 3.4-.8 6.6-3.2 9-4.4 4.4-11.4 4.4-15.8 0-3.7-3.6-4.3-9.5-1.5-13.9zm8.2 21.2c.4 0 .8.1 1.2.1 3.9 0 7.9.8 7.5 1.7l-6.3 5.3c-1.8-1.9-2.7-4.5-2.4-7.1zm-3.2 35.4c-3.3-1.8-8-6.5-9.9-10l30-25.2.2-.3c1.6-2.6 1.8-7.1-1-11.5.2-.9.3-1.8.4-2.7 1.1-.1 2.3-.3 3.4-.6 1.4 2.5 2 5.3 2 5.3l.7 3.5 9.7-9.1c1.4.5 2.9.8 4.4.9.1 1.3.3 2.5.7 3.7l-9.3 9.9 3.5.7c1.1.2 4 1.1 6.1 2.5-.3 1.2-.6 2.4-.6 3.6-.5 0-1 .1-1.5.1-5.6-3.7-12.4-1.4-12.7-1.3l-.5.2-25.6 30.3zm17.6-14.8l5.3-6.3c.9-.2 2.6 3 2.6 7 0 .5 0 1 .1 1.5-2.8.6-5.9-.2-8-2.2zm46.9-5.4c2.6 4 1.7 8.8-2.5 13-4.2 4.2-9 5.1-13 2.5l-1.1-.7-1.1.7c-4.4 2.9-10.3 2.3-14-1.4-2.1-2.1-3.3-4.9-3.3-7.9s1.2-5.8 3.3-7.9c2.4-2.4 5.7-3.6 9-3.2l2.4.2-.2-2.4c-.3-3.4.8-6.6 3.2-9l.6-.6c2.2 1.1 4.6 1.7 7 1.7 2.5 0 5.1-.6 7.3-1.9.3.2.6.5.9.8 3.7 3.7 4.3 9.6 1.4 14l-.7 1.1.8 1z"/></svg>