<svg height="100" width="100" xmlns="http://www.w3.org/2000/svg" viewBox="0 0 512 512"><defs><style>.cls-1{fill:none;stroke:#000;stroke-linecap:round;stroke-linejoin:round;stroke-width:20px}</style></defs><path class="cls-1" d="M256 11.34c94.56 0 171.21 71.88 171.21 160.55S395.76 500.65 256 500.65 84.75 260.56 84.75 171.89 161.41 11.34 256 11.34z"/><path class="cls-1" d="M199.92 111.15S135.44 306.52 195.61 483A109.67 109.67 0 00256 500.65s-64.81-101.45-56.08-389.5z"/><path class="cls-1" d="M311.53 226.69c-8.48 200.22-55.56 274-55.56 274A109.67 109.67 0 00316.33 483c35.11-103 27.78-212.4 15.58-285.68-6.73 11.92-14.38 21.15-20.38 29.37zM201.18 242.6l33.38-33.87"/><path class="cls-1" d="M256 11.34a181.7 181.7 0 00-51.72 7.46l3.07 5.06c23 1.21 62.5 7.2 78.15 33.16 22.69 37.66 69.83 57.3 59.36 106.42a117.51 117.51 0 01-12.92 33.9c7.89 47.39 13.74 109.88 7.39 176 0 0 8.31 29.13 45.78 19 32.44-75.53 42.1-171.26 42.1-220.43C427.18 83.22 350.53 11.34 256 11.34zM173.88 242.6l-34.98-33.87M122.47 256l47.68 43.69M131.52 320.75l38.42 36.19M205.61 299.69l40.99-41.29M212.96 355.75l33.64-29.39"/><path class="cls-1" d="M285.47 57c-22.7-37.65-95.55-33.29-95.55-33.29C128.15 48 84.75 105.18 84.75 171.89c0 45.12 8.14 129.44 34.55 201.39 25.82 40 59.63 45.3 59.63 45.3-28.84-156.43 21-307.43 21-307.43-4.5 148.44 10.52 247.33 26.14 308.31 29.64 10.45 24.49-25.18 55.92-51.37s20.95-93.32 19.2-116.21 33.17-39.32 43.65-88.44S308.16 94.68 285.47 57z"/></svg>