<svg height="100" width="100" xmlns="http://www.w3.org/2000/svg" data-name="Layer 1" viewBox="0 0 5 5"><path d="M3.399 2.602c-.1.11-.202.21-.288.323a.26.26 0 00-.02.165 1.269 1.269 0 00.52.818c.016.014.034.025.05.038a.196.196 0 00-.013-.063 1.224 1.224 0 01-.115-1.146.606.606 0 01.119-.145 1.985 1.985 0 01.185.265.894.894 0 01-.059.899c-.049.086.101.302.187.441a1.198 1.198 0 00.236.213c.01.009.003.036.004.055a.399.399 0 00-.043-.024c-.209-.084-.416-.172-.629-.244-.033-.012-.091.056-.14.083-.029.016-.071.042-.091.032-.366-.184-.729-.372-1.092-.56a.44.44 0 01-.053-.036l-.1-.073c.042-.016.086-.049.125-.044a4.36 4.36 0 01.742.108 2.63 2.63 0 01.518.288c.05.03.101.057.152.086a.168.168 0 00-.025-.046c-.021-.02-.049-.034-.07-.054a1.129 1.129 0 01-.213-.206 1.038 1.038 0 00-1.017-.448c-.266-.003-.529-.234-.791-.368a.16.16 0 01.037-.09 1.165 1.165 0 01.976.064.969.969 0 00.14.09.566.566 0 00-.076-.176 3.532 3.532 0 00-.473-.452.667.667 0 00-.427-.146c-.296.044-.457-.129-.637-.293-.078-.071-.16-.137-.234-.213-.01-.01.023-.09.04-.091a1.256 1.256 0 011.02.438c.007.01.023.016.034.024a.186.186 0 00-.014-.045c-.196-.312-.416-.612-.58-.94a2.359 2.359 0 01-.137-.646.148.148 0 01.107-.054.795.795 0 01.56 1.09c-.045.164.14.39.226.586a.384.384 0 00.093.11c.033.031.072.057.108.086-.009-.056 0-.125-.03-.164a.753.753 0 01-.106-.724c.026-.09.034-.253.072-.26.167-.029.075-.143.098-.216C2.28.92 2.303.898 2.312.9a.119.119 0 01.063.04.993.993 0 01.1 1.12c-.16.23 0 .31.05.434a2.448 2.448 0 00.29.438c.006.01.028.008.042.011.002-.01.005-.019.005-.029.025-.272.047-.545.075-.818a.49.49 0 01.057-.223 3.137 3.137 0 01.27-.302c.029.044.075.086.084.134a5.209 5.209 0 01.062.518c.008.12-.006.24-.011.378z"/></svg>