<svg height="100" width="100" xmlns="http://www.w3.org/2000/svg" viewBox="0 0 512 512"><path d="M98.8 7.8h16.5v496.3H98.8z"/><path d="M107.1 309.1L2 203.9l11.7-11.7 93.4 93.5 93.4-93.5 11.7 11.7z"/><path d="M107.1 218.1L2 113l11.7-11.7 93.4 93.4 93.4-93.4 11.7 11.7z"/><path d="M107.1 127.1L2 22l11.7-11.7 93.4 93.4 93.4-93.4L212.2 22z"/><g><path d="M396.6 74h16.5v430.1h-16.5z"/><path d="M404.9 375.2L299.8 270.1l11.7-11.7 93.4 93.4 93.4-93.4 11.7 11.7z"/><path d="M404.9 284.2L299.8 179.1l11.7-11.7 93.4 93.4 93.4-93.4 11.7 11.7z"/><path d="M404.9 193.3L299.8 88.1l11.7-11.7 93.4 93.5 93.4-93.5L510 88.1z"/></g></svg>