<svg height="100" width="100" xmlns="http://www.w3.org/2000/svg" data-name="Ebene 1"><path d="M61.81 8.43c-.89-1.11-3.2-.89-3.29.54a106.26 106.26 0 01-4.09 23.2c-.26.89-.72 1.94-1.65 2A214.92 214.92 0 0153 8.26c.11-1.5-2.24-2.09-3.39-1.09s-1.28 2.68-1.35 4.2c-.46 12.14.67 24.31.67 36.47 0 .44-.44 1-.67.7a76.23 76.23 0 01-4.74-17.45c-.59-3.92-.87-7.86-1.13-11.79-.2-2.61-.37-5.2-.54-7.81a5.81 5.81 0 00-1-3.48C40 7.09 38.2 6.93 37.65 8a2.72 2.72 0 00-.17 1.39C38 22.23 38.87 35.31 44 47c4.74 10.84 3.55 23.2 2.24 34.95-.22 2 .7 3.83 1.37 5.66s1.13 4 .09 5.7c.7-.26 1.43-1.56 2.13-1.82a3.89 3.89 0 00.65 1.62 2.34 2.34 0 001.35-1.88l1.28.26s-1.41-2.1-1.48-2.35c.83-.32 1.32-1.4 1.9-2.25A5.64 5.64 0 0054 83.2c-.87-8.62-.67-17.3-.48-26l.2-8.94a18.82 18.82 0 01.61-5.2A42.76 42.76 0 0156.87 38a30.17 30.17 0 001.87-5.81 194.64 194.64 0 003.66-19.63c.19-1.41.32-3.02-.59-4.13zM50 12.58c0-1.54.09-3.27.85-4.32l.56.26a224.9 224.9 0 000 26.51c.1 1.95.12 4.32-1 5.39Q49.86 26.5 50 12.58zm1.81 72.21c0 .94-.16 2-1 2.48a1.78 1.78 0 01-2.21-.8 5.23 5.23 0 01-.6-2.53c-.39-10.2 2.29-20.7-.54-30.46-.72-2.52-1.83-4.93-2.74-7.37-4.55-11.93-5.45-25-5.85-37.8.74-.39 1.31.76 1.4 1.61C41.5 21.09 41.41 32.6 45 43.23c1.28 3.72 3 7.28 4.21 11 3.22 9.77 2.91 20.29 2.57 30.56zm8.67-67.73c-1.26 7.62-2.54 15.38-6 22.18a29 29 0 00-1.86 4c-1.57 4.8.48 10.05 0 15.09 0 .34-.32.79-.58.59-.54-1.66-1.07-3.33-1.61-5a12.17 12.17 0 01-.7-2.78 13 13 0 01.17-2.81c.28-2 .54-4 .82-6a1.7 1.7 0 01.49-1.15 7.5 7.5 0 002.23-3.24 78.1 78.1 0 006.3-26.21c.08-.92.26-2.08 1.1-2.36a22.54 22.54 0 01-.39 7.7z"/></svg>