<svg height="100" width="100" xmlns="http://www.w3.org/2000/svg"><path d="M76.079 24.248c-4.524 4.179-8.669 7.436-12.488 10.038 1.458-2.593 3.295-5.41 5.634-8.509a1.062 1.062 0 10-1.697-1.281c-3.421 4.532-5.811 8.529-7.521 12.104-.214.131-.418.243-.63.37l2.42-10.059a1.062 1.062 0 00-.784-1.282 1.057 1.057 0 00-1.282.784L56.84 38.428c-5.259 2.895-9.847 4.662-13.938 6.227-4.751 1.817-8.854 3.386-12.427 6.214-8.099 6.408-5.757 15.897-4.479 19.473l-3.426-1.223a1.063 1.063 0 10-.714 2.002l4.949 1.766-2.823 2.091a1.064 1.064 0 001.265 1.709l2.932-2.17 2.118 4.605a1.063 1.063 0 101.931-.889l-1.838-3.995c2.078.942 4.587 1.637 7.299 1.637 4.203 0 8.871-1.655 13.088-6.588 4.862-5.687 5.669-10.558 6.604-16.197.72-4.346 1.499-9.052 4.249-14.985 4.743-2.944 10.002-6.854 15.893-12.293a1.065 1.065 0 00-1.444-1.564zM55.283 52.741c-.919 5.546-1.645 9.927-6.121 15.164-7.078 8.277-14.859 5.947-18.652 4.002.777-.146 6.231-1.316 10.463-6.01a1.063 1.063 0 10-1.578-1.424c-3.952 4.382-9.265 5.343-9.332 5.354a1.062 1.062 0 00-.87 1.224c.009.051.035.092.05.14-.283-.177-.52-.333-.693-.455.227-.142.406-.356.476-.636.009-.037.952-3.74 4.171-7.68a1.064 1.064 0 00-1.646-1.346c-2.228 2.727-3.455 5.343-4.068 6.94-1.036-3.812-1.754-10.679 4.313-15.479 3.317-2.626 7.279-4.142 11.867-5.896 3.907-1.494 8.255-3.164 13.196-5.793.124.107.266.195.437.236a1.059 1.059 0 00.903-.197c-1.699 4.584-2.349 8.434-2.916 11.856z"/><path d="M36.959 56.057a5.11 5.11 0 00-.634.472c-.077.065-.165.14-.317.256a1.06 1.06 0 00-.207 1.488 1.06 1.06 0 001.489.207c.199-.149.312-.246.413-.331.106-.091.19-.162.423-.314a1.063 1.063 0 10-1.167-1.778z"/></svg>