<svg height="100" width="100" xmlns="http://www.w3.org/2000/svg"><path d="M49.7 88.85h-.1l-.5-.03c-18.38-1.33-19-18.54-19.01-20.06v-9.57c0-7.83-12.3-16.12-17.05-18.65a1.99 1.99 0 01-.92-2.48 2.01 2.01 0 012.35-1.23c22.33 5.5 31.8 16.33 35.82 24.34 4.41-8.84 14.09-19.12 35.26-24.34.97-.24 1.98.28 2.35 1.23.36.94-.04 2-.92 2.48-4.74 2.54-17.05 10.83-17.05 18.65v9.57c0 .16.11 19.43-20.15 20.09h-.08zM34.08 68.78c0 .67.13 14.95 15.26 16.05l.38.02c16.2-.57 16.21-15.42 16.2-16.06v-9.6c0-5.35 3.77-10.31 7.96-14.19-24.9 11.3-23.23 31.24-23.21 31.47.11 1.1-.69 2.08-1.79 2.19-1.11.11-2.08-.69-2.19-1.79-.01-.11-.38-4.5 1.47-10.45-1.97-5.76-7.37-14.99-22.15-21.52 4.24 3.89 8.07 8.89 8.07 14.28v9.6z"/><path d="M34.11 48.89c-.99 0-1.86-.74-1.98-1.75-.33-2.62-.02-6.28-.01-6.43 1.14-21.32 8.7-36.83 17.97-36.83 11.39 0 18.19 21.81 18.19 42.89 0 1.1-.9 2-2 2s-2-.9-2-2c0-22.92-7.48-38.89-14.19-38.89-5.87 0-12.88 12.66-13.98 33.11-.01.1-.29 3.46-.01 5.66.14 1.1-.64 2.1-1.74 2.23-.08 0-.17.01-.25.01zM59.96 52.52H48.05c-.55 0-1-.45-1-1s.45-1 1-1h11.91c.55 0 1 .45 1 1s-.44 1-1 1z"/><path d="M65.62 36.45H34.78c-.55 0-1-.45-1-1s.45-1 1-1h30.84c.55 0 1 .45 1 1s-.44 1-1 1zM64.28 28.41H36.05c-.55 0-1-.45-1-1s.45-1 1-1h28.23c.55 0 1 .45 1 1s-.45 1-1 1zM61.95 20.38H39.03c-.55 0-1-.45-1-1s.45-1 1-1h22.93c.55 0 1 .45 1 1s-.45 1-1.01 1zM53.29 96.13h-7.92c-1.1 0-2-.9-2-2v-7.9c0-1.1.9-2 2-2s2 .9 2 2v5.9h3.92v-5.66c0-1.1.9-2 2-2s2 .9 2 2v7.66a2 2 0 01-2 2zM66.12 44.49H35.28c-.55 0-1-.45-1-1s.45-1 1-1h30.85c.55 0 1 .45 1 1s-.46 1-1.01 1z"/><g><path d="M48.05 52.52h-7.29c-.55 0-1-.45-1-1s.45-1 1-1h7.29c.55 0 1 .45 1 1s-.45 1-1 1z"/></g><g><path d="M50.16 65.68c-.55 0-1-.45-1-1l-.07-58.81c0-.55.45-1 1-1s1 .45 1 1l.07 58.82c0 .55-.44.99-1 .99z"/></g><g><path d="M41.87 53.97c-.53 0-.97-.42-1-.95-.06-1.29-1.41-31.72 2.57-44.85a1.003 1.003 0 011.92.58c-3.89 12.8-2.5 43.87-2.49 44.18a.99.99 0 01-.95 1.04h-.05z"/></g><g><path d="M58.98 53.5c-.55 0-1-.45-1-1 0-.36-.11-35.71-3.52-43.98-.21-.51.03-1.1.54-1.31.51-.21 1.09.03 1.31.54 3.57 8.63 3.67 43.27 3.68 44.74-.01.57-.45 1.01-1.01 1.01z"/></g></svg>