<svg height='100px' width='100px'  fill="#000000" xmlns="http://www.w3.org/2000/svg" xmlns:xlink="http://www.w3.org/1999/xlink" version="1.1" x="0px" y="0px" viewBox="0 0 100.006 100.006" enable-background="new 0 0 100.006 100.006" xml:space="preserve"><g><path d="M32.323,23.901c0.496,0.191,0.912,0.492,1.352,0.785c1.122,0.746,2.065,1.589,2.977,2.576   c1.56,1.688,3.52,2.978,5.399,4.275c0.953,0.657,1.834,1.405,2.806,2.036c1.052,0.683,2.134,1.309,3.17,2.019   c2.193,1.502,4.378,3.016,6.504,4.611c2.133,1.6,4.201,3.297,6.336,4.918c1.947,1.478,3.72,3.183,5.698,4.614   c2.141,1.549,4.404,2.951,6.579,4.454c1.04,0.719,2.066,1.465,3.13,2.147c1.071,0.686,2.23,1.232,3.338,1.854   c1.097,0.616,2.164,1.298,3.092,2.153c0.089,0.082,0.296-0.124,0.303-0.256c0.215-0.313,0.489-0.588,0.679-0.917   c0.171-0.297,0.2-0.803-0.187-0.929c-0.063-0.021-0.124-0.021-0.183-0.008c-0.808-1.33-2.344-2.312-3.556-3.223   c-1.669-1.254-3.491-2.32-5.075-3.683c-1.417-1.219-2.616-2.673-3.97-3.959c-1.524-1.449-3.149-2.815-4.762-4.164   c-6.096-5.1-12.14-10.507-16.4-17.291c-0.111-0.177-0.389,0.281-0.284,0.45c0.024,0.038,0.048,0.075,0.072,0.113   c0.275,0.993,0.829,1.702,1.478,2.523c0.907,1.148,1.676,2.377,2.451,3.616c1.438,2.298,3.26,4.279,5.08,6.279   c1.934,2.126,3.981,4.114,6.162,5.986c1.092,0.938,2.171,1.898,3.288,2.806c0.618,0.503,1.278,1.089,1.966,1.589   c-0.11-0.022-0.22-0.039-0.328-0.047c-0.075-0.005-0.369,0.21-0.263,0.272c1.024,0.599,2.148,0.958,3.152,1.629   c1.056,0.706,1.976,1.58,2.833,2.511c0.199,0.216,0.396,0.432,0.595,0.647c-0.52-0.325-1.012-0.75-1.487-1.065   c-1.01-0.671-2.021-1.298-3.073-1.901c-2.165-1.242-4.066-2.893-6.02-4.435c-1.945-1.534-4.01-2.915-5.845-4.583   c-0.883-0.803-1.704-1.676-2.618-2.443c-0.877-0.735-1.877-1.316-2.859-1.896c-0.984-0.581-1.948-1.161-2.837-1.884   c-0.872-0.709-1.668-1.509-2.505-2.257c-1.784-1.592-3.857-2.746-5.934-3.902c-1.914-1.065-3.453-2.698-5.175-4.028   c-0.877-0.677-1.802-1.194-2.827-1.61c-0.537-0.218-1.072-0.425-1.59-0.668c-0.005-0.003-0.011-0.007-0.016-0.01   c-0.114-0.067-0.227-0.118-0.338-0.165c-0.323-0.167-0.638-0.353-0.938-0.573c-0.02-0.019-0.043-0.026-0.068-0.022c0,0,0,0,0,0   c-0.133,0.023-0.301,0.345-0.21,0.455C31.669,23.606,31.951,23.758,32.323,23.901z M83.001,59.682   c-0.002-0.124-0.005-0.249-0.002-0.373c0.003-0.095,0.036-0.436,0.139-0.591c0.046,0.006,0.1-0.024,0.148-0.071   c0.034,0.01,0.072,0.035,0.115,0.08C83.638,58.985,83.277,59.344,83.001,59.682z M72.588,50.72   c-0.481-0.335-1.073-0.738-1.689-1.042c-0.351-0.275-0.651-0.611-0.985-0.91c-0.501-0.448-1.076-0.825-1.608-1.235   c-1.132-0.874-2.189-1.862-3.277-2.79c-2.191-1.87-4.254-3.849-6.197-5.976c-1.889-2.068-3.767-4.139-5.265-6.512   c-0.073-0.115-0.145-0.231-0.218-0.347c3.594,4.244,7.823,7.961,12.072,11.533c1.545,1.299,3.06,2.631,4.572,3.969   c1.473,1.303,2.735,2.822,4.181,4.153c1.412,1.299,3.093,2.252,4.637,3.376c0.866,0.63,1.754,1.265,2.56,1.97   c0.551,0.483,1.163,0.989,1.588,1.597c-0.112,0.154-0.192,0.336-0.228,0.457c-0.069,0.234-0.084,0.484-0.078,0.734   c-0.719-0.66-1.533-1.2-2.381-1.693c0.506-0.007,1.029-0.077,1.532,0.007c0.053,0.009,0.3-0.138,0.233-0.197   c-0.342-0.296-0.776-0.257-1.204-0.249c-0.07,0.001-0.14,0-0.209,0c-2.14-1.021-4.02-3.056-5.393-4.544   C74.435,52.158,73.553,51.391,72.588,50.72z M42.348,30.402c2.057,1.212,4.111,2.305,5.925,3.884   c0.844,0.735,1.639,1.523,2.498,2.241c0.866,0.724,1.842,1.273,2.817,1.832c0.989,0.567,1.957,1.162,2.852,1.87   c0.927,0.734,1.741,1.621,2.613,2.418c1.829,1.671,3.904,3.072,5.849,4.604c1.959,1.543,3.86,3.18,6.021,4.437   c1.048,0.61,2.073,1.216,3.073,1.902c0.723,0.496,1.531,1.259,2.411,1.425c0.012,0.002,0.027-0.001,0.041-0.004   c0.406,0.409,0.83,0.799,1.294,1.15c0.557,0.421,1.122,1.024,1.772,1.37c-0.022-0.001-0.045-0.002-0.067-0.003   c-0.006,0-0.014,0-0.023,0.001c-0.794-0.43-1.599-0.839-2.369-1.281c-2.278-1.308-4.385-2.981-6.555-4.46   c-2.099-1.431-4.194-2.777-6.112-4.451c-1.94-1.693-4.031-3.192-6.06-4.775c-4.124-3.219-8.285-6.383-12.743-9.134   c-0.988-0.609-1.877-1.328-2.813-2.011c-1.026-0.749-2.102-1.424-3.111-2.197c-0.952-0.729-1.9-1.508-2.721-2.382   c-0.586-0.623-1.16-1.2-1.802-1.729c0.716,0.351,1.38,0.77,2.032,1.259C38.925,27.687,40.446,29.281,42.348,30.402z"></path><path d="M93.582,73.572c-0.042-0.069-0.008-0.199-0.088-0.299c-0.084-0.104-0.266-0.166-0.383-0.216   c-0.296-0.126-0.618-0.174-0.918-0.286c0.407-0.217,0.672-0.624,0.859-1.051c0.15-0.343,0.167-0.68,0.243-1.038   c0.035-0.166,0.067-0.341,0.022-0.505c-0.085-0.313-0.685-0.595-0.947-0.745c0.326-0.192,0.61-0.653,0.695-0.928   c0.187-0.605,0.108-1.2,0.043-1.817c-0.01-0.092-0.02-0.187-0.068-0.267c-0.202-0.333-1.071-0.242-1.403-0.28   c-0.576-0.065-1.149-0.148-1.726-0.205c-1.072-0.104-2.48-0.267-3.479,0.213c-1.317-0.901-2.643-1.807-4.076-2.471   c-0.839-0.388-1.699-0.714-2.494-1.191c-0.874-0.524-1.603-1.331-2.386-1.98c-0.853-0.707-1.699-1.417-2.534-2.146   c-0.705-0.616-1.504-1.383-2.382-1.835c-0.538-0.607-1.327-0.91-1.887-1.514c-0.731-0.788-1.586-1.5-2.444-2.144   c-1.607-1.208-3.447-2.026-5.151-3.075c-1.764-1.085-3.123-2.501-4.531-3.99c-0.613-0.649-1.25-1.482-2.026-1.937   c-0.383-0.225-0.911-0.511-1.389-0.501c-0.28-0.343-0.718-0.519-1.123-0.699c-0.754-0.336-1.365-0.78-1.959-1.354   c-1.215-1.175-2.298-2.22-3.839-2.984c-1.676-0.831-3.441-1.486-5.132-2.29c-1.814-0.863-3.631-1.697-5.468-2.508   c-1.711-0.755-3.059-1.829-4.444-3.064c-1.366-1.218-2.834-2.374-4.284-3.49c-1.503-1.156-3.477-1.955-5.228-2.656   c-1.26-0.504-2.513-1.104-3.791-1.606c-0.935-0.863-1.821-1.728-3.017-2.245c-0.677-0.293-1.399-0.375-2.124-0.466   c-0.304-0.038-2.397-0.844-2.43-0.41c0.4,0.226,0.726,0.674,1.075,0.974c0.43,0.371,0.876,0.722,1.301,1.098   c0.818,0.725,1.661,1.416,2.477,2.142c0.85,0.756,1.819,1.235,2.794,1.8c0.994,0.576,1.733,1.471,2.501,2.304   c1.625,1.764,3.566,3.221,5.495,4.628c1.934,1.41,3.801,2.909,5.76,4.284c2.013,1.413,4.193,2.524,6.295,3.791   c2.154,1.298,4.247,2.699,6.439,3.932c2.073,1.166,4.223,2.132,6.185,3.491c0.924,0.64,1.914,1.153,2.821,1.823   c0.537,0.397,1.13,0.579,1.765,0.753c0.046,0.012,0.264,0.404,0.327,0.468c0.144,0.145,0.315,0.272,0.482,0.389   c0.391,0.272,0.824,0.478,1.238,0.71c0.767,0.43,1.5,0.922,2.226,1.418c0.228,0.156,0.453,0.313,0.679,0.471   c-0.407-0.166-0.796-0.399-1.216-0.532c-0.8-0.253-1.59-0.613-2.304-1.053c-1.329-0.818-2.418-1.927-3.81-2.656   c-1.457-0.762-2.958-1.444-4.42-2.2c-1.685-0.872-3.39-1.713-5.113-2.508c-3.165-1.46-5.869-3.4-8.518-5.65   c-1.264-1.074-2.801-1.787-4.214-2.638c-1.289-0.776-2.684-1.651-4.179-1.963c-0.158-0.104-0.313-0.172-0.449-0.16   c-0.148,0.013-0.315,0.495-0.176,0.483c0.406-0.035,1.109,0.793,1.391,1.035c0.719,0.618,1.588,0.998,2.387,1.496   c1.994,1.244,3.43,3.075,5.128,4.666c1.648,1.544,3.347,3.018,4.961,4.598c0.906,0.887,1.929,1.644,3.027,2.276   c0.566,0.326,1.15,0.619,1.745,0.888c0.42,0.19,0.874,0.344,1.208,0.675c0.401,0.397,0.825,0.58,1.31,0.873   c0.773,0.466,1.645,0.728,2.425,1.178c0.71,0.41,1.336,0.969,1.984,1.466c0.741,0.569,1.539,1.067,2.29,1.624   c1.518,1.124,3.154,1.976,4.784,2.92c0.614,0.356,1.383,0.732,1.895,1.222c-0.443,0.021-1.07-0.524-1.452-0.721   c-0.559-0.288-1.13-0.553-1.706-0.805c-1.109-0.485-2.238-0.92-3.356-1.381c-2.299-0.947-4.501-2.08-6.609-3.398   c-1.019-0.637-1.985-1.353-3.034-1.943c-1.112-0.625-2.284-1.135-3.407-1.74c-1.055-0.569-2.153-1.044-3.249-1.524   c-1.2-0.526-2.359-1.14-3.578-1.622c-2.378-0.942-4.798-1.753-7.165-2.732c-2.407-0.997-4.871-1.69-7.385-2.361   c-2.386-0.637-4.786-1.23-7.218-1.669c-1.222-0.221-2.452-0.403-3.688-0.532c-1.152-0.121-2.475-0.35-3.63-0.229   c-0.203,0.021-0.38,0.078-0.509,0.249c-0.047,0.062-0.083,0.139-0.067,0.215c0.035,0.162,0.927,0.301,1.107,0.365   c0.398,0.142,0.787,0.307,1.198,0.411c0.853,0.216,1.708,0.397,2.573,0.554c0.924,0.167,1.809,0.541,2.716,0.78   c0.929,0.245,1.863,0.469,2.798,0.69c1.914,0.45,3.875,0.763,5.699,1.516c0.744,0.307,1.479,0.661,2.261,0.864   c1.063,0.276,2.147,0.434,3.188,0.794c1.772,0.612,3.46,1.448,5.185,2.177c1.658,0.701,3.394,1.041,4.999,1.863   c1.616,0.828,3.161,1.846,4.702,2.804c0.767,0.477,1.477,1.019,2.199,1.559c0.603,0.451,1.322,0.943,1.859,1.516   c-0.404-0.03-1.179,0.107-1.362,0.531c-0.113,0.261-1.709-0.263-1.891-0.327c-0.673-0.236-1.313-0.556-1.939-0.895   c-2.008-1.086-4.106-2.052-6.077-3.197c-0.921-0.535-2.05-0.779-3.065-1.084c-1.17-0.352-2.308-0.789-3.452-1.216   c-1.058-0.395-2.134-0.711-3.212-1.045c-0.831-0.257-2.243-0.893-3.062-0.307c-0.114,0.082-0.2,0.217-0.185,0.356   c0.031,0.268,0.852,0.487,1.073,0.596c0.469,0.23,0.931,0.474,1.393,0.717c0.924,0.486,1.851,0.973,2.827,1.349   c2.003,0.772,3.981,1.6,5.995,2.352c0.965,0.36,1.956,0.647,2.92,1.007c0.983,0.367,1.878,0.941,2.854,1.329   c2.072,0.824,4.185,1.568,6.294,2.291c0.952,0.326,1.874,0.762,2.84,1.043c1.086,0.316,2.122,0.645,3.176,1.064   c0.157,0.062,0.316,0.122,0.474,0.182c-0.875-0.116-1.753-0.223-2.6-0.453c-2.09-0.567-4.227-0.764-6.28-1.47   c-4.162-1.432-8.508-2.227-12.841-2.991c-1.037-0.183-2.03-0.356-3.02-0.727c-0.94-0.352-1.839-0.81-2.753-1.22   c-1.779-0.798-3.669-1.192-5.427-2.06c-1.815-0.896-3.543-1.742-5.492-2.318c-0.635-0.188-5.08-2.17-5.257-1.179   c-0.07,0.393,0.778,0.8,1.048,0.981c0.511,0.343,1.043,0.652,1.585,0.942c1.081,0.578,2.204,1.073,3.321,1.577   c1.07,0.482,2.158,0.869,3.193,1.43c1.104,0.599,2.212,1.142,3.3,1.77c2.168,1.252,4.393,2.067,6.776,2.803   c2.447,0.756,4.819,1.741,7.314,2.34c1.231,0.295,2.492,0.458,3.738,0.674c1.374,0.239,2.733,0.562,4.103,0.822   c2.618,0.497,5.253,0.906,7.87,1.413c2.518,0.488,4.966,1.224,7.489,1.681c2.638,0.478,5.257,1.235,7.847,1.926   c0.59,0.157,1.179,0.311,1.775,0.445c1.496,0.337,2.991,0.275,4.386,1.006c0.912,0.478,1.669,1.022,2.66,1.346   c0.922,0.302,1.805,0.736,2.767,0.9c0.641,0.11,1.036,0.449,1.63,0.67c0.532,0.197,1.093,0.312,1.627,0.506   c1.057,0.384,2.127,0.752,3.149,1.224c1.001,0.462,1.867,1.152,2.879,1.598c1.017,0.448,2.058,0.804,3.06,1.292   c0.694,0.338,2.146,1.436,2.925,0.955c0.374-0.231,0.494-0.795,0.581-1.195C93.797,74.706,93.9,74.063,93.582,73.572z    M92.906,71.404c-0.075,0.426-0.332,0.829-0.744,0.98c0.048-0.533,0.417-1.01,0.752-1.449   C92.925,71.091,92.933,71.248,92.906,71.404z M92.603,68.893c-0.174,0.159-0.418,0.206-0.628,0.327   c-0.066-0.033-0.134-0.064-0.201-0.095c0.116-0.803,0.283-1.854,0.962-2.361c0.083,0.383,0.138,0.769,0.146,1.162   C92.889,68.249,92.858,68.661,92.603,68.893z M89.744,66.422c0.724,0.058,1.822,0.42,2.657,0.324   c-0.518,0.603-0.743,1.48-0.881,2.265c-0.164-0.071-0.33-0.14-0.499-0.209c-0.994-0.402-1.925-0.903-2.829-1.479   c-0.522-0.332-1.039-0.683-1.556-1.036C87.671,66.331,88.712,66.339,89.744,66.422z M58.107,50.902   c0.05-0.089,0.077-0.186,0.043-0.237c-0.43-0.638-1.387-0.633-2.032-0.969c-0.478-0.249-0.891-0.634-1.337-0.934   c-0.465-0.314-0.962-0.581-1.443-0.87c-1.006-0.603-1.945-1.292-2.976-1.859c-1.042-0.574-2.115-1.092-3.166-1.65   c-2.208-1.173-4.292-2.579-6.42-3.887c-2.184-1.342-4.47-2.497-6.587-3.947c-1.973-1.351-3.84-2.85-5.762-4.271   c-1.946-1.439-3.76-2.913-5.517-4.58c-0.842-0.799-1.515-1.708-2.485-2.374c-0.92-0.632-1.942-1.026-2.81-1.746   c-1.43-1.185-2.891-2.336-4.314-3.526c0.289,0.114,0.583,0.214,0.893,0.283c0.919,0.203,1.781,0.261,2.659,0.651   c0.635,0.282,1.184,0.666,1.665,1.161c0.037,0.038,0.075,0.08,0.114,0.124c-0.233-0.075-0.468-0.146-0.704-0.21   c-0.005-0.001-0.011,0.001-0.017,0c-0.004,0-0.007,0-0.011,0c-0.093,0.006-0.245,0.134-0.246,0.22   c-0.003,0.019-0.002,0.037,0.012,0.049c1.571,1.355,3.388,2.408,4.977,3.739c1.62,1.356,2.876,3.112,4.587,4.364   c1.689,1.236,3.782,1.663,5.647,2.544c0.315,0.149,0.619,0.313,0.918,0.485c-0.262-0.054-0.523-0.075-0.782-0.048   c-0.042,0.004-0.283,0.155-0.19,0.194c1.498,0.629,2.798,1.271,4.033,2.361c1.265,1.117,2.195,2.555,3.488,3.65   c0.712,0.603,1.567,0.962,2.384,1.397c0.903,0.481,1.778,1.012,2.657,1.535c1.767,1.051,3.385,2.248,5.07,3.42   c1.657,1.153,3.5,2.081,5.285,3.017c1.824,0.956,3.69,1.842,5.603,2.604c0.889,0.354,1.808,0.632,2.586,1.203   c0.684,0.502,1.344,1.069,2.01,1.595c0.684,0.54,1.208,1.246,1.917,1.76c0.323,0.234,0.694,0.425,1.04,0.623   c0.166,0.095,1.096,0.336,1.17,0.505c0.033,0.074,0.29-0.087,0.275-0.164c-0.078-0.377-0.124-0.316-0.51-0.431   c-0.391-0.116-0.757-0.365-1.104-0.574c-0.751-0.453-1.343-0.983-1.956-1.606c-0.608-0.619-1.341-1.079-1.997-1.643   c-0.802-0.69-1.593-1.117-2.592-1.451c-4.021-1.345-7.993-3.391-11.469-5.856c-1.592-1.128-3.13-2.277-4.812-3.273   c-0.881-0.521-1.757-1.05-2.651-1.548c-0.904-0.504-1.84-0.9-2.655-1.549c-1.209-0.963-2.088-2.265-3.176-3.353   c0.322,0.196,0.651,0.383,0.99,0.554c1.873,0.944,3.971,1.474,5.778,2.528c1.959,1.143,3.724,2.695,5.566,4.015   c1.822,1.306,3.691,2.545,5.642,3.65c0.917,0.519,1.769,1.121,2.647,1.701c0.783,0.517,1.54,1.226,2.501,1.335   c0.087,0.01,0.366-0.21,0.245-0.265c-1.845-0.826-3.386-2.241-5.149-3.225c-1.959-1.092-3.819-2.354-5.644-3.654   c-1.782-1.269-3.488-2.667-5.322-3.861c-0.894-0.582-1.886-0.913-2.875-1.292c-1.067-0.409-2.119-0.883-3.146-1.384   c-1.876-0.916-3.424-2.326-5.28-3.28c-1.849-0.951-3.896-1.378-5.665-2.506c-1.767-1.126-3.057-2.936-4.601-4.33   c-0.775-0.7-1.66-1.238-2.509-1.837c-0.35-0.247-0.687-0.504-1.024-0.76c1.265,0.55,2.56,1.047,3.833,1.548   c1.69,0.665,3.52,1.456,5.012,2.497c0.663,0.463,1.264,1.016,1.884,1.534c0.714,0.596,1.476,1.125,2.181,1.732   c1.401,1.208,2.683,2.393,4.363,3.209c1.688,0.82,3.436,1.518,5.128,2.334c1.728,0.834,3.482,1.59,5.242,2.354   c1.643,0.714,2.968,1.644,4.205,2.934c0.554,0.578,1.127,1.103,1.834,1.488c0.355,0.193,0.82,0.316,1.2,0.533   c-0.061,0.033-0.109,0.08-0.073,0.121c0.484,0.56,1.388,0.805,2.009,1.228c0.768,0.523,1.421,1.201,2.009,1.915   c0.528,0.641,0.942,1.344,1.557,1.911c0.701,0.647,1.538,1.141,2.277,1.742c0.737,0.6,1.411,1.238,2.222,1.741   c0.79,0.491,1.573,0.976,2.349,1.489c0.736,0.486,1.314,1.061,1.983,1.623c0.274,0.23,0.607,0.395,0.899,0.602   c0.29,0.205,0.329,0.388,0.567,0.475c0.252,0.648,0.475,1.309,0.741,1.952c0.017,0.04,0.034,0.081,0.053,0.123   c-1.073-0.624-2.111-1.337-3.201-1.885c-1.819-0.915-3.695-1.511-5.376-2.696C61.053,52.722,59.561,51.841,58.107,50.902z    M41.856,46.516c-1.699-1.641-3.465-3.198-5.189-4.813c-0.852-0.799-1.606-1.668-2.421-2.5c-0.805-0.822-1.748-1.498-2.722-2.106   c-0.72-0.449-1.461-0.805-2.122-1.333c0.991,0.449,1.963,0.917,2.905,1.503c1.416,0.88,2.913,1.601,4.219,2.65   c1.344,1.08,2.635,2.194,4.052,3.183c1.415,0.987,2.916,1.767,4.477,2.492c3.135,1.456,6.185,3.086,9.293,4.596   c1.419,0.689,2.547,1.744,3.831,2.635c0.694,0.481,1.47,0.806,2.255,1.106c0.637,0.243,1.334,0.654,2,0.776   c0.106,0.019,0.213-0.13,0.259-0.267c0.317,0.213,0.639,0.419,0.975,0.604c0.828,0.456,1.722,0.794,2.592,1.158   c1.673,0.7,3.204,1.641,4.761,2.562c0.167,0.099,0.334,0.195,0.5,0.288c0.168,0.175,0.369,0.298,0.605,0.314   c0.287,0.139,0.58,0.268,0.889,0.377c0.683,0.24,1.442,0.442,2.026,0.891c0.015,0.011,0.102,0.017,0.086-0.016   c-0.383-0.793-1.296-1.045-2.068-1.331c-0.367-0.136-0.725-0.297-1.077-0.474c-0.112-0.097-0.222-0.197-0.316-0.318   c-0.213-0.274-0.346-0.612-0.472-0.932c-0.207-0.523-0.333-1.079-0.74-1.484c-0.112-0.62-0.709-0.889-1.233-1.229   c-0.694-0.451-1.234-1.135-1.937-1.603c-1.424-0.948-2.875-1.787-4.201-2.86c1.619,1.003,3.346,1.798,4.897,2.921   c0.794,0.575,1.53,1.247,2.232,1.928c0.654,0.635,1.318,1.095,2.068,1.609c0.026,0.018,0.062,0.011,0.1-0.009   c0.642,0.632,1.411,1.168,2.083,1.755c0.837,0.73,1.672,1.457,2.529,2.164c0.811,0.668,1.565,1.436,2.418,2.047   c0.745,0.534,1.638,0.862,2.472,1.228c1.974,0.867,3.807,2.226,5.582,3.439c0.895,0.612,1.83,1.154,2.818,1.6   c0.917,0.414,1.852,0.705,2.616,1.368c-0.005,0.051-0.006,0.103-0.006,0.154c-0.363,0.492-0.783,1.019-0.96,1.606   c-0.5-0.464-1.157-0.719-1.776-0.992c-0.827-0.365-1.601-0.847-2.342-1.361c-0.855-0.593-1.602-1.333-2.442-1.951   c-0.949-0.698-1.959-1.313-2.965-1.925c-0.907-0.552-1.841-1.076-2.69-1.716c-0.813-0.613-1.663-1.009-2.553-1.49   c-0.849-0.459-1.715-1.131-2.47-1.733c-0.395-0.315-0.762-0.633-1.252-0.621c0.004-0.011,0.004-0.022-0.003-0.031   c-0.665-0.755-1.54-1.051-2.466-1.374c-1.08-0.376-2.097-0.906-3.135-1.383c-2.23-1.024-4.642-1.587-6.958-2.384   c-2.331-0.803-4.538-1.856-6.82-2.775c-2.146-0.865-4.368-1.526-6.517-2.385C45.391,49.214,43.527,48.13,41.856,46.516z    M61.385,56.083c0.989,0.627,1.887,1.432,2.824,2.136c1.059,0.796,2.169,1.538,3.294,2.242c1.158,0.725,2.414,1.315,3.669,1.851   c0.069,0.029,0.138,0.057,0.207,0.084c-0.041-0.009-0.083-0.017-0.124-0.027c-1.984-0.457-4.009-1.097-5.811-2.06   c-0.966-0.517-1.858-1.157-2.789-1.732c-0.89-0.549-1.628-1.18-2.446-1.826c-0.674-0.533-1.142-1.268-1.908-1.685   c-0.399-0.217-0.873-0.474-1.267-0.794c1.093,0.468,2.189,0.927,3.315,1.325c0.349,0.124,0.702,0.24,1.055,0.353   C61.362,56.005,61.345,56.058,61.385,56.083z M56.339,55.921c-1.429-1.036-2.841-2.096-4.277-3.121   c-0.738-0.527-1.584-0.812-2.397-1.194c-0.405-0.19-0.989-0.42-1.455-0.707c1.77,0.674,3.58,1.242,5.347,1.924   c0.9,0.347,1.786,0.725,2.671,1.105c0.352,0.597,1.003,1.024,1.578,1.374c0.771,0.469,1.292,1.072,1.95,1.679   c1.535,1.416,3.35,2.527,5.155,3.568c2.782,1.606,5.964,2.207,9.077,2.817c0.09,0.018,0.183,0.035,0.273,0.016   s0.176-0.087,0.187-0.178c0.014-0.116-2.735-1.178-3.015-1.3c-1.353-0.586-2.684-1.249-3.934-2.033   c-1.03-0.646-2.086-1.321-3.036-2.079c-0.517-0.413-1.077-0.765-1.586-1.191c-0.126-0.106-0.252-0.209-0.38-0.307   c1.539,0.469,3.086,0.916,4.562,1.544c1.071,0.456,2.099,1.009,3.181,1.439c0.659,0.262,1.325,0.509,1.974,0.796   c1.911,0.845,3.313,2.472,5.202,3.405c0.312,0.154,0.617,0.323,0.919,0.496c-0.602-0.255-1.236-0.471-1.805-0.704   c-1.054-0.433-2.157-0.739-3.219-1.153c-2.206-0.861-3.763-2.626-5.744-3.823c-0.054-0.033-0.221,0.026-0.174,0.103   c0.59,0.955,1.636,1.619,2.518,2.285c0.976,0.737,2.019,1.391,3.147,1.867c1.049,0.442,2.156,0.74,3.218,1.152   c0.958,0.371,2.008,1.094,3.042,1.164c0.063,0.004,0.183-0.071,0.228-0.149c0.961,0.621,1.902,1.281,2.878,1.873   c0.987,0.598,1.904,1.251,2.806,1.928c-0.145-0.019-0.286-0.04-0.419-0.07c-0.828-0.185-1.634-0.485-2.452-0.711   c-1.811-0.5-3.485-1.293-5.315-1.75c-1.968-0.491-3.634-1.479-5.494-2.236c-1.872-0.762-3.733-1.489-5.632-2.178   c-1.722-0.625-3.172-1.817-4.727-2.755C59.574,57.839,57.872,57.032,56.339,55.921z M47.283,55.694   c-0.424-0.532-1.027-0.941-1.496-1.353c-0.662-0.581-1.409-1.09-2.136-1.589c-1.578-1.084-3.27-2.041-4.93-2.992   c-0.752-0.431-1.553-0.864-2.382-1.122c-0.959-0.3-1.905-0.518-2.843-0.898c-1.834-0.743-3.607-1.623-5.471-2.293   c-0.775-0.279-1.577-0.438-2.382-0.604c-0.978-0.202-1.878-0.548-2.793-0.935c-1.748-0.74-3.573-1.079-5.416-1.502   c-1.968-0.452-3.885-1.051-5.837-1.549c-0.855-0.218-1.743-0.356-2.605-0.552c-0.345-0.078-0.691-0.209-1.04-0.335   c4.584,0.221,9.009,1.261,13.455,2.442c2.411,0.641,4.765,1.32,7.076,2.269c2.368,0.973,4.771,1.81,7.161,2.721   c1.13,0.431,2.198,1.006,3.302,1.497c1.093,0.486,2.193,0.948,3.256,1.497c1.047,0.541,2.103,1.061,3.151,1.6   c1.156,0.594,2.203,1.352,3.294,2.052c2.098,1.346,4.312,2.491,6.608,3.459c1.749,0.737,3.517,1.421,5.221,2.252   c-0.557-0.142-1.108-0.298-1.646-0.437c-1.768-0.458-3.586-0.832-5.311-1.434c-1.524-0.532-3.033-0.982-4.59-1.407   c-0.449-0.122-1.049-0.412-1.642-0.57C47.316,55.827,47.323,55.743,47.283,55.694z M47.823,56.626   c0.682,0.245,1.394,0.412,2.096,0.593c1.436,0.369,2.789,0.948,4.206,1.371c1.486,0.444,3.014,0.778,4.516,1.17   c1.355,0.354,2.846,0.866,4.258,0.857c0.037,0,0.076-0.022,0.112-0.054c0.761,0.487,1.538,0.945,2.37,1.289   c0.799,0.331,1.641,0.559,2.454,0.853c0.967,0.35,1.899,0.813,2.856,1.192c0.861,0.342,1.694,0.771,2.535,1.177   c-0.14,0.009-0.273,0.015-0.393,0.013c-0.584-0.008-1.187-0.358-1.76-0.572c-0.625-0.234-1.268-0.405-1.907-0.594   c-0.63-0.186-1.159-0.492-1.715-0.831c-0.573-0.351-1.184-0.564-1.812-0.792c-1.366-0.498-2.666-1.099-4.085-1.447   c-1.447-0.355-2.93-0.543-4.378-0.895c-1.426-0.346-2.843-0.725-4.271-1.063c-0.692-0.164-1.379-0.346-2.059-0.556   c-0.647-0.2-1.196-0.592-1.835-0.811c-0.609-0.208-1.195-0.341-1.761-0.662c-0.211-0.119-0.412-0.245-0.615-0.365   c-0.006-0.012-0.014-0.024-0.025-0.032c-0.07-0.052-0.148-0.087-0.23-0.113c-0.097-0.053-0.194-0.104-0.295-0.152   C46.633,56.101,47.404,56.476,47.823,56.626z M49.21,58.938c-1.074-0.261-2.084-0.763-3.13-1.118   c-2.114-0.719-4.204-1.505-6.294-2.291c-0.894-0.336-1.721-0.83-2.591-1.22c-1.018-0.456-2.136-0.727-3.183-1.115   c-2.017-0.747-3.994-1.568-5.995-2.351c-1.704-0.667-3.245-1.64-4.911-2.388c0.904,0.075,1.802,0.355,2.655,0.622   c1.078,0.337,2.146,0.674,3.205,1.072c1.05,0.395,2.096,0.797,3.17,1.122c1.025,0.31,2.127,0.569,3.067,1.088   c1.916,1.058,3.902,1.978,5.811,3.054c0.959,0.54,1.943,1.042,3.021,1.29c0.378,0.087,0.774,0.166,1.163,0.144   c0.357-0.02,0.806-0.155,1.131,0.042c0.148,0.086,0.295,0.176,0.443,0.268c0.548,0.342,1.1,0.542,1.718,0.718   c0.651,0.185,1.194,0.544,1.815,0.797c0.65,0.265,1.37,0.41,2.05,0.579c2.778,0.688,5.547,1.331,8.351,1.898   c1.537,0.31,2.946,0.9,4.396,1.473c0.63,0.249,1.264,0.445,1.863,0.768c0.572,0.308,1.076,0.662,1.693,0.886   c0.616,0.224,1.263,0.364,1.884,0.576c0.596,0.203,1.177,0.493,1.787,0.651c0.547,0.142,1.274-0.107,1.849,0.011   c0.492,0.215,0.992,0.41,1.505,0.56c0.853,0.25,1.721,0.444,2.578,0.681c1.037,0.287,1.979,0.801,3.002,1.124   c0.842,0.266,1.702,0.471,2.545,0.74c0.644,0.205,1.61,0.193,2.232,0.51c0.436,0.334,0.873,0.672,1.316,1.011   c0.673,0.514,1.42,0.957,2.174,1.341c0.661,0.337,1.435,0.555,2.017,1.031c-0.808-0.331-1.605-0.674-2.439-0.957   c-1.09-0.37-2.195-0.699-3.261-1.137c-1.131-0.465-2.233-0.983-3.371-1.431c-2.044-0.806-4.307-0.807-6.38-1.562   c-1.028-0.374-2.012-0.789-3.082-1.042c-0.56-0.132-1.122-0.205-1.673-0.38c-0.402-0.128-0.73-0.388-1.137-0.505   c0.004-0.042-0.004-0.073-0.031-0.081c-0.877-0.278-1.776-0.48-2.634-0.818c-1.012-0.399-1.964-0.884-3.003-1.224   c-2.019-0.66-4.078-1.08-6.148-1.538c-2.116-0.468-4.276-1.117-6.292-1.908C51.141,59.554,50.21,59.181,49.21,58.938z    M87.355,73.73c-1.021-0.421-1.893-1.109-2.879-1.597c-1.087-0.537-2.275-0.906-3.414-1.317c-0.444-0.16-0.91-0.262-1.359-0.406   c-0.525-0.168-0.897-0.539-1.447-0.645c-1.111-0.214-2.123-0.646-3.195-0.997c-0.981-0.32-1.764-0.925-2.669-1.398   c-0.646-0.338-1.512-0.688-2.25-0.551c-0.007-0.009-0.016-0.017-0.027-0.023c-0.338-0.154-0.728-0.074-1.095-0.145   c-0.655-0.127-1.303-0.293-1.949-0.46c-1.311-0.339-2.62-0.685-3.934-1.012c-1.122-0.28-2.24-0.582-3.367-0.842   c-1.373-0.317-2.769-0.48-4.131-0.854c-5.004-1.374-10.184-1.96-15.259-3.015c-2.574-0.535-5.133-0.855-7.643-1.676   c-2.508-0.82-5.042-1.625-7.527-2.508c-1.161-0.413-2.246-0.952-3.315-1.562c-1.102-0.629-2.199-1.208-3.322-1.795   c-2.103-1.099-4.291-2.02-6.427-3.056c-0.961-0.466-1.904-0.96-2.76-1.594c0.631,0.154,1.271,0.316,1.878,0.507   c0.905,0.285,1.751,0.753,2.67,1.033c1.935,0.59,3.664,1.478,5.471,2.371c1.749,0.864,3.649,1.253,5.425,2.05   c1.745,0.784,3.364,1.489,5.263,1.796c2.131,0.344,4.23,0.861,6.35,1.263c2.233,0.423,4.383,0.94,6.46,1.673   c0.886,0.313,1.786,0.631,2.713,0.803c1.202,0.222,2.387,0.377,3.572,0.698c0.887,0.241,1.761,0.443,2.671,0.574   c0.907,0.13,1.879,0.183,2.757,0.457c0.058,0.018,0.123-0.033,0.175-0.107c1.117,0.343,2.247,0.646,3.366,0.913   c2.072,0.494,4.131,0.921,6.165,1.569c0.943,0.3,1.841,0.686,2.734,1.109c0.907,0.429,1.912,0.607,2.873,0.875   c0.027,0.007,0.055-0.001,0.083-0.02c0.842,0.515,1.538,0.771,2.48,0.944c1.072,0.197,2.091,0.6,3.098,1.006   c2.055,0.829,4.338,0.793,6.386,1.579c2.123,0.814,4.158,1.773,6.32,2.49c1.064,0.352,2.112,0.722,3.136,1.179   c0.331,0.148,0.666,0.285,1.013,0.389c0.198,0.06,0.646,0.109,0.831,0.27c-0.017,0.022-0.033,0.045-0.042,0.067   c-0.425,0.483-0.552,1.278-0.772,1.866c-0.036,0.096-0.068,0.211-0.089,0.327C90.711,75.181,89.056,74.431,87.355,73.73z    M93.462,74.887c-0.012,0.319-0.052,1.035-0.374,1.211c-0.115,0.062-0.2,0.083-0.262,0.075c-0.024-0.012-0.049-0.023-0.073-0.034   c-0.16-0.134-0.024-0.625,0.048-0.809c0.165-0.419,0.267-0.935,0.493-1.346C93.424,74.275,93.475,74.539,93.462,74.887z"></path></g></svg>