<svg height='100px' width='100px'  fill="#000000" xmlns="http://www.w3.org/2000/svg" xmlns:xlink="http://www.w3.org/1999/xlink" version="1.1" x="0px" y="0px" viewBox="0 0 100 100" enable-background="new 0 0 100 100" xml:space="preserve"><g><path d="M75.466,66.36c-1.13-0.589-2.341-0.978-3.57-1.295c0.624-0.346,5.187-2.226,2.914-3.149   c-1.656-0.673-4.382,0.178-5.887,0.944c-0.237,0.305-0.903,0.543-1.207,0.828c-0.699,0.656-0.51,0.682-1.577,0.538   c-1.488-0.188-2.975-0.573-4.399-1.035c-2.306-0.747-4.478-1.729-6.862-2.267c1.219-1.01,2.408-2.023,3.511-3.163   c0.684-0.706,0.945-0.376,1.9-0.36c1.978,0.032,3.928-0.374,5.912-0.257c0.813,0.049,2.018,0.568,2.726-0.068   c0.853-0.767-0.713-1.791-1.288-2.094c-1.794-1.172-4.456-1.237-6.495-1.043c0.743-1.402,2.338-4.217,1.475-5.803   c-0.435-0.8-3.125,3.755-3.585,4.421c-0.428-1.27-0.793-2.669-1.509-3.821c-1.542-2.479-1.565,1.903-1.537,2.813   c0.031,0.991,0.117,1.979,0.282,2.956c0.095,0.473,0.468,0.697,0.052,1.063c-0.41,0.361-0.828,0.714-1.256,1.056   c-1.608,1.282-3.42,2.167-4.476,4.006c-3.136,0.356-6.967,1.745-9.171,4.12c-1.228,1.323,0.777,1.106,1.569,0.893   c1.646-0.442,3.18-1.163,4.859-1.508c0.523-0.107,1.052-0.196,1.582-0.264c0.96-0.122,0.797,0.899,1.329,1.657   c0.899,1.28,1.894,2.482,2.773,3.78c0.524,0.772,3.246,4.749,2.411,5.354c-1.554,1.123-2.296,2.71-2.896,4.447   c-0.543,1.42-0.525,3.108-0.309,4.576c0.112,0.65,0.951,3.741,1.892,2.005c0.677-1.253,0.503-2.883,0.938-4.221   c0.401-1.235,1.05-2.67,1.954-3.64c0.381,0.965,0.823,1.902,1.373,2.783c0.094,0.15,0.832,0.966,0.828,1.119   c0.973,1.137,2.959,3.165,4.566,3.196c0.832,0.017-2.169-3.637-2.381-3.922c-0.887-1.192-1.341-2.474-1.755-3.898   c2.124,0.75,4.548,0.958,6.771,0.538c0.465-0.087,2.092-0.298,2.108-0.982c0.024-1.042-2.957-1.104-3.601-1.251   c-1.481-0.341-2.93-0.824-4.328-1.415c-0.621-0.263-1.226-0.426-1.903-0.417c-0.193-0.625-0.364-1.25-0.64-1.843   c-1.232-2.652-2.651-5.152-4.448-7.472c2.268,0.517,4.353,1.478,6.573,2.128c1.542,0.451,3.145,0.813,4.745,0.98   c0.743,0.106,1.479-0.162,1.854,0.519c0.299,0.543,0.735,0.949,1.177,1.372c0.794,0.775,1.667,1.527,2.153,2.55   c0.276,0.581,0.249,1.273,0.648,1.82c0.857,1.172,1.535-1.306,1.584-1.812c0.144-1.504-0.537-3.025-1.461-4.174   c1.878,0.205,3.506,0.616,5.215,1.426C80.054,70.714,76.787,67.105,75.466,66.36C74.292,65.748,76.548,66.972,75.466,66.36z"></path><path d="M26.677,27.602c4.147-0.801,7.409,2.173,10.533,4.603c1.087,0.845,2.133,1.812,3.545,2.014   c0.607,1.405,1.249,2.792,1.733,4.244c-0.834-0.278-1.658-0.602-2.351-1.167c-0.563-0.46-1.741-2.179-2.559-0.979   c-1.099,1.609,0.832,4.337,2.362,4.851c1.227,0.412,2.069,0.606,3.363,0.335c0.217,1.861-0.013,3.688,0.027,5.544   c0.009,0.407,0.052,2.063,0.856,1.793c0.779-0.262,1.148-1.702,1.372-2.378c1.518-4.572,0.542-8.553-1.314-12.812   c-0.314-0.723,0.381-0.945,0.73-1.632c0.625-0.996,0.816-2.306,0.956-3.447c0.232-1.887-0.155-3.854-1.012-5.544   c-1.215-2.395-1.971-0.725-1.807,1.108c0.178,1.979,0.127,3.828-0.721,5.664c-0.854-1.771-1.68-3.555-2.28-5.429   c-0.465-1.451-0.794-3.118-1.555-4.434c-1.106-1.914-1.148,2.336-1.133,2.769c0.198,2.168,0.472,4.262,1.162,6.336   c-1.107-0.777-2.202-1.531-3.376-2.209c-0.413-0.238-0.837-0.461-1.286-0.625c0.045-0.709,0.106-1.406-0.029-2.112   c-0.144-0.633-0.142-2.155,0.005-2.803c1.116-2.078-0.611-3.378-2.303-1.675c-1.396,1.404-1.406,3.888-0.669,5.62   c-1.162-0.19-2.444-0.188-3.55,0.271C26.488,25.875,24.4,28.194,26.677,27.602C26.939,27.552,26.11,27.75,26.677,27.602z"></path><path d="M11.184,45.682c2.08,0.659,3.855,0.65,5.999,0.688c2.484,0.044,4.602,0.933,6.752,2.11c0.592,0.324,1.194,0.592,1.85,0.771   c0.575,0.157,1.183,0.23,1.778,0.194c0.952-0.058,0.721-0.117,1.24,0.735c1.017,1.685,1.599,3.69,1.848,5.619   c0.204,1.576,0.334,3.143,0.341,4.735c0.003,0.483,0.205,4.387,1.314,2.759c1.024-1.501,1.083-3.598,1.271-5.332   c0.225-2.064,0.12-4.29-0.459-6.284c2.003,0,3.354-0.98,4.495-2.518c0.627-0.844,0.965-3.072,0.026-3.848   c-1.35-1.117-2.184,1.069-2.806,1.889c-0.71,0.938-1.595,1.558-2.531,2.257c-0.153-0.308-1.885-3.311-1.555-3.311   c0.036-1.21,0.54-2.452,0.595-3.696c0.094-2.134-0.234-4.536-1.352-6.389c-0.503-0.833-1.665-2.18-2.676-2.321   c-1.258-0.177,0.332,2.655,0.486,3.021c0.786,1.857,0.725,4.104,0.342,6.055c-1.869-2.334-3.137-4.292-4.254-7.085   c-0.369-0.922-2.432-5.242-3.672-4.528c-0.671,0.413,0.772,3.059,0.93,3.596c0.476,1.328,0.599,2.747,0.961,4.104   c0.727,2.728,2.581,4.533,4.039,6.843c-1.744-0.692-3.317-1.61-5.152-2.107c1.365-3.876-1.729-7.234-5.589-6.805   c-0.827,0.092-1.769,0.876-1.111,1.757c0.4,0.536,1.129,0.714,1.681,1.041c1.555,0.92,2.242,1.831,2.642,3.665   c-0.47-0.021-2.61,0.427-2.91,0.201c-0.33-1.53-1.094-2.507-2.267-3.5c-1.021-0.678-2.098-1.066-2.883-2.104   c-0.506-0.669-1.775-1.773-2.381-0.517c-0.334,0.695-0.037,1.685,0.209,2.354c-0.375,0.535,1.477,2.143,1.873,2.44   c0.889,0.502,1.632,0.852,2.466,1.456c-1.688-0.226-3.462-0.422-4.993,0.538c-0.487,0.306-1.831,1.396-0.444,1.416   C8.584,45.601,9.906,45.151,11.184,45.682C11.473,45.773,10.93,45.576,11.184,45.682z"></path><path d="M46.313,19.559c1.507,2.648,4.42,4.292,7.486,3.688c1.086,1.745,1.739,4.113,1.686,6.173   c0.014,0.648-0.521,5.836,0.896,5.433c1.505-0.43,2.028-3.911,2.099-5.15c0.132-2.334,0.154-3.985-0.783-6.227   c-0.158-0.377-0.344-0.729-0.541-1.09c-0.499-0.914-0.207-0.69,0.429-1.46c0.269-0.324,1.376-3.321,1.053-3.383   c0.047-1.05-0.19-2.164-0.679-3.092c-0.273-0.521-1.6-2.56-2.175-1.214c-0.367,0.857,0.021,1.848,0.046,2.729   c0.027,1.028-0.357,2.177-1.027,2.946c-0.949-1.554-1.301-3.576-2.383-5.026c-0.937-1.256-1.215,0.805-1.216,1.447   c-0.004,1.597,0.177,3.188,0.755,4.686c-1.949-0.188-3.233-1.53-4.558-2.792c-0.35-0.333-1.414-1.46-1.986-1.074   C44.563,16.725,46.025,18.953,46.313,19.559C46.535,19.947,46.149,19.213,46.313,19.559z"></path><path d="M70.975,48.635L70.975,48.635C71.1,48.594,71.063,48.606,70.975,48.635z"></path><path d="M83.639,48.504c-2.567,0.187-5.071-0.743-7.664-0.366c-1.146,0.166-3.103,0.463-3.909,1.444   c-0.564-0.38-0.788-1.036-1.455-0.828c0.121-0.04,0.242-0.079,0.364-0.119c-0.293-0.86-0.627-1.705-0.962-2.549   c2.528,0.569,5.09,1.396,7.679,0.636c1.919-0.563,3.558-1.768,4.474-3.566c1.327-2.608-2.394-0.214-3.22,0.185   c-2.537,1.222-5.505,0.005-8.063-0.577c-2.914-0.663-6.026-1.769-9.041-1.553c-1.461,0.104-2.97,0.477-4.273,1.157   c-0.907,0.475-3.348,2.282-0.728,2.043c2.605-0.239,4.65-0.48,7.235,0.09c1.021,0.226,2.021,0.52,3.028,0.804   c1.062,0.299,0.717,2.814,0.876,3.877c-0.222,1.741,2.468,3.313,3.578,4.184c0.96,0.752,3.503,2.902,4.789,2.957   c1.229,0.5,4.185,1.033,4.893-0.629c0.407-0.956-3.109-1.696-3.844-2.291c-1.026-0.832-2.037-1.604-3.134-2.344   c2.476,0.372,5.529,0.978,8.003,0.438c0.896-0.195,1.903-0.492,2.611-1.106C86.06,49.362,84.741,48.439,83.639,48.504   C83.367,48.524,83.873,48.49,83.639,48.504z"></path><path d="M93.294,24.749c-0.163-1.504-3.532-0.759-4.339-0.62c0.444-0.763,2.579-3.337,0.112-2.848   c-1.05,0.208-2.157,0.771-2.841,1.614c-0.719,0.778-0.811,2.149-1.662,2.553c-1.66,0.788-3.181,2.152-4.192,3.676   c-0.506,0.836-0.791,1.802-1.294,2.619c-0.393,0.637,0.094,0.84-0.838,0.899c-0.35,0.022-0.701,0.034-1.052,0.051   c0.638-1.021,1.316-2.527,1.109-3.788c-0.164-0.998-0.441-1.743-1.214-2.411c-0.749-0.647-2.123-0.617-2.186,0.614   c-0.062,1.2,0.089,2.144-0.286,3.383c-0.133,0.441-0.575,2.565-0.828,2.596c-0.986,0.115-1.962,0.241-2.935,0.443   c1.342-2.025,2.2-4.203,1.196-6.59c-0.313-0.742-1.025-2.597-2.179-1.815c-0.819,0.554-0.582,2.097-0.57,2.93   c-0.299,2.476-1.848,4.207-2.563,6.497c-1.204,0.387-2.423,0.768-3.593,1.254c-0.854,0.354-3.875,1.873-1.286,2.079   c3.674,0.294,7.437-0.993,11.081-1.295c1.65-0.138,3.315-0.264,4.951-0.53c2.446-0.397,5.234-1.043,7.28-2.508   c0.929-0.664,1.529-1.907-0.128-1.849c-1.217,0.044-2.376,0.511-3.586,0.611c1.126-1.274,2.355-2.478,3.839-3.329   c0.63-0.362,1.05-0.805,1.758-0.455c0.707,0.35,1.467,0.563,2.181,0.895c0.844,0.392,2.385,1.714,3.263,0.961   c1.212-1.04-1.12-3.153-1.854-3.764C91.355,26.321,93.401,25.774,93.294,24.749C93.204,23.91,93.391,25.68,93.294,24.749z"></path><path d="M47.418,54.738c3.153-5.253,6.437-10.396,9.928-15.428c1.397-2.014,2.786-4.033,3.832-6.258   c1.677-3.132,2.496-6.775,3.567-10.146c0.142-0.447,0.283-0.896,0.425-1.343c0.358-1.137,0.257-0.899,1.32-1.067   c0.569-0.091,1.121-0.351,1.646-0.574c2.395-1.018,4.845-2.401,7.474-2.526c0.543,0.077,1.7,0.941,2.146,0.496   c0.973-0.974-1.544-2.508-2.156-2.682c-3.014-0.858-6.16,0.636-8.948,1.664c0.603-1.906,1.031-3.856,2.381-5.399   c0.388-0.442,3.692-2.094,3.614-2.377c-0.261-0.957-4.019,0.782-4.433,1.115c-1.69,1.359-2.459,3.212-3.228,5.17   c-0.497-1.615-0.947-3.225-2.052-4.566c-0.616-0.751-1.717-1.328-2.672-0.789c-0.925,0.521,0.476,1.469,0.693,2.041   c0.618,1.617,0.623,3.275,1.077,4.921c0.183,0.66,0.43,1.265,0.847,1.818c0.475,0.63,0.646,0.417,0.331,1.278   c-0.239,0.653-0.476,1.308-0.713,1.963c-1.845,5.092-3.48,9.864-6.688,14.283c-2.845,3.918-5.607,7.872-8.31,11.891   c-2.215,3.483-4.465,6.953-6.546,10.52c-2.598,4.453-5.887,8.118-9.501,11.773c-3.108,3.144-6.746,5.786-9.737,9.043   c-1.35,1.47-2.688,2.944-3.986,4.459c-0.617,0.718-3.238,4.384-4.502,3.992c-2.511-0.775,2.615-4.973,3.321-5.569   c4.338-3.664,8.58-7.378,12.69-11.295c2.897-2.761,5.415-5.965,7.73-9.218c1.604-2.255,3.098-4.578,4.765-6.792   c0.24-0.318,2.89-3.336,2.559-3.737c-0.604-0.756-7.257,7.35-7.771,8.015c-3.215,4.154-6.699,7.918-10.602,11.431   c-4.041,3.639-8.543,6.739-12.582,10.367c-1.608,1.445-3.395,2.729-3.771,5.005c-0.347,2.104,1.004,5.043,3.459,4.968   c4.281-0.13,7.306-5.252,9.914-8.054c3.243-3.482,7.03-6.366,10.432-9.681c2.709-2.641,5.454-5.416,7.731-8.442   C43.488,61.838,45.344,58.125,47.418,54.738z"></path></g></svg>