<svg height='100px' width='100px'  fill="#000000" xmlns="http://www.w3.org/2000/svg" data-name="Layer 1" viewBox="0 0 5 5" x="0px" y="0px"><title>Foliage_Greenery_Leafage_Plant_Verdure</title><path d="M3.693,4.32313C3.67632,4.30944,3.65946,4.296,3.643,4.282c-.03619-.03083-.07124-.06309-.10864-.09235a.186.186,0,0,0-.05578-.028c-.02782-.00921-.05775-.01231-.08519-.02236a.10706.10706,0,0,0-.08469.00034.17962.17962,0,0,1-.0873.00432.22381.22381,0,0,1-.06376-.02633.0167.0167,0,0,1-.00532-.01531.01706.01706,0,0,1,.01368-.008c.039.0009.078.00287.117.00421A.05322.05322,0,0,0,3.29554,4.096l-.00812-.00989c-.02459-.0186-.04923-.03715-.07433-.05505a.05077.05077,0,0,0-.01876-.00686.49377.49377,0,0,1-.08179-.01757A.60835.60835,0,0,1,3.0206,3.956c-.00632-.00392-.00723-.01655-.01063-.02517a.09656.09656,0,0,1,.02717.00057c.02232.007.0439.01629.066.0239a.08151.08151,0,0,0,.01925.00187c-.00365-.00608-.00591-.01407-.01118-.01791-.02626-.01907-.05286-.03777-.08023-.0552-.02922-.01861-.06032-.03435-.08882-.05393a.21316.21316,0,0,1-.037-.03882l0-.01213A.01693.01693,0,0,1,2.919,3.77577a.44562.44562,0,0,1,.07791.028.34028.34028,0,0,1,.10739.07423.42614.42614,0,0,0,.04982.03819c.01558.01381.02888.03019.04316.04546l.00454.00506c.03306.02571.06535.05251.09951.07667.03626.02565.07385.04949.11179.07262a.24534.24534,0,0,0,.04585.01848l.01019-.00275-.00343-.00719c-.04492-.04639-.08842-.09431-.13551-.13841a.91531.91531,0,0,1-.08765-.109.852.852,0,0,0-.06106-.06335c-.04-.04109-.08144-.08083-.11943-.12366a.84646.84646,0,0,0-.21629-.18059.70169.70169,0,0,0-.11123-.04409c-.05257-.0186-.10518-.03742-.15875-.05271-.04194-.012-.08575-.01723-.128-.02813-.05609-.01446-.1115-.03153-.16723-.04741-.01812-.00517-.03615-.01083-.05453-.01493-.01578-.00352-.02255.00447-.02387.02694-.0024.0407-.00443.08142-.00667.12213a.17352.17352,0,0,1-.04037.10351l-.00939.01279c-.01317.01965-.01257.02546.00718.03814a.06823.06823,0,0,1,.03337.04357c.00176.008.00617.01546.00844.02343a.37246.37246,0,0,0,.03373.1018c.01074.01717.004.02545-.01638.0276a.11228.11228,0,0,0-.01356.00033c-.01553.00368-.02038-.00068-.01722-.01723A.22181.22181,0,0,0,2.17113,3.705a.18635.18635,0,0,0-.03692-.05267l-.00568-.00037-.00157.0086a.49506.49506,0,0,1-.01944.12619.02427.02427,0,0,1-.00615.01433c-.00534.00471-.01313.01052-.01892.00963-.00471-.00073-.01052-.01028-.01134-.01651a.10555.10555,0,0,1,.003-.02745c.003-.02089.00661-.04171.00888-.06267.00126-.01169-.00514-.01081-.0121-.005-.014.0116-.02755.02364-.04178.03489l-.012.00286.00319-.012c.01043-.01388.02189-.027.0322-.041a.06318.06318,0,0,0,.00611-.01607.04718.04718,0,0,0-.0159-.00453c-.0195.00175-.039.00431-.05826.0076-.00459.00078-.00814.00657-.01281.00826-.00795.00287-.0184.00825-.02413.00534-.00652-.00332-.00951-.01436-.01284-.02252l.0056-.00825c.02029-.00682.04064-.01358.06132-.01906a.7032.7032,0,0,0,.07148-.01768.10458.10458,0,0,0,.03668-.02924A.18105.18105,0,0,0,2.168,3.45915c-.00092-.02712.00027-.0543,0-.08145l-.004-.01414-.00875.01418-.00739.02373a.1485.1485,0,0,1-.11725.10144c-.02973.00777-.05951.01551-.08871.025a.04239.04239,0,0,0-.02223.01782.31722.31722,0,0,1-.07536.07365c-.013.01193-.024.02606-.03588.0392l-.00585.0062c-.00841.00322-.02469-.011-.02884-.02445-.00374-.0121-.00118-.02164.012-.02444.00708-.0015.015.00118.0223.00036.0078-.00087.01792-.00119.0226-.006A.48723.48723,0,0,0,1.877,3.55536c.00982-.01377.00593-.019-.0101-.01867-.01733.00037-.03477-.00022-.052.00147-.01216.00119-.02377.00177-.0255.02131a.16275.16275,0,0,1-.02037.05091l-.01324,0c-.01563-.00906-.0298-.0474-.01875-.06023a.0875.0875,0,0,1,.04183-.02167c.02744-.00775.05574-.01248.08372-.01829.01249-.0026.01177-.00847.00583-.01762a.11851.11851,0,0,0-.064-.04772.02294.02294,0,0,0-.01644.00558c-.0083.006-.015.01421-.02326.02034-.00891.00664-.01551.00586-.02082-.00626a.04171.04171,0,0,0-.01818-.01511.04416.04416,0,0,1-.02747-.04716c.001-.00609.00658-.01563.01107-.01624.01981-.00271.04-.00275.06-.0037l.00446.00039.0342-.01573-.0013-.00711C1.79269,3.356,1.7757,3.34642,1.76491,3.351a.02769.02769,0,0,1-.03454-.00415.066.066,0,0,1-.012-.03453c-.00138-.01219.00327-.025.00254-.03733-.0009-.01523.00577-.019.01888-.01691a.08723.08723,0,0,0,.02.00323l.0104-.00855c-.0023-.01666.00953-.02023.02075-.02521a.19835.19835,0,0,0,.03212-.01607c.00775-.00531.00827-.01174-.0032-.0159a.04062.04062,0,0,0-.055.01387.06214.06214,0,0,1-.018.01.24882.24882,0,0,1-.01407-.03361c-.00073-.00265.00723-.00953.01236-.01168A.21827.21827,0,0,1,1.83452,3.158c.00959.00017.01108-.00471.00379-.01058-.01064-.00856-.01795-.0285-.037-.00644-.00511.0059-.02991.00219-.03915-.00523a.037.037,0,0,1-.00653-.036c.01184-.0148.00644-.02829.00576-.04251-.0011-.0233.001-.02538.02338-.01828a.02893.02893,0,0,1,.01559.00841c.01549.02551.04018.0137.06126.01613l.008-.003-.005-.00856a.15337.15337,0,0,0-.03621-.01183.05745.05745,0,0,1-.05068-.06039c.00061-.00479.00488-.01251.00812-.01287a.06145.06145,0,0,1,.02294.00371l.004.00777c.002.03936.03637.03472.06015.04416.00826.00328.01277-.00056.00685-.00829A.133.133,0,0,0,1.85227,2.985a.04385.04385,0,0,1-.021-.04408c.00085-.00843-.00078-.01931.01147-.01689a.07043.07043,0,0,1,.02517.01442l.00019.01088a.03221.03221,0,0,0,.01775.03775A.06109.06109,0,0,1,1.906,3.0049a.42907.42907,0,0,0,.09651.08566c.03567.02892.0686.06123.10281.092l.01209.00913a.04447.04447,0,0,0,.00293-.01622c-.00992-.04481-.01819-.0902-.032-.13384a.23606.23606,0,0,0-.037-.0589.02731.02731,0,0,0-.01572-.00726c-.028-.00622-.05594-.01258-.08416-.01745-.01471-.00254-.03029-.00046-.04479-.00363a.03507.03507,0,0,1-.021-.01579A.025.025,0,0,1,1.889,2.91627c.00245-.00314.0144-.00165.02043.00122a.22619.22619,0,0,0,.09685.0281.10805.10805,0,0,0,.02053-.00392A.07038.07038,0,0,0,2.01624,2.925c-.018-.01591-.0371-.03061-.05517-.04646a.02178.02178,0,0,0-.03212-.0007c-.00429.0034-.01185.00268-.01793.00384a.14262.14262,0,0,1-.00365-.03035c.0003-.00395.00877-.01024.01367-.01038a.10473.10473,0,0,1,.07342.02949c.01132.01.02264.01994.03441.02937l.01.00171L2.039,2.89287c-.0068-.02-.01365-.04007-.02143-.05973L2.006,2.8315c-.009.01261-.01544.00471-.01725-.00339a.17985.17985,0,0,1-.00383-.044c.0001-.0036.00908-.00918.01447-.00986a.0688.0688,0,0,1,.02455.00289.05422.05422,0,0,1,.01313.00761l-.00994.00978c-.01243.00829-.00918.01922.00068.02283.05262.01927.05263.06835.06054.11015a.15616.15616,0,0,0,.02835.07.409.409,0,0,1,.05186.11474.137.137,0,0,0,.01048.01789.05867.05867,0,0,0,.00963-.01882c.00438-.0488.00824-.09767.01088-.14658A.037.037,0,0,0,2.189,2.94361c-.02244-.02728-.04539-.05416-.06859-.0808-.0053-.00609-.01353-.00981-.01824-.01621a.07714.07714,0,0,1-.01476-.0283c-.00126-.00616.006-.02013.0086-.01992a.04164.04164,0,0,1,.02743.01c.01807.02276.03355.04758.05.07163l.00894.013.01158.00626.00222-.01213c-.0054-.01716-.01115-.03427-.01793-.05093a.31314.31314,0,0,0-.01893-.03863c-.01084-.01875-.00226-.03672.00122-.0548l.01013-.00583a.15089.15089,0,0,1,.03129.01174c.00977.0052.01182.0106-.00153.01611a.01766.01766,0,0,0-.00743.02976.15321.15321,0,0,1,.03023.10187l.00091.009.00648.0323a.18617.18617,0,0,0,.0253-.024.05823.05823,0,0,0,.01036-.05336.10692.10692,0,0,1-.00157-.04188c.002-.01557.0134-.01566.0229-.00682a.04929.04929,0,0,1,.01489.02421.12239.12239,0,0,1-.02967.107.06482.06482,0,0,0-.01123.014c-.0042.00964-.0011.018.01062.0158a.1253.1253,0,0,0,.085-.03611.016.016,0,0,1,.02305-.00493c.006.00262.01451-.00043.02189-.00093a.07581.07581,0,0,0-.007-.01952c-.02152-.03-.04333-.05983-.06594-.089-.0124-.016-.02623-.031-.04-.04587-.01894-.02049-.038-.04087-.05792-.06044a.10737.10737,0,0,0-.02439-.016c-.00591-.00323-.01372-.00354-.01886-.00751a.20117.20117,0,0,0-.11934-.03207.19865.19865,0,0,0-.0496.0114c-.02842.00636-.05685.01278-.08549.018-.00526.001-.01154-.00373-.01735-.00581l.01492-.00847.11113-.04371.02528-.01091-.02279-.01817A.58766.58766,0,0,0,1.986,2.56413a.043.043,0,0,0-.03429-.00351.18227.18227,0,0,1-.0997.01c-.02778-.00067-.05551-.00412-.08322-.00674L1.76036,2.559l.00775-.01009A.10058.10058,0,0,1,1.83128,2.537a.48752.48752,0,0,0,.06986.00425.05048.05048,0,0,0,.01636-.00564.06659.06659,0,0,0-.01522-.0065c-.05567-.00873-.11146-.01669-.16706-.02582a.112.112,0,0,1-.02627-.01172.14759.14759,0,0,1,.02832-.00684c.01805-.00082.03619.00062.0543.00059l.01173-.00349-.008-.01019-.01147-.007a.08287.08287,0,0,1-.00765-.01672c.0053-.00061.01167-.00341.01574-.00145a.25734.25734,0,0,1,.05492.03011.13175.13175,0,0,0,.0716.031.15191.15191,0,0,1,.06353.02157.09378.09378,0,0,0,.03905.0116c-.01159-.00879-.024-.01669-.03461-.02654q-.048-.04459-.09467-.09066l-.00507-.016a.05957.05957,0,0,1,.01688.0005.04547.04547,0,0,1,.01506.00949q.06415.05555.1279.11157a.055.055,0,0,1,.01721.02041.124.124,0,0,0,.05363.06224c.01058.00727.02067.01529.03155.022a.0452.0452,0,0,0,.01443.00321l-.0046-.01378c-.0202-.0245-.04093-.04856-.06151-.07275-.03228-.03794-.06508-.07545-.09673-.1139A.38425.38425,0,0,0,1.842,2.3165a.54589.54589,0,0,1-.06128-.03842.39412.39412,0,0,0-.05912-.02667c-.02346-.00834-.04787-.014-.07184-.021a.04637.04637,0,0,1-.01485-.00526.08974.08974,0,0,1-.01274-.0143c.00613-.00346.01249-.01019.01836-.0098a.354.354,0,0,1,.05814.00838.39969.39969,0,0,1,.158.07506c.00151.0012.004.00119.0082-.00106L1.8265,2.25c-.02325-.02031-.04586-.0414-.06986-.06078a.23568.23568,0,0,0-.09426-.03571.29762.29762,0,0,1-.10848-.04891c-.00438-.00336-.00561-.01082-.00831-.01639a.04821.04821,0,0,1,.01876-.002c.04067.01356.081.02806.12148.04228l.00638.00232.024.00246a.0956.0956,0,0,0-.013-.019c-.03424-.03068-.06731-.06307-.10411-.09037-.03312-.02456-.07073-.043-.10593-.06486a.34777.34777,0,0,1-.03075-.024.22331.22331,0,0,1,.034.01136c.01933.01.03764.02192.05655.03274l.01029.00251-.0028-.01038C1.551,1.96294,1.54023,1.956,1.53112,1.9473a.24755.24755,0,0,1-.01994-.0242l.02693.00794a.12048.12048,0,0,1,.064.05287.32155.32155,0,0,0,.08375.09367c.014.00876.02388.024.039.034-.00933-.015-.01939-.02964-.02781-.04514A.87762.87762,0,0,1,1.65486,1.984a.34471.34471,0,0,0-.06675-.09028l-.00656-.00617L1.57577,1.874l.01647-.00045a.17322.17322,0,0,1,.06076.05264c.02335.04279.04662.0857.072.12728.02315.03791.04924.074.07373.11113a.36775.36775,0,0,0,.03411.05295c.042.04419.08613.08628.12936.12926l.04364.04423a.5787.5787,0,0,1-.02368-.07143.31716.31716,0,0,0-.05989-.10736.67356.67356,0,0,1-.07065-.17346l.001-.01224.01382.005a.05444.05444,0,0,1,.00834.01583c.02164.0472.04309.09448.065.14158a.03834.03834,0,0,0,.01637.01713.27129.27129,0,0,0-.00368-.03035c-.013-.05575-.02656-.11138-.03975-.16709l-.00056-.01218.01082.00673a.26284.26284,0,0,1,.02961.05275c.01384.04289.02519.08667.03551.13057.00635.02707.00881.055.01335.08254l.00482.00977.00509-.00569a.25811.25811,0,0,0-.02447-.18857.09265.09265,0,0,1-.01322-.02365c-.00166-.005.00141-.01165.00236-.01756l.015.0068a.203.203,0,0,1,.04868.1594.71694.71694,0,0,0,.00256.17131.049.049,0,0,0,.00691.01491.05448.05448,0,0,0,.01039-.01323.44372.44372,0,0,0,.02995-.08961.24129.24129,0,0,0-.00516-.14876.14313.14313,0,0,1-.01085-.04326c-.00065-.00431.00528-.00961.0082-.01446.00455.00327.01076.00555.01339.01a.219.219,0,0,1,.02029.1788c-.00941.0332-.02236.0654-.03173.09861a.12765.12765,0,0,0-.00468.047.14254.14254,0,0,0,.04344.09837.33065.33065,0,0,1,.0263.03367.07139.07139,0,0,0,.0162.01073.05466.05466,0,0,0,.00531-.01725c-.003-.0662-.00518-.1325-.01085-.19849a.387.387,0,0,0-.01967-.067A.06447.06447,0,0,1,2.14,2.26234c.00484.00379.01206.00659.0141.01154.00826.01993.01552.04034.022.06094a.31986.31986,0,0,0,.01321.04245l.00593-.02239.00812-.01112c.00247.00422.00725.00857.007.01263-.00118.02033-.00351.0406-.00584.06084l-.00412.01531a.28379.28379,0,0,0,.001.16895.21838.21838,0,0,0,.07216.094c.00448.00391.01123.00649.0136.01133a.49633.49633,0,0,0,.1.115A.8425.8425,0,0,1,2.35,2.74456a1.21764,1.21764,0,0,1-.044-.13687c-.02153-.09029-.04133-.1811-.05805-.27239-.0126-.06881-.01925-.1387-.02859-.20811-.00523-.03887-.01194-.07761-.01546-.11663-.00379-.042-.005-.08432-.00656-.12653a.03148.03148,0,0,0-.02528-.034c-.06257-.01993-.12554-.03956-.186-.065a1.29328,1.29328,0,0,1-.22715-.11237c-.04493-.03032-.09332-.05547-.13909-.0846-.0286-.01821-.05549-.03917-.08267-.05953-.02936-.022-.05955-.0432-.08681-.06762-.02561-.02294-.04793-.04956-.07153-.07472A.138.138,0,0,0,1.3677,1.372.226.226,0,0,1,1.299,1.278c-.00705-.01759-.01231-.01643-.025-.00266a.83077.83077,0,0,1-.14526.14195.04056.04056,0,0,0-.01077.01379l-.03975.06922-.00645-.00286c.00321-.00988.0069-.01964.00938-.0297l-.00186-.01252-.01017.00129c-.02251.01052-.04506.021-.06719.03233a.03044.03044,0,0,0-.01614.03652.19436.19436,0,0,1-.01564.12572A.04609.04609,0,0,0,.96977,1.679c.00333.01226.00835.02752-.00443.032-.01048.00368-.0251-.00414-.03777-.00732l-.004-.00529c-.02438-.03137-.02431-.03122.01261-.04774a.02224.02224,0,0,0,.0114-.01016.17059.17059,0,0,0,.01809-.09194c-.00295-.01623-.00732-.01806-.02044-.007-.01605.01358-.03115.02829-.04657.0426l-.00383.00531.00945.00235c.0119-.00193.01182.00184.00641.01066a.05315.05315,0,0,1-.08477.01281.0189.0189,0,0,1-.00433-.02946.05017.05017,0,0,1,.04472-.02468c.02029-.00009.04046-.02476.06069-.03855l-.00763-.01c-.02477.00131-.04945.004-.0742.00563a.08344.08344,0,0,1-.02438-.00182C.8065,1.5131.79127,1.5083.792,1.48993c.00069-.01732.017-.01967.02946-.02367a.07412.07412,0,0,1,.02911-.00307.03743.03743,0,0,1,.018.00976c.00505.0042.00837.01446.01282.01468A.17049.17049,0,0,0,.92126,1.4831l-.00062-.015a.14315.14315,0,0,0-.08873-.05729l-.023-.00547.001-.0072.01984.00918.00178-.00993L.79946,1.38955.71784,1.37281c-.01091-.00223-.017-.00658-.00924-.01855l.001-.01027C.69226,1.32263.7115,1.3227.72389,1.31981A.09408.09408,0,0,1,.786,1.3227c.0111.00493.01785.01031.01792.02263.00008.01431.00718.02066.02148.024A.17156.17156,0,0,1,.9382,1.446c.00276.00444.00869.0069.01315.01028l.004-.01475a.07883.07883,0,0,0-.08789-.08727c-.00714.00041-.016.00664-.02089.00411a.02248.02248,0,0,1,.001-.04021.04682.04682,0,0,1,.06813.02213.09724.09724,0,0,0,.01779.02527l.01609.00293c.02007-.01528.04246-.00573.06366-.008a.24736.24736,0,0,0,.0477-.01126c.00978-.00312.00963-.00913-.00054-.01269l-.04937-.01655C.99314,1.31426.97535,1.30856.95735,1.3037.94362,1.3.93757,1.29228.94313,1.2788c.00479-.01162.00082-.01165-.00957-.01142C.91485,1.2678.8961,1.265.87735,1.26474a.353.353,0,0,0-.14758.0026.19113.19113,0,0,1-.04221.00737c-.01012.00159-.018.00489-.01424.01754.00364.01222-.00451.01583-.01346.01944A.07839.07839,0,0,1,.56758,1.285c-.01-.01349-.00815-.01926.00833-.01952a.03719.03719,0,0,0,.03138-.01381c.00615-.00749.01387-.00915.01893.00291l.009.0078c.0266-.00439.05318-.00911.07946-.01509.01105-.00251.01292-.0093.00289-.01722a.08488.08488,0,0,0-.05287-.02288.076.076,0,0,1-.06382-.02864.09441.09441,0,0,1-.00926-.02313c.009-.0023.01917-.00841.02675-.00608a.08858.08858,0,0,1,.03937.0214.10682.10682,0,0,0,.07281.03l.00039-.00226c-.00474-.01033-.017-.02-.00553-.03225a.04418.04418,0,0,1,.0479.00429c.0144.0198.02655.04122.04041.06143.00383.00559.01034.01322.0157.01328q.062.00068.124-.00182a.0954.0954,0,0,0,.02628-.00912l-.0225-.01418A.6818.6818,0,0,1,.894,1.185a.741.741,0,0,1-.07667-.06247.02429.02429,0,0,0-.03689-.00206.4187.4187,0,0,1-.04977.02614L.717,1.15415a.04044.04044,0,0,1-.06274-.00173c-.00846-.00951-.01964-.024-.0176-.03377C.6401,1.10224.65824,1.112.67012,1.11115c.01246-.00092.026-.00463.0351.0089l.004.00165.06095-.03762L.7615,1.07449c-.0322,0-.0608-.02175-.09546-.01213-.02149.006-.03843-.01062-.04941-.02908L.62092,1.0174A.03267.03267,0,0,1,.659,1.01718a.49448.49448,0,0,0,.07121.03841c.02326.00935.03049.00087.02427-.0241a.08024.08024,0,0,0-.00925-.02305C.74184,1.00307.7331,1.00038.73116.99493.7267.98239.70844,1.01731.7098.98772.71023.97822.702.96864.69966.95864A.02746.02746,0,0,1,.72827.92286c.015.00032.03.00255.045.00239A.05876.05876,0,0,0,.79134.91868L.78262.90648.777.89275A.05041.05041,0,0,1,.79137.88935.1578.1578,0,0,1,.87546.9073.15454.15454,0,0,0,.93214.91962L.94258.9173.93833.908C.92052.89308.90236.87858.88429.864A.34606.34606,0,0,1,.84776.834.03816.03816,0,0,1,.85.78082.01866.01866,0,0,1,.86419.777C.8834.78074.90229.784.90989.80767c.003.00935.01581.01522.023.02367A.05885.05885,0,0,1,.94733.85471.06261.06261,0,0,0,.99142.89956L.99949.89064A.17152.17152,0,0,0,.99788.85.02148.02148,0,0,0,.9823.83639C.956.83793.94406.8184.93063.80253.92094.79108.9313.78629.94168.78645c.01248.00019.02463.00491.036-.00652l.02348.00779c.00929.00257.01643.00372.01284.01766-.00243.00942.00329.02067.00384.03118.00126.02383.0011.04773.00257.07154a.03642.03642,0,0,0,.007.02081c.037.04165.07551.082.11216.124.04173.04778.08195.09687.1231.14517l.0126.00811a.04594.04594,0,0,0,.00422-.01393.5193.5193,0,0,0-.00482-.08579c-.00729-.03588-.02385-.06993-.03062-.10585C1.23685.96227,1.21379.95294,1.18013.95151a.1347.1347,0,0,1-.041-.01108C1.12722.93584,1.12031.93752,1.11737.95049c-.00355.01569-.0154.02128-.02681.01264A.1834.1834,0,0,1,1.05913.92569l.00317-.009C1.08462.913,1.10708.91,1.12889.907L1.10967.879C1.103.86955,1.10391.86347,1.11679.86286c.016-.00075.029-.00153.03615.02.00438.01314.02313.02151.03566.03173l.0052-.006a.086.086,0,0,0-.01165-.022C1.15869.85916,1.13533.83146,1.11029.8054,1.09318.78759,1.09335.7897,1.08038.81a.11981.11981,0,0,1-.03073.02708L1.03784.83455,1.04273.825,1.04961.81925c.00479-.00813.01223-.01672.012-.025C1.06155.78978,1.04855.78416,1.04055.78152,1.01332.77253.98528.76585.95847.75582A.11012.11012,0,0,1,.92431.73238L.92126.71282C.9305.71317.94267.70985.94848.71449a.20681.20681,0,0,0,.11375.05021A.03973.03973,0,0,0,1.07542.76085L1.06489.75134A.111.111,0,0,1,.99553.701C.984.68757.989.68052,1.00445.679c.02471-.00237.04952-.00465.07429-.0047.00562,0,.01314.0082.01649.0144.00674.01246.01061.02645.017.03914A.0158.0158,0,0,0,1.12475.734L1.13165.72382A.10259.10259,0,0,0,1.1257.63859L1.12484.63651,1.12257.603c.01236.00481.025.00908.03688.01484.00262.00127.00415.008.00372.0119-.00391.03527-.00832.07048-.0127.10569A.05217.05217,0,0,1,1.14683.7553c-.01324.02182-.00459.03756.01054.05426.0227.02507.04375.05166.065.078C1.226.892,1.2258.8998,1.22969.90378a.07061.07061,0,0,0,.0266.02075c.00688.002.01676-.00659.02529-.01044A.10323.10323,0,0,0,1.2682.89488.10829.10829,0,0,0,1.23744.872C1.21338.86258,1.21133.83834,1.19935.821L1.20472.80907a.04213.04213,0,0,1,.05093.01572.312.312,0,0,0,.031.0317c.009.00958.01734.01976.02572.02988l.01012.01422c.00279.004.00749.00785.00794.01212.00281.0268.00539.05368.0064.0806a.08187.08187,0,0,1-.00716.02463A.11.11,0,0,1,1.32058.99429C1.31836.97868,1.319.96268,1.317.947,1.31478.93017,1.30623.92684,1.29224.93639l-.01234.01c-.012.00748-.01351.01451-.00794.02925.01074.02844.01595.05894.024.08842a.29436.29436,0,0,0,.01325.03808l.01153.00556.00414-.00986.00343-.02241.004-.01192a.0447.0447,0,0,1,.00576.01328c.001.01277.00052.02564.001.03846l.00235.01212.00825-.01c.00921-.02475.01939-.04929.02638-.07469A.26528.26528,0,0,0,1.371.90445.03472.03472,0,0,1,1.36932.882.02227.02227,0,0,0,1.36944.86866c-.01275-.03849-.02567-.07693-.03958-.115C1.32892.7511,1.31857.74926,1.31433.75109a.15267.15267,0,0,1-.097.00946C1.21174.75927,1.20713.75374,1.20207.75018L1.2208.747c.01778-.00162.0357-.00213.05332-.00475A.01714.01714,0,0,0,1.28547.73061C1.28594.72716,1.27956.72045,1.275.719A.24693.24693,0,0,1,1.20038.66954L1.19575.66467,1.19073.643a.06847.06847,0,0,1,.02071.00618c.01951.01371.03746.02972.05747.04257a.0275.0275,0,0,0,.02564.00085A.03126.03126,0,0,0,1.29718.6665.04139.04139,0,0,0,1.25911.63143C1.24671.63,1.23453.61109,1.22593.59771A.13751.13751,0,0,1,1.21475.56079L1.255.55546A.078.078,0,0,1,1.30883.574.03176.03176,0,0,1,1.3242.6124c-.0011.0044-.00383.00915-.003.01313.0021.0098.00585.01924.00894.02882.00607-.00512.01425-.0091.01779-.0156A.18213.18213,0,0,0,1.36559.59606C1.37076.575,1.38008.56892,1.39942.578L1.41.58172c.01307.00017.01436.00764.0091.01629-.01243.02041-.02579.04025-.03923.06C1.37482.66539,1.368.67151,1.36311.679L1.36043.69244a.01633.01633,0,0,0,.014.00439A.05128.05128,0,0,0,1.39614.68607C1.41535.668,1.43329.64855,1.45227.6302L1.467.62372l.00188.01462a.32942.32942,0,0,1-.04466.064.09485.09485,0,0,1-.04829.01375C1.35736.719,1.35523.722,1.36156.73893c.01095.02937.02048.05927.031.08879l.00784.00934A.01758.01758,0,0,0,1.41278.82943.085.085,0,0,0,1.4233.76436C1.41483.73944,1.41841.73623,1.44476.72958a.08067.08067,0,0,1,.05983.01473c.01351.00712.00884.04662-.00624.06061-.01339.01241-.02754.022-.04494.00559C1.44218.7999,1.4374.80641,1.42992.817A.14062.14062,0,0,0,1.4142.93741a.26174.26174,0,0,1,.003.065.35574.35574,0,0,1-.03174.1582.0766.0766,0,0,0-.00436.01675A.05949.05949,0,0,0,1.4,1.1766a.347.347,0,0,0,.18812-.15515A.22609.22609,0,0,0,1.60626.97278a.02283.02283,0,0,0-.01732-.028C1.57625.94007,1.56227.93869,1.54978.93359,1.52693.92424,1.50442.91388,1.48253.90246A.0366.0366,0,0,1,1.4699.88492L1.47183.87284a.01833.01833,0,0,1,.01409.00151c.021.01333.04136.02759.0622.04113l.01238.00378L1.55793.90736C1.54744.88576,1.53692.86417,1.52569.843,1.5201.83241,1.51883.82439,1.53254.82024L1.53469.81957l.0178-.014a.28139.28139,0,0,1,.02978.03256c.00363.00454.00454.01117.00789.016l.00926.00469.00213-.01A.47936.47936,0,0,1,1.601.79756.03054.03054,0,0,1,1.614.77516a.03534.03534,0,0,1,.04223.00454c.022.023.04417.0456.02191.08087L1.68069.8747,1.69607.86986c.00726-.00752.0117-.0179.01931-.02492A.02541.02541,0,0,1,1.73519.83877a.01851.01851,0,0,1,.00845.01629.13364.13364,0,0,1-.01821.03911.37291.37291,0,0,1-.0345.03567L1.68707.9376l.0101,0c.01837-.01177.03644-.024.05442-.03636.00557-.00382.0102-.011.016-.012A.02532.02532,0,0,1,1.788.895c.00776.00923-.00182.03843-.013.04534A.17145.17145,0,0,1,1.6914.96605.03992.03992,0,0,0,1.65324.994a.35122.35122,0,0,1-.141.15448c-.04333.02549-.0917.04229-.13626.0659a.16758.16758,0,0,0-.04155.03951l.00309.01782a.50308.50308,0,0,0,.07755.08169.63074.63074,0,0,1,.06145.063c.03523.033.07167.06469.10816.09629.01584.01371.03355.02525.04949.03886.01152.00984.01541.00412.01824-.00668a.05326.05326,0,0,1,.00374-.01525l.0115-.00526a.05683.05683,0,0,0,.06555-.01744c.01027-.012.009-.02441-.00512-.02942-.03685-.01307-.07-.04122-.11331-.03016L1.608,1.44727l-.0339-.00988c.00538-.01464.01053-.02937.01657-.04373l.01052.00082c.00534.01938.01535.01834.02955.00875l.01532.00166.04849.01147.01-.00038-.00493-.00952c-.0073-.00761-.01574-.01418-.02251-.02219A.0265.0265,0,0,1,1.671,1.36851c0-.02475-.01271-.03472-.037-.02914a.09842.09842,0,0,1-.03335.00334c-.01944-.00243-.02393-.01424-.01291-.03012l.01346-.01527c.00737-.0082.0126-.009.02189.00015.01906.01882.04013.03471.07031.02064.00613-.00285.01576.0016.02373.003a.14166.14166,0,0,0,.02.00375.07745.07745,0,0,0,.01726-.00344l-.012-.01121c-.01589-.01274-.03288-.02427-.04761-.03819-.01055-.01-.01952-.01648-.03329-.007-.00987.00678-.01237.00076-.018-.00752-.02152-.03149-.00144-.05574.01229-.0807.00608-.01106.01628-.01134.02676-.00245a.24438.24438,0,0,0,.03072.02165.02007.02007,0,0,1,.00155.03519c-.01626.01438-.01673.018.00115.02945.01838.01178.03786.02188.05715.03217.01031.0055.01716.00107.01582-.01012a.16784.16784,0,0,0-.03813-.10626.05849.05849,0,0,1-.01453-.02463c-.00159-.00593.00146-.01785.00559-.01959a.03317.03317,0,0,1,.027-.001.07942.07942,0,0,1,.0337.07206.28761.28761,0,0,0,.01127.07738c.00275.01166.01346.006.0166-.00107a.15229.15229,0,0,0,.0205-.08374.032.032,0,0,1,.03729-.03135.04047.04047,0,0,1,.02591.01685.02384.02384,0,0,1-.017.03049c-.01935.00672-.02443.02216-.03167.03818a.476.476,0,0,1-.02569.04234c-.0116.01981-.00764.02888.01522.03294a.55376.55376,0,0,0,.23552-.01146.04779.04779,0,0,0,.01246-.00792L2.09441,1.296c-.0391-.03523-.07937-.06926-.117-.106-.01869-.01822-.03158-.04224-.0491-.06185a.16964.16964,0,0,0-.03792-.03c-.02167-.01333-.04449-.0248-.06686-.037-.02117-.01153-.0432-.02174-.06323-.035A.06478.06478,0,0,1,1.73835.998c-.002-.00472.00488-.01748.01053-.01981s.01551.00259.02214.0066c.03264.01976.0648.0403.0972.06044l.00826.003-.001-.01016c-.01593-.02816-.032-.05629-.04874-.084A.03573.03573,0,0,0,1.81244.94344c-.01688-.00885-.014-.02377-.01105-.03769a.0242.0242,0,0,1,.02715-.019.02715.02715,0,0,1,.02283.038c-.01421.03558.01188.05316.02741.07571.01255.01821.02665.03534.04.053l.00626.0086.00657-.01079A.19528.19528,0,0,0,1.92911.93758.29015.29015,0,0,0,1.90558.87963C1.8977.86275,1.90511.84821,1.92412.84876c.03036.00089.04143.00042.03507.03481a.066.066,0,0,0,.00186.02c.00456.03339.00855.06688.01438.1.0013.00739.00923.01361.0141.02037a.07461.07461,0,0,0,.01482-.0139A.034.034,0,0,0,2.00089.9665.11951.11951,0,0,1,1.97658.88792c-.00018-.0196.008-.02545.0273-.02059a.168.168,0,0,1,.04513.022A.52971.52971,0,0,0,2.14324.926L2.15057.92293l-.004-.00785L2.10421.87423A.23972.23972,0,0,1,2.0817.852.09727.09727,0,0,0,2.03584.81672C2.03049.815,2.02328.80749,2.02353.803A.02059.02059,0,0,1,2.0361.78885.13388.13388,0,0,1,2.0759.78237c.00427,0,.01315.01374.012.01534-.01352.01834.00165.02867.01111.03859.017.01781.03591.03375.05418.0503L2.1606.89029,2.16067.88221A.36292.36292,0,0,0,2.15229.83576a.03756.03756,0,0,0-.01582-.0187C2.1196.80662,2.11516.79736,2.12291.78242A.02419.02419,0,0,1,2.16124.77395a.03945.03945,0,0,1,.019.03727.27156.27156,0,0,0,.01629.06727L2.20845.87405c.00991-.02516.019-.05064.028-.07616L2.24533.76775C2.24933.754,2.2556.73988,2.23668.73111L2.23328.72053A.03851.03851,0,0,1,2.28453.7022a.0224.0224,0,0,1-.00585.03858c-.01451.00645-.017.01719-.0204.02975C2.24851.807,2.2381.8432,2.22786.87949L2.22417.89015a.17851.17851,0,0,0,.00091.01947A.055.055,0,0,0,2.24533.90429.30592.30592,0,0,0,2.32247.79681C2.32537.79114,2.31958.78145,2.31935.77358c-.00022-.00742-.00064-.0199.00289-.02147a.11544.11544,0,0,1,.042-.01073c.00727-.00023.02086.00884.0211.01417A.02566.02566,0,0,1,2.363.785c-.01721.00069-.022.01013-.02886.02284C2.32382.827,2.30964.844,2.298.86259A.07886.07886,0,0,0,2.29192.8827l.01888-.003L2.326.87554c.01566-.00134.02543.00876.01774.022-.02424.04177.00738.06629.02664.09437.007.01024.01735.00808.01876-.00482A.62749.62749,0,0,0,2.39251.91518c0-.00524-.00785-.01021-.01146-.01571C2.37729.89373,2.37028.88591,2.37188.88185,2.37435.87561,2.38251.871,2.38913.86722c.005-.00286.01212-.00212.017-.00508.00928-.00559.01273-.012.00147-.02076C2.39361.83048,2.39619.819,2.4128.813c.03228-.0117.0445-.00217.0479.0318.001.01027.01228.02079.02113.0286A.09836.09836,0,0,0,2.5081.88544C2.50717.87529,2.50705.865,2.50515.855A.40987.40987,0,0,0,2.49238.80011.14579.14579,0,0,0,2.47417.77322c-.004-.00641-.01094-.01482-.00929-.02A.0277.0277,0,0,1,2.48326.73977.105.105,0,0,1,2.51884.737c.02131.00229.02552.00824.01418.02573a.09752.09752,0,0,0-.00861.08277A.50228.50228,0,0,0,2.54462.9l.00486.00321L2.55494.89652a.26423.26423,0,0,0,.00588-.038c.001-.02284.01248-.0448.00283-.06882-.005-.01231.01011-.02084.04016-.02715.01454-.00306.01984.00525.023.01563.00369.01223-.01621.03084-.03138.02717-.01563-.00379-.01634.00259-.01595.01436.00072.02186.00091.04375.001.06563,0,.01253.00309.02023.01716.01223C2.625.882,2.6529.86705,2.67925.84979c.00646-.00423.00731-.0166.01152-.02482s.00758-.01974.01436-.02257A.08218.08218,0,0,1,2.74461.79686a.016.016,0,0,1,.01271.02391c-.00335.00717-.00991.01753-.01576.018-.02742.0024-.038.02527-.0531.04153A.30281.30281,0,0,1,2.58865.9406a.07711.07711,0,0,0-.04146.04767l-.01148.03615c-.00329.01-.00047.01465.01052.013A.04157.04157,0,0,0,2.57979.99932c.0033-.01551.00946-.02221.02509-.02271C2.612.97637,2.61893.97078,2.62614.97024a.02241.02241,0,0,1,.01734.00531.01868.01868,0,0,1-.00007.01791c-.01059.01243-.01993.031-.04222.01621-.00241-.00159-.01428.00444-.0154.00863a.1009.1009,0,0,1-.05779.06.075.075,0,0,0-.02387.02216.99951.99951,0,0,1-.05942.088.55423.55423,0,0,1-.07084.05909q-.0409.03354-.08149.06746l-.00614.01053.01006.00424a.39678.39678,0,0,0,.23523-.03758A.443.443,0,0,0,2.67634,1.182.0372.0372,0,0,0,2.684,1.15594.52581.52581,0,0,1,2.68354.99588.02918.02918,0,0,0,2.671.96245c-.01376-.00836-.00846-.01967.0005-.02832A.07288.07288,0,0,1,2.73529.91987c.01208.00143.01783.02766.00609.03826a.1901.1901,0,0,0-.04373.12738.02685.02685,0,0,0,.00138.01559.13009.13009,0,0,0,.01415.01877c.00473-.00515.01175-.00951.01381-.01557.01069-.03145.02035-.06326.02987-.0951.00458-.0153.04482-.0331.05786-.02409l.00294.01422c-.00788.0066-.01828.01677-.02611.01551-.01762-.00285-.019.00667-.02116.0184-.00519.02813-.011.05615-.01525.08442a.01857.01857,0,0,0,.00777.01586.08692.08692,0,0,0,.03906.00539c.0379-.00773.07241-.021.08332-.0653.00522-.0212.01689-.02346.03551-.01309a.04674.04674,0,0,0,.02482.004c.0111-.00077.016.00351.01565.01377-.001.02864-.01393.04884-.04531.03682-.01584-.00607-.02461-.00049-.03759.00928a.51759.51759,0,0,1-.07115.03875l-.013.00761.01052.01069a.1323.1323,0,0,0,.10912.01257l.00875-.009c.0073-.01759.01435-.01087.02174-.00033.00776.01106.01617.02174.023.03337.00256.00438.00368.01442.00145.01592-.00964.00649-.02124.0155-.03122.01449-.00942-.00095-.02807.002-.02871-.01806l-.01094-.00326a.153.153,0,0,1-.1491-.04522l-.0151.00183c-.02388.02594-.04689.05269-.0702.07916-.017.01925-.01571.02962.00546.04374l.00771.00454.0141.028c-.0094.00313-.0197.01038-.028.00856-.01935-.00423-.02262.00446-.02288.02-.00023.01356-.00215.02709-.00219.04063a.06481.06481,0,0,0,.00453.01679.05243.05243,0,0,0,.01612-.006.16184.16184,0,0,0,.06711-.13439c-.001-.023.00259-.02674.02573-.02182.01337.00284.03273.00507.03761.014.00784.01438-.00927.02408-.0203.03311l-.0048.00977a.18189.18189,0,0,1-.07553.11431.07527.07527,0,0,0-.01212.015.08727.08727,0,0,0,.0191.00311.28409.28409,0,0,0,.11772-.02882A.05113.05113,0,0,0,2.82743,1.408l.00783-.01469c.00513.00385.01256.0067.01479.01181a.03352.03352,0,0,1-.00013.02053l-.01079.00742c-.04154.01307-.08321.02575-.1248.03865l-.01159.00488.0076.0105a.09121.09121,0,0,0,.08263.02679q.02721-.00492.05461-.00871l.007.00472a.15523.15523,0,0,1,.00128.04263.03092.03092,0,0,1-.01922.02072c-.01452.00239-.01522-.01149-.01474-.02224.00042-.00949.00013-.01789-.01239-.01535a.20308.20308,0,0,1-.15869-.04556.04668.04668,0,0,0-.05154-.00524A.32945.32945,0,0,1,2.2814,1.455c-.01406-.00857-.02645-.01983-.0401-.02912a.09314.09314,0,0,0-.01769-.0074.0734.0734,0,0,0-.002.01962c.00377.0223.00777.04464.01335.06653a.55655.55655,0,0,1,.01287.15749c-.00105.03155.00012.06321-.00158.09471-.00173.0323-.00737.06442-.00837.09671a1.39483,1.39483,0,0,0,.00046.14232c.00328.04582.01271.09119.01938.13676.00808.0552.01539.11053.02436.16559.00654.04013.01482.08.023.11983.01066.05167.021.10345.03345.15471.00923.03813.02333.07511.032.11335a.46362.46362,0,0,0,.05829.12935.21949.21949,0,0,1,.029.0898.04607.04607,0,0,0,.011.024c.02578.02957.0515.05932.07922.087.02922.0292.06059.05626.09122.084.02042.01853.04087.03705.0619.05487a.35259.35259,0,0,0,.03482.02505l.012.0021.00075-.0106-.0107-.0224-.046-.10089c-.01-.02191-.02149-.04324-.03024-.06564-.01781-.0456-.03437-.0917-.05118-.13769-.01162-.0318-.02363-.06349-.034-.09571a.50924.50924,0,0,1-.02146-.18767c.00184-.03089.00655-.06165.0076-.09254a.19278.19278,0,0,0-.00752-.04188.45207.45207,0,0,0-.016-.07706.26708.26708,0,0,0-.10265-.12269.36139.36139,0,0,1-.04956-.048L2.3858,2.1692l.0137.003c.01386.01133.02655.02411.04057.03523a.055.055,0,0,0,.01808.00582.10132.10132,0,0,0-.00752-.01735c-.01883-.02811-.03829-.0558-.0571-.08393a.07006.07006,0,0,1-.00935-.02053c-.00118-.00442-.00029-.0131.002-.014a.0186.0186,0,0,1,.01623.001.11732.11732,0,0,1,.01824.02513c.01206.0207.02221.0426.03538.06253.01771.02678.03711.05249.05656.07806.01821.02394.03741.04713.05626.07058l.0061.00567L2.578,2.31248a.374.374,0,0,0,.00432-.0677c-.0054-.0517-.01471-.103-.02159-.15455A.12847.12847,0,0,0,2.5013,2.0067c-.03887-.0308-.07435-.066-.11009-.10049-.00507-.00489-.00763-.021-.00406-.0245A.02.02,0,0,1,2.4173,1.884c.01311.01465.02508.03038.03892.04427a.28606.28606,0,0,0,.03154.02424c-.0048-.01114-.00874-.02276-.01457-.03333-.01165-.02117-.025-.04141-.03621-.06282a.09924.09924,0,0,1-.00558-.02678.086.086,0,0,1,.03124.01173.26884.26884,0,0,1,.03062.04189c.02265.03285.04541.06561.06756.09879.00944.01413.01748.02919.02836.04753a.319.319,0,0,0-.01884-.12785c-.00914-.02388-.01733-.0482-.02438-.07276-.00158-.00548.00335-.01284.00528-.01933.0063.00309.01638.00469.01829.00952a.81988.81988,0,0,1,.03359.09537.40478.40478,0,0,1,.00631.06831l.006.00027.01007-.09317.00629-.04476.00426-.00732.00612.006a.1273.1273,0,0,1,.01383.08782.76085.76085,0,0,1-.03337.14971.27011.27011,0,0,0-.0093.12022l.00377.00675.00573-.00658a.203.203,0,0,0,.03358-.10428c.00211-.01414.00178-.02865.00391-.04279a.05088.05088,0,0,1,.0083-.01514.06684.06684,0,0,1,.011.01248.13609.13609,0,0,1,.00168.10519L2.677,2.18017a.085.085,0,0,0,.02232-.01239c.01442-.01517.02717-.03193.04082-.04785l.00844-.00625.004.01156a.09814.09814,0,0,1-.046.06406L2.69876,2.194c-.04891.01783-.06336.06374-.08334.10433a.14409.14409,0,0,0-.00914.04636c-.00357.03065-.0062.06142-.00877.09217a.04015.04015,0,0,0,.0031.0124l.00747-.00343c.019-.02266.03871-.04478.05606-.06864a.416.416,0,0,0,.02725-.04952l.00489-.01011L2.712,2.30675a.05237.05237,0,0,1,.002.01851c-.00491.01817-.01164.03584-.01707.05389a.07731.07731,0,0,0-.00141.01621.06148.06148,0,0,0,.01291-.01164c.0146-.02376.029-.04765.04244-.0721.0083-.01515.01437-.0315.02186-.04711a.29078.29078,0,0,0,.01418-.118c.00053-.0113.0007-.02264.00038-.03394a.06161.06161,0,0,0-.00278-.0244c-.01417-.02883-.03041-.05664-.04467-.08542a.15265.15265,0,0,1-.01524-.08992c.00079-.00574.00715-.0107.01093-.016.00332.00432.00842.00818.00965.013.00458.018.00788.03637.0117.05459.00248.01182.00429.02386.00788.03534.00151.00483.00686.00846.01047.01263a.06373.06373,0,0,0,.00805-.015c.00186-.008.00028-.017.0028-.02469.00722-.02207.01525-.04393.02425-.06533l.01425-.00775a.05035.05035,0,0,1,.00214.01421.16143.16143,0,0,1-.00606.02648.373.373,0,0,0-.00194.16106.19923.19923,0,0,0,.0116.038l.00523.00654.00525-.00641.01678-.068c.0057-.0242.01066-.04858.01694-.07262.00121-.00463.007-.00805.01067-.012.00246.00422.0072.00855.007.01266a.3696.3696,0,0,1-.06108.21881.40905.40905,0,0,0-.03135.05663c-.01064.02-.02121.04-.03126.06025l-.00231.01418L2.77654,2.342c.01472-.014.02863-.02893.044-.04221a.11849.11849,0,0,0,.04158-.06815c.00114-.00576.00837-.01032.01279-.01543a.09619.09619,0,0,1,.00847.01877.04909.04909,0,0,1-.002.01557l-.00207.01858a.05792.05792,0,0,0,.01964-.00391c.02038-.01272.04007-.02655.05978-.04031l.00934-.0097a.12348.12348,0,0,1,.0195-.00621A.05467.05467,0,0,1,2.982,2.2266a.5443.5443,0,0,1-.105.09529.08329.08329,0,0,1-.06254.02616c-.00432-.00053-.0115.01515-.01564.02414l.00224.01406a.05382.05382,0,0,0,.01866-.00384c.04279-.0279.085-.05662.12773-.08469a.0958.0958,0,0,1,.01893-.00741c-.002.00672-.002.0153-.00633.01983a.3783.3783,0,0,1-.04454.04131.60321.60321,0,0,1-.09978.07713.5709.5709,0,0,0-.11366.068.19185.19185,0,0,0-.07665.11122.30689.30689,0,0,1-.01364.05494.16388.16388,0,0,0,.00611.10824.91106.91106,0,0,0,.06745.18465c.01792.03388.03081.0704.04819.10461a.2641.2641,0,0,0,.03318.04531c.02011.02457.03991.04954.06178.07249a.79169.79169,0,0,1,.10866.15814.53353.53353,0,0,1,.03108.08222c.015.04077.02949.08172.04529.12217a.06607.06607,0,0,0,.017.02042c.02973.02888.06184.05561.08927.08651.05872.06614.11445.13493.17268.20152.03025.0346.06335.06671.0948.10027a.14591.14591,0,0,1,.014.02038.32741.32741,0,0,0,.02107.032q.07363.08752.14834.17412a.21065.21065,0,0,0,.03233.02806l.01207-.00142L3.61148,4.195a.345.345,0,0,1-.09017-.14395.51225.51225,0,0,0-.07542-.12572c-.0424-.06145-.08541-.12249-.12833-.18357-.01474-.021-.03046-.0413-.04488-.0625-.01261-.01853-.02427-.03773-.03574-.057l-.00012-.01166.01224-.00076a.0951.0951,0,0,1,.02061.01717c.02426.02775.04768.05624.07207.08387a.10973.10973,0,0,0,.02025.01456.193.193,0,0,0-.0069-.02249.81273.81273,0,0,0-.03977-.08621.451.451,0,0,0-.05025-.06392c-.03462-.0399-.07149-.07795-.10465-.119a.419.419,0,0,1-.04016-.06967C3.11775,3.35939,3.12,3.3521,3.12,3.346c.00584.00228.01343.003.01721.00712.01873.02056.03646.042.05453.06321l.06447.07534.01028.00786-.00118-.01185c-.01909-.04174-.03829-.08343-.05792-.12491-.01607-.034-.03311-.06746-.049-.1015-.00786-.01684-.01328-.03484-.02134-.05157-.011-.02289-.02377-.04494-.03526-.06761-.00513-.01013-.009-.0209-.01346-.03139l.02237.02112c.02.01927.04023.0383.05972.05806a.28863.28863,0,0,1,.02272.02808c.00548.00718.00888.0172.01592.02174a.21653.21653,0,0,1,.059.08124.43639.43639,0,0,1,.02891.08281c.00841.02392.018.04742.02683.0712.0089.024.018.04789.02606.07216.01205.03653.02319.07336.03474.11l.0031.00844.01858.02141c0-.0078-.00021-.0156,0-.0234.00058-.0211,0-.04234.00228-.06326a.36635.36635,0,0,0-.03891-.17047c-.02292-.06059-.04478-.12159-.066-.18277-.0023-.00662.00244-.01568.00391-.02361l.026.01018.00269.00357c.024.03891.0491.07724.07163.117a.24477.24477,0,0,1,.024.06079c.01239.04963.02237.09987.03329.14986l.00315.01553.00648.00792.007-.00791c.00591-.02184.011-.04391.01676-.0658a.32725.32725,0,0,0-.00922-.16524.1237.1237,0,0,1-.005-.03121c.0001-.00624.00549-.0124.0085-.0186a.08026.08026,0,0,1,.01809.01107c.00388.004.00446.01107.00715.01645a.27749.27749,0,0,1,.03455.122c.00017.01871.00306.0374.00489.05608L3.56,3.51355l.00751-.00277a.47724.47724,0,0,0,.0928-.13028.11334.11334,0,0,0,.00667-.04641c-.00124-.02922-.0075-.0583-.00758-.08745a.073.073,0,0,1,.01541-.04025c.007-.00941.01811-.00241.02043.00749a.47238.47238,0,0,1,.01853.09688.47261.47261,0,0,1-.01591.0906.10083.10083,0,0,0-.00058.01491l.01591-.0039c.02659-.02648.05258-.05358.07845-.08077a.22782.22782,0,0,1,.0172-.02076.04788.04788,0,0,1,.018-.005c.00045.00627.00368.01447.00089.01849a.50464.50464,0,0,1-.06609.088.15319.15319,0,0,1-.09069.05225.02165.02165,0,0,0-.01229.00911.54659.54659,0,0,0-.10154.188.02738.02738,0,0,1-.01279.01675c-.03139.01267-.03258.04222-.03577.06771A.55538.55538,0,0,0,3.507,3.8456a.12015.12015,0,0,0,.01441.04694c.02853.05478.05867.10872.088.16311a.04426.04426,0,0,1,.00563.0171.14405.14405,0,0,0,.051.09758.68459.68459,0,0,1,.04618.053l.00728.00464,0-.00976c-.014-.04685-.03164-.09293-.04149-.14062-.00911-.04409-.008-.09018-.015-.13483-.008-.05127-.01918-.1021-.03046-.15279-.00753-.03383-.01823-.06695-.02614-.1007-.0016-.0068.00295-.015.00467-.02262.00623.00458.01488.00781.01832.014a.38842.38842,0,0,1,.06722.17785l.00492.00839.00633-.0088A.38412.38412,0,0,0,3.746,3.66254a.17989.17989,0,0,1,.001-.03163.01853.01853,0,0,1,.00769-.01175l.01048.00627a.17356.17356,0,0,1,.033.10621.36112.36112,0,0,1-.02431.13046.46063.46063,0,0,0-.04144.20477l-.00169.00858c-.02049.0137-.00889.03008-.00445.046.00466.0167.00857.03363.01355.05022a.20343.20343,0,0,0,.04656.0769.05356.05356,0,0,1,.01444.02723.05686.05686,0,0,0,.02866.04341c.02688.0182.053.03759.07951.05629l.01009.00414-.00189-.012a.421.421,0,0,1-.04013-.175.27469.27469,0,0,0-.02349-.07729A.449.449,0,0,1,3.81787,3.946c.00031-.01207.00751-.034.01205-.03417.01991-.00059.019.01941.02256.03313.00494.019.00672.03883.01234.05755a.246.246,0,0,0,.019.04052l.00807.00647.00494-.00935c.00449-.03215.0085-.06436.01284-.09652a.27322.27322,0,0,1,.0061-.03791.16011.16011,0,0,0-.01563-.09365c-.00616-.02023-.01351-.04014-.01864-.06061-.00148-.00593.00287-.01332.00455-.02.00723.0041.01929.00682.02092.01252.01215.04259.02218.08578.033.12875l.00985.03606a.22528.22528,0,0,0,.0098-.03513c.00263-.02238.003-.045.00467-.06754.00055-.00755.00051-.0155.01291-.01343l.01065-.01115A.2973.2973,0,0,0,3.979,3.7239a.32883.32883,0,0,1-.00929-.1251l.00417-.01036L3.996,3.56789a.14007.14007,0,0,1,.00537.02506.253.253,0,0,0,.02294.09168c.00689.01607.01134.01619.02359.00277.035-.03839.07006-.07679.10557-.11473l.01533-.006c.00046.0055.00288.01177.00108.01639a.31366.31366,0,0,1-.07011.10469.21429.21429,0,0,0-.0734.13631.34673.34673,0,0,1-.018.07466c-.01454.04836-.03136.09606-.04511.14464a.808.808,0,0,0-.01868.09053.59292.59292,0,0,0-.00961.0852.21689.21689,0,0,0,.09293.19942.32889.32889,0,0,0,.08455.0288l.00643-.01122a.29413.29413,0,0,0-.06574-.14691.11832.11832,0,0,1-.0238-.07615c0-.00895-.0011-.018-.00022-.02681a.05632.05632,0,0,1,.006-.015c.00411.00366.00963.00657.0121.01112.01177.02172.02218.04419.03425.06573a.08516.08516,0,0,0,.01693.01672.10543.10543,0,0,0,.0075-.02166.3456.3456,0,0,0-.02671-.157c-.00748-.02124-.0154-.04235.00449-.06338.01064-.01126.01427-.00923.02145.0016a.28124.28124,0,0,1,.04158.1321A.15863.15863,0,0,0,4.15255,4.18a.094.094,0,0,0,.018-.02113.38567.38567,0,0,0,.01961-.13357.07775.07775,0,0,1,.00209-.02679c.0036-.00773.0126-.01294.01923-.01925.00422.00695.01228.01405.012.02082-.00147.03692-.004.07387-.00805.11061a.3475.3475,0,0,1-.04815.13336.13651.13651,0,0,0-.01588.09832c.00431.02069.00679.04176.0108.06252a.22294.22294,0,0,0,.06309.10787l.00915.00989c.01139.03808.04658.05572.07118.0821.02974.0319.06379.05975.09515.0902a.63918.63918,0,0,1,.04895.05326c.011.0134.03224.01795.03393.03939l.00348.01064-.00251.02154a.05807.05807,0,0,1-.01876-.00491c-.02425-.0167-.048-.03414-.07163-.0517q-.06176-.04585-.12311-.09226c-.01013-.00769-.01882-.01728-.02882-.02518-.02946-.0233-.05835-.0475-.08926-.06872a.55767.55767,0,0,0-.0564-.0269q-.066-.03491-.13108-.0714c-.01831-.0103-.03557-.02249-.05308-.03416a.3027.3027,0,0,0-.13115-.05186A.28238.28238,0,0,1,3.659,4.35495a.04875.04875,0,0,0-.06581.003.03038.03038,0,0,1-.03519.00617c-.00765-.00286-.01792.00217-.02659.00087a.056.056,0,0,1-.01744-.01c.00423-.005.00754-.01241.01288-.01442.01263-.00475.02632-.00658.03937-.01031l.01048-.007-.0099-.008c-.0498-.01474-.0997-.0291-.14961-.04343-.02081-.006-.042-.011-.06239-.018-.00506-.00174-.008-.00975-.01184-.01489l.0158-.00411c.01432-.0009.02872-.00047.043-.00141a.34232.34232,0,0,1,.19585.05838l.00966.0058.07611.02747.00808.00428ZM2.86772,3.31694l.003-.00467-.071-.04941c-.03918-.02684-.07926-.05246-.11759-.08046-.04126-.03015-.08184-.06138-.121-.09416-.02941-.02461-.05571-.05289-.08423-.07861-.01615-.01458-.03479-.01038-.04018.01a.26735.26735,0,0,1-.0394.10271l.0001.01034L2.40776,3.131c.014-.01344.03422-.02529.03951-.04179.00848-.02647.03335-.02747.04853-.04226l.00985.00122.00119.01007c-.007.01559-.01632.03136-.035.03151-.01583.00013-.01993.00889-.02619.01981a.11352.11352,0,0,1-.094.06876.05323.05323,0,0,0-.02754.01657c-.021.01927-.04154.03907-.06082.06a.37224.37224,0,0,0-.02827.03959l.03685.01642.00858.00289L2.38,3.34671l.00386.00233c.034.00882.06762.0194.102.02582.04438.00827.09018.00986.13392.02036.06363.01527.126.03588.18887.05427.02442.00714.04934.013.073.02209a.57523.57523,0,0,1,.052.02709l.01657.00485a.06174.06174,0,0,0-.00077-.01738c-.008-.02354-.0161-.04713-.02573-.07A.26057.26057,0,0,0,2.86772,3.31694Zm-.7669-1.83137c.01417-.0198.0317-.044.04878-.0685l.00323-.0121a.04585.04585,0,0,0-.01411.00285c-.017.00975-.03357.0202-.05025.03048a.46055.46055,0,0,1-.24266.07.01991.01991,0,0,0-.02236.01662c-.00543.01693-.01482.03256-.02193.049a.022.022,0,0,0-.00224.01469.02356.02356,0,0,1-.019.034c-.01424.00143-.02738-.01316-.02318-.025.005-.014.00947-.02822.01318-.04261a.157.157,0,0,0,.00253-.02365.13008.13008,0,0,0-.02976.00735c-.00593.003-.009.01149-.01353.01745a.0908.0908,0,0,1-.01788.02247c-.01236.00825-.011.01408-.0005.02146l.01672.01129c.03144.01637.06331.03192.09453.0487.02915.01568.05639.0356.08672.04827.068.02841.13731.05356.20617.07985.02046.00781.04125.01476.06176.02246.01315.00494.018-.00023.01874-.01319a1.45273,1.45273,0,0,0,.006-.26219c-.00395-.03291-.00943-.06565-.01454-.09841l-.005-.01222L2.172,1.435a.32272.32272,0,0,1-.03476.03835c-.03291.0264-.06709.05125-.10129.076-.012.00869-.01855.01608-.00882.03135a.11662.11662,0,0,1,.00866.03007c.00878.03032-.0059.06217.00614.09264a.02006.02006,0,0,1-.00944.01737A.04208.04208,0,0,1,2.00709,1.718c-.00209-.0008-.00151-.01219.00012-.01809.00219-.00791.00761-.01491.00987-.02281a.0988.0988,0,0,0-.00667-.08066c-.00472-.008-.00841-.00884-.01431.00029-.0163.02526-.0337.04981-.05085.0745a.04456.04456,0,0,1-.01308.01535.04141.04141,0,0,1-.02225.003c-.00407-.00047-.00755-.00616-.01129-.00949l.01468-.01466c.013-.01606.02626-.032.038-.049.00315-.00454.0013-.01254.00175-.01895L1.9362,1.6011c-.02284.0044-.04565.009-.06861.01272l-.011-.006.00915-.011a.13994.13994,0,0,1,.01762-.00362q.03-.00974.05965-.02053l.00758-.00755-.00892-.00606c-.02488-.00545-.05-.01-.07479-.01575A.11272.11272,0,0,1,1.84615,1.534c.00609-.00423.01169-.011.01836-.01227a.20283.20283,0,0,1,.10191.01536.06369.06369,0,0,0,.05564-.00224C2.0467,1.5204,2.07058,1.50461,2.10083,1.48558ZM1.00987.96784C.98692.93926.9765.94.96292.96983A.04127.04127,0,0,1,.93307.99449a.041.041,0,0,0-.01968.01A.01674.01674,0,0,1,.88463,1.0033C.87388.9886.8702.99756.86464,1.00642l-.023.03559-.00917.01658c.007.00361.01419.01067.02085.01018A.18888.18888,0,0,0,.90648,1.059a.18742.18742,0,0,0,.039-.02606L.9778,1.00853l.01138.04129.00011.00226c.003.01582-.006.01719-.0185.01673a.11431.11431,0,0,0-.03066.003c-.01831.00441-.03639.00995-.05432.01575a.141.141,0,0,0-.01962.00978c.00443.00651.00743.0152.01352.01917.04027.02627.08043.05291.1223.07645a.10855.10855,0,0,0,.05605.015c.04577-.00274.09124-.01057.13675-.01693l.0048-.009c-.01157-.01374-.024-.02673-.03584-.04028l-.04529-.05318c-.01351-.01619-.026-.03332-.04016-.04887C1.05506,1.01421,1.03076.98967,1.00987.96784Zm1.60178.49135a.182.182,0,0,0,.00619-.027c.003-.03758.00389-.07538.00831-.11276.00222-.01878-.00545-.01562-.01555-.01055-.029.01455-.05742.03016-.08652.04444a.164.164,0,0,1-.04587.01808c-.04091.006-.08221.01025-.1235.01254a.58611.58611,0,0,1-.06763-.00452A.04508.04508,0,0,0,2.275,1.3821l.00648.01124a.51868.51868,0,0,0,.06524.05179.25464.25464,0,0,0,.20161.0333C2.56858,1.47288,2.58858,1.46623,2.61165,1.45919ZM2.292.92107C2.287.91847,2.27552.90745,2.26859.90981A.219.219,0,0,0,2.21993.9377C2.217.93964,2.21645.9471,2.217.95176c.00228.02.00495.04.00826.05982a.73276.73276,0,0,1,.00683.23418c-.00095.00609.00094.01762.00363.0183a.02878.02878,0,0,0,.02283-.00235.18027.18027,0,0,0,.04687-.0503c.02318-.05057.04112-.10357.06028-.15592a.02582.02582,0,0,0-.002-.02126.37065.37065,0,0,1-.06231-.099Zm-.24216,2.522a.2441.2441,0,0,0,.06534-.10955A.0644.0644,0,0,0,2.116,3.31186l-.021.00454a.40939.40939,0,0,1-.1896.04034.03136.03136,0,0,0-.01738.00386c-.02523.01289-.05031.0261-.07506.03989-.012.0067-.00574.01385.00188.01874.02021.013.04117.02482.06116.03812a.11627.11627,0,0,1,.03042.02561.02635.02635,0,0,0,.03041.01324A.26018.26018,0,0,0,2.04985,3.4431Zm-.2447-.16988c-.01948.00822-.00938.01511-.0001.01958.03118.015.05447.046.09352.04521a.20689.20689,0,0,0,.05537.00085c.04065-.01314.07975-.03115.11918-.0479.00557-.00237.00947-.00866.01413-.01314a.069.069,0,0,0-.01576-.011c-.04918-.01678-.09959-.03047-.14756-.05012-.0387-.01585-.06436.00961-.0952.02036-.01541.00537-.01652.01779-.0192.03035ZM2.13868,1.3734l.00861-.01591a.1337.1337,0,0,0-.01476.00058l-.02891.00516a.57338.57338,0,0,1-.199.01113.11572.11572,0,0,0-.05474.00365c-.01289.00454-.021.01022-.02161.02165a.6207.6207,0,0,0,.00185.06628l.0102.00331A.22478.22478,0,0,0,1.997,1.4529C2.04629,1.43073,2.09176,1.40016,2.13868,1.3734Zm-.15092-.21877-.00082.00085c.02824.0279.05543.057.08506.08333a.64034.64034,0,0,0,.07371.05492c.00549.00362.01675-.00153.02535-.00265a.119.119,0,0,0-.00629-.01932c-.02119-.04065-.0423-.08136-.06442-.1215-.01723-.03127-.02513-.07235-.07277-.0741l-.00586-.00322c-.0168-.02138-.03322-.015-.05262-.00234-.01168.00762-.00658.01834-.00991.02416-.0112.01964.00243.02783.011.03911Zm.17216.06546.02326.02436c.012.01283.01641.00556.0178-.007.00216-.0195.00282-.03918.00538-.05862A.55009.55009,0,0,0,2.18359.96036C2.18238.95591,2.17618.95281,2.1723.94908c-.00317.00374-.008.007-.00923.01129a.505.505,0,0,1-.01481.05561.33392.33392,0,0,1-.036.06672.03705.03705,0,0,0-.01018.03413A.25892.25892,0,0,0,2.15992,1.22008ZM2.23,3.25338l-.00015-.00017a.35885.35885,0,0,0,.039-.0341.05151.05151,0,0,0,.01359-.03146c-.00112-.04064-.00574-.08116-.00778-.12179a.02882.02882,0,0,0-.02339-.03123c-.01231-.00277-.01672-.00811-.01115-.02091.00173-.004-.002-.01031-.00319-.01556-.00427.00364-.01155.00672-.01234.011q-.0143.07775-.02678.15583c-.00472.02969-.00839.05957-.01127.08949a.05856.05856,0,0,0,.00626.02062.11041.11041,0,0,0,.01975-.00728A.13486.13486,0,0,0,2.23,3.25338Zm-.17765-.06279L2.05467,3.188c-.02775-.02412-.05712-.04665-.08277-.07282a.1.1,0,0,0-.0888-.033c-.02229.00262-.04517,0-.06761.00185-.00778.00064-.015.00769-.02252.01181a.13324.13324,0,0,0,.01762.01228.25681.25681,0,0,1,.07788.04875.10238.10238,0,0,0,.03842.02276c.04091.01485.08243.028.12384.04144a.23386.23386,0,0,0,.02612.0054l-.01432-.02373Zm.35784-2.02086c.01794-.02232.0398-.04644.058-.07309.01527-.02239.01192-.02731-.01281-.03524l-.02324-.00877c-.03631-.01208-.04474-.01909-.05152.02525l-.00288.00854c-.01324.03908-.02657.07814-.03956.11731l.00051.01023.00808-.00226ZM2.382,3.01229l-.00107-.00193.01767-.00754-.00323.02045-.0069.01149a.03894.03894,0,0,0-.0113.05056.08732.08732,0,0,1,.00493.02182l.01617-.02378.00148-.00657c.008-.035.00083-.07453.031-.10323l-.00239-.01575c-.00521.00285-.013.00439-.01521.00875-.01455.02924-.01552.03112-.04588.02149a.06347.06347,0,0,0-.05312.0119l-.00135.01159c.014.01867.01374.02217-.00272.03859a.02539.02539,0,0,0-.00875.01631c.00232.024.00619.04778.01024.07152l.00768.01006.00946-.008c.00776-.0272.014-.05485.02222-.0819.00433-.01427-.003-.03614.02248-.03878ZM2.10263,1.04979a.18046.18046,0,0,0,.041-.084A.01783.01783,0,0,0,2.13343.95208.32544.32544,0,0,1,2.02944.917L2.02728.91639,2.00985.91751A.06821.06821,0,0,0,2.0147.93356a.42285.42285,0,0,1,.05746.1064C2.07692,1.05808,2.08986,1.0609,2.10263,1.04979Zm-.96115.3405-.00094-.00462.02824-.02917c.01552-.01635.031-.03269.04621-.04936l.00307-.00971-.01.00278a.39951.39951,0,0,1-.09653.05262.043.043,0,0,0-.01919.01975.12287.12287,0,0,1-.08042.06759c-.00708.00266-.0168-.0017-.0253-.00283a.12566.12566,0,0,1,.01641-.01785c.01071-.008.02281-.0141.03364-.02195l.00446-.01149-.01057-.00177c-.01344.00131-.02693.00264-.04022.005-.01265.00224-.02131.01015-.01894.02353.003.01694.00887.03335.01269.05017.003.0131.01012.01316.01983.008.0146-.00784.02985-.01474.04359-.0239.01891-.0126.04329-.02045.04735-.04815l.0089-.00241Zm-.12538-.09922.01044.004c.0309.00916.06178.01842.0928.02716L1.132,1.321q.02469-.01984.0481-.04124l.00358-.012L1.17256,1.2636A.37089.37089,0,0,1,1.11518,1.255a.18733.18733,0,0,0-.13356.00888.35007.35007,0,0,1,.03547.00416.15551.15551,0,0,1,.02357.00929ZM2.46129.979c.02348-.01719.031-.03823.02365-.05582C2.47847.90772,2.45936.89752,2.44559.8853L2.43936.886c-.01057.01043-.02647.01962-.02993.03218A.34731.34731,0,0,0,2.402.99189l.01031.00925C2.431.99354,2.44919.98462,2.46129.979ZM.85426.95415.83054.94422.80906.93816.79886.93486a.06656.06656,0,0,0-.002.01241l.00186.0398a.2068.2068,0,0,0,.00422.03551.02185.02185,0,0,0,.01252.014.01965.01965,0,0,0,.0162-.00766C.84013,1.01665.845,1.00165.85443.99029.86512.9774.86289.96779.85426.95415Zm1.64892.08742c.01267-.03225.02474-.0613.03492-.091C2.53933.947,2.53131.93755,2.52575.93521c-.00381-.00161-.01218.00311-.016.00728a.04252.04252,0,0,0-.00855.01815.06611.06611,0,0,1-.03167.04431.21374.21374,0,0,0-.027.02166c.01109.00393.022.00851.03334.01156A.2058.2058,0,0,0,2.50318,1.04157Zm-.73459.37765c.01967.01789.02961.01687.03706-.00531a.26484.26484,0,0,0,.01062-.048c.0006-.00436-.0056-.00966-.00867-.01453a.24852.24852,0,0,0-.041.03582C1.76173,1.39363,1.7676,1.40828,1.76858,1.41922Zm-.5532-.17936.01007-.02258a.06731.06731,0,0,0-.023-.00733c-.02852.002-.05695.00568-.08534.00927l-.011.00615c.00376.00283.00725.00758.01133.00817q.04.00576.08029.00977A.06482.06482,0,0,0,1.21539,1.23986Zm1.38047,1.397.00527-.01533.019-.07428a.06674.06674,0,0,0,.00278-.01766L2.6168,2.52152l-.00843.00522a.19683.19683,0,0,0-.01932.10289ZM.91658.97295C.92535.96383.93168.95829.93669.95173A.19854.19854,0,0,0,.949.93124L.92722.93176a.05724.05724,0,0,0-.018,0C.90305.934.89368.9391.89332.94358A.16306.16306,0,0,0,.89741.97835Z"></path></svg>