<svg height='100px' width='100px'  fill="#000000" xmlns="http://www.w3.org/2000/svg" data-name="Layer 1" viewBox="0 0 64 64" x="0px" y="0px"><path d="M19.256,39a2.55,2.55,0,0,0-1.978,4.158l10.481,12.9a2.529,2.529,0,0,0,1.241.82V61a1,1,0,0,0,1,1h4a1,1,0,0,0,1-1V56.878a2.536,2.536,0,0,0,1.241-.82l10.481-12.9a2.552,2.552,0,0,0-3.963-3.216l-5.63,6.93,1.8-4.5-1.858-.744L35,46.807V41.878a2.536,2.536,0,0,0,1.241-.82l10.481-12.9a2.552,2.552,0,0,0-3.963-3.216l-5.63,6.93,1.8-4.5-1.858-.744L35,31.807V26.878a2.536,2.536,0,0,0,1.241-.82l10.481-12.9a2.552,2.552,0,0,0-3.963-3.216l-.866,1.066L42.572,9.8A2.55,2.55,0,0,0,40.35,6h-.444a2.552,2.552,0,0,0-2.222,1.3L35,12.071V5a3,3,0,0,0-6,0v7.072L26.316,7.3A2.552,2.552,0,0,0,24.094,6H23.65a2.55,2.55,0,0,0-2.222,3.8l.678,1.207-.865-1.065a2.552,2.552,0,1,0-3.963,3.216l10.481,12.9a2.529,2.529,0,0,0,1.241.82v4.929l-2.071-5.179-1.858.744,1.8,4.5-5.63-6.93a2.552,2.552,0,1,0-3.963,3.216l10.481,12.9a2.529,2.529,0,0,0,1.241.82v4.929l-2.071-5.179-1.858.744,1.8,4.5-5.63-6.93A2.54,2.54,0,0,0,19.256,39Zm-.426,2.9a.549.549,0,0,1,.432-.9.547.547,0,0,1,.427.2L30.17,54.1a.549.549,0,0,1-.426.9h-.006a.547.547,0,0,1-.427-.2ZM32,25.615a2.514,2.514,0,0,0,1,1.042v10.3l-.722.889A2.534,2.534,0,0,0,32,38.3a2.534,2.534,0,0,0-.278-.461L31,36.953v-10.3A2.514,2.514,0,0,0,32,25.615Zm0,15a2.514,2.514,0,0,0,1,1.042v10.3l-.722.889A2.534,2.534,0,0,0,32,53.3a2.534,2.534,0,0,0-.278-.461L31,51.953v-10.3A2.514,2.514,0,0,0,32,40.615ZM31,60V56.657a2.514,2.514,0,0,0,1-1.042,2.514,2.514,0,0,0,1,1.042V60ZM44.311,41.2a.548.548,0,0,1,.433-.2.55.55,0,0,1,.426.9L34.689,54.8a.545.545,0,0,1-.427.2h-.006a.55.55,0,0,1-.426-.9Zm0-15a.548.548,0,0,1,.433-.2.55.55,0,0,1,.426.9L34.689,39.8a.545.545,0,0,1-.427.2h-.006a.55.55,0,0,1-.426-.9Zm0-15a.548.548,0,0,1,.433-.2.55.55,0,0,1,.426.9L34.689,24.8a.545.545,0,0,1-.427.2h-.006a.55.55,0,0,1-.426-.9ZM31,5a1,1,0,0,1,2,0V15.627l-1,1.778-1-1.778ZM23.171,8.82A.55.55,0,0,1,23.65,8h.444a.55.55,0,0,1,.479.28l6.555,11.655a1.042,1.042,0,0,0,1.744,0L39.427,8.28A.55.55,0,0,1,39.906,8h.444a.55.55,0,0,1,.479.82L34.435,20.187l-2.157,2.655A2.534,2.534,0,0,0,32,23.3a2.534,2.534,0,0,0-.278-.461l-2.157-2.654ZM18.83,11.9a.549.549,0,0,1,.432-.9.547.547,0,0,1,.427.2L30.17,24.1a.549.549,0,0,1-.426.9h-.006a.547.547,0,0,1-.427-.2Zm0,15a.549.549,0,0,1,.432-.9.547.547,0,0,1,.427.2L30.17,39.1a.549.549,0,0,1-.426.9h-.006a.547.547,0,0,1-.427-.2Z"></path></svg>