<svg height='100px' width='100px'  fill="#000000" xmlns="http://www.w3.org/2000/svg" xmlns:xlink="http://www.w3.org/1999/xlink" version="1.1" x="0px" y="0px" viewBox="0 0 100.006 100.006" enable-background="new 0 0 100.006 100.006" xml:space="preserve"><path d="M64.393,52.125c1.517-1.539,2.871-3.204,3.947-5.081c0.658-1.148,2.49-4.188,1.551-5.471  c-0.303-0.413-1.149,0.001-1.263,0.411c-1.714,6.161-6.242,10.479-12.128,12.742c0.409-0.979,0.791-1.973,1.141-2.985  c3.056-1.184,5.54-3.642,7.368-6.316c2.118-3.099,5.606-9.147,3.938-13.005c-0.133-0.307-1.173,0.086-1.2,0.372  c-0.392,4.114-0.741,7.587-2.965,11.217c-1.57,2.562-3.941,4.782-6.609,6.162c0.396-1.252,0.772-2.55,1.138-3.886  c6.807-2.399,9.049-15.956,6.976-21.826c-0.173-0.49-1.414,0.229-1.415,0.642c-0.014,3.329,0.334,6.567-0.16,9.89  c-0.581,3.901-2.644,6.933-5.074,9.844c0.691-3.018,1.154-6.157,1.181-9.239c0.112-0.061,0.204-0.131,0.247-0.195  c1.399-2.094,1.87-4.732,2.23-7.191c0.196-1.335,1.209-4.958-0.295-5.759c-0.103-0.055-0.313-0.075-0.386,0.043  c-1.043,1.72-0.837,4.001-1.086,5.967c-0.146,1.155-0.54,2.34-0.895,3.52c-0.059-0.505-0.136-1.006-0.226-1.503  c0.033-0.034,0.062-0.067,0.081-0.1c0.933-1.635,0.61-3.581,0.326-5.362c-0.207-1.297-0.484-2.578-0.649-3.882  c-0.116-0.916,0.318-1.888,0.1-2.747c-0.026-0.104-0.252-0.088-0.321-0.062c-1.78,0.674-1.718,2.823-1.577,4.423  c0.069,0.785,0.207,1.566,0.354,2.344c-0.569-1.278-1.237-2.5-1.989-3.678c0.266-0.313,0.497-0.691,0.497-1.092  c-0.001-1.51-0.016-3.02-0.019-4.53c-0.001-1.041,0.255-2.416-0.06-3.412c-0.118-0.377-1.493,0.569-1.514,0.931  c-0.127,2.117-0.098,4.261-0.075,6.395c-0.354-0.483-0.716-0.962-1.097-1.432c-0.239-0.295-0.488-0.588-0.739-0.88  c0.05-1.271-0.425-2.546-0.771-3.831c-0.419-1.556-0.345-3.398-0.851-4.876c-0.179-0.521-1.507,0.566-1.538,0.95  c-0.125,1.552,0.064,3.033,0.391,4.522c-1.06-1.33-1.996-2.737-2.551-4.34c-0.167-0.484-1.754,1.644-1.459,2.464  c0.899,2.504,2.469,4.667,4.177,6.772c-0.487-0.243-1.002-0.519-1.53-0.783c-0.474-1.094-1.738-2.107-2.465-2.899  c-0.533-0.58-0.949-1.265-1.25-1.989c-0.213-0.514,0.029-1.371-0.379-1.732c-0.299-0.264-1.105,0.196-1.216,0.501  c-0.607,1.67-0.29,3.669,0.953,4.987c0.154,0.163,0.315,0.31,0.481,0.446c-0.333,0.169-0.71,0.466-0.597,0.778  c0.785,2.161,3.469,2.754,5.424,3.52c1.423,0.558,2.848,1.129,4.265,1.714c1.042,1.381,1.99,2.819,2.7,4.391  c0.877,1.943,1.388,4.052,1.637,6.242c-0.267-0.629-0.544-1.254-0.822-1.877c-0.825-1.851-1.701-3.686-2.81-5.386  c-0.754-1.156-1.72-2.146-2.828-2.961c-2.402-1.768-4.553-1.295-7.074-0.249c-0.082,0.034-0.513,0.273-0.316,0.408  c1.574,1.079,3.394,1.039,5.102,1.853c1.695,0.808,2.902,2.234,3.911,3.775c0.962,1.47,1.674,3.11,2.426,4.693  c0.308,0.648,0.665,1.268,1.066,1.861c0.437,0.647,0.974,0.858,1.527,1.224c-0.008,1.322-0.1,2.66-0.264,4  c-0.307-1.071-0.738-2.123-1.086-3.084c-0.81-2.235-1.904-3.902-3.497-5.654c-1.279-1.406-2.135-3.011-3.285-4.441  c-0.407-0.506-1.603,0.548-1.569,1.033c0.236,3.36,3.17,5.372,5.108,7.875c0.986,1.274,1.461,2.945,2.006,4.435  c0.223,0.61,0.524,3.559,1.532,4.284c-0.171,0.748-0.36,1.489-0.564,2.224c-0.806-2.46-2.251-4.887-3.151-7.232  c-0.881-2.296-1.392-5.454-3.127-7.275c-0.243-0.255-1.15,0.01-1.137,0.398c0.101,2.949,1.405,5.905,2.423,8.634  c0.844,2.262,1.914,6.51,4.363,7.571c-0.436,1.353-0.915,2.668-1.426,3.929c-0.288-1.602-1.16-3.08-2.198-4.465  c0.223-3.008,0.139-6.552-1.454-7.57c-0.351-0.224-1.481,0.43-1.404,0.862c0.244,1.367,0.47,2.676,0.641,3.978  c-0.213-0.258-0.423-0.514-0.622-0.767c-3.839-4.882-3.954-9.419-1.895-15.085c0.226-0.623-0.985-0.221-1.174,0.085  c-2.421,3.921-2.925,8.57-1.391,12.926c0.672,1.908,2.134,3.627,3.488,5.234c-0.093,0.06-0.161,0.134-0.175,0.216  c-0.836,4.994-0.106,9.75-2.153,14.564c-1.085,2.552-2.8,5.074-3.523,7.768c-0.741,0.816-1.488,1.626-2.236,2.434  c0.117-0.355,0.221-0.669,0.261-0.784c0.736-2.132,1.696-4.196,2.565-6.276c1.072-2.563,4.081-7.858,3.007-10.668  c-0.194-0.508-1.193,0.1-1.285,0.437c-0.98,3.614-2.058,7.033-3.476,10.512c-0.616,1.512-1.318,2.988-1.907,4.511  c-0.244,0.631-1.638,3.723-0.975,4.225c-0.024-0.018-1.159,1.264-1.232,1.344c-0.257,0.282-0.513,0.572-0.769,0.859  c0.743-2.102,1.005-4.664,1.678-6.612c1.063-3.077,2.492-5.833,4.125-8.631c0.126-0.215-0.773-0.082-0.901,0.052  c-1.706,1.789-2.669,4.254-3.599,6.501c-0.725,1.752-1.494,3.487-2.094,5.288c-0.285,0.853-1.683,4.525-0.757,5.186  c-0.331,0.39-1.073,0.993-1.201,1.472c0.804-2.892,0.565-6.289,1.262-9.218c0.858-3.608,3.027-6.643,3.976-10.132  c0.093-0.343-0.58-0.203-0.709-0.083c-2.65,2.464-3.746,6.167-4.765,9.543c-0.616,2.04-2.971,9.713-0.664,11.078  c-1.805,2.453-3.343,5.09-4.202,7.99c-0.354,1.197,1.409-0.485,1.565-1.046c0.383-1.388,0.966-2.718,1.684-4.004  c2.277,1.896,6.051,1.627,8.786,0.882c4.414-1.203,7.562-3.238,10.826-6.379c0.464-0.446-0.494-0.479-0.748-0.329  c-2.292,1.36-4.934,2.473-7.415,3.435c-3.641,1.413-7.147,0.994-10.833,1.36c0.89-1.421,1.932-2.79,3.069-4.115  c4.404,6.255,16.632-3.237,20.058-6.788c0.331-0.343-0.168-0.455-0.432-0.42c-4.941,0.657-13.032,10.172-18.086,5.484  c0.716-0.773,1.449-1.535,2.187-2.286c0.014,0.008,0.016,0.019,0.033,0.026c6.344,2.535,13.357-2.855,17.58-6.919  c0.325-0.312-0.216-0.4-0.449-0.336c-2.312,0.632-4.199,1.883-6.316,3.012c-3.038,1.621-6.43,1.861-9.61,2.963  c1.081-1.089,2.147-2.163,3.151-3.229c3.796,1.055,8.774-1.614,12.011-3.314c2.02-1.06,3.893-2.443,5.472-4.085  c0.189-0.196,2.18-2.544,1.404-2.556c-0.28-0.004-1.505,0.662-1.202,0.442c-1.992,1.441-3.814,2.912-5.984,4.111  c-3.306,1.826-6.965,2.589-10.403,3.975c0.214-0.243,0.432-0.486,0.637-0.729c0.55-0.652,1.082-1.314,1.605-1.982  c2.658,0.933,6.348-1.263,8.608-2.486c2.582-1.397,6.201-3.934,6.697-7.094c0.072-0.462-0.821-0.179-0.968,0.013  c-1.94,2.523-4.756,4.376-7.588,5.729c-1.795,0.858-3.779,1.346-5.549,2.245c0.934-1.266,1.818-2.56,2.649-3.884  c0.027,0.119,0.132,0.187,0.362,0.155c3.547-0.498,7.156-2.939,9.94-5.071c2.028-1.554,5.886-5.061,5.397-7.954  c-0.071-0.423-1.095,0.042-1.194,0.283c-2.454,5.95-8.639,7.983-13.678,11.242c0.908-1.538,1.739-3.118,2.495-4.741  C58.838,57.35,62.399,54.148,64.393,52.125z M50.789,50.863c0.259,0.336,0.509,0.693,0.757,1.061  c-0.008,0.611-0.03,1.229-0.082,1.866c-0.268,3.267-1.003,6.505-1.863,9.66c-0.227,0.834-0.584,1.458-0.436,2.2  c-0.522,0.685-1.059,1.361-1.606,2.028C50.218,62.485,51.869,56.437,50.789,50.863z M51.406,62.493  c0.883-2.74,1.216-5.823,1.574-8.502c0.573,0.757,1.211,1.434,1.977,1.925c-0.318,0.72-0.641,1.425-0.97,2.096  C53.221,59.569,52.35,61.055,51.406,62.493z"></path></svg>