<svg height='100px' width='100px'  fill="#000000" xmlns="http://www.w3.org/2000/svg" xmlns:xlink="http://www.w3.org/1999/xlink" version="1.1" x="0px" y="0px" viewBox="0 0 100 100" enable-background="new 0 0 100 100" xml:space="preserve"><g><path d="M81.054,21.822c2.583,0.145,5.321-0.457,7.074-1.98c-2.082-0.149-4.189-0.402-5.922,0.122   c1.908-1.565,3.804-3.733,2.548-5.644c-1.31,1.351-3.389,2.622-4.266,4.221c0.062-1.917,0.103-3.836,0.107-5.755   c0-0.076-0.022-0.135-0.04-0.199c2.793-0.069,6.764-0.776,7.161-3.382c-2.609-0.596-5.453,0.339-7.564,2.043   c1.045-2.592,0.761-7.171-1.615-8.586c-1.768,2.523-0.446,6.408,0.792,9.233c-2.424-1.893-5.507-0.77-8.581,0.087   c2.334,1.482,5.629,1.509,8.429,0.62c-0.016,0.06-0.038,0.114-0.038,0.184c-0.006,2.441-0.062,4.883-0.164,7.321   c-1.101-1.956-2.237-2.557-5.544-3.563c-0.476,1.438,1.163,2.679,2.988,3.629c-1.868-0.521-3.897-0.535-5.644,0.177   c0.878,2.242,4.996,2.073,7.591,1.621c-2.185,1.273-4.846,3.636-3.425,5.385c1.454-0.541,2.924-1.821,3.822-3.238   c-0.304,4.799-0.795,9.581-1.483,14.327c-0.952-1.713-3.627-2.704-5.423-3.9c-0.388,1.499,1.272,2.924,3.069,4.004   c-1.648-0.342-3.375,0.097-5.113,0.438c1.929,1.106,4.397,1.335,6.49,0.947c-1.717,0.784-3.177,2.465-3.375,3.89   c1.663,0.487,3.03-0.819,3.865-2.234c-0.655,3.993-1.449,7.956-2.394,11.877c-0.668-1.51-1.76-2.327-4.295-3.764   c-0.78,1.299,0.551,2.87,2.124,4.195c-1.708-0.917-3.688-1.376-5.549-1.063c0.136,0.873,0.768,1.523,1.643,2.005   c-0.81,0.237-1.586,0.569-2.293,0.986c1.301,0.578,3.814,1.38,5.982,1.369c-1.874,0.902-3.485,2.265-2.723,3.796   c1.188-0.162,2.48-0.755,3.556-1.562c-0.974,3.442-2.069,6.843-3.283,10.201c-0.973-1.817-3.316-3.377-4.843-4.943   c-0.861,1.658,0.877,3.793,2.756,5.484c-1.782-0.797-3.853-0.734-5.911-0.786c1.617,1.451,3.835,2.291,5.978,2.565   c-2.291,0.602-4.729,2.06-5.263,3.467c1.696,0.919,3.985-0.129,5.637-1.46c-1.391,3.495-2.912,6.938-4.582,10.312   c-0.261-1.594-1.104-2.67-3.145-4.693c-1.092,1.049-0.222,2.911,0.946,4.603c-1.408-1.332-3.195-2.293-5.071-2.479   c-0.229,2.033,2.423,3.618,4.765,4.548c-2.394,0.238-5.136,1.124-4.74,3.108c1.692,0.22,3.821-0.341,5.315-1.343   c-2.191,4.1-4.606,8.091-7.239,11.961h1.741c2.596-3.878,4.983-7.87,7.144-11.973c0.558,2.338,1.955,5.36,4.202,5.491   c0.006-1.474-0.867-3.507-2.127-5.124c1.985,0.963,4.217,1.435,6.132,0.986c-1.413-0.879-2.809-1.826-4.216-2.35   c2.259-0.68,4.394-1.833,4.216-3.696c-1.988,0.647-5.3,0.943-7.024,2.388c2.143-4.263,4.065-8.629,5.768-13.082   c0.409,2.126,1.837,4.812,5.533,6.127c1.122-1.628-2.046-4.697-4.397-6.312c2.537,0.703,6.522,1.278,7.052-0.891   c-1.852-0.922-3.885-1.07-5.652-0.657c2.031-0.959,4.124-2.358,3.406-3.985c-2.26,0.519-3.688,1.149-4.676,2.271   c1.436-4.056,2.699-8.177,3.791-12.349c1.078,2.172,3.365,5.125,5.724,4.63c-0.433-1.61-2.135-3.62-4.058-4.843   c2.404,0.615,5.051,0.585,7.002-0.47c-2.094-0.629-4.19-1.377-6.062-1.152c2.038-1.107,3.969-2.712,3.222-4.691   c-1.517,0.996-3.719,1.76-4.956,3.042c0.979-4.109,1.791-8.263,2.454-12.448c1.092,1.53,3.304,3.012,5.107,3.42   c0.645-1.632-2.435-3.381-4.637-4.203c2.259,0.077,5.355-0.253,5.387-2.102c-1.63-0.415-3.266-0.216-4.627,0.375   c1.349-1.007,2.578-2.309,1.669-3.562c-0.986,0.474-1.69,0.857-2.203,1.263c0.594-4.572,1.009-9.175,1.252-13.793   c1.392,1.921,4.576,4.818,6.955,3.734C86.363,24.255,83.568,22.331,81.054,21.822z M55.516,34.105   c-1.508-1.132-3.476-1.634-5.414-1.605c2.006-0.455,3.908-1.238,3.813-2.75c-3.454,0.133-4.707,0.427-6.268,2.037   c0.511-2.333,1.064-4.658,1.664-6.971c1.762,1.026,3.938,1.529,5.754,0.95c-1.574-1.646-3.672-2.852-5.661-2.125   c-0.024-0.03-0.233,0.365-0.261,0.339c1.838-1.148,2.921-4.167,2.161-6.22c-1.936,0.558-2.982,3.73-2.727,5.749   c-1.17-1.591-3.001-2.776-4.949-2.839c-0.198,1.871,2.357,3.09,4.298,3.671c-0.479,1.842-0.923,3.693-1.347,5.547   c-0.442-1.77-2.129-3.527-3.053-5.166c-1.699,1.53-0.418,4.107,1.029,6.105c-1.542-0.946-3.644-1.237-5.695-1.622   c1.307,1.918,2.498,3.445,6.341,3.712c-2.562-0.148-5.756,1.003-7.093,2.471c2.024,1.652,5.841-0.34,7.674-1.844   c-0.938,4.532-1.708,9.093-2.294,13.67c-0.394-0.526-0.967-1.078-1.809-1.793c-1.198,0.981-0.339,2.552,0.709,3.869   c-1.167-0.918-2.698-1.526-4.379-1.539c-0.44,1.795,2.47,2.901,4.674,3.401c-2.34,0.235-5.761,1.145-5.551,2.887   c1.848,0.062,4.33-0.373,5.774-1.575c-0.421,4.216-0.657,8.006-0.756,12.228c-0.871-1.553-2.806-2.852-4.02-4.199   c-1.225,1.724,0.234,3.766,1.923,5.354c-1.752-0.692-3.971-0.502-6.156-0.425c1.617,1.512,4.161,2.214,6.637,2.232   c-2.165,0.697-4.313,2.209-5.139,3.654c2.154,1.078,5.117-1.197,6.711-3.024c-0.003,4.312,0.172,8.619,0.53,12.906   c-0.671-1.335-1.893-2.31-3.946-3.385c-1.108,1.392,0.56,3.276,2.281,4.721c-1.499-0.793-3.347-1.161-5.235-0.864   c0.116-1.927-3.785-3.941-6.543-4.841c2.843-0.045,7.145-0.669,7.03-3.075c-2.198-0.389-4.35,0.078-6.054,1.046   c1.811-1.614,3.552-3.701,2.312-5.168c-2.181,1.227-3.468,2.315-4.149,3.778c0.248-4.639,0.298-9.291,0.155-13.944   c1.78,1.92,5.051,4.281,7.34,3.048c-0.938-1.533-3.305-3.096-5.664-3.778c2.672-0.1,5.396-0.938,7.092-2.623   c-2.361-0.012-4.761-0.146-6.629,0.658c1.772-1.769,3.28-4.021,1.901-5.842c-1.266,1.495-3.312,2.959-4.202,4.664   c-0.242-4.547-0.668-9.09-1.257-13.619c1.6,1.243,4.345,2.088,6.33,1.96c0.169-1.887-3.554-2.759-6.085-2.937   c2.363-0.609,5.469-1.896,4.937-3.82c-1.813,0.067-3.446,0.772-4.676,1.8c1.09-1.455,1.964-3.177,0.641-4.196   c-0.886,0.8-1.487,1.413-1.895,1.994c-0.781-4.921-1.709-9.613-2.869-14.474c2.027,1.565,6.163,3.387,8.293,1.539   c-1.49-1.541-4.97-2.679-7.729-2.439c2.719-0.639,5.37-2.097,6.718-4.21c-2.82-0.157-5.18,1.258-6.814,2.331   c1.528-1.79,2.553-4.615,1.879-6.785c-0.943,1.799-2.953,3.516-3.373,5.439c-0.517-1.988-1.056-3.97-1.632-5.942   c1.991,0.11,4.794-2.088,4.52-4.099c-2.1,0.13-4.037,1.468-5.249,3.222c0.713-1.587-0.627-6.068-2.734-6.606   c-0.752,2.238,0.385,5.442,1.92,7.288c-0.03,0.028,0.158-0.098,0.133-0.065c-2.17-0.721-3.744-0.176-5.807,1.112   c1.98,0.566,3.872,0.868,5.739-0.297c0.723,2.479,1.395,4.971,2.022,7.474c-1.738-1.69-3.098-1.967-6.831-1.999   c-0.054,1.635,2.022,2.418,4.201,2.845c-2.092,0.031-4.199,0.636-5.79,1.906c1.593,2.054,5.808,0.622,8.356-0.64   c-1.873,1.985-3.909,5.245-1.903,6.623c1.341-1.004,2.473-2.779,2.969-4.522c1.153,5.063,2.104,10.166,2.839,15.292   c-1.509-1.484-4.583-1.693-6.807-2.384c0.055,1.67,2.21,2.64,4.401,3.21c-1.812,0.148-3.465,1.13-5.161,2.013   c2.334,0.557,4.96,0.04,7.01-1.001c-1.539,1.336-2.538,3.522-2.308,5.059c1.872-0.004,2.887-1.774,3.321-3.494   c0.541,4.335,0.929,8.682,1.148,13.03c-1.152-1.359-2.533-1.873-5.597-2.587c-0.411,1.584,1.446,2.803,3.479,3.695   c-2.05-0.428-4.239-0.299-6.07,0.593c0.406,0.862,1.259,1.343,2.312,1.575c-0.765,0.492-1.467,1.073-2.072,1.722   c1.523,0.2,4.371,0.263,6.613-0.409c-1.666,1.507-2.917,3.41-1.66,4.763c1.18-0.53,2.339-1.54,3.206-2.704   c0.043,3.86-0.055,7.719-0.286,11.566c-1.562-1.585-4.464-2.485-6.523-3.64c-0.387,1.978,2.066,3.657,4.529,4.838   c-2.089-0.284-4.214,0.413-6.362,0.989c2.119,1.009,4.671,1.201,6.974,0.83c-2.189,1.323-4.27,3.578-4.392,5.198   c2.036,0.434,4.088-1.35,5.392-3.231c-0.639,6.922-1.745,13.795-3.351,20.579h1.607c1.744-7.447,2.895-15.002,3.491-22.605   c1.045,2.022,3.269,4.284,7.29,4.616c1.482,2.747,4.038,2.437,6.567,2.401c-2.684,0.965-5.432,1.674-5.854,4.988   c3.875-0.045,5.877-1.558,6.908-4.521c0.552,5.08,1.378,10.125,2.477,15.121h1.481c-0.977-4.394-1.737-8.828-2.284-13.293   c1.259,1.707,3.208,3.302,5.081,2.844c-0.157-1.496-2.146-3.525-4.209-4.69c2.142,0.28,4.5,0.031,6.433-0.962   c-2.005-0.474-3.991-1.061-5.918-0.74c2.249-1.159,4.473-2.782,4.062-4.604c-1.875,1.127-4.539,2.04-5.94,3.551   c-0.321-3.556-0.518-7.126-0.584-10.702c0.834,1.056,1.935,1.957,3.042,2.416c1.126-1.288-0.085-3.015-1.669-4.364   c2.093,0.562,4.729,0.425,6.134,0.197c-0.578-0.583-1.245-1.102-1.967-1.537c0.969-0.244,1.746-0.712,2.098-1.521   c-1.721-0.775-3.752-0.835-5.638-0.382c1.859-0.883,3.546-2.062,3.121-3.518c-2.817,0.746-4.082,1.261-5.111,2.55   c0.083-4.032,0.322-8.067,0.703-12.096c0.449,1.581,1.438,3.19,3.171,3.143c0.17-1.428-0.816-3.425-2.278-4.619   c1.926,0.907,4.373,1.313,6.519,0.733c-1.595-0.771-3.153-1.634-4.834-1.723c2.012-0.587,3.981-1.544,3.986-3.092   c-2.041,0.701-4.84,0.631-6.195,2.046c0.541-4.768,1.24-9.172,2.167-13.895c0.506,1.602,2.199,3.096,3.471,3.991   c0.829-2.618-0.754-4.17-2.543-5.956C50.157,34.841,54.098,36.051,55.516,34.105z"></path></g></svg>