<svg height='100px' width='100px'  fill="#000000" xmlns:x="http://ns.adobe.com/Extensibility/1.0/" xmlns:i="http://ns.adobe.com/AdobeIllustrator/10.0/" xmlns:graph="http://ns.adobe.com/Graphs/1.0/" xmlns="http://www.w3.org/2000/svg" xmlns:xlink="http://www.w3.org/1999/xlink" version="1.1" x="0px" y="0px" viewBox="-247 370.9 100 100" style="enable-background:new -247 370.9 100 100;" xml:space="preserve"><g><g i:extraneous="self"><path d="M-152.9,419.3c1.1-2.3,3.3-7.8,3-12.5l-0.1-1.5l-1.4-0.4c-2.7-0.7-5.5-0.7-8-0.3c1.2-1.3,2.2-2.5,2.7-3.6l0.7-1.4l-1.2-1    c-0.4-0.4-0.9-0.7-1.4-1c1.5-2.8,4.7-9.7,3.5-15.8l-0.3-1.5l-1.6-0.1c-6-0.4-13.3,3.7-15.7,5.2c-0.6-0.6-1.2-1.1-1.8-1.5    c0.7-1.8,1.4-3.7,1.4-5v-1.9l-1.9-0.1c-2.8-0.2-7.2,1.5-10.1,2.7c-0.1-1-0.2-1.9-0.4-2.6l-0.6-2l-2,0.7c-3.3,1.2-6.9,4-8.9,5.6    c-0.2-0.4-0.5-0.8-0.8-1.1l-1.4-1.5l-1.5,1.4c-2.4,2.2-5.6,7.8-7.4,11.2c-0.3-0.2-0.5-0.3-0.8-0.5l-1.6-0.9l-1,1.5    c-2.6,3.7-4.9,10.9-5.4,12.5l-26,37.4l0.8,1.1c2.2,3.1,4.7,5.3,7.7,6.9l-6.6,7.4l0.7,1.2c3.2,5.6,7.4,9.3,13.2,11.8l1.2,0.5    l7.1-6.9c2.1,2.7,4.7,4.8,8.1,6.6l1.1,0.6l23.9-18.4l14.8-10.5l-0.9-1c3.5-1.7,9.4-4.8,11.5-7l1.1-1.2l-0.9-1.3    c-0.2-0.3-0.5-0.7-0.9-1c3.2-1.9,7.9-5,9.3-7.3l0.8-1.4l-1.2-1.1C-152.1,419.9-152.5,419.6-152.9,419.3z M-158.8,384.2    c0.1,4.6-2.3,9.7-3.4,11.7c-1.5-0.5-2.9-0.9-4.4-1.1l0.1,0c-0.1-0.2-1.4-3.3-3.5-6.3C-167.4,387-162.7,384.6-158.8,384.2z     M-237.7,441.1l15.3-22l9.5-13.5l0.1-0.3c0-0.1,1.8-6,3.9-10c2.9,2.3,4.6,5.5,4.6,5.5l3.5-1.9c-0.1-0.2-1.4-2.7-3.9-5.1    c1.4-2.6,3.4-6.3,5.2-8.8c0.7,2,1.2,4.7,1.4,6.5l4-0.4c-0.1-0.5-0.4-3.2-1.1-5.9c1.2-1.1,3.8-3.2,6.3-4.7c0,0.7,0,1.5,0,2.1l0,3.3    l2.9-1.5c2.1-1.1,5.7-2.6,8.4-3.2c-0.6,1.6-1.5,3.7-2.4,5.4l0,0c-0.5,0.6-1.1,1.2-1.6,1.9c-3.1-0.4-6.4-0.2-8.5,0.5l1.2,3.8    c1.1-0.3,2.7-0.5,4.4-0.5c-1,1.4-2,2.8-2.7,3.9c-0.4-0.3-0.8-0.6-1.2-0.9l-1.5-1.1l-1.2,1.4c-3.7,4.3-13.9,19.9-14.8,21.3    l-5.6,7.1l-19.8,22.2C-233.8,445-235.9,443.3-237.7,441.1z M-226.4,465.4c-4-1.9-7-4.5-9.4-8.3l27.3-30.6l2.7-3.4l2.3,3.5l3.4-2.2    l-3-4.7l0.4-0.6l0.1-0.1c0.1-0.2,9-13.7,13.4-19.4c3.4,3.1,5.2,7.5,5.2,7.6l1.9-0.7l1.9-0.7c-0.1-0.2-1.4-3.5-4-6.7    c2.3-3.4,6-8.6,8.7-11.3c1.9,1.8,3.5,4.5,4.6,6.6c-2.1,0-3.6,0.1-3.8,0.1l0.4,4c0.1,0,8-0.8,13.3,2.2c-1.4,1.7-3.9,4-6.5,6.1    c-0.1,0-0.2,0.1-0.2,0.1l0,0.1c-1.6,1.3-3.3,2.6-4.6,3.6c-1.5-0.7-2.7-1-2.8-1l-0.8,3.9c0,0,1.9,0.4,3.6,1.8    c-2.7,2.5-8.2,6-11.3,7.9c-2.1-1.5-4.2-2.7-6-3.3l-1.2,3.8c1.6,0.5,3.7,1.7,5.6,3.2l-11.8,10.4L-226.4,465.4z M-164.2,427.5    c-3.1-1.8-6.8-3.4-7.9-3.8l-1.5,3.7c3.3,1.3,7.1,3.2,9.1,4.6c-2.8,1.9-8,4.6-11.2,6.1l-2.5,1.2l1.5,1.6l-7.3,5.2    c-2.8-1-5.8-1.6-7.9-1.5l0.1,4c1,0,2.3,0.1,3.6,0.5l-21.7,16.7c-2.4-1.4-4.3-3.1-5.9-5.2l21-20.3l15.2-13.3l-1.2-1.1    c3.6-2.3,10.2-6.6,12.4-9.4l1-1.2l-1-1.2c-0.3-0.4-0.6-0.7-0.9-1c0.9-0.7,2.1-1.6,3.4-2.7c1.8-0.7,6.9-2.4,11.7-1.7    c-0.3,3.3-1.7,7-2.5,8.9c-4.5-1.8-9.2-1.8-9.5-1.8l0,4c0.1,0,5.9,0.1,9.9,2.5C-157.9,423.7-161.4,425.9-164.2,427.5z"></path></g></g></svg>