<svg height='100px' width='100px'  fill="#000000" xmlns:dc="http://purl.org/dc/elements/1.1/" xmlns:cc="http://creativecommons.org/ns#" xmlns:rdf="http://www.w3.org/1999/02/22-rdf-syntax-ns#" xmlns:svg="http://www.w3.org/2000/svg" xmlns="http://www.w3.org/2000/svg" xmlns:sodipodi="http://sodipodi.sourceforge.net/DTD/sodipodi-0.dtd" xmlns:inkscape="http://www.inkscape.org/namespaces/inkscape" viewBox="0 0 16.933333 16.933333" version="1.1" x="0px" y="0px"><g><path style="color:#000000;font-style:normal;font-variant:normal;font-weight:normal;font-stretch:normal;font-size:medium;line-height:normal;font-family:sans-serif;font-variant-ligatures:normal;font-variant-position:normal;font-variant-caps:normal;font-variant-numeric:normal;font-variant-alternates:normal;font-feature-settings:normal;text-indent:0;text-align:start;text-decoration:none;text-decoration-line:none;text-decoration-style:solid;text-decoration-color:#000000;letter-spacing:normal;word-spacing:normal;text-transform:none;writing-mode:lr-tb;direction:ltr;text-orientation:mixed;dominant-baseline:auto;baseline-shift:baseline;text-anchor:start;white-space:normal;shape-padding:0;clip-rule:nonzero;display:inline;overflow:visible;visibility:visible;opacity:1;isolation:auto;mix-blend-mode:normal;color-interpolation:sRGB;color-interpolation-filters:linearRGB;solid-color:#000000;solid-opacity:1;vector-effect:none;fill:#000000;fill-opacity:1;fill-rule:nonzero;stroke:none;stroke-width:0.52916664;stroke-linecap:butt;stroke-linejoin:round;stroke-miterlimit:4;stroke-dasharray:none;stroke-dashoffset:0;stroke-opacity:1;color-rendering:auto;image-rendering:auto;shape-rendering:auto;text-rendering:auto;enable-background:accumulate" d="m 13.823328,1.0588501 c -0.0098,7.564e-4 -0.01925,0.00177 -0.02894,0.00362 -1.129578,0.2232356 -1.763067,1.1778762 -2.0314,1.6055867 -0.134315,-0.1256593 -0.271938,-0.2064583 -0.466638,-0.271818 -0.338863,-0.1137549 -0.737006,-0.1163939 -1.140499,0 -0.4600893,0.1327205 -0.9427333,0.4981198 -1.3420363,0.8578288 -0.199652,0.1798547 -0.373923,0.3581087 -0.501778,0.5136636 -0.06393,0.077778 -0.115268,0.1482574 -0.15658,0.2206586 -0.04131,0.072401 -0.107933,0.1334653 -0.06408,0.3105753 0.0434,0.1752542 0.135782,0.20013 0.206706,0.2418455 0.07092,0.041716 0.149356,0.076553 0.240295,0.1095542 0.18188,0.066001 0.410409,0.1252874 0.664042,0.1736328 0.05788,0.011032 0.114897,0.019862 0.172083,0.029456 -1.308439,2.5670729 -3.288509,4.1055257 -5.549015,5.4063884 -1.137362,0.654522 -1.748936,1.508837 -1.904277,2.367297 -0.15534,0.85846 0.150114,1.69923 0.756027,2.304252 1.211825,1.210042 3.613192,1.479443 6.007901,-0.536918 2.1458603,-1.806827 3.5733143,-4.4394893 4.4777623,-7.1173949 0.03801,0.035118 0.07782,0.075738 0.113688,0.1059368 0.07503,0.063174 0.142778,0.1150035 0.214974,0.1560629 0.07219,0.041059 0.141263,0.1073237 0.31626,0.056844 0.175082,-0.050506 0.194574,-0.1373457 0.236678,-0.2092894 0.0421,-0.071944 0.07771,-0.1538404 0.113172,-0.2480469 0.07092,-0.1884129 0.139253,-0.4266803 0.195336,-0.6893636 0.112169,-0.525367 0.187398,-1.1254322 0.07235,-1.5900839 -0.134318,-0.5793481 -0.533407,-1.0932115 -1.005107,-1.2505695 0.302696,-1.0308037 1.461926,-1.495516 1.461926,-1.495516 0.20822,-0.079769 0.230568,-0.3654164 0.03721,-0.4764567 L 13.975774,1.0939901 c -0.04608,-0.026796 -0.09928,-0.039034 -0.152446,-0.03514 z m -0.0217,0.5446696 c 0.152722,0.093773 0.278613,0.1629433 0.434082,0.252181 -0.221893,0.1274454 -1.227162,0.7618598 -1.394747,1.9177124 -0.02396,0.1550046 0.0914,0.2969141 0.248047,0.3048908 0.296744,0.013533 0.684585,0.35019 0.822689,0.907955 0.07119,0.2875063 0.02646,0.8696933 -0.07648,1.3518554 -0.05147,0.2410812 -0.116109,0.4621242 -0.173633,0.6149496 -0.0075,0.019833 -0.01243,0.025512 -0.01964,0.042891 -0.01048,-0.00836 -0.01415,-0.010232 -0.02532,-0.019637 C 13.497828,6.8762911 13.341972,6.7215175 13.186674,6.5412027 12.876078,6.1805735 12.568837,5.7039761 12.497311,5.4162068 c -0.05001,-0.199126 -0.297907,-0.2678631 -0.443384,-0.12299 -0.2632,0.2641534 -0.626148,0.5352238 -0.929659,0.7224366 -0.129289,0.079748 -0.236515,0.1331724 -0.328145,0.1757 -0.0089,-0.099133 -0.01552,-0.2160434 -0.01137,-0.3653526 0.0098,-0.3529076 0.0624,-0.7983431 0.15813,-1.1580688 0.05291,-0.1968849 -0.127643,-0.3769219 -0.324528,-0.3240111 -0.293673,0.078719 -0.8545843,0.048715 -1.3161983,-0.039274 -0.230807,-0.043994 -0.440621,-0.1004361 -0.583944,-0.1524455 -0.01095,-0.00397 -0.01363,-0.00589 -0.02377,-0.00982 0.01157,-0.015075 0.01378,-0.022198 0.02739,-0.038757 0.103722,-0.1261898 0.262195,-0.2922521 0.445451,-0.4573365 0.366511,-0.3301685 0.8497833,-0.6598518 1.1348133,-0.7420737 0.309463,-0.089269 0.605183,-0.079914 0.826306,-0.00568 0.221124,0.07423 0.358538,0.2029891 0.413928,0.3591513 0.07878,0.222197 0.386943,0.238149 0.488343,0.025321 0.142592,-0.2991506 0.757458,-1.4356147 1.770951,-1.679484 z M 10.347571,4.913912 c -0.057,0.3294591 -0.08432,0.6021684 -0.0925,0.8965861 -0.0054,0.1955676 -3.6e-4,0.3700298 0.01757,0.5136637 0.009,0.071817 0.02041,0.1354095 0.04134,0.1994709 0.02093,0.064062 0.03446,0.1460442 0.163814,0.2206583 0.130155,0.075075 0.207122,0.045132 0.273368,0.031006 0.06625,-0.014126 0.126068,-0.037645 0.19327,-0.066146 0.134405,-0.057002 0.289303,-0.1407827 0.457336,-0.2444295 0.253034,-0.1560775 0.48017,-0.3124076 0.733806,-0.5327841 0.16291,0.3381518 0.369207,0.6238902 0.612366,0.9105387 -0.878731,2.7087282 -2.295572,5.3718169 -4.4048993,7.1478839 -2.246741,1.891772 -4.29892,1.560759 -5.2927,0.568441 -0.49689,-0.496159 -0.733016,-1.157099 -0.609782,-1.838131 0.123235,-0.681032 0.610944,-1.404871 1.648478,-2.001944 2.351703,-1.3533439 4.480504,-3.0134683 5.846155,-5.8027473 0.1362203,0.00653 0.2727883,0.00843 0.4123773,-0.00207 z m -3.1956693,8.670272 c -0.05105,0.0015 -0.100621,0.01745 -0.142627,0.04651 -0.474529,0.320645 -0.980774,0.576054 -1.55081,0.621151 -0.460938,0.0034 -0.885838,-0.04348 -1.265556,-0.279053 -0.302953,-0.201635 -0.594429,0.266585 -0.279569,0.449068 0.507308,0.314732 1.058299,0.365977 1.562695,0.361219 0.0059,-4.71e-4 0.01173,-0.0012 0.01757,-0.0021 0.705811,-0.05385 1.300436,-0.36675 1.812292,-0.712618 0.220203,-0.14759 0.111001,-0.491195 -0.153995,-0.484208 z"></path></g></svg>