<svg height='100px' width='100px'  fill="#000000" xmlns="http://www.w3.org/2000/svg" xmlns:xlink="http://www.w3.org/1999/xlink" version="1.1" x="0px" y="0px" viewBox="0 0 48 48" enable-background="new 0 0 48 48" xml:space="preserve"><g><path fill="#000000" d="M40.7,47.5C26,47.5,12,40.1,3.1,27.8C0.6,24.4-0.1,20,1.2,16.5c0.8-2.2,2.4-3.7,4.3-4.1   c0.6-0.1,1.1-0.2,1.7-0.2c3.9,0,7.9,3,9.6,7.4c4.5,11.8,15.3,20.4,28.1,22.5c1.5,0.2,2.6,1.3,2.6,2.6c0,1.1-0.9,2.3-2.7,2.5   C43.4,47.4,42,47.5,40.7,47.5z M7.2,14.3c-0.4,0-0.9,0-1.3,0.1c-1.3,0.3-2.3,1.3-2.9,2.8c-1.1,2.8-0.4,6.5,1.6,9.3   c8.6,11.8,22,18.9,36,18.9c1.3,0,2.6-0.1,3.9-0.2c0.5-0.1,0.9-0.3,0.9-0.6c0-0.3-0.3-0.5-0.9-0.6C31.1,42,19.7,32.9,15,20.4   C13.5,16.8,10.4,14.3,7.2,14.3z"></path><path fill="#000000" d="M4.7,14.8c-0.3,0-0.6-0.1-0.8-0.3C3.8,14.3-0.4,9.3,0.7,1.4c0.1-0.5,0.6-0.9,1.1-0.9   c0.5,0.1,0.9,0.6,0.9,1.1C1.7,8.7,5.4,13.1,5.4,13.2c0.4,0.4,0.3,1-0.1,1.4C5.2,14.7,4.9,14.8,4.7,14.8z"></path></g></svg>