<svg height='100px' width='100px'  fill="#000000" xmlns="http://www.w3.org/2000/svg" xmlns:xlink="http://www.w3.org/1999/xlink" version="1.1" x="0px" y="0px" viewBox="0 0 128 128" style="enable-background:new 0 0 128 128;" xml:space="preserve"><path d="M127.596,62.797c1.465-7.187-1.314-11.834-4.124-14.256c2.854-7.657-0.324-14.534-8.991-19.14  c-4.273-2.271-8.228-3.163-11.751-2.652c-2.746,0.397-5.149,1.604-7.188,3.597c-0.14-1.099-0.378-2.235-0.724-3.407  c-2.397-8.114-7.796-11.21-11.878-12.032c-1.062-9.407-7.749-14.543-19.1-14.543s-18.037,5.136-19.1,14.543  c-4.082,0.822-9.481,3.918-11.878,12.031c-0.321,1.085-0.542,2.135-0.686,3.156c-1.979-1.836-4.284-2.966-6.906-3.345  c-3.527-0.51-7.479,0.382-11.751,2.652c-8.667,4.606-11.844,11.483-8.991,19.14c-2.811,2.422-5.59,7.068-4.124,14.256  c1.039,5.094,3.466,7.949,6.055,9.436c-2.866,3.58-5.323,9.376-1.531,17.135c4.101,8.392,11.013,9.733,16.153,8.935  c0.382,3.336,1.8,7.888,6.29,11.247c5.498,4.115,11.608,2.288,15.112,0.582c0.807,1.008,1.948,2.026,3.529,2.701  c1.159,0.494,2.402,0.74,3.724,0.74c1.42,0,2.931-0.287,4.526-0.856l7.054,13.333c0,0,0.001,0.002,0.002,0.003  c0.026,0.048,0.062,0.091,0.09,0.138c0.049,0.081,0.1,0.16,0.156,0.236c0.057,0.078,0.119,0.151,0.185,0.223  c0.027,0.03,0.049,0.064,0.077,0.093c0.039,0.04,0.084,0.073,0.125,0.111c0.069,0.063,0.142,0.122,0.218,0.179  c0.068,0.051,0.137,0.101,0.209,0.146c0.036,0.022,0.071,0.044,0.108,0.065c0.023,0.013,0.042,0.031,0.065,0.044  c0.031,0.016,0.064,0.021,0.096,0.037c0.129,0.063,0.263,0.113,0.402,0.158c0.05,0.016,0.097,0.039,0.149,0.053  c0.03,0.008,0.06,0.015,0.091,0.022c0.193,0.044,0.393,0.069,0.599,0.073c0.019,0,0.037,0.007,0.056,0.007c0.001,0,0.002,0,0.002,0  c0.002,0,0.002,0,0.003,0c0.003,0,0.005-0.001,0.008-0.001c0.001,0,0.003,0,0.004,0c0.224-0.001,0.44-0.031,0.649-0.079  c0.028-0.007,0.056-0.014,0.084-0.021c0.051-0.013,0.098-0.037,0.149-0.053c0.141-0.045,0.278-0.096,0.41-0.161  c0.028-0.014,0.058-0.018,0.085-0.033c0.023-0.012,0.042-0.03,0.065-0.043c0.039-0.022,0.076-0.046,0.115-0.07  c0.075-0.047,0.146-0.097,0.216-0.15c0.074-0.056,0.144-0.115,0.212-0.177c0.042-0.039,0.089-0.072,0.129-0.113  c0.02-0.021,0.036-0.046,0.055-0.068c0.007-0.008,0.014-0.017,0.021-0.026c0.065-0.072,0.126-0.146,0.183-0.224  c0.056-0.076,0.108-0.155,0.157-0.237c0.026-0.044,0.06-0.083,0.084-0.128c0,0,0.001-0.001,0.001-0.002l7.088-13.364  c1.622,0.587,3.159,0.885,4.601,0.885c1.322,0,2.565-0.246,3.724-0.74c1.581-0.674,2.721-1.692,3.529-2.701  c3.504,1.705,9.615,3.532,15.112-0.582c4.49-3.359,5.907-7.91,6.29-11.246c5.14,0.793,12.053-0.544,16.153-8.936  c3.792-7.759,1.335-13.554-1.531-17.136C124.129,70.746,126.557,67.892,127.596,62.797z M38.569,28.625  c2.403-8.132,8.141-8.04,8.742-7.999c0.837,0.069,1.653-0.21,2.267-0.773c0.614-0.564,0.963-1.359,0.963-2.192  c0-4.869,1.378-11.344,13.298-11.344s13.298,6.475,13.298,11.344c0,0.833,0.35,1.628,0.963,2.192  c0.614,0.563,1.437,0.842,2.267,0.773c0.062-0.01,6.249-0.436,8.742,7.999c0.387,1.31,0.574,2.509,0.603,3.611  c-3.095,0.134-6.734,1.404-10.247,4.986c-3.641,3.712-4.649,7.321-4.432,10.298c-2.455-0.198-5.374,0.069-8.219,1.51V39.24  c0.274,0.009,0.556,0.015,0.853,0.015c4.238,0,10.712-1.046,16.071-6.406l-4.208-4.208c-4.32,4.319-9.699,4.794-12.716,4.653V16.252  c0-1.644-1.332-2.976-2.976-2.976c-1.643,0-2.976,1.332-2.976,2.976v32.655c-2.659-1.268-5.425-1.597-7.894-1.427  c0.205-2.969-0.81-6.563-4.434-10.258c-3.638-3.71-7.408-4.937-10.572-4.993C37.993,31.131,38.183,29.934,38.569,28.625z   M60.894,108.871l0.018,3.688l-1.383-2.613C60.018,109.598,60.476,109.241,60.894,108.871z M66.845,108.65  c0.468,0.433,0.999,0.847,1.56,1.251l-1.54,2.904L66.845,108.65z M48.387,107.374c-1.405-0.572-1.93-2.145-1.931-2.145  c0,0,0,0,0,0.001c-0.267-0.942-0.98-1.69-1.906-2.005c-0.925-0.314-1.947-0.154-2.732,0.43c-0.062,0.046-6.268,4.58-10.881,1.13  c-4.862-3.639-3.992-9.697-3.956-9.936c0.182-1.089-0.254-2.189-1.132-2.858c-0.879-0.669-2.054-0.797-3.057-0.331  c-0.843,0.391-8.365,3.586-12.517-4.907c-4.163-8.517,3.024-13.097,3.843-13.583c1.247-0.721,1.824-2.234,1.337-3.588  c-0.487-1.355-1.849-2.174-3.27-1.932c-0.77,0.1-4.659,0.284-5.95-6.044c-1.404-6.885,2.769-9.041,3.209-9.247  c0.767-0.326,1.361-0.96,1.639-1.746c0.278-0.787,0.213-1.653-0.178-2.388c-3.928-7.394,0.826-11.136,5.406-13.57  c3.133-1.665,5.863-2.339,8.106-2.019c2.507,0.363,4.525,2.042,6.166,5.132c0.391,0.735,1.073,1.274,1.879,1.483  c0.805,0.209,1.665,0.072,2.364-0.381c0.043-0.029,4.336-2.707,9.459,2.516c4.524,4.612,2.193,7.734,1.713,8.276  c-0.992,1.043-1.096,2.647-0.246,3.809c0.85,1.162,2.411,1.551,3.705,0.918c0.268-0.131,6.027-2.836,10.72,1.122  c-0.067,0.111-0.137,0.211-0.202,0.325c-4.66,8.095-1.9,14.572,1.635,18.388c-2.551,2.183-5.529,5.905-5.802,11.507  c-0.182,3.753,1.217,6.658,3.071,8.843c-0.73,0.373-1.284,1.029-1.516,1.829c-0.268,0.923-0.057,1.939,0.539,2.694  c0.011,0.013,1.038,1.337,0.724,2.833c-0.19,0.903-0.84,1.815-1.91,2.697L43.173,79.031c2.064-0.906,4.795-2.331,7.327-4.384  l-3.749-4.622c-2.204,1.788-4.658,3.007-6.371,3.729L22.802,40.529c-0.769-1.452-2.57-2.009-4.022-1.238  c-1.453,0.768-2.008,2.569-1.239,4.022l6.737,12.734c-2.266,1.267-6.293,2.808-10.969,1.376l-1.742,5.69  c1.947,0.597,3.808,0.839,5.55,0.839c4.158,0,7.628-1.383,9.94-2.652l15.551,29.392c-1.141,1.079-4.181,3.317-9.691,3.135  l-0.194,5.948c0.275,0.01,0.546,0.014,0.813,0.014c5.751,0,9.635-2.024,11.905-3.742l5.989,11.319  C50.216,107.687,49.184,107.699,48.387,107.374z M121.764,61.608c-1.291,6.331-5.183,6.137-5.901,6.052  c-1.412-0.24-2.787,0.57-3.28,1.915c-0.493,1.346,0.051,2.857,1.284,3.588c0.833,0.494,8.02,5.074,3.857,13.591  c-4.016,8.22-11.145,5.525-12.517,4.907c-0.994-0.462-2.163-0.33-3.04,0.329c-0.877,0.659-1.319,1.757-1.152,2.841  c0.039,0.257,0.909,6.315-3.953,9.954c-4.561,3.411-10.828-1.092-10.881-1.13c-0.786-0.583-1.808-0.744-2.732-0.43  c-0.926,0.315-1.639,1.064-1.906,2.005c-0.004,0.015-0.513,1.54-1.889,2.126c-0.82,0.35-1.892,0.338-3.159-0.009l6.014-11.338  c2.262,1.725,6.16,3.778,11.954,3.778c0.266,0,0.539-0.004,0.813-0.014l-0.194-5.948c-5.577,0.184-8.624-2.11-9.732-3.174  l15.574-29.363c2.311,1.271,5.79,2.661,9.958,2.661c1.742,0,3.604-0.243,5.55-0.839l-1.742-5.69  c-4.689,1.434-8.715-0.111-10.982-1.383l6.749-12.724c0.77-1.451,0.217-3.253-1.235-4.023c-1.454-0.769-3.254-0.217-4.023,1.235  L87.582,73.744c-3.696-1.552-10.78-5.391-11.345-12.184l-5.931,0.494c0.802,9.625,9.533,14.791,14.479,16.964l-13.557,25.561  c-1.034-0.866-1.668-1.76-1.854-2.646c-0.312-1.486,0.698-2.8,0.696-2.8c0.627-0.744,0.845-1.751,0.592-2.692  c-0.252-0.94-0.955-1.699-1.871-2.029c-0.073-0.026-7.313-2.699-7.037-8.389c0.295-6.066,5.802-8.735,6.02-8.838  c0.998-0.456,1.656-1.43,1.726-2.524c0.069-1.096-0.479-2.146-1.411-2.723c-1.294-0.801-7.517-5.201-2.953-13.128  c4.73-8.218,12.547-4.825,13.407-4.417c1.295,0.629,2.871,0.261,3.722-0.9c0.85-1.162,0.763-2.748-0.229-3.791  c-0.513-0.578-2.844-3.7,1.68-8.312c4.92-5.018,9.043-2.766,9.458-2.516c0.7,0.452,1.558,0.59,2.364,0.381  c0.807-0.209,1.488-0.748,1.88-1.484c1.641-3.089,3.658-4.768,6.166-5.131c2.249-0.321,4.974,0.354,8.106,2.019  c4.581,2.434,9.335,6.176,5.407,13.57c-0.391,0.735-0.455,1.601-0.178,2.388c0.278,0.786,0.872,1.418,1.638,1.746  C118.602,52.381,123.225,54.442,121.764,61.608z"></path></svg>