<svg height='100px' width='100px'  fill="#000000" xmlns="http://www.w3.org/2000/svg" xmlns:xlink="http://www.w3.org/1999/xlink" version="1.1" x="0px" y="0px" viewBox="0 0 100 100" style="enable-background:new 0 0 100 100;" xml:space="preserve"><g><desc xmlns:shape="http://adobe.com/products/shape"></desc><path d="M41.2,93.7c-0.2-2.9,1.5-5.9,4.2-7c-3.4-0.6-6.7-1.2-10.1-1.8c2-2.5,6.4-0.4,9.2-1.8c3-1.6,2.8-5.9,1.9-9.2   c-2.1-8.7-5.1-17.2-8.8-25.3c-1.8-3.9-4.1-8.1-8.1-9.8c-2.8-1.2-6-0.9-9.1-0.9c-8.1,0-17.4-3.2-19.9-10.8   C-1.1,21.6,1,15.5,5.2,11.8s10-5.2,15.5-5c8.1,0.3,16.1,4.2,21.3,10.4c0.6,0.8,1.3,1.6,2.2,1.8c0.9,0.3,2.2-0.2,2.2-1.2   c0-5.8,4.7-10.5,9.7-13.6c4.3-2.7,9.4-4.6,14.4-3.6c5,1,9.4,5.9,8.3,10.8c9.6-1.3,19.8,5.8,21,15.3c1.3,9.5-7.8,19.3-17.3,17.9   c-6.1-0.9-11.9-5.7-17.8-4c-4.6,1.3-7.4,6.1-8.4,10.8c-0.9,4.7-0.6,9.5-1.4,14.2c-0.7,3.8-2.1,7.5-2.6,11.4   c-0.5,3.9,0.2,8.2,3.2,10.7c-1.8,0.8-4.3,0-5.2-1.9c-1.1,2.2-0.4,5.1,1.4,6.7c-1.9,1.6-2.9,4.3-2.3,6.8c-1.4-0.7-2-2.3-2.5-3.7   c-0.5-1.5-1.1-3-2.4-3.7C43.2,91.3,41,92.2,41.2,93.7 M49.3,47.3c-0.5,2.5-1,5-1.5,7.4c-0.9,4.7,0,9.8,2.5,13.8   c0.8-4.8,1.2-9.6,1.1-14.4c0-8.5,6.7-16.5,15-17.8c4.9-0.8,10,0.4,14.6,2.3c2.3,1,4.9,2.1,7.3,1.6c2.6-0.5,4.5-2.6,5.7-5   c3.3-6.5,0.7-15.7-6.1-18.6c-1.8-0.8-3.9-1.1-6-1.3c-6.7-0.6-13.8,0.4-19.4,4.3C54.1,25.6,51.4,37,49.3,47.3 M6.7,27.9   c3.4,4.2,9.3,5.1,14.7,5.3c5.3,0.3,11.2,0.5,15.3,4c4.1,3.5,5.2,9.2,6.7,14.4c0.4,1.5,1.6,3.3,3,2.8c0.4-10.7-2.1-21.6-7-31.1   c-1.2-2.3-2.5-4.5-4.2-6.4c-6.2-7-17.3-8.9-25.5-4.5C4.4,15.3,2.9,23.3,6.7,27.9 M63,5.2c-4.7,1.3-8.7,4.8-10.6,9.3   c-0.5,1.1-0.9,2.3-1.2,3.5c-0.6,1.7-1.1,3.5-1.7,5.3c-0.9,2.8-1.7,5.6-2.2,8.6c-0.3,1.7-0.2,3.7,1.2,4.6c1.1-3.3,2.3-6.4,3.6-9.6   c0.4-0.9,0.8-1.7,1.3-2.6c4.2-7.8,13.6-11.4,22.4-12c-1.2-1-1.5-2.6-2.2-3.9C71.6,4.9,66.8,4.2,63,5.2 M48.3,84   c-0.4,0.2,0,1.1,0.4,0.9C49.2,84.7,48.8,83.9,48.3,84"></path></g></svg>