<svg height='100px' width='100px'  fill="#000000" xmlns="http://www.w3.org/2000/svg" xmlns:xlink="http://www.w3.org/1999/xlink" version="1.1" x="0px" y="0px" viewBox="0 0 100 100" enable-background="new 0 0 100 100" xml:space="preserve"><g><path fill="#000000" d="M94.304,54.287c-0.144-2.797-1.364-5.132-3.402-6.604c1.28-4.425,1.5-10.601-0.916-15.078   c-1.569-2.907-4.101-4.834-7.32-5.573c-0.3-0.069-0.607-0.127-0.922-0.173c-1.053-7.011-4.938-10.021-7.226-11.201   c-2.529-1.303-5.417-1.627-7.784-0.942C63.159,9.203,56.412,7.388,51.75,8.954c-0.653,0.22-1.259,0.507-1.841,0.826   C49.324,9.458,48.7,9.179,48.03,8.954c-4.663-1.568-11.422,0.253-14.995,5.778c-2.233-0.596-4.982-0.246-7.43,1.016   c-2.375,1.224-6.381,4.292-7.561,11.314c-3.126,0.669-5.672,2.614-7.367,5.647C8.124,37.28,7.963,43.386,9.11,47.673   c-2.047,1.472-3.271,3.811-3.416,6.614c-0.206,3.992,1.75,8.206,4.881,10.792c-0.652,1.707-0.474,3.982,0.555,6.535   c2.282,5.661,8.017,11.575,16.671,15.481c0.098,0.057,0.202,0.104,0.311,0.141C34.095,89.88,41.446,91.569,50,91.569   c21.179,0,34.994-10.344,38.868-19.955c1.029-2.552,1.208-4.828,0.555-6.535C92.554,62.493,94.51,58.278,94.304,54.287z    M64.477,17.606c0.208,0.416,0.576,0.728,1.02,0.865c0.444,0.137,0.924,0.086,1.33-0.14c1.261-0.705,3.719-0.896,6.135,0.349   c2.789,1.437,4.65,4.345,5.342,8.239c-2.741,0.524-5.686,2.307-8.382,6.442c-0.402-0.732-0.881-1.558-1.437-2.442   c2.428-2.849,2.959-5.585,2.982-5.711c0.134-0.73-0.348-1.428-1.078-1.566c-0.724-0.138-1.435,0.343-1.577,1.072   c-0.004,0.021-0.375,1.822-1.909,3.863c-1.491-2.062-3.312-4.183-5.428-5.866c-0.584-0.465-1.433-0.367-1.897,0.216   c-0.464,0.583-0.367,1.433,0.216,1.897c4.244,3.375,7.324,8.911,8.535,11.321c-0.503,1-0.994,2.094-1.467,3.299   c-1.724-0.682-4.415-1.354-7.029-0.44c0.194-2.467-0.217-4.674-1.245-6.589c-1.3-2.423-3.291-3.792-4.675-4.5   c0.833-3.08,1.478-5.554,1.45-8.276c-0.029-2.989-0.914-5.538-2.521-7.465C56.054,11.101,61.874,12.391,64.477,17.606z    M27.163,18.771c2.364-1.218,4.612-1.098,5.792-0.439c0.406,0.226,0.888,0.277,1.331,0.14c0.444-0.137,0.812-0.45,1.02-0.865   c2.605-5.22,8.435-6.506,11.643-5.43c3.198,1.074,4.979,3.736,5.017,7.497c0.024,2.344-0.581,4.575-1.417,7.664l-0.304,1.128   c-0.241,0.899,0.286,1.825,1.183,2.077c0.027,0.008,2.745,0.833,4.167,3.481c1.131,2.109,1.178,4.856,0.153,8.161   c-1.677,2.253-2.542,5.049-2.956,6.989c-0.963-0.326-1.976-0.548-2.887-0.622c-0.76-0.059-1.493-0.016-2.197,0.105   c-0.597-1.967-1.85-5.122-4.17-7.435c1.728-0.395,3.466-0.992,4.923-1.899c0.633-0.394,0.826-1.227,0.432-1.86   c-0.395-0.633-1.226-0.826-1.86-0.432c-1.908,1.188-4.513,1.748-6.766,2.009c-1.068-0.391-2.15-0.515-3.177-0.475   c0.644-3.936,2.54-12.54,7.498-19.421c0.436-0.605,0.299-1.449-0.306-1.884c-0.604-0.435-1.448-0.298-1.884,0.306   c-2.699,3.746-4.538,7.903-5.785,11.639c-1.498-1.48-2.627-3.054-3.37-4.235c-0.397-0.631-1.23-0.822-1.861-0.425   c-0.631,0.397-0.821,1.23-0.425,1.861c0.984,1.566,2.587,3.751,4.785,5.667c-0.824,2.992-1.255,5.5-1.464,6.979   c-0.402,0.12-0.779,0.251-1.116,0.384c-1.84-5.025-4.996-11.975-11.607-12.606C22.636,21.831,25.456,19.65,27.163,18.771z    M14.284,70.342c-0.95-2.357-0.809-3.957-0.249-4.496c0.38-0.366,0.569-0.888,0.511-1.413c-0.058-0.524-0.357-0.992-0.809-1.266   c-2.863-1.735-4.818-5.396-4.647-8.705c0.077-1.481,0.62-3.461,2.772-4.479c0.798-0.377,1.174-1.301,0.867-2.128   c-1.281-3.45-1.396-9.349,0.916-13.487c1.24-2.22,2.997-3.569,5.221-4.011c5.852-1.167,8.826,3.724,11.721,11.989   c0.169,0.484,0.551,0.865,1.035,1.037c0.481,0.172,1.021,0.117,1.459-0.15c0.039-0.024,3.931-2.361,6.736-0.659   c2.79,1.69,4.177,5.465,4.722,7.371c-0.458,0.315-0.893,0.676-1.297,1.095c-2.508,2.594-3.742,7.059-3.222,11.651   c0.604,5.345,0.44,9.789-0.454,13.195c-6.046-4.99-10.16-11.084-12.895-16.49c1.047-1.168,2.878-3.627,3.706-7.283   c0.165-0.727-0.292-1.45-1.019-1.615c-0.726-0.163-1.45,0.291-1.615,1.019c-0.524,2.314-1.537,4.057-2.357,5.174   c-2.748-6.161-3.645-10.87-3.662-10.965c-0.134-0.733-0.839-1.22-1.569-1.088c-0.733,0.133-1.221,0.834-1.088,1.567   c0.116,0.646,2.354,12.477,10.88,23.563c-1.463,0.388-4.028,0.753-7.455,0.02c-0.727-0.157-1.447,0.308-1.603,1.037   c-0.157,0.729,0.308,1.447,1.037,1.603c1.623,0.348,3.092,0.479,4.385,0.479c2.597,0,4.463-0.525,5.459-0.892   c1.974,2.294,4.241,4.517,6.833,6.563c-0.485,1.024-1.062,1.91-1.742,2.633c-1.854,1.971-4.44,2.864-7.889,2.725   C20.423,79.978,15.81,74.127,14.284,70.342z M86.261,63.167c-0.452,0.274-0.75,0.742-0.809,1.266   c-0.059,0.525,0.13,1.047,0.511,1.413c0.561,0.54,0.701,2.14-0.249,4.497C83.229,76.508,72.567,88.168,50,88.168   c-2.868,0-5.541-0.19-8.032-0.531c6.857-1.485,12.554-4.184,17.275-7.519c0.164-0.059,0.32-0.146,0.456-0.271   c0.035-0.032,0.05-0.076,0.081-0.111c3.233-2.353,5.996-5.003,8.354-7.756c0.965,0.369,2.853,0.926,5.533,0.926   c1.295,0,2.771-0.131,4.405-0.479c0.729-0.155,1.195-0.872,1.04-1.601c-0.155-0.729-0.874-1.195-1.601-1.04   c-3.495,0.742-6.103,0.342-7.553-0.053c2.494-3.251,4.459-6.571,5.995-9.653c0.014-0.015,0.031-0.026,0.045-0.042   c0.162-0.186,0.242-0.407,0.285-0.633c3.513-7.264,4.623-13.05,4.65-13.202c0.132-0.733-0.355-1.436-1.089-1.568   c-0.731-0.133-1.436,0.355-1.568,1.089c-0.024,0.133-0.925,4.813-3.676,10.943c-0.818-1.119-1.822-2.854-2.343-5.153   c-0.165-0.728-0.893-1.181-1.615-1.019c-0.728,0.165-1.184,0.888-1.019,1.615c0.821,3.627,2.631,6.078,3.682,7.256   c-2.946,5.785-7.488,12.363-14.315,17.565c-1.284-1.763-3.726-5.745-4.225-11.095c-0.07-0.742-0.735-1.287-1.47-1.219   c-0.742,0.069-1.288,0.728-1.219,1.47c0.557,5.967,3.228,10.374,4.715,12.415c-5.425,3.628-12.146,6.365-20.46,7.315   c1.116-0.592,2.126-1.343,3.006-2.278c3.828-4.067,5.194-11.211,4.062-21.234c-0.402-3.555,0.496-7.051,2.288-8.906   c1.056-1.092,2.38-1.582,3.947-1.46c1.146,0.092,2.634,0.562,3.619,1.143c0.501,0.296,1.121,0.314,1.64,0.047   c0.519-0.266,0.865-0.781,0.917-1.362c0.139-1.556,0.899-5.383,2.81-7.779c0.021-0.026,0.044-0.05,0.064-0.078   c0.438-0.536,0.935-0.997,1.498-1.338c2.805-1.698,6.698,0.636,6.732,0.656c0.439,0.271,0.976,0.33,1.461,0.157   c0.486-0.172,0.867-0.555,1.038-1.041c2.198-6.277,6.148-13.454,12.494-11.999c2.27,0.52,3.981,1.823,5.087,3.873   c2.076,3.847,1.71,9.771,0.275,13.635c-0.307,0.827,0.069,1.751,0.867,2.128c2.153,1.019,2.696,2.998,2.772,4.479   C91.08,57.771,89.125,61.432,86.261,63.167z"></path></g></svg>