<svg height='100px' width='100px'  fill="#000000" xmlns="http://www.w3.org/2000/svg" viewBox="0 0 48 68" x="0px" y="0px"><path fill="#000000" d="M668.064483,896.00104 C689.704647,896.69911 701.581513,906.77645 702.994536,925.852257 C704.29554,943.415822 707.838109,955.009681 713.414214,960.585786 C714.696251,961.867824 713.74765,964.057416 711.935517,963.99896 C690.322427,963.301764 678.428045,953.930432 677.006369,936.15949 C675.698774,919.814549 672.126588,907.474269 666.355616,899.13842 C665.420498,897.787694 666.422502,895.948073 668.064483,896.00104 Z M680.993631,935.84051 C682.140953,950.182036 690.813206,958.068894 707.600493,959.715935 C702.968997,952.700614 700.144187,941.520502 699.005464,926.147743 C697.835643,910.355151 688.942759,901.820101 671.757603,900.23318 C676.732163,908.998742 679.795822,920.867904 680.993631,935.84051 Z M690,936 C686.686292,936 684,933.313708 684,930 C684,926.686292 686.686292,924 690,924 C693.313708,924 696,926.686292 696,930 C696,933.313708 693.313708,936 690,936 Z M690,932 C691.104569,932 692,931.104569 692,930 C692,928.895431 691.104569,928 690,928 C688.895431,928 688,928.895431 688,930 C688,931.104569 688.895431,932 690,932 Z M686,920 C682.686292,920 680,917.313708 680,914 C680,910.686292 682.686292,908 686,908 C689.313708,908 692,910.686292 692,914 C692,917.313708 689.313708,920 686,920 Z M686,916 C687.104569,916 688,915.104569 688,914 C688,912.895431 687.104569,912 686,912 C684.895431,912 684,912.895431 684,914 C684,915.104569 684.895431,916 686,916 Z M694,952 C690.686292,952 688,949.313708 688,946 C688,942.686292 690.686292,940 694,940 C697.313708,940 700,942.686292 700,946 C700,949.313708 697.313708,952 694,952 Z M694,948 C695.104569,948 696,947.104569 696,946 C696,944.895431 695.104569,944 694,944 C692.895431,944 692,944.895431 692,946 C692,947.104569 692.895431,948 694,948 Z" transform="translate(-666 -896)"></path></svg>