<svg height='100px' width='100px'  fill="#000000" xmlns="http://www.w3.org/2000/svg" xmlns:xlink="http://www.w3.org/1999/xlink" version="1.1" x="0px" y="0px" viewBox="0 0 100 100" enable-background="new 0 0 100 100" xml:space="preserve"><g><g><path d="M74.438,49.039c-7.05-1.563-13.426-0.452-18.767,3.119c-0.47-0.953-1.104-1.903-1.892-2.841    c0.08-0.04,0.162-0.077,0.232-0.14c1.344-1.187,3.669-1.66,5.721-2.079c1.367-0.278,2.659-0.542,3.591-1.007    c1.543-0.771,5.75-3.698,6.68-7.943c0.558-2.551-0.145-5.07-2.089-7.49c-6.064-7.547-12.572-3.817-18.314-0.522    c-1.215,0.697-2.472,1.418-3.695,2.021c-5.618,2.769-6.588,6.054-6.678,7.742c-0.419-0.165-0.837-0.33-1.267-0.488    c-6.247-2.302-12.372-2.083-16.807,0.599c-3.422,2.068-5.525,5.419-6.084,9.688c-0.453,3.463,0.461,6.558,2.645,8.948    c2.215,2.426,6.828,5.233,16.271,4.865c2.784-0.11,5.46,0.202,8.05,0.503c1.495,0.174,2.921,0.335,4.27,0.404    c-0.168,1.176-0.145,2.382,0.104,3.58c0.562,2.714,2.147,5.046,4.463,6.566c1.696,1.114,3.66,1.704,5.637,1.704    c0.002,0,0.003,0,0.005,0c0.212,0.009,0.42,0.013,0.622,0.013c3.712,0,5.824-1.438,7.867-2.829    c1.75-1.191,3.403-2.317,6.132-2.474c5.239-0.299,11.447-1.514,12.958-8.309c0.587-2.641-0.254-5.742-2.306-8.51    C79.845,51.546,77.099,49.631,74.438,49.039z M41.363,40.524c-0.029-0.139-0.645-3.441,5.48-6.461    c1.284-0.633,2.57-1.37,3.813-2.084c5.728-3.284,10.672-6.123,15.6,0.011c1.521,1.894,2.083,3.812,1.669,5.704    c-0.747,3.413-4.349,5.895-5.552,6.495c-0.681,0.34-1.84,0.576-3.066,0.826c-2.312,0.472-4.934,1.006-6.702,2.568    c-0.087,0.076-0.145,0.17-0.2,0.265c-0.697-0.68-1.471-1.348-2.317-2.002c0.238-0.038,0.458-0.102,0.636-0.222    c0.374-0.253,0.589-0.663,0.589-1.126c0-0.587-0.477-1.062-1.063-1.062c-0.284,0-0.541,0.11-0.732,0.292    c-0.209-0.045-0.487-0.128-0.713-0.217c-0.513-0.206-1.079,0.029-1.326,0.512c-1.822-1.155-3.869-2.244-6.111-3.235    C41.369,40.7,41.382,40.613,41.363,40.524z M42.279,61.902c-2.546-0.296-5.433-0.629-8.379-0.516    c-6.824,0.268-11.876-1.173-14.616-4.174c-1.748-1.914-2.477-4.417-2.107-7.239c0.473-3.605,2.228-6.422,5.077-8.145    c3.821-2.31,9.416-2.469,14.972-0.424c8.439,3.108,14.795,7.701,16.7,12.04c-1.685,1.36-3.257,2.977-4.692,4.865    c-0.222-0.028-0.451-0.006-0.661,0.113c-0.533,0.301-1.022-0.114-1.12-0.205c-0.414-0.406-1.082-0.404-1.494,0.008    c-0.416,0.415-0.416,1.088-0.001,1.503c0.324,0.325,0.948,0.722,1.704,0.864c-0.329,0.552-0.605,1.126-0.824,1.718    C45.438,62.263,43.903,62.091,42.279,61.902z M82.015,62.21c-0.962,4.33-4.149,6.256-11.003,6.646    c-3.317,0.19-5.295,1.537-7.208,2.84c-1.858,1.265-3.613,2.46-6.67,2.46c-0.173,0-0.351-0.004-0.577-0.012    c-1.606,0-3.169-0.47-4.52-1.356c-1.841-1.209-3.102-3.063-3.549-5.221c-0.446-2.157-0.026-4.359,1.183-6.201    c4.686-7.136,11.116-10.908,18.597-10.908c1.825,0,3.746,0.221,5.709,0.657C78.348,52.087,83.03,57.642,82.015,62.21z"></path><path d="M76.102,53.556c-0.49-0.325-1.149-0.187-1.472,0.304c-0.323,0.49-0.187,1.149,0.304,1.472    c1.463,0.963,2.712,2.472,3.341,4.037c0.167,0.415,0.565,0.667,0.986,0.667c0.132,0,0.267-0.025,0.396-0.077    c0.545-0.219,0.809-0.838,0.59-1.383C79.451,56.594,77.939,54.764,76.102,53.556z"></path><path d="M27.569,44.994c-0.564,0.162-0.892,0.75-0.73,1.314c0.137,0.477-0.203,0.772-0.315,0.854    c-0.477,0.328-0.604,0.98-0.281,1.464c0.205,0.308,0.542,0.475,0.886,0.475c0.202,0,0.407-0.059,0.588-0.179    c0.65-0.433,1.627-1.593,1.168-3.198C28.722,45.159,28.129,44.838,27.569,44.994z"></path><path d="M34.665,53.962c-0.587,0-1.063,0.477-1.063,1.063c0,0.135-0.379,0.362-0.673,0.442c-0.565,0.146-0.908,0.72-0.767,1.287    c0.121,0.483,0.555,0.806,1.03,0.806c0.086,0,0.173-0.011,0.259-0.032c0.846-0.212,2.277-0.977,2.277-2.503    C35.729,54.438,35.252,53.962,34.665,53.962z"></path><path d="M44.272,48.298c-0.515-0.278-1.161-0.088-1.44,0.431c-0.187,0.344-0.708,0.186-0.816,0.149    c-0.549-0.201-1.154,0.079-1.358,0.626c-0.206,0.55,0.072,1.163,0.622,1.368c0.285,0.107,0.687,0.195,1.126,0.195    c0.809,0,1.742-0.299,2.298-1.329C44.981,49.222,44.789,48.577,44.272,48.298z"></path><path d="M52.271,40.049c0.354,0,0.71-0.088,1.053-0.294c0.503-0.303,0.688-0.963,0.385-1.466c-0.302-0.504-0.933-0.676-1.438-0.37    c-0.001,0-0.003,0-0.005,0c-0.159,0-0.574-0.268-0.829-0.536c-0.399-0.429-1.07-0.449-1.499-0.053    c-0.43,0.399-0.455,1.072-0.056,1.503C50.475,39.47,51.363,40.049,52.271,40.049z"></path><path d="M59.406,37.969c0.326,0.152,0.838,0.298,1.398,0.298c0.704,0,1.485-0.229,2.08-0.955c0.371-0.454,0.304-1.124-0.15-1.496    c-0.455-0.372-1.125-0.304-1.496,0.15c-0.286,0.348-0.901,0.09-0.941,0.072c-0.53-0.24-1.156-0.012-1.403,0.518    C58.645,37.087,58.874,37.72,59.406,37.969z"></path><path d="M56.02,62.009c-0.535,0.306-1.023-0.113-1.121-0.204c-0.416-0.407-1.082-0.403-1.494,0.01    c-0.415,0.415-0.415,1.088,0.001,1.503c0.398,0.398,1.237,0.928,2.236,0.928c0.453,0,0.939-0.109,1.433-0.391    c0.51-0.291,0.687-0.94,0.396-1.45C57.179,61.896,56.531,61.715,56.02,62.009z"></path><path d="M69.049,61.868c-0.26,0-0.396-0.202-0.408-0.602c-0.005-0.582-0.479-1.052-1.062-1.053c-0.001,0-0.001,0-0.001,0    c-0.587,0-1.062,0.476-1.062,1.062c-0.001,0.107,0.013,0.67,0.274,1.26c0.412,0.927,1.235,1.459,2.259,1.459    c0.587,0,1.063-0.477,1.063-1.063S69.636,61.868,69.049,61.868z"></path><path d="M26.059,56.923c-0.032-0.006-3.282-0.648-4.663-2.948c-0.312-0.523-0.565-1.051-0.753-1.565    c-0.199-0.553-0.812-0.841-1.361-0.637c-0.552,0.2-0.837,0.81-0.637,1.361c0.232,0.643,0.544,1.292,0.928,1.933    c1.88,3.133,5.925,3.915,6.097,3.946c0.065,0.013,0.13,0.019,0.194,0.019c0.501,0,0.946-0.356,1.042-0.867    C27.014,57.588,26.635,57.033,26.059,56.923z"></path><path d="M19.242,50.963c0.582-0.001,1.057-0.469,1.062-1.052c0.001-0.057,0-0.111-0.004-0.163    c-0.066-1.023-0.875-1.088-1.044-1.09c-0.031,0-1.005,0.012-1.074,1.063l-0.002,0.049c-0.001,0.015-0.001,0.03-0.001,0.045v0.072    c-0.007,0.587,0.464,1.068,1.051,1.074C19.234,50.962,19.238,50.963,19.242,50.963z"></path></g></g></svg>