<svg height='100px' width='100px'  fill="#000000" xmlns="http://www.w3.org/2000/svg" xmlns:xlink="http://www.w3.org/1999/xlink" version="1.1" x="0px" y="0px" viewBox="0 0 512 512" enable-background="new 0 0 512 512" xml:space="preserve"><g><g><g><g><rect x="98.8" y="7.8" width="16.5" height="496.3"></rect></g></g><g><g><polygon points="107.1,309.1 2,203.9 13.7,192.2 107.1,285.7 200.5,192.2 212.2,203.9     "></polygon></g></g><g><g><polygon points="107.1,218.1 2,113 13.7,101.3 107.1,194.7 200.5,101.3 212.2,113     "></polygon></g></g><g><g><polygon points="107.1,127.1 2,22 13.7,10.3 107.1,103.7 200.5,10.3 212.2,22     "></polygon></g></g></g><g><g><g><rect x="396.6" y="74" width="16.5" height="430.1"></rect></g></g><g><g><polygon points="404.9,375.2 299.8,270.1 311.5,258.4 404.9,351.8 498.3,258.4 510,270.1     "></polygon></g></g><g><g><polygon points="404.9,284.2 299.8,179.1 311.5,167.4 404.9,260.8 498.3,167.4 510,179.1     "></polygon></g></g><g><g><polygon points="404.9,193.3 299.8,88.1 311.5,76.4 404.9,169.9 498.3,76.4 510,88.1     "></polygon></g></g></g></g></svg>