<svg height='100px' width='100px'  fill="#000000" xmlns:x="http://ns.adobe.com/Extensibility/1.0/" xmlns:i="http://ns.adobe.com/AdobeIllustrator/10.0/" xmlns:graph="http://ns.adobe.com/Graphs/1.0/" xmlns="http://www.w3.org/2000/svg" xmlns:xlink="http://www.w3.org/1999/xlink" version="1.1" x="0px" y="0px" viewBox="-247 370.9 100 100" style="enable-background:new -247 370.9 100 100;" xml:space="preserve"><g><g i:extraneous="self"><path d="M-152.7,392.3c-3.2-3.2-7.1-4.7-11-4.2c-1,0.1-1.9-0.3-3.5-1.2c-1.3-0.7-2.7-1.4-4.5-2c-4-1.1-9.9-1.1-14.7-1.1l-1.7,0    c-2.1,0-4.1,0.4-6.1,0.7c-1.2,0.2-2.3,0.4-3.3,0.5c-0.1,0-0.2,0-0.4,0c-6.3,0-13.8,4-14.7,23.1c-1.5,0.7-2.8,1.6-4.1,2.9    c-0.6-0.1-1.1-0.3-1.7-0.3c-0.1,0-0.5-0.1-1.1-0.1c-3.1-0.4-5.1-0.7-6.4-0.8c-0.7-0.1-1.3-0.2-2-0.2c-0.2,0-0.3,0-0.4,0h0    c-3.4,0.1-14.8,2.1-17.4,24.8c-2.7,23.4,5.9,28.2,11.4,28.9c0.6,0.1,2.3,0.4,9.8,1.2l1,0.1c0.5,0.1,1,0.1,1.5,0.1    c2.8,0,5.5-0.9,7.8-2.8c0.3-0.3,0.7-0.6,1-0.9c1.4,0.3,3.6,0.7,7,1.4l1,0.2c0.9,0.2,1.7,0.3,2.5,0.3c2.4,0,4.8-0.7,7-2.2    c5.3-3.5,9-10.7,11.2-21.6c15.8,0,23.4-0.4,29.3-12.2c3.4-2.5,7.4-8.7,8.2-14.6C-146,404.6-148.1,397-152.7,392.3z M-198.8,389.1    L-198.8,389.1c0.4,0,0.8,0,1.2,0c8.5,0.4,10.3,12.5,10.3,22.7c0,1.1,0,2.2-0.1,3.3c-2.3-3.2-5.3-5-8.5-5.7c-0.1,0-0.5-0.1-1.1-0.2    c-6.6-1.4-8.1-1.7-8.7-1.8c-1-0.2-2-0.3-3-0.2C-208.1,398.8-205.9,389.8-198.8,389.1z M-206.3,411.4c8.7,1.8,8.1,14.3,6.1,24.5    c-2,10.1-5.2,16.7-9.1,19.4c2.1-4.1,3.5-9.4,4.3-16c1.7-14.8-2.3-22.9-7.8-26.5C-210.8,411.4-208.7,410.9-206.3,411.4z     M-242,434.9c2.3-19.5,10.9-21.2,13.6-21.3c0.2,0,0.9,0.1,1.7,0.2c1.3,0.3,2.5,1,3.6,2.2c2,2.2,5.1,7.9,3.5,21.5    c-1.4,12.4-5.1,17.7-8,20c-1.9,1.5-4.1,2.1-6.3,1.9C-240.8,458.5-243.7,449.8-242,434.9z M-223.3,460.6l-1.1-0.1    c-0.2,0-0.4,0-0.6-0.1c4.8-4,8.1-11.7,9.3-22.5c1.5-12.5-0.8-19.4-3.3-23.2c0,0,0,0,0,0c7.9,1,11.6,10,10,24.1    c-1.1,9.5-3.5,14.8-5.9,17.7c0,0-0.1,0-0.1,0l-0.1,0.3c-0.6,0.8-1.3,1.4-1.9,1.9C-218.8,460.3-221,460.9-223.3,460.6z     M-188.6,438.3c-2.4,12.2-6.5,17.1-9.5,19.1c-2,1.3-4.2,1.8-6.5,1.3l-1.1-0.2c-0.3-0.1-0.6-0.1-0.9-0.2c4-3,7.9-9.3,10.3-21.7    c2.4-11.9,1.3-19.1-1.2-23.4c0.4,0.1,0.6,0.1,0.7,0.2C-188.9,415-185.8,424.3-188.6,438.3z M-151.2,411.9    c-0.7,4.8-4.2,10.4-6.9,12.1l-0.5,0.3l-0.2,0.5c-2.8,5.7-5.6,8.3-10.8,9.4c1.8-3,2.8-6.9,3.6-10.7l-3.9-0.8    c-2,10-4.5,12.2-7.8,12.3c-1.9,0.1-4,0.1-6.3,0.1c0.6-4.9,0.5-9-0.2-12.5l0.2,0c0.5-3.2,0.8-6.8,0.8-10.9c0-13.5-3-20.4-6.8-23.8    c0.6-0.1,1.2-0.1,1.8-0.1l1.8,0c1.1,0,2.3,0,3.5,0l0,0.2c4.3,0.4,7,3.6,8.3,9.9l3.9-0.8c-0.8-4-2.1-6.8-3.7-8.7    c0.6,0.1,1.1,0.2,1.6,0.4c1.4,0.4,2.6,1,3.7,1.6c1.8,1,3.6,1.9,5.9,1.6c2.7-0.3,5.4,0.7,7.7,3C-151.8,399-150.2,405.2-151.2,411.9    z"></path><path d="M-174.2,401.4c0.3,2,0.4,4.2,0.6,6.5l4-0.2c-0.1-2.4-0.3-4.7-0.6-6.8L-174.2,401.4z"></path><path d="M-161.4,405.3c0.2,2,0.4,4.2,0.5,6.5l4-0.2c-0.1-2.4-0.3-4.7-0.5-6.8L-161.4,405.3z"></path><path d="M-162.3,393.3l-3.1,2.6c1.2,1.4,2.2,3.3,2.9,5.7l3.8-1.2C-159.5,397.6-160.7,395.2-162.3,393.3z"></path><path d="M-199.3,451l3.2,2.5c1.9-2.4,3.1-4.8,3.7-7.1l-3.9-1C-196.8,447.1-197.8,449-199.3,451z"></path><path d="M-212.1,447.3l-3.9-0.7c-0.3,1.8-1.2,3.8-2.6,5.9l3.3,2.2C-213.6,452.1-212.6,449.6-212.1,447.3z"></path></g></g></svg>