<svg xmlns="http://www.w3.org/2000/svg" width="1600" height="1600" viewBox="0 0 1200 1200"><path d="M1131 541.49H995.93c7.356-9.383 15.18-19.055 22.895-28.586l1.98-2.45c26.388.864 48.396-20.27 49.368-46.726a46.609 46.609 0 0 0-2.04-15.47c3.782-5.784 6.84-10.944 9.383-15.851 22.13-42.828 68.184-131.93 16.633-195.17-13.199-16.2-29.879-25.355-49.598-27.203-46.188-4.367-97.727 33.3-137.27 66.602-17.629 14.844-39.12 35.293-59.172 55.812-46.44-62.762-101.44-91.68-146.23-75.805-.637.226-1.222.59-1.847.828-3.625-2.45-7.32-4.61-11.113-6.469 7.609-53.496 72.574-102.72 73.262-103.25l11.94-8.941-44.362-60.098-12.11 9.191c-75.144 57.023-88.608 132.13-90.96 160.41-6.36 2.531-12.504 6.024-18.47 10.2-1.703-.743-3.394-1.49-5.136-2.102-46.43-16.32-104.44 16.402-151.4 83.832-5.856-7.403-10.945-13.598-14.953-18.191-38.102-43.535-81-36.254-98.387-26.328l-4.824 4.117-6.985-18.47c31.738-12.601 50.387-46.968 42.36-81.202-8.845-37.645-46.646-61.078-84.302-52.246-5.93 1.39-11.617 3.59-17.004 6.539-22.633-21.48-54.926-30.562-85.777-23.316-24.312 5.71-44.965 20.543-58.117 41.773-12.695 20.484-16.969 44.543-12.133 68.05-27.37 19.755-40.715 54.302-32.82 87.91 9.145 38.978 44.016 65.34 82.441 65.34a84.33 84.33 0 0 0 19.355-2.257c14.914-3.504 28.621-11.039 39.562-21.637l20.184 8.977-7 6.007-1.367 2.891c-6.648 14.016-8.113 28.391-6.121 42.625-54.312 6.95-96.457 53.363-96.457 109.52 0 .371.035.742.047 1.117h-64.38v217.54h46.813v361.98h972.38v-361.97h46.8zm-80.41-122.3c-2.617 5.05-6.434 11.195-11.676 18.793l-5.16 7.477 4.223 8.027c1.585 3.012 2.328 6.121 2.23 9.191-.36 9.961-8.594 17.81-18.527 17.81-.238 0-.469 0-.695-.012-1.176-.036-2.293-.254-3.395-.493l-9.07-2.015-12.996 16.055c-12.984 16.02-26.22 32.438-37.262 47.473h-48.086c41.184-51.098 97.21-122.71 121.11-162.94 28.199-47.496 41.449-70.2 52.945-96.06 12.824 46.513-17.426 105.3-33.637 136.69zM926.62 299.58c14.941-12.574 47.746-40.199 79.906-53.039-57.516 41.914-100.15 112.79-102.47 116.7l25.801 15.312c.66-1.117 65.16-108.2 134.77-128.86.18.156.324.36.504.516-12.898 33.266-22.836 51-59.676 113.02-26.062 43.895-93.191 128.26-133.89 178.25l-149.81.004c12.168-16.633 26.723-35.543 40.957-54.035 10.906-14.184 21.504-27.938 30.422-39.898l5.027-6.743-3.133-7.8c-1.007-2.508-1.464-5.063-1.367-7.622.18-4.945 2.27-9.503 5.88-12.875 3.491-3.253 7.812-4.777 12.347-4.968l8.762.601 4.894-6.098c23.758-29.559 69.105-75.53 101.07-102.46zm-99.48 54.973c-7.559 8.23-14.578 16.164-20.555 23.328-10.234 1.152-19.789 5.52-27.469 12.672-1.402 1.297-2.531 2.809-3.758 4.246-9.758-46.8-26.855-85.633-48.707-112.38 30.29-.441 67.582 26.055 100.49 72.133zM724 121.413l8.676 11.746c-21.06 18.227-63.875 60.648-72.77 109.97-.817-.047-1.633-.168-2.461-.203 3.422-25.81 16.516-77.805 66.555-121.51zm-69.238 151.3c47.723 0 90.324 77.809 98.281 178.08-4.57 5.965-9.29 12.098-14.113 18.359-19.609 25.477-39.887 51.816-54.035 72.336l-85.129.004a14327.445 14327.445 0 0 0-44.594-62.051c1.477-112.53 46.523-206.73 99.59-206.73zm-72.074 9.863c-28.766 35.398-49.117 91.812-55.453 158.41-19.645-26.902-39.445-53.688-56.23-75.758 35.641-54.473 78.457-85.902 111.68-82.652zm-174.95 52.633-90.539 77.496 19.512 22.79 90.672-77.606a1272 1272 0 0 1 7.402 9.434l-49.176 42.07 19.5 22.789 47.93-41.004c2.746 3.637 5.52 7.332 8.399 11.172l-63.18 54.07 19.512 22.789 61.609-52.738c3.898 5.27 7.824 10.62 11.797 16.02l-34.512 29.543 19.512 22.789 32.762-28.043c19.5 26.773 38.543 53.219 53.94 74.699h-215.8c-9.55-6.84-22.308-17.027-35.386-29.316l27.359-23.426-19.512-22.79-28.812 24.673c-10.777-12.215-20.438-25.32-27-38.496l50.34-43.078-19.512-22.79L255.12 420c-.012-5.555.695-11.004 2.722-16.2l96.348-82.476c4.903-2.254 27.711-10.484 53.547 13.887zm-196.12-1.465-7.2 9.301c-7.753 10.02-18.37 16.848-30.706 19.738-14.22 3.324-28.895.95-41.305-6.758-12.422-7.69-21.098-19.766-24.434-33.984-5.7-24.3 5.785-49.344 27.949-60.91l11.426-5.964-4.176-12.191a66.19 66.19 0 0 1-1.8-6.266c-3.876-16.512-1.095-33.55 7.847-47.988 8.941-14.426 22.957-24.504 39.48-28.379 24.07-5.676 49.523 3.383 64.738 23.04l9.59 12.37 11.953-10.094c5.062-4.273 10.62-7.152 16.5-8.531 21.504-5.063 43.176 8.351 48.238 29.902 5.05 21.539-8.352 43.188-29.914 48.254-1.02.238-2.051.289-3.07.394l-21.087 2.293 23.652 62.555-43.656 37.223zm-52.262 206.63c0-42.613 33.289-77.496 75.215-80.258 14.473 32.125 42.492 61.453 64.883 81.371l-140 .004c-.012-.37-.098-.73-.098-1.117zm894.85 492.39h-223.2v30h223.2v28.246h-266.45V989.5h-30v101.51h-173.87v-72.227h-30v72.227h-412.08v-28.246h354.25v-30h-354.25v-273.73h159.79v49.488h30v-49.488h548.89v64.055h30v-64.055h143.71zm46.801-303.73h-1006v-157.54h1006z"/><path d="M165.49 841.22h499.09v30H165.49zM689.54 841.22h106.09v30H689.54zM831 841.22h199.5v30H831zM197.46 933.91h238.27v30H197.46zM473.18 963.91h80.699v35.988h30V963.91h97.332v-30h-208.03zM716.58 933.91h281.96v30H716.58zM906.21 410.26l-70.188 94.34-24.07-17.906 70.188-94.34zM583 612h30v81.996h-30zM703 612h30v81.996h-30zM823 612h30v81.996h-30zM943 612h30v81.996h-30zM463 612h30v81.996h-30zM343 612h30v81.996h-30zM223 612h30v81.996h-30z"/></svg>