<svg height="100" width="100" xmlns="http://www.w3.org/2000/svg" viewBox="0 0 67.19 88"><g data-name="Layer 2"><path d="M33.59 88a33.58 33.58 0 01-1-67.14h.86l.1-.85A22.72 22.72 0 0156.06 0H58v1.92a22.8 22.8 0 01-11.51 19.72l-1.76 1 1.86.79a33.59 33.59 0 01-13 64.57zM32.3 24.7a29.75 29.75 0 106 .35l-1.16-.19v8.56l1.37-.53a8.91 8.91 0 002.31-1.33l2.72 2.72a12.82 12.82 0 01-16.62 0l2.72-2.72A9 9 0 0032 32.89l1.37.54v-8.78zM52.68 4.13a19 19 0 00-15.21 15.21l-.26 1.42 1.42-.26A19 19 0 0053.85 5.29l.26-1.42z" data-name="Layer 1"/></g></svg>