<svg height="100" width="100" xmlns="http://www.w3.org/2000/svg" viewBox="0 0 48 48"><path d="M30.244 22.895c-.378 0-.759.02-1.21.068-.386.044-.776.054-1.167.065A19.334 19.334 0 0132.269 8.36a.5.5 0 10-.766-.644 20.34 20.34 0 00-4.656 15.307c-.354-.014-.71-.02-1.062-.06a10.52 10.52 0 00-11.66 9.27c-.66 5.771 3.498 11.002 9.335 11.668a.11.11 0 01.098.113 7.537 7.537 0 01-.039.475 1.107 1.107 0 001.103 1.242c.081 0 .165-.01.247-.027a3.311 3.311 0 012.089.201c.145.062.296.095.452.095s.309-.031.45-.096a3.315 3.315 0 012.09-.201 1.122 1.122 0 001.33-.83c.029-.129.037-.258.021-.383a6.29 6.29 0 01-.039-.475.108.108 0 01.099-.115c5.772-.623 9.965-5.828 9.342-11.602a10.508 10.508 0 00-10.459-9.403zm1.01 20.011a1.11 1.11 0 00-.99 1.154c.01.182.023.363.043.584-.012.055-.071.078-.131.082a4.328 4.328 0 00-2.721.262.088.088 0 01-.044.012l-.045-.012a4.294 4.294 0 00-1.751-.371c-.325 0-.651.037-1.007.111-.052-.006-.103-.07-.096-.123.021-.182.036-.361.046-.545.025-.586-.408-1.094-1.051-1.162-5.224-.598-8.985-5.332-8.39-10.555.593-5.178 5.267-8.996 10.556-8.388 1.147.131 2.265.138 3.535-.007 5.303-.57 9.938 3.263 10.5 8.456.565 5.227-3.228 9.938-8.454 10.502z"/><path d="M22.631 25.123a8.505 8.505 0 00-6.309 6.195.5.5 0 00.968.248 7.506 7.506 0 015.567-5.471.5.5 0 00.372-.604.492.492 0 00-.598-.368zM20.548 15.851c.001 0 .001 0 0 0a11.57 11.57 0 003.382-.507 3.734 3.734 0 002.535-4.393A11.493 11.493 0 0015.216 2h-.127a69.83 69.83 0 00-7.141.445.805.805 0 00-.707.891c.007.05.042.185.063.23a69.356 69.356 0 003.185 6.403 11.555 11.555 0 0010.059 5.882zM15.098 3h.117c4.938 0 9.164 3.362 10.273 8.177a2.728 2.728 0 01-1.854 3.211 10.53 10.53 0 01-3.088.464h-.001a10.56 10.56 0 01-9.188-5.371 70.712 70.712 0 01-3.04-6.069A68.302 68.302 0 0115.098 3z"/></svg>