<svg height="100" width="100" xmlns="http://www.w3.org/2000/svg"><path d="M75.2 17.4l-.1-1.3-1.3-.4c-3.2-1.1-6.7-1.1-10.2-.2-.4-3.5-1.8-6.8-4-9.4l-.9-1-1.3.4c-5.4 1.9-9.8 6.9-11.4 13-1.5 5.8-.4 11.8 2.9 16.1.2.2.4.4.7.6.3.4.8.8 1.4 1 1.6.5 3.2.7 4.8.7 4 0 8.1-1.4 11.6-4 5.1-3.8 8.1-9.8 7.8-15.5zm-25.2 2c1.1-4.3 4-7.9 7.6-9.7 1.4 2 2.2 4.5 2.3 7.1-1 .5-2 1.1-3 1.8-3.2 2.4-5.6 5.6-6.8 9.2-.8-2.5-.9-5.5-.1-8.4zm15.1 10.3c-3.6 2.7-8 3.8-11.9 2.9.3-4 2.5-7.9 6.1-10.6s8-3.7 11.9-2.9c-.3 3.9-2.5 7.9-6.1 10.6zM79.8 60c0-4.5-2.8-8.3-6.7-9.8.2-.8.3-1.5.3-2.3 0-5.8-4.8-10.6-10.6-10.6-2.4 0-4.6.8-6.4 2.2-1.8-1.4-4-2.2-6.4-2.2s-4.6.8-6.4 2.2c-1.8-1.4-4-2.2-6.4-2.2-5.8 0-10.6 4.8-10.6 10.6 0 .8.1 1.6.3 2.3-3.9 1.6-6.7 5.4-6.7 9.8 0 4.5 2.8 8.3 6.7 9.8-.2.8-.3 1.5-.3 2.3 0 4.5 2.8 8.3 6.7 9.8-.2.8-.3 1.5-.3 2.3 0 6 4.8 10.8 10.6 10.8 2.4 0 4.6-.8 6.4-2.2 1.8 1.4 4 2.2 6.4 2.2C62.2 95 67 90.2 67 84.4c0-.8-.1-1.6-.3-2.3 3.9-1.6 6.7-5.4 6.7-9.8 0-.8-.1-1.6-.3-2.3 3.9-1.7 6.7-5.5 6.7-10zm-17-18.7c3.6 0 6.6 3 6.6 6.6 0 .5-.1 1.1-.2 1.6-2.4 0-4.6.8-6.4 2.2-.8-.6-1.6-1.1-2.5-1.4.2-.8.3-1.5.3-2.3 0-2-.6-3.9-1.5-5.4 1-.9 2.3-1.3 3.7-1.3zm-6.2 30.9c0 3.6-3 6.6-6.6 6.6s-6.6-3-6.6-6.6c0-.5.1-1.1.2-1.6 2.4 0 4.6-.8 6.4-2.2 1.8 1.4 4 2.2 6.4 2.2.1.6.2 1.1.2 1.6zM37 60c0-3.6 3-6.6 6.6-6.6s6.6 3 6.6 6.6-3 6.6-6.6 6.6S37 63.7 37 60zm19.4 6.7c-1.4 0-2.7-.4-3.7-1.2 1-1.6 1.5-3.5 1.5-5.4 0-2-.6-3.9-1.5-5.4 1.1-.7 2.3-1.2 3.7-1.2 3.6 0 6.6 3 6.6 6.6 0 3.6-3 6.6-6.6 6.6zM50 41.3c3.6 0 6.6 3 6.6 6.6 0 .5-.1 1.1-.2 1.6-2.4 0-4.6.8-6.4 2.2-1.8-1.4-4-2.2-6.4-2.2-.1-.5-.2-1-.2-1.6 0-3.7 3-6.6 6.6-6.6zm-19.4 6.6c0-3.6 3-6.6 6.6-6.6 1.4 0 2.7.4 3.7 1.2-1 1.6-1.5 3.5-1.5 5.4 0 .8.1 1.6.3 2.3-.9.4-1.7.8-2.5 1.4-1.8-1.4-4-2.2-6.4-2.2-.1-.5-.2-1-.2-1.5zM24.2 60c0-3.6 3-6.6 6.6-6.6 1.4 0 2.7.4 3.7 1.2-1 1.6-1.5 3.5-1.5 5.4 0 2 .6 3.9 1.5 5.4-1.1.7-2.3 1.2-3.7 1.2-3.6.1-6.6-2.9-6.6-6.6zm6.4 12.2c0-.5.1-1.1.2-1.6 2.4 0 4.6-.8 6.4-2.2.8.6 1.6 1.1 2.5 1.4-.2.8-.3 1.5-.3 2.3 0 2 .6 3.9 1.5 5.4-1.1.7-2.3 1.2-3.7 1.2-3.6.1-6.6-2.8-6.6-6.5zm13 18.8C40 91 37 88 37 84.4c0-.5.1-1.1.2-1.6 2.4 0 4.6-.8 6.4-2.2 1.8 1.4 4 2.2 6.4 2.2.1.5.2 1 .2 1.6 0 3.7-3 6.6-6.6 6.6zM63 84.4c0 3.6-3 6.6-6.6 6.6-1.4 0-2.7-.4-3.7-1.2 1-1.6 1.5-3.5 1.5-5.4 0-.8-.1-1.6-.3-2.3.9-.4 1.7-.8 2.5-1.4 1.8 1.4 4 2.2 6.4 2.2.1.4.2 1 .2 1.5zm6.4-12.2c0 3.6-3 6.6-6.6 6.6-1.4 0-2.7-.4-3.7-1.2 1-1.6 1.5-3.5 1.5-5.4 0-.8-.1-1.6-.3-2.3.9-.4 1.7-.8 2.5-1.4 1.8 1.4 4 2.2 6.4 2.2.1.5.2 1 .2 1.5zm-.2-5.5c-1.4 0-2.7-.4-3.7-1.2 1-1.6 1.5-3.5 1.5-5.4 0-2-.6-3.9-1.5-5.4 1.1-.7 2.3-1.2 3.7-1.2 3.6 0 6.6 3 6.6 6.6 0 3.6-3 6.6-6.6 6.6z"/></svg>