<svg height="100" width="100" xmlns="http://www.w3.org/2000/svg" viewBox="-247 370.9 100 100"><path d="M-149.7 405.8c-2.2 0-4.1-.3-6-.5-.8-.1-1.7-.2-2.5-.3.9-7.7.2-14.5-2.2-20.5l-1.2-2.9-2.2 2.3c-1 1-1.8 2-2.6 2.9-2.8 3.1-4.9 5.4-8.7 8.3-1.7-1.1-4.6-3.4-7.3-6l-2.2-2.2-1.1 2.9c-.2.4-.3.8-.5 1.3-.6 1.6-1.2 3.3-1.6 5.2-2.5-.9-5.2-1.5-8.1-1.5-1.6 0-3.1.2-4.6.4-1-3.1-1.5-4.6-1.5-4.6l-.6-1.8-8.7 2.2-16.2-15.1-1.2 2.4c-.3.6-6.6 13.9-4.4 26-2.5.9-6.5 2.3-10.3 2.2h-2.9l1 2.7c2.2 5.8 6.3 12.4 10.5 16.8-2.5 3.6-4 8.2-4 13.2 0 12.8 9 21.3 22.4 21.3 7 0 13-2.4 17.1-6.8 4 5.6 10.9 8.9 19.4 8.9 14 0 23.5-9 23.5-22.3 0-5.9-1.8-11.1-5-15.1 6.5-3.4 11.2-9.3 13.5-17l.7-2.5-2.5.1zm-29 10.1v1.1h-.9c-7.8 0-14.3 3.2-18.5 8.5-3.7-5-9.4-8-16-8.5l1.3-.1v-1c0-10 7-17.1 17.1-17.1s17 7 17 17.1zm-52.7-7.9c.6-.2 1-.4 1.4-.5l1.8-.6-.5-1.9c-2.2-8.3.9-18 2.6-22.5l13.7 12.8 7.2-1.8c.2.7.5 1.6.9 2.8-7.7 3.1-12.7 10.3-12.7 19.5v1c-6.1.2-11.3 2.4-15.2 6.1-3.1-3.4-6.2-8.1-8.3-12.6 3.7-.4 7-1.5 9.1-2.3zm15.2 48.6c-11 0-18.4-7-18.4-17.3 0-10.8 7.6-18.4 18.4-18.4 6.7 0 12.4 3 15.6 8.2-1.7 3.3-2.6 7.1-2.6 11.3 0 3.6.7 6.8 2 9.7-3.3 4.2-8.6 6.5-15 6.5zm36.5 2.1c-11.7 0-19.5-7.4-19.5-18.3 0-11.5 8-19.5 19.5-19.5s19.5 8 19.5 19.5c0 11-7.9 18.3-19.5 18.3zm15.5-36.4c-2.9-2.5-6.5-4.2-10.6-5 0-.5.1-1 .1-1.5 0-7.7-3.5-14.1-9.2-17.7.2-1.4.6-2.8 1.1-4.1 2.8 2.5 5.6 4.5 7 5.2l1.1.6 1-.7c4.9-3.5 7.4-6.2 10.5-9.6l.3-.3c1.5 5.1 1.6 10.8.6 17.5l-.4 2.3h2.3c1.3 0 2.6.2 4.2.4 1.1.1 2.4.3 3.7.4-2.8 7-7.7 10.7-11.7 12.5z"/><path d="M-179.7 423.8v4c7.9 0 13.4 5.5 13.4 13.4h4c0-10-7.3-17.4-17.4-17.4zM-175.5 437.6c-3.1 0-5.5 2.4-5.5 5.5s2.3 5.3 5.5 5.3 5.5-2.2 5.5-5.3c0-3.2-2.4-5.5-5.5-5.5zm0 6.8c-1 0-1.5-.4-1.5-1.3s.6-1.5 1.5-1.5 1.5.6 1.5 1.5c0 .8-.5 1.3-1.5 1.3zM-225.9 433.4c-3.1 0-5.5 2.4-5.5 5.5s2.3 5.3 5.5 5.3 5.5-2.2 5.5-5.3c0-3.2-2.4-5.5-5.5-5.5zm0 6.8c-1 0-1.5-.4-1.5-1.3s.6-1.5 1.5-1.5 1.5.6 1.5 1.5c0 .8-.5 1.3-1.5 1.3zM-200.1 411.9c2.9 0 5.1-2.1 5.1-4.9 0-2.9-2.2-5.1-5.1-5.1s-5.1 2.2-5.1 5.1c0 2.8 2.2 4.9 5.1 4.9zm0-6c.7 0 1.1.4 1.1 1.1 0 .3 0 .9-1.1.9s-1.1-.7-1.1-.9c0-.8.4-1.1 1.1-1.1zM-217.5 423.9v4c4.5 0 8.5 1.7 11.2 4.9l3-2.6c-3.4-4.1-8.5-6.3-14.2-6.3zM-185.7 415h4c0-6.4-3.8-11.7-9.7-13.4l-1.1 3.8c4.1 1.3 6.8 4.9 6.8 9.6z"/></svg>