<svg height='100px' width='100px'  fill="#000000" xmlns="http://www.w3.org/2000/svg" xmlns:xlink="http://www.w3.org/1999/xlink" version="1.2" baseProfile="tiny" x="0px" y="0px" viewBox="0 0 100 100" xml:space="preserve"><path d="M34.5590401,66.493782c-0.1780701,0-0.3573265-0.0390472-0.5265236-0.1206818  c-0.5277061-0.2543869-0.7968864-0.8507233-0.64011-1.4151077c0.7637558-2.7485733-0.0337219-4.6878395-2.5095673-6.104126  c-0.5336227-0.3052673-0.7542896-0.9619446-0.5123253-1.5275116c0.2419643-0.5667534,0.8649178-0.856636,1.4582939-0.6862564  c2.7544861,0.8175926,4.6872444,0.02248,6.0739555-2.4983253c0.2898827-0.5265236,0.9234848-0.7607994,1.4860954-0.5507813  c0.563797,0.2106094,0.8874016,0.802803,0.7602081,1.3914452c-0.6152649,2.8420448,0.1816216,4.8061562,2.5077896,6.1798515  c0.5081863,0.3005295,0.7258949,0.9228935,0.5158768,1.4754486c-0.2106094,0.5513687-0.7886047,0.8672867-1.3665962,0.7572479  c-2.6142807-0.5170593-4.6014633,0.3111801-6.2668152,2.6006737C35.3050461,66.3174896,34.9364815,66.493782,34.5590401,66.493782z   M34.9447632,59.2798157c0.5880508,0.8578224,0.9518852,1.8138466,1.0879517,2.8562431  c0.8696518-0.588047,1.8102951-0.9785042,2.8195648-1.1713676c-0.6063919-0.8436203-1.0057182-1.7925453-1.1944389-2.8361282  C36.8443909,58.728447,35.9368744,59.1129837,34.9447632,59.2798157z"></path><path d="M61.4673653,43.8378792c-0.0343132,0-0.0674438-0.0011826-0.101757-0.0041428  c-0.612896-0.0508766-1.0897255-0.5531425-1.1098404-1.1678162c-0.0946579-2.8757668-1.4565201-4.4577026-4.2843666-4.9783134  c-0.5915985-0.1088524-1.0139999-0.635376-0.9915199-1.2364426c0.02248-0.6016579,0.4827461-1.0950508,1.0802612-1.1595345  c2.8917389-0.3117752,4.5044403-1.6872444,5.0759239-4.3275528c0.1254196-0.5774021,0.6708755-0.9678574,1.2376289-0.9542503  c0.590416,0.0260296,1.0755272,0.47328,1.1488876,1.0589638c0.3324776,2.6379433,1.7440338,4.2672081,4.4417267,5.1273956  c0.5584717,0.1780701,0.908699,0.7294426,0.8329773,1.3109856c-0.0757294,0.5809479-0.5561066,1.0240593-1.1406097,1.0530472  c-2.849144,0.1413918-4.438179,1.5097618-5.0025635,4.3056641C62.539341,43.4350014,62.0388489,43.8378792,61.4673653,43.8378792z   M59.8309975,36.6641388c0.8246918,0.5833206,1.476635,1.3240013,1.9475479,2.2131767  c0.6282806-0.8288307,1.4210243-1.4754486,2.3675804-1.9333496c-0.8317871-0.64011-1.4991112-1.4097824-2.0007896-2.3060532  C61.5371742,35.4785728,60.7621765,36.1565475,59.8309975,36.6641388z"></path><path d="M66.6509628,75.2293472c-0.5135117,0-0.9808731-0.3277435-1.1477051-0.8270569  c-0.9039612-2.7036133-2.659832-3.8572311-5.4947777-3.6560898c-0.6318283,0.0473328-1.1630859-0.3762512-1.2802238-0.9796829  c-0.1159515-0.6034317,0.239006-1.1985855,0.8258743-1.384346c2.7438393-0.8649216,3.899826-2.6030426,3.6383362-5.4675674  c-0.0544243-0.5986977,0.338398-1.1477013,0.9240799-1.2885017c0.5892334-0.1384354,1.1843872,0.1703796,1.4080048,0.7288513  c1.0802612,2.7000618,2.8361359,3.8737907,5.5361938,3.7199745c0.5490036-0.0260239,1.1181259,0.3585129,1.2518234,0.933548  c0.1348877,0.5750351-0.1656494,1.1630859-0.7099152,1.3926239c-2.4504089,1.0317535-3.6395264,2.8302155-3.740097,5.6592484  c-0.0201111,0.5856781-0.4567108,1.0731583-1.0364838,1.155983C66.7669144,75.2257996,66.7089386,75.2293472,66.6509628,75.2293472z   M63.6136894,68.8282394c0.966671,0.3821716,1.803196,0.9702225,2.4989128,1.7582321  c0.3928223-0.9737701,0.9536591-1.8244934,1.6825104-2.5486145c-0.9737701-0.3596878-1.835144-0.9228897-2.5758209-1.6813278  C64.879715,67.3078232,64.3425369,68.1348801,63.6136894,68.8282394z"></path><path d="M76.9045715,56.5300598c-2.2622833-3.3531876-5.6959229-5.6243362-9.6667404-6.3957825  c-0.3237534-0.0627098-0.6480255-0.0981331-0.9722977-0.1397667c5.8173523-3.6085358,8.6494827-10.8560791,6.4008102-17.6318932  c-1.2742996-3.8394814-3.9684448-6.9524784-7.5843048-8.7657318c-3.61586-1.8126621-7.722744-2.1090546-11.5616341-0.8353405  c-4.9400063,1.6405067-8.4723015,5.5957222-9.7967453,10.261446c-1.0078621-3.9434547-2.5477982-8.3714314-4.8506737-11.7682495  C33.5610123,13.4172277,21.3344193,9.9380293,20.8167686,9.7936792c-0.3661995-0.1005716-0.7613888-0.0260305-1.0648785,0.2070599  c-0.302309,0.2330904-0.4774227,0.595149-0.4720974,0.9767313c0.0059166,0.4407415,0.1987782,10.8966751,4.7712517,19.0010014  c1.2604771,2.2340298,3.2532806,4.259222,5.496479,6.031805c-0.0231457-0.0017014-0.046587-0.0053253-0.0697346-0.0069542  c-8.849741-0.6294594-19.1104469,6.1638794-19.5429058,6.4537621c-0.3218307,0.2147522-0.5217915,0.5708961-0.5371733,0.9578018  c-0.0159731,0.3869057,0.1544075,0.7578392,0.4578981,0.9986191c0.2657766,0.2107582,6.2407131,4.8973389,13.6672859,6.8172989  c-0.6178513,1.6496773-0.972147,3.4271393-0.972147,5.2897911c0,8.3510246,6.793932,15.1449547,15.1449547,15.1449547  c4.6366615,0,8.7881393-2.099144,11.5684395-5.3915482c0.2112732,2.5508347,1.0614014,5.0197983,2.532341,7.1994781  c2.2628708,3.3531876,5.6965141,5.6237488,9.6673317,6.395195c0.9725914,0.1893082,1.9487305,0.2827835,2.9177704,0.2827835  c2.9887619-0.0011826,5.9088974-0.8874054,8.4409485-2.5959396c3.3531876-2.2622833,5.6237411-5.6959229,6.3951874-9.6667404  S79.1668472,59.8832474,76.9045715,56.5300598z M54.2841606,25.0616856  c1.3168983-0.4377842,2.6716614-0.6548996,4.0205116-0.6548996c1.9534607,0,3.8939095,0.4555302,5.6911888,1.3565369  c3.0372734,1.5227776,5.2995491,4.1376495,6.3703499,7.3624592c2.2102127,6.6578636-1.4080124,13.8724251-8.0646935,16.0826416  c-5.5256882,1.8372841-11.4300003-0.3552589-14.5427017-4.9609337c-0.3615417-0.5363617-0.6848526-1.0991936-0.957653-1.6760025  c-0.2173386-0.4601173-0.4173737-0.9322891-0.5816917-1.4271622C44.0086632,34.4870529,47.626297,27.2719021,54.2841606,25.0616856z   M56.3760567,52.1463051c-0.1648369,0.1024208-0.3352165,0.1919746-0.4969444,0.3011246  c-1.1766167,0.7940025-2.2111053,1.7392311-3.1032372,2.7942009c-0.1328125-1.5771294-0.5023422-3.086525-1.0829964-4.4900208  C53.1601944,51.4630089,54.7413902,51.9349594,56.3760567,52.1463051z M26.1618729,28.7881737  c-3.2153454-5.6988811-4.1163521-12.8951006-4.3654156-16.1311512c3.421814,1.199172,11.3409672,4.454155,15.0710049,9.9572144  c3.5146942,5.1843376,5.1615601,13.2928791,5.8146133,17.4899082c-2.0322189-1.0000992-4.4164429-2.0306664-6.9117355-2.8163834  C32.0095406,35.0874519,28.065937,32.1633224,26.1618729,28.7881737z M24.5669193,48.9954453  c-5.0611362-1.2186928-9.5667591-3.9536591-11.7728348-5.4515915c3.090517-1.8014221,10.3453045-5.5634041,16.5121403-5.1232529  c1.7726555,0.1257896,3.6146011,0.5263748,5.415947,1.0739746c1.2318611,0.7168732,2.4338417,1.3524704,3.5432396,1.9038429  c-0.1899757-0.0070267-0.378624-0.0227776-0.5697098-0.0227776c-0.6160774,0-1.2202492,0.0479202-1.8173218,0.1198006  c-0.2001801,0.0238113-0.3960762,0.0593796-0.5941124,0.0909576c-0.3946724,0.0635948-0.7837944,0.140728-1.16782,0.234272  c-0.2276917,0.0549469-0.4543457,0.1096687-0.6783409,0.1748924c-0.3670158,0.1078186-0.7245636,0.2352333-1.0795212,0.3695297  c-0.3613205,0.1357689-0.7138405,0.285965-1.0624409,0.4486542c-0.3109589,0.1458282-0.6216965,0.2917328-0.9207497,0.4576759  c-0.2661457,0.1472321-0.5214214,0.3099251-0.7779541,0.4731331c-0.2302799,0.146492-0.4561234,0.2977943-0.6777515,0.4561958  c-0.2412987,0.1726723-0.4806747,0.3454933-0.7117691,0.532589c-0.3037128,0.2449951-0.5923386,0.5067024-0.8762321,0.7739601  c-0.1848011,0.1749649-0.3683453,0.3493385-0.5446415,0.534214c-0.343647,0.3575478-0.6686554,0.731884-0.9762135,1.1216736  c-0.0919952,0.1176529-0.1796989,0.2381172-0.2684383,0.3588028c-0.3324795,0.4478416-0.6418133,0.9121742-0.9241543,1.3959541  C24.6025639,48.9450111,24.582449,48.9683075,24.5669193,48.9954453z M37.6957016,69.2423553  c-7.0145988,0-12.7217617-5.7065697-12.7217617-12.7217598c0-2.0268936,0.4887352-3.937542,1.3356113-5.6399422  c0.5038948-1.0148888,1.1336517-1.932312,1.85289-2.7552299c0.1013107-0.1149902,0.2037315-0.2288017,0.3091106-0.3400192  c0.269474-0.286705,0.5540333-0.5557365,0.847023-0.8144875c0.1646862-0.1447182,0.3308525-0.2867775,0.5029335-0.4229202  c0.2978706-0.2365646,0.6049118-0.4601135,0.9221573-0.6682854c0.1914558-0.1255646,0.3891239-0.24189,0.587532-0.3572502  c0.2570496-0.1491585,0.5200157-0.2875175,0.7872715-0.4182625c0.1867981-0.0916252,0.3704872-0.1886444,0.5623169-0.2712479  c0.4359322-0.1869469,0.88274-0.3507462,1.3401184-0.4880714c0.1564064-0.0473251,0.3180618-0.0815659,0.4769058-0.1229019  c0.3670883-0.0948067,0.7389069-0.1756325,1.116642-0.2376022c0.1604729-0.0266228,0.3207207-0.0534668,0.4831161-0.0739517  c0.5259323-0.0656662,1.0574837-0.1115875,1.5981331-0.1115875c0.3992577,0,0.7928925,0.023735,1.1828308,0.0598984  c0.1246796,0.0115356,0.2479553,0.0298767,0.3719673,0.0451088c0.2646675,0.0324631,0.5271149,0.071804,0.7864571,0.1203156  c0.1432419,0.026844,0.285965,0.0554619,0.427948,0.0873375c0.2360497,0.0526505,0.4683266,0.1146202,0.6992722,0.1802139  c0.1473083,0.0420799,0.2956505,0.0805321,0.4413338,0.1280098c0.2148972,0.0695839,0.4238091,0.1518898,0.6336021,0.2324219  c0.3876457,0.1498985,0.7693748,0.3158417,1.1423798,0.5044136c0.0651512,0.0327606,0.13274,0.0613785,0.1973,0.0951729  c0.2492104,0.1314087,0.4927292,0.2759819,0.7343979,0.4245491c0.0635948,0.0389709,0.128376,0.076313,0.1912346,0.1163216  c0.2419624,0.154705,0.4791222,0.3193893,0.7125816,0.4913254c3.1464958,2.3181839,5.2004547,6.037571,5.2004547,10.2366714  C50.4174614,63.5357857,44.7103004,69.2423553,37.6957016,69.2423553z M76.8394928,67.42733  c-0.6483917,3.3354416-2.5557098,6.218895-5.3729095,8.1191101c-2.8160172,1.9002228-6.2035141,2.5912094-9.5413208,1.9440002  c-3.3354416-0.6483917-6.2188988-2.5557098-8.1203003-5.3729095c-1.900219-2.8160172-2.5906143-6.2046967-1.9428139-9.5413208  c0.6478043-3.3354378,2.5557137-6.218895,5.3729095-8.1197052c2.1262093-1.4352226,4.5789833-2.1806374,7.0885506-2.1806374  c0.8152237,0,1.6351776,0.0786819,2.452774,0.2372322c3.335434,0.6478004,6.218895,2.5557098,8.1191101,5.3729095  C76.7968979,60.7020226,77.486702,64.0907059,76.8394928,67.42733z"></path></svg>