<svg height="100" width="100" xmlns="http://www.w3.org/2000/svg"><path d="M50.3 32.6h.3c.2 0 .4 0 .7-.1 1.6-.3 2.7-1.5 2.7-3.1.1-4.2 2.3-9.2 5.6-12.4 1-.9 1.2-2.2.8-3.4-.5-1.3-1.8-2.2-3.2-2.2-.8 0-1.6.3-2.2.9-1.6 1.6-3.1 3.5-4.3 5.6-1.4-2.5-3.3-5-5.4-7.1-5.4-5.3-12.1-8.5-18-8.5H27c-1.8 0-3.2 1.5-3.3 3.3-.1 6 3.1 12.9 8.6 18.4 5.3 5.4 12 8.6 18 8.6zm-3.9-7.3c-3.4-1-6.7-3-9.5-5.9-2.8-2.8-4.8-6-5.9-9.5 0-.1-.1-.2-.1-.3 3.5 1 6.7 3 9.7 5.9 2.8 2.8 4.8 5.9 5.8 9.3.1.2.1.4.2.6 0 0-.1 0-.2-.1z"/><path d="M60 33.2c-3.3-.8-6.8-.7-10.2.4-1.8-.6-3.8-.9-5.8-.9-3.2 0-6.4.8-9.4 2.3-11.2 5.7-14.9 19.5-15 29.8 0 .1.4.2.4.2 0 .1-.4.1-.4.2.1 10.5 4 23.9 15.2 29.8 2.8 1.5 5.9 2.3 9.1 2.3 2 0 3.9 0 5.7-.6 2 .6 3.9 1.3 6 1.3 1.7 0 3.4-.5 5-1 5.5-1.5 10.6-5.8 14.3-11.8 3.4-5.6 5.2-12.6 5.3-20.1-.1-13-6.4-28.6-20.2-31.9zM64.4 83c.5-1 .5-2.1 0-3.1-.6-1-1.7-1.8-2.8-1.9h-.3c-1.1 0-2 .6-2.6 1.7-1.8 3.6-5 8.2-10 10.2-1.5.6-3.1.9-4.7.9-2.2 0-4.4-.6-6.6-1.8-8.4-4.7-11.5-15.5-11.6-24 .1-8.4 3.1-19.2 11.6-24 2-1.2 4.2-1.7 6.4-1.7 1.6 0 3.2.3 4.9.9 4.9 1.8 8.2 6.5 10 10.2.5 1.1 1.5 1.7 2.6 1.7h.3c1.1-.1 2.2-.8 2.8-1.9.5-1 .5-2 0-3.1-1.4-2.8-3.1-5.2-5.1-7.3 3.3 1 6.4 3.4 8.8 6.7 4.5 6.3 5.5 13.6 5.6 18.6 0 7-2 13.5-5.6 18.6-1.5 2.1-3.5 4-5.7 5.3-1 .6-2 1.1-3.1 1.4 1.9-2.2 3.7-4.6 5.1-7.4z"/></svg>