<svg height="100" width="100" xmlns="http://www.w3.org/2000/svg" data-name="Layer 1"><path d="M52.24 35.969A31.617 31.617 0 0183.742 6.516a2.25 2.25 0 000-4.5 36.126 36.126 0 00-36.014 33.941 28.483 28.483 0 00-.068 56.794v2.983a2.25 2.25 0 004.5 0v-2.983a28.483 28.483 0 00.08-56.782zm4.167 28.387c0 15.524-4.292 23.992-6.497 23.992s-6.497-8.468-6.497-23.992 4.292-23.99 6.497-23.99 6.497 8.467 6.497 23.99zm-30.488 0a24.03 24.03 0 0117.243-23.018c-2.805 5.459-4.249 14.27-4.249 23.018s1.444 17.56 4.25 23.019a24.03 24.03 0 01-17.244-23.019zm30.74 23.019c2.804-5.459 4.248-14.27 4.248-23.019s-1.444-17.56-4.249-23.018a23.986 23.986 0 010 46.037zM32.44 32.517c1.03-.958 7.28-7.1 7.282-14.892-.002-8.252-7.072-14.7-7.372-14.97a2.25 2.25 0 00-3.011.002 26.831 26.831 0 00-5.279 7.008C18.118 5.522 10.523 5.162 8.09 5.162c-.553 0-.863.018-.863.018A2.258 2.258 0 005.1 7.307c-.023.44-.453 9.772 4.484 16.835A26.767 26.767 0 002.58 29.42a2.25 2.25 0 00-.003 3.01c.27.302 6.72 7.373 14.974 7.373 7.864-.002 14.089-6.421 14.891-7.286zm-3.109-3.254a1.953 1.953 0 00-.155.157l-.001-.001c-.053.06-5.402 5.882-11.626 5.884-4.185 0-7.975-2.632-10.025-4.374a20.03 20.03 0 016.427-3.761 2.25 2.25 0 00.834-3.782C10.752 19.313 9.83 13 9.634 9.709c3.317.192 9.634 1.117 13.718 5.2a2.25 2.25 0 003.738-.88 20.045 20.045 0 013.759-6.424c1.743 2.05 4.373 5.837 4.374 10.02-.002 6.185-5.831 11.584-5.891 11.638zm68.092-1.716a17.932 17.932 0 00-7.671-4.817 15.244 15.244 0 00.41-4.01 2.262 2.262 0 00-2.128-2.13s-.159-.009-.441-.009c-1.711 0-6.006.315-8.921 3.227-2.78 2.783-3.315 7.114-3.202 9.133l-.013-.001c-.03.598-.185 5.946 3.217 9.352 2.915 2.911 7.209 3.226 8.919 3.226.283 0 .441-.009.441-.009a2.263 2.263 0 002.127-2.13 15.247 15.247 0 00-.41-4.01 17.942 17.942 0 007.672-4.815 2.249 2.249 0 000-3.007zM86.78 31.293a2.079 2.079 0 00-1.063.237 2.25 2.25 0 00-1.001 3.029 8.668 8.668 0 01.74 2.246 6.984 6.984 0 01-3.6-1.695c-2.027-2.03-1.91-5.809-1.905-5.969a2.064 2.064 0 00-.002-.205h.001c-.049-1.075.198-4.238 1.906-5.946a6.987 6.987 0 013.603-1.697 8.736 8.736 0 01-.741 2.248 2.253 2.253 0 002.013 3.264 9.84 9.84 0 015.647 2.244 9.896 9.896 0 01-5.598 2.244z"/></svg>