<svg height="100" width="100" xmlns="http://www.w3.org/2000/svg" data-name="Layer 1"><path d="M55.397 27.318c-1.03 0-2.084.064-3.147.16V1.852h-4.5V13.64a15.767 15.767 0 00-.661-.722c-6.47-6.544-16.278-5.126-16.694-5.06a2.25 2.25 0 00-1.883 1.892c-.063.417-1.454 10.306 4.996 16.831a15.934 15.934 0 002.19 1.84A35.443 35.443 0 008.75 62.586c0 19.446 16.084 35.268 35.855 35.268A37.004 37.004 0 0050 97.45a36.998 36.998 0 005.396.403c19.77 0 35.854-15.822 35.854-35.268S75.166 27.318 55.397 27.318zM32.853 12.194c2.63-.049 7.604.416 11.035 3.888 3.391 3.432 3.876 8.38 3.862 11.025v.363c-.435-.038-.866-.06-1.3-.081l.002-.05c-2.306-.116-6.64-.78-9.743-3.921-3.451-3.491-3.893-8.564-3.857-11.224zm22.544 81.16a32.71 32.71 0 01-5.048-.4 2.24 2.24 0 00-.698 0 32.725 32.725 0 01-5.047.4c-17.289 0-31.354-13.803-31.354-30.768s14.065-30.768 31.355-30.768a32.105 32.105 0 015.07.408h.003A22.741 22.741 0 0167.954 54.64h4.5a27.422 27.422 0 00-11.429-22.316 30.979 30.979 0 0125.725 30.26c0 16.966-14.065 30.768-31.353 30.768zM29.253 48.717a30.19 30.19 0 00-5.21 16.992 2.25 2.25 0 01-2.25 2.251 2.25 2.25 0 01-2.25-2.249 34.671 34.671 0 015.983-19.516 2.25 2.25 0 113.727 2.522z"/></svg>