<svg height="100" width="100" xmlns="http://www.w3.org/2000/svg" viewBox="0 0 99.21 99.21"><path d="M52.869 25.938a14.363 14.363 0 014.797-9.519 2.5 2.5 0 10-3.306-3.75 19.344 19.344 0 00-4.153 5.223c-3.295-5.984-9.65-10.057-16.951-10.057a2.5 2.5 0 00-2.488 2.261c-.028.29-.631 7.181 4.097 12.842 1.567 1.878 3.528 3.37 5.837 4.505-10.967 4.396-18.884 16.67-18.884 31.096 0 18.105 12.466 32.836 27.789 32.836 15.324 0 27.791-14.73 27.791-32.836-.003-16.8-10.739-30.685-24.529-32.601zm-14.13-6.158c-1.897-2.249-2.611-4.845-2.87-6.705 5.779 1.067 10.356 5.61 11.475 11.373-3.752-.773-6.638-2.337-8.605-4.668zm10.865 66.595c-12.565 0-22.789-12.487-22.789-27.836 0-14.321 8.901-26.146 20.3-27.666 7.577 4.994 12.565 15.729 12.565 27.389a2.5 2.5 0 105 0c0-10.448-3.452-20.045-9.205-26.616 9.73 3.171 16.92 14.024 16.92 26.894 0 15.347-10.224 27.835-22.791 27.835z"/><path d="M61.815 64.5a2.494 2.494 0 00-2.949 1.949c-.608 2.982-1.549 5.818-2.795 8.429a2.5 2.5 0 104.512 2.154c1.422-2.978 2.492-6.202 3.182-9.583a2.5 2.5 0 00-1.95-2.949z"/></svg>