<svg height="100" width="100" xmlns="http://www.w3.org/2000/svg" viewBox="-247 370.9 100 100"><path d="M-155.4 391.4l3.2-6.4-3.1-.1c-5.9-.2-9.5-2-15-7.7l-1.2-1.2-5.6 3.7-3.7-6.5-1.8 2.1c-2.4 2.7-6.1 4.1-11.6 4.4l-2.7.2 1.7 4.6c-2.7-.6-5.6-2-7.5-5.6l-1-2-42.6 29.1-.1.9c-.8 8.3 4.1 16 9.5 19.3 1.9 1.2 3.8 1.8 5.5 1.8.3 0 .6 0 1-.1l-12.4 11.1-.1.8c-.9 9.9 5.4 18.6 11.7 22.5 2.5 1.6 5 2.4 7.3 2.4 1.6 0 3-.4 4.2-1.2.8-.5 1.7-1.3 2.4-2.4 1.8-1.7 6.2-6.2 11.7-11.8.8 6.7 5.5 11.8 9.8 14.4 2.6 1.6 5.3 2.4 7.7 2.4 1.2 0 2.3-.2 3.3-.6v.1h.5c1.6 0 4.7-1.5 18.3-18.9 7.1-9.1 13.8-18.4 13.8-18.5l.4-.6-.5-8.7h-.6l.2-.3-3.5-.4c-6-.6-9.9-1.9-14.3-4.9.3-.3.6-.6.8-.9l16.6 2.6.3-2s.2-1.5.5-2.9h.3l.2-2.1c.4-5 2.5-11.4 3.2-13.3l.8-2.2-7.6-1.1zm-26.1-11.7l3.2 5.6 6.4-4.2c4.1 4 7.9 6.6 13.5 7.4l-2.9 5.7 8.2 1.5c-.8 2.6-1.9 6.4-2.4 10l-17.9-2.5-45.5 46c-2.5 1.1-6.1 2-9.5.6-4.5-1.9-9.1-6.5-10.4-9.1l51.7-46.4-4.1-11c4-.4 7.2-1.6 9.7-3.6zm-12.6 9v.3l-34 25.6c-.5.2-.9.5-1.3.7-1.3.8-2.1 1.3-4.1.5-3.6-1.4-7.4-5.5-8.8-7.8l37.2-25.4c3.4 4.7 8.3 5.8 11 6.1zm-40.7 34c-2.3-1.5-4.6-4-6.1-7 1.8 1.6 3.8 3 5.9 3.9 1.3.5 2.4.7 3.3.7 1.3 0 2.3-.3 3.1-.8-.1 2.1-.7 3.5-1.6 4.1-1 .7-2.7.3-4.6-.9zm10.3-5.7l32.4-24.4.3.7-33.3 29.8c.4-1.5.7-3.5.6-6.1zm2.7 43.1c-1.7 1-4.4.6-7.3-1.2-3.4-2.1-6.7-5.8-8.4-10.3 2.2 2 4.9 3.9 7.5 5 1.6.7 3.4 1 5.3 1 1.7 0 3.5-.3 5.3-.9 0 2-.4 3.7-1 4.8l-.2.2.1.1c-.5.6-.9 1-1.3 1.3zm36.1 1.3c-1.8 1.1-4.9.7-8.1-1.2-2.8-1.7-5.5-4.5-6.9-7.9 2.5 2.1 5.8 4 8.6 5.1 1.2.5 2.4.7 3.5.7 1.9 0 3.5-.5 4.9-1.1-.2 2.1-.8 3.7-2 4.4zm29.7-34.9c-8.4 11.7-17.8 23.9-23.7 30.4v-2.5l23.6-31.2.1 3.3zm-27.2 25.8c-.2.1-.4.2-.7.3-1.9.9-4.2 2-6.8 1-4.6-1.8-9.6-5.8-10.3-7.5h-.1l28.6-29.3c3.9 2.6 7.6 4 12.3 4.9l-23 30.6zm26.8-41.7l-14.7-2.3-.7.7c-12.4 12.7-33.7 34.5-43.6 44.5 0-.7 0-1.3-.1-2.1l43.4-43.9 15.8 2.2c0 .3-.1.6-.1.9z"/><path d="M-203.5 416.6l2.8 2.8 22.5-22.1-.2-.2-3.7-13.7-3.9 1.1 3.2 11.6zM-172.1 398.4l-.2 1.6 14.3 1.6.4-4-10-1.1 5-5.8-3-2.6-7.8 9.2zM-172.874 385.239l3.053 2.585-5.105 6.029-3.053-2.585z"/></svg>