<svg height="100" width="100" xmlns="http://www.w3.org/2000/svg" viewBox="0 0 144.083 144"><path d="M86.176 47.295a10.765 10.765 0 001.656-1.818c3.859-5.393 1.537-13.036 1.258-13.891l-.682-2.101-2.208.03c-.879.011-8.553.271-12.496 5.348a13.733 13.733 0 00-1.678-3.419c-4.936-7.221-16.055-7.69-16.526-7.707l-2.207-.077-.729 2.084c-.155.445-3.755 10.977 1.182 18.197 1.01 1.478 2.28 2.668 3.663 3.634-13.951 3.07-20.12 11.466-20.12 26.506 0 22.914 17.54 46.261 34.753 46.261 17.54 0 34.754-22.914 34.754-46.261-.001-17.392-7.856-24.386-20.62-26.786zm-7.845-8.626c1.188-1.66 3.604-2.494 5.557-2.875.268 1.976.256 4.528-.934 6.188-1.189 1.659-3.602 2.492-5.559 2.874-.268-1.975-.254-4.528.936-6.187zm-20.709-8.66c2.778.467 7.31 1.688 9.45 4.82 2.027 2.966 1.692 7.535 1.074 10.545-2.777-.466-7.309-1.688-9.449-4.819-2.028-2.967-1.692-7.538-1.075-10.546zm14.419 84.332c-13.705 0-28.753-21.071-28.753-40.261 0-15.943 7.793-21.871 28.753-21.871 22.036 0 28.754 5.11 28.754 21.871 0 19.566-14.781 40.261-28.754 40.261z"/><path d="M52.457 63.942h6v7.844h-6zM69.041 63.942h6v7.844h-6zM85.627 63.942h6v7.844h-6zM60.748 80.958h6v7.844h-6zM77.334 80.958h6v7.844h-6zM69.041 96.632h6v7.844h-6z"/></svg>