<svg height="100" width="100" xmlns="http://www.w3.org/2000/svg" viewBox="-247 370.9 100 100"><path d="M-192.7 379.2c-25.5 0-43.3 17-43.3 41.4 0 3.3.3 6.6 1 9.7h.1c-2.3 4.8-4.9 10.4-7.9 16.8-1.3 2.7-2.2 4.8-2.4 5.1l-.2.4v.5c0 7.2 14.8 11.6 28.5 11.6 6.7 0 13.6-1 18.9-2.9 1.8.2 3.6.3 5.4.3 25.5 0 43.3-17 43.3-41.4-.1-24.5-17.9-41.5-43.4-41.5zM-197 444c-4.3 3.3-11.9 5.4-20 5.4s-15.7-2.1-20-5.3c10.5-22.3 17.2-36 20-40.7 2 3.4 7.2 13.2 20 40.6zm-35-23.4c0-16.5 8.6-29.1 22.7-34.5-.4.4-.7.8-.9 1.2-1.1 1.6.1 3.1.8 3.8l-1.2.9c-1.4 1.1-2.9 2.2-3.7 3.6-1.1 1.9.1 3.6.8 4.5.1.1.2.2.3.4-.2 0-.4.1-.7.2-1.6-2.5-2.2-2.5-2.9-2.5-1.6 0-2.5 0-14.9 25.8-.2-1.2-.3-2.3-.3-3.4zm-9.4 32.8c.4-.8 1-2.2 2.2-4.7.2-.4.3-.7.5-1 5.1 3.5 13.1 5.7 21.7 5.7s16.7-2.1 21.8-5.7c.6 1.4 1.3 2.8 2 4.2.3.6.5 1.1.7 1.5-.8 2.7-10.1 7.3-24.4 7.3-14.4 0-23.7-4.6-24.5-7.3zm52.7-1.2c-.1-.2-.4-.9-.9-1.9-4.2-9.1-7.8-16.6-10.8-22.8-.2-1.1.7-2.4 1.6-3.5.8-1.1 1.5-2.1 1.5-3.3 0-1.8-1.4-3-2.5-4-.3-.3-.8-.7-1-.9.2-.3.6-.8.9-1.2.9-1 1.9-2.2 2-3.6.1-1.6-1-2.8-1.9-3.8-.2-.3-.6-.6-.7-.9.2-.3.7-.9 1.1-1.2.9-1 2-2 2.1-3.5.2-1.8-1.2-3.1-2.3-4.2-.3-.2-.6-.6-.8-.8.2-.4.7-1 1.1-1.5.7-.9 1.5-1.7 1.8-2.8.5-1.6-.2-3.1-.6-4-.1-.3-.3-.6-.3-.8-.1-.7.8-3 1.6-4 1.4-.1 2.8-.2 4.3-.2 2 0 3.9.1 5.8.3.8 1.1 1.6 3.2 1.5 3.9 0 .2-.2.5-.3.8-.5.9-1.1 2.4-.6 4 .3 1.1 1.1 2 1.8 2.8.4.5.9 1 1.1 1.5l-.8.8c-1.1 1-2.5 2.3-2.3 4.2.2 1.4 1.2 2.5 2.1 3.5.3.3.8.8 1 1.1-.3.3-.7.6-1 .9-1.2 1-2.6 2.3-2.5 4 .1 1.7 1.4 2.8 2.7 3.8.3.2.7.6 1 .9-.4.3-.9.7-1.3 1-1.5 1.1-3.3 2.4-3.3 4.3s1.7 2.9 3.4 3.9c.3.2.7.4 1 .6-.3.3-.6.5-.9.7-1.2 1-2.6 2.1-2.7 3.8-.1 1.9 1.7 3.1 3.2 4.2.3.2.7.5 1 .7-.3.3-.8.6-1.1.9-1.3 1-2.6 2.1-2.8 3.7-.2 1.8 1.2 3.1 2.3 4.2.2.2.6.5.8.8-.3.4-.9.9-1.3 1.2-1 .9-2.1 1.9-2.4 3.1-.5 1.9.7 3.4 1.6 4.4.1.1.3.3.4.5-.4.7-.7 1.4-1 2.1-.4.8-.7 1.6-1 1.9l-3.9.3c1.6-1.4 2.6-3.1 2.6-4.9v-.5l-.3-.5zm15.6 1.6c.2-1.4-.7-2.6-1.1-3.2-.1-.1-.1-.2-.2-.2.4-.4 1-.9 1.7-1.4 1.4-1 2.7-2.1 3.5-3.5 1.1-1.9-.2-3.6-.8-4.5-.1-.2-.3-.5-.5-.7.4-.3 1.2-.9 1.7-1.2 1.6-1 3.2-2.1 3.7-3.7.5-1.9-.9-3.3-1.9-4.3-.2-.2-.5-.5-.7-.8.3-.3.8-.7 1.2-1 1.4-1 2.9-2.2 3-4 .1-1.8-1.4-3-2.6-3.9-.3-.2-.7-.5-.9-.8l1-1c1.2-1.1 2.6-2.4 2.4-4.2-.1-1.8-1.7-2.9-3.1-4-.4-.3-.9-.7-1.2-1 .2-.2.5-.6.7-.8 1-1 2.3-2.4 1.8-4.3-.5-1.6-2.1-2.7-3.7-3.7-.5-.3-1.3-.8-1.7-1.2.1-.2.3-.4.4-.6.7-.9 1.9-2.6.8-4.5-.8-1.4-2.3-2.5-3.7-3.6l-1.2-.9c.7-.7 1.9-2.1.8-3.8-.1-.1-.1-.2-.2-.3 12.8 5.8 20.6 17.9 20.6 33.6-.1 15.6-7.5 27.5-19.8 33.5z"/><path d="M-220.7 441.1c0 3.5 2.4 3.9 3.4 3.9s3.4-.4 3.4-3.9c0-1.4-.6-6.5-3.4-6.5-2.9 0-3.4 5.1-3.4 6.5zM-225.2 433.2c-2.8-.8-4.7 4-5.1 5.4-.9 3.4 1.3 4.4 2.3 4.7.3.1.7.2 1.1.2 1.1 0 2.6-.5 3.3-3 .3-1.1.5-2.5.4-3.7-.2-2-.8-3.2-2-3.6zM-207.6 443.5c.4 0 .8-.1 1.1-.2 1-.3 3.2-1.3 2.3-4.7-.4-1.3-2.3-6.2-5.1-5.4-1.2.3-1.9 1.5-2 3.5-.1 1.2.1 2.6.4 3.7.7 2.5 2.2 3.1 3.3 3.1z"/></svg>