<svg height='100px' width='100px'  fill="#000000" xmlns="http://www.w3.org/2000/svg" xmlns:xlink="http://www.w3.org/1999/xlink" version="1.1" x="0px" y="0px" viewBox="0 0 48 48" enable-background="new 0 0 48 48" xml:space="preserve"><path d="M30.244,22.895c-0.378,0-0.759,0.02-1.21,0.068c-0.386,0.044-0.776,0.054-1.167,0.065  c-0.609-5.275,0.971-10.598,4.402-14.668c0.178-0.211,0.15-0.526-0.061-0.704c-0.211-0.178-0.525-0.15-0.705,0.06  c-3.582,4.25-5.26,9.798-4.656,15.307c-0.354-0.014-0.71-0.02-1.062-0.06c-0.399-0.046-0.807-0.068-1.208-0.068  c-5.351,0-9.845,4.014-10.452,9.338c-0.66,5.771,3.498,11.002,9.335,11.668c0.059,0.006,0.101,0.059,0.098,0.113  c-0.008,0.158-0.021,0.318-0.039,0.475c-0.035,0.295,0.047,0.586,0.229,0.818s0.445,0.381,0.736,0.416  c0.021,0.002,0.115,0.008,0.138,0.008c0.081,0,0.165-0.01,0.247-0.027c0.697-0.162,1.436-0.09,2.089,0.201  C27.103,45.967,27.254,46,27.41,46s0.309-0.031,0.45-0.096c0.655-0.291,1.392-0.363,2.09-0.201c0.591,0.133,1.195-0.244,1.33-0.83  c0.029-0.129,0.037-0.258,0.021-0.383c-0.02-0.158-0.031-0.316-0.039-0.475c-0.004-0.059,0.039-0.109,0.099-0.115  c5.772-0.623,9.965-5.828,9.342-11.602C40.125,26.938,35.629,22.895,30.244,22.895z M31.254,42.906  c-0.582,0.063-1.018,0.568-0.99,1.154c0.01,0.182,0.023,0.363,0.043,0.584c-0.012,0.055-0.071,0.078-0.131,0.082  c-0.91-0.209-1.867-0.117-2.721,0.262C27.441,44.996,27.426,45,27.411,45l-0.045-0.012c-0.555-0.246-1.144-0.371-1.751-0.371  c-0.325,0-0.651,0.037-1.007,0.111c-0.052-0.006-0.103-0.07-0.096-0.123c0.021-0.182,0.036-0.361,0.046-0.545  c0.025-0.586-0.408-1.094-1.051-1.162c-5.224-0.598-8.985-5.332-8.39-10.555c0.593-5.178,5.267-8.996,10.556-8.388  c1.147,0.131,2.265,0.138,3.535-0.007c5.303-0.57,9.938,3.263,10.5,8.456C40.273,37.631,36.48,42.342,31.254,42.906z"></path><path d="M22.631,25.123c-3.104,0.732-5.521,3.105-6.309,6.195c-0.067,0.268,0.095,0.539,0.361,0.607  c0.041,0.012,0.082,0.016,0.123,0.016c0.224,0,0.427-0.148,0.484-0.375c0.694-2.729,2.828-4.824,5.567-5.471  c0.271-0.064,0.437-0.334,0.372-0.604C23.167,25.225,22.896,25.053,22.631,25.123z"></path><path d="M20.548,15.851C20.549,15.851,20.549,15.851,20.548,15.851c1.145,0,2.281-0.171,3.382-0.507  c1.857-0.569,2.972-2.499,2.535-4.393C25.249,5.681,20.623,2,15.216,2L15.089,2c-2.378,0.025-4.779,0.176-7.141,0.445  C7.734,2.47,7.545,2.577,7.41,2.745c-0.133,0.169-0.193,0.38-0.169,0.591c0.007,0.05,0.042,0.185,0.063,0.23  c0.947,2.18,2.019,4.335,3.185,6.403C12.53,13.598,16.385,15.851,20.548,15.851z M15.098,3L15.215,3  c4.938,0,9.164,3.362,10.273,8.177c0.319,1.385-0.495,2.795-1.854,3.211c-1.005,0.308-2.044,0.464-3.088,0.464c0,0,0,0-0.001,0  c-3.802,0-7.322-2.059-9.188-5.371c-1.114-1.979-2.142-4.036-3.04-6.069C10.561,3.162,12.841,3.025,15.098,3z"></path></svg>