<svg height='100px' width='100px'  fill="#000000" xmlns="http://www.w3.org/2000/svg" xmlns:xlink="http://www.w3.org/1999/xlink" version="1.1" x="0px" y="0px" viewBox="0 0 99.21 99.21" enable-background="new 0 0 99.21 99.21" xml:space="preserve"><path fill="#000000" d="M88.571,34.119c-0.25-0.737-0.829-1.316-1.566-1.566c-1.052-0.356-2.112-0.648-3.176-0.909  c-0.024-0.179-0.064-0.357-0.13-0.533C78.432,16.929,64.727,7.403,49.596,7.403c-15.472,0-29.168,9.724-34.295,24.259  c-1.036,0.257-2.069,0.544-3.095,0.891c-0.737,0.25-1.316,0.829-1.566,1.566c-4.663,13.775-1.188,28.655,9.068,38.833  c5.437,5.395,12.604,8.996,20.716,10.521c1.383,6.862,1.955,8.271,4.187,8.336h9.992c0.025,0,0.05,0,0.075-0.001  c2.16-0.064,2.729-1.473,4.111-8.335c8.112-1.524,15.279-5.126,20.715-10.521C89.759,62.775,93.234,47.895,88.571,34.119z   M78.114,30.697c-6.097-0.541-12.171,0.41-17.752,2.746c-1.309-9.386-7.652-17.177-16.207-20.555  c1.775-0.311,3.591-0.485,5.44-0.485C61.866,12.403,73.044,19.667,78.114,30.697z M34.85,16.089  c11.075,0.104,20.099,8.836,20.708,19.785c-2.098,1.258-4.092,2.728-5.953,4.41c-7.887-7.132-18.172-10.506-28.512-9.588  C24,24.35,28.873,19.269,34.85,16.089z M14.997,36.911c10.965-3.264,22.625-0.642,31.121,6.95  c-8.048,9.429-10.934,22.044-7.759,34.058c-5.887-1.563-11.014-4.43-15.13-8.516C14.633,60.873,11.535,48.523,14.997,36.911z   M53.489,84.302c-0.212,0.947-0.422,1.828-0.6,2.506l-6.568,0.001c-0.178-0.678-0.388-1.56-0.6-2.507H53.489z M52.155,79.238  c4.517-2.629,8.846-5.973,12.793-9.906c4.257-4.241,7.858-8.943,10.415-13.597c0.664-1.21,0.223-2.73-0.987-3.396  s-2.73-0.223-3.396,0.987c-2.331,4.243-5.637,8.553-9.562,12.464c-5.318,5.299-11.605,9.542-17.847,12.106  c-3.565-11.639-0.502-24.103,8.143-32.747c8.583-8.584,20.938-11.684,32.498-8.239c3.463,11.613,0.365,23.962-8.231,32.492  C69.948,75.39,61.746,78.761,52.155,79.238z"></path></svg>