<svg height='100px' width='100px'  fill="#000000" xmlns:dc="http://purl.org/dc/elements/1.1/" xmlns:cc="http://creativecommons.org/ns#" xmlns:rdf="http://www.w3.org/1999/02/22-rdf-syntax-ns#" xmlns:svg="http://www.w3.org/2000/svg" xmlns="http://www.w3.org/2000/svg" xmlns:sodipodi="http://sodipodi.sourceforge.net/DTD/sodipodi-0.dtd" xmlns:inkscape="http://www.inkscape.org/namespaces/inkscape" version="1.1" x="0px" y="0px" viewBox="0 0 100 100"><g transform="translate(0,-952.36218)"><path style="color:#000000;enable-background:accumulate;" d="m 51.602001,954.4401 c -4.8746,1.50825 -8.682742,5.47422 -10.95245,10.73362 -4.4016,-2.1868 -8.577845,-3.47778 -12.969195,-2.53647 -0.386611,0.0787 -0.748236,0.27531 -1.023883,0.55678 -5.249944,5.46602 -5.543926,14.55651 -1.427232,22.92108 3.941534,8.00867 12.044783,15.51589 24.29397,19.17829 -1.4689,3.4287 -1.00024,13.6152 -4.06451,24.0037 -1.036058,-5.253 -4.451364,-10.1165 -8.439284,-13.8578 -4.497867,-3.7364 -9.863563,-7.8735 -15.60647,-7.6404 -1.804464,0.038 -2.923181,0.7673 -3.412946,2.2581 0,5.3124 1.783958,11.9852 5.864061,17.5388 3.877948,5.2784 10.004665,9.4347 18.305801,9.8365 -2.486202,4.7073 -6.03582,9.0844 -11.262721,12.435 1.985713,0 5.95044,-0.9761 7.353346,0.4949 5.817816,-4.1309 8.810693,-10.3898 10.704243,-17.1676 8.87717,0.6024 17.59835,-5.3941 20.75691,-9.5582 4.08011,-5.5536 5.86406,-12.2264 5.86406,-17.5388 -0.42381,-1.9193 -1.8262,-2.0576 -3.41294,-2.2581 -6.0872,0.2504 -11.65437,3.948 -15.6375,7.6404 -1.48358,1.3918 -2.89229,2.9432 -4.12656,4.6089 0.93836,-3.8239 1.69743,-7.8984 3.22673,-11.012 11.82763,-3.7427 19.68993,-11.11991 23.54933,-18.96169 4.11669,-8.36457 3.79168,-17.45506 -1.45826,-22.92108 -0.26741,-0.27631 -0.61714,-0.47243 -0.99285,-0.55678 -4.32092,-0.9419 -8.86669,0.0696 -13.00023,2.53647 -2.27917,-5.25672 -6.07951,-9.22588 -10.95245,-10.73362 -0.4515,-0.0902 -0.81403,-0.11679 -1.17897,0 z m 0.58951,4.11409 c 5.07275,1.94476 9.17255,8.00509 9.83549,16.1159 0.64714,7.91743 -2.11471,17.44669 -9.83549,26.04531 -7.712928,-8.59572 -10.482344,-18.13132 -9.835488,-26.04531 0.662943,-8.11081 4.762748,-14.17114 9.835488,-16.1159 z m -12.876112,10.51709 c -0.439586,1.68333 -0.750316,3.4609 -0.899777,5.28948 -0.647599,7.92309 1.583384,17.09513 7.818749,25.55035 -8.74739,-3.67099 -14.4816,-9.55404 -17.43705,-15.55911 -3.461429,-7.03316 -2.977542,-13.95775 0.434374,-17.94092 3.570718,-0.46455 7.611156,1.06478 10.083704,2.6602 z m 35.866962,-2.62927 c 3.39652,3.98652 3.89012,10.88837 0.43437,17.90999 -2.95545,6.00507 -8.68966,11.88812 -17.43705,15.55911 6.23536,-8.45522 8.46635,-17.62726 7.81875,-25.55035 -0.14832,-1.81471 -0.43281,-3.58668 -0.86875,-5.25855 3.17357,-1.59479 6.62379,-3.06644 10.05268,-2.6602 z m -3.72322,41.51159 c -0.3691,4.1519 -1.92617,9.1966 -4.96428,13.3319 -3.18722,4.3382 -7.87684,7.1308 -14.52054,7.6797 -0.3233,-5.1843 2.77835,-10.3747 7.2913,-14.6086 3.52816,-2.7686 7.7465,-6.6013 12.19352,-6.403 z m -37.139054,10.3624 c 4.512954,4.234 7.614594,9.818 7.291294,15.0024 -6.649613,-0.5462 -11.362584,-3.7329 -14.55156,-8.0735 -3.038117,-4.1352 -4.564151,-9.18 -4.933258,-13.3319 4.726947,0.2821 9.259153,3.6841 12.193524,6.403 z" fill="#000000" stroke="none" marker="none" visibility="visible" display="inline" overflow="visible"></path></g></svg>