<svg height='100px' width='100px'  fill="#000000" xmlns="http://www.w3.org/2000/svg" data-name="Layer 1" viewBox="0 0 100 100" x="0px" y="0px"><title>FLOWERS</title><path d="M36.28,68.61c-2.88.9-5.62,1.4-8.44.63a24.39,24.39,0,0,1-9.42-4.6c-7.75-6.5-7-21.27,4.09-25.56.32-.12.62-.28,1-.46-.07-.31-.05-.62-.19-.75a16.16,16.16,0,0,1-4.54-10.6c.44-5.8,1.59-8.73,6.32-12.29,5.85-4.4,18-1.52,20.24,3.41a23.63,23.63,0,0,0,1.72,2.67c.68-1.15,1.22-2,1.73-2.91a12.47,12.47,0,0,1,12.05-6.64,29.67,29.67,0,0,1,6.53.77C73.1,13.79,78,19.14,77,26.43a20.06,20.06,0,0,1-3.39,9.19c.82.29,1.48.47,2.1.75,6.53,3,10.8,7.85,11.85,15.05,1.12,7.7-7.16,15.11-12.85,14.7-2-.14-4,0-6.33,0,.16.9.27,1.64.42,2.37,1.65,8.47-2.84,15.71-11.31,17.72-7.16,1.7-14.15.54-18.16-6.88-1.49-2.78-2.67-5.18-2.91-8.75C36.41,70.12,36.32,69.39,36.28,68.61Zm8.07-9.54a13,13,0,0,0-2.8,7.58,16.8,16.8,0,0,0,3.56,12.22,5.83,5.83,0,0,0,2.45,1.91c4.09,1.67,4.88,1.8,8.08,1.32a8.75,8.75,0,0,0,5.93-3.7,12.12,12.12,0,0,0,2.24-5.17c.47-4.22-1.25-7.71-4.4-10.51-1.07-.94-2.12-1.91-3.43-3.11C52.35,60.45,48.35,60.8,44.35,59.07ZM37.06,44.86c-1.73-.7-3.42-1.42-5.14-2a5.15,5.15,0,0,0-2.06-.29c-5.28.36-9,3-11.46,7.68-1.85,3.47,0,10.15,4.36,12.34.93.4,1.71.93,2.61,1.26,2.83,1,5.77,1.43,8.32-.5a28,28,0,0,0,6.38-7.39,45.83,45.83,0,0,1-2.18-5.36A44.82,44.82,0,0,1,37.06,44.86Zm25.48-6.59c3.48-1.73,5.7-3.53,6.74-5.92a39.9,39.9,0,0,0,2.36-7c.88-3.78-.68-6.72-4-8.58-2.12-1.18-4.41-1-6.69-1.13a7.41,7.41,0,0,0-6.06,2.65c-3.53,3.8-4.46,8.4-4.43,13.63C55.52,32.06,59.89,33.52,62.54,38.27ZM39.17,40.73c1.88-2.84,3.53-5.44,6.15-7.21.37-.25.44-1.27.31-1.86a22.78,22.78,0,0,0-1.16-3.5,26.67,26.67,0,0,0-5.09-8.59c-3.64-3.86-11.48-2.75-14,1.86A15.65,15.65,0,0,0,23.74,26c-1.1,4.06,1.85,7.68,5.5,9.82C32.33,37.61,35.65,39,39.17,40.73ZM60.44,57.66c5.36,2.92,11,3.94,16.79,2.38,3-.81,4.92-3.34,5.91-6.31a5,5,0,0,0,0-3.09A15.51,15.51,0,0,0,75.8,42c-3.9-2-7.46-.48-11.19,1.3C66.27,48.94,63.34,53.19,60.44,57.66Zm.09-12.25A23,23,0,0,0,60,42.77c-1.48-5-8.85-9.11-13.93-3.66a19.79,19.79,0,0,0-3.67,5.74c-1.59,3.82.28,8.4,3.83,10.52,2.21,1.31,4.44.85,6.66.27A10.94,10.94,0,0,0,60.53,45.41Z"></path></svg>