<svg height='100px' width='100px'  fill="#000000" xmlns="http://www.w3.org/2000/svg" xmlns:xlink="http://www.w3.org/1999/xlink" version="1.1" x="0px" y="0px" viewBox="0 0 48 48" enable-background="new 0 0 48 48" xml:space="preserve"><g><path fill="#000000" d="M10.1,43.9c-0.3,0-0.6-0.1-0.8-0.4C5.8,39,4.4,34.7,5,30.6c0.7-4.7,4.1-7.2,4.2-7.3   c0.4-0.3,1.1-0.2,1.4,0.2c0.3,0.4,0.2,1.1-0.2,1.4c-0.1,0-2.8,2.1-3.4,6c-0.5,3.4,0.8,7.3,3.9,11.3c0.3,0.4,0.3,1.1-0.2,1.4   C10.5,43.9,10.3,43.9,10.1,43.9z"></path><path fill="#000000" d="M17.8,46c-0.2,0-0.4-0.1-0.6-0.2c-12.8-10-1.8-25.4-1.7-25.6c0.3-0.4,0.9-0.5,1.4-0.2   c0.4,0.3,0.5,0.9,0.2,1.4c-0.4,0.6-9.9,14,1.3,22.8c0.4,0.3,0.5,1,0.2,1.4C18.4,45.9,18.1,46,17.8,46z"></path><path fill="#000000" d="M32,39.9c-0.2,0-0.3,0-0.4-0.1c-0.5-0.2-0.7-0.8-0.4-1.3c4.4-8.8-1.6-13.3-1.9-13.5   c-0.4-0.3-0.5-0.9-0.2-1.4c0.3-0.4,0.9-0.5,1.4-0.2c0.1,0.1,7.7,5.7,2.5,16C32.7,39.7,32.3,39.9,32,39.9z"></path><path fill="#000000" d="M21.8,46c-0.3,0-0.6-0.1-0.8-0.4c-0.3-0.4-0.3-1.1,0.2-1.4c1.1-0.9,2-1.8,2.8-2.8c0.3-0.4,1-0.5,1.4-0.2   s0.5,1,0.2,1.4c-0.9,1.1-1.9,2.2-3.1,3.1C22.2,46,22,46,21.8,46z"></path><path fill="#000000" d="M26.7,39.6c-0.1,0-0.2,0-0.4-0.1c-0.5-0.2-0.8-0.8-0.6-1.3c3-7.9-3.3-16.7-3.3-16.8   c-0.3-0.4-0.2-1.1,0.2-1.4c0.4-0.3,1.1-0.2,1.4,0.2c0.3,0.4,6.9,9.7,3.6,18.6C27.5,39.3,27.1,39.6,26.7,39.6z"></path><path fill="#000000" d="M34.3,47.5c-2.5,0-5-0.6-7.3-1.8c-0.9-0.5-1.7-1-2.2-2c-0.6-1.2-0.4-2.7,0.5-4.3c0.1-0.1,0.2-0.4,0.6-0.6   c0.3-0.2,0.6-0.2,0.8-0.2c6.7-0.3,12.1-2.2,15.1-5.3l0.1-0.1c1.4-1.4,2.1-2.9,2-4.9c0-0.5,0.4-1,0.9-1c0.5-0.1,1,0.3,1.1,0.8   l0.9,3.9c0.4,1.6,0.6,2.9,0.6,4.1c0.1,2.8-1,5.4-3,7.5C41.7,46,38.1,47.5,34.3,47.5L34.3,47.5z M26.8,40.6   c-0.3,0.6-0.7,1.5-0.3,2.2c0.2,0.4,0.8,0.8,1.3,1.1c2.1,1.1,4.2,1.6,6.4,1.6l0,0c3.3,0,6.4-1.2,8.5-3.4c1.7-1.7,2.5-3.8,2.4-6.1   c0-1-0.2-2.1-0.5-3.4c-0.4,0.7-0.9,1.3-1.6,2l-0.1,0.1C39.7,38.1,34,40.2,26.8,40.6z"></path><path fill="#000000" d="M20,46.1c-10.6,0-19.1-6.5-19.1-14.6c0-4.5,2.6-8.6,7.2-11.4c4.1-2.5,6.6-6.8,6.6-11.4V1.5c0-0.6,0.4-1,1-1   h2.1c0.3,0,0.5,0.1,0.7,0.3L20,2.3l1.5-1.5c0.2-0.2,0.4-0.3,0.7-0.3h2.2c0.6,0,1,0.4,1,1v7.2c0,4.6,2.5,8.9,6.6,11.4   c4.6,2.8,7.2,6.9,7.2,11.4c0,2.4-0.8,4.7-2.2,6.8c-0.3,0.5-0.9,0.6-1.4,0.3s-0.6-0.9-0.3-1.4c1.2-1.8,1.8-3.7,1.8-5.7   c0-3.7-2.3-7.3-6.2-9.7c-4.7-2.9-7.6-7.8-7.6-13.2V2.5h-0.8l-2,1.9c-0.2,0.2-0.5,0.3-0.7,0.3c-0.3,0-0.5-0.1-0.7-0.3l-1.9-1.9h-0.7   v6.2c0,5.3-2.8,10.3-7.6,13.2c-3.9,2.4-6.2,5.9-6.2,9.7c0,6.9,7.7,12.6,17.1,12.6c2.2,0,4.3-0.3,6.3-0.9c0.5-0.2,1.1,0.2,1.2,0.7   c0.2,0.5-0.2,1.1-0.7,1.2C24.6,45.8,22.3,46.1,20,46.1z"></path></g></svg>