<svg height='100px' width='100px'  fill="#000000" xmlns="http://www.w3.org/2000/svg" data-name="Layer 1" viewBox="0 0 100 100" x="0px" y="0px"><defs><style>.cls-1{fill:none;}</style></defs><title>Mushroom Fig</title><path class="cls-1" d="M54.84,28.65l.55,6.67A10.19,10.19,0,0,1,59,35.26l2.7-6-.37-.14A14.78,14.78,0,0,0,54.84,28.65Z"></path><path class="cls-1" d="M63.54,29.9l-2.82,6.31a3.84,3.84,0,0,1,.69,3.15l10.23-6.95a3.44,3.44,0,0,0-1.24-.88A29.53,29.53,0,0,1,63.54,29.9Z"></path><path class="cls-1" d="M60.92,42.12c-.13.65-.26,1.31-.33,2h0L74.8,36.95a14.81,14.81,0,0,0-1.81-3Z"></path><path class="cls-1" d="M48.28,30.6,51,36.41c.76-.26,1.59-.48,2.46-.69L52.86,29A14,14,0,0,0,49,30.22Z"></path><path class="cls-1" d="M40.73,33.78l5.59,4.89a18.63,18.63,0,0,1,2.77-1.52l-2.64-5.73c-.91.39-2,.82-3.14,1.3Z"></path><path class="cls-1" d="M40.94,45.18a10.63,10.63,0,0,1,1-2l-10.77-5-.35.19c-2.16,1.19-3.36,2.53-3.55,4a3.5,3.5,0,0,0,0,.72l13.49,2.69C40.82,45.48,40.91,45.27,40.94,45.18Z"></path><path class="cls-1" d="M61.06,48l12.39-3a5.49,5.49,0,0,0,2-6.06v0L60.72,46.28C60.8,46.8,60.92,47.37,61.06,48Z"></path><path class="cls-1" d="M61.55,49.91l.26.9a19.07,19.07,0,0,0,6.55-2.56Z"></path><path class="cls-1" d="M39.6,49.34c.16-.6.32-1.14.47-1.62L27.93,45.3a15.45,15.45,0,0,0,2.81,3.52Z"></path><path class="cls-1" d="M61,24.07a2.08,2.08,0,0,0-1-.12,10,10,0,0,0,2.5,1.23A3.38,3.38,0,0,0,61,24.07Z"></path><path class="cls-1" d="M58.6,43.89c.1-1,.31-1.95.48-2.8.31-1.51.64-3.06.14-3.57-.18-.18-.6-.39-1.62-.39a15.3,15.3,0,0,0-2.92.35c-9,1.8-11.35,6.86-11.85,8.37l0,.05c0,.11-4.3,10.95-2.5,21.26s5.9,15.2,8.06,16.52a13.79,13.79,0,0,0,5,1.25c-.3-.43-.59-.86-.86-1.31a28.19,28.19,0,0,1-1.74-3.48,31.55,31.55,0,0,1-1.23-3.64,36.07,36.07,0,0,1-.8-3.73A35.82,35.82,0,0,0,50,76.35a30.82,30.82,0,0,0,1.66,3.36,26.93,26.93,0,0,0,2.08,3.07c.38.48.78.95,1.19,1.38.21.22.42.43.64.64l.33.3h0a20.92,20.92,0,0,0,4.56-.34c3.79-.79,6.07-3.4,6.19-4.9a19.74,19.74,0,0,1,.33-2c.5-2.55,1.34-6.81-.2-9.55C64.48,64.35,58.06,48.93,58.6,43.89Z"></path><path class="cls-1" d="M75.29,29.42c-.38-.33-1-.89-1.7-1.6a93.26,93.26,0,0,0-8-7c-3.44-2.61-9.43-5.6-21.73-1.38-8.68,3-11.79,8.25-13.85,11.74a14.57,14.57,0,0,1-2,2.84c-2.6,2.6-5.93,8.68-1.91,14.93,3.46,5.37,9.84,6.31,12.14,6.47L38.4,55a18.47,18.47,0,0,1-8.8-4.45c-3.26-3.12-4.69-5.86-4.36-8.38.28-2.13,1.82-4,4.57-5.48a124.35,124.35,0,0,1,12.74-5.78c2.39-1,4.45-1.81,5.48-2.39,2.81-1.58,9.9-2.8,14-1.25a33.91,33.91,0,0,0,8.58,2.32c1.94.15,5.54,4.22,6.7,8.35,1,3.63,0,6.75-2.78,8.79-6.25,4.52-10.12,5.75-12.06,6.07q.2.6.41,1.21c9.57-3.52,14.95-8.1,16-13.6S76,30.07,75.29,29.42ZM64.11,27.76c-3.07-.81-6.63-2.21-6.17-4.25a2.22,2.22,0,0,1,2.35-1.58h0a5.5,5.5,0,0,1,5,4.66l.33,1.58Z"></path><path class="cls-1" d="M43.1,41.51a14.47,14.47,0,0,1,1.6-1.62l-6-5.26c-1.75.75-3.54,1.55-5.29,2.41Z"></path><path class="cls-1" d="M39.11,51.32,33.56,51a17.94,17.94,0,0,0,5.19,2C38.87,52.4,39,51.85,39.11,51.32Z"></path><path d="M76.61,27.91c-.36-.32-.92-.86-1.63-1.54a94.92,94.92,0,0,0-8.13-7.19c-6-4.59-13.54-5.13-23.58-1.68-9.38,3.22-12.85,9.1-14.92,12.61a13.91,13.91,0,0,1-1.64,2.45c-3,3-6.89,10.1-2.18,17.43,3.92,6.1,10.85,7.19,13.58,7.39a37.1,37.1,0,0,0,.25,10.13c1.78,10.22,6,16,9,17.88,1.73,1.06,5.56,1.71,9.14,1.71a22,22,0,0,0,4.37-.39c4.54-.95,7.57-4.21,7.78-6.69,0-.39.16-1,.3-1.74.56-2.82,1.49-7.54-.42-10.92A99,99,0,0,1,62.91,54.2l.6,1.64C73.8,52.05,79.61,47,80.76,40.72,82,34.2,77.53,28.72,76.61,27.91ZM27.23,42.39c.19-1.46,1.38-2.8,3.55-4l.35-.19,10.77,5a10.63,10.63,0,0,0-1,2c0,.08-.12.3-.23.63L27.21,43.11A3.5,3.5,0,0,1,27.23,42.39ZM75.46,38.9a5.49,5.49,0,0,1-2,6.06L61.06,48c-.14-.61-.25-1.17-.34-1.7l14.74-7.42Zm-13.91,11,6.81-1.66a19.07,19.07,0,0,1-6.55,2.56Zm-1-5.81h0c.07-.67.2-1.33.33-2L73,33.92a14.81,14.81,0,0,1,1.81,3Zm.83-4.74a3.84,3.84,0,0,0-.69-3.15l2.82-6.31a29.53,29.53,0,0,0,6.87,1.63,3.44,3.44,0,0,1,1.24.88ZM59,35.26a10.19,10.19,0,0,0-3.57.06l-.55-6.67a14.78,14.78,0,0,1,6.44.44l.37.14ZM52.86,29l.56,6.76c-.87.2-1.7.43-2.46.69L48.28,30.6l.74-.38A14,14,0,0,1,52.86,29Zm-6.41,2.45,2.64,5.73a18.63,18.63,0,0,0-2.77,1.52l-5.59-4.89,2.58-1.06C44.48,32.24,45.54,31.81,46.45,31.42Zm-7.78,3.22,6,5.26a14.47,14.47,0,0,0-1.6,1.62L33.39,37C35.13,36.19,36.93,35.38,38.68,34.64Zm1.4,13.08c-.15.48-.31,1-.47,1.62l-8.87-.53a15.45,15.45,0,0,1-2.81-3.52Zm-1,3.6c-.12.53-.24,1.09-.36,1.67a17.94,17.94,0,0,1-5.19-2ZM66.93,77.89a19.74,19.74,0,0,0-.33,2c-.13,1.5-2.4,4.11-6.19,4.9a20.92,20.92,0,0,1-4.56.34h0l-.33-.3c-.22-.2-.43-.42-.64-.64-.42-.44-.82-.9-1.19-1.38a26.93,26.93,0,0,1-2.08-3.07A30.82,30.82,0,0,1,50,76.35a35.82,35.82,0,0,1-1.27-3.56,36.07,36.07,0,0,0,.8,3.73,31.55,31.55,0,0,0,1.23,3.64,28.19,28.19,0,0,0,1.74,3.48c.26.45.56.88.86,1.31a13.79,13.79,0,0,1-5-1.25c-2.15-1.32-6.27-6.3-8.06-16.52S42.76,46,42.81,45.9l0-.05c.51-1.51,2.87-6.57,11.85-8.37a15.3,15.3,0,0,1,2.92-.35c1,0,1.45.21,1.63.39.5.5.18,2.06-.14,3.57-.18.86-.38,1.83-.48,2.8-.54,5,5.88,20.46,8.13,24.45C68.28,71.08,67.44,75.34,66.93,77.89ZM78.8,40.35c-1,5.51-6.39,10.08-16,13.6q-.21-.61-.41-1.21c1.94-.31,5.81-1.55,12.06-6.07,2.82-2,3.81-5.16,2.78-8.79-1.16-4.13-4.76-8.2-6.7-8.35A33.91,33.91,0,0,1,62,27.22c-4.06-1.55-11.16-.33-14,1.25-1,.58-3.09,1.42-5.48,2.39a124.35,124.35,0,0,0-12.74,5.78c-2.75,1.51-4.29,3.36-4.57,5.48-.33,2.52,1.1,5.26,4.36,8.38A18.47,18.47,0,0,0,38.4,55l-.06.43c-2.3-.16-8.69-1.1-12.14-6.47-4-6.26-.69-12.33,1.91-14.93a14.57,14.57,0,0,0,2-2.84c2.06-3.49,5.17-8.76,13.85-11.74,12.3-4.21,18.29-1.23,21.73,1.38a93.26,93.26,0,0,1,8,7c.74.71,1.32,1.27,1.7,1.6C76,30.07,79.82,34.83,78.8,40.35Z"></path><path d="M60.32,21.93h0a2.22,2.22,0,0,0-2.35,1.58c-.45,2,3.11,3.44,6.17,4.25l1.56.41-.33-1.58A5.5,5.5,0,0,0,60.32,21.93Zm-.25,2a2.08,2.08,0,0,1,1,.12,3.38,3.38,0,0,1,1.53,1.11A10,10,0,0,1,60.07,23.95Z"></path></svg>