<svg height='100px' width='100px'  fill="#000000" xmlns="http://www.w3.org/2000/svg" viewBox="0 0 48 48" x="0px" y="0px"><title>26-radish</title><g data-name="26-radish"><path d="M25,48c-2.013,0-3.27-2.768-3.782-4.191C16.993,42.376,13,37.2,13,33c0-4.81,4.666-7,9-7h4a11.551,11.551,0,0,1,5.066,1.1L30.187,28.9A9.723,9.723,0,0,0,26,28H22c-3.372,0-7,1.564-7,5,0,3.464,3.729,8.107,7.254,9.033a1,1,0,0,1,.7.666,9.059,9.059,0,0,0,1.391,2.8l.685-2.741a1,1,0,0,1,.708-.723C29.268,41.078,33,36.434,33,33a4.13,4.13,0,0,0-1.5-3.243l1.311-1.512A6.135,6.135,0,0,1,35,33c0,4.15-3.961,9.3-8.166,10.786l-.864,3.456A1,1,0,0,1,25,48Z"></path><path d="M25,28V26c3,0,3-10.9,3-15h2C30,21.5,29.164,28,25,28Z"></path><path d="M24,27H22c0-6.99-2.187-11-6-11V14C21.084,14,24,18.738,24,27Z"></path><path d="M30.463,24.005a3.482,3.482,0,0,1-2.378-.856l-.03-.01c-.068-.022-.147-.047-.232-.08-1.129.17-2.768-.152-4.749-2.133A7.068,7.068,0,0,1,21.1,17.412a3.736,3.736,0,0,1,.868-3.447,3.08,3.08,0,0,1,.675-.508c-1.885-2.2-2.2-4.963-.675-6.492a3.319,3.319,0,0,1,2.086-.934C24.39,2.56,26.442,0,29,0c2.8,0,5,3.075,5,7a9.587,9.587,0,0,1-.082,1.256,3.078,3.078,0,0,1,1.117.709c1.275,1.274,1.264,3.41.107,5.376a3.1,3.1,0,0,1,.893.624c1.641,1.64,1.153,4.7-1.109,6.961A6.558,6.558,0,0,1,30.463,24.005Zm-1.834-2.782.035.011a1.671,1.671,0,0,1,.715.387c.716.714,2.588.435,4.133-1.109s1.823-3.418,1.109-4.133a1.6,1.6,0,0,0-1.183-.367.983.983,0,0,1-.948-.58,1,1,0,0,1,.175-1.1c1.278-1.383,1.716-3.194.956-3.955a1.408,1.408,0,0,0-.928-.356,1,1,0,0,1-.9-1.23A7.724,7.724,0,0,0,32,7c0-2.71-1.374-5-3-5s-3,2.29-3,5a1.056,1.056,0,0,1-.345.784,1.018,1.018,0,0,1-.8.261,1.775,1.775,0,0,0-1.478.334c-.714.715-.435,2.588,1.109,4.133a5.964,5.964,0,0,0,.859.694,1,1,0,0,1-.653,1.822,1.65,1.65,0,0,0-1.315.351c-.714.715-.435,2.588,1.109,4.133.712.712,2.076,1.856,3.239,1.526A.994.994,0,0,1,28.629,21.223Z"></path><path d="M17.377,24c-3.18,0-5.67-1.756-5.67-4a2.955,2.955,0,0,1,.169-.987c-2.181-.557-3.679-2-3.679-3.742a2.933,2.933,0,0,1,.269-1.212,9.484,9.484,0,0,1-.9-.768A7.74,7.74,0,0,1,5,7.993,3.9,3.9,0,0,1,6.157,5.1c1.8-1.733,5.054-1.375,7.7.734a3.361,3.361,0,0,1,2.116-.781c2.306,0,4.113,2.414,4.113,5.5a7.2,7.2,0,0,1-.15,1.419l-1.963-.385a5.314,5.314,0,0,0,.113-1.034c0-1.862-.987-3.5-2.113-3.5A1.769,1.769,0,0,0,14.7,7.82a1,1,0,0,1-1.484.109C11.268,6.055,8.69,5.437,7.544,6.539A1.931,1.931,0,0,0,7,7.993a5.819,5.819,0,0,0,1.947,3.86,7.636,7.636,0,0,0,1.4,1.065,1,1,0,0,1,.233,1.531,1.275,1.275,0,0,0-.387.825c0,.9,1.382,1.9,3.438,1.981A1,1,0,0,1,14.262,19a1.437,1.437,0,0,0-.555,1c0,.944,1.507,2,3.67,2a5.088,5.088,0,0,0,2.9-.812l1.165,1.624A7.008,7.008,0,0,1,17.377,24Z"></path><path d="M32,34H30c0-2.708-2.8-3-4-3V29C29.7,29,32,30.916,32,34Z"></path></g></svg>