<svg height='100px' width='100px'  fill="#000000" xmlns:x="http://ns.adobe.com/Extensibility/1.0/" xmlns:i="http://ns.adobe.com/AdobeIllustrator/10.0/" xmlns:graph="http://ns.adobe.com/Graphs/1.0/" xmlns="http://www.w3.org/2000/svg" xmlns:xlink="http://www.w3.org/1999/xlink" version="1.1" x="0px" y="0px" viewBox="-247 370.9 100 100" style="enable-background:new -247 370.9 100 100;" xml:space="preserve"><g><g i:extraneous="self"><path d="M-155.4,391.4l3.2-6.4l-3.1-0.1c-5.9-0.2-9.5-2-15-7.7l-1.2-1.2l-5.6,3.7l-3.7-6.5l-1.8,2.1c-2.4,2.7-6.1,4.1-11.6,4.4    l-2.7,0.2l1.7,4.6c-2.7-0.6-5.6-2-7.5-5.6l-1-2l-42.6,29.1l-0.1,0.9c-0.8,8.3,4.1,16,9.5,19.3c1.9,1.2,3.8,1.8,5.5,1.8    c0.3,0,0.6,0,1-0.1l-12.4,11.1l-0.1,0.8c-0.9,9.9,5.4,18.6,11.7,22.5c2.5,1.6,5,2.4,7.3,2.4c1.6,0,3-0.4,4.2-1.2    c0.8-0.5,1.7-1.3,2.4-2.4c1.8-1.7,6.2-6.2,11.7-11.8c0.8,6.7,5.5,11.8,9.8,14.4c2.6,1.6,5.3,2.4,7.7,2.4c1.2,0,2.3-0.2,3.3-0.6    l0,0.1c0.1,0,0.3,0,0.5,0c1.6,0,4.7-1.5,18.3-18.9c7.1-9.1,13.8-18.4,13.8-18.5l0.4-0.6l-0.5-8.7l-0.6,0l0.2-0.3l-3.5-0.4    c-6-0.6-9.9-1.9-14.3-4.9c0.3-0.3,0.6-0.6,0.8-0.9l16.6,2.6l0.3-2c0,0,0.2-1.5,0.5-2.9l0.3,0l0.2-2.1c0.4-5,2.5-11.4,3.2-13.3    l0.8-2.2L-155.4,391.4z M-181.5,379.7l3.2,5.6l6.4-4.2c4.1,4,7.9,6.6,13.5,7.4l-2.9,5.7l8.2,1.5c-0.8,2.6-1.9,6.4-2.4,10    l-17.9-2.5l-45.5,46c-2.5,1.1-6.1,2-9.5,0.6c-4.5-1.9-9.1-6.5-10.4-9.1l51.7-46.4l-4.1-11C-187.2,382.9-184,381.7-181.5,379.7z     M-194.1,388.7c0,0.1,0,0.2,0,0.3l-34,25.6c-0.5,0.2-0.9,0.5-1.3,0.7c-1.3,0.8-2.1,1.3-4.1,0.5c-3.6-1.4-7.4-5.5-8.8-7.8    l37.2-25.4C-201.7,387.3-196.8,388.4-194.1,388.7z M-234.8,422.7c-2.3-1.5-4.6-4-6.1-7c1.8,1.6,3.8,3,5.9,3.9    c1.3,0.5,2.4,0.7,3.3,0.7c1.3,0,2.3-0.3,3.1-0.8c-0.1,2.1-0.7,3.5-1.6,4.1C-231.2,424.3-232.9,423.9-234.8,422.7z M-224.5,417    l32.4-24.4l0.3,0.7l-33.3,29.8C-224.7,421.6-224.4,419.6-224.5,417z M-221.8,460.1c-1.7,1-4.4,0.6-7.3-1.2    c-3.4-2.1-6.7-5.8-8.4-10.3c2.2,2,4.9,3.9,7.5,5c1.6,0.7,3.4,1,5.3,1c1.7,0,3.5-0.3,5.3-0.9c0,2-0.4,3.7-1,4.8    c-0.1,0.1-0.2,0.2-0.2,0.2l0.1,0.1C-221,459.4-221.4,459.8-221.8,460.1z M-185.7,461.4c-1.8,1.1-4.9,0.7-8.1-1.2    c-2.8-1.7-5.5-4.5-6.9-7.9c2.5,2.1,5.8,4,8.6,5.1c1.2,0.5,2.4,0.7,3.5,0.7c1.9,0,3.5-0.5,4.9-1.1    C-183.9,459.1-184.5,460.7-185.7,461.4z M-156,426.5c-8.4,11.7-17.8,23.9-23.7,30.4c0-0.8,0-1.6,0-2.5l23.6-31.2L-156,426.5z     M-183.2,452.3c-0.2,0.1-0.4,0.2-0.7,0.3c-1.9,0.9-4.2,2-6.8,1c-4.6-1.8-9.6-5.8-10.3-7.5l-0.1,0l28.6-29.3    c3.9,2.6,7.6,4,12.3,4.9L-183.2,452.3z M-156.4,410.6l-14.7-2.3l-0.7,0.7c-12.4,12.7-33.7,34.5-43.6,44.5c0-0.7,0-1.3-0.1-2.1    l43.4-43.9l15.8,2.2C-156.3,410-156.4,410.3-156.4,410.6z"></path><polygon points="-203.5,416.6 -200.7,419.4 -178.2,397.3 -178.4,397.1 -182.1,383.4 -186,384.5 -182.8,396.1   "></polygon><polygon points="-172.1,398.4 -172.3,400 -158,401.6 -157.6,397.6 -167.6,396.5 -162.6,390.7 -165.6,388.1 -173.4,397.3   "></polygon><rect x="-175.9" y="385.6" transform="matrix(0.7632 0.6462 -0.6462 0.7632 210.5478 204.6156)" width="4" height="7.9"></rect></g></g></svg>