<svg height='100px' width='100px'  fill="#000000" xmlns="http://www.w3.org/2000/svg" data-name="Layer 1" viewBox="0 0 5 5" x="0px" y="0px"><title>Foliage_Greenery_Leafage_Plant_Verdure</title><path d="M3.39867,2.60166c-.09971.10982-.202.21021-.28744.32335a.26087.26087,0,0,0-.02106.1654,1.26882,1.26882,0,0,0,.52163.81778c.01554.01373.03317.0251.04982.03757a.19625.19625,0,0,0-.014-.063A1.22388,1.22388,0,0,1,3.533,2.73749.60617.60617,0,0,1,3.65188,2.592a1.98539,1.98539,0,0,1,.18547.26456.89389.89389,0,0,1-.059.89932c-.049.08563.10112.30174.1867.4416a1.19758,1.19758,0,0,0,.23577.21214c.01.00912.00333.03649.00438.0554a.39874.39874,0,0,0-.04339-.0238c-.20869-.08376-.41569-.1726-.62838-.24462-.0333-.01128-.09148.05658-.14044.08372-.02853.01581-.071.04214-.09124.032-.36542-.18386-.72845-.37245-1.09174-.56052a.44065.44065,0,0,1-.0531-.03595c-.03331-.024-.06628-.04842-.0994-.07267.04158-.01568.08517-.04871.12443-.0442a4.36051,4.36051,0,0,1,.74187.10851,2.63074,2.63074,0,0,1,.51809.28793c.05032.02891.10112.057.1517.08545a.16766.16766,0,0,0-.02478-.04581c-.02118-.0202-.04859-.03381-.07008-.05375a1.12858,1.12858,0,0,1-.21248-.20665A1.038,1.038,0,0,0,2.2695,3.32744c-.266-.00337-.52926-.23469-.79155-.368a.16081.16081,0,0,1,.03658-.09069,1.165,1.165,0,0,1,.97632.06461.96853.96853,0,0,0,.14058.089.56594.56594,0,0,0-.07615-.175,3.53248,3.53248,0,0,0-.47376-.45266.66664.66664,0,0,0-.42688-.14557c-.29559.0441-.45617-.12908-.63682-.2934-.078-.07091-.16045-.1372-.23348-.21273-.00948-.0098.023-.08978.04026-.09137a1.25606,1.25606,0,0,1,1.02026.438c.00576.01088.0219.01628.03321.02422a.18588.18588,0,0,0-.01413-.04439c-.19572-.3125-.41608-.61268-.57924-.94128A2.35871,2.35871,0,0,1,1.14688.483.14839.14839,0,0,1,1.25393.42871a.7951.7951,0,0,1,.55974,1.09108c-.04437.16283.14064.38988.226.585a.384.384,0,0,0,.09337.10936c.03318.03186.072.05781.10837.08636-.00939-.05524-.0006-.125-.03118-.16334a.75291.75291,0,0,1-.10493-.72457c.02548-.09.03386-.253.07145-.25956.16738-.02909.07562-.14268.09813-.21638C2.27952.92138,2.3034.898,2.31167.90053a.11856.11856,0,0,1,.06341.04056.99316.99316,0,0,1,.10021,1.12024c-.15944.23005-.00108.30988.04971.43383a2.44807,2.44807,0,0,0,.29006.43834c.00625.009.02764.00738.042.0107.00184-.00959.00452-.01911.00539-.0288.02458-.27278.0466-.54582.07494-.81821a.4894.4894,0,0,1,.05648-.223,3.13735,3.13735,0,0,1,.26966-.30241c.02906.04455.07591.0861.084.13417a5.20889,5.20889,0,0,1,.06275.51852C3.41813,2.3435,3.40375,2.464,3.39867,2.60166Z"></path></svg>