<svg height='100px' width='100px'  fill="#000000" xmlns="http://www.w3.org/2000/svg" xmlns:xlink="http://www.w3.org/1999/xlink" version="1.1" x="0px" y="0px" viewBox="0 0 144.083 144" enable-background="new 0 0 144.083 144" xml:space="preserve"><path d="M86.176,47.295c0.604-0.53,1.164-1.132,1.656-1.818c3.859-5.393,1.537-13.036,1.258-13.891l-0.682-2.101L86.2,29.515  c-0.879,0.011-8.553,0.271-12.496,5.348c-0.396-1.184-0.939-2.339-1.678-3.419c-4.936-7.221-16.055-7.69-16.526-7.707l-2.207-0.077  l-0.729,2.084c-0.155,0.445-3.755,10.977,1.182,18.197c1.01,1.478,2.28,2.668,3.663,3.634c-13.951,3.07-20.12,11.466-20.12,26.506  c0,22.914,17.54,46.261,34.753,46.261c17.54,0,34.754-22.914,34.754-46.261C106.795,56.689,98.94,49.695,86.176,47.295z   M78.331,38.669c1.188-1.66,3.604-2.494,5.557-2.875c0.268,1.976,0.256,4.528-0.934,6.188c-1.189,1.659-3.602,2.492-5.559,2.874  C77.127,42.881,77.141,40.328,78.331,38.669z M57.622,30.009c2.778,0.467,7.31,1.688,9.45,4.82  c2.027,2.966,1.692,7.535,1.074,10.545c-2.777-0.466-7.309-1.688-9.449-4.819C56.669,37.588,57.005,33.017,57.622,30.009z   M72.041,114.341c-13.705,0-28.753-21.071-28.753-40.261c0-15.943,7.793-21.871,28.753-21.871c22.036,0,28.754,5.11,28.754,21.871  C100.795,93.646,86.014,114.341,72.041,114.341z"></path><rect x="52.457" y="63.942" width="6" height="7.844"></rect><rect x="69.041" y="63.942" width="6" height="7.844"></rect><rect x="85.627" y="63.942" width="6" height="7.844"></rect><rect x="60.748" y="80.958" width="6" height="7.844"></rect><rect x="77.334" y="80.958" width="6" height="7.844"></rect><rect x="69.041" y="96.632" width="6" height="7.844"></rect></svg>