<svg height='100px' width='100px'  fill="#000000" xmlns="http://www.w3.org/2000/svg" xmlns:xlink="http://www.w3.org/1999/xlink" version="1.1" x="0px" y="0px" viewBox="0 0 52.89 53.68" enable-background="new 0 0 52.89 53.68" xml:space="preserve"><g><path d="M42.42,10.17c-0.02-0.01-0.04-0.02-0.06-0.03c0.04-0.6-0.22-1.18-0.75-1.52c-2.01-1.29-5.13-2.83-8.56-2.83   c-1.37,0-2.69,0.25-3.93,0.74V2.79c0-1.54-1.11-2.79-2.48-2.79h-2.22c-1.37,0-2.48,1.25-2.48,2.79v4.11   c-0.79-0.14-1.9-0.28-3.21-0.28c-3.13,0-5.99,0.76-8.52,2.27c-0.65,0.39-0.96,1.14-0.75,1.88c0.04,0.13,0.09,0.25,0.15,0.36   c-0.09,0.02-0.19,0.05-0.29,0.07c-0.24,0.06-0.46,0.18-0.66,0.34C3.16,16.12,0,22.66,0,29.46c0,13.35,11.86,24.21,26.45,24.21   s26.45-10.86,26.45-24.21C52.89,21.83,49.08,14.79,42.42,10.17z M18.73,8.61c1.38,0,2.5,0.17,3.2,0.32c1.01,0.2,2-0.6,2-1.64v-4.5   C23.94,2.34,24.2,2,24.42,2h2.22c0.22,0,0.48,0.34,0.48,0.79v4.25c0,0.46,0.18,0.88,0.51,1.2c0.49,0.47,1.23,0.6,1.86,0.32   c1.1-0.5,2.3-0.76,3.56-0.76c2.42,0,4.71,0.92,6.44,1.88c-0.05,0-0.1,0-0.16,0c-0.04,0-0.08,0-0.12,0c-0.12,0-0.23,0.01-0.34,0.01   c-2.06,0.01-3.75,0.18-5.06,0.5c-0.66,0.16-1.15,0.7-1.25,1.37c-0.1,0.68,0.22,1.35,0.82,1.71c2.5,1.47,3.55,3.25,3.96,4.72   c-2.92-2.39-6.32-2.77-7.77-2.81c-0.45,0-0.87,0.18-1.19,0.5c-0.32,0.32-0.49,0.75-0.48,1.21c0.08,5.14-1.7,8.58-2.73,10.14   c-0.99-2.09-1.29-6.58-1.23-10.27c0.01-0.85-0.62-1.58-1.48-1.69c-0.26-0.03-0.52-0.05-0.78-0.05c-0.05,0-0.1,0.01-0.15,0.01   c-0.13,0-0.26,0.02-0.4,0.03c-0.22,0.02-0.43,0.04-0.65,0.08c-0.12,0.02-0.24,0.05-0.36,0.07c-0.24,0.05-0.47,0.11-0.71,0.18   c-0.1,0.03-0.21,0.06-0.31,0.1c-0.25,0.08-0.5,0.17-0.75,0.27c-0.09,0.04-0.18,0.07-0.28,0.11c-0.26,0.11-0.51,0.23-0.76,0.36   c-0.08,0.04-0.17,0.08-0.25,0.13c-0.25,0.13-0.5,0.27-0.74,0.41c-0.08,0.05-0.16,0.09-0.25,0.14c-0.24,0.14-0.47,0.29-0.7,0.44   c-0.08,0.05-0.17,0.11-0.25,0.16c-0.24,0.16-0.47,0.33-0.7,0.49c-0.05,0.04-0.11,0.08-0.17,0.12c0.57-1.03,1.19-1.89,1.81-2.6   c0.78-0.89,1.54-1.55,2.17-2.01c0.04-0.03,0.09-0.07,0.12-0.09c0.05-0.04,0.09-0.06,0.14-0.09c0.11-0.08,0.22-0.16,0.32-0.22   c0.52-0.34,0.81-0.94,0.75-1.57c-0.06-0.63-0.47-1.16-1.05-1.39c-0.05-0.02-0.11-0.03-0.16-0.05c-0.23-0.08-0.47-0.15-0.73-0.22   c-0.14-0.03-0.28-0.07-0.42-0.09c-0.03-0.01-0.06-0.01-0.09-0.02c-0.02,0-0.04,0-0.06,0c-1.15-0.2-2.5-0.22-4.05-0.06   C14.76,8.98,16.68,8.61,18.73,8.61z M26.45,51.68C12.97,51.68,2,41.71,2,29.46c0-6.2,2.88-12.15,7.9-16.35   c2.17-0.58,4.5-1.04,6.86-1.37c0.14,0.02,0.27,0.05,0.4,0.08c-0.57,0.41-1.25,0.97-1.95,1.7c-0.02,0.02-0.03,0.04-0.05,0.05   c-0.22,0.23-0.44,0.46-0.66,0.72c-0.08,0.09-0.16,0.2-0.24,0.3c-0.16,0.19-0.32,0.38-0.47,0.59c-0.15,0.2-0.29,0.42-0.44,0.64   c-0.09,0.13-0.17,0.24-0.26,0.37c-0.22,0.35-0.44,0.71-0.64,1.1c-0.01,0.01-0.01,0.02-0.02,0.04c-0.21,0.4-0.42,0.82-0.62,1.27   c-0.23,0.52-0.18,1.09,0.12,1.56c0.52,0.8,1.73,1,2.48,0.38c2.89-2.38,5.54-3.67,7.52-3.53c-0.03,2.81,0.12,8.92,1.79,11.52   c0.31,0.48,0.84,0.77,1.41,0.77c0.53,0,1.04-0.26,1.35-0.69c0.91-1.25,2.84-4.41,3.3-9.26c0.07-0.69,0.1-1.42,0.1-2.18   c1.46,0.1,4.43,0.59,6.79,2.89c0.67,0.65,1.81,0.59,2.42-0.09c0.32-0.36,0.46-0.84,0.4-1.32c-0.18-1.39-0.75-3.17-2.29-4.87   c-0.04-0.05-0.08-0.1-0.12-0.15c-0.06-0.07-0.15-0.13-0.22-0.2c-0.51-0.51-1.09-1.01-1.8-1.48c0.91-0.16,2.25-0.29,4.13-0.29   c0.09,0,0.18,0,0.26,0c0.12,0,0.24,0,0.37,0l0.36,0.03c0.3,0.04,0.59,0.08,0.89,0.11l0.25,0.03c6.07,4.25,9.55,10.66,9.55,17.61   C50.89,41.71,39.93,51.68,26.45,51.68z"></path><path d="M6.06,30.71c-0.08-0.55-0.58-0.93-1.13-0.84C4.38,29.95,4,30.45,4.08,31c0.22,1.49,0.71,2.88,1.46,4.15   c0.19,0.32,0.52,0.49,0.86,0.49c0.17,0,0.35-0.04,0.51-0.14c0.48-0.28,0.63-0.9,0.35-1.37C6.65,33.1,6.24,31.92,6.06,30.71z"></path><path d="M5.12,27.68c0.02,0,0.05,0,0.07,0c0.52,0,0.96-0.4,1-0.93c0.08-1.14,0.31-2.24,0.69-3.29c0.19-0.52-0.08-1.09-0.6-1.28   c-0.52-0.19-1.09,0.08-1.28,0.6c-0.44,1.22-0.72,2.51-0.81,3.83C4.16,27.16,4.57,27.64,5.12,27.68z"></path></g></svg>